<?xml version="1.0" encoding="UTF-8" standalone="no"?>
<svg width="19px" height="19px" viewBox="0 0 19 19" version="1.1" xmlns="http://www.w3.org/2000/svg" xmlns:xlink="http://www.w3.org/1999/xlink" xmlns:sketch="http://www.bohemiancoding.com/sketch/ns">
    <!-- Generator: Sketch 3.3.1 (12002) - http://www.bohemiancoding.com/sketch -->
    <title>Oval 10 Copy 7 + Oval 10 Copy 8 + Oval 10 Copy 4 Copy Copy Copy Copy</title>
    <desc>Created with Sketch.</desc>
    <defs></defs>
    <g id="Page-1" stroke="none" stroke-width="1" fill="none" fill-rule="evenodd" sketch:type="MSPage">
        <rect id="Rectangle-74" sketch:type="MSShapeGroup" x="-816" y="-182" width="1595" height="593"></rect>
        <g id="Oval-10-Copy-7-+-Oval-10-Copy-8-+-Oval-10-Copy-4-Copy-+-Oval-10-Copy-7-+-Oval-10-Copy-8-+-Oval-10-Copy-4-Copy-Copy-Copy-+-Oval-10-Copy-7-+-Oval-10-Copy-8-+-Oval-10-Copy-4-Copy-Copy-Copy-Copy" sketch:type="MSLayerGroup" transform="translate(-18.000000, -4.000000)">
            <g id="Oval-10-Copy-7-+-Oval-10-Copy-8-+-Oval-10-Copy-4-Copy-Copy-Copy-Copy" transform="translate(27.291567, 13.411795) rotate(3.000000) translate(-27.291567, -13.411795) translate(14.791567, 0.911795)" sketch:type="MSShapeGroup">
                <path d="M12.0060404,21.8393314 C12.2232815,21.8557209 12.569353,21.8542673 12.8001544,21.8342511 L13.1934789,21.8001403 C13.632042,21.7621061 14.0329691,21.3716397 14.0871249,20.9426608 L14.3799797,18.6229035 C14.4349637,18.1873648 14.7695059,18.0227283 15.1352875,18.2604328 L17.2248045,19.618313 C17.5869655,19.8536647 18.1271405,19.7886202 18.4266391,19.4778877 L19.4129053,18.4546281 C19.7144993,18.1417217 19.7478603,17.612046 19.4738078,17.2537698 L18.15638,15.5314606 C17.8884216,15.1811513 18.0248754,14.8193428 18.4467491,14.7265095 L20.7280844,14.2245019 C21.1564093,14.1302491 21.5316763,13.7026311 21.5669186,13.2612259 L21.5612532,13.3321844 C21.5962037,12.8944347 21.5964955,12.1883574 21.5612532,11.7469523 L21.5669186,11.8179107 C21.5319682,11.380161 21.1499582,10.9474681 20.7280844,10.8546348 L18.4467491,10.3526271 C18.0184243,10.2583743 17.8823275,9.90595237 18.15638,9.5476761 L19.4738078,7.82536692 C19.7417663,7.47505759 19.7124039,6.93524104 19.4129053,6.62450864 L18.4266391,5.60124894 C18.1250452,5.28834256 17.5905861,5.22311916 17.2248045,5.46082366 L15.1352875,6.81870392 C14.7731265,7.05405556 14.4341356,6.88521213 14.3799797,6.45623322 L14.0871249,4.1364759 C14.0321409,3.70093722 13.6350996,3.31729575 13.1934789,3.27899643 L13.1934789,3.27899643 C12.7549158,3.24096227 12.0497459,3.23650797 11.609453,3.2697253 L11.8037316,3.2550682 C11.3674613,3.28798206 10.9697634,3.66344142 10.915769,4.09114145 L10.6156591,6.46836831 C10.5615211,6.89720496 10.2186674,7.05056141 9.85807886,6.81623164 L7.67064068,5.39471692 C7.30637861,5.15799988 6.76201073,5.22133549 6.46317649,5.52755743 L5.38770038,6.62962114 C5.08509839,6.93970396 5.05092017,7.46709065 5.32497266,7.82536692 L6.64240049,9.5476761 C6.91035892,9.89798543 6.77390511,10.2597939 6.35203135,10.3526271 L4.07069605,10.8546348 C3.64237118,10.9488876 3.26710417,11.3765056 3.23186188,11.8179107 L3.23752728,11.7469523 C3.20257684,12.184702 3.20228499,12.8907793 3.23752728,13.3321844 L3.23186188,13.2612259 C3.26681232,13.6989757 3.6488223,14.1316686 4.07069605,14.2245019 L6.35203135,14.7265095 C6.78035623,14.8207624 6.91645298,15.1731843 6.64240049,15.5314606 L5.32497266,17.2537698 C5.05701423,17.6040791 5.08886613,18.1432936 5.38770038,18.4495156 L6.46317649,19.5515793 C6.76577848,19.8616621 7.31005216,19.9187495 7.67064068,19.6844198 L9.85807886,18.2629051 C10.2223409,18.026188 10.5616646,18.1830683 10.6156591,18.6107684 L10.915769,20.9879952 C10.9699069,21.4168319 11.3634387,21.7908512 11.8037316,21.8240685 L12.0060404,21.8393314 Z" id="Oval-10-Copy-7" fill="#C7C7C7" transform="translate(12.399390, 12.539568) rotate(25.000000) translate(-12.399390, -12.539568) "></path>
                <ellipse id="Oval-10-Copy-8" fill="#C7C7C7" transform="translate(12.498585, 12.639885) rotate(25.000000) translate(-12.498585, -12.639885) " cx="12.4985854" cy="12.6398849" rx="6.64607317" ry="6.72120863"></ellipse>
                <ellipse id="Oval-10-Copy-4" fill="#FCFCFC" transform="translate(12.498585, 12.639885) rotate(25.000000) translate(-12.498585, -12.639885) " cx="12.4985854" cy="12.6398849" rx="2.57907317" ry="2.60823022"></ellipse>
            </g>
        </g>
    </g>
</svg>