<?xml version="1.0" encoding="UTF-8" standalone="no"?>
<svg width="20px" height="19px" viewBox="0 0 20 19" version="1.1" xmlns="http://www.w3.org/2000/svg" xmlns:xlink="http://www.w3.org/1999/xlink" xmlns:sketch="http://www.bohemiancoding.com/sketch/ns">
    <!-- Generator: Sketch 3.3.1 (12002) - http://www.bohemiancoding.com/sketch -->
    <title>Oval-10-Copy-7-+-Oval-10-Copy-8-+-Oval-10-Copy-4-Copy-+-Oval-10-Copy-7-+-Oval-10-Copy-8-+-Oval-10-Copy-4-Copy-Copy-Copy-+-Oval-10-Copy-7-+-Oval-10-Copy-8-+-Oval-10-Copy-4-Copy-Copy-Copy-Copy</title>
    <desc>Created with Sketch.</desc>
    <defs></defs>
    <g id="Page-1" stroke="none" stroke-width="1" fill="none" fill-rule="evenodd" sketch:type="MSPage">
        <g id="cog-pink" sketch:type="MSLayerGroup" transform="translate(-824.000000, -247.000000)">
            <g id="Page-1" sketch:type="MSShapeGroup">
                <rect id="Rectangle-74" x="0" y="0" width="1595" height="593"></rect>
                <g id="Oval-10-Copy-7-+-Oval-10-Copy-8-+-Oval-10-Copy-4-Copy-+-Oval-10-Copy-7-+-Oval-10-Copy-8-+-Oval-10-Copy-4-Copy-Copy-Copy-+-Oval-10-Copy-7-+-Oval-10-Copy-8-+-Oval-10-Copy-4-Copy-Copy-Copy-Copy" transform="translate(834.000000, 256.500000) rotate(-20.000000) translate(-834.000000, -256.500000) translate(820.000000, 243.000000)">
                    <g id="Oval-10-Copy-7-+-Oval-10-Copy-8-+-Oval-10-Copy-4-Copy-Copy-Copy" transform="translate(13.956201, 13.519708) rotate(3.000000) translate(-13.956201, -13.519708) translate(1.456201, 1.019708)">
                        <path d="M12.0020653,21.8384503 C12.2193064,21.8548398 12.5653779,21.8533862 12.7961793,21.83337 L13.1895038,21.7992592 C13.6280669,21.761225 14.028994,21.3707586 14.0831498,20.9417797 L14.3760046,18.6220224 C14.4309886,18.1864837 14.7655308,18.0218472 15.1313124,18.2595517 L17.2208294,19.6174319 C17.5829904,19.8527836 18.1231654,19.7877391 18.422664,19.4770066 L19.4089302,18.453747 C19.7105242,18.1408406 19.7438852,17.6111649 19.4698327,17.2528887 L18.1524049,15.5305795 C17.8844465,15.1802702 18.0209003,14.8184617 18.442774,14.7256284 L20.7241093,14.2236208 C21.1524342,14.129368 21.5277012,13.70175 21.5629435,13.2603448 L21.5572781,13.3313033 C21.5922286,12.8935536 21.5925204,12.1874763 21.5572781,11.7460712 L21.5629435,11.8170296 C21.5279931,11.3792799 21.1459831,10.946587 20.7241093,10.8537537 L18.442774,10.351746 C18.0144492,10.2574932 17.8783524,9.90507123 18.1524049,9.54679496 L19.4698327,7.82448578 C19.7377912,7.47417645 19.7084288,6.9343599 19.4089302,6.6236275 L18.422664,5.6003678 C18.1210701,5.28746142 17.586611,5.22223802 17.2208294,5.45994252 L15.1313124,6.81782278 C14.7691514,7.05317442 14.4301605,6.88433099 14.3760046,6.45535208 L14.0831498,4.13559476 C14.0281658,3.70005608 13.6311245,3.31641461 13.1895038,3.27811529 L13.1895038,3.27811529 C12.7509407,3.24008113 12.0457708,3.23562683 11.6054779,3.26884416 L11.7997565,3.25418706 C11.3634862,3.28710092 10.9657883,3.66256028 10.9117939,4.09026031 L10.611684,6.46748717 C10.557546,6.89632382 10.2146923,7.04968027 9.85410379,6.8153505 L7.66666561,5.39383578 C7.30240354,5.15711874 6.75803566,5.22045435 6.45920142,5.52667629 L5.38372531,6.62874 C5.08112332,6.93882282 5.0469451,7.46620951 5.32099759,7.82448578 L6.63842542,9.54679496 C6.90638385,9.89710429 6.76993004,10.2589128 6.34805628,10.351746 L4.06672098,10.8537537 C3.63839611,10.9480065 3.2631291,11.3756245 3.22788681,11.8170296 L3.23355221,11.7460712 C3.19860177,12.1838209 3.19830992,12.8898982 3.23355221,13.3313033 L3.22788681,13.2603448 C3.26283725,13.6980946 3.64484723,14.1307875 4.06672098,14.2236208 L6.34805628,14.7256284 C6.77638116,14.8198813 6.91247791,15.1723032 6.63842542,15.5305795 L5.32099759,17.2528887 C5.05303916,17.603198 5.08489106,18.1424125 5.38372531,18.4486345 L6.45920142,19.5506982 C6.76180341,19.860781 7.30607709,19.9178684 7.66666561,19.6835387 L9.85410379,18.262024 C10.2183658,18.0253069 10.5576895,18.1821872 10.611684,18.6098873 L10.9117939,20.9871141 C10.9659318,21.4159508 11.3594636,21.7899701 11.7997565,21.8231874 L12.0020653,21.8384503 L12.0020653,21.8384503 Z" id="Oval-10-Copy-7" fill="#FA5994" transform="translate(12.395415, 12.548093) rotate(25.000000) translate(-12.395415, -12.548093) "></path>
                        <ellipse id="Oval-10-Copy-8" fill="#FA5994" transform="translate(12.498585, 12.639885) rotate(25.000000) translate(-12.498585, -12.639885) " cx="12.4985854" cy="12.6398851" rx="6.64607317" ry="6.72120863"></ellipse>
                        <ellipse id="Oval-10-Copy-4" fill="#FCFCFC" transform="translate(12.498585, 12.639885) rotate(25.000000) translate(-12.498585, -12.639885) " cx="12.4985854" cy="12.6398851" rx="2.57907317" ry="2.60823022"></ellipse>
                    </g>
                </g>
            </g>
        </g>
    </g>
</svg>