<?xml version="1.0" encoding="UTF-8" standalone="no"?>
<svg width="19px" height="20px" viewBox="0 0 19 20" version="1.1" xmlns="http://www.w3.org/2000/svg" xmlns:xlink="http://www.w3.org/1999/xlink" xmlns:sketch="http://www.bohemiancoding.com/sketch/ns">
    <!-- Generator: Sketch 3.3.1 (12002) - http://www.bohemiancoding.com/sketch -->
    <title>cog</title>
    <desc>Created with Sketch.</desc>
    <defs></defs>
    <g id="Page-1" stroke="none" stroke-width="1" fill="none" fill-rule="evenodd" sketch:type="MSPage">
        <g id="cog" sketch:type="MSLayerGroup" transform="translate(-7.000000, -7.000000)">
            <g id="Page-1" sketch:type="MSShapeGroup">
                <g id="Oval-10-Copy-7-+-Oval-10-Copy-8-+-Oval-10-Copy-4-Copy-+-Oval-10-Copy-7-+-Oval-10-Copy-8-+-Oval-10-Copy-4-Copy-Copy-Copy-+-Oval-10-Copy-7-+-Oval-10-Copy-8-+-Oval-10-Copy-4-Copy-Copy-Copy-Copy">
                    <g id="cog" transform="translate(16.500000, 16.773381) rotate(-20.000000) translate(-16.500000, -16.773381) translate(4.000000, 4.273381)">
                        <path d="M12.3910827,21.8671697 C13.1855004,21.8583008 13.1942395,21.8241361 13.1942395,21.8241361 C13.6277944,21.7718346 14.0246615,21.3698022 14.0788174,20.9408233 L14.3716722,18.621066 C14.4266562,18.1855273 14.7611984,18.0208908 15.12698,18.2585953 L17.2164969,19.6164756 C17.5786579,19.8518272 18.118833,19.7867827 18.4183316,19.4760503 L19.4045977,18.4527906 C19.7061917,18.1398842 19.7395528,17.6102086 19.4655003,17.2519323 L18.1480725,15.5296231 C17.880114,15.1793138 18.0165679,14.8175054 18.4384416,14.7246721 L20.7197769,14.2226644 C21.1481018,14.1284116 21.5233688,13.7007936 21.5586111,13.2593885 L21.5529457,13.330347 C21.5878961,12.8925972 21.588188,12.1865199 21.5529457,11.7451148 L21.5586111,11.8160733 C21.5236606,11.3783235 21.1416507,10.9456306 20.7197769,10.8527973 L18.4384416,10.3507897 C18.0101167,10.2565368 17.87402,9.90411491 18.1480725,9.54583864 L19.4655003,7.82352946 C19.7334587,7.47322013 19.7040963,6.93340358 19.4045977,6.62267118 L18.4183316,5.59941148 C18.1167376,5.2865051 17.5822785,5.22128169 17.2164969,5.4589862 L15.12698,6.81686646 C14.764819,7.05221809 14.425828,6.88337466 14.3716722,6.45439576 L14.0788174,4.13463844 C14.0238334,3.69909976 13.626792,3.31545829 13.1851714,3.27715897 L13.1851714,3.27715897 C12.7466083,3.23912481 12.0414384,3.23467051 11.6011455,3.26788784 L11.7954241,3.25323074 C11.3591538,3.2861446 10.9614559,3.66160396 10.9074615,4.08930399 L10.6073515,6.46653085 C10.5532136,6.8953675 10.2103599,7.04872395 9.84977129,6.81439417 L7.66233312,5.39287946 C7.29807105,5.15616242 6.75370317,5.21949803 6.45486892,5.52571997 L5.37939281,6.62778368 C5.07679082,6.9378665 5.0426126,7.46525319 5.3166651,7.82352946 L6.63409292,9.54583864 C6.90205135,9.89614797 6.76559754,10.2579564 6.34372379,10.3507897 L4.06238848,10.8527973 C3.63406361,10.9470502 3.25879661,11.3746681 3.22355431,11.8160733 L3.22921972,11.7451148 C3.19426927,12.1828646 3.19397742,12.8889418 3.22921972,13.330347 L3.22355431,13.2593885 C3.25850476,13.6971383 3.64051473,14.1298312 4.06238848,14.2226644 L6.34372379,14.7246721 C6.77204866,14.8189249 6.90814541,15.1713469 6.63409292,15.5296231 L5.3166651,17.2519323 C5.04870667,17.6022416 5.08055857,18.1414561 5.37939281,18.4476781 L6.45486892,19.5497418 C6.75747091,19.8598246 7.30174459,19.9169121 7.66233312,19.6825823 L9.84977129,18.2610676 C10.2140334,18.0243505 10.5533571,18.1812309 10.6073515,18.6089309 L10.9074615,20.9861578 C10.9615994,21.4149944 11.355223,21.8131146 11.7929306,21.8518371 C11.7929306,21.8518371 11.596665,21.8760386 12.3910827,21.8671697 L12.3910827,21.8671697 Z" id="Oval-10-Copy-7" fill="#62BAF7" transform="translate(12.391083, 12.557340) rotate(25.000000) translate(-12.391083, -12.557340) "></path>
                        <ellipse id="Oval-10-Copy-8" fill="#62BAF7" transform="translate(12.498585, 12.639885) rotate(25.000000) translate(-12.498585, -12.639885) " cx="12.4985854" cy="12.6398851" rx="6.64607317" ry="6.72120863"></ellipse>
                        <ellipse id="Oval-10-Copy-4" fill="#FCFCFC" transform="translate(12.498585, 12.639885) rotate(25.000000) translate(-12.498585, -12.639885) " cx="12.4985854" cy="12.6398851" rx="2.57907317" ry="2.60823022"></ellipse>
                    </g>
                </g>
            </g>
        </g>
    </g>
</svg>