<?xml version="1.0" encoding="UTF-8" standalone="no"?>
<svg width="118px" height="37px" viewBox="0 0 118 37" version="1.1" xmlns="http://www.w3.org/2000/svg" xmlns:xlink="http://www.w3.org/1999/xlink" xmlns:sketch="http://www.bohemiancoding.com/sketch/ns">
    <!-- Generator: Sketch 3.3.1 (12002) - http://www.bohemiancoding.com/sketch -->
    <title>Medeo Web Logo</title>
    <desc>Created with Sketch.</desc>
    <defs>
        <path id="path-1" d="M0.00972299169,0.156914798 L116.979744,0.156914798 L116.979744,35.9903139 L0.00972299169,35.9903139 L0.00972299169,0.156914798 Z"></path>
    </defs>
    <g id="Page-1" stroke="none" stroke-width="1" fill="none" fill-rule="evenodd" sketch:type="MSPage">
        <g id="Medeo-Web-Logo" sketch:type="MSLayerGroup" transform="translate(0.750000, 0.818657)">
            <g id="Group-3">
                <mask id="mask-2" sketch:name="Clip 2" fill="white">
                    <use xlink:href="#path-1"></use>
                </mask>
                <g id="Clip-2"></g>
                <path d="M0,36 L38.1603116,36 L38.1603116,0.156914798 L0,0.156914798 L0,36 Z M18.8984169,21.5178296 L18.9065194,21.5178296 L24.3340554,7.03582063 L33.0722701,7.03582063 L33.0722701,29.1209327 L27.2574349,29.1209327 L27.2574349,14.6390852 L27.137518,14.6390852 L21.1095873,29.1209327 L16.6436551,29.1209327 L10.6158864,14.6390852 L10.5395609,14.6390852 L10.5395609,29.1209327 L4.72456371,29.1209327 L4.72456371,7.03582063 L13.4196731,7.03582063 L18.846885,21.5178296 L18.8984169,21.5178296 L18.8984169,21.5178296 Z" id="Fill-1" fill="#4D9ADA" sketch:type="MSShapeGroup" mask="url(#mask-2)"></path>
            </g>
            <path d="M52.6472452,18.9587623 C52.6472452,18.1052556 52.1849169,17.3237489 51.6464252,16.7115874 C51.1077715,16.0979731 50.3012493,15.7909238 49.2241039,15.7909238 C48.6956593,15.7909238 48.2135609,15.873417 47.7732715,16.0375964 C47.3323338,16.2017758 46.9485997,16.4266547 46.6186662,16.7115874 C46.2887327,16.9952287 46.0257258,17.3303677 45.8273767,17.71313 C45.6314584,18.096861 45.4018338,18.5433901 45.3786607,18.9587623 L52.6472452,18.9587623 L52.6472452,18.9587623 Z M57.4343601,20.9810583 L57.4343601,21.6387444 C57.4343601,21.8579731 57.3925512,22.0192466 57.3719709,22.2171659 L45.3786607,22.2171659 C45.4225762,22.6772556 45.6807216,23.1392825 45.9100222,23.5097758 C46.1419155,23.8839821 46.4383047,24.2063677 46.8017825,24.4793543 C47.1625055,24.7544395 47.5692507,24.9676951 48.0203975,25.1204126 C48.4713823,25.2740987 48.9380859,25.3498117 49.4221288,25.3498117 C50.2780762,25.3498117 51.0045457,25.1920897 51.597162,24.8732556 C52.1930194,24.5565202 52.6749557,24.1456682 53.0484806,23.6431211 L56.8081994,26.0074978 C56.0378144,27.1244664 55.0227341,27.9842691 53.7569626,28.5864215 C52.4945942,29.1880897 51.0256122,29.4901345 49.3552022,29.4901345 C48.1234612,29.4901345 46.9588089,29.2981883 45.8609211,28.9144574 C44.7607645,28.5308879 43.7989986,27.9726457 42.9774058,27.2392466 C42.15241,26.5056861 41.5032382,25.6032646 41.0316731,24.5300448 C40.5571911,23.4560179 40.322867,22.2289507 40.322867,20.8507803 C40.322867,19.5137758 40.5521676,18.3046278 41.0136856,17.2199462 C41.4748795,16.1363946 42.1012022,15.2160538 42.8949224,14.4611839 C43.6857258,13.7050224 44.619133,13.1196592 45.6962784,12.7038027 C46.7734238,12.2876233 47.9379141,12.0800179 49.1905596,12.0800179 C50.3991274,12.0800179 51.5098172,12.2826188 52.520036,12.6870135 C53.5330097,13.0925381 54.401597,13.6780628 55.1254737,14.4443946 C55.8519432,15.2108879 56.416687,16.1413991 56.8239183,17.2367354 C57.2308255,18.3319103 57.4343601,19.580287 57.4343601,20.9810583 L57.4343601,20.9810583 Z" id="Fill-4" fill="#4D9ADA" sketch:type="MSShapeGroup"></path>
            <path d="M72.3683892,20.7280897 C72.3683892,20.2029417 72.2755346,19.6876413 72.0901496,19.1834798 C71.9020097,18.6804484 71.6394889,18.2311749 71.2986981,17.8369507 C70.9558006,17.442565 70.5441939,17.1255067 70.0622576,16.8843229 C69.5772424,16.6442691 69.0280554,16.5236771 68.41259,16.5236771 C67.7765443,16.5236771 67.2142313,16.6442691 66.7324571,16.8843229 C66.2482521,17.1255067 65.8408587,17.4378834 65.5107632,17.8203229 C65.1808296,18.2038924 64.9337036,18.6483229 64.7688989,19.1513543 C64.603608,19.6545471 64.5212867,20.1693632 64.5212867,20.6948341 C64.5212867,21.2209507 64.603608,21.7406099 64.7688989,22.2557489 C64.9337036,22.770565 65.1808296,23.2250045 65.5107632,23.6187444 C65.8408587,24.0132915 66.2482521,24.3300269 66.7324571,24.5712108 C67.2142313,24.8123946 67.7765443,24.9318565 68.41259,24.9318565 C69.0280554,24.9318565 69.5772424,24.8123946 70.0622576,24.5712108 C70.5441939,24.3300269 70.9558006,24.0132915 71.2986981,23.6187444 C71.6394889,23.2250045 71.9020097,22.7750852 72.0901496,22.2723767 C72.2755346,21.7674081 72.3683892,21.2527534 72.3683892,20.7280897 M72.6317202,29.0941345 L72.6317202,26.9225112 L72.5025665,26.8049865 C71.9736357,27.6366996 71.2214003,28.2775964 70.2424571,28.72687 C69.2657825,29.1746906 68.227205,29.3997309 67.1262382,29.3997309 C65.8948213,29.3997309 64.7974197,29.1583857 63.8304681,28.6768251 C62.8617341,28.195426 62.0450028,27.5546906 61.3746025,26.7549417 C60.7024197,25.9564843 60.1919626,25.0313004 59.8416108,23.9793901 C59.4886662,22.9279641 59.3133283,21.834565 59.3133283,20.6948341 C59.3133283,19.5573632 59.4935277,18.4671928 59.8570055,17.4259372 C60.2199972,16.3861345 60.7358019,15.4722511 61.405554,14.6841256 C62.078385,13.8958386 62.8900928,13.2706009 63.846187,12.8113184 C64.8024432,12.3513901 65.874241,12.1215067 67.0625526,12.1215067 C68.2706343,12.1215067 69.2913864,12.3513901 70.1267535,12.8113184 C70.9635789,13.2706009 71.6109681,13.7749238 72.0716759,14.3220269 L72.2684044,14.2529327 L72.2684044,4.11756054 L77.7184654,4.11756054 L77.7184654,29.0941345 L72.6317202,29.0941345" id="Fill-5" fill="#4D9ADA" sketch:type="MSShapeGroup"></path>
            <path d="M91.8894017,18.8880538 C91.8894017,18.0345471 91.6189404,17.3001794 91.0830416,16.6878565 C90.5421191,16.0744036 89.7351108,15.7671928 88.6582895,15.7671928 C88.1295208,15.7671928 87.6482327,15.8495247 87.207295,16.0138655 C86.7694363,16.1783677 86.3824612,16.4030852 86.0525277,16.6878565 C85.7224321,16.9714978 85.4597493,17.3066368 85.2610762,17.6890762 C85.0651579,18.07313 84.955126,18.4725202 84.9316288,18.8880538 L91.8894017,18.8880538 L91.8894017,18.8880538 Z M96.8682216,20.9571659 L96.8682216,21.6146906 C96.8682216,21.834565 96.8552576,22.0412018 96.8346773,22.2391211 L84.9316288,22.2391211 C84.9757064,22.6984036 85.114097,23.1152287 85.3440457,23.4865291 C85.5754529,23.8599283 85.8721662,24.1823139 86.235644,24.4561076 C86.5989598,24.7307085 87.0035983,24.9434798 87.4544211,25.0958744 C87.905892,25.2502063 88.3722715,25.3257578 88.8563144,25.3257578 C89.7145305,25.3257578 90.4393795,25.1685202 91.0311856,24.8498475 C91.6268809,24.5331121 92.1086551,24.1222601 92.4821801,23.6187444 L96.2420609,25.9837668 C95.471838,27.1002511 94.4569197,27.9606996 93.1913102,28.5630135 C91.9284557,29.164843 90.4599598,29.4660807 88.7895499,29.4660807 C87.5600776,29.4660807 86.3954252,29.2739731 85.2952687,28.8910493 C84.1968947,28.507157 83.2359391,27.9489148 82.4111053,27.2158386 C81.5862715,26.4819552 80.9374238,25.5790493 80.4655346,24.5061525 C79.9912147,23.4332556 79.7570526,22.2052197 79.7570526,20.826565 C79.7570526,19.4905291 79.9863532,18.2810583 80.4475471,17.1963767 C80.9113338,16.1126637 81.5373324,15.1923229 82.3287839,14.4374529 C83.1202355,13.6816143 84.0533186,13.0960897 85.1296537,12.6800717 C86.2071233,12.2640538 87.3720997,12.056287 88.6249072,12.056287 C89.8329889,12.056287 90.9440028,12.258565 91.9568144,12.6634439 C92.9668712,13.0688072 93.8351343,13.6543318 94.5598213,14.4208251 C95.286615,15.1873184 95.8502244,16.1178296 96.2577798,17.2130045 C96.6651731,18.3078565 96.8682216,19.5573632 96.8682216,20.9571659 L96.8682216,20.9571659 Z" id="Fill-6" fill="#4D9ADA" sketch:type="MSShapeGroup"></path>
            <path d="M111.771623,20.6948341 C111.771623,20.1696861 111.68363,19.6545471 111.506348,19.1510314 C111.33101,18.6483229 111.07886,18.2040538 110.748927,17.8203229 C110.418831,17.4375605 110.012086,17.1255067 109.529339,16.8843229 C109.045296,16.6442691 108.4859,16.5233543 107.8471,16.5233543 C107.210406,16.5233543 106.648093,16.6442691 106.166805,16.8843229 C105.682114,17.1255067 105.280392,17.4375605 104.963098,17.8203229 C104.643698,18.2040538 104.401596,18.6483229 104.236143,19.1510314 C104.0715,19.6545471 103.989179,20.1696861 103.989179,20.6948341 C103.989179,21.2209507 104.0715,21.7356054 104.236143,22.2391211 C104.401596,22.7432825 104.64856,23.1973991 104.978655,23.6017937 C105.308589,24.0076413 105.715496,24.3300269 106.200187,24.5712108 C106.682285,24.8123946 107.243788,24.9318565 107.880482,24.9318565 C108.516366,24.9318565 109.078679,24.8123946 109.56337,24.5712108 C110.045468,24.3300269 110.452213,24.0076413 110.782309,23.6017937 C111.112242,23.1973991 111.359206,22.7432825 111.524011,22.2391211 C111.689302,21.7356054 111.771623,21.2209507 111.771623,20.6948341 M116.979744,20.6948341 C116.979744,22.0305471 116.737641,23.2396951 116.255705,24.324861 C115.771662,25.4088969 115.111471,26.3292377 114.27659,27.0837848 C113.441871,27.8397848 112.475082,28.4254709 111.374925,28.8410045 C110.276875,29.2566996 109.098773,29.4664036 107.8471,29.4664036 C106.614873,29.4664036 105.445035,29.2566996 104.336938,28.8410045 C103.226086,28.4254709 102.260107,27.8397848 101.435111,27.0837848 C100.610277,26.3292377 99.9559197,25.4088969 99.4739834,24.324861 C98.9897784,23.2396951 98.7470277,22.0305471 98.7470277,20.6948341 C98.7470277,19.3592825 98.9897784,18.155139 99.4739834,17.0819193 C99.9559197,16.008861 100.610277,15.0998206 101.435111,14.3554439 C102.260107,13.610583 103.226086,13.0407175 104.336938,12.6464933 C105.445035,12.2525919 106.614873,12.056287 107.8471,12.056287 C109.098773,12.056287 110.276875,12.2525919 111.374925,12.6464933 C112.475082,13.0407175 113.441871,13.610583 114.27659,14.3554439 C115.111471,15.0998206 115.771662,16.008861 116.255705,17.0819193 C116.737641,18.155139 116.979744,19.3592825 116.979744,20.6948341" id="Fill-7" fill="#4D9ADA" sketch:type="MSShapeGroup"></path>
        </g>
    </g>
</svg>