<?xml version="1.0" standalone="no"?>
<!DOCTYPE svg PUBLIC "-//W3C//DTD SVG 1.1//EN" "http://www.w3.org/Graphics/SVG/1.1/DTD/svg11.dtd" >
<svg xmlns="http://www.w3.org/2000/svg" xmlns:xlink="http://www.w3.org/1999/xlink" version="1.1">
<metadata></metadata>
<defs>
<font id="rooneysans-lightuploaded_file" horiz-adv-x="1168" >
<font-face units-per-em="2048" ascent="1540" descent="-508" />
<missing-glyph horiz-adv-x="553" />
<glyph horiz-adv-x="0" />
<glyph horiz-adv-x="0" />
<glyph unicode="&#xd;" horiz-adv-x="0" />
<glyph unicode=" "  horiz-adv-x="553" />
<glyph unicode="&#x09;" horiz-adv-x="553" />
<glyph unicode="&#xa0;" horiz-adv-x="553" />
<glyph unicode="!" horiz-adv-x="676" d="M221 96q0 25 9 47t25 38t37.5 25t47.5 9q25 0 46.5 -8.5t36.5 -23.5t23.5 -36.5t8.5 -46.5t-9 -46.5t-25 -37.5t-38 -25t-47 -9q-26 0 -47 8.5t-36 23.5t-23.5 36t-8.5 46zM254 1364v30v25q0 14 4.5 26.5t14.5 21.5t26 14.5t39 5.5t39 -5.5t26 -14.5t14.5 -21.5 t4.5 -26.5v-25v-30q0 -17 -0.5 -37.5t-1.5 -46.5l-14 -848q0 -29 -18 -46t-50 -17t-49.5 17t-18.5 46l-14 848q-1 26 -1.5 46.5t-0.5 37.5z" />
<glyph unicode="&#x22;" horiz-adv-x="756" d="M139 1418v16q0 28 19.5 44.5t56.5 16.5t56.5 -16.5t19.5 -44.5q0 -7 -1 -16l-1 -24l-18 -340q-2 -26 -17.5 -38t-38.5 -12t-38.5 12t-17.5 38l-18 340zM465 1418v16q0 28 19.5 44.5t56.5 16.5t56.5 -16.5t19.5 -44.5q0 -7 -1 -16l-1 -24l-18 -340q-2 -26 -17.5 -38 t-38.5 -12t-38.5 12t-17.5 38l-18 340z" />
<glyph unicode="#" horiz-adv-x="1454" d="M61 425q0 27 14 41t40 14h241l139 416h-205q-26 0 -40 14.5t-14 40.5q0 27 14 41t40 14h242l113 342q8 26 23 36.5t37 10.5q13 0 25 -4t20 -11.5t13 -18t5 -22.5q0 -9 -1.5 -16t-4.5 -18l-99 -299h339l114 342q8 26 23 36.5t37 10.5q13 0 25 -4t20 -11.5t13 -18t5 -22.5 q0 -9 -1.5 -16t-4.5 -18l-99 -299h204q26 0 40.5 -14t14.5 -41q0 -26 -14.5 -40.5t-40.5 -14.5h-241l-138 -416h204q26 0 40.5 -14t14.5 -41q0 -26 -14.5 -40.5t-40.5 -14.5h-241l-113 -341q-9 -26 -23.5 -36.5t-35.5 -10.5q-14 0 -25.5 4t-20 11t-13.5 17.5t-5 22.5 q0 9 1 16.5t5 18.5l99 298h-339l-114 -341q-9 -26 -23.5 -36.5t-35.5 -10.5q-14 0 -25.5 4t-20 11t-13.5 17.5t-5 22.5q0 9 1 16.5t5 18.5l99 298h-205q-26 0 -40 14.5t-14 40.5zM488 480h339l139 416h-340z" />
<glyph unicode="$" horiz-adv-x="1069" d="M135 141q0 26 17 41.5t44 15.5q19 0 40.5 -10.5t54 -23t81 -23t123.5 -10.5q79 0 136 16.5t94 46.5t55 71.5t18 92.5q0 61 -28.5 102.5t-75 72t-106.5 52.5l-122 45q-62 23 -121.5 49.5t-106 64.5t-75 90.5t-28.5 127.5q0 66 21 123.5t64 102t106.5 74.5t149.5 41v232 q0 29 16 43.5t45 14.5t45 -14.5t16 -43.5v-225q52 -1 95 -8.5t77 -18.5t57.5 -24.5t35.5 -25.5q14 -14 19.5 -26.5t5.5 -28.5q0 -25 -17 -40.5t-44 -15.5q-20 0 -41 9.5t-51 20.5t-71 20.5t-101 9.5q-73 0 -125.5 -14.5t-86 -41.5t-49.5 -64t-16 -82q0 -55 28.5 -93 t75 -65.5t105.5 -49.5l122 -44q63 -23 122.5 -50.5t106 -68t75 -97t28.5 -136.5q0 -71 -21.5 -132.5t-65.5 -108.5t-110 -79t-154 -45v-240q0 -29 -16 -43.5t-45 -14.5t-45 14.5t-16 43.5v232q-66 0 -119 8t-92.5 20.5t-66 27t-38.5 26.5q-14 14 -19.5 26.5t-5.5 29.5z" />
<glyph unicode="%" horiz-adv-x="1911" d="M112 994q0 99 25 174t70 125.5t106.5 76t134.5 25.5q70 0 129 -24t101.5 -72t66.5 -119.5t24 -166.5q0 -99 -25 -174t-70 -125.5t-106.5 -76t-134.5 -25.5q-70 0 -129 24t-101.5 71.5t-66.5 119t-24 167.5zM254 1004q0 -75 15.5 -128.5t41 -88t59.5 -50.5t72 -16 q37 0 70.5 16t59 50t40.5 87.5t15 128.5t-15.5 128.5t-41 88t-60 50.5t-71.5 16t-70.5 -16t-59 -50t-40.5 -87.5t-15 -128.5zM509 40q0 9 3 17t11 22l762 1282q10 17 21.5 26t30.5 9q12 0 23.5 -4.5t21 -12t15 -18t5.5 -22.5q0 -9 -3 -17t-11 -22l-762 -1282 q-10 -17 -21.5 -26t-30.5 -9q-12 0 -23.5 4.5t-21 12t-15 18t-5.5 22.5zM1142 366q0 99 25 174t70 125.5t106.5 76t134.5 25.5q70 0 129 -24t101.5 -72t66.5 -119.5t24 -166.5q0 -99 -25 -174t-70 -125.5t-106.5 -76t-134.5 -25.5q-70 0 -129 24t-101.5 71.5t-66.5 119 t-24 167.5zM1284 376q0 -75 15.5 -128.5t41 -88t59.5 -50.5t72 -16q37 0 70.5 16t59 50t40.5 87.5t15 128.5t-15.5 128.5t-41 88t-60 50.5t-71.5 16t-70.5 -16t-59 -50t-40.5 -87.5t-15 -128.5z" />
<glyph unicode="&#x26;" horiz-adv-x="1581" d="M149 420q0 54 11 100.5t29.5 87t42 73.5t47.5 60q57 62 131 106q-39 73 -59.5 142t-20.5 135q0 87 25.5 155.5t74.5 116.5t119.5 73.5t160.5 25.5q49 0 87 -6t66.5 -15.5t47 -20t27.5 -19.5q13 -13 18 -25t5 -29q0 -12 -4.5 -21.5t-12 -17t-18 -11.5t-22.5 -4 q-15 0 -33 7l-43 16q-25 9 -57.5 16t-76.5 7q-104 0 -160.5 -58t-56.5 -170q0 -90 43 -189t122.5 -202t193.5 -208.5t256 -208.5q14 38 21.5 82t7.5 95q0 73 -13.5 126.5t-37.5 95.5t-56.5 75.5t-69.5 65.5q-24 20 -33 35t-8 36q-1 26 14.5 41.5t41.5 15.5h378 q26 0 41.5 -16t15.5 -45t-15.5 -45t-41.5 -16h-199q33 -35 58 -75t41.5 -83.5t25 -91.5t8.5 -99q0 -78 -16 -148t-48 -130q57 -37 105 -64l98 -54q16 -9 31.5 -16t27.5 -15.5t19 -19.5t7 -27q0 -14 -5 -26.5t-14 -22.5t-22 -16t-30 -6q-7 0 -15 1t-19 4.5t-27 10t-38 16.5 q-26 12 -49 24t-47 26l-50 31l-58 37q-37 -37 -82.5 -66t-100.5 -49t-118 -30.5t-135 -10.5q-131 0 -231 33.5t-167.5 92t-102.5 138.5t-35 174zM299 440q0 -75 25 -136.5t75.5 -105t127 -67.5t179.5 -24q51 0 95.5 6.5t83.5 20t71.5 33t58.5 45.5q-175 130 -313 264 t-229 268q-49 -31 -87 -75q-33 -38 -60 -94.5t-27 -134.5z" />
<glyph unicode="'" horiz-adv-x="430" d="M139 1418v16q0 28 19.5 44.5t56.5 16.5t56.5 -16.5t19.5 -44.5q0 -7 -1 -16l-1 -24l-18 -340q-2 -26 -17.5 -38t-38.5 -12t-38.5 12t-17.5 38l-18 340z" />
<glyph unicode="(" horiz-adv-x="638" d="M146 578q0 146 22 279t64 252t102.5 223t137.5 193q11 13 24 18.5t26 5.5t24 -4.5t19 -11.5t12.5 -17t4.5 -20t-4 -19.5t-13 -21.5q-62 -87 -111 -183t-83 -204.5t-52.5 -230.5t-18.5 -259t18.5 -259t52.5 -230.5t83 -204.5t111 -183q9 -12 13 -21.5t4 -19.5 q0 -11 -4.5 -20.5t-12.5 -16.5t-19 -11.5t-24 -4.5t-26 5.5t-24 18.5q-77 88 -137.5 192.5t-102.5 223.5t-64 252t-22 279z" />
<glyph unicode=")" horiz-adv-x="638" d="M56 -340q0 10 4 19.5t13 21.5q61 87 110.5 183t83.5 204.5t52.5 230.5t18.5 259t-18.5 259t-52.5 230.5t-83.5 204.5t-110.5 183q-9 12 -13 21.5t-4 19.5t4.5 20t12.5 17t19 11.5t24 4.5t26 -5.5t24 -18.5q76 -89 136.5 -193t102.5 -223t64.5 -252t22.5 -279t-22.5 -279 t-64.5 -252t-102.5 -223.5t-136.5 -192.5q-11 -13 -24 -18.5t-26 -5.5t-24 4.5t-19 11.5t-12.5 16.5t-4.5 20.5z" />
<glyph unicode="*" horiz-adv-x="856" d="M109 1000q0 20 14 32t42 26l169 83l-176 91q-25 13 -36.5 23.5t-11.5 30.5q0 12 4.5 24t12.5 21.5t18 15.5t21 6q13 0 23 -5t24 -14l167 -106l-10 197q-1 14 -1 18v6q0 21 18 33.5t41 12.5t41 -12.5t18 -33.5v-6q0 -4 -1 -18l-10 -198l165 104q17 11 26.5 16t21.5 5 t23 -6t18.5 -15.5t12 -21.5t4.5 -23q0 -20 -14 -32t-42 -26l-169 -83l176 -91q25 -13 36.5 -23.5t11.5 -30.5q0 -12 -4.5 -24t-12.5 -21.5t-18 -15.5t-21 -6q-13 0 -23 5t-24 14l-167 106l10 -197q1 -14 1 -18v-6q0 -21 -18 -33.5t-41 -12.5t-41 12.5t-18 33.5v6q0 4 1 18 l10 198l-165 -104q-17 -11 -26.5 -16t-21.5 -5t-23 6t-18.5 15.5t-12 21.5t-4.5 23z" />
<glyph unicode="+" d="M155 582q0 27 15.5 44t41.5 17h306v313q0 32 18 49t48 17t48 -17t18 -49v-313h305q26 0 42 -17t16 -44t-16 -44t-42 -17h-305v-313q0 -32 -18 -49t-48 -17t-48 17t-18 49v313h-306q-26 0 -41.5 17t-15.5 44z" />
<glyph unicode="," horiz-adv-x="557" d="M88 -260q0 18 14 33.5t35 41.5t45.5 68t44.5 111q-12 4 -23.5 12.5t-21 21.5t-15 30t-5.5 38q0 25 9 47t25 38t37.5 25t47.5 9q27 0 48 -9.5t35.5 -26.5t22.5 -41.5t8 -55.5q0 -41 -11 -80.5t-27.5 -75.5t-36 -67t-37.5 -55q-38 -50 -75.5 -79.5t-69.5 -29.5 q-24 0 -37 12.5t-13 32.5z" />
<glyph unicode="-" horiz-adv-x="971" d="M172 535q0 30 15 45.5t42 15.5h512q28 0 43 -15.5t15 -45.5q0 -31 -15 -46.5t-43 -15.5h-512q-27 0 -42 15.5t-15 46.5z" />
<glyph unicode="." horiz-adv-x="557" d="M162 96q0 25 9 47t25 38t37.5 25t47.5 9q25 0 46 -8.5t36 -23.5t23.5 -36.5t8.5 -46.5t-9 -46.5t-25 -37.5t-38 -25t-47 -9t-46 8.5t-36 23.5t-23.5 36t-8.5 46z" />
<glyph unicode="/" horiz-adv-x="829" d="M3 -279q0 8 2.5 17.5t7.5 23.5l611 1675q10 27 24 40t39 13q14 0 27.5 -4.5t24 -13t17 -19.5t6.5 -24q0 -8 -2.5 -17.5t-7.5 -23.5l-611 -1675q-10 -27 -24 -40t-39 -13q-14 0 -27.5 4.5t-24 13t-17 19.5t-6.5 24z" />
<glyph unicode="0" horiz-adv-x="1252" d="M108 510q0 132 38 237t108 177.5t167.5 111.5t216.5 39q110 0 202.5 -38t160 -107.5t105.5 -167t38 -215.5q0 -132 -38.5 -237t-108 -177.5t-167.5 -111.5t-217 -39q-110 0 -202.5 38t-159.5 107.5t-105 167t-38 215.5zM259 530q0 -99 28.5 -177.5t78 -133.5t117 -84 t145.5 -29q80 0 147 28t115 81.5t75 131.5t27 179q0 99 -28 178t-77.5 133.5t-117 83.5t-145.5 29q-80 0 -147 -28t-115.5 -81.5t-75.5 -131.5t-27 -179z" />
<glyph unicode="1" horiz-adv-x="666" d="M34 870q0 13 3.5 21t11.5 16q6 6 18.5 15t32 20.5t47.5 26.5l65 33q35 18 61.5 30t47 20t37.5 11.5t32 3.5q33 0 52 -19.5t19 -56.5v-930q0 -32 -18.5 -49.5t-55.5 -17.5t-55.5 17.5t-18.5 49.5v832l-170 -62l-29 -10q-14 -4 -29 -4q-11 0 -20 4t-16 11t-11 17t-4 21z " />
<glyph unicode="2" horiz-adv-x="922" d="M61 86q0 26 13.5 48.5t48.5 51.5l207 179l118 104q55 50 96.5 99.5t66 99.5t24.5 104q0 79 -56.5 128.5t-172.5 49.5q-50 0 -89 -8.5t-69 -19t-52 -19t-38 -8.5q-23 0 -37.5 14t-14.5 37q0 14 5 25t14 20q12 12 39.5 27t67 27.5t89.5 21t109 8.5q88 0 155 -21.5 t111.5 -60t67 -92t22.5 -117.5q0 -74 -31 -139.5t-82.5 -127t-118.5 -121.5l-140 -120l-172 -145h538q26 0 43 -17.5t17 -47.5q0 -31 -17 -48.5t-43 -17.5h-622q-47 0 -72 23t-25 63z" />
<glyph unicode="3" horiz-adv-x="946" d="M72 -221q0 26 16 41.5t41 15.5q15 0 34 -8.5t47.5 -19t71 -19t105.5 -8.5q69 0 125 21.5t95.5 59.5t61 90t21.5 114q0 64 -21 115.5t-70 87t-129.5 54.5t-199.5 19q-18 0 -27 3t-16 9q-8 8 -11.5 21.5t-3.5 28t3.5 28t11.5 21.5q7 6 16 9t27 3q99 0 170 19.5t116.5 55.5 t67 85.5t21.5 109.5q0 103 -60 159t-188 56q-50 0 -88.5 -8.5t-68.5 -19t-52 -19t-38 -8.5q-23 0 -37.5 14t-14.5 37q0 14 4.5 25t14.5 20q12 12 39.5 27t67 27.5t89.5 21t109 8.5q92 0 162 -23.5t117.5 -66t71.5 -103t24 -134.5q0 -57 -18.5 -108t-51.5 -93.5t-78 -75 t-98 -51.5v-2q70 -14 124.5 -43.5t92 -72.5t57 -99t19.5 -123q0 -90 -32.5 -167t-94 -133t-149 -88t-197.5 -32q-62 0 -109 7t-81.5 17.5t-56 22.5t-30.5 21q-11 11 -16.5 22.5t-5.5 28.5z" />
<glyph unicode="4" horiz-adv-x="1051" d="M41 168q0 11 1.5 20t5 19t9.5 20.5t15 24.5l508 721q19 27 35.5 45.5t32.5 29t32 15t35 4.5q40 0 62 -22t22 -68v-764h172q28 0 43.5 -16.5t15.5 -46.5q0 -31 -15.5 -47.5t-43.5 -16.5h-172v-348q0 -32 -18.5 -50t-55.5 -18q-35 0 -53.5 18t-18.5 50v348h-522 q-45 0 -67.5 22t-22.5 60zM197 213h456v655z" />
<glyph unicode="5" horiz-adv-x="967" d="M82 -221q0 26 16 41.5t41 15.5q15 0 34 -8.5t47.5 -19t71 -19t105.5 -8.5q77 0 137 21.5t101.5 61t63.5 95t22 123.5t-27 126.5t-87 101t-155 67t-231 24.5q-38 0 -57 18.5t-17 55.5l25 502q2 40 23.5 60t64.5 20h516q26 0 43 -17.5t17 -48.5t-17 -48t-43 -17h-479 l-18 -394q163 -3 276 -37.5t184 -92.5t103 -135.5t32 -166.5q0 -98 -32.5 -179t-95.5 -139t-155 -90t-210 -32q-62 0 -109 7t-81.5 17.5t-56 22.5t-30.5 21q-11 11 -16.5 22.5t-5.5 28.5z" />
<glyph unicode="6" horiz-adv-x="1094" d="M114 580q0 208 48 361.5t130.5 255t194 151t239.5 49.5q35 0 62.5 -3t48.5 -8.5t35 -12.5t22 -15t12 -17.5t4 -23.5q0 -29 -17 -43t-40 -14q-12 0 -23 2t-26.5 4t-37.5 4t-54 2q-87 0 -160.5 -34t-130.5 -100t-94.5 -162.5t-52.5 -222.5q33 26 79 47q39 18 96 33t132 15 q96 0 172 -28t129.5 -80.5t81.5 -127t28 -168.5q0 -107 -31.5 -192.5t-88.5 -145.5t-137 -92t-177 -32q-101 0 -183 34t-140 106t-89.5 185.5t-31.5 272.5zM265 616q0 -144 21 -242t61 -158t96.5 -86t128.5 -26q59 0 108.5 20.5t85 61t55.5 100.5t20 138q0 71 -20 127 t-58 94.5t-92 59t-121 20.5t-119.5 -17.5t-89.5 -37.5q-43 -24 -76 -54z" />
<glyph unicode="7" horiz-adv-x="913" d="M31 991q0 31 16.5 48.5t42.5 17.5h674q22 0 38.5 -5t27.5 -15t16.5 -23.5t5.5 -30.5q0 -22 -6 -39t-17 -37q-86 -167 -157 -327.5t-128 -309t-100.5 -282t-74.5 -244.5q-6 -19 -12.5 -33t-15 -23t-19.5 -13t-26 -4t-27.5 4t-21.5 12t-14 20t-5 28q0 11 2 22t7 29 q28 111 71.5 243t99.5 277.5t123 302t143 317.5h-584q-26 0 -42.5 17t-16.5 48z" />
<glyph unicode="8" horiz-adv-x="1071" d="M102 332q0 74 24.5 132.5t65.5 105.5t94 84t110 69q-51 25 -97.5 56.5t-82 72t-56.5 91t-21 112.5q0 72 27.5 134.5t80 108.5t128.5 72.5t174 26.5q90 0 160 -24.5t119 -66t74.5 -97t25.5 -117.5q0 -68 -21 -120t-56 -93t-81.5 -74t-97.5 -61q55 -27 108 -64t95 -83.5 t68 -103.5t26 -124q0 -86 -29 -157.5t-86 -122.5t-141 -79t-193 -28q-99 0 -176.5 27t-131.5 74t-82 111t-28 138zM252 352q0 -56 18.5 -101.5t54.5 -78t89.5 -50.5t124.5 -18q68 0 120 17.5t87 49.5t53 77t18 100q0 60 -23.5 107t-63.5 85t-93 68.5t-113 57.5 q-58 -31 -107.5 -63t-86 -69.5t-57.5 -82t-21 -99.5zM291 1075q0 -53 19 -92.5t53 -71.5t80.5 -58t101.5 -51q51 28 94 56t73.5 60.5t48 69.5t17.5 83q0 43 -16.5 80t-48 64.5t-77.5 43t-106 15.5q-57 0 -101.5 -15t-75 -42t-46.5 -63.5t-16 -78.5z" />
<glyph unicode="9" horiz-adv-x="1095" d="M102 612q0 108 31.5 193.5t89 145.5t137.5 92t177 32q101 0 183 -34t140 -106t89.5 -185.5t31.5 -272.5q0 -208 -48.5 -361.5t-135 -255t-206.5 -151t-263 -49.5q-36 0 -63.5 3t-47.5 8t-34 12t-23 16q-8 8 -12.5 17.5t-4.5 23.5q0 29 17.5 43t40.5 14q11 0 22.5 -2 t27 -4t37.5 -4t54 -2q114 0 198.5 40.5t142.5 111t91.5 165.5t46.5 203q-32 -27 -78 -48q-39 -18 -96.5 -33t-132.5 -15q-96 0 -172.5 28t-129.5 80t-81.5 126.5t-28.5 168.5zM254 633q0 -72 20 -128t58 -94.5t91.5 -58.5t121.5 -20q66 0 118.5 17t89.5 37q43 24 76 54 q3 154 -21 253t-66.5 156.5t-99.5 80t-120 22.5q-59 0 -108 -20.5t-84.5 -60.5t-55.5 -100t-20 -138z" />
<glyph unicode=":" horiz-adv-x="557" d="M162 96q0 25 9 47t25 38t37.5 25t47.5 9q25 0 46 -8.5t36 -23.5t23.5 -36.5t8.5 -46.5t-9 -46.5t-25 -37.5t-38 -25t-47 -9t-46 8.5t-36 23.5t-23.5 36t-8.5 46zM162 711q0 25 9 46.5t25 37.5t37.5 25t47.5 9q25 0 46 -8.5t36 -23.5t23.5 -36t8.5 -46q0 -26 -9 -47.5 t-25 -37.5t-38 -25t-47 -9t-46 8.5t-36 23.5t-23.5 36t-8.5 47z" />
<glyph unicode=";" horiz-adv-x="557" d="M88 -260q0 18 14 33.5t35 41.5t45.5 68t44.5 111q-12 4 -23.5 12.5t-21 21.5t-15 30t-5.5 38q0 25 9 47t25 38t37.5 25t47.5 9q27 0 48 -9.5t35.5 -26.5t22.5 -41.5t8 -55.5q0 -41 -11 -80.5t-27.5 -75.5t-36 -67t-37.5 -55q-38 -50 -75.5 -79.5t-69.5 -29.5 q-24 0 -37 12.5t-13 32.5zM162 711q0 25 9 46.5t25 37.5t37.5 25t47.5 9q25 0 46 -8.5t36 -23.5t23.5 -36t8.5 -46q0 -26 -9 -47.5t-25 -37.5t-38 -25t-47 -9t-46 8.5t-36 23.5t-23.5 36t-8.5 47z" />
<glyph unicode="&#x3c;" d="M210 582q0 20 9 37t34 34l537 349q16 10 26 14t21 4q14 0 26 -6t20.5 -15t13.5 -21t5 -24q0 -17 -8 -30t-27 -25l-477 -311l473 -312q20 -13 28 -26.5t8 -28.5q0 -13 -5 -26t-14.5 -23t-22 -16.5t-27.5 -6.5q-11 0 -20.5 3.5t-23.5 12.5l-533 347q-26 17 -34.5 33.5 t-8.5 36.5z" />
<glyph unicode="=" d="M175 400q0 27 15 44t41 17h704q26 0 42 -17.5t16 -43.5q0 -27 -16 -44t-42 -17h-703q-26 0 -41.5 17t-15.5 44zM175 762q0 27 15.5 44t41.5 17h703q26 0 42 -17t16 -44t-16 -44t-42 -17h-703q-26 0 -41.5 17t-15.5 44z" />
<glyph unicode="&#x3e;" d="M266 214q0 17 8 30t27 25l477 311l-473 312q-20 13 -28 26.5t-8 28.5q0 13 5 26t14.5 23t22 16.5t27.5 6.5q11 0 20.5 -3.5t23.5 -12.5l533 -347q26 -17 34.5 -33.5t8.5 -36.5t-9 -37t-34 -34l-537 -349q-16 -10 -26 -14t-21 -4q-14 0 -26 6t-20.5 15t-13.5 21t-5 24z " />
<glyph unicode="?" horiz-adv-x="797" d="M66 1376q0 14 4.5 25t15.5 22q12 12 35 24.5t56.5 23t77.5 17.5t97 7q95 0 167 -23t120 -66t72 -103t24 -134q0 -77 -25.5 -135t-63.5 -105.5t-82 -88t-82 -82.5t-63.5 -89.5t-25.5 -107.5q0 -32 3.5 -53t7 -35t7 -24t3.5 -21q0 -26 -18 -42.5t-52 -16.5q-19 0 -37 9.5 t-31.5 31t-21.5 56t-8 85.5q0 73 24.5 129t61.5 102t80 86.5t80 82.5t61.5 90t24.5 110q0 50 -16 90.5t-47.5 69t-79 44t-109.5 15.5q-51 0 -84 -6.5t-55.5 -15t-38 -15t-31.5 -6.5q-23 0 -37 13t-14 36zM234 96q0 25 9 47t25 38t37.5 25t46.5 9t46.5 -8.5t36.5 -23.5 t23.5 -36.5t8.5 -46.5t-9 -46.5t-25 -37.5t-38 -25t-47 -9t-46 8.5t-36 23.5t-23.5 36t-8.5 46z" />
<glyph unicode="@" horiz-adv-x="2106" d="M150 473q0 151 34 285t98 248t156.5 204.5t209.5 153.5t256.5 97t297.5 34q185 0 326.5 -48t237.5 -139t145 -221t49 -294q0 -165 -36 -289t-98 -207t-145 -124.5t-177 -41.5q-98 0 -151.5 41t-71.5 108l-4 2q-30 -43 -73 -76q-37 -29 -93 -52t-131 -23 q-77 0 -139.5 24.5t-106.5 70.5t-68.5 111.5t-24.5 147.5q0 124 37.5 224t105 170t162 107.5t207.5 37.5q49 0 90 -4.5t73.5 -12t56 -17.5t38.5 -21q22 -17 28.5 -35t4.5 -47l-40 -468q-4 -48 1.5 -81t20 -53t39 -28.5t57.5 -8.5q49 0 101 26t94.5 86.5t70 160.5t27.5 247 t-39.5 259.5t-118 188.5t-196 115t-273.5 39q-132 0 -249 -29t-215.5 -83.5t-177 -132.5t-133.5 -175.5t-84 -212.5t-29 -244q0 -348 182.5 -528t547.5 -180q101 0 172 11t118.5 24t76 24t44.5 11q23 0 36.5 -13.5t13.5 -36.5q0 -13 -4 -23.5t-15 -21.5q-14 -14 -50 -31 t-93.5 -32.5t-136 -26t-177.5 -10.5q-211 0 -372.5 55.5t-271 160t-165.5 255.5t-56 342zM791 505q0 -128 56.5 -189.5t155.5 -61.5q65 0 113.5 25.5t80.5 56.5q38 36 64 83l37 445q-16 10 -40 18q-20 7 -52 13t-76 6q-73 0 -135 -26.5t-107.5 -77.5t-71 -124.5 t-25.5 -167.5z" />
<glyph unicode="A" horiz-adv-x="1224" d="M60 58q0 10 2.5 21t13.5 40l424 1177q4 11 8 20t8.5 16.5t9 13.5t10.5 12q13 13 31 19.5t44 6.5t44 -6.5t31 -19.5q6 -6 10.5 -12t9 -13.5t8.5 -16.5t8 -20l426 -1176q11 -29 13.5 -40t2.5 -19q0 -17 -8 -30t-20 -22t-27 -13.5t-30 -4.5q-14 0 -26 4.5t-20 12.5t-14 21.5 t-17 43.5l-109 309h-570l-104 -306q-11 -31 -17.5 -45.5t-15.5 -23.5q-7 -7 -19 -11.5t-27 -4.5q-14 0 -28 4.5t-25.5 13t-19 21t-7.5 28.5zM366 509h483l-177 505l-26 78l-21 64q-11 32 -19 59h-4l-18 -60q-8 -28 -20 -64l-26 -77z" />
<glyph unicode="B" horiz-adv-x="1193" d="M204 76v1226q0 37 19.5 56.5t56.5 19.5h274q125 0 214.5 -24.5t146.5 -69.5t83.5 -108.5t26.5 -141.5q0 -57 -16.5 -106t-46.5 -88t-71.5 -67.5t-90.5 -45.5v-2q66 -12 117.5 -38.5t87.5 -66t54.5 -92t18.5 -116.5q0 -88 -33.5 -163t-102 -130.5t-171.5 -87t-242 -31.5 h-249q-37 0 -56.5 19.5t-19.5 56.5zM356 130h186q101 0 173 19.5t117.5 55t67 84t21.5 106.5t-20 105t-65 80.5t-117 51.5t-177 18h-186v-520zM356 778h178q89 0 152.5 18t104 49.5t59.5 75.5t19 97q0 52 -18 94.5t-57 72.5t-101 46.5t-151 16.5h-186v-470z" />
<glyph unicode="C" horiz-adv-x="1195" d="M112 649q0 177 48.5 316t135 234.5t206 145.5t261.5 50q64 0 116 -10t92 -25t66.5 -31.5t38.5 -28.5q14 -14 19.5 -27t5.5 -30q0 -13 -4.5 -24t-12.5 -18.5t-19.5 -12t-25.5 -4.5q-20 0 -42 12.5t-55 27.5t-81.5 27.5t-122.5 12.5q-99 0 -184.5 -38.5t-149 -113.5 t-100 -186t-36.5 -256q0 -132 36 -234.5t100.5 -173.5t153.5 -108t195 -37q69 0 117.5 12t82.5 26t57 26t42 12q12 0 22 -4t16.5 -11.5t10.5 -17.5t4 -21q0 -15 -5.5 -27t-18.5 -25q-16 -16 -47.5 -34t-76.5 -33.5t-103.5 -25.5t-127.5 -10q-135 0 -248 46t-194 132.5 t-126.5 209.5t-45.5 277z" />
<glyph unicode="D" horiz-adv-x="1384" d="M204 76v1226q0 37 19.5 56.5t56.5 19.5h315q167 0 294.5 -43.5t213.5 -127.5t130 -206.5t44 -281.5q0 -169 -48.5 -302.5t-140 -226t-222.5 -141.5t-296 -49h-290q-37 0 -56.5 19.5t-19.5 56.5zM356 130h227q124 0 223.5 38t169.5 110.5t107.5 178.5t37.5 241 q0 136 -35 239t-103 172t-168.5 104t-231.5 35h-227v-1118z" />
<glyph unicode="E" horiz-adv-x="1064" d="M204 76v1226q0 37 19.5 56.5t56.5 19.5h625q29 0 45 -16.5t16 -47.5q0 -32 -16 -49t-45 -17h-549v-473h475q29 0 45 -16.5t16 -48.5t-16 -48.5t-45 -16.5h-475v-515h553q29 0 45 -16.5t16 -48.5t-16 -48.5t-45 -16.5h-629q-37 0 -56.5 19.5t-19.5 56.5z" />
<glyph unicode="F" horiz-adv-x="1005" d="M204 61v1241q0 37 19.5 56.5t56.5 19.5h616q29 0 45 -16.5t16 -47.5q0 -32 -16 -49t-44 -17h-541v-494h457q28 0 44 -16.5t16 -48.5t-16 -48.5t-44 -16.5h-457v-563q0 -32 -19 -49.5t-57 -17.5t-57 17.5t-19 49.5z" />
<glyph unicode="G" horiz-adv-x="1365" d="M112 659q0 174 51 310.5t143 231t221 144.5t285 50q78 0 139.5 -11.5t106.5 -27.5t74 -34t41 -30q14 -14 19.5 -27t5.5 -30q0 -13 -4.5 -24t-12.5 -18.5t-19.5 -12t-25.5 -4.5q-20 0 -43 13.5t-61 30t-96.5 30.5t-148.5 14q-116 0 -212 -39.5t-164 -114.5t-105.5 -183.5 t-37.5 -246.5q0 -140 38 -246t107.5 -177.5t167 -107.5t215.5 -36q67 0 115.5 7t80.5 16q37 11 62 24v421h-262q-28 0 -44 17t-16 49q0 31 16 47.5t44 16.5h341q34 0 53 -19t19 -53v-463q0 -41 -12 -65.5t-35 -40.5q-21 -16 -56.5 -32t-84 -28.5t-111 -20t-137.5 -7.5 q-150 0 -271 45.5t-207 132t-132.5 212.5t-46.5 287z" />
<glyph unicode="H" horiz-adv-x="1425" d="M204 61v1256q0 32 19 49.5t57 17.5t57 -17.5t19 -49.5v-543h713v543q0 32 19 49.5t57 17.5t57 -17.5t19 -49.5v-1256q0 -32 -19 -49.5t-57 -17.5t-57 17.5t-19 49.5v586h-713v-586q0 -32 -19 -49.5t-57 -17.5t-57 17.5t-19 49.5z" />
<glyph unicode="I" horiz-adv-x="560" d="M204 61v1256q0 32 19 49.5t57 17.5t57 -17.5t19 -49.5v-1256q0 -32 -19 -49.5t-57 -17.5t-57 17.5t-19 49.5z" />
<glyph unicode="J" horiz-adv-x="568" d="M-26 -328q0 19 8.5 32.5t26.5 23.5q43 24 80 51t64.5 68t43 102.5t15.5 154.5v1213q0 32 19 49.5t57 17.5t57 -17.5t19 -49.5v-1157q0 -87 -7 -154t-22 -119.5t-39.5 -93.5t-59.5 -76q-52 -52 -104 -77t-92 -25q-34 0 -50 16.5t-16 40.5z" />
<glyph unicode="K" horiz-adv-x="1126" d="M204 61v1256q0 32 19 49.5t57 17.5t57 -17.5t19 -49.5v-580l558 597l18 18l9 10q11 11 23.5 18t28.5 7t30 -6t25 -16t17.5 -23t6.5 -28q0 -14 -5 -26t-16 -23l-531 -545l527 -587l13 -14q6 -8 10.5 -15.5t7.5 -16t3 -17.5q0 -16 -7.5 -30.5t-19.5 -25t-26.5 -17 t-29.5 -6.5q-13 0 -25.5 5t-22.5 15l-10 9q-4 5 -13 15l-571 639v-613q0 -32 -19 -49.5t-57 -17.5t-57 17.5t-19 49.5z" />
<glyph unicode="L" horiz-adv-x="985" d="M204 76v1241q0 32 19 49.5t57 17.5t57 -17.5t19 -49.5v-1187h538q29 0 45 -16.5t16 -48.5t-16 -48.5t-45 -16.5h-614q-37 0 -56.5 19.5t-19.5 56.5z" />
<glyph unicode="M" horiz-adv-x="1765" d="M142 55q0 9 1 20t3 27l121 1172q3 29 11.5 48.5t21.5 32.5t34 21t50 8q26 0 46.5 -6.5t36.5 -19.5t28 -33.5t21 -48.5l312 -920q13 -39 23 -74l19 -60l16 -56h4l16 56l18 60q10 35 24 74l312 918q10 29 21.5 49.5t27 34t35 20t45.5 6.5t44.5 -6.5t32.5 -20.5 q15 -15 22.5 -35.5t9.5 -46.5l121 -1175q2 -14 3 -25t1 -20q0 -14 -6 -26t-17 -20.5t-25.5 -13t-30.5 -4.5q-17 0 -32 5t-25 15q-11 11 -14.5 29t-6.5 50l-81 897q-4 42 -5.5 80.5t-2.5 68.5q-1 34 -1 65h-4l-378 -1113q-8 -25 -17.5 -41.5t-20.5 -27.5q-14 -14 -31.5 -19.5 t-40.5 -5.5q-24 0 -41.5 5.5t-31.5 19.5q-11 11 -20.5 27.5t-17.5 41.5l-378 1113h-4q-1 -31 -3 -65q-2 -29 -4 -67t-6 -80l-84 -899q-3 -32 -7 -50t-15 -29q-10 -10 -23.5 -15t-30.5 -5q-15 0 -29 4.5t-24.5 13t-16.5 20t-6 26.5z" />
<glyph unicode="N" horiz-adv-x="1483" d="M204 61v1213q0 54 27.5 82t81.5 28q24 0 42 -6.5t33 -18t27.5 -27.5t25.5 -36l577 -899q25 -38 47 -75l39 -67l37 -66l4 2q-3 36 -5 76q-2 34 -3.5 77t-1.5 88l-2 885q0 32 18 49.5t55 17.5t55 -17.5t18 -49.5v-1212q0 -55 -27.5 -83t-81.5 -28q-24 0 -42 6.5t-33 18 t-27.5 27.5t-25.5 36l-577 899q-25 38 -47 76l-39 66q-20 34 -37 66l-4 -2q2 -36 5 -76q2 -34 3.5 -77t1.5 -88l2 -885q0 -32 -18 -49.5t-55 -17.5t-55 17.5t-18 49.5z" />
<glyph unicode="O" horiz-adv-x="1478" d="M112 671q0 172 47.5 307t132.5 228t202.5 142t256.5 49q135 0 248 -46.5t194.5 -135t127 -216.5t45.5 -291q0 -172 -47.5 -307t-132.5 -228t-202.5 -142t-256.5 -49q-135 0 -248 46.5t-194.5 135t-127 216.5t-45.5 291zM268 691q0 -138 37 -246t100.5 -181.5t150 -112 t185.5 -38.5t184.5 38t148.5 111t99.5 180t36.5 245q0 139 -37 246.5t-100.5 181.5t-150 112.5t-185.5 38.5t-184.5 -38t-148.5 -111t-99.5 -180.5t-36.5 -245.5z" />
<glyph unicode="P" horiz-adv-x="1095" d="M204 61v1241q0 37 19.5 56.5t56.5 19.5h268q121 0 210.5 -27t147.5 -77.5t86.5 -122.5t28.5 -162q0 -95 -33 -174t-96 -136t-156 -89t-213 -32h-167v-497q0 -32 -19 -49.5t-57 -17.5t-57 17.5t-19 49.5zM356 687h180q163 0 245.5 77t82.5 209q0 131 -78.5 203t-249.5 72 h-180v-561z" />
<glyph unicode="Q" horiz-adv-x="1479" d="M112 671q0 172 47.5 307t133 228t202.5 142t257 49q135 0 248 -46.5t194 -135t126.5 -216.5t45.5 -291q0 -148 -35.5 -269t-100.5 -212t-156 -149.5t-202 -80.5q39 -63 91.5 -109.5t116 -78.5t135.5 -50t149 -24q39 -3 55.5 -19t16.5 -42q0 -17 -6.5 -32t-21.5 -25.5 t-39.5 -16.5t-59.5 -6q-49 0 -103.5 12t-110 35t-109.5 56.5t-102.5 76.5t-88.5 95t-68 113q-135 0 -248 46.5t-194.5 135t-127 216.5t-45.5 291zM268 690q0 -139 37 -246.5t100.5 -181.5t150 -112.5t185.5 -38.5t184.5 38t148.5 111.5t99.5 180.5t36.5 246t-37 246.5 t-100.5 181.5t-150 112.5t-185.5 38.5t-184.5 -38t-148.5 -111.5t-99.5 -180.5t-36.5 -246z" />
<glyph unicode="R" horiz-adv-x="1152" d="M204 61v1242q0 36 19.5 55.5t56.5 19.5h272q126 0 217.5 -26.5t151 -74.5t88 -114.5t28.5 -146.5q0 -77 -25.5 -142t-71 -115t-110 -83t-142.5 -46l340 -506q9 -14 16.5 -27t7.5 -29t-7.5 -30t-20 -24.5t-28 -16.5t-30.5 -6q-17 0 -28.5 6t-19.5 14l-6 6l-5 7q-3 3 -7 9 t-10 16l-368 562h-166v-550q0 -32 -19 -49.5t-57 -17.5t-57 17.5t-19 49.5zM356 740h184q88 0 152 19t106 53t62 82t20 105t-19 103.5t-59.5 78.5t-105.5 49.5t-156 17.5h-184v-508z" />
<glyph unicode="S" horiz-adv-x="1085" d="M130 123q0 26 17 42.5t45 16.5q20 0 40 -11t52.5 -23.5t82.5 -23.5t130 -11q76 0 133.5 18.5t96.5 52t58.5 80t19.5 101.5q0 69 -28.5 115.5t-75.5 79t-106 56.5l-122 46q-63 23 -122.5 50t-106.5 67.5t-75.5 99t-28.5 143.5q0 81 29.5 149.5t87 118.5t142 78.5 t194.5 28.5q58 0 106 -7.5t84.5 -19t62 -25.5t37.5 -26q14 -14 19.5 -27t5.5 -30q0 -26 -17 -42t-45 -16q-20 0 -40.5 9.5t-49.5 21.5t-72 21.5t-107 9.5q-71 0 -123.5 -17t-88 -47t-53 -71.5t-17.5 -90.5q0 -64 28.5 -106.5t75.5 -72.5t107 -52l122 -45q62 -23 121.5 -51.5 t106.5 -71.5t75.5 -105t28.5 -153q0 -88 -31 -161.5t-91.5 -127t-150 -83t-207.5 -29.5q-68 0 -122.5 8.5t-95.5 21t-67.5 27t-39.5 27.5q-14 14 -19.5 27t-5.5 30z" />
<glyph unicode="T" horiz-adv-x="1104" d="M30 1314q0 31 16 47.5t44 16.5h923q29 0 45 -16.5t16 -47.5q0 -32 -16 -49t-45 -17h-385v-1187q0 -32 -19 -49.5t-57 -17.5t-57 17.5t-19 49.5v1187h-386q-28 0 -44 17t-16 49z" />
<glyph unicode="U" horiz-adv-x="1419" d="M191 541v776q0 32 19 49.5t57 17.5t57 -17.5t19 -49.5v-752q0 -120 27.5 -205.5t76.5 -140t117.5 -80.5t151.5 -26q78 0 144 25.5t114 78t75 133t27 191.5v776q0 32 19 49.5t57 17.5t57 -17.5t19 -49.5v-752q0 -148 -37.5 -257.5t-106.5 -182t-166 -108t-216 -35.5 q-121 0 -216 34.5t-160.5 104t-100 174.5t-34.5 246z" />
<glyph unicode="V" horiz-adv-x="1193" d="M60 1315q0 17 7.5 30.5t19.5 22.5t27 14t30 5q14 0 26 -4.5t21 -13.5q8 -8 13.5 -21.5t15.5 -42.5l319 -940l26 -78l19 -64l16 -58h4q7 26 17 58l19 64q11 36 25 78l311 940q10 29 16 43t15 23q7 7 19 11.5t27 4.5q14 0 28 -4.5t25.5 -13t19 -21t7.5 -28.5q0 -7 -2.5 -19 t-13.5 -42l-410 -1174q-8 -22 -16.5 -37.5t-20.5 -27.5q-14 -14 -32 -20t-42 -6q-25 0 -43 6t-32 20q-12 12 -20.5 27.5t-16.5 37.5l-408 1169q-11 30 -13.5 41t-2.5 20z" />
<glyph unicode="W" horiz-adv-x="1880" d="M80 1318q0 16 7.5 29t19.5 22t27 13.5t30 4.5q16 0 28 -5t20 -13q10 -10 14.5 -24t12.5 -43l247 -940q11 -42 19 -79t13 -64l11 -59h4q5 25 12 57q6 27 15 64t21 81l249 928q15 57 43.5 77t71.5 20t71.5 -20t43.5 -77l248 -923q11 -42 19.5 -78.5t14.5 -65.5l13 -63h4 l13 63q6 29 14.5 65.5t19.5 76.5l238 937q8 29 12.5 43.5t13.5 23.5q8 8 21 13t29 5q14 0 28 -4.5t25.5 -12.5t19 -20t7.5 -28q0 -3 -0.5 -6.5t-1.5 -9.5t-3 -16l-7 -24l-319 -1174q-6 -23 -14 -40t-20 -29q-15 -15 -35.5 -22t-48.5 -7t-46.5 7t-33.5 22q-12 12 -20 29 t-14 39l-247 919q-11 38 -19 74l-16 65q-8 33 -14 63h-4l-13 -63q-6 -29 -15 -65l-19 -74l-247 -919q-6 -22 -14 -39t-20 -29q-15 -15 -33.5 -22t-46.5 -7t-48.5 7t-35.5 22q-12 12 -20 29t-14 40l-319 1169q-8 30 -10 40t-2 17z" />
<glyph unicode="X" horiz-adv-x="1187" d="M68 63q0 17 9.5 32.5t30.5 45.5l394 563l-373 525l-18 25q-8 11 -12.5 19.5t-7 16.5t-2.5 17q0 16 7.5 31t19.5 25.5t27.5 17t32.5 6.5q14 0 25 -4.5t19 -12.5q2 -2 4 -5l7 -9q5 -5 11 -14l17 -24l344 -502l330 499l16 25q7 9 11.5 15t7 9t5.5 6q8 8 19 12.5t25 4.5 q15 0 29.5 -5.5t26 -15t18.5 -22.5t7 -29q0 -17 -9.5 -32.5t-30.5 -45.5l-374 -530l395 -558q10 -15 18 -25.5t12.5 -19t7 -16.5t2.5 -17q0 -17 -7.5 -31.5t-19.5 -25t-28 -17t-32 -6.5q-14 0 -25 4.5t-19 12.5q-5 4 -12 14l-27 38l-366 535l-350 -532l-27 -39 q-8 -11 -13 -16q-8 -8 -19 -12.5t-25 -4.5q-15 0 -29.5 5.5t-26 15t-18.5 22.5t-7 29z" />
<glyph unicode="Y" horiz-adv-x="1094" d="M42 1312q0 16 8 30t20 24t27 15.5t30 5.5q14 0 24.5 -4.5t18.5 -12.5q6 -6 13 -16t24 -39l286 -486l22 -41l19 -35q10 -18 18 -34h4q8 17 18 35q8 16 19 37l25 43l273 479q17 30 23.5 40t12.5 16q9 9 20 13.5t24 4.5q15 0 29.5 -5.5t26 -15.5t18.5 -23.5t7 -29.5 q0 -15 -7.5 -30t-25.5 -44l-397 -649v-529q0 -32 -19 -49.5t-57 -17.5t-57 17.5t-19 49.5v529l-395 647l-16 25q-6 11 -9.5 19t-5.5 15.5t-2 15.5z" />
<glyph unicode="Z" horiz-adv-x="1030" d="M90 78q0 20 7.5 40.5t24.5 49.5l639 1080h-590q-29 0 -45 17t-16 49q0 31 16 47.5t45 16.5h679q42 0 64 -20.5t22 -57.5q0 -20 -7.5 -40.5t-24.5 -49.5l-639 -1080h629q29 0 45 -16.5t16 -48.5t-16 -48.5t-45 -16.5h-718q-42 0 -64 20.5t-22 57.5z" />
<glyph unicode="[" horiz-adv-x="625" d="M194 -288v1732q0 35 19.5 54.5t54.5 19.5h232q24 0 39.5 -15t15.5 -45t-15.5 -45t-39.5 -15h-164v-1640h164q24 0 39.5 -15t15.5 -45t-15.5 -45t-39.5 -15h-232q-35 0 -54.5 19.5t-19.5 54.5z" />
<glyph unicode="\" horiz-adv-x="828" d="M67 1426q0 14 6.5 26t17.5 20.5t24.5 13t27.5 4.5t24 -4t17.5 -11.5t13 -19t10.5 -25.5l607 -1663q6 -17 8 -25.5t2 -17.5q0 -14 -6.5 -26t-17.5 -20.5t-24.5 -13t-27.5 -4.5t-24 4t-17.5 11.5t-13 19t-10.5 25.5l-607 1663q-6 17 -8 25.5t-2 17.5z" />
<glyph unicode="]" horiz-adv-x="625" d="M70 -302q0 30 15.5 45t39.5 15h164v1640h-164q-24 0 -39.5 15t-15.5 45t15.5 45t39.5 15h232q35 0 54.5 -19.5t19.5 -54.5v-1732q0 -35 -19.5 -54.5t-54.5 -19.5h-232q-24 0 -39.5 15t-15.5 45z" />
<glyph unicode="^" d="M160 769q0 11 4.5 22.5t14.5 26.5l329 530q15 24 34 36.5t44 12.5q24 0 42.5 -11.5t34.5 -37.5l325 -526q10 -15 15 -26.5t5 -25.5t-6 -25.5t-16.5 -20t-23.5 -13.5t-27 -5q-18 0 -32.5 9.5t-27.5 30.5l-295 472l-294 -470q-14 -22 -28.5 -32.5t-32.5 -10.5 q-13 0 -24.5 5t-20.5 13.5t-14.5 20t-5.5 25.5z" />
<glyph unicode="_" d="M0 -453q0 29 14.5 44.5t42.5 15.5h1054q28 0 42.5 -15.5t14.5 -44.5t-14.5 -44t-42.5 -15h-1054q-28 0 -42.5 15t-14.5 44z" />
<glyph unicode="`" horiz-adv-x="1024" d="M353 1432q0 18 8.5 33t22 26.5t30 18t31.5 6.5q8 0 15 -2t12.5 -6t11 -10t10.5 -13l166 -243q5 -8 10 -17t5 -19q0 -11 -4.5 -21.5t-13 -18t-19 -12t-22.5 -4.5q-13 0 -24 6.5t-22 19.5l-196 214q-4 4 -7.5 8.5t-6.5 10t-5 11t-2 12.5z" />
<glyph unicode="a" horiz-adv-x="1053" d="M109 260q0 65 27.5 114.5t79.5 83t126.5 50.5t169.5 17q52 0 93 -3.5t69 -8.5q33 -5 57 -12v138q0 68 -14 116.5t-44 79t-77.5 44.5t-114.5 14q-59 0 -102 -9.5t-74 -21t-52 -21t-37 -9.5q-25 0 -39.5 15t-14.5 41q0 13 4.5 23.5t14.5 20.5q13 13 43.5 28t74.5 28.5 t98.5 22.5t114.5 9q184 0 275.5 -88t91.5 -254v-387q0 -65 3 -106t7 -66.5t7 -40t3 -27.5t-4.5 -24t-13 -18.5t-20 -12t-25.5 -4.5q-20 0 -35.5 9t-26.5 25.5t-18.5 41t-12.5 54.5h-3q-33 -39 -78 -70q-38 -26 -94.5 -48t-129.5 -22q-78 0 -139.5 21t-103.5 58.5t-64 88.5 t-22 110zM262 268q0 -35 13.5 -64.5t39 -52t63.5 -35t87 -12.5q63 0 112 23t84 51q40 33 70 74v135q-25 7 -57 12q-27 5 -63.5 9t-80.5 4q-137 0 -202.5 -36.5t-65.5 -107.5z" />
<glyph unicode="b" horiz-adv-x="1153" d="M184 135v1281q0 32 18.5 49.5t55.5 17.5t55.5 -17.5t18.5 -49.5v-419q0 -33 -1 -63.5t-4 -65.5h3q31 43 77 77q19 14 43.5 28t54 25t64 17.5t74.5 6.5q91 0 165.5 -31t128 -92.5t83 -154t29.5 -216.5q0 -130 -36.5 -231.5t-104 -171.5t-164.5 -106.5t-218 -36.5 q-62 0 -115 9t-94 22t-69 27.5t-39 25.5q-6 6 -11 13t-8 15t-4.5 18t-1.5 23zM332 154q21 -15 53 -26q27 -10 67.5 -18t94.5 -8q78 0 142.5 26.5t110.5 78t71.5 127.5t25.5 176q0 103 -20 176.5t-57 120.5t-90 68.5t-118 21.5q-35 0 -65.5 -8t-57 -20.5t-48 -29t-39.5 -33.5 q-41 -40 -70 -91v-561z" />
<glyph unicode="c" horiz-adv-x="916" d="M104 465q0 130 37 233.5t104 175.5t159 110t202 38q45 0 81 -6t62.5 -15.5t44.5 -20t27 -19.5q11 -11 16 -23t5 -29q0 -11 -4 -21t-11.5 -17.5t-18 -12t-24.5 -4.5q-15 0 -31 6l-39 15q-22 9 -53 15.5t-75 6.5q-70 0 -130 -26.5t-104.5 -78.5t-70 -128.5t-25.5 -176.5 q0 -90 25 -160t70 -118.5t108 -74t139 -25.5q45 0 76.5 6t53.5 13.5t37.5 13.5t30.5 6q11 0 20.5 -3.5t16 -10t10 -16t3.5 -20.5q0 -14 -6 -26t-17 -23q-13 -13 -36.5 -25t-56 -21.5t-73 -15t-88.5 -5.5q-104 0 -189.5 34t-146.5 97t-95 152.5t-34 199.5z" />
<glyph unicode="d" horiz-adv-x="1153" d="M104 476q0 130 36.5 231.5t104 171.5t164.5 106.5t218 36.5q42 0 77 -4.5t61 -9.5q31 -6 56 -13l3 1q-3 64 -3 137v283q0 32 18.5 49.5t55.5 17.5t55.5 -17.5t18.5 -49.5v-1362q0 -29 -16.5 -45.5t-45.5 -16.5q-15 0 -26.5 4.5t-19.5 13.5t-13 23t-8 33l-10 76h-3 q-31 -45 -77 -80q-39 -30 -99 -55t-141 -25q-91 0 -165.5 31t-128 92.5t-83 154t-29.5 216.5zM256 494q0 -104 20 -177t57 -120t90 -68.5t118 -21.5q35 0 65.5 7.5t56.5 20.5t48 29.5t40 33.5q41 40 70 91v564q-23 12 -55 22q-27 8 -67 15.5t-93 7.5q-78 0 -142.5 -26.5 t-110.5 -77.5t-71.5 -126.5t-25.5 -173.5z" />
<glyph unicode="e" horiz-adv-x="1058" d="M104 469q0 133 35 236.5t96.5 173.5t145.5 106.5t182 36.5q84 0 154 -29t121 -84t79.5 -134t28.5 -179q0 -49 -23 -74t-71 -25h-598v-10q0 -89 25 -159t70.5 -119t109 -74.5t139.5 -25.5q60 0 101 8.5t70 18t49 18t37 8.5q12 0 21 -4t15.5 -10.5t10 -16t3.5 -19.5 q0 -14 -5.5 -25.5t-17.5 -23.5t-38 -26t-65 -26t-90.5 -20.5t-113.5 -8.5q-106 0 -193 34t-148.5 97.5t-95.5 153.5t-34 202zM263 610h542q-14 149 -80.5 220t-181.5 71q-49 0 -94 -18t-82 -54t-64 -90.5t-40 -128.5z" />
<glyph unicode="f" horiz-adv-x="634" d="M40 943q0 29 15.5 45t41.5 16h123v114q0 91 23.5 160.5t68 116.5t107.5 71.5t141 24.5q54 0 92.5 -13t53.5 -28q11 -11 15.5 -23t4.5 -26q0 -13 -4.5 -23.5t-12 -18t-17.5 -11.5t-21 -4q-12 0 -24 3.5t-26 8t-32.5 8.5t-44.5 4q-82 0 -129 -54t-47 -177v-133h192 q26 0 41.5 -16t15.5 -45t-15.5 -45t-41.5 -16h-192v-821q0 -32 -18.5 -49.5t-55.5 -17.5t-55.5 17.5t-18.5 49.5v821h-123q-26 0 -41.5 16t-15.5 45z" />
<glyph unicode="g" horiz-adv-x="1038" d="M72 -190q0 70 24.5 121.5t54.5 85.5q34 40 79 66q-35 31 -49.5 69t-14.5 79t15 74t33 58q21 28 49 52q-60 45 -93 110.5t-33 140.5q0 78 27 143t78.5 112t126.5 73t172 26q48 0 91 -8.5t81 -24.5l121 140q20 24 34 32.5t33 8.5q12 0 24 -5t22 -13.5t16 -21t6 -27.5 q0 -18 -11 -33.5t-35 -38.5l-109 -105q51 -45 78.5 -105t27.5 -129q0 -78 -27 -143.5t-78.5 -112t-126.5 -72.5t-172 -26q-42 0 -81 6.5t-71 18.5q-17 -14 -30 -32q-11 -15 -20 -35.5t-9 -43.5q0 -25 10 -46t34.5 -36.5t65 -24t101.5 -8.5h115q92 0 160.5 -18t113.5 -52.5 t67.5 -84t22.5 -113.5q0 -73 -31.5 -138.5t-94 -114.5t-155.5 -77.5t-216 -28.5q-109 0 -189.5 24.5t-133 66t-78 96t-25.5 115.5zM221 -172q0 -42 17 -78t53 -62.5t91 -41.5t130 -15q83 0 145.5 17t104.5 46.5t63 68t21 81.5q0 38 -12.5 68.5t-41 51.5t-75.5 32.5 t-115 11.5h-115q-48 0 -85.5 5t-72.5 16q-30 -23 -54 -53q-20 -26 -37 -63t-17 -85zM287 680q0 -49 16.5 -89.5t47.5 -70t76.5 -45.5t102.5 -16q58 0 102.5 15.5t75 44t46.5 68.5t16 89t-16.5 89.5t-48 70t-76.5 45.5t-103 16q-57 0 -101.5 -15.5t-75 -44t-46.5 -68.5 t-16 -89z" />
<glyph unicode="h" horiz-adv-x="1190" d="M184 61v1355q0 32 18.5 49.5t55.5 17.5t55.5 -17.5t18.5 -49.5v-419q0 -33 -1 -63.5t-4 -65.5h3q31 43 77 77q19 14 43.5 28t54 25t64 17.5t74.5 6.5q87 0 156 -26t117.5 -78t74 -128.5t25.5 -177.5v-551q0 -32 -18.5 -49.5t-55.5 -17.5t-55.5 17.5t-18.5 49.5v527 q0 81 -17 139t-50 96t-80.5 56t-108.5 18q-35 0 -65.5 -8t-57 -20.5t-48 -29t-39.5 -33.5q-41 -40 -70 -91v-654q0 -32 -18.5 -49.5t-55.5 -17.5t-55.5 17.5t-18.5 49.5z" />
<glyph unicode="i" horiz-adv-x="516" d="M149 1319q0 24 8.5 44.5t23 35t35 23t44.5 8.5q22 0 42 -8.5t34 -22.5t22.5 -34t8.5 -42q0 -24 -8.5 -44.5t-23 -35t-35 -23t-44.5 -8.5q-23 0 -42.5 8.5t-33.5 22.5t-22.5 33.5t-8.5 42.5zM184 61v882q0 32 18.5 49.5t55.5 17.5t55.5 -17.5t18.5 -49.5v-882 q0 -32 -18.5 -49.5t-55.5 -17.5t-55.5 17.5t-18.5 49.5z" />
<glyph unicode="j" horiz-adv-x="516" d="M-31 -422q0 20 9 32.5t26 21.5q45 25 78.5 51.5t56 66t34 99t11.5 149.5v945q0 32 18.5 49.5t55.5 17.5t55.5 -17.5t18.5 -49.5v-966q0 -75 -10.5 -133.5t-28 -104t-40.5 -79t-47 -57.5q-44 -44 -90.5 -63t-80.5 -19q-16 0 -28 4t-20.5 11.5t-13 18t-4.5 23.5zM149 1319 q0 24 8.5 44.5t23 35t35 23t44.5 8.5q22 0 42 -8.5t34 -22.5t22.5 -34t8.5 -42q0 -24 -8.5 -44.5t-23 -35t-35 -23t-44.5 -8.5q-23 0 -42.5 8.5t-33.5 22.5t-22.5 33.5t-8.5 42.5z" />
<glyph unicode="k" horiz-adv-x="979" d="M184 61v1355q0 32 18.5 49.5t55.5 17.5t55.5 -17.5t18.5 -49.5v-838l419 383l21 19l16 14q10 8 21 13.5t26 5.5t27.5 -6t22.5 -15.5t15.5 -21.5t5.5 -25q0 -17 -9 -31t-25 -28l-370 -328l390 -432q17 -19 22.5 -31t5.5 -26q0 -17 -7 -31t-18.5 -24.5t-26.5 -16.5t-30 -6 q-11 0 -22.5 4.5t-21.5 14.5l-12 12q-6 6 -15 17l-435 496v-474q0 -32 -18.5 -49.5t-55.5 -17.5t-55.5 17.5t-18.5 49.5z" />
<glyph unicode="l" horiz-adv-x="552" d="M180 225v1191q0 32 18.5 49.5t55.5 17.5t55.5 -17.5t18.5 -49.5v-1150q0 -44 6 -73t18 -46t28.5 -24.5t37.5 -7.5q20 0 33.5 2t27.5 2q11 0 19.5 -3.5t14.5 -10.5t9.5 -16t3.5 -19q0 -17 -5 -27t-13 -18q-6 -6 -16 -12.5t-24 -11.5t-33 -8t-44 -3q-102 0 -156.5 57.5 t-54.5 177.5z" />
<glyph unicode="m" horiz-adv-x="1834" d="M184 61v889q0 29 16.5 45.5t45.5 16.5q15 0 26.5 -4.5t19.5 -13.5t13 -23t8 -33l10 -76h3q30 45 75 80q19 15 43 29.5t53 25.5t63 18t73 7q123 0 201.5 -52.5t119.5 -140.5q35 54 85 96q21 18 48 35.5t59 31t69.5 22t81.5 8.5q83 0 150 -26t114.5 -78t73 -128.5 t25.5 -177.5v-551q0 -32 -18.5 -49.5t-55.5 -17.5t-55.5 17.5t-18.5 49.5v527q0 81 -17 139t-49 96t-77.5 56t-102.5 18q-34 0 -64 -8.5t-56 -22t-47.5 -30.5t-38.5 -35q-40 -42 -70 -96l3 -28q3 -27 3 -65v-551q0 -32 -18.5 -49.5t-55.5 -17.5t-55.5 17.5t-18.5 49.5v527 q0 81 -17 139t-49 96t-77.5 56t-102.5 18q-33 0 -62 -8t-54.5 -20.5t-46.5 -29t-38 -33.5q-40 -40 -69 -91v-654q0 -32 -18.5 -49.5t-55.5 -17.5t-55.5 17.5t-18.5 49.5z" />
<glyph unicode="n" horiz-adv-x="1190" d="M184 61v889q0 29 16.5 45.5t45.5 16.5q15 0 26.5 -4.5t19.5 -13.5t13 -23t8 -33l10 -76h3q30 45 76 80q19 15 44 29.5t55 25.5t65.5 18t76.5 7q87 0 156 -26t117.5 -78t74 -128.5t25.5 -177.5v-551q0 -32 -18.5 -49.5t-55.5 -17.5t-55.5 17.5t-18.5 49.5v527 q0 81 -17 139t-50 96t-80.5 56t-108.5 18q-35 0 -65.5 -8t-57 -20.5t-48 -29t-39.5 -33.5q-41 -40 -70 -91v-654q0 -32 -18.5 -49.5t-55.5 -17.5t-55.5 17.5t-18.5 49.5z" />
<glyph unicode="o" horiz-adv-x="1163" d="M104 484q0 127 35.5 227t100 169t155 105.5t199.5 36.5q100 0 185 -35.5t147.5 -101.5t97.5 -158.5t35 -206.5q0 -127 -35.5 -227t-100 -169t-155 -105.5t-199.5 -36.5q-100 0 -185 35.5t-147.5 101.5t-97.5 158.5t-35 206.5zM256 504q0 -95 25.5 -168.5t70 -124.5 t104.5 -77.5t128 -26.5q69 0 128.5 25.5t102.5 75.5t67.5 123t24.5 169q0 94 -25.5 168t-70 125t-104 77.5t-127.5 26.5q-70 0 -129 -25.5t-102.5 -75.5t-68 -123t-24.5 -169z" />
<glyph unicode="p" horiz-adv-x="1153" d="M184 -412v1362q0 29 16.5 45.5t45.5 16.5q15 0 26.5 -4.5t19.5 -13.5t13 -23t8 -33l10 -76h3q31 45 77 80q19 15 44 29.5t55 25.5t65 18t76 7q91 0 165.5 -31t128 -92.5t83 -154t29.5 -216.5q0 -130 -36.5 -231.5t-104 -171.5t-164.5 -106.5t-218 -36.5q-41 0 -76.5 4 t-61.5 9q-31 6 -56 14l-3 -1q2 -32 2.5 -66.5t0.5 -70.5v-283q0 -32 -18.5 -49.5t-55.5 -17.5t-55.5 17.5t-18.5 49.5zM332 147q23 -13 55 -23q27 -8 66.5 -15t93.5 -7q78 0 142.5 26.5t110.5 78t71.5 127.5t25.5 176q0 103 -20 176.5t-57 120.5t-90 68.5t-118 21.5 q-35 0 -65.5 -8t-57 -20.5t-48 -29t-39.5 -33.5q-41 -40 -70 -91v-568z" />
<glyph unicode="q" horiz-adv-x="1153" d="M104 476q0 130 36.5 231.5t104 171.5t164.5 106.5t218 36.5q61 0 114.5 -9t94.5 -22t69 -27.5t39 -25.5q6 -6 11 -13t8 -15t4.5 -18t1.5 -23v-1281q0 -32 -18.5 -49.5t-55.5 -17.5t-55.5 17.5t-18.5 49.5v419q0 33 1 63.5t4 65.5h-3q-31 -44 -77 -77q-39 -29 -97.5 -53 t-138.5 -24q-91 0 -165.5 31t-128 92.5t-83 154t-29.5 216.5zM256 494q0 -104 20 -177t57 -120t90 -68.5t118 -21.5q35 0 65.5 7.5t56.5 20.5t48 29.5t40 33.5q41 40 70 91v563q-22 12 -54 23q-27 8 -67 15.5t-94 7.5q-78 0 -142.5 -26.5t-110.5 -77.5t-71.5 -126.5 t-25.5 -173.5z" />
<glyph unicode="r" horiz-adv-x="697" d="M184 61v889q0 29 16.5 45.5t45.5 16.5q15 0 26.5 -4.5t20 -14t13.5 -24t7 -33.5l12 -100h3q21 40 48.5 74.5t60 59t68.5 38.5t75 14q51 0 76.5 -23t25.5 -63t-21.5 -60t-46.5 -20q-11 0 -18.5 1t-15.5 3l-15 2q-8 2 -18 2q-26 0 -53.5 -12t-54.5 -36t-54 -61t-53 -87 v-607q0 -32 -18.5 -49.5t-55.5 -17.5t-55.5 17.5t-18.5 49.5z" />
<glyph unicode="s" horiz-adv-x="895" d="M115 103q0 26 16 42t41 16q15 0 33.5 -9t46.5 -19.5t69 -19t101 -8.5q58 0 100.5 12.5t70 34t41 51.5t13.5 65q0 45 -22.5 75.5t-59.5 52t-84 38.5l-96 34q-49 17 -96 38t-84 51.5t-59.5 74.5t-22.5 107q0 58 24 109.5t70.5 90t114.5 61t157 22.5q51 0 90 -6t68 -15.5 t47.5 -20t27.5 -19.5q13 -13 18 -25t5 -29q0 -12 -4.5 -21.5t-12 -17t-18 -11.5t-22.5 -4q-15 0 -34 7l-43 16q-25 9 -58.5 16t-79.5 7q-53 0 -91 -11t-63 -30.5t-37 -45.5t-12 -56q0 -44 22.5 -73t59.5 -50t84 -37l97 -33q49 -18 96 -39t84 -53t59.5 -77t22.5 -109 q0 -63 -25 -118t-74.5 -96t-122 -65t-167.5 -24q-62 0 -108 7t-78.5 17t-53 22t-29.5 21q-11 11 -16.5 23.5t-5.5 30.5z" />
<glyph unicode="t" horiz-adv-x="683" d="M36 943q0 29 15.5 45t41.5 16h123l22 198q4 37 22 55.5t46 18.5q27 0 42.5 -16t15.5 -45v-211h226q26 0 41.5 -16t15.5 -45t-15.5 -45t-41.5 -16h-226v-613q0 -86 31 -120.5t94 -34.5q25 0 42.5 3t30.5 7l24 7q10 3 20 3q12 0 21 -3.5t15 -10t9.5 -15.5t3.5 -20 q0 -17 -6 -27.5t-15 -19.5q-6 -6 -18.5 -14t-33.5 -15.5t-51 -13t-70 -5.5q-124 0 -184.5 59.5t-60.5 175.5v657h-123q-26 0 -41.5 16t-15.5 45z" />
<glyph unicode="u" horiz-adv-x="1182" d="M174 392v551q0 32 18 49.5t56 17.5t56 -17.5t18 -49.5v-527q0 -161 66 -235t182 -74q35 0 65.5 7.5t56.5 20.5t48 29.5t40 33.5q41 40 70 91v654q0 32 18 49.5t56 17.5t56 -17.5t18 -49.5v-889q0 -29 -16.5 -45.5t-45.5 -16.5q-15 0 -26.5 4.5t-19.5 13.5t-13 23t-8 33 l-10 76h-3q-30 -45 -76 -80q-20 -15 -44.5 -29.5t-54.5 -25.5t-65.5 -18t-76.5 -7q-84 0 -151.5 26t-115 78t-73 128.5t-25.5 177.5z" />
<glyph unicode="v" horiz-adv-x="981" d="M50 943q0 17 8 30t20 22t26.5 13.5t27.5 4.5q15 0 26 -4.5t19 -12.5q7 -7 12.5 -19t16.5 -40l237 -624l22 -61q10 -27 16 -46l12 -39h4l12 39q6 19 15 46l23 61l236 628q9 24 14.5 36t12.5 19q8 8 19.5 12.5t25.5 4.5q13 0 26.5 -4t24.5 -12t18 -20t7 -28q0 -8 -3 -19 t-13 -36l-311 -788q-12 -30 -23.5 -52.5t-23.5 -34.5q-7 -7 -14.5 -11.5t-15.5 -7.5t-17.5 -4.5t-19.5 -1.5q-11 0 -20.5 1.5t-17.5 4.5t-15.5 7.5t-14.5 11.5q-12 12 -23.5 34.5t-23.5 52.5l-307 777q-11 28 -14.5 39t-3.5 21z" />
<glyph unicode="w" horiz-adv-x="1574" d="M80 946q0 16 7.5 29t19.5 21t26 12.5t28 4.5q16 0 27.5 -4.5t19.5 -12.5t13 -21.5t14 -43.5l187 -626l16 -59l12 -46q5 -23 10 -42h4q4 19 10 42l12 46q7 27 17 59l184 600q10 31 20 52t22.5 33.5t28 17.5t36.5 5t37 -5t28.5 -17.5t23 -33t19.5 -51.5l184 -601 q10 -32 17 -59l12 -46q5 -23 10 -42h4q4 19 10 42l12 46l16 59l180 627q8 29 13.5 43t13.5 22q7 7 19 11.5t26 4.5q13 0 26.5 -4t24 -11.5t17.5 -19t7 -26.5q0 -7 -2 -18t-11 -39l-252 -799q-9 -29 -18.5 -47.5t-20.5 -29.5q-14 -14 -31.5 -19.5t-37.5 -5.5q-21 0 -37.5 5 t-29.5 18q-12 12 -21.5 31t-18.5 48l-184 600q-11 34 -18 61l-12 47l-9 41h-4l-9 -41l-12 -47q-6 -27 -17 -61l-184 -600q-8 -26 -18 -46t-21 -31q-13 -13 -29.5 -19t-40.5 -6q-26 0 -43.5 6.5t-29.5 18.5q-11 11 -20 28t-18 45l-252 798q-9 28 -11 38.5t-2 17.5z" />
<glyph unicode="x" horiz-adv-x="1016" d="M72 61q0 8 2.5 15.5t8 16.5t14 20t20.5 25l302 373l-281 347l-19 24q-9 11 -14.5 19.5t-8 16.5t-2.5 16q0 18 8 32.5t20.5 25t27 16t27.5 5.5q12 0 22 -4t18 -12l5 -5q2 -2 6 -7l10 -12l17 -22l263 -336l248 331l18 24q7 9 11.5 14t6.5 7.5t4 4.5q8 8 17.5 12.5t23.5 4.5 t28 -5.5t25 -15t17.5 -22t6.5 -27.5q0 -8 -2.5 -15.5t-8 -16.5t-14 -20t-20.5 -25l-282 -347l303 -373l19 -24q9 -11 14.5 -19.5t8 -16.5t2.5 -16q0 -18 -8 -32.5t-20.5 -25t-27 -16t-27.5 -5.5q-12 0 -22 4t-18 12l-5 5q-2 2 -6 7l-10 12l-17 22l-285 362l-269 -357 l-18 -24q-7 -9 -11.5 -14t-6.5 -7.5t-4 -4.5q-8 -8 -18 -12.5t-24 -4.5q-13 0 -26.5 5t-24 14.5t-17.5 22.5t-7 28z" />
<glyph unicode="y" horiz-adv-x="981" d="M-47 -408q0 26 15.5 41t42.5 15q9 0 17 -0.5t16 -1.5t16 -1.5t17 -0.5q52 0 98 24t87.5 70.5t79 114t72.5 154.5l-346 876q-11 28 -14.5 39t-3.5 21q0 17 8 30t20 22t26.5 13.5t27.5 4.5q16 0 26.5 -4.5t18.5 -12.5q7 -7 12.5 -19t16.5 -40l236 -624q13 -35 23 -63 l16 -48q8 -24 13 -41h4q5 17 13 41q6 20 15.5 48t22.5 63l234 629q8 23 13.5 34.5t13.5 19.5t20 12.5t25 4.5t26.5 -4t24.5 -11.5t18 -20t7 -28.5q0 -8 -3 -18.5t-13 -35.5l-327 -827q-63 -158 -124 -264t-124 -169.5t-130 -90.5t-140 -27q-32 0 -58.5 7t-40.5 21 q-18 18 -18 47z" />
<glyph unicode="z" horiz-adv-x="939" d="M102 77q0 20 9.5 40t32.5 51l514 714h-475q-26 0 -41.5 16t-15.5 45t15.5 45t41.5 16h566q43 0 64.5 -20.5t21.5 -56.5q0 -20 -9.5 -40t-32.5 -51l-514 -714h521q26 0 41.5 -16t15.5 -45t-15.5 -45t-41.5 -16h-612q-43 0 -64.5 20.5t-21.5 56.5z" />
<glyph unicode="{" horiz-adv-x="659" d="M72 596q0 17 4.5 29t12.5 20q10 10 23 13l27 8q14 4 30.5 12t35.5 27q17 17 27.5 45t16 62t7.5 72.5t2 77.5v244q0 87 16 147.5t46.5 98.5t74.5 55t100 17h4q22 0 38 -4t26 -12t15 -19t5 -25t-4 -25t-12.5 -18t-20.5 -10.5t-28 -3.5h-8q-29 0 -49.5 -7t-33.5 -27 t-19 -55.5t-6 -92.5v-243q0 -96 -8.5 -160t-26 -106.5t-44.5 -68.5t-63 -45v-2q36 -19 63 -44.5t44.5 -66t26 -99.5t8.5 -145v-297q0 -62 7 -100.5t21 -61t35.5 -30.5t50.5 -8h8q30 0 44.5 -15t14.5 -39q0 -15 -5.5 -26.5t-17 -19.5t-29.5 -12.5t-43 -4.5h-4q-54 0 -96 16 t-71 51.5t-44 92t-15 137.5v302q0 39 -2 77.5t-7.5 72.5t-16 62t-27.5 45q-19 19 -35.5 27t-30.5 12l-27 7q-13 4 -23 14q-8 8 -12.5 20t-4.5 29z" />
<glyph unicode="|" horiz-adv-x="606" d="M237 -426v1856q0 32 16.5 48.5t48.5 16.5t49.5 -16.5t17.5 -48.5v-1856q0 -32 -17.5 -49t-49.5 -17t-48.5 17t-16.5 49z" />
<glyph unicode="}" horiz-adv-x="659" d="M76 -309q0 14 4 25t12.5 18t20.5 10.5t28 3.5h8q29 0 49.5 7t33.5 27t19 55.5t6 92.5v280q0 96 8.5 160t26 106.5t44.5 68.5t63 45v2q-36 19 -63 44.5t-44.5 66t-26 99.5t-8.5 146v259q0 61 -7 100t-21 61.5t-35.5 30.5t-50.5 8h-8q-30 0 -44.5 15t-14.5 39 q0 15 5.5 26.5t17 19.5t29.5 12.5t43 4.5h4q54 0 96 -16t71 -51.5t44 -92t15 -137.5v-265q0 -39 2 -77.5t7.5 -72.5t16 -62t27.5 -45q19 -19 35.5 -27t30.5 -12l27 -7q13 -4 23 -14q17 -17 17 -49q0 -17 -4.5 -29t-12.5 -20q-10 -10 -23 -13l-27 -8q-14 -4 -30.5 -12 t-35.5 -27q-17 -17 -27.5 -45t-16 -62t-7.5 -72.5t-2 -77.5v-281q0 -87 -16 -147.5t-46.5 -98.5t-74.5 -55t-100 -17h-4q-22 0 -38 4t-26 12t-15 19t-5 25z" />
<glyph unicode="~" d="M143 515q0 13 5 26q16 39 43.5 72t62 57t75.5 38t85 14t78.5 -11t63 -27t53 -35.5t49 -35.5t50 -27t56.5 -11q48 0 85.5 29.5t66.5 77.5q8 12 19 19.5t27 7.5q12 0 23 -4t19.5 -11.5t14 -18t5.5 -23.5q0 -6 -1 -12t-4 -14q-17 -39 -44 -72t-61.5 -57t-75.5 -38t-85 -14 t-78.5 11t-63 27t-53 35.5t-49 35.5t-50 27t-56.5 11q-48 0 -85.5 -29.5t-66.5 -77.5q-8 -12 -19 -19.5t-27 -7.5q-12 0 -23 4t-19.5 11.5t-14 18t-5.5 23.5z" />
<glyph unicode="&#xa1;" horiz-adv-x="604" d="M185 956q0 25 9 47t25 38t38 25t47 9t46.5 -8.5t36.5 -23.5t23.5 -36t8.5 -46q0 -26 -9 -47.5t-25 -37.5t-38 -25t-47 -9t-46 8.5t-36.5 23.5t-24 36t-8.5 46zM218 -336q0 13 0.5 29.5t1 37t0.5 46.5l15 848q0 29 17.5 46t49.5 17t50 -17t18 -46l14 -848q1 -26 1.5 -46.5 t0.5 -36.5v-30v-26q0 -14 -4.5 -26.5t-14.5 -21.5t-26 -14.5t-39 -5.5t-39 5.5t-26 14.5t-14.5 21.5t-4.5 26.5v26z" />
<glyph unicode="&#xa2;" horiz-adv-x="1006" d="M122 586q0 105 27.5 192.5t79.5 153t125.5 108t166.5 58.5v241q0 29 16 43.5t45 14.5t45 -14.5t16 -43.5v-232q50 -1 89.5 -8t69 -17t49 -21.5t28.5 -20.5q11 -11 16 -23t5 -29q0 -22 -15 -38.5t-43 -16.5q-15 0 -35 7l-47 17q-27 10 -62.5 17.5t-83.5 7.5 q-77 0 -140 -25t-107.5 -73t-68.5 -119t-24 -163q0 -82 23.5 -146.5t68.5 -109.5t110.5 -68.5t149.5 -23.5q51 0 87.5 7t63 15.5t44.5 15.5t33 7q11 0 20.5 -3.5t16 -10t10 -16t3.5 -20.5q0 -26 -23 -49q-12 -12 -33.5 -23.5t-51.5 -21.5t-69 -17.5t-85 -9.5v-234 q0 -29 -16 -43.5t-45 -14.5t-45 14.5t-16 43.5v238q-94 11 -168 47.5t-125 95t-78 137.5t-27 174z" />
<glyph unicode="&#xa3;" horiz-adv-x="1044" d="M115 708q0 27 15.5 44.5t48.5 17.5h73q-12 45 -26 103t-14 129q0 82 30.5 153t89 123t143.5 81.5t193 29.5q45 0 81 -6t62.5 -15.5t44.5 -20t27 -19.5q11 -11 16 -23t5 -29q0 -11 -4 -21t-11.5 -17.5t-18 -12t-24.5 -4.5q-15 0 -31 6l-39 15q-22 9 -53 15.5t-75 6.5 q-70 0 -123 -17.5t-89 -49.5t-54.5 -76.5t-18.5 -98.5q0 -36 4 -67.5t10.5 -62t14.5 -60.5l16 -62h367q33 0 48.5 -17.5t15.5 -44.5t-15.5 -44.5t-48.5 -17.5h-338q24 -151 -13 -276t-128 -237l2 -2h612q26 0 42.5 -17.5t16.5 -47.5q0 -31 -16.5 -48.5t-42.5 -17.5h-684 q-48 0 -73.5 24t-25.5 64q0 16 2.5 29.5t8.5 27t15.5 28t23.5 33.5q29 38 55.5 82.5t43 98t20 117.5t-13.5 142h-103q-33 0 -48.5 17.5t-15.5 44.5z" />
<glyph unicode="&#xa4;" horiz-adv-x="1030" d="M107 300q0 13 5.5 22.5t15.5 19.5l107 115q-38 46 -58.5 107.5t-20.5 136.5q0 78 21.5 142.5t62.5 112.5l-105 111q-9 10 -15 19.5t-6 22.5q0 12 6 24t16 21.5t22.5 15.5t25.5 6q16 0 26 -7.5t21 -21.5l90 -123q42 25 92.5 38t109.5 13q113 0 194 -49l94 126 q11 15 21.5 21.5t25.5 6.5q12 0 24 -5.5t21 -14.5t14.5 -20t5.5 -23q0 -13 -5.5 -22.5t-15.5 -19.5l-107 -115q38 -46 58.5 -107t20.5 -136q0 -79 -21.5 -143.5t-62.5 -112.5l105 -111q9 -10 15 -19.5t6 -22.5q0 -12 -6 -24t-16 -21.5t-22.5 -15.5t-25.5 -6q-16 0 -26 7.5 t-21 21.5l-90 122q-42 -25 -93 -37.5t-109 -12.5q-57 0 -105.5 12.5t-89.5 35.5l-93 -125q-11 -15 -21.5 -21.5t-25.5 -6.5q-12 0 -24 5.5t-21 14.5t-14.5 20t-5.5 23zM287 711q0 -62 17 -111t47.5 -82.5t73 -51t92.5 -17.5t91.5 17t71.5 50t46.5 81t16.5 110t-17 110.5 t-47.5 82t-73 51t-92.5 17.5t-91.5 -17t-71.5 -50t-46.5 -81t-16.5 -109z" />
<glyph unicode="&#xa5;" horiz-adv-x="1214" d="M114 1313q0 16 7 30t18.5 23.5t26 15t29.5 5.5q13 0 24.5 -4.5t20.5 -13.5q8 -8 17.5 -24.5t20.5 -33.5l275 -465l23 -41l19 -35q10 -18 17 -34h4q8 17 18 35l19 36q11 21 25 44l264 461q17 30 24 40.5t13 16.5q18 18 44 18q15 0 28.5 -5.5t24.5 -15t17.5 -22.5t6.5 -28 q0 -16 -8 -31.5t-26 -44.5l-372 -608h243q33 0 47.5 -16.5t14.5 -41.5t-14.5 -41.5t-47.5 -16.5h-256v-161h256q33 0 47.5 -16.5t14.5 -41.5t-14.5 -41.5t-47.5 -16.5h-256v-178q0 -32 -18.5 -49.5t-56.5 -17.5t-56.5 17.5t-18.5 49.5v178h-256q-33 0 -47.5 16.5t-14.5 41.5 t14.5 41.5t47.5 16.5h256v161h-256q-33 0 -47.5 16.5t-14.5 41.5t14.5 41.5t47.5 16.5h242l-368 604q-19 31 -27 46t-8 31z" />
<glyph unicode="&#xa6;" horiz-adv-x="606" d="M237 291q0 32 16.5 48.5t48.5 16.5t49.5 -16.5t17.5 -48.5v-717q0 -32 -17.5 -49t-49.5 -17t-48.5 17t-16.5 49v717zM237 729v701q0 32 16.5 48.5t48.5 16.5t49.5 -16.5t17.5 -48.5v-701q0 -32 -17.5 -48.5t-49.5 -16.5t-48.5 16.5t-16.5 48.5z" />
<glyph unicode="&#xa7;" horiz-adv-x="1094" d="M137 559q0 115 54.5 190.5t154.5 124.5q-48 41 -77 94t-29 128q0 67 24 122t70 95t112.5 62t152.5 22q51 0 90 -6t68 -15.5t47.5 -20t27.5 -19.5q13 -13 18 -25t5 -29q0 -12 -4.5 -21.5t-12 -17t-18 -11.5t-22.5 -4q-15 0 -33 7l-44 16q-25 9 -58.5 16t-79.5 7 q-102 0 -149.5 -43t-47.5 -118q0 -50 24.5 -86.5t64.5 -66t92 -55.5l105 -53q53 -27 104.5 -58t91.5 -72.5t64.5 -95.5t24.5 -127q0 -115 -55 -190.5t-154 -124.5q48 -41 77 -94t29 -128q0 -67 -24 -122.5t-70 -95t-113 -61.5t-152 -22q-51 0 -90 6t-68 15.5t-47.5 20 t-27.5 19.5q-13 13 -18 25t-5 29q0 12 4.5 21.5t12 17t18 11.5t22.5 4q15 0 34 -7l43 -16q25 -9 58.5 -16t79.5 -7q102 0 149.5 43t47.5 118q0 49 -24.5 86t-64.5 66.5t-91 54.5l-106 53q-53 27 -104.5 58.5t-91.5 73t-64.5 95.5t-24.5 127zM289 576q0 -63 31 -107.5 t80 -79.5t109.5 -64.5t119.5 -62.5q85 35 130.5 88.5t45.5 131.5q0 63 -31 107.5t-80 79.5t-110 64.5t-120 61.5q-85 -35 -130 -88t-45 -131z" />
<glyph unicode="&#xa8;" horiz-adv-x="1024" d="M211 1319q0 23 8.5 42.5t23 34t34 23t42.5 8.5t42.5 -7.5t33.5 -21.5t21.5 -33t7.5 -42t-8 -43t-22.5 -34.5t-34 -23t-42.5 -8.5t-42.5 7.5t-33.5 21.5t-22 33.5t-8 42.5zM600 1319q0 23 8.5 42.5t23 34t34.5 23t43 8.5t42 -7.5t33 -21.5t21.5 -33t7.5 -42t-8 -43 t-22 -34.5t-33.5 -23t-42.5 -8.5t-43 7.5t-34 21.5t-22 33.5t-8 42.5z" />
<glyph unicode="&#xa9;" horiz-adv-x="1604" d="M112 684q0 160 51.5 291t143.5 225t220 145.5t280 51.5q153 0 279 -50t216.5 -142t140 -221.5t49.5 -289.5q0 -159 -51.5 -290.5t-144 -225t-220 -145t-279.5 -51.5q-153 0 -279 50t-216.5 141.5t-140 221.5t-49.5 289zM229 689q0 -138 42 -250t118 -191t181.5 -121.5 t231.5 -42.5t231.5 42.5t181.5 121.5t118 191t42 250q0 139 -42 251t-118 191t-181.5 121.5t-231.5 42.5t-231.5 -42.5t-181.5 -121.5t-118 -191t-42 -251zM452 672q0 102 28.5 183t80 136.5t122.5 85t156 29.5q39 0 70.5 -5.5t55.5 -14t40 -18t25 -18.5q11 -11 15 -21.5 t4 -23.5q0 -20 -12 -33.5t-33 -13.5q-14 0 -27 7t-31.5 15t-46 15t-70.5 7q-52 0 -97.5 -20.5t-79 -60t-52.5 -98.5t-19 -137q0 -72 18.5 -126.5t52 -92t81 -56.5t105.5 -19q40 0 67 6.5t46 15.5l33 14q13 7 26 7q20 0 30.5 -13t10.5 -31q0 -24 -19 -43q-10 -10 -28.5 -20.5 t-45.5 -19.5t-62 -15t-78 -6q-83 0 -150.5 26.5t-115.5 76t-74 121t-26 161.5z" />
<glyph unicode="&#xaa;" horiz-adv-x="829" d="M90 516q0 24 13.5 37.5t38.5 13.5h545q25 0 38.5 -13.5t13.5 -37.5t-13.5 -37.5t-38.5 -13.5h-545q-25 0 -38.5 13.5t-13.5 37.5zM126 883q0 45 19.5 79t55.5 57t87.5 34.5t116.5 11.5q32 0 58 -2.5t44 -5.5l37 -7v82q0 41 -8.5 70.5t-27.5 48t-49.5 27t-73.5 8.5 q-40 0 -69 -6.5t-50 -14t-35.5 -13.5t-26.5 -6q-19 0 -31 12t-12 33q0 11 4 19.5t12 16.5q9 9 30.5 20t52.5 20.5t69.5 15.5t82.5 6q130 0 193.5 -59t63.5 -173v-246q0 -44 2.5 -71.5t6 -45t6 -28.5t2.5 -22q0 -20 -14.5 -34t-40.5 -14q-32 0 -49 23.5t-25 63.5h-2 q-22 -27 -52 -47q-26 -17 -63.5 -31.5t-87.5 -14.5q-54 0 -96 14.5t-71 40.5t-44 61.5t-15 76.5zM255 889q0 -43 32 -71.5t93 -28.5q39 0 69.5 14t51.5 31q25 19 43 45v84q-16 4 -35 8q-17 3 -40 5.5t-50 2.5q-164 0 -164 -90z" />
<glyph unicode="&#xab;" horiz-adv-x="1153" d="M108 501q0 22 8.5 37.5t23.5 31.5l328 338q13 14 26.5 24t30.5 10q13 0 24.5 -5t20 -13.5t13.5 -19.5t5 -24q0 -15 -9 -27.5t-20 -24.5l-292 -323l298 -328q12 -13 19 -23.5t7 -25.5q0 -14 -5.5 -26t-15 -21t-22 -14t-25.5 -5q-7 0 -13.5 2t-12.5 5.5t-12.5 8.5t-12.5 12 l-331 342q-15 16 -24 32.5t-9 36.5zM568 501q0 22 8.5 37.5t23.5 31.5l315 325q16 17 28 24.5t27 7.5q12 0 23.5 -5t20 -13t13.5 -19t5 -24q0 -14 -7.5 -25t-18.5 -24l-281 -312l285 -315q12 -13 18.5 -24t6.5 -24t-5.5 -25t-14.5 -21t-21 -14.5t-25 -5.5q-7 0 -13 1.5 t-12 4.5t-12 8l-14 14l-317 328q-15 16 -24 32.5t-9 36.5z" />
<glyph unicode="&#xac;" d="M174 582q0 27 15.5 44t41.5 17h686q78 0 78 -78v-302q0 -32 -18 -49t-48 -17t-48 17t-18 49v258h-632q-26 0 -41.5 17t-15.5 44z" />
<glyph unicode="&#xad;" horiz-adv-x="971" d="M172 535q0 30 15 45.5t42 15.5h512q28 0 43 -15.5t15 -45.5q0 -31 -15 -46.5t-43 -15.5h-512q-27 0 -42 15.5t-15 46.5z" />
<glyph unicode="&#xae;" horiz-adv-x="987" d="M80 1085q0 89 31 164t86 130t131.5 85.5t168.5 30.5q91 0 166.5 -30t129.5 -83.5t84 -127.5t30 -163t-31 -164.5t-86 -130.5t-132 -85.5t-168 -30.5t-166.5 30t-129.5 83.5t-84 128t-30 163.5zM164 1088q0 -74 24.5 -136t68 -106t104 -68.5t132.5 -24.5t133 24.5 t104.5 68.5t68 106t24.5 136t-24.5 135.5t-68 105.5t-104 68.5t-132.5 24.5t-133 -24.5t-104.5 -68.5t-68 -105.5t-24.5 -135.5zM350 907v362q0 17 9.5 26t26.5 9h106q88 0 127.5 -33.5t39.5 -85.5q0 -48 -27.5 -79t-69.5 -42q13 -36 29 -58.5t34 -40.5q14 -14 26.5 -23 t18.5 -15q5 -5 7.5 -11t2.5 -12q0 -13 -10.5 -22.5t-29.5 -9.5q-17 0 -35 8.5t-37 27.5q-23 23 -42 54.5t-38 87.5h-60v-143q0 -16 -9.5 -25.5t-29.5 -9.5t-29.5 9.5t-9.5 25.5zM428 1113h64q45 0 65.5 18t20.5 47q0 28 -20 44.5t-70 16.5h-60v-126z" />
<glyph unicode="&#xaf;" horiz-adv-x="1024" d="M209 1319q0 29 14 43.5t43 14.5h492q29 0 43 -14.5t14 -43.5t-14 -43.5t-43 -14.5h-492q-29 0 -43 14.5t-14 43.5z" />
<glyph unicode="&#xb0;" horiz-adv-x="827" d="M129 1221q0 58 21 108t59.5 87t91.5 58t117 21t115.5 -20t88 -55t56.5 -84t20 -107q0 -59 -21 -109t-59 -87t-91 -58t-117 -21t-116 20t-88.5 55t-56.5 84t-20 108zM252 1225q0 -37 12 -67.5t33.5 -52.5t51 -34t65.5 -12q35 0 65 12t51.5 34t33.5 52.5t12 67.5t-12 67.5 t-33.5 52.5t-51.5 34t-65 12q-36 0 -65.5 -12t-51 -34t-33.5 -52.5t-12 -67.5z" />
<glyph unicode="&#xb1;" d="M155 61q0 27 15 44t41 17h744q26 0 42 -17t16 -44t-16 -44t-42 -17h-743q-26 0 -41.5 17t-15.5 44zM165 709q0 27 15.5 44t41.5 17h296v303q0 32 18 49t48 17t48 -17t18 -49v-303h295q26 0 42 -17t16 -44t-16 -44t-42 -17h-295v-303q0 -32 -18 -49t-48 -17t-48 17t-18 49 v303h-296q-26 0 -41.5 17t-15.5 44z" />
<glyph unicode="&#xb2;" horiz-adv-x="679" d="M56 698q0 23 8 40.5t28 35.5l151 141q49 46 83.5 81.5t56 65.5t31.5 57t10 56q0 48 -32.5 77.5t-98.5 29.5q-28 0 -51 -4.5t-43 -9.5l-34 -10q-15 -5 -26 -5q-19 0 -31.5 12t-12.5 32q0 11 4.5 21.5t12.5 18.5q10 10 30 19.5t48 17t62.5 12.5t73.5 5q61 0 107 -15t77 -41 t46.5 -61.5t15.5 -77.5q0 -44 -13 -83t-41 -79t-73 -85t-108 -100l-123 -108h334q23 0 36 -15t13 -41t-13 -41t-36 -15h-413q-38 0 -58.5 19t-20.5 50z" />
<glyph unicode="&#xb3;" horiz-adv-x="692" d="M89 703q0 21 13 35t33 14q12 0 24 -5t29.5 -10.5t41.5 -10.5t60 -5q75 0 114 35t39 87q0 28 -10 50.5t-35.5 38.5t-69 24.5t-110.5 8.5q-14 0 -20 1.5t-11 6.5q-8 7 -11.5 19.5t-3.5 25.5t3.5 25t11.5 20q5 5 11 6.5t20 1.5q56 0 94 9t61.5 24.5t33.5 37.5t10 48 q0 42 -29.5 67.5t-97.5 25.5q-27 0 -48 -4.5t-37 -9.5t-29 -9.5t-24 -4.5q-20 0 -32.5 12t-12.5 33q0 14 4.5 23t12.5 17q18 18 69 34.5t126 16.5q63 0 109 -13.5t76 -38t44.5 -58t14.5 -73.5q0 -60 -35 -105.5t-93 -68.5v-1q75 -15 115 -62t40 -122q0 -48 -19.5 -90.5 t-57.5 -74t-94.5 -50t-129.5 -18.5q-75 0 -119.5 13t-63.5 32q-8 8 -12.5 17.5t-4.5 24.5z" />
<glyph unicode="&#xb4;" horiz-adv-x="1024" d="M346 1206q0 10 5 19t10 17l166 243q10 15 21 23t28 8q15 0 31 -6.5t29.5 -18t22.5 -26.5t9 -33q0 -7 -2 -12.5t-5 -11t-6.5 -10t-7.5 -8.5l-196 -214q-11 -13 -22 -19.5t-24 -6.5q-12 0 -22.5 4.5t-19 12t-13 18t-4.5 21.5z" />
<glyph unicode="&#xb5;" horiz-adv-x="1192" d="M184 -412v1355q0 32 18 49.5t56 17.5t56 -17.5t18 -49.5v-527q0 -161 66 -235t182 -74q35 0 65.5 7.5t56.5 20.5t48 29.5t40 33.5q41 40 70 91v654q0 32 18 49.5t56 17.5t56 -17.5t18 -49.5v-889q0 -29 -16.5 -45.5t-45.5 -16.5q-15 0 -26.5 4.5t-19.5 13.5t-13 23t-8 33 l-10 76h-3q-30 -45 -76 -80q-39 -30 -99 -55t-142 -25q-60 0 -103.5 12t-71.5 27q-33 17 -55 39l-2 -2l14 -393q0 -11 0.5 -20.5t0.5 -18.5v-16v-16q0 -41 -21 -57t-53 -16q-37 0 -55.5 17.5t-18.5 49.5z" />
<glyph unicode="&#xb6;" horiz-adv-x="1272" d="M130 938q0 105 30.5 187t94 138.5t160.5 85.5t231 29h342q37 0 56.5 -19.5t19.5 -56.5v-1570q0 -29 -16.5 -44.5t-48.5 -15.5t-48.5 15.5t-16.5 44.5v1520h-201v-1520q0 -29 -16.5 -44.5t-48.5 -15.5t-48.5 15.5t-16.5 44.5v770q-120 0 -209 28t-147.5 83t-87.5 136.5 t-29 188.5z" />
<glyph unicode="&#xb7;" horiz-adv-x="561" d="M162 532q0 25 9.5 47.5t25.5 38.5t38 25.5t48 9.5q25 0 46.5 -8.5t37 -24t24 -37t8.5 -46.5q0 -26 -9.5 -48t-25.5 -38t-38 -25.5t-47 -9.5q-26 0 -47 8.5t-37 24t-24.5 37t-8.5 46.5z" />
<glyph unicode="&#xb8;" horiz-adv-x="1024" d="M334 -428q0 20 12 33.5t37 13.5q12 0 25.5 -1t25.5 -1q40 0 67.5 7t44.5 19.5t24.5 29.5t7.5 36q0 35 -22 54.5t-72 19.5h-8q-23 0 -33.5 14.5t-3.5 42.5l40 160h110l-29 -111q36 -4 66 -16.5t51 -33t33 -49.5t12 -66q0 -45 -18 -84t-53 -68.5t-86 -46.5t-117 -17 q-32 0 -54 5.5t-35.5 14.5t-19 20.5t-5.5 23.5z" />
<glyph unicode="&#xb9;" horiz-adv-x="543" d="M44 1228q0 11 4 19.5t12 16.5q6 6 19 14l31 18q17 10 38 21l44 22q48 23 77 35t53 12q29 0 47 -17.5t18 -47.5v-636q0 -29 -18 -45.5t-53 -16.5t-53 16.5t-18 45.5v546l-96 -38l-28 -11q-14 -5 -26 -5q-23 0 -37 15t-14 36z" />
<glyph unicode="&#xba;" horiz-adv-x="891" d="M108 516q0 24 13.5 37.5t38.5 13.5h571q25 0 38.5 -13.5t13.5 -37.5t-13.5 -37.5t-38.5 -13.5h-571q-25 0 -38.5 13.5t-13.5 37.5zM116 1027q0 85 24.5 152.5t68.5 114t106.5 71t138.5 24.5q70 0 129 -24t101.5 -68.5t66.5 -107t24 -138.5q0 -86 -24 -153t-68.5 -113.5 t-107 -71t-138.5 -24.5q-70 0 -129 24t-101.5 68.5t-66.5 106.5t-24 139zM245 1040q0 -60 16 -106.5t43 -78t64 -48t79 -16.5q43 0 79.5 16t63 47t41.5 77t15 106t-16 106.5t-43 78.5t-64 48.5t-79 16.5t-78.5 -16t-63.5 -47t-42 -77.5t-15 -106.5z" />
<glyph unicode="&#xbb;" horiz-adv-x="1153" d="M118 861q0 13 5.5 25t14.5 21t21 14.5t25 5.5q7 0 13 -1.5t12 -4.5t12 -8l14 -14l317 -328q15 -16 24 -32.5t9 -36.5q0 -22 -8.5 -37.5t-23.5 -31.5l-315 -325q-16 -17 -28 -24.5t-27 -7.5q-12 0 -23.5 4.5t-20 13t-13.5 19.5t-5 24q0 14 7.5 25t18.5 24l281 312 l-285 315q-12 13 -18.5 24t-6.5 24zM562 875q0 13 5.5 25t15 21t22 14.5t25.5 5.5q14 0 26 -7.5t25 -20.5l331 -342q15 -16 24 -32.5t9 -36.5q0 -22 -8.5 -37.5t-23.5 -31.5l-328 -338q-13 -14 -26.5 -24t-30.5 -10q-13 0 -24.5 5t-20 13.5t-13.5 19.5t-5 24q0 15 9 27.5 t20 24.5l292 323l-298 328q-12 13 -19 23.5t-7 25.5z" />
<glyph unicode="&#xbc;" horiz-adv-x="1518" d="M44 1228q0 11 4 19.5t12 16.5q6 6 19 14l31 18q17 10 38 21l44 22q48 23 77 35t53 12q29 0 47 -17.5t18 -47.5v-636q0 -29 -18 -45.5t-53 -16.5t-53 16.5t-18 45.5v546l-96 -38l-28 -11q-14 -5 -26 -5q-23 0 -37 15t-14 36zM257 40q0 9 3 17t11 22l762 1282 q10 17 21.5 26t30.5 9q12 0 23.5 -4.5t21 -12t15 -18t5.5 -22.5q0 -9 -3 -17t-11 -22l-762 -1282q-10 -17 -21.5 -26t-30.5 -9q-12 0 -23.5 4.5t-21 12t-15 18t-5.5 22.5zM815 277q0 18 6 34t22 37l264 346q14 18 27 31t27 20.5t30.5 11t37.5 3.5q46 0 67.5 -17.5 t21.5 -54.5v-378h83q22 0 34.5 -13t12.5 -41q0 -27 -12.5 -40t-34.5 -13h-83v-146q0 -29 -17.5 -45.5t-51.5 -16.5t-51.5 16.5t-17.5 45.5v146h-281q-42 0 -63 19.5t-21 54.5zM949 310h231v305z" />
<glyph unicode="&#xbd;" horiz-adv-x="1561" d="M44 1228q0 11 4 19.5t12 16.5q6 6 19 14l31 18q17 10 38 21l44 22q48 23 77 35t53 12q29 0 47 -17.5t18 -47.5v-636q0 -29 -18 -45.5t-53 -16.5t-53 16.5t-18 45.5v546l-96 -38l-28 -11q-14 -5 -26 -5q-23 0 -37 15t-14 36zM257 40q0 9 3 17t11 22l762 1282 q10 17 21.5 26t30.5 9q12 0 23.5 -4.5t21 -12t15 -18t5.5 -22.5q0 -9 -3 -17t-11 -22l-762 -1282q-10 -17 -21.5 -26t-30.5 -9q-12 0 -23.5 4.5t-21 12t-15 18t-5.5 22.5zM938 70q0 23 8 40.5t28 35.5l151 141q49 46 83.5 81.5t56 65.5t31.5 57t10 56q0 48 -32.5 77.5 t-98.5 29.5q-28 0 -51 -4.5t-43 -9.5l-34 -10q-15 -5 -26 -5q-19 0 -31.5 12t-12.5 32q0 11 4.5 21.5t12.5 18.5q10 10 30 19.5t48 17t62.5 12.5t73.5 5q61 0 107 -15t77 -41t46.5 -61.5t15.5 -77.5q0 -44 -13 -83t-41 -79t-73 -85t-108 -100l-123 -108h334q23 0 36 -15 t13 -41t-13 -41t-36 -15h-413q-38 0 -58.5 19t-20.5 50z" />
<glyph unicode="&#xbe;" horiz-adv-x="1633" d="M89 703q0 21 13 35t33 14q12 0 24 -5t29.5 -10.5t41.5 -10.5t60 -5q75 0 114 35t39 87q0 28 -10 50.5t-35.5 38.5t-69 24.5t-110.5 8.5q-14 0 -20 1.5t-11 6.5q-8 7 -11.5 19.5t-3.5 25.5t3.5 25t11.5 20q5 5 11 6.5t20 1.5q56 0 94 9t61.5 24.5t33.5 37.5t10 48 q0 42 -29.5 67.5t-97.5 25.5q-27 0 -48 -4.5t-37 -9.5t-29 -9.5t-24 -4.5q-20 0 -32.5 12t-12.5 33q0 14 4.5 23t12.5 17q18 18 69 34.5t126 16.5q63 0 109 -13.5t76 -38t44.5 -58t14.5 -73.5q0 -60 -35 -105.5t-93 -68.5v-1q75 -15 115 -62t40 -122q0 -48 -19.5 -90.5 t-57.5 -74t-94.5 -50t-129.5 -18.5q-75 0 -119.5 13t-63.5 32q-8 8 -12.5 17.5t-4.5 24.5zM372 40q0 9 3 17t11 22l762 1282q10 17 21.5 26t30.5 9q12 0 23.5 -4.5t21 -12t15 -18t5.5 -22.5q0 -9 -3 -17t-11 -22l-762 -1282q-10 -17 -21.5 -26t-30.5 -9q-12 0 -23.5 4.5 t-21 12t-15 18t-5.5 22.5zM930 277q0 18 6 34t22 37l264 346q14 18 27 31t27 20.5t30.5 11t37.5 3.5q46 0 67.5 -17.5t21.5 -54.5v-378h83q22 0 34.5 -13t12.5 -41q0 -27 -12.5 -40t-34.5 -13h-83v-146q0 -29 -17.5 -45.5t-51.5 -16.5t-51.5 16.5t-17.5 45.5v146h-281 q-42 0 -63 19.5t-21 54.5zM1064 310h231v305z" />
<glyph unicode="&#xbf;" horiz-adv-x="755" d="M54 -113q0 77 25.5 135.5t63.5 105.5t82 88t82 83t63.5 89t25.5 108q0 32 -3 53t-7 35l-7 24q-3 10 -3 21q0 26 18 42.5t52 16.5q19 0 37 -9.5t31.5 -31t21.5 -56t8 -85.5q0 -73 -24.5 -129t-61.5 -102t-80 -86.5t-80 -82.5t-61.5 -90.5t-24.5 -109.5q0 -50 16 -90.5 t47.5 -69t79 -44t109.5 -15.5q51 0 84 6.5t55.5 15t38 15t31.5 6.5q23 0 37 -13t14 -36q0 -14 -4.5 -25.5t-15.5 -22.5q-12 -11 -35 -23.5t-57 -23t-78 -17.5t-97 -7q-95 0 -167 23t-120 66t-72 102.5t-24 133.5zM323 956q0 25 9 47t25 38t37.5 25t47.5 9q25 0 46 -8.5 t36 -23.5t23.5 -36t8.5 -46q0 -26 -9 -47.5t-25 -37.5t-38 -25t-47 -9t-46 8.5t-36 23.5t-23.5 36t-8.5 46z" />
<glyph unicode="&#xc0;" horiz-adv-x="1224" d="M60 58q0 10 2.5 21t13.5 40l424 1177q4 11 8 20t8.5 16.5t9 13.5t10.5 12q13 13 31 19.5t44 6.5t44 -6.5t31 -19.5q6 -6 10.5 -12t9 -13.5t8.5 -16.5t8 -20l426 -1176q11 -29 13.5 -40t2.5 -19q0 -17 -8 -30t-20 -22t-27 -13.5t-30 -4.5q-14 0 -26 4.5t-20 12.5t-14 21.5 t-17 43.5l-109 309h-570l-104 -306q-11 -31 -17.5 -45.5t-15.5 -23.5q-7 -7 -19 -11.5t-27 -4.5q-14 0 -28 4.5t-25.5 13t-19 21t-7.5 28.5zM339 1733q0 15 7 31t18.5 28.5t26.5 21t32 8.5q14 0 24.5 -5.5t21.5 -16.5l217 -205q14 -13 19 -22.5t5 -20.5t-4.5 -21t-12 -18 t-18.5 -13t-23 -5q-11 0 -19.5 3.5t-19.5 11.5l-241 172q-15 11 -24 22.5t-9 28.5zM366 509h483l-177 505l-26 78l-21 64q-11 32 -19 59h-4l-18 -60q-8 -28 -20 -64l-26 -77z" />
<glyph unicode="&#xc1;" horiz-adv-x="1224" d="M60 58q0 10 2.5 21t13.5 40l424 1177q4 11 8 20t8.5 16.5t9 13.5t10.5 12q13 13 31 19.5t44 6.5t44 -6.5t31 -19.5q6 -6 10.5 -12t9 -13.5t8.5 -16.5t8 -20l426 -1176q11 -29 13.5 -40t2.5 -19q0 -17 -8 -30t-20 -22t-27 -13.5t-30 -4.5q-14 0 -26 4.5t-20 12.5t-14 21.5 t-17 43.5l-109 309h-570l-104 -306q-11 -31 -17.5 -45.5t-15.5 -23.5q-7 -7 -19 -11.5t-27 -4.5q-14 0 -28 4.5t-25.5 13t-19 21t-7.5 28.5zM366 509h483l-177 505l-26 78l-21 64q-11 32 -19 59h-4l-18 -60q-8 -28 -20 -64l-26 -77zM496 1552q0 11 5 20.5t19 22.5l217 205 q11 11 21.5 16.5t24.5 5.5q17 0 32 -8.5t26.5 -21t18.5 -28.5t7 -31q0 -17 -9 -28.5t-24 -22.5l-241 -172q-11 -8 -19.5 -11.5t-19.5 -3.5q-12 0 -23 5t-18.5 13t-12 18t-4.5 21z" />
<glyph unicode="&#xc2;" horiz-adv-x="1224" d="M60 58q0 10 2.5 21t13.5 40l424 1177q4 11 8 20t8.5 16.5t9 13.5t10.5 12q13 13 31 19.5t44 6.5t44 -6.5t31 -19.5q6 -6 10.5 -12t9 -13.5t8.5 -16.5t8 -20l426 -1176q11 -29 13.5 -40t2.5 -19q0 -17 -8 -30t-20 -22t-27 -13.5t-30 -4.5q-14 0 -26 4.5t-20 12.5t-14 21.5 t-17 43.5l-109 309h-570l-104 -306q-11 -31 -17.5 -45.5t-15.5 -23.5q-7 -7 -19 -11.5t-27 -4.5q-14 0 -28 4.5t-25.5 13t-19 21t-7.5 28.5zM318 1551q0 10 4.5 19t18.5 23l189 181q20 19 37.5 29t40.5 10t40.5 -10t36.5 -29l184 -183q11 -11 14.5 -19t3.5 -17 q0 -11 -4.5 -21t-12 -17.5t-18 -11.5t-21.5 -4q-10 0 -19 3.5t-22 13.5l-191 143l-189 -144q-13 -10 -21 -14t-19 -4q-10 0 -19 4t-16.5 11.5t-12 16.5t-4.5 20zM366 509h483l-177 505l-26 78l-21 64q-11 32 -19 59h-4l-18 -60q-8 -28 -20 -64l-26 -77z" />
<glyph unicode="&#xc3;" horiz-adv-x="1224" d="M60 58q0 10 2.5 21t13.5 40l424 1177q4 11 8 20t8.5 16.5t9 13.5t10.5 12q13 13 31 19.5t44 6.5t44 -6.5t31 -19.5q6 -6 10.5 -12t9 -13.5t8.5 -16.5t8 -20l426 -1176q11 -29 13.5 -40t2.5 -19q0 -17 -8 -30t-20 -22t-27 -13.5t-30 -4.5q-14 0 -26 4.5t-20 12.5t-14 21.5 t-17 43.5l-109 309h-570l-104 -306q-11 -31 -17.5 -45.5t-15.5 -23.5q-7 -7 -19 -11.5t-27 -4.5q-14 0 -28 4.5t-25.5 13t-19 21t-7.5 28.5zM269 1604q0 20 14 47.5t40.5 52t63.5 41.5t83 17q49 0 87.5 -15.5t71.5 -33.5l64 -34q31 -15 65 -15q32 0 51 12.5t33.5 28t28 28 t34.5 12.5q18 0 32 -12.5t14 -35.5q0 -20 -14 -47.5t-40.5 -52t-63.5 -41.5t-83 -17q-49 0 -87.5 15.5t-71.5 33.5l-64 34q-31 15 -65 15q-32 0 -51 -12.5t-33.5 -28t-28 -28t-34.5 -12.5q-18 0 -32 12.5t-14 35.5zM366 509h483l-177 505l-26 78l-21 64q-11 32 -19 59h-4 l-18 -60q-8 -28 -20 -64l-26 -77z" />
<glyph unicode="&#xc4;" horiz-adv-x="1224" d="M60 58q0 10 2.5 21t13.5 40l424 1177q4 11 8 20t8.5 16.5t9 13.5t10.5 12q13 13 31 19.5t44 6.5t44 -6.5t31 -19.5q6 -6 10.5 -12t9 -13.5t8.5 -16.5t8 -20l426 -1176q11 -29 13.5 -40t2.5 -19q0 -17 -8 -30t-20 -22t-27 -13.5t-30 -4.5q-14 0 -26 4.5t-20 12.5t-14 21.5 t-17 43.5l-109 309h-570l-104 -306q-11 -31 -17.5 -45.5t-15.5 -23.5q-7 -7 -19 -11.5t-27 -4.5q-14 0 -28 4.5t-25.5 13t-19 21t-7.5 28.5zM290 1647q0 23 8.5 42.5t23 34t34 23t42.5 8.5t42.5 -7.5t33.5 -21.5t21.5 -33t7.5 -42t-8 -43t-22.5 -34.5t-34 -23t-42.5 -8.5 t-42.5 7.5t-33.5 21.5t-22 33.5t-8 42.5zM366 509h483l-177 505l-26 78l-21 64q-11 32 -19 59h-4l-18 -60q-8 -28 -20 -64l-26 -77zM707 1647q0 23 8.5 42.5t23 34t34.5 23t43 8.5t42 -7.5t33 -21.5t21.5 -33t7.5 -42t-8 -43t-22 -34.5t-33.5 -23t-42.5 -8.5t-43 7.5 t-34 21.5t-22 33.5t-8 42.5z" />
<glyph unicode="&#xc5;" horiz-adv-x="1224" d="M60 58q0 10 2.5 21t13.5 40l424 1177q4 11 8 20t8.5 16.5t9 13.5t10.5 12q13 13 31 19.5t44 6.5t44 -6.5t31 -19.5q6 -6 10.5 -12t9 -13.5t8.5 -16.5t8 -20l426 -1176q11 -29 13.5 -40t2.5 -19q0 -17 -8 -30t-20 -22t-27 -13.5t-30 -4.5q-14 0 -26 4.5t-20 12.5t-14 21.5 t-17 43.5l-109 309h-570l-104 -306q-11 -31 -17.5 -45.5t-15.5 -23.5q-7 -7 -19 -11.5t-27 -4.5q-14 0 -28 4.5t-25.5 13t-19 21t-7.5 28.5zM363 1712q0 47 18 88t50.5 71.5t78 48t99.5 17.5t98 -16.5t75 -45.5t48 -68.5t17 -86.5t-18 -88t-50.5 -71.5t-78 -48t-99.5 -17.5 t-98 16.5t-75 45.5t-48 68.5t-17 86.5zM366 509h483l-177 505l-26 78l-21 64q-11 32 -19 59h-4l-18 -60q-8 -28 -20 -64l-26 -77zM466 1716q0 -62 37.5 -99t101.5 -37t101.5 37t37.5 99t-37.5 99t-101.5 37t-101.5 -37t-37.5 -99z" />
<glyph unicode="&#xc6;" horiz-adv-x="1728" d="M0 62q0 9 2 16.5t6 16.5t11 20l16 26l716 1173q12 19 23 31t23.5 19.5t27 10.5t34.5 3h710q29 0 45 -16.5t16 -47.5q0 -32 -16 -49t-45 -17h-549v-473h475q29 0 45 -16.5t16 -48.5t-16 -48.5t-45 -16.5h-475v-515h553q29 0 45 -16.5t16 -48.5t-16 -48.5t-45 -16.5h-629 q-37 0 -56.5 19.5t-19.5 56.5v306h-520l-188 -316q-17 -29 -25 -40t-13 -16q-9 -9 -20 -14t-27 -5q-14 0 -27 5t-24 14.5t-17.5 22.5t-6.5 29zM425 509h443v739h-3z" />
<glyph unicode="&#xc7;" horiz-adv-x="1195" d="M112 649q0 177 48.5 316t135 234.5t206 145.5t261.5 50q64 0 116 -10t92 -25t66.5 -31.5t38.5 -28.5q14 -14 19.5 -27t5.5 -30q0 -13 -4.5 -24t-12.5 -18.5t-19.5 -12t-25.5 -4.5q-20 0 -42 12.5t-55 27.5t-81.5 27.5t-122.5 12.5q-99 0 -184.5 -38.5t-149 -113.5 t-100 -186t-36.5 -256q0 -132 36 -234.5t100.5 -173.5t153.5 -108t195 -37q69 0 117.5 12t82.5 26t57 26t42 12q12 0 22 -4t16.5 -11.5t10.5 -17.5t4 -21q0 -15 -5.5 -27t-18.5 -25q-16 -16 -47.5 -34t-77.5 -33.5t-105.5 -25.5t-129.5 -10l-25 -95q36 -4 66 -16.5t51 -33 t33 -49.5t12 -66q0 -45 -18 -84t-53 -68.5t-86 -46.5t-117 -17q-32 0 -54 5.5t-35.5 14.5t-19 20.5t-5.5 23.5q0 20 12 33.5t37 13.5q12 0 25.5 -1t25.5 -1q40 0 67.5 7t44.5 19.5t24.5 29.5t7.5 36q0 35 -22 54.5t-72 19.5h-8q-23 0 -33.5 14.5t-3.5 42.5l38 153 q-104 16 -195 66t-159 132.5t-107.5 197t-39.5 260.5z" />
<glyph unicode="&#xc8;" horiz-adv-x="1064" d="M204 76v1226q0 37 19.5 56.5t56.5 19.5h625q29 0 45 -16.5t16 -47.5q0 -32 -16 -49t-45 -17h-549v-473h475q29 0 45 -16.5t16 -48.5t-16 -48.5t-45 -16.5h-475v-515h553q29 0 45 -16.5t16 -48.5t-16 -48.5t-45 -16.5h-629q-37 0 -56.5 19.5t-19.5 56.5zM307 1733 q0 15 7 31t18.5 28.5t26.5 21t32 8.5q14 0 24.5 -5.5t21.5 -16.5l217 -205q14 -13 19 -22.5t5 -20.5t-4.5 -21t-12 -18t-18.5 -13t-23 -5q-11 0 -19.5 3.5t-19.5 11.5l-241 172q-15 11 -24 22.5t-9 28.5z" />
<glyph unicode="&#xc9;" horiz-adv-x="1064" d="M204 76v1226q0 37 19.5 56.5t56.5 19.5h625q29 0 45 -16.5t16 -47.5q0 -32 -16 -49t-45 -17h-549v-473h475q29 0 45 -16.5t16 -48.5t-16 -48.5t-45 -16.5h-475v-515h553q29 0 45 -16.5t16 -48.5t-16 -48.5t-45 -16.5h-629q-37 0 -56.5 19.5t-19.5 56.5zM498 1552 q0 11 5 20.5t19 22.5l217 205q11 11 21.5 16.5t24.5 5.5q17 0 32 -8.5t26.5 -21t18.5 -28.5t7 -31q0 -17 -9 -28.5t-24 -22.5l-241 -172q-11 -8 -19.5 -11.5t-19.5 -3.5q-12 0 -23 5t-18.5 13t-12 18t-4.5 21z" />
<glyph unicode="&#xca;" horiz-adv-x="1064" d="M204 76v1226q0 37 19.5 56.5t56.5 19.5h625q29 0 45 -16.5t16 -47.5q0 -32 -16 -49t-45 -17h-549v-473h475q29 0 45 -16.5t16 -48.5t-16 -48.5t-45 -16.5h-475v-515h553q29 0 45 -16.5t16 -48.5t-16 -48.5t-45 -16.5h-629q-37 0 -56.5 19.5t-19.5 56.5zM297 1551 q0 10 4.5 19t18.5 23l189 181q20 19 37.5 29t40.5 10t40.5 -10t36.5 -29l184 -183q11 -11 14.5 -19t3.5 -17q0 -11 -4.5 -21t-12 -17.5t-18 -11.5t-21.5 -4q-10 0 -19 3.5t-22 13.5l-191 143l-189 -144q-13 -10 -21 -14t-19 -4q-10 0 -19 4t-16.5 11.5t-12 16.5t-4.5 20z " />
<glyph unicode="&#xcb;" horiz-adv-x="1064" d="M204 76v1226q0 37 19.5 56.5t56.5 19.5h625q29 0 45 -16.5t16 -47.5q0 -32 -16 -49t-45 -17h-549v-473h475q29 0 45 -16.5t16 -48.5t-16 -48.5t-45 -16.5h-475v-515h553q29 0 45 -16.5t16 -48.5t-16 -48.5t-45 -16.5h-629q-37 0 -56.5 19.5t-19.5 56.5zM256 1647 q0 23 8.5 42.5t23 34t34 23t42.5 8.5t42.5 -7.5t33.5 -21.5t21.5 -33t7.5 -42t-8 -43t-22.5 -34.5t-34 -23t-42.5 -8.5t-42.5 7.5t-33.5 21.5t-22 33.5t-8 42.5zM673 1647q0 23 8.5 42.5t23 34t34.5 23t43 8.5t42 -7.5t33 -21.5t21.5 -33t7.5 -42t-8 -43t-22 -34.5 t-33.5 -23t-42.5 -8.5t-43 7.5t-34 21.5t-22 33.5t-8 42.5z" />
<glyph unicode="&#xcc;" horiz-adv-x="560" d="M29 1733q0 15 7 31t18.5 28.5t26.5 21t32 8.5q14 0 24.5 -5.5t21.5 -16.5l217 -205q14 -13 19 -22.5t5 -20.5t-4.5 -21t-12 -18t-18.5 -13t-23 -5q-11 0 -19.5 3.5t-19.5 11.5l-241 172q-15 11 -24 22.5t-9 28.5zM204 61v1256q0 32 19 49.5t57 17.5t57 -17.5t19 -49.5 v-1256q0 -32 -19 -49.5t-57 -17.5t-57 17.5t-19 49.5z" />
<glyph unicode="&#xcd;" horiz-adv-x="560" d="M156 1552q0 11 5 20.5t19 22.5l217 205q11 11 21.5 16.5t24.5 5.5q17 0 32 -8.5t26.5 -21t18.5 -28.5t7 -31q0 -17 -9 -28.5t-24 -22.5l-241 -172q-11 -8 -19.5 -11.5t-19.5 -3.5q-12 0 -23 5t-18.5 13t-12 18t-4.5 21zM204 61v1256q0 32 19 49.5t57 17.5t57 -17.5 t19 -49.5v-1256q0 -32 -19 -49.5t-57 -17.5t-57 17.5t-19 49.5z" />
<glyph unicode="&#xce;" horiz-adv-x="560" d="M-5 1551q0 10 4.5 19t18.5 23l189 181q20 19 37.5 29t40.5 10t40.5 -10t36.5 -29l184 -183q11 -11 14.5 -19t3.5 -17q0 -11 -4.5 -21t-12 -17.5t-18 -11.5t-21.5 -4q-10 0 -19 3.5t-22 13.5l-191 143l-189 -144q-13 -10 -21 -14t-19 -4q-10 0 -19 4t-16.5 11.5t-12 16.5 t-4.5 20zM204 61v1256q0 32 19 49.5t57 17.5t57 -17.5t19 -49.5v-1256q0 -32 -19 -49.5t-57 -17.5t-57 17.5t-19 49.5z" />
<glyph unicode="&#xcf;" horiz-adv-x="560" d="M-33 1647q0 23 8.5 42.5t23 34t34 23t42.5 8.5t42.5 -7.5t33.5 -21.5t21.5 -33t7.5 -42t-8 -43t-22.5 -34.5t-34 -23t-42.5 -8.5t-42.5 7.5t-33.5 21.5t-22 33.5t-8 42.5zM204 61v1256q0 32 19 49.5t57 17.5t57 -17.5t19 -49.5v-1256q0 -32 -19 -49.5t-57 -17.5t-57 17.5 t-19 49.5zM384 1647q0 23 8.5 42.5t23 34t34.5 23t43 8.5t42 -7.5t33 -21.5t21.5 -33t7.5 -42t-8 -43t-22 -34.5t-33.5 -23t-42.5 -8.5t-43 7.5t-34 21.5t-22 33.5t-8 42.5z" />
<glyph unicode="&#xd0;" horiz-adv-x="1407" d="M50 727q0 29 15.5 45.5t41.5 16.5h120v513q0 37 19.5 56.5t56.5 19.5h315q167 0 294.5 -43.5t213.5 -127.5t130 -206.5t44 -281.5q0 -169 -48.5 -302.5t-140 -226t-222.5 -141.5t-296 -49h-290q-37 0 -56.5 19.5t-19.5 56.5v589h-120q-26 0 -41.5 16.5t-15.5 45.5z M379 130h227q124 0 223.5 38t169.5 110.5t107.5 178.5t37.5 241q0 136 -35 239t-103 172t-168.5 104t-231.5 35h-227v-459h281q26 0 41.5 -16.5t15.5 -45.5t-15.5 -45.5t-41.5 -16.5h-281v-535z" />
<glyph unicode="&#xd1;" horiz-adv-x="1483" d="M204 61v1213q0 54 27.5 82t81.5 28q24 0 42 -6.5t33 -18t27.5 -27.5t25.5 -36l577 -899q25 -38 47 -75l39 -67l37 -66l4 2q-3 36 -5 76q-2 34 -3.5 77t-1.5 88l-2 885q0 32 18 49.5t55 17.5t55 -17.5t18 -49.5v-1212q0 -55 -27.5 -83t-81.5 -28q-24 0 -42 6.5t-33 18 t-27.5 27.5t-25.5 36l-577 899q-25 38 -47 76l-39 66q-20 34 -37 66l-4 -2q2 -36 5 -76q2 -34 3.5 -77t1.5 -88l2 -885q0 -32 -18 -49.5t-55 -17.5t-55 17.5t-18 49.5zM419 1604q0 20 14 47.5t40.5 52t63.5 41.5t83 17q49 0 87.5 -15.5t71.5 -33.5l64 -34q31 -15 65 -15 q32 0 51 12.5t33.5 28t28 28t34.5 12.5q18 0 32 -12.5t14 -35.5q0 -20 -14 -47.5t-40.5 -52t-63.5 -41.5t-83 -17q-49 0 -87.5 15.5t-71.5 33.5l-64 34q-31 15 -65 15q-32 0 -51 -12.5t-33.5 -28t-28 -28t-34.5 -12.5q-18 0 -32 12.5t-14 35.5z" />
<glyph unicode="&#xd2;" horiz-adv-x="1478" d="M112 671q0 172 47.5 307t132.5 228t202.5 142t256.5 49q135 0 248 -46.5t194.5 -135t127 -216.5t45.5 -291q0 -172 -47.5 -307t-132.5 -228t-202.5 -142t-256.5 -49q-135 0 -248 46.5t-194.5 135t-127 216.5t-45.5 291zM268 691q0 -138 37 -246t100.5 -181.5t150 -112 t185.5 -38.5t184.5 38t148.5 111t99.5 180t36.5 245q0 139 -37 246.5t-100.5 181.5t-150 112.5t-185.5 38.5t-184.5 -38t-148.5 -111t-99.5 -180.5t-36.5 -245.5zM460 1733q0 15 7 31t18.5 28.5t26.5 21t32 8.5q14 0 24.5 -5.5t21.5 -16.5l217 -205q14 -13 19 -22.5t5 -20.5 t-4.5 -21t-12 -18t-18.5 -13t-23 -5q-11 0 -19.5 3.5t-19.5 11.5l-241 172q-15 11 -24 22.5t-9 28.5z" />
<glyph unicode="&#xd3;" horiz-adv-x="1478" d="M112 671q0 172 47.5 307t132.5 228t202.5 142t256.5 49q135 0 248 -46.5t194.5 -135t127 -216.5t45.5 -291q0 -172 -47.5 -307t-132.5 -228t-202.5 -142t-256.5 -49q-135 0 -248 46.5t-194.5 135t-127 216.5t-45.5 291zM268 691q0 -138 37 -246t100.5 -181.5t150 -112 t185.5 -38.5t184.5 38t148.5 111t99.5 180t36.5 245q0 139 -37 246.5t-100.5 181.5t-150 112.5t-185.5 38.5t-184.5 -38t-148.5 -111t-99.5 -180.5t-36.5 -245.5zM627 1552q0 11 5 20.5t19 22.5l217 205q11 11 21.5 16.5t24.5 5.5q17 0 32 -8.5t26.5 -21t18.5 -28.5t7 -31 q0 -17 -9 -28.5t-24 -22.5l-241 -172q-11 -8 -19.5 -11.5t-19.5 -3.5q-12 0 -23 5t-18.5 13t-12 18t-4.5 21z" />
<glyph unicode="&#xd4;" horiz-adv-x="1478" d="M112 671q0 172 47.5 307t132.5 228t202.5 142t256.5 49q135 0 248 -46.5t194.5 -135t127 -216.5t45.5 -291q0 -172 -47.5 -307t-132.5 -228t-202.5 -142t-256.5 -49q-135 0 -248 46.5t-194.5 135t-127 216.5t-45.5 291zM268 691q0 -138 37 -246t100.5 -181.5t150 -112 t185.5 -38.5t184.5 38t148.5 111t99.5 180t36.5 245q0 139 -37 246.5t-100.5 181.5t-150 112.5t-185.5 38.5t-184.5 -38t-148.5 -111t-99.5 -180.5t-36.5 -245.5zM462 1551q0 10 4.5 19t18.5 23l189 181q20 19 37.5 29t40.5 10t40.5 -10t36.5 -29l184 -183q11 -11 14.5 -19 t3.5 -17q0 -11 -4.5 -21t-12 -17.5t-18 -11.5t-21.5 -4q-10 0 -19 3.5t-22 13.5l-191 143l-189 -144q-13 -10 -21 -14t-19 -4q-10 0 -19 4t-16.5 11.5t-12 16.5t-4.5 20z" />
<glyph unicode="&#xd5;" horiz-adv-x="1478" d="M112 671q0 172 47.5 307t132.5 228t202.5 142t256.5 49q135 0 248 -46.5t194.5 -135t127 -216.5t45.5 -291q0 -172 -47.5 -307t-132.5 -228t-202.5 -142t-256.5 -49q-135 0 -248 46.5t-194.5 135t-127 216.5t-45.5 291zM268 691q0 -138 37 -246t100.5 -181.5t150 -112 t185.5 -38.5t184.5 38t148.5 111t99.5 180t36.5 245q0 139 -37 246.5t-100.5 181.5t-150 112.5t-185.5 38.5t-184.5 -38t-148.5 -111t-99.5 -180.5t-36.5 -245.5zM398 1604q0 20 14 47.5t40.5 52t63.5 41.5t83 17q49 0 87.5 -15.5t71.5 -33.5l64 -34q31 -15 65 -15 q32 0 51 12.5t33.5 28t28 28t34.5 12.5q18 0 32 -12.5t14 -35.5q0 -20 -14 -47.5t-40.5 -52t-63.5 -41.5t-83 -17q-49 0 -87.5 15.5t-71.5 33.5l-64 34q-31 15 -65 15q-32 0 -51 -12.5t-33.5 -28t-28 -28t-34.5 -12.5q-18 0 -32 12.5t-14 35.5z" />
<glyph unicode="&#xd6;" horiz-adv-x="1478" d="M112 671q0 172 47.5 307t132.5 228t202.5 142t256.5 49q135 0 248 -46.5t194.5 -135t127 -216.5t45.5 -291q0 -172 -47.5 -307t-132.5 -228t-202.5 -142t-256.5 -49q-135 0 -248 46.5t-194.5 135t-127 216.5t-45.5 291zM268 691q0 -138 37 -246t100.5 -181.5t150 -112 t185.5 -38.5t184.5 38t148.5 111t99.5 180t36.5 245q0 139 -37 246.5t-100.5 181.5t-150 112.5t-185.5 38.5t-184.5 -38t-148.5 -111t-99.5 -180.5t-36.5 -245.5zM420 1647q0 23 8.5 42.5t23 34t34 23t42.5 8.5t42.5 -7.5t33.5 -21.5t21.5 -33t7.5 -42t-8 -43t-22.5 -34.5 t-34 -23t-42.5 -8.5t-42.5 7.5t-33.5 21.5t-22 33.5t-8 42.5zM837 1647q0 23 8.5 42.5t23 34t34.5 23t43 8.5t42 -7.5t33 -21.5t21.5 -33t7.5 -42t-8 -43t-22 -34.5t-33.5 -23t-42.5 -8.5t-43 7.5t-34 21.5t-22 33.5t-8 42.5z" />
<glyph unicode="&#xd7;" d="M191 906q0 13 5.5 25t15 21.5t21.5 15t26 5.5q13 0 22.5 -5t19.5 -15l285 -286l282 283q11 11 21 16.5t23 5.5t24.5 -5.5t20.5 -14.5t14 -20.5t5 -23.5q0 -13 -7 -24.5t-18 -22.5l-279 -279l282 -282q11 -11 17 -21t6 -25q0 -13 -5.5 -25t-15 -21.5t-22 -15t-25.5 -5.5 t-22.5 5t-19.5 15l-285 286l-282 -283q-11 -11 -21 -16.5t-23 -5.5t-24.5 5.5t-20.5 14.5t-14 20.5t-5 23.5q0 13 7 24.5t18 22.5l279 279l-282 282q-11 11 -17 21t-6 25z" />
<glyph unicode="&#xd8;" horiz-adv-x="1502" d="M112 671q0 172 48 307t134 228t205.5 142t263.5 49q76 0 145 -14t129 -40l90 163q15 27 21 36.5t12 15.5q14 14 38 14q13 0 26 -5t23.5 -13.5t17.5 -20.5t7 -26q0 -12 -6 -24.5t-21 -39.5l-93 -169q56 -44 100.5 -102t75 -129t46.5 -155t16 -180q0 -172 -48 -307 t-134 -228t-205.5 -142t-263.5 -49q-85 0 -154 16t-119 39l-91 -165q-15 -27 -21 -36.5t-12 -15.5q-14 -14 -38 -14q-13 0 -26 5t-23.5 13.5t-17.5 20.5t-7 26q0 12 6 24.5t21 39.5l93 169q-54 43 -98 99.5t-75 127t-48 155t-17 185.5zM268 691q0 -151 42.5 -263t117.5 -187 l540 974q-38 20 -94 35.5t-125 15.5q-103 0 -191 -38t-152.5 -111t-101 -180.5t-36.5 -245.5zM534 164q50 -26 105.5 -38.5t113.5 -12.5q103 0 191 38t152.5 111t101 180t36.5 245q0 134 -37 248.5t-123 202.5z" />
<glyph unicode="&#xd9;" horiz-adv-x="1419" d="M191 541v776q0 32 19 49.5t57 17.5t57 -17.5t19 -49.5v-752q0 -120 27.5 -205.5t76.5 -140t117.5 -80.5t151.5 -26q78 0 144 25.5t114 78t75 133t27 191.5v776q0 32 19 49.5t57 17.5t57 -17.5t19 -49.5v-752q0 -148 -37.5 -257.5t-106.5 -182t-166 -108t-216 -35.5 q-121 0 -216 34.5t-160.5 104t-100 174.5t-34.5 246zM414 1733q0 15 7 31t18.5 28.5t26.5 21t32 8.5q14 0 24.5 -5.5t21.5 -16.5l217 -205q14 -13 19 -22.5t5 -20.5t-4.5 -21t-12 -18t-18.5 -13t-23 -5q-11 0 -19.5 3.5t-19.5 11.5l-241 172q-15 11 -24 22.5t-9 28.5z" />
<glyph unicode="&#xda;" horiz-adv-x="1419" d="M191 541v776q0 32 19 49.5t57 17.5t57 -17.5t19 -49.5v-752q0 -120 27.5 -205.5t76.5 -140t117.5 -80.5t151.5 -26q78 0 144 25.5t114 78t75 133t27 191.5v776q0 32 19 49.5t57 17.5t57 -17.5t19 -49.5v-752q0 -148 -37.5 -257.5t-106.5 -182t-166 -108t-216 -35.5 q-121 0 -216 34.5t-160.5 104t-100 174.5t-34.5 246zM627 1552q0 11 5 20.5t19 22.5l217 205q11 11 21.5 16.5t24.5 5.5q17 0 32 -8.5t26.5 -21t18.5 -28.5t7 -31q0 -17 -9 -28.5t-24 -22.5l-241 -172q-11 -8 -19.5 -11.5t-19.5 -3.5q-12 0 -23 5t-18.5 13t-12 18t-4.5 21z " />
<glyph unicode="&#xdb;" horiz-adv-x="1419" d="M191 541v776q0 32 19 49.5t57 17.5t57 -17.5t19 -49.5v-752q0 -120 27.5 -205.5t76.5 -140t117.5 -80.5t151.5 -26q78 0 144 25.5t114 78t75 133t27 191.5v776q0 32 19 49.5t57 17.5t57 -17.5t19 -49.5v-752q0 -148 -37.5 -257.5t-106.5 -182t-166 -108t-216 -35.5 q-121 0 -216 34.5t-160.5 104t-100 174.5t-34.5 246zM430 1551q0 10 4.5 19t18.5 23l189 181q20 19 37.5 29t40.5 10t40.5 -10t36.5 -29l184 -183q11 -11 14.5 -19t3.5 -17q0 -11 -4.5 -21t-12 -17.5t-18 -11.5t-21.5 -4q-10 0 -19 3.5t-22 13.5l-191 143l-189 -144 q-13 -10 -21 -14t-19 -4q-10 0 -19 4t-16.5 11.5t-12 16.5t-4.5 20z" />
<glyph unicode="&#xdc;" horiz-adv-x="1419" d="M191 541v776q0 32 19 49.5t57 17.5t57 -17.5t19 -49.5v-752q0 -120 27.5 -205.5t76.5 -140t117.5 -80.5t151.5 -26q78 0 144 25.5t114 78t75 133t27 191.5v776q0 32 19 49.5t57 17.5t57 -17.5t19 -49.5v-752q0 -148 -37.5 -257.5t-106.5 -182t-166 -108t-216 -35.5 q-121 0 -216 34.5t-160.5 104t-100 174.5t-34.5 246zM400 1647q0 23 8.5 42.5t23 34t34 23t42.5 8.5t42.5 -7.5t33.5 -21.5t21.5 -33t7.5 -42t-8 -43t-22.5 -34.5t-34 -23t-42.5 -8.5t-42.5 7.5t-33.5 21.5t-22 33.5t-8 42.5zM817 1647q0 23 8.5 42.5t23 34t34.5 23t43 8.5 t42 -7.5t33 -21.5t21.5 -33t7.5 -42t-8 -43t-22 -34.5t-33.5 -23t-42.5 -8.5t-43 7.5t-34 21.5t-22 33.5t-8 42.5z" />
<glyph unicode="&#xdd;" horiz-adv-x="1094" d="M42 1312q0 16 8 30t20 24t27 15.5t30 5.5q14 0 24.5 -4.5t18.5 -12.5q6 -6 13 -16t24 -39l286 -486l22 -41l19 -35q10 -18 18 -34h4q8 17 18 35q8 16 19 37l25 43l273 479q17 30 23.5 40t12.5 16q9 9 20 13.5t24 4.5q15 0 29.5 -5.5t26 -15.5t18.5 -23.5t7 -29.5 q0 -15 -7.5 -30t-25.5 -44l-397 -649v-529q0 -32 -19 -49.5t-57 -17.5t-57 17.5t-19 49.5v529l-395 647l-16 25q-6 11 -9.5 19t-5.5 15.5t-2 15.5zM461 1552q0 11 5 20.5t19 22.5l217 205q11 11 21.5 16.5t24.5 5.5q17 0 32 -8.5t26.5 -21t18.5 -28.5t7 -31q0 -17 -9 -28.5 t-24 -22.5l-241 -172q-11 -8 -19.5 -11.5t-19.5 -3.5q-12 0 -23 5t-18.5 13t-12 18t-4.5 21z" />
<glyph unicode="&#xde;" horiz-adv-x="1095" d="M204 61v1256q0 32 19 49.5t57 17.5q19 0 33.5 -4.5t24 -13t14 -21t4.5 -28.5v-203h192q121 0 210.5 -27t147.5 -77.5t86.5 -122.5t28.5 -162q0 -95 -33 -174t-96 -136t-156 -89t-213 -32h-167v-233q0 -16 -4.5 -28.5t-14 -21t-24 -13t-33.5 -4.5q-38 0 -57 17.5t-19 49.5 zM356 423h180q163 0 245.5 77t82.5 209q0 131 -78.5 203t-249.5 72h-180v-561z" />
<glyph unicode="&#xdf;" horiz-adv-x="1175" d="M184 61v1017q0 98 28.5 175.5t83.5 131t135.5 82t184.5 28.5q79 0 140.5 -20.5t102.5 -56.5t62.5 -86t21.5 -108q0 -62 -19 -108.5t-47.5 -83.5t-62 -67.5t-62 -59.5t-47.5 -58.5t-19 -65.5q0 -41 18 -70t48 -52t68 -42l78 -39q40 -20 78 -44t68 -57t48 -77t18 -105 q0 -66 -24.5 -123.5t-71 -99.5t-113 -66t-150.5 -24q-49 0 -86 5t-63.5 13t-44 18t-27.5 20t-16 22t-6 30q0 13 4.5 24t12 18.5t18 11.5t22.5 4q15 0 31 -7l38 -15q22 -8 53.5 -14.5t79.5 -6.5q94 0 144.5 48t50.5 125q0 43 -18 74t-48 54.5t-68 43.5l-78 39q-40 20 -78 43 t-68 55t-48 75t-18 102q0 55 19 97.5t47.5 76.5t62 63.5t62 59.5t47.5 64t19 77q0 78 -50.5 123t-161.5 45q-116 0 -183.5 -70t-67.5 -203v-1036q0 -32 -18.5 -49.5t-55.5 -17.5t-55.5 17.5t-18.5 49.5z" />
<glyph unicode="&#xe0;" horiz-adv-x="1053" d="M109 260q0 65 27.5 114.5t79.5 83t126.5 50.5t169.5 17q52 0 93 -3.5t69 -8.5q33 -5 57 -12v138q0 68 -14 116.5t-44 79t-77.5 44.5t-114.5 14q-59 0 -102 -9.5t-74 -21t-52 -21t-37 -9.5q-25 0 -39.5 15t-14.5 41q0 13 4.5 23.5t14.5 20.5q13 13 43.5 28t74.5 28.5 t98.5 22.5t114.5 9q184 0 275.5 -88t91.5 -254v-387q0 -65 3 -106t7 -66.5t7 -40t3 -27.5t-4.5 -24t-13 -18.5t-20 -12t-25.5 -4.5q-20 0 -35.5 9t-26.5 25.5t-18.5 41t-12.5 54.5h-3q-33 -39 -78 -70q-38 -26 -94.5 -48t-129.5 -22q-78 0 -139.5 21t-103.5 58.5t-64 88.5 t-22 110zM262 268q0 -35 13.5 -64.5t39 -52t63.5 -35t87 -12.5q63 0 112 23t84 51q40 33 70 74v135q-25 7 -57 12q-27 5 -63.5 9t-80.5 4q-137 0 -202.5 -36.5t-65.5 -107.5zM293 1432q0 18 8.5 33t22 26.5t30 18t31.5 6.5q8 0 15 -2t12.5 -6t11 -10t10.5 -13l166 -243 q5 -8 10 -17t5 -19q0 -11 -4.5 -21.5t-13 -18t-19 -12t-22.5 -4.5q-13 0 -24 6.5t-22 19.5l-196 214q-4 4 -7.5 8.5t-6.5 10t-5 11t-2 12.5z" />
<glyph unicode="&#xe1;" horiz-adv-x="1053" d="M109 260q0 65 27.5 114.5t79.5 83t126.5 50.5t169.5 17q52 0 93 -3.5t69 -8.5q33 -5 57 -12v138q0 68 -14 116.5t-44 79t-77.5 44.5t-114.5 14q-59 0 -102 -9.5t-74 -21t-52 -21t-37 -9.5q-25 0 -39.5 15t-14.5 41q0 13 4.5 23.5t14.5 20.5q13 13 43.5 28t74.5 28.5 t98.5 22.5t114.5 9q184 0 275.5 -88t91.5 -254v-387q0 -65 3 -106t7 -66.5t7 -40t3 -27.5t-4.5 -24t-13 -18.5t-20 -12t-25.5 -4.5q-20 0 -35.5 9t-26.5 25.5t-18.5 41t-12.5 54.5h-3q-33 -39 -78 -70q-38 -26 -94.5 -48t-129.5 -22q-78 0 -139.5 21t-103.5 58.5t-64 88.5 t-22 110zM262 268q0 -35 13.5 -64.5t39 -52t63.5 -35t87 -12.5q63 0 112 23t84 51q40 33 70 74v135q-25 7 -57 12q-27 5 -63.5 9t-80.5 4q-137 0 -202.5 -36.5t-65.5 -107.5zM440 1206q0 10 5 19t10 17l166 243q10 15 21 23t28 8q15 0 31 -6.5t29.5 -18t22.5 -26.5t9 -33 q0 -7 -2 -12.5t-5 -11t-6.5 -10t-7.5 -8.5l-196 -214q-11 -13 -22 -19.5t-24 -6.5q-12 0 -22.5 4.5t-19 12t-13 18t-4.5 21.5z" />
<glyph unicode="&#xe2;" horiz-adv-x="1053" d="M109 260q0 65 27.5 114.5t79.5 83t126.5 50.5t169.5 17q52 0 93 -3.5t69 -8.5q33 -5 57 -12v138q0 68 -14 116.5t-44 79t-77.5 44.5t-114.5 14q-59 0 -102 -9.5t-74 -21t-52 -21t-37 -9.5q-25 0 -39.5 15t-14.5 41q0 13 4.5 23.5t14.5 20.5q13 13 43.5 28t74.5 28.5 t98.5 22.5t114.5 9q184 0 275.5 -88t91.5 -254v-387q0 -65 3 -106t7 -66.5t7 -40t3 -27.5t-4.5 -24t-13 -18.5t-20 -12t-25.5 -4.5q-20 0 -35.5 9t-26.5 25.5t-18.5 41t-12.5 54.5h-3q-33 -39 -78 -70q-38 -26 -94.5 -48t-129.5 -22q-78 0 -139.5 21t-103.5 58.5t-64 88.5 t-22 110zM241 1209q0 11 5.5 19.5t13.5 17.5l189 209q17 20 34.5 30t39.5 10t39 -10t34 -29l181 -207q8 -10 13.5 -18.5t5.5 -19.5t-4.5 -21t-12.5 -17.5t-18.5 -11.5t-21.5 -4t-20.5 4.5t-21.5 15.5l-183 163l-182 -165q-11 -10 -19 -14t-19 -4q-10 0 -19.5 4t-17 11.5 t-12 16.5t-4.5 20zM262 268q0 -35 13.5 -64.5t39 -52t63.5 -35t87 -12.5q63 0 112 23t84 51q40 33 70 74v135q-25 7 -57 12q-27 5 -63.5 9t-80.5 4q-137 0 -202.5 -36.5t-65.5 -107.5z" />
<glyph unicode="&#xe3;" horiz-adv-x="1053" d="M109 260q0 65 27.5 114.5t79.5 83t126.5 50.5t169.5 17q52 0 93 -3.5t69 -8.5q33 -5 57 -12v138q0 68 -14 116.5t-44 79t-77.5 44.5t-114.5 14q-59 0 -102 -9.5t-74 -21t-52 -21t-37 -9.5q-25 0 -39.5 15t-14.5 41q0 13 4.5 23.5t14.5 20.5q13 13 43.5 28t74.5 28.5 t98.5 22.5t114.5 9q184 0 275.5 -88t91.5 -254v-387q0 -65 3 -106t7 -66.5t7 -40t3 -27.5t-4.5 -24t-13 -18.5t-20 -12t-25.5 -4.5q-20 0 -35.5 9t-26.5 25.5t-18.5 41t-12.5 54.5h-3q-33 -39 -78 -70q-38 -26 -94.5 -48t-129.5 -22q-78 0 -139.5 21t-103.5 58.5t-64 88.5 t-22 110zM181 1270q0 23 15 51.5t42 53t65 41.5t85 17q49 0 86.5 -16.5t68.5 -37t58.5 -37t56.5 -16.5q33 0 52.5 13.5t34 29.5t28.5 29.5t37 13.5q10 0 18.5 -3.5t15 -9.5t10 -14.5t3.5 -19.5q0 -23 -15 -51.5t-42 -53.5t-65.5 -41.5t-84.5 -16.5q-50 0 -87 16.5t-68 37 t-58.5 37t-56.5 16.5q-33 0 -52.5 -13.5t-34 -29.5t-28.5 -29.5t-37 -13.5q-10 0 -18.5 3.5t-15 9.5t-10 14.5t-3.5 19.5zM262 268q0 -35 13.5 -64.5t39 -52t63.5 -35t87 -12.5q63 0 112 23t84 51q40 33 70 74v135q-25 7 -57 12q-27 5 -63.5 9t-80.5 4q-137 0 -202.5 -36.5 t-65.5 -107.5z" />
<glyph unicode="&#xe4;" horiz-adv-x="1053" d="M109 260q0 65 27.5 114.5t79.5 83t126.5 50.5t169.5 17q52 0 93 -3.5t69 -8.5q33 -5 57 -12v138q0 68 -14 116.5t-44 79t-77.5 44.5t-114.5 14q-59 0 -102 -9.5t-74 -21t-52 -21t-37 -9.5q-25 0 -39.5 15t-14.5 41q0 13 4.5 23.5t14.5 20.5q13 13 43.5 28t74.5 28.5 t98.5 22.5t114.5 9q184 0 275.5 -88t91.5 -254v-387q0 -65 3 -106t7 -66.5t7 -40t3 -27.5t-4.5 -24t-13 -18.5t-20 -12t-25.5 -4.5q-20 0 -35.5 9t-26.5 25.5t-18.5 41t-12.5 54.5h-3q-33 -39 -78 -70q-38 -26 -94.5 -48t-129.5 -22q-78 0 -139.5 21t-103.5 58.5t-64 88.5 t-22 110zM210 1319q0 23 8.5 42.5t23 34t34 23t42.5 8.5t42.5 -7.5t33.5 -21.5t21.5 -33t7.5 -42t-8 -43t-22.5 -34.5t-34 -23t-42.5 -8.5t-42.5 7.5t-33.5 21.5t-22 33.5t-8 42.5zM262 268q0 -35 13.5 -64.5t39 -52t63.5 -35t87 -12.5q63 0 112 23t84 51q40 33 70 74v135 q-25 7 -57 12q-27 5 -63.5 9t-80.5 4q-137 0 -202.5 -36.5t-65.5 -107.5zM599 1319q0 23 8.5 42.5t23 34t34.5 23t43 8.5t42 -7.5t33 -21.5t21.5 -33t7.5 -42t-8 -43t-22 -34.5t-33.5 -23t-42.5 -8.5t-43 7.5t-34 21.5t-22 33.5t-8 42.5z" />
<glyph unicode="&#xe5;" horiz-adv-x="1053" d="M109 260q0 65 27.5 114.5t79.5 83t126.5 50.5t169.5 17q52 0 93 -3.5t69 -8.5q33 -5 57 -12v138q0 68 -14 116.5t-44 79t-77.5 44.5t-114.5 14q-59 0 -102 -9.5t-74 -21t-52 -21t-37 -9.5q-25 0 -39.5 15t-14.5 41q0 13 4.5 23.5t14.5 20.5q13 13 43.5 28t74.5 28.5 t98.5 22.5t114.5 9q184 0 275.5 -88t91.5 -254v-387q0 -65 3 -106t7 -66.5t7 -40t3 -27.5t-4.5 -24t-13 -18.5t-20 -12t-25.5 -4.5q-20 0 -35.5 9t-26.5 25.5t-18.5 41t-12.5 54.5h-3q-33 -39 -78 -70q-38 -26 -94.5 -48t-129.5 -22q-78 0 -139.5 21t-103.5 58.5t-64 88.5 t-22 110zM262 268q0 -35 13.5 -64.5t39 -52t63.5 -35t87 -12.5q63 0 112 23t84 51q40 33 70 74v135q-25 7 -57 12q-27 5 -63.5 9t-80.5 4q-137 0 -202.5 -36.5t-65.5 -107.5zM283 1339q0 47 17.5 88t49.5 71t76 47.5t97 17.5t96 -16t73 -45t46.5 -68.5t16.5 -85.5 q0 -47 -17.5 -88t-49.5 -71t-76 -47.5t-97 -17.5t-96 16t-73 45t-46.5 68t-16.5 86zM386 1343q0 -62 36 -98t97 -36t97 36t36 99q0 62 -36 98t-97 36t-97 -36t-36 -99z" />
<glyph unicode="&#xe6;" horiz-adv-x="1675" d="M109 260q0 65 27.5 114.5t79.5 83t126.5 50.5t169.5 17q51 0 90 -3.5t67 -8.5q33 -5 57 -12v138q0 67 -14 115.5t-43.5 79t-76 45t-111.5 14.5q-59 0 -102 -9.5t-74 -21t-52 -21t-37 -9.5q-25 0 -39.5 15t-14.5 41q0 13 4.5 23.5t14.5 20.5q13 13 43.5 28t74.5 28.5 t98.5 22.5t114.5 9q73 0 127.5 -14t93 -37.5t63 -55t38.5 -66.5q24 37 58 69t77.5 55.5t96 37t114.5 13.5q84 0 154 -29t121 -84t79.5 -134t28.5 -179q0 -49 -23 -74t-71 -25h-598v-10q0 -89 25 -159t70.5 -119t109 -74.5t139.5 -25.5q60 0 101 8.5t70 18t49 18t37 8.5 q12 0 21 -4t15.5 -10.5t10 -16t3.5 -19.5q0 -14 -5.5 -25.5t-17.5 -23.5t-38 -26t-65 -26t-90.5 -20.5t-113.5 -8.5q-66 0 -122.5 12.5t-104 35.5t-85 55t-65.5 70l-25 -27q-24 -27 -71 -59.5t-116.5 -59.5t-159.5 -27q-80 0 -142.5 21t-105 58.5t-64.5 88.5t-22 110z M262 268q0 -35 13.5 -64.5t39.5 -52t65 -35t90 -12.5q69 0 122.5 23t91.5 51q44 33 77 74q-8 16 -14 37q-6 18 -11.5 42.5t-9.5 55.5q-25 7 -56 12q-26 5 -62 9t-78 4q-137 0 -202.5 -36.5t-65.5 -107.5zM880 610h542q-14 149 -80.5 220t-181.5 71q-49 0 -94 -18t-82 -54 t-64 -90.5t-40 -128.5z" />
<glyph unicode="&#xe7;" horiz-adv-x="916" d="M104 465q0 130 37 233.5t104 175.5t159 110t202 38q45 0 81 -6t62.5 -15.5t44.5 -20t27 -19.5q11 -11 16 -23t5 -29q0 -11 -4 -21t-11.5 -17.5t-18 -12t-24.5 -4.5q-15 0 -31 6l-39 15q-22 9 -53 15.5t-75 6.5q-70 0 -130 -26.5t-104.5 -78.5t-70 -128.5t-25.5 -176.5 q0 -90 25 -160t70 -118.5t108 -74t139 -25.5q45 0 76.5 6t53.5 13.5t37.5 13.5t30.5 6q11 0 20.5 -3.5t16 -10t10 -16t3.5 -20.5q0 -14 -6 -26t-17 -23q-13 -13 -36.5 -25t-56.5 -21.5t-74 -15t-89 -5.5l-24 -93q36 -4 66 -16.5t51 -33t33 -49.5t12 -66q0 -45 -18 -84 t-53 -68.5t-86 -46.5t-117 -17q-32 0 -54 5.5t-35.5 14.5t-19 20.5t-5.5 23.5q0 20 12 33.5t37 13.5q12 0 25.5 -1t25.5 -1q40 0 67.5 7t44.5 19.5t24.5 29.5t7.5 36q0 35 -22 54.5t-72 19.5h-8q-23 0 -33.5 14.5t-3.5 42.5l38 153q-81 16 -147 57t-112.5 101.5t-71.5 140 t-25 173.5z" />
<glyph unicode="&#xe8;" horiz-adv-x="1058" d="M104 469q0 133 35 236.5t96.5 173.5t145.5 106.5t182 36.5q84 0 154 -29t121 -84t79.5 -134t28.5 -179q0 -49 -23 -74t-71 -25h-598v-10q0 -89 25 -159t70.5 -119t109 -74.5t139.5 -25.5q60 0 101 8.5t70 18t49 18t37 8.5q12 0 21 -4t15.5 -10.5t10 -16t3.5 -19.5 q0 -14 -5.5 -25.5t-17.5 -23.5t-38 -26t-65 -26t-90.5 -20.5t-113.5 -8.5q-106 0 -193 34t-148.5 97.5t-95.5 153.5t-34 202zM263 610h542q-14 149 -80.5 220t-181.5 71q-49 0 -94 -18t-82 -54t-64 -90.5t-40 -128.5zM304 1432q0 18 8.5 33t22 26.5t30 18t31.5 6.5 q8 0 15 -2t12.5 -6t11 -10t10.5 -13l166 -243q5 -8 10 -17t5 -19q0 -11 -4.5 -21.5t-13 -18t-19 -12t-22.5 -4.5q-13 0 -24 6.5t-22 19.5l-196 214q-4 4 -7.5 8.5t-6.5 10t-5 11t-2 12.5z" />
<glyph unicode="&#xe9;" horiz-adv-x="1058" d="M104 469q0 133 35 236.5t96.5 173.5t145.5 106.5t182 36.5q84 0 154 -29t121 -84t79.5 -134t28.5 -179q0 -49 -23 -74t-71 -25h-598v-10q0 -89 25 -159t70.5 -119t109 -74.5t139.5 -25.5q60 0 101 8.5t70 18t49 18t37 8.5q12 0 21 -4t15.5 -10.5t10 -16t3.5 -19.5 q0 -14 -5.5 -25.5t-17.5 -23.5t-38 -26t-65 -26t-90.5 -20.5t-113.5 -8.5q-106 0 -193 34t-148.5 97.5t-95.5 153.5t-34 202zM263 610h542q-14 149 -80.5 220t-181.5 71q-49 0 -94 -18t-82 -54t-64 -90.5t-40 -128.5zM440 1206q0 10 5 19t10 17l166 243q10 15 21 23t28 8 q15 0 31 -6.5t29.5 -18t22.5 -26.5t9 -33q0 -7 -2 -12.5t-5 -11t-6.5 -10t-7.5 -8.5l-196 -214q-11 -13 -22 -19.5t-24 -6.5q-12 0 -22.5 4.5t-19 12t-13 18t-4.5 21.5z" />
<glyph unicode="&#xea;" horiz-adv-x="1058" d="M104 469q0 133 35 236.5t96.5 173.5t145.5 106.5t182 36.5q84 0 154 -29t121 -84t79.5 -134t28.5 -179q0 -49 -23 -74t-71 -25h-598v-10q0 -89 25 -159t70.5 -119t109 -74.5t139.5 -25.5q60 0 101 8.5t70 18t49 18t37 8.5q12 0 21 -4t15.5 -10.5t10 -16t3.5 -19.5 q0 -14 -5.5 -25.5t-17.5 -23.5t-38 -26t-65 -26t-90.5 -20.5t-113.5 -8.5q-106 0 -193 34t-148.5 97.5t-95.5 153.5t-34 202zM261 1209q0 11 5.5 19.5t13.5 17.5l189 209q17 20 34.5 30t39.5 10t39 -10t34 -29l181 -207q8 -10 13.5 -18.5t5.5 -19.5t-4.5 -21t-12.5 -17.5 t-18.5 -11.5t-21.5 -4t-20.5 4.5t-21.5 15.5l-183 163l-182 -165q-11 -10 -19 -14t-19 -4q-10 0 -19.5 4t-17 11.5t-12 16.5t-4.5 20zM263 610h542q-14 149 -80.5 220t-181.5 71q-49 0 -94 -18t-82 -54t-64 -90.5t-40 -128.5z" />
<glyph unicode="&#xeb;" horiz-adv-x="1058" d="M104 469q0 133 35 236.5t96.5 173.5t145.5 106.5t182 36.5q84 0 154 -29t121 -84t79.5 -134t28.5 -179q0 -49 -23 -74t-71 -25h-598v-10q0 -89 25 -159t70.5 -119t109 -74.5t139.5 -25.5q60 0 101 8.5t70 18t49 18t37 8.5q12 0 21 -4t15.5 -10.5t10 -16t3.5 -19.5 q0 -14 -5.5 -25.5t-17.5 -23.5t-38 -26t-65 -26t-90.5 -20.5t-113.5 -8.5q-106 0 -193 34t-148.5 97.5t-95.5 153.5t-34 202zM236 1319q0 23 8.5 42.5t23 34t34 23t42.5 8.5t42.5 -7.5t33.5 -21.5t21.5 -33t7.5 -42t-8 -43t-22.5 -34.5t-34 -23t-42.5 -8.5t-42.5 7.5 t-33.5 21.5t-22 33.5t-8 42.5zM263 610h542q-14 149 -80.5 220t-181.5 71q-49 0 -94 -18t-82 -54t-64 -90.5t-40 -128.5zM625 1319q0 23 8.5 42.5t23 34t34.5 23t43 8.5t42 -7.5t33 -21.5t21.5 -33t7.5 -42t-8 -43t-22 -34.5t-33.5 -23t-42.5 -8.5t-43 7.5t-34 21.5 t-22 33.5t-8 42.5z" />
<glyph unicode="&#xec;" horiz-adv-x="516" d="M58 1432q0 18 8.5 33t22 26.5t30 18t31.5 6.5q8 0 15 -2t12.5 -6t11 -10t10.5 -13l166 -243q5 -8 10 -17t5 -19q0 -11 -4.5 -21.5t-13 -18t-19 -12t-22.5 -4.5q-13 0 -24 6.5t-22 19.5l-196 214q-4 4 -7.5 8.5t-6.5 10t-5 11t-2 12.5zM184 61v882q0 32 18.5 49.5 t55.5 17.5t55.5 -17.5t18.5 -49.5v-882q0 -32 -18.5 -49.5t-55.5 -17.5t-55.5 17.5t-18.5 49.5z" />
<glyph unicode="&#xed;" horiz-adv-x="516" d="M128 1206q0 10 5 19t10 17l166 243q10 15 21 23t28 8q15 0 31 -6.5t29.5 -18t22.5 -26.5t9 -33q0 -7 -2 -12.5t-5 -11t-6.5 -10t-7.5 -8.5l-196 -214q-11 -13 -22 -19.5t-24 -6.5q-12 0 -22.5 4.5t-19 12t-13 18t-4.5 21.5zM184 61v882q0 32 18.5 49.5t55.5 17.5 t55.5 -17.5t18.5 -49.5v-882q0 -32 -18.5 -49.5t-55.5 -17.5t-55.5 17.5t-18.5 49.5z" />
<glyph unicode="&#xee;" horiz-adv-x="516" d="M2 1207q0 12 6.5 22.5t15.5 21.5l166 205q15 19 32 29t42 10q12 0 22.5 -2.5t19.5 -7.5t16.5 -12t14.5 -16l161 -207q9 -11 14.5 -20.5t5.5 -19.5q0 -11 -4.5 -20.5t-12.5 -17t-18.5 -11.5t-21.5 -4q-13 0 -23.5 6t-24.5 20l-158 157l-154 -156q-14 -14 -23.5 -20.5 t-23.5 -6.5q-11 0 -20 4t-16.5 11t-11.5 16t-4 19zM184 61v882q0 32 18.5 49.5t55.5 17.5t55.5 -17.5t18.5 -49.5v-882q0 -32 -18.5 -49.5t-55.5 -17.5t-55.5 17.5t-18.5 49.5z" />
<glyph unicode="&#xef;" horiz-adv-x="516" d="M-28 1319q0 23 8.5 42.5t23 34t34 23t42.5 8.5t42.5 -7.5t33.5 -21.5t21.5 -33t7.5 -42t-8 -43t-22.5 -34.5t-34 -23t-42.5 -8.5t-42.5 7.5t-33.5 21.5t-22 33.5t-8 42.5zM184 61v882q0 32 18.5 49.5t55.5 17.5t55.5 -17.5t18.5 -49.5v-882q0 -32 -18.5 -49.5 t-55.5 -17.5t-55.5 17.5t-18.5 49.5zM333 1319q0 23 8.5 42.5t23 34t34.5 23t43 8.5t42 -7.5t33 -21.5t21.5 -33t7.5 -42t-8 -43t-22 -34.5t-33.5 -23t-42.5 -8.5t-43 7.5t-34 21.5t-22 33.5t-8 42.5z" />
<glyph unicode="&#xf0;" horiz-adv-x="1139" d="M104 478q0 85 16.5 158.5t48 134t76 107t101.5 79t125 49t145 16.5q43 0 75.5 -5t55.5 -10q26 -6 46 -14q-33 69 -79 131.5t-102 108.5l-149 -118q-19 -15 -38 -15q-12 0 -23 5t-19.5 14t-13.5 20.5t-5 24.5q0 14 6.5 25t21.5 23l120 94q-36 21 -64 33.5t-49 20.5l-36 14 q-14 5 -23 14q-7 7 -10.5 16.5t-3.5 20.5q0 14 4.5 25.5t13.5 20t22 13.5t29 5q19 0 47 -7.5t60.5 -20t65.5 -29t61 -34.5l143 113q19 15 38 15q12 0 23 -5t19.5 -14t13.5 -20.5t5 -24.5q0 -14 -6.5 -25t-21.5 -23l-115 -90q71 -62 127 -139t95 -168.5t59.5 -195 t20.5 -217.5q0 -160 -35 -277t-98 -193.5t-151 -114t-194 -37.5q-99 0 -181.5 33.5t-142 97t-92 156t-32.5 209.5zM256 499q0 -98 23 -171.5t64.5 -122.5t98.5 -73.5t125 -24.5q66 0 123.5 26.5t100 83t67 144.5t24.5 210q0 72 -8.5 138t-23.5 128q-26 17 -63 30 q-32 11 -78 20.5t-107 9.5q-76 0 -139.5 -26.5t-109.5 -77t-71.5 -124.5t-25.5 -170z" />
<glyph unicode="&#xf1;" horiz-adv-x="1190" d="M184 61v889q0 29 16.5 45.5t45.5 16.5q15 0 26.5 -4.5t19.5 -13.5t13 -23t8 -33l10 -76h3q30 45 76 80q19 15 44 29.5t55 25.5t65.5 18t76.5 7q87 0 156 -26t117.5 -78t74 -128.5t25.5 -177.5v-551q0 -32 -18.5 -49.5t-55.5 -17.5t-55.5 17.5t-18.5 49.5v527 q0 81 -17 139t-50 96t-80.5 56t-108.5 18q-35 0 -65.5 -8t-57 -20.5t-48 -29t-39.5 -33.5q-41 -40 -70 -91v-654q0 -32 -18.5 -49.5t-55.5 -17.5t-55.5 17.5t-18.5 49.5zM260 1270q0 23 15 51.5t42 53t65 41.5t85 17q49 0 86.5 -16.5t68.5 -37t58.5 -37t56.5 -16.5 q33 0 52.5 13.5t34 29.5t28.5 29.5t37 13.5q10 0 18.5 -3.5t15 -9.5t10 -14.5t3.5 -19.5q0 -23 -15 -51.5t-42 -53.5t-65.5 -41.5t-84.5 -16.5q-50 0 -87 16.5t-68 37t-58.5 37t-56.5 16.5q-33 0 -52.5 -13.5t-34 -29.5t-28.5 -29.5t-37 -13.5q-10 0 -18.5 3.5t-15 9.5 t-10 14.5t-3.5 19.5z" />
<glyph unicode="&#xf2;" horiz-adv-x="1163" d="M104 484q0 127 35.5 227t100 169t155 105.5t199.5 36.5q100 0 185 -35.5t147.5 -101.5t97.5 -158.5t35 -206.5q0 -127 -35.5 -227t-100 -169t-155 -105.5t-199.5 -36.5q-100 0 -185 35.5t-147.5 101.5t-97.5 158.5t-35 206.5zM256 504q0 -95 25.5 -168.5t70 -124.5 t104.5 -77.5t128 -26.5q69 0 128.5 25.5t102.5 75.5t67.5 123t24.5 169q0 94 -25.5 168t-70 125t-104 77.5t-127.5 26.5q-70 0 -129 -25.5t-102.5 -75.5t-68 -123t-24.5 -169zM350 1432q0 18 8.5 33t22 26.5t30 18t31.5 6.5q8 0 15 -2t12.5 -6t11 -10t10.5 -13l166 -243 q5 -8 10 -17t5 -19q0 -11 -4.5 -21.5t-13 -18t-19 -12t-22.5 -4.5q-13 0 -24 6.5t-22 19.5l-196 214q-4 4 -7.5 8.5t-6.5 10t-5 11t-2 12.5z" />
<glyph unicode="&#xf3;" horiz-adv-x="1163" d="M104 484q0 127 35.5 227t100 169t155 105.5t199.5 36.5q100 0 185 -35.5t147.5 -101.5t97.5 -158.5t35 -206.5q0 -127 -35.5 -227t-100 -169t-155 -105.5t-199.5 -36.5q-100 0 -185 35.5t-147.5 101.5t-97.5 158.5t-35 206.5zM256 504q0 -95 25.5 -168.5t70 -124.5 t104.5 -77.5t128 -26.5q69 0 128.5 25.5t102.5 75.5t67.5 123t24.5 169q0 94 -25.5 168t-70 125t-104 77.5t-127.5 26.5q-70 0 -129 -25.5t-102.5 -75.5t-68 -123t-24.5 -169zM461 1206q0 10 5 19t10 17l166 243q10 15 21 23t28 8q15 0 31 -6.5t29.5 -18t22.5 -26.5t9 -33 q0 -7 -2 -12.5t-5 -11t-6.5 -10t-7.5 -8.5l-196 -214q-11 -13 -22 -19.5t-24 -6.5q-12 0 -22.5 4.5t-19 12t-13 18t-4.5 21.5z" />
<glyph unicode="&#xf4;" horiz-adv-x="1163" d="M104 484q0 127 35.5 227t100 169t155 105.5t199.5 36.5q100 0 185 -35.5t147.5 -101.5t97.5 -158.5t35 -206.5q0 -127 -35.5 -227t-100 -169t-155 -105.5t-199.5 -36.5q-100 0 -185 35.5t-147.5 101.5t-97.5 158.5t-35 206.5zM256 504q0 -95 25.5 -168.5t70 -124.5 t104.5 -77.5t128 -26.5q69 0 128.5 25.5t102.5 75.5t67.5 123t24.5 169q0 94 -25.5 168t-70 125t-104 77.5t-127.5 26.5q-70 0 -129 -25.5t-102.5 -75.5t-68 -123t-24.5 -169zM305 1209q0 11 5.5 19.5t13.5 17.5l189 209q17 20 34.5 30t39.5 10t39 -10t34 -29l181 -207 q8 -10 13.5 -18.5t5.5 -19.5t-4.5 -21t-12.5 -17.5t-18.5 -11.5t-21.5 -4t-20.5 4.5t-21.5 15.5l-183 163l-182 -165q-11 -10 -19 -14t-19 -4q-10 0 -19.5 4t-17 11.5t-12 16.5t-4.5 20z" />
<glyph unicode="&#xf5;" horiz-adv-x="1163" d="M104 484q0 127 35.5 227t100 169t155 105.5t199.5 36.5q100 0 185 -35.5t147.5 -101.5t97.5 -158.5t35 -206.5q0 -127 -35.5 -227t-100 -169t-155 -105.5t-199.5 -36.5q-100 0 -185 35.5t-147.5 101.5t-97.5 158.5t-35 206.5zM244 1270q0 23 15 51.5t42 53t65 41.5t85 17 q49 0 86.5 -16.5t68.5 -37t58.5 -37t56.5 -16.5q33 0 52.5 13.5t34 29.5t28.5 29.5t37 13.5q10 0 18.5 -3.5t15 -9.5t10 -14.5t3.5 -19.5q0 -23 -15 -51.5t-42 -53.5t-65.5 -41.5t-84.5 -16.5q-50 0 -87 16.5t-68 37t-58.5 37t-56.5 16.5q-33 0 -52.5 -13.5t-34 -29.5 t-28.5 -29.5t-37 -13.5q-10 0 -18.5 3.5t-15 9.5t-10 14.5t-3.5 19.5zM256 504q0 -95 25.5 -168.5t70 -124.5t104.5 -77.5t128 -26.5q69 0 128.5 25.5t102.5 75.5t67.5 123t24.5 169q0 94 -25.5 168t-70 125t-104 77.5t-127.5 26.5q-70 0 -129 -25.5t-102.5 -75.5t-68 -123 t-24.5 -169z" />
<glyph unicode="&#xf6;" horiz-adv-x="1163" d="M104 484q0 127 35.5 227t100 169t155 105.5t199.5 36.5q100 0 185 -35.5t147.5 -101.5t97.5 -158.5t35 -206.5q0 -127 -35.5 -227t-100 -169t-155 -105.5t-199.5 -36.5q-100 0 -185 35.5t-147.5 101.5t-97.5 158.5t-35 206.5zM256 504q0 -95 25.5 -168.5t70 -124.5 t104.5 -77.5t128 -26.5q69 0 128.5 25.5t102.5 75.5t67.5 123t24.5 169q0 94 -25.5 168t-70 125t-104 77.5t-127.5 26.5q-70 0 -129 -25.5t-102.5 -75.5t-68 -123t-24.5 -169zM278 1319q0 23 8.5 42.5t23 34t34 23t42.5 8.5t42.5 -7.5t33.5 -21.5t21.5 -33t7.5 -42t-8 -43 t-22.5 -34.5t-34 -23t-42.5 -8.5t-42.5 7.5t-33.5 21.5t-22 33.5t-8 42.5zM667 1319q0 23 8.5 42.5t23 34t34.5 23t43 8.5t42 -7.5t33 -21.5t21.5 -33t7.5 -42t-8 -43t-22 -34.5t-33.5 -23t-42.5 -8.5t-43 7.5t-34 21.5t-22 33.5t-8 42.5z" />
<glyph unicode="&#xf7;" d="M155 582q0 27 15.5 44t41.5 17h743q26 0 42 -17t16 -44t-16 -44t-42 -17h-743q-26 0 -41.5 17t-15.5 44zM488 277q0 21 7.5 38.5t20 30t30 20t38.5 7.5t38.5 -7.5t30.5 -20t20 -30t7 -38.5t-7 -38.5t-20 -30t-30.5 -20t-38.5 -7.5t-38.5 7.5t-30 20t-20 30t-7.5 38.5z M488 887q0 21 7 38.5t20 30t30.5 20t38.5 7.5t38.5 -7.5t30 -20t20 -30t7.5 -38.5t-7.5 -38.5t-20 -30t-30 -20t-38.5 -7.5t-38.5 7.5t-30.5 20t-20 30t-7 38.5z" />
<glyph unicode="&#xf8;" horiz-adv-x="1163" d="M104 484q0 127 35.5 227t100 169t155 105.5t199.5 36.5q54 0 105.5 -11t93.5 -31l92 154q13 22 26 30.5t31 8.5q13 0 25.5 -5t22.5 -13.5t16 -20t6 -24.5q0 -8 -3 -17t-11 -23l-97 -161q74 -66 116 -164.5t42 -224.5q0 -127 -35.5 -227t-100 -169t-155 -105.5 t-199.5 -36.5q-54 0 -104 10.5t-95 30.5l-90 -150q-13 -22 -26 -30.5t-31 -8.5q-13 0 -25.5 5t-22.5 13.5t-16 20t-6 24.5q0 8 3 17t11 23l94 157q-74 66 -115.5 165t-41.5 225zM256 504q0 -89 22.5 -160.5t61.5 -122.5l384 641q-29 16 -65.5 25.5t-78.5 9.5 q-70 0 -129 -25.5t-102.5 -75.5t-68 -123t-24.5 -169zM439 142q34 -18 70 -26.5t75 -8.5q69 0 128.5 25.5t102.5 75.5t67.5 123t24.5 169q0 89 -22.5 160.5t-61.5 122.5z" />
<glyph unicode="&#xf9;" horiz-adv-x="1182" d="M174 392v551q0 32 18 49.5t56 17.5t56 -17.5t18 -49.5v-527q0 -161 66 -235t182 -74q35 0 65.5 7.5t56.5 20.5t48 29.5t40 33.5q41 40 70 91v654q0 32 18 49.5t56 17.5t56 -17.5t18 -49.5v-889q0 -29 -16.5 -45.5t-45.5 -16.5q-15 0 -26.5 4.5t-19.5 13.5t-13 23t-8 33 l-10 76h-3q-30 -45 -76 -80q-20 -15 -44.5 -29.5t-54.5 -25.5t-65.5 -18t-76.5 -7q-84 0 -151.5 26t-115 78t-73 128.5t-25.5 177.5zM339 1432q0 18 8.5 33t22 26.5t30 18t31.5 6.5q8 0 15 -2t12.5 -6t11 -10t10.5 -13l166 -243q5 -8 10 -17t5 -19q0 -11 -4.5 -21.5t-13 -18 t-19 -12t-22.5 -4.5q-13 0 -24 6.5t-22 19.5l-196 214q-4 4 -7.5 8.5t-6.5 10t-5 11t-2 12.5z" />
<glyph unicode="&#xfa;" horiz-adv-x="1182" d="M174 392v551q0 32 18 49.5t56 17.5t56 -17.5t18 -49.5v-527q0 -161 66 -235t182 -74q35 0 65.5 7.5t56.5 20.5t48 29.5t40 33.5q41 40 70 91v654q0 32 18 49.5t56 17.5t56 -17.5t18 -49.5v-889q0 -29 -16.5 -45.5t-45.5 -16.5q-15 0 -26.5 4.5t-19.5 13.5t-13 23t-8 33 l-10 76h-3q-30 -45 -76 -80q-20 -15 -44.5 -29.5t-54.5 -25.5t-65.5 -18t-76.5 -7q-84 0 -151.5 26t-115 78t-73 128.5t-25.5 177.5zM485 1206q0 10 5 19t10 17l166 243q10 15 21 23t28 8q15 0 31 -6.5t29.5 -18t22.5 -26.5t9 -33q0 -7 -2 -12.5t-5 -11t-6.5 -10t-7.5 -8.5 l-196 -214q-11 -13 -22 -19.5t-24 -6.5q-12 0 -22.5 4.5t-19 12t-13 18t-4.5 21.5z" />
<glyph unicode="&#xfb;" horiz-adv-x="1182" d="M174 392v551q0 32 18 49.5t56 17.5t56 -17.5t18 -49.5v-527q0 -161 66 -235t182 -74q35 0 65.5 7.5t56.5 20.5t48 29.5t40 33.5q41 40 70 91v654q0 32 18 49.5t56 17.5t56 -17.5t18 -49.5v-889q0 -29 -16.5 -45.5t-45.5 -16.5q-15 0 -26.5 4.5t-19.5 13.5t-13 23t-8 33 l-10 76h-3q-30 -45 -76 -80q-20 -15 -44.5 -29.5t-54.5 -25.5t-65.5 -18t-76.5 -7q-84 0 -151.5 26t-115 78t-73 128.5t-25.5 177.5zM314 1209q0 11 5.5 19.5t13.5 17.5l189 209q17 20 34.5 30t39.5 10t39 -10t34 -29l181 -207q8 -10 13.5 -18.5t5.5 -19.5t-4.5 -21 t-12.5 -17.5t-18.5 -11.5t-21.5 -4t-20.5 4.5t-21.5 15.5l-183 163l-182 -165q-11 -10 -19 -14t-19 -4q-10 0 -19.5 4t-17 11.5t-12 16.5t-4.5 20z" />
<glyph unicode="&#xfc;" horiz-adv-x="1182" d="M174 392v551q0 32 18 49.5t56 17.5t56 -17.5t18 -49.5v-527q0 -161 66 -235t182 -74q35 0 65.5 7.5t56.5 20.5t48 29.5t40 33.5q41 40 70 91v654q0 32 18 49.5t56 17.5t56 -17.5t18 -49.5v-889q0 -29 -16.5 -45.5t-45.5 -16.5q-15 0 -26.5 4.5t-19.5 13.5t-13 23t-8 33 l-10 76h-3q-30 -45 -76 -80q-20 -15 -44.5 -29.5t-54.5 -25.5t-65.5 -18t-76.5 -7q-84 0 -151.5 26t-115 78t-73 128.5t-25.5 177.5zM284 1319q0 23 8.5 42.5t23 34t34 23t42.5 8.5t42.5 -7.5t33.5 -21.5t21.5 -33t7.5 -42t-8 -43t-22.5 -34.5t-34 -23t-42.5 -8.5t-42.5 7.5 t-33.5 21.5t-22 33.5t-8 42.5zM673 1319q0 23 8.5 42.5t23 34t34.5 23t43 8.5t42 -7.5t33 -21.5t21.5 -33t7.5 -42t-8 -43t-22 -34.5t-33.5 -23t-42.5 -8.5t-43 7.5t-34 21.5t-22 33.5t-8 42.5z" />
<glyph unicode="&#xfd;" horiz-adv-x="981" d="M-47 -408q0 26 15.5 41t42.5 15q9 0 17 -0.5t16 -1.5t16 -1.5t17 -0.5q52 0 98 24t87.5 70.5t79 114t72.5 154.5l-346 876q-11 28 -14.5 39t-3.5 21q0 17 8 30t20 22t26.5 13.5t27.5 4.5q16 0 26.5 -4.5t18.5 -12.5q7 -7 12.5 -19t16.5 -40l236 -624q13 -35 23 -63 l16 -48q8 -24 13 -41h4q5 17 13 41q6 20 15.5 48t22.5 63l234 629q8 23 13.5 34.5t13.5 19.5t20 12.5t25 4.5t26.5 -4t24.5 -11.5t18 -20t7 -28.5q0 -8 -3 -18.5t-13 -35.5l-327 -827q-63 -158 -124 -264t-124 -169.5t-130 -90.5t-140 -27q-32 0 -58.5 7t-40.5 21 q-18 18 -18 47zM415 1206q0 10 5 19t10 17l166 243q10 15 21 23t28 8q15 0 31 -6.5t29.5 -18t22.5 -26.5t9 -33q0 -7 -2 -12.5t-5 -11t-6.5 -10t-7.5 -8.5l-196 -214q-11 -13 -22 -19.5t-24 -6.5q-12 0 -22.5 4.5t-19 12t-13 18t-4.5 21.5z" />
<glyph unicode="&#xfe;" horiz-adv-x="1153" d="M184 -412v1828q0 32 18.5 49.5t55.5 17.5t55.5 -17.5t18.5 -49.5v-419q0 -33 -1 -63.5t-4 -65.5h3q31 43 77 77q19 14 43.5 28t54 25t64 17.5t74.5 6.5q91 0 165.5 -31t128 -92.5t83 -154t29.5 -216.5q0 -130 -36.5 -231.5t-104 -171.5t-164.5 -106.5t-218 -36.5 q-41 0 -76 4t-61 9q-31 6 -57 14l-3 -1q2 -32 2.5 -66.5t0.5 -70.5v-283q0 -32 -18.5 -49.5t-55.5 -17.5t-55.5 17.5t-18.5 49.5zM332 147q23 -13 55 -23q27 -8 66.5 -15t93.5 -7q78 0 142.5 26.5t110.5 78t71.5 127.5t25.5 176q0 103 -20 176.5t-57 120.5t-90 68.5 t-118 21.5q-35 0 -65.5 -8t-57 -20.5t-48 -29t-39.5 -33.5q-41 -40 -70 -91v-568z" />
<glyph unicode="&#xff;" horiz-adv-x="981" d="M-47 -408q0 26 15.5 41t42.5 15q9 0 17 -0.5t16 -1.5t16 -1.5t17 -0.5q52 0 98 24t87.5 70.5t79 114t72.5 154.5l-346 876q-11 28 -14.5 39t-3.5 21q0 17 8 30t20 22t26.5 13.5t27.5 4.5q16 0 26.5 -4.5t18.5 -12.5q7 -7 12.5 -19t16.5 -40l236 -624q13 -35 23 -63 l16 -48q8 -24 13 -41h4q5 17 13 41q6 20 15.5 48t22.5 63l234 629q8 23 13.5 34.5t13.5 19.5t20 12.5t25 4.5t26.5 -4t24.5 -11.5t18 -20t7 -28.5q0 -8 -3 -18.5t-13 -35.5l-327 -827q-63 -158 -124 -264t-124 -169.5t-130 -90.5t-140 -27q-32 0 -58.5 7t-40.5 21 q-18 18 -18 47zM195 1319q0 23 8.5 42.5t23 34t34 23t42.5 8.5t42.5 -7.5t33.5 -21.5t21.5 -33t7.5 -42t-8 -43t-22.5 -34.5t-34 -23t-42.5 -8.5t-42.5 7.5t-33.5 21.5t-22 33.5t-8 42.5zM584 1319q0 23 8.5 42.5t23 34t34.5 23t43 8.5t42 -7.5t33 -21.5t21.5 -33t7.5 -42 t-8 -43t-22 -34.5t-33.5 -23t-42.5 -8.5t-43 7.5t-34 21.5t-22 33.5t-8 42.5z" />
<glyph unicode="&#x152;" horiz-adv-x="1845" d="M112 671q0 172 48 307t135 228t208 142t268 49q67 0 122 -5t112 -14h681q29 0 45 -16.5t16 -47.5q0 -32 -16 -49t-45 -17h-549v-473h475q29 0 45 -16.5t16 -48.5t-16 -48.5t-45 -16.5h-475v-515h553q29 0 45 -16.5t16 -48.5t-16 -48.5t-45 -16.5h-685q-62 -8 -122.5 -13 t-135.5 -5q-143 0 -260 46.5t-200.5 135t-129 216.5t-45.5 291zM268 691q0 -138 37 -246t103 -181.5t156 -112t197 -38.5q71 0 124.5 7.5t99.5 18.5v1093q-46 16 -101.5 25t-126.5 9q-106 0 -195.5 -38t-155 -111t-102 -180.5t-36.5 -245.5z" />
<glyph unicode="&#x153;" horiz-adv-x="1861" d="M104 484q0 127 35.5 227t100 169t155 105.5t199.5 36.5q72 0 132.5 -17.5t109.5 -47.5t86 -70.5t61 -86.5q26 46 63 86.5t84.5 70.5t106 47.5t129.5 17.5q84 0 154 -29t121 -84t79.5 -134t28.5 -179q0 -49 -23 -74t-71 -25h-598v-10q0 -89 25 -159t70.5 -119t109 -74.5 t139.5 -25.5q60 0 101 8.5t70 18t49 18t37 8.5q12 0 21 -4t15.5 -10.5t10 -16t3.5 -19.5q0 -14 -5.5 -25.5t-17.5 -23.5t-38 -26t-65 -26t-90.5 -20.5t-113.5 -8.5q-73 0 -135 16t-113 44.5t-90 68t-67 87.5q-29 -48 -68.5 -87.5t-89.5 -68t-111.5 -44.5t-134.5 -16 q-100 0 -185 35.5t-147.5 101.5t-97.5 158.5t-35 206.5zM256 504q0 -95 25.5 -168.5t70 -124.5t104.5 -77.5t128 -26.5q69 0 128.5 25.5t102.5 75.5t67.5 123t24.5 169q0 94 -25.5 168t-70 125t-104 77.5t-127.5 26.5q-70 0 -129 -25.5t-102.5 -75.5t-68 -123t-24.5 -169z M1066 610h542q-14 149 -80.5 220t-181.5 71q-49 0 -94 -18t-82 -54t-64 -90.5t-40 -128.5z" />
<glyph unicode="&#x178;" horiz-adv-x="1094" d="M42 1312q0 16 8 30t20 24t27 15.5t30 5.5q14 0 24.5 -4.5t18.5 -12.5q6 -6 13 -16t24 -39l286 -486l22 -41l19 -35q10 -18 18 -34h4q8 17 18 35q8 16 19 37l25 43l273 479q17 30 23.5 40t12.5 16q9 9 20 13.5t24 4.5q15 0 29.5 -5.5t26 -15.5t18.5 -23.5t7 -29.5 q0 -15 -7.5 -30t-25.5 -44l-397 -649v-529q0 -32 -19 -49.5t-57 -17.5t-57 17.5t-19 49.5v529l-395 647l-16 25q-6 11 -9.5 19t-5.5 15.5t-2 15.5zM233 1647q0 23 8.5 42.5t23 34t34 23t42.5 8.5t42.5 -7.5t33.5 -21.5t21.5 -33t7.5 -42t-8 -43t-22.5 -34.5t-34 -23 t-42.5 -8.5t-42.5 7.5t-33.5 21.5t-22 33.5t-8 42.5zM650 1647q0 23 8.5 42.5t23 34t34.5 23t43 8.5t42 -7.5t33 -21.5t21.5 -33t7.5 -42t-8 -43t-22 -34.5t-33.5 -23t-42.5 -8.5t-43 7.5t-34 21.5t-22 33.5t-8 42.5z" />
<glyph unicode="&#x2c6;" horiz-adv-x="1024" d="M235 1209q0 11 5.5 19.5t13.5 17.5l189 209q17 20 34.5 30t39.5 10t39 -10t34 -29l181 -207q8 -10 13.5 -18.5t5.5 -19.5t-4.5 -21t-12.5 -17.5t-18.5 -11.5t-21.5 -4t-20.5 4.5t-21.5 15.5l-183 163l-182 -165q-11 -10 -19 -14t-19 -4q-10 0 -19.5 4t-17 11.5t-12 16.5 t-4.5 20z" />
<glyph unicode="&#x2dc;" horiz-adv-x="1024" d="M171 1270q0 23 15 51.5t42 53t65 41.5t85 17q49 0 86.5 -16.5t68.5 -37t58.5 -37t56.5 -16.5q33 0 52.5 13.5t34 29.5t28.5 29.5t37 13.5q10 0 18.5 -3.5t15 -9.5t10 -14.5t3.5 -19.5q0 -23 -15 -51.5t-42 -53.5t-65.5 -41.5t-84.5 -16.5q-50 0 -87 16.5t-68 37t-58.5 37 t-56.5 16.5q-33 0 -52.5 -13.5t-34 -29.5t-28.5 -29.5t-37 -13.5q-10 0 -18.5 3.5t-15 9.5t-10 14.5t-3.5 19.5z" />
<glyph unicode="&#x2000;" horiz-adv-x="968" />
<glyph unicode="&#x2001;" horiz-adv-x="1937" />
<glyph unicode="&#x2002;" horiz-adv-x="968" />
<glyph unicode="&#x2003;" horiz-adv-x="1937" />
<glyph unicode="&#x2004;" horiz-adv-x="645" />
<glyph unicode="&#x2005;" horiz-adv-x="484" />
<glyph unicode="&#x2006;" horiz-adv-x="322" />
<glyph unicode="&#x2007;" horiz-adv-x="322" />
<glyph unicode="&#x2008;" horiz-adv-x="242" />
<glyph unicode="&#x2009;" horiz-adv-x="387" />
<glyph unicode="&#x200a;" horiz-adv-x="107" />
<glyph unicode="&#x2010;" horiz-adv-x="971" d="M172 535q0 30 15 45.5t42 15.5h512q28 0 43 -15.5t15 -45.5q0 -31 -15 -46.5t-43 -15.5h-512q-27 0 -42 15.5t-15 46.5z" />
<glyph unicode="&#x2011;" horiz-adv-x="971" d="M172 535q0 30 15 45.5t42 15.5h512q28 0 43 -15.5t15 -45.5q0 -31 -15 -46.5t-43 -15.5h-512q-27 0 -42 15.5t-15 46.5z" />
<glyph unicode="&#x2012;" horiz-adv-x="971" d="M172 535q0 30 15 45.5t42 15.5h512q28 0 43 -15.5t15 -45.5q0 -31 -15 -46.5t-43 -15.5h-512q-27 0 -42 15.5t-15 46.5z" />
<glyph unicode="&#x2013;" d="M0 535q0 30 14.5 45.5t42.5 15.5h1054q28 0 42.5 -15.5t14.5 -45.5q0 -31 -14.5 -46.5t-42.5 -15.5h-1054q-28 0 -42.5 15.5t-14.5 46.5z" />
<glyph unicode="&#x2014;" horiz-adv-x="2048" d="M195 535q0 30 14.5 45.5t42.5 15.5h1544q28 0 42.5 -15.5t14.5 -45.5q0 -31 -14.5 -46.5t-42.5 -15.5h-1544q-28 0 -42.5 15.5t-14.5 46.5z" />
<glyph unicode="&#x2018;" horiz-adv-x="557" d="M162 1108q0 40 10.5 80t27 76t36.5 67t38 55q38 50 75.5 79.5t69.5 29.5q24 0 37 -12.5t13 -32.5q0 -18 -14 -33.5t-35 -41.5t-45.5 -68t-44.5 -111q12 -5 23.5 -13t21 -21t15 -30t5.5 -38q0 -26 -9 -47.5t-25 -37.5t-38 -25t-47 -9q-27 0 -48 9t-35.5 26.5t-22.5 42 t-8 55.5z" />
<glyph unicode="&#x2019;" horiz-adv-x="557" d="M88 1020q0 18 14 33.5t35 41.5t45.5 68t44.5 111q-12 4 -23.5 12.5t-21 21.5t-15 30t-5.5 38q0 25 9 47t25 38t37.5 25t47.5 9q27 0 48 -9.5t35.5 -26.5t22.5 -41.5t8 -55.5q0 -41 -11 -80.5t-27.5 -75.5t-36 -67t-37.5 -55q-38 -50 -75.5 -79.5t-69.5 -29.5 q-24 0 -37 12.5t-13 32.5z" />
<glyph unicode="&#x201a;" horiz-adv-x="557" d="M88 -260q0 18 14 33.5t35 41.5t45.5 68t44.5 111q-12 4 -23.5 12.5t-21 21.5t-15 30t-5.5 38q0 25 9 47t25 38t37.5 25t47.5 9q27 0 48 -9.5t35.5 -26.5t22.5 -41.5t8 -55.5q0 -41 -11 -80.5t-27.5 -75.5t-36 -67t-37.5 -55q-38 -50 -75.5 -79.5t-69.5 -29.5 q-24 0 -37 12.5t-13 32.5z" />
<glyph unicode="&#x201c;" horiz-adv-x="965" d="M162 1108q0 40 10.5 80t27 76t36.5 67t38 55q38 50 75.5 79.5t69.5 29.5q24 0 37 -12.5t13 -32.5q0 -18 -14 -33.5t-35 -41.5t-45.5 -68t-44.5 -111q12 -5 23.5 -13t21 -21t15 -30t5.5 -38q0 -26 -9 -47.5t-25 -37.5t-38 -25t-47 -9q-27 0 -48 9t-35.5 26.5t-22.5 42 t-8 55.5zM570 1108q0 40 10.5 80t27 76t36.5 67t38 55q38 50 75.5 79.5t69.5 29.5q24 0 37 -12.5t13 -32.5q0 -18 -14 -33.5t-35 -41.5t-45.5 -68t-44.5 -111q12 -5 23.5 -13t21 -21t15 -30t5.5 -38q0 -26 -9 -47.5t-25 -37.5t-38 -25t-47 -9q-27 0 -48 9t-35.5 26.5 t-22.5 42t-8 55.5z" />
<glyph unicode="&#x201d;" horiz-adv-x="965" d="M88 1020q0 18 14 33.5t35 41.5t45.5 68t44.5 111q-12 4 -23.5 12.5t-21 21.5t-15 30t-5.5 38q0 25 9 47t25 38t37.5 25t47.5 9q27 0 48 -9.5t35.5 -26.5t22.5 -41.5t8 -55.5q0 -41 -11 -80.5t-27.5 -75.5t-36 -67t-37.5 -55q-38 -50 -75.5 -79.5t-69.5 -29.5 q-24 0 -37 12.5t-13 32.5zM496 1020q0 18 14 33.5t35 41.5t45.5 68t44.5 111q-12 4 -23.5 12.5t-21 21.5t-15 30t-5.5 38q0 25 9 47t25 38t37.5 25t47.5 9q27 0 48 -9.5t35.5 -26.5t22.5 -41.5t8 -55.5q0 -41 -11 -80.5t-27.5 -75.5t-36 -67t-37.5 -55q-38 -50 -75.5 -79.5 t-69.5 -29.5q-24 0 -37 12.5t-13 32.5z" />
<glyph unicode="&#x201e;" horiz-adv-x="965" d="M88 -260q0 18 14 33.5t35 41.5t45.5 68t44.5 111q-12 4 -23.5 12.5t-21 21.5t-15 30t-5.5 38q0 25 9 47t25 38t37.5 25t47.5 9q27 0 48 -9.5t35.5 -26.5t22.5 -41.5t8 -55.5q0 -41 -11 -80.5t-27.5 -75.5t-36 -67t-37.5 -55q-38 -50 -75.5 -79.5t-69.5 -29.5 q-24 0 -37 12.5t-13 32.5zM496 -260q0 18 14 33.5t35 41.5t45.5 68t44.5 111q-12 4 -23.5 12.5t-21 21.5t-15 30t-5.5 38q0 25 9 47t25 38t37.5 25t47.5 9q27 0 48 -9.5t35.5 -26.5t22.5 -41.5t8 -55.5q0 -41 -11 -80.5t-27.5 -75.5t-36 -67t-37.5 -55q-38 -50 -75.5 -79.5 t-69.5 -29.5q-24 0 -37 12.5t-13 32.5z" />
<glyph unicode="&#x2022;" horiz-adv-x="906" d="M236 705q0 47 16.5 87t45.5 69.5t69 46t88 16.5t87.5 -15.5t68 -44t44 -68t15.5 -87.5t-16.5 -88t-45.5 -69.5t-69 -46t-88 -16.5t-87.5 16t-68 44.5t-44 68t-15.5 87.5z" />
<glyph unicode="&#x2026;" horiz-adv-x="1606" d="M162 96q0 25 9 47t25 38t37.5 25t47.5 9q25 0 46 -8.5t36 -23.5t23.5 -36.5t8.5 -46.5t-9 -46.5t-25 -37.5t-38 -25t-47 -9t-46 8.5t-36 23.5t-23.5 36t-8.5 46zM686 96q0 25 9 47t25 38t37.5 25t47.5 9q25 0 46 -8.5t36.5 -23.5t24 -36.5t8.5 -46.5t-9 -46.5t-25 -37.5 t-38 -25t-47 -9q-26 0 -47 8.5t-36 23.5t-23.5 36t-8.5 46zM1210 96q0 25 9 47t25 38t38 25t47 9t46.5 -8.5t36.5 -23.5t23.5 -36.5t8.5 -46.5t-9 -46.5t-25 -37.5t-38 -25t-47 -9q-26 0 -47 8.5t-36 23.5t-23.5 36t-8.5 46z" />
<glyph unicode="&#x202f;" horiz-adv-x="387" />
<glyph unicode="&#x2039;" horiz-adv-x="709" d="M108 501q0 22 8.5 37.5t23.5 31.5l328 338q13 14 26.5 24t30.5 10q13 0 24.5 -5t20 -13.5t13.5 -19.5t5 -24q0 -15 -9 -27.5t-20 -24.5l-292 -323l298 -328q12 -13 19 -23.5t7 -25.5q0 -14 -5.5 -26t-15 -21t-22 -14t-25.5 -5q-7 0 -13.5 2t-12.5 5.5t-12.5 8.5t-12.5 12 l-331 342q-15 16 -24 32.5t-9 36.5z" />
<glyph unicode="&#x203a;" horiz-adv-x="709" d="M118 875q0 13 5.5 25t15 21t22 14.5t25.5 5.5q14 0 26 -7.5t25 -20.5l331 -342q15 -16 24 -32.5t9 -36.5q0 -22 -8.5 -37.5t-23.5 -31.5l-328 -338q-13 -14 -26.5 -24t-30.5 -10q-13 0 -24.5 5t-20 13.5t-13.5 19.5t-5 24q0 15 9 27.5t20 24.5l292 323l-298 328 q-12 13 -19 23.5t-7 25.5z" />
<glyph unicode="&#x205f;" horiz-adv-x="484" />
<glyph unicode="&#x20ac;" horiz-adv-x="1241" d="M78 522q0 25 14.5 41.5t47.5 16.5h118q-1 18 -1.5 33.5t-0.5 35.5q0 34 2 69t5 66h-123q-33 0 -47.5 16.5t-14.5 41.5t14.5 41.5t47.5 16.5h142q28 122 82 214.5t127.5 155t164 94t191.5 31.5q56 0 104 -8.5t85 -21.5t63 -27.5t39 -27.5q14 -14 20 -27t6 -30 q0 -25 -16 -40.5t-44 -15.5q-20 0 -41.5 11t-53 24t-76.5 24t-111 11q-67 0 -128 -22.5t-112 -68t-89 -114.5t-59 -162h406q33 0 47.5 -16.5t14.5 -41.5t-14.5 -41.5t-47.5 -16.5h-424q-2 -26 -3.5 -55.5t-1.5 -58.5q0 -26 1 -46.5t3 -43.5h425q33 0 47.5 -16.5t14.5 -41.5 t-14.5 -41.5t-47.5 -16.5h-408q21 -90 60.5 -156t94 -109t123 -64t147.5 -21q57 0 97.5 9.5t70 20.5t51 20.5t40.5 9.5q24 0 37 -15.5t13 -36.5q0 -15 -5.5 -27t-18.5 -25q-15 -15 -44 -30.5t-69.5 -27.5t-90.5 -20t-108 -8q-108 0 -200.5 30t-164.5 90t-121.5 150 t-71.5 210h-132q-33 0 -47.5 16.5t-14.5 41.5z" />
<glyph unicode="&#x2122;" horiz-adv-x="1644" d="M19 1328q0 24 11 37t31 13h478q20 0 31 -13t11 -37t-11 -37t-31 -13h-178v-538q0 -26 -15 -40.5t-46 -14.5t-46 14.5t-15 40.5v538h-178q-20 0 -31 13t-11 37zM671 731q0 4 0.5 12t2.5 21l60 543q5 38 27 56.5t66 18.5q22 0 37 -4.5t26 -14t19 -25t15 -36.5l130 -389 l12 -37q5 -17 9 -31q4 -16 8 -29h1q4 13 8 29l9 31q5 17 12 37l130 389q7 22 15.5 37t19.5 24.5t27 14t38 4.5q44 0 66.5 -18.5t27.5 -56.5l60 -541q2 -14 2.5 -21t0.5 -12q0 -11 -5 -20t-14 -15.5t-20.5 -10t-24.5 -3.5q-11 0 -21 3t-18 8.5t-13.5 14t-6.5 19.5l-39 417 q-2 20 -3 39.5t-2 33.5q-1 17 -2 32h-2l-165 -496q-14 -41 -33 -55.5t-51 -14.5t-50.5 14t-32.5 55l-166 497h-2v-32q0 -14 -0.5 -33t-2.5 -39l-38 -419q-1 -11 -6.5 -19.5t-13 -14t-17.5 -8t-20 -2.5q-11 0 -21.5 3t-19 9t-14 14.5t-5.5 20.5z" />
<glyph unicode="&#x25fc;" horiz-adv-x="1014" d="M0 0v1015h1015v-1015h-1015z" />
<glyph unicode="&#xfb01;" horiz-adv-x="1179" d="M40 943q0 29 15.5 45t41.5 16h123v95q0 91 28 164t83.5 123.5t139.5 77.5t196 27q49 0 90.5 -5.5t73.5 -14t54.5 -19.5t33.5 -22t15 -21t4 -26q0 -13 -4.5 -23.5t-12 -18t-17.5 -11.5t-21 -4q-15 0 -32.5 6.5t-44 14.5t-66 14.5t-99.5 6.5q-69 0 -120.5 -16.5t-85.5 -48 t-50.5 -78t-16.5 -107.5v-114h553q37 0 55.5 -18.5t18.5 -55.5v-869q0 -32 -18.5 -49.5t-55.5 -17.5t-55.5 17.5t-18.5 49.5v821h-479v-821q0 -32 -18.5 -49.5t-55.5 -17.5t-55.5 17.5t-18.5 49.5v821h-123q-26 0 -41.5 16t-15.5 45z" />
<glyph unicode="&#xfb02;" horiz-adv-x="1196" d="M40 943q0 29 15.5 45t41.5 16h123v79q0 97 28.5 173.5t85.5 129.5t141.5 81t196.5 28q57 0 103 -6t80.5 -15.5t57.5 -21t33 -21.5q16 -16 21 -32.5t5 -39.5v-1093q0 -44 6 -73t18 -46t28.5 -24.5t37.5 -7.5q20 0 33.5 2t27.5 2q11 0 19.5 -3.5t14.5 -10.5t9.5 -16 t3.5 -19q0 -17 -5 -27t-13 -18q-6 -6 -16 -12.5t-24 -11.5t-33 -8t-44 -3q-102 0 -156.5 57.5t-54.5 177.5v1120q-19 8 -46 14q-23 5 -57.5 9.5t-82.5 4.5q-134 0 -202 -68t-68 -203v-98h186q26 0 41.5 -16t15.5 -45t-15.5 -45t-41.5 -16h-186v-821q0 -32 -18.5 -49.5 t-55.5 -17.5t-55.5 17.5t-18.5 49.5v821h-123q-26 0 -41.5 16t-15.5 45z" />
</font>
</defs>
</svg>
