<?xml version="1.0" standalone="no"?>
<!DOCTYPE svg PUBLIC "-//W3C//DTD SVG 1.1//EN" "http://www.w3.org/Graphics/SVG/1.1/DTD/svg11.dtd" >
<svg xmlns="http://www.w3.org/2000/svg" xmlns:xlink="http://www.w3.org/1999/xlink" version="1.1">
<metadata></metadata>
<defs>
<font id="rooneysans-lightiuploadedfile" horiz-adv-x="1168" >
<font-face units-per-em="2048" ascent="1540" descent="-508" />
<missing-glyph horiz-adv-x="542" />
<glyph horiz-adv-x="0" />
<glyph horiz-adv-x="0" />
<glyph unicode="&#xd;" horiz-adv-x="0" />
<glyph unicode=" "  horiz-adv-x="542" />
<glyph unicode="&#x09;" horiz-adv-x="542" />
<glyph unicode="&#xa0;" horiz-adv-x="542" />
<glyph unicode="!" horiz-adv-x="662" d="M145 92q0 26 9.5 48.5t26 39t39 26t48.5 9.5q25 0 45.5 -8t35 -22.5t22.5 -35t8 -45.5q0 -26 -9.5 -48t-26 -38.5t-39 -26t-48.5 -9.5q-25 0 -45.5 8t-35 22.5t-22.5 35t-8 44.5zM253 433l153 963l4 21q1 10 3 18.5t6 15.5t10 13q12 12 29 17.5t38 5.5q20 0 34 -4 t23 -10.5t13.5 -16t4.5 -21.5q0 -4 -0.5 -7.5t-1 -8.5t-2 -13.5t-4.5 -22.5l-177 -951q-6 -31 -24.5 -47t-49.5 -16q-32 0 -48 16.5t-11 47.5z" />
<glyph unicode="&#x22;" horiz-adv-x="741" d="M251 1047q0 6 1 14t3 27l43 355q1 13 8 22.5t17.5 16t23.5 9.5t27 3q16 0 29.5 -3.5t23 -10t14.5 -15.5t5 -20q0 -5 -0.5 -10t-3.5 -19l-81 -363q-6 -26 -22 -37.5t-39 -11.5q-20 0 -34.5 10t-14.5 33zM571 1047q0 6 1 14t3 27l43 355q1 13 8 22.5t17.5 16t23.5 9.5t27 3 q16 0 29.5 -3.5t23 -10t14.5 -15.5t5 -20q0 -5 -0.5 -10t-3.5 -19l-81 -363q-6 -26 -22 -37.5t-39 -11.5q-20 0 -34.5 10t-14.5 33z" />
<glyph unicode="#" horiz-adv-x="1425" d="M45 417q0 28 16 45.5t47 17.5h237l207 416h-199q-22 0 -33.5 12t-11.5 35q0 28 16 45.5t47 17.5h236l174 350q11 21 25.5 30t34.5 9q11 0 21 -4t17.5 -11t12 -16.5t4.5 -20.5q0 -8 -2.5 -16t-5.5 -14l-153 -307h335l174 350q11 21 25.5 30t34.5 9q11 0 21 -4t17.5 -11 t12 -16.5t4.5 -20.5q0 -8 -2.5 -16t-5.5 -14l-153 -307h201q22 0 33.5 -12t11.5 -35q0 -28 -16 -45.5t-47 -17.5h-237l-207 -416h199q22 0 33.5 -12t11.5 -35q0 -28 -16 -45.5t-47 -17.5h-236l-174 -350q-11 -21 -25.5 -29.5t-34.5 -8.5q-11 0 -21 4t-17.5 10.5t-12 16 t-4.5 20.5q0 8 2.5 16t5.5 14l152 307h-334l-174 -350q-11 -21 -25.5 -29.5t-34.5 -8.5q-11 0 -21 4t-17.5 10.5t-12 16t-4.5 20.5q0 8 2.5 16t5.5 14l152 307h-200q-22 0 -33.5 12t-11.5 35zM474 480h334l207 416h-334z" />
<glyph unicode="$" horiz-adv-x="1038" d="M89 135q0 12 4.5 22.5t12.5 19t20.5 13.5t27.5 5q19 0 39.5 -10t51.5 -22t78.5 -22t120.5 -10q75 0 131.5 17.5t93.5 49t55.5 75t18.5 95.5q0 54 -23.5 93.5t-62 70t-87.5 56.5l-100 50q-51 25 -100 53.5t-87.5 66t-62 87t-23.5 117.5t23.5 127t70.5 104.5t117 75 t163 38.5l39 228q5 30 21.5 44t45.5 14t43.5 -14t9.5 -44l-39 -226q37 -2 71 -8.5t63.5 -16.5t52 -22t35.5 -25q12 -12 16.5 -23t4.5 -26q0 -12 -4.5 -22.5t-12.5 -19t-20.5 -13.5t-27.5 -5q-19 0 -39.5 8.5t-49 18.5t-68.5 18.5t-98 8.5q-68 0 -118 -15t-82.5 -41 t-48.5 -62.5t-16 -78.5q0 -50 23.5 -87t62 -65.5t87.5 -52.5l100 -50q51 -25 100 -54.5t87.5 -69t62 -92t23.5 -123.5q0 -75 -25 -140.5t-74 -116t-122 -83.5t-169 -44l-40 -236q-5 -30 -21.5 -44t-45.5 -14t-43.5 14t-9.5 44l40 232q-52 1 -96.5 9.5t-79.5 20t-60.5 25.5 t-38.5 28q-12 12 -16.5 23t-4.5 26z" />
<glyph unicode="%" horiz-adv-x="1873" d="M185 894q0 103 27 194t78.5 159.5t125.5 108t167 39.5q63 0 112.5 -19t84.5 -55t53.5 -88.5t18.5 -119.5q0 -103 -27 -194t-78.5 -159.5t-125.5 -108t-167 -39.5q-63 0 -112.5 18.5t-84.5 54.5t-53.5 88.5t-18.5 120.5zM327 907q0 -96 40 -141t106 -45q52 0 96 28t75 78 t48.5 119.5t17.5 153.5q0 96 -40 141t-106 45q-53 0 -96.5 -28t-74.5 -78t-48.5 -119.5t-17.5 -153.5zM418 40q0 11 5 19.5t13 19.5l975 1291q11 14 20.5 20.5t24.5 6.5q13 0 24.5 -5t20.5 -13t14 -18t5 -21t-5 -19.5t-13 -19.5l-975 -1291q-11 -14 -20.5 -20.5t-24.5 -6.5 q-13 0 -24.5 5t-20.5 13t-14 18t-5 21zM1086 266q0 103 27 194t78.5 159.5t125.5 108t167 39.5q63 0 112.5 -19t84.5 -55t53.5 -88.5t18.5 -119.5q0 -103 -27 -194t-78.5 -159.5t-125.5 -108t-167 -39.5q-63 0 -112.5 18.5t-84.5 54.5t-53.5 88.5t-18.5 120.5zM1228 279 q0 -96 40 -141t106 -45q52 0 96 28t75 78t48.5 119.5t17.5 153.5q0 96 -40 141t-106 45q-53 0 -96.5 -28t-74.5 -78t-48.5 -119.5t-17.5 -153.5z" />
<glyph unicode="&#x26;" horiz-adv-x="1625" d="M102 345q0 96 37 171t98.5 134t141 105.5t163.5 87.5q-13 62 -20 120t-7 112q0 99 28 177t80 132t124 82.5t161 28.5q66 0 117.5 -18.5t87 -51.5t54 -79t18.5 -102q0 -89 -41.5 -155.5t-109.5 -119.5t-154 -96l-176 -84q19 -76 49 -154.5t69.5 -154.5t88.5 -146t107 -128 q23 -23 45 -41t44 -30t45 -18.5t49 -6.5q33 0 62 11.5t50.5 37t34 67.5t12.5 102q0 72 -23.5 137t-63 114t-91.5 78t-110 29q-26 0 -43.5 -2.5t-29.5 -2.5q-9 0 -16.5 3t-13 9t-9 15.5t-3.5 22.5q0 32 32.5 56t104.5 24q96 0 173 -38t130.5 -102t82.5 -146.5t29 -172.5 q0 -57 -15 -121t-52 -118.5t-99.5 -90.5t-156.5 -36q-86 0 -156.5 35t-139.5 106q-24 -21 -60.5 -46t-85.5 -47t-110 -37t-134 -15q-94 0 -168 26.5t-125 74t-78 114.5t-27 148zM252 365q0 -123 69 -190.5t201 -67.5q53 0 98 10.5t82 26.5t65 35.5t48 36.5 q-81 111 -141 239.5t-103 270.5q-66 -33 -124 -69t-101.5 -79.5t-68.5 -95.5t-25 -117zM662 1094q0 -50 4.5 -94.5t12.5 -92.5q72 34 136 67.5t112.5 71.5t77 82.5t28.5 100.5q0 69 -37.5 105.5t-110.5 36.5q-47 0 -88 -18t-71 -53t-47 -87t-17 -119z" />
<glyph unicode="'" horiz-adv-x="421" d="M251 1047q0 6 1 14t3 27l43 355q1 13 8 22.5t17.5 16t23.5 9.5t27 3q16 0 29.5 -3.5t23 -10t14.5 -15.5t5 -20q0 -5 -0.5 -10t-3.5 -19l-81 -363q-6 -26 -22 -37.5t-39 -11.5q-20 0 -34.5 10t-14.5 33z" />
<glyph unicode="(" horiz-adv-x="625" d="M131 335q0 181 35.5 347t102 316.5t161.5 284.5t214 251q16 16 39 16q12 0 23.5 -4.5t19.5 -12.5t13 -18t5 -21q0 -9 -3 -16.5t-10 -15.5q-102 -113 -185 -238.5t-142 -266t-91 -295.5t-32 -327q0 -90 9 -180t26.5 -173.5t43.5 -158.5t59 -135q3 -6 4.5 -11t1.5 -13 q0 -12 -5.5 -22.5t-14.5 -18t-20.5 -11.5t-23.5 -4t-23.5 5t-19.5 17q-45 63 -80 143t-59 170.5t-36 190t-12 201.5z" />
<glyph unicode=")" horiz-adv-x="625" d="M-92 -337q0 9 3 16.5t10 15.5q102 113 185 238.5t142 266t91 295.5t32 327q0 90 -9 180t-26.5 173.5t-43.5 158.5t-59 135q-3 6 -4.5 11t-1.5 13q0 12 5.5 22t14.5 17.5t20.5 12t23.5 4.5t23.5 -5t19.5 -17q45 -63 80 -143t59 -170.5t36 -190t12 -201.5 q0 -181 -35.5 -347t-102 -316.5t-161.5 -284.5t-214 -251q-16 -16 -39 -16q-12 0 -23.5 4.5t-19.5 12.5t-13 18t-5 21z" />
<glyph unicode="*" horiz-adv-x="839" d="M200 1006q0 14 6.5 25t20.5 18l212 98l-179 104q-11 7 -16.5 16.5t-5.5 21.5t5.5 25t14.5 23t20.5 16.5t23.5 6.5q9 0 16.5 -3.5t19.5 -12.5l160 -116l29 227q1 10 6 17.5t12.5 12.5t17 7.5t20.5 2.5q10 0 20 -2.5t18 -8t13.5 -13.5t5.5 -18q0 -5 -1 -11l-3 -16l-44 -201 l176 104q13 8 21 11.5t17 3.5q11 0 21 -5.5t17.5 -14.5t12 -20.5t4.5 -23.5q0 -14 -6.5 -25t-20.5 -18l-212 -98l179 -104q11 -7 16.5 -16.5t5.5 -21.5t-5.5 -25t-14.5 -23t-20.5 -16.5t-23.5 -6.5q-9 0 -16.5 3.5t-19.5 12.5l-160 116l-29 -227q-2 -10 -7 -17.5 t-12.5 -12.5t-17 -7.5t-19.5 -2.5t-20 2.5t-18.5 8t-13.5 13t-5 18.5q0 5 1 11l3 16l44 201l-176 -104q-13 -8 -21 -11.5t-17 -3.5q-11 0 -21 5.5t-17.5 14.5t-12 20.5t-4.5 23.5z" />
<glyph unicode="+" d="M176 571q0 16 5 29.5t14.5 23t23 14.5t29.5 5h301l53 309q6 35 25.5 53.5t50.5 18.5t45 -18.5t8 -53.5l-53 -309h289q27 0 42 -13t15 -38q0 -16 -5 -29.5t-15 -23t-23.5 -14.5t-30.5 -5h-293l-53 -309q-6 -35 -26.5 -53.5t-51.5 -18.5t-45 18.5t-8 53.5l53 309h-293 q-29 0 -43 14t-14 37z" />
<glyph unicode="," horiz-adv-x="546" d="M-47 -260q0 14 7 25t20 23l30 27q17 16 37 40t42 58t45 84q-10 7 -18.5 17t-15 22t-10 27t-3.5 33q0 25 8.5 46.5t24.5 37.5t38 25.5t48 9.5q52 0 81.5 -32t29.5 -92q0 -42 -15.5 -86.5t-41.5 -87.5t-59 -82.5t-69 -71.5q-21 -18 -38.5 -31t-33 -21.5t-30 -12t-27.5 -3.5 q-23 0 -36.5 12.5t-13.5 32.5z" />
<glyph unicode="-" horiz-adv-x="952" d="M174 525q0 16 4.5 29.5t13.5 22.5t21 14t27 5h500q25 0 38 -13t13 -39q0 -17 -4.5 -30t-13.5 -22t-21 -14t-27 -5h-500q-25 0 -38 13t-13 39z" />
<glyph unicode="." horiz-adv-x="546" d="M87 96q0 25 9 47t25 38t37.5 25t47.5 9q25 0 46 -8.5t36 -23.5t23.5 -36.5t8.5 -46.5t-9 -46.5t-25 -37.5t-37.5 -25t-46.5 -9q-26 0 -47 8.5t-36 23.5t-23.5 36t-8.5 46z" />
<glyph unicode="/" horiz-adv-x="812" d="M-132 -278q0 11 4 20t9 19l898 1692q10 19 23.5 28.5t33.5 9.5q10 0 23 -4t23.5 -12t18 -19.5t7.5 -27.5q0 -11 -4 -20t-9 -19l-898 -1692q-10 -19 -23.5 -28.5t-33.5 -9.5q-11 0 -23.5 4t-23 12t-18 19.5t-7.5 27.5z" />
<glyph unicode="0" horiz-adv-x="1227" d="M98 429q0 144 46.5 262.5t127 204t189.5 132.5t235 47q102 0 184 -31t139.5 -88.5t88 -140.5t30.5 -187q0 -144 -46.5 -262.5t-127 -204t-189.5 -132.5t-235 -47q-102 0 -184 30.5t-139.5 88.5t-88 141t-30.5 187zM250 447q0 -84 21.5 -147.5t61.5 -106t97.5 -64.5 t129.5 -22q87 0 164 35.5t135.5 100.5t92.5 158t34 209q0 84 -21.5 147.5t-61.5 106t-97.5 64.5t-129.5 22q-87 0 -164 -35.5t-135.5 -100.5t-92.5 -158.5t-34 -208.5z" />
<glyph unicode="1" horiz-adv-x="653" d="M96 879q0 13 3.5 22t14.5 20q8 8 21.5 17t34.5 19.5t50 23.5l70 30l66 27q28 11 48.5 17.5t36 9t29.5 2.5q19 0 32.5 -6t22 -17t11 -26t-0.5 -33l-159 -924q-5 -32 -24.5 -49.5t-55.5 -17.5t-53 17.5t-12 49.5l144 832l-178 -53q-17 -5 -29 -7.5t-23 -2.5q-21 0 -35 13.5 t-14 35.5z" />
<glyph unicode="2" horiz-adv-x="904" d="M-13 76q0 14 3.5 26.5t12 25.5t24 27.5t39.5 32.5l274 210l138 108q62 51 105 98t66.5 93.5t23.5 97.5q0 71 -47.5 113t-150.5 42q-52 0 -91 -8t-68 -17t-50 -17t-37 -8q-23 0 -36 14t-13 37q0 13 5 24t13 19q15 15 43.5 29.5t68 26t88.5 18.5t103 7q82 0 143 -18.5 t101 -53t59.5 -82.5t19.5 -107q0 -69 -27.5 -130.5t-79 -121t-125 -121t-165.5 -130.5l-239 -180h510q26 0 39 -14t13 -42q0 -18 -5 -32t-14.5 -23.5t-23 -14.5t-30.5 -5h-606q-41 0 -62.5 21.5t-21.5 54.5z" />
<glyph unicode="3" horiz-adv-x="927" d="M-55 -232q0 27 16.5 44t43.5 17q15 0 32 -7.5t44 -16.5t67.5 -16.5t101.5 -7.5q82 0 148 24.5t112.5 67.5t71.5 101t25 126q0 55 -19 100t-62 76.5t-112.5 48.5t-170.5 17q-32 0 -47 15q-7 7 -10 19.5t-1.5 26t6.5 26.5t13 21t20.5 11.5t33.5 3.5q112 0 192 21.5 t130.5 60t74 92.5t23.5 119q0 89 -54 140.5t-157 51.5q-53 0 -92 -8t-68 -17t-49.5 -17t-36.5 -8q-23 0 -36 14t-13 37q0 13 5 24t13 19q15 15 43.5 29.5t68 26t88.5 18.5t103 7q82 0 145 -21t106 -59t64.5 -91.5t21.5 -118.5q0 -70 -21 -131t-60.5 -109t-96.5 -82.5 t-128 -51.5v-2q53 -9 96.5 -36.5t75 -67.5t48.5 -88.5t17 -99.5q0 -94 -37 -177t-105.5 -145.5t-165.5 -98.5t-217 -36q-59 0 -105 6.5t-80 16t-55.5 20.5t-31.5 21t-14.5 20t-4.5 24z" />
<glyph unicode="4" horiz-adv-x="1030" d="M-9 163q0 12 3 24t9 24t14.5 24.5t19.5 26.5l590 721q17 21 33.5 36.5t34.5 26t38.5 16t44.5 5.5q23 0 41 -7t29.5 -19.5t16 -30t0.5 -39.5l-130 -758h166q50 0 50 -54q0 -18 -5 -31.5t-14 -22.5t-22.5 -14t-29.5 -5h-167l-60 -349q-5 -32 -24.5 -49.5t-55.5 -17.5 t-53 18t-12 50l60 348h-499q-38 0 -58 21t-20 56zM159 213h431l117 672z" />
<glyph unicode="5" horiz-adv-x="948" d="M-46 -232q0 27 16.5 44t43.5 17q15 0 33 -7.5t45 -16.5t65.5 -16.5t95.5 -7.5q90 0 162 26t122.5 71.5t77 107t26.5 132.5q0 64 -22.5 116t-74.5 89t-136.5 57.5t-208.5 20.5q-36 0 -51.5 19.5t-7.5 58.5l111 503q9 40 31.5 57.5t64.5 17.5h504q26 0 40 -14t14 -42 q0 -18 -5 -31.5t-14 -23.5t-22 -15t-28 -5h-468l-87 -394q120 -3 215.5 -29.5t161.5 -75.5t101.5 -120.5t35.5 -163.5q0 -104 -37.5 -192.5t-109 -153t-174.5 -101t-235 -36.5q-55 0 -100 6.5t-78.5 16t-55.5 20.5t-32 21t-14.5 20t-4.5 24z" />
<glyph unicode="6" horiz-adv-x="1072" d="M108 408q0 117 21 236t62.5 229t104 205.5t145.5 166.5t186.5 111.5t228.5 40.5q50 0 84 -6.5t54.5 -17.5t29.5 -25.5t9 -30.5q0 -13 -4.5 -23.5t-12 -18t-18.5 -12t-23 -4.5q-11 0 -23 2t-28.5 4.5t-39 4.5t-54.5 2q-97 0 -180 -38.5t-150.5 -106.5t-117.5 -162.5 t-80 -205.5q35 25 81 44q39 17 93.5 31t121.5 14q90 0 159.5 -25.5t117 -72t72 -112t24.5 -144.5q0 -117 -37.5 -211.5t-103.5 -161t-154.5 -103t-190.5 -36.5q-188 0 -282.5 110t-94.5 316zM258 421q0 -84 16.5 -144t48 -98.5t77 -56.5t102.5 -18q63 0 120.5 23.5t101 70 t69 116t25.5 160.5q0 57 -16.5 103.5t-48.5 79t-79 50.5t-107 18q-68 0 -122 -18t-93 -39q-46 -26 -81 -57q-7 -47 -10 -94t-3 -96z" />
<glyph unicode="7" horiz-adv-x="895" d="M93 -273q0 11 3 22t13 35q48 118 115 254t148 282l172 300l193 306h-566q-26 0 -39 14t-13 42q0 18 5 32t14.5 23.5t23 14.5t30.5 5h653q19 0 33 -4.5t23.5 -12.5t14 -19t4.5 -25q0 -11 -2 -22t-6.5 -22t-11 -23.5t-16.5 -27.5q-108 -159 -205 -318.5t-181 -312 t-154 -294.5t-123 -266q-9 -21 -24 -30t-36 -9q-13 0 -25.5 4t-22 11.5t-15 17.5t-5.5 23z" />
<glyph unicode="8" horiz-adv-x="1050" d="M65 292q0 85 30 150.5t80 117.5t115 93t134 77q-40 22 -76 51t-63 65.5t-42.5 81t-15.5 98.5q0 75 31 142t89.5 118t142 81t187.5 30q80 0 143 -21.5t106.5 -59t66 -88t22.5 -107.5q0 -75 -25.5 -132t-68 -102t-99.5 -81t-120 -69q44 -24 85 -58t73 -76t51.5 -92.5 t19.5 -108.5q0 -89 -33.5 -166t-96.5 -133.5t-154 -88.5t-207 -32q-90 0 -159.5 24t-117.5 66t-73 98.5t-25 121.5zM216 314q0 -47 16 -86t47 -66.5t77.5 -42.5t107.5 -15q74 0 132 20.5t98.5 57.5t61.5 87.5t21 110.5q0 51 -18.5 92.5t-50 76.5t-74.5 63.5t-91 52.5 q-69 -35 -128.5 -69t-104 -75t-69.5 -91t-25 -116zM379 1045q0 -44 15.5 -78.5t42.5 -63.5t64.5 -53.5t81.5 -46.5q61 31 113 61t89 64.5t58 75t21 92.5q0 79 -54.5 128.5t-161.5 49.5q-62 0 -112 -18t-85 -49t-53.5 -73t-18.5 -89z" />
<glyph unicode="9" horiz-adv-x="1073" d="M10 -253q0 13 4.5 23.5t12 18t18.5 12t23 4.5q15 0 29 -3l34 -7q20 -4 46.5 -7t65.5 -3q106 0 192.5 40.5t153.5 110t114.5 163t77.5 199.5q-35 -26 -81 -45q-39 -17 -93.5 -30.5t-121.5 -13.5q-90 0 -159.5 25.5t-117 72t-72 112t-24.5 144.5q0 117 37.5 211.5 t103.5 161t154.5 103t190.5 36.5q187 0 282 -110.5t95 -315.5q0 -117 -21 -236t-62.5 -229t-104 -205.5t-145.5 -166.5t-187 -111.5t-228 -40.5q-81 0 -131.5 14t-68.5 32q-8 8 -12.5 17.5t-4.5 23.5zM265 583q0 -57 16.5 -103.5t48.5 -79t79 -50.5t107 -18q67 0 121.5 17.5 t93.5 39.5q46 25 81 57q7 46 10 93.5t3 96.5q0 84 -16.5 144t-48 98.5t-77 56.5t-102.5 18q-63 0 -120.5 -23.5t-101 -70t-69 -116t-25.5 -160.5z" />
<glyph unicode=":" horiz-adv-x="546" d="M87 96q0 25 9 47t25 38t37.5 25t47.5 9q25 0 46 -8.5t36 -23.5t23.5 -36.5t8.5 -46.5t-9 -46.5t-25 -37.5t-37.5 -25t-46.5 -9q-26 0 -47 8.5t-36 23.5t-23.5 36t-8.5 46zM192 710q0 25 9 47t25 38t37.5 25t47.5 9q25 0 46 -8.5t36 -23.5t23.5 -36.5t8.5 -46.5t-9 -46.5 t-25 -37.5t-37.5 -25t-46.5 -9q-26 0 -47 8.5t-36 23.5t-23.5 36t-8.5 46z" />
<glyph unicode=";" horiz-adv-x="546" d="M-47 -260q0 14 7 25t20 23l30 27q17 16 37 40t42 58t45 84q-10 7 -18.5 17t-15 22t-10 27t-3.5 33q0 25 8.5 46.5t24.5 37.5t38 25.5t48 9.5q52 0 81.5 -32t29.5 -92q0 -42 -15.5 -86.5t-41.5 -87.5t-59 -82.5t-69 -71.5q-21 -18 -38.5 -31t-33 -21.5t-30 -12t-27.5 -3.5 q-23 0 -36.5 12.5t-13.5 32.5zM192 710q0 25 9 47t25 38t37.5 25t47.5 9q25 0 46 -8.5t36 -23.5t23.5 -36.5t8.5 -46.5t-9 -46.5t-25 -37.5t-37.5 -25t-46.5 -9q-26 0 -47 8.5t-36 23.5t-23.5 36t-8.5 46z" />
<glyph unicode="&#x3c;" d="M236 573q0 23 12.5 43.5t46.5 40.5l584 349q12 7 22 9.5t21 2.5q12 0 22.5 -5.5t19 -14t13 -19.5t4.5 -23q0 -18 -9 -32t-28 -25l-534 -319l407 -310q20 -15 26.5 -28.5t6.5 -28.5q0 -13 -5.5 -25.5t-15 -22.5t-23 -16t-28.5 -6q-12 0 -23.5 4.5t-25.5 14.5l-459 346 q-18 14 -26 29.5t-8 35.5z" />
<glyph unicode="=" d="M164 387q0 16 5 29.5t14.5 23t22.5 14.5t29 5h682q28 0 43 -13t15 -36q0 -17 -5.5 -30.5t-15 -23.5t-23.5 -15t-32 -5h-680q-28 0 -41.5 14t-13.5 37zM225 756q0 16 5 29t15 22.5t23.5 14.5t30.5 5h680q57 0 57 -51q0 -16 -5 -29t-14.5 -22.5t-23.5 -14.5t-31 -5h-679 q-58 0 -58 51z" />
<glyph unicode="&#x3e;" d="M213 211q0 19 8 32.5t27 24.5l536 320l-407 311q-19 14 -26 27t-7 28q0 13 5.5 25.5t15 22.5t23 16t28.5 6q12 0 23.5 -3.5t25.5 -14.5l459 -347q18 -14 26 -29.5t8 -35.5q0 -23 -13 -43.5t-48 -40.5l-582 -348q-11 -7 -21.5 -9.5t-21.5 -2.5q-12 0 -22.5 5t-19 13.5 t-13 19.5t-4.5 23z" />
<glyph unicode="?" horiz-adv-x="781" d="M157 92q0 26 9.5 48.5t26 39t39 26t48.5 9.5q25 0 45.5 -8t35 -22.5t22.5 -35t8 -45.5q0 -26 -9.5 -48t-26 -38.5t-39 -26t-48.5 -9.5q-25 0 -45.5 8t-35 22.5t-22.5 35t-8 44.5zM215 1373q0 13 4 23.5t17 23.5t37.5 26t58.5 24t77.5 18t93.5 7q82 0 145 -18.5t106 -54.5 t65 -88.5t22 -119.5q0 -70 -19.5 -125t-51 -100t-72.5 -83t-83 -72l-83 -70q-41 -34 -72.5 -73t-51 -85t-19.5 -104q0 -26 2 -40t2 -26q0 -29 -19.5 -48t-51.5 -19q-35 0 -57.5 26t-22.5 89q0 72 19 128t50 102t70.5 83.5t80.5 72.5l80 68q40 33 71 71t50 82.5t19 100.5 q0 83 -52 130.5t-155 47.5q-50 0 -84 -6.5t-58 -15t-40.5 -15t-32.5 -6.5q-20 0 -32.5 13t-12.5 33z" />
<glyph unicode="@" horiz-adv-x="2068" d="M125 369q0 164 38.5 312.5t111 274.5t176 227.5t233 173t283 110t326.5 38.5q169 0 298 -43.5t217 -122.5t133 -189.5t45 -243.5q0 -122 -21.5 -227t-60.5 -191t-92 -152.5t-116 -112t-133 -69t-143 -23.5q-49 0 -84.5 10.5t-59.5 30t-37 47t-17 61.5l-4 2 q-35 -43 -81 -76q-39 -29 -95.5 -52t-128.5 -23q-66 0 -120 22t-93 63.5t-60.5 101t-21.5 135.5q0 125 42.5 230t119 180.5t183.5 118t235 42.5q47 0 89.5 -6.5t77 -16t59 -21.5t36.5 -22q19 -18 22.5 -35.5t-3.5 -46.5l-118 -457q-12 -48 -13 -81t9 -53t31.5 -28.5 t53.5 -8.5q41 0 86.5 15t90 47.5t85.5 83.5t71.5 122t49 163t18.5 207t-35 207t-106 155.5t-178.5 97.5t-252.5 34t-275.5 -33.5t-241 -96t-200 -151.5t-152 -199.5t-96 -240t-33.5 -273.5q0 -147 39.5 -259t119 -188t198.5 -115t279 -39q101 0 166 11.5t106.5 25t66 25 t44.5 11.5q25 0 37.5 -15t12.5 -35q0 -16 -6.5 -30t-25.5 -28q-17 -12 -52 -28t-88 -29.5t-124 -23t-159 -9.5q-186 0 -328.5 48.5t-239 139.5t-145.5 222.5t-49 298.5zM768 470q0 -114 45.5 -165t128.5 -51q31 0 59.5 7t54 19t48 27t40.5 31q43 37 78 84l112 438 q-16 11 -41 20q-21 8 -53 14.5t-75 6.5q-84 0 -156.5 -31t-126 -87.5t-84 -136t-30.5 -176.5z" />
<glyph unicode="A" horiz-adv-x="1200" d="M-16 56q0 11 3.5 21t13.5 29l617 1173q6 12 12 23l12 19q5 9 11.5 17t14.5 16q15 15 34.5 22.5t45.5 7.5q24 0 40.5 -6t30.5 -20q13 -14 19 -34.5t11 -48.5l214 -1173q4 -20 5 -28.5t1 -15.5q0 -15 -6.5 -27.5t-18 -21t-26.5 -13.5t-31 -5q-17 0 -30 5t-23 15 q-9 9 -13 23t-7 31l-54 317h-559l-172 -339q-7 -14 -11 -21t-11 -14q-8 -8 -19 -12.5t-26 -4.5t-29 5t-25 13.5t-17.5 20.5t-6.5 26zM365 509h473l-86 505q-8 42 -13 78l-9 64q-4 32 -7 59h-4l-28 -60l-32 -64l-38 -77z" />
<glyph unicode="B" horiz-adv-x="1169" d="M128 81l211 1226q6 35 26.5 53t56.5 18h268q108 0 186.5 -22t128.5 -61.5t74 -94t24 -118.5q0 -70 -22 -127.5t-60 -102t-89 -76.5t-110 -51v-2q54 -11 95.5 -33.5t70.5 -56.5t44 -77.5t15 -94.5q0 -96 -38.5 -180t-115 -146.5t-191 -98.5t-267.5 -36h-242q-40 0 -56 20 t-9 61zM285 130h178q111 0 191.5 23t132.5 64t77 97.5t25 122.5q0 49 -17 88t-55.5 67t-101 43t-154.5 15h-186zM397 778h170q97 0 168.5 21t118.5 58.5t69.5 89t22.5 111.5q0 43 -15 78.5t-48 60t-87 38t-132 13.5h-186z" />
<glyph unicode="C" horiz-adv-x="1171" d="M122 512q0 135 27.5 253t77 216t118.5 175t153 130t179.5 81t198.5 28q58 0 108 -7t89 -19t67.5 -27t44.5 -31q12 -12 16.5 -23.5t4.5 -25.5q0 -26 -17 -44.5t-48 -18.5q-20 0 -41.5 10t-53.5 22t-79 22t-117 10q-111 0 -214.5 -50t-183 -144.5t-127 -230t-47.5 -306.5 q0 -100 27 -177.5t77 -130.5t121 -80.5t158 -27.5q70 0 120.5 11t86.5 23.5t60 23.5t42 11q24 0 37 -14.5t13 -35.5q0 -16 -5 -29t-17 -25q-21 -21 -57.5 -38.5t-84 -30.5t-104 -20.5t-116.5 -7.5q-119 0 -214 36t-162 104t-102.5 166t-35.5 222z" />
<glyph unicode="D" horiz-adv-x="1356" d="M128 81l211 1226q6 35 26.5 53t56.5 18h309q142 0 249 -35.5t179 -103.5t108 -166t36 -224q0 -191 -60.5 -347.5t-170 -268t-261.5 -172.5t-334 -61h-284q-40 0 -56 20t-9 61zM285 130h217q142 0 260.5 48.5t204 139t133 220t47.5 291.5q0 206 -109.5 312.5t-332.5 106.5 h-227z" />
<glyph unicode="E" horiz-adv-x="1043" d="M126 58q0 9 1 17.5t3 17.5l209 1214q6 35 26.5 53t56.5 18h613q26 0 40 -14t14 -42q0 -17 -5 -31t-14 -23.5t-22 -14.5t-28 -5h-542l-82 -473h463q26 0 40 -14t14 -42q0 -17 -5 -31t-14 -23.5t-22 -14.5t-28 -5h-470l-89 -515h538q26 0 40 -14t14 -42q0 -17 -5 -31 t-14 -23.5t-22 -14.5t-28 -5h-615q-34 0 -50.5 14.5t-16.5 43.5z" />
<glyph unicode="F" horiz-adv-x="985" d="M123 47q0 6 2 15l3 22l211 1223q6 35 26.5 53t56.5 18h604q26 0 40 -14t14 -42q0 -17 -5 -31t-14 -23.5t-22 -14.5t-28 -5h-533l-85 -494h443q26 0 40 -14t14 -42q0 -17 -5 -31t-14 -23.5t-22 -14.5t-28 -5h-451l-97 -563q-5 -32 -24.5 -49.5t-57.5 -17.5q-68 0 -68 53z " />
<glyph unicode="G" horiz-adv-x="1338" d="M124 522q0 130 28.5 245t80.5 212t125.5 174.5t164.5 131t196.5 82t221.5 28.5q64 0 118.5 -8.5t98 -22.5t75 -31t49.5 -35q12 -12 16.5 -23.5t4.5 -25.5q0 -26 -17 -44.5t-48 -18.5q-22 0 -44.5 12t-57 26.5t-87.5 26.5t-135 12q-132 0 -247.5 -51t-201.5 -145 t-135.5 -227t-49.5 -297q0 -209 111 -319.5t323 -110.5q66 0 114.5 7t80.5 16q38 11 65 24l73 421h-252q-26 0 -40 14.5t-14 41.5q0 17 5 31t14 23.5t22 14.5t28 5h331q38 0 54 -20t9 -58l-79 -457q-5 -29 -14.5 -50t-25.5 -37q-20 -20 -58.5 -39t-91.5 -34t-119 -24.5 t-141 -9.5q-132 0 -234.5 36.5t-173 105.5t-107 169.5t-36.5 228.5z" />
<glyph unicode="H" horiz-adv-x="1396" d="M123 47q0 6 1 15l4 22l213 1233q5 32 24.5 49.5t57.5 17.5t55 -17.5t12 -49.5l-94 -543h699l93 543q5 32 24.5 49.5t57.5 17.5q68 0 68 -53q0 -6 -2 -15l-3 -22l-213 -1233q-5 -32 -24.5 -49.5t-57.5 -17.5t-55 17.5t-12 49.5l101 586h-698l-101 -586q-5 -32 -24.5 -49.5 t-57.5 -17.5q-68 0 -68 53z" />
<glyph unicode="I" horiz-adv-x="549" d="M123 47q0 6 1 15l4 22l213 1233q5 32 24.5 49.5t57.5 17.5q68 0 68 -53q0 -6 -1 -15l-4 -22l-213 -1233q-5 -32 -24.5 -49.5t-57.5 -17.5q-68 0 -68 53z" />
<glyph unicode="J" horiz-adv-x="557" d="M-169 -330q0 20 10.5 33.5t34.5 24.5q52 25 94 54.5t75 73.5t57 107t40 156l207 1198q5 32 24.5 49.5t57.5 17.5q68 0 68 -53q0 -6 -1 -15l-4 -22l-205 -1185q-14 -81 -31.5 -139.5t-39 -101.5t-46 -74.5t-52.5 -59.5t-57.5 -50t-58.5 -37.5t-56 -23.5t-50 -8 q-33 0 -50 15.5t-17 39.5z" />
<glyph unicode="K" horiz-adv-x="1099" d="M123 47q0 6 2 15l3 22l213 1233q5 32 24.5 49.5t57.5 17.5t55 -17.5t12 -49.5l-96 -554l646 586q6 6 10.5 9.5t7.5 6.5l6 5l6 4q10 7 19.5 10t18.5 3q15 0 28.5 -5.5t24 -15.5t17 -23t6.5 -28q0 -12 -4 -21.5t-10.5 -18t-14.5 -15.5l-15 -13l-595 -523l412 -593 q12 -17 20 -31t8 -31q0 -16 -7.5 -30.5t-19.5 -25t-27.5 -16.5t-30.5 -6t-27 5t-21 14q-6 6 -10.5 11.5t-15.5 22.5l-442 657l-111 -640q-5 -32 -24.5 -49.5t-57.5 -17.5q-68 0 -68 53z" />
<glyph unicode="L" horiz-adv-x="965" d="M126 58q0 9 1 17.5t3 17.5l211 1224q5 32 24.5 49.5t57.5 17.5t55 -17.5t12 -49.5l-205 -1187h524q26 0 40 -14t14 -42q0 -17 -5 -31t-14 -23.5t-22 -14.5t-28 -5h-601q-34 0 -50.5 14.5t-16.5 43.5z" />
<glyph unicode="M" horiz-adv-x="1730" d="M63 51q0 7 1 14t6 24l328 1195q7 26 17.5 45t26 31t36 18t47.5 6q26 0 44.5 -6t31.5 -18t20 -30t11 -42l149 -932l11 -74q5 -34 8 -60q4 -31 6 -56h4l25 56l28 60q16 35 36 74l469 928q13 26 27 45t30.5 31t36 18t44.5 6q26 0 44.5 -6t31.5 -19q21 -21 21 -62v-6v-6 q0 -4 -0.5 -11t-1.5 -17l-85 -1180q-1 -15 -2.5 -25t-3.5 -17t-5 -12t-8 -10q-10 -10 -25.5 -16t-33.5 -6q-27 0 -50 14t-23 44q0 11 0.5 21t1.5 20l76 897q3 42 7.5 80.5t9.5 68.5q5 34 11 65h-4l-548 -1085q-15 -30 -29 -55t-27 -38q-7 -7 -15 -12.5t-17.5 -9t-21.5 -5.5 t-27 -2q-23 0 -39 6t-28 18q-15 15 -21 41.5t-11 59.5l-173 1082h-4q-6 -31 -14 -65l-16 -67q-8 -38 -19 -80l-246 -930q-5 -20 -9 -29.5t-12 -17.5t-21.5 -14.5t-33.5 -6.5q-29 0 -50.5 15.5t-21.5 44.5z" />
<glyph unicode="N" horiz-adv-x="1453" d="M123 47q0 6 1 15l4 22l206 1200q4 26 13.5 45t23.5 31t33.5 18t43.5 6q26 0 45 -7t33 -21q17 -17 32.5 -47.5t36.5 -76.5l381 -835l33 -75q16 -38 27 -67l25 -66l4 2q4 36 8 76l9 77q6 43 14 88l151 884q6 34 26 51t55 17q32 0 49.5 -13.5t17.5 -39.5q0 -8 -1.5 -16 t-3.5 -21l-206 -1200q-5 -26 -14 -45t-23 -31t-33.5 -18t-43.5 -6q-26 0 -45 7t-33 21q-17 17 -32.5 47.5t-36.5 76.5l-381 835q-18 38 -33.5 75.5t-26.5 66.5l-25 66l-4 -2q-4 -36 -8 -76l-10 -77q-5 -43 -13 -88l-151 -884q-6 -34 -26 -51t-55 -17q-32 0 -49.5 13.5 t-17.5 39.5z" />
<glyph unicode="O" horiz-adv-x="1443" d="M124 516q0 135 27 253t76.5 215.5t118 174.5t151 129.5t177.5 80.5t196 28q118 0 213 -37t162 -106t103 -168t36 -223q0 -135 -27 -253t-76.5 -215.5t-118 -174.5t-151.5 -129.5t-178 -80.5t-196 -28q-117 0 -212 36.5t-162 105.5t-103 168t-36 224zM280 536 q0 -102 27.5 -181t77 -132.5t119.5 -81.5t156 -28q110 0 212.5 50t181.5 144.5t126.5 229.5t47.5 306q0 102 -27.5 181t-77 132.5t-120 81.5t-155.5 28q-110 0 -212.5 -50t-181.5 -144.5t-126.5 -229.5t-47.5 -306z" />
<glyph unicode="P" horiz-adv-x="1078" d="M124 61l215 1246q6 35 26.5 53t56.5 18h263q104 0 180.5 -23t127 -65.5t75 -102t24.5 -132.5q0 -107 -39 -197.5t-111.5 -157.5t-177.5 -104.5t-237 -37.5h-168l-43 -249l-43 -248q-5 -32 -25 -49.5t-57 -17.5q-35 0 -54 17t-13 50zM381 687h173q90 0 160.5 25t119 70.5 t74.5 109t26 139.5q0 52 -15 92.5t-48 68.5t-85.5 42t-126.5 14h-181z" />
<glyph unicode="Q" horiz-adv-x="1443" d="M124 516q0 135 27 253t76.5 215.5t118 174.5t151 129.5t177.5 80.5t196 28q118 0 213 -37t162 -106t103 -168t36 -223q0 -179 -47.5 -328.5t-131 -262t-196.5 -184t-245 -94.5q27 -63 70.5 -109t100 -77.5t123.5 -50t141 -24.5q33 -3 48.5 -18t15.5 -39q0 -16 -7.5 -31 t-23 -26t-41 -18t-61.5 -7q-77 0 -156.5 26.5t-149 76.5t-123 122t-78.5 163q-113 2 -205 39t-157 105.5t-101 166.5t-36 223zM280 536q0 -103 27.5 -182t77 -133t119.5 -82t156 -28q110 0 212.5 50t181.5 144.5t126.5 230.5t47.5 307q0 102 -27.5 181t-77 132.5t-120 81.5 t-155.5 28q-110 0 -212.5 -50t-181.5 -144.5t-126.5 -229.5t-47.5 -306z" />
<glyph unicode="R" horiz-adv-x="1132" d="M124 61l215 1246q6 35 26.5 53t56.5 18h266q109 0 189 -23.5t132 -65.5t77.5 -100t25.5 -126q0 -90 -33 -164.5t-90 -130.5t-132.5 -92t-160.5 -50l240 -504q10 -20 14.5 -32t4.5 -25q0 -15 -7 -28.5t-18.5 -23.5t-26.5 -16t-31 -6q-14 0 -27 5t-22 14q-8 8 -13.5 18 t-13.5 27l-253 556h-175l-95 -550q-5 -32 -24.5 -49.5t-57.5 -17.5t-55 17.5t-12 49.5zM390 740h177q96 0 168.5 23t121 63t73 95t24.5 118q0 48 -16 87t-50.5 66t-90 41.5t-134.5 14.5h-185z" />
<glyph unicode="S" horiz-adv-x="1051" d="M66 120q0 25 17 43.5t48 18.5q21 0 43.5 -11t55.5 -23.5t81.5 -23.5t121.5 -11q82 0 143.5 19t102.5 54t61 84t20 108q0 54 -23 95t-61 73.5t-87 60.5l-99 56q-50 28 -98.5 59.5t-86.5 72t-61 92.5t-23 122q0 83 31 154t91.5 123t150 81.5t206.5 29.5q51 0 94.5 -6.5 t79 -17.5t61.5 -25t41 -29q12 -12 16.5 -23.5t4.5 -25.5q0 -25 -17 -43.5t-48 -18.5q-20 0 -40.5 9t-49.5 20t-70 20t-101 9q-78 0 -134 -17.5t-91.5 -48.5t-52.5 -74t-17 -94q0 -53 23 -92t61 -71t86 -59l99 -55q51 -28 99.5 -60t86.5 -73.5t61 -95t23 -125.5 q0 -92 -32.5 -169t-97 -132.5t-160.5 -86.5t-223 -31q-63 0 -114 8t-90.5 21t-67.5 29t-43 31q-12 12 -16.5 23.5t-4.5 25.5z" />
<glyph unicode="T" horiz-adv-x="1082" d="M169 1304q0 17 5 31t14 23.5t22 14.5t28 5h902q26 0 40 -14t14 -42q0 -17 -5 -31t-14 -23.5t-22 -14.5t-28 -5h-381l-205 -1187q-5 -32 -24.5 -49.5t-57.5 -17.5t-55 17.5t-12 49.5l205 1187h-372q-26 0 -40 14t-14 42z" />
<glyph unicode="U" horiz-adv-x="1391" d="M184 398q0 58 8 116t18 116l119 687q5 32 24.5 49.5t57.5 17.5t55 -17.5t12 -49.5l-121 -699q-5 -29 -9 -55t-7 -50.5t-5 -47t-2 -43.5q0 -82 23 -140.5t63 -96t94 -55t117 -17.5q77 0 147 25.5t127 78.5t98 134.5t60 193.5l133 772q5 32 24.5 49.5t57.5 17.5t55 -17.5 t12 -49.5l-132 -763q-26 -147 -79.5 -254.5t-131 -178t-176.5 -105t-215 -34.5q-103 0 -182.5 26.5t-134 79t-82.5 130.5t-28 180z" />
<glyph unicode="V" horiz-adv-x="1169" d="M196 1322q0 15 7 27.5t18 20.5t25.5 12.5t29.5 4.5q18 0 30.5 -5.5t20.5 -13.5q4 -5 6.5 -10t5 -13t5 -20.5t5.5 -31.5l147 -928q7 -42 11.5 -78.5t7.5 -63.5q4 -32 6 -58h4q11 26 26 58l29 63l39 79l472 947q7 15 12 24.5t9 16t7 10.5t6 7q8 8 19.5 12.5t24.5 4.5 q15 0 29.5 -5t26 -14t18 -21t6.5 -25q0 -6 -1.5 -12t-4.5 -13t-8 -17.5t-13 -25.5l-592 -1152q-14 -28 -25 -46.5t-25 -32.5q-15 -15 -35.5 -22t-45.5 -7q-23 0 -39.5 5.5t-29.5 18.5q-14 14 -20 34.5t-11 52.5l-196 1164q-4 22 -5.5 34.5t-1.5 18.5z" />
<glyph unicode="W" horiz-adv-x="1842" d="M218 1323q0 15 6.5 26.5t18 20t25.5 13t29 4.5q17 0 30.5 -5t22.5 -14q6 -6 9.5 -13t5 -16.5t2.5 -22t3 -30.5l77 -924q3 -42 5 -79t3 -64q1 -33 1 -59h4l21 57l25 64q14 37 34 81l405 928q12 28 25 47t28 30t32.5 15.5t38.5 4.5q42 0 69 -20t32 -77l84 -923 q4 -42 5.5 -78.5t3.5 -65.5l2 -63h4l24 63l25 65l32 77l398 945l11 26q5 10 8.5 16.5t6.5 10.5t6 7q8 8 19.5 12.5t27.5 4.5q12 0 26 -4t25 -12t18.5 -19.5t7.5 -26.5q0 -5 -1 -10t-3 -11.5t-5.5 -15t-9.5 -21.5l-506 -1153q-7 -15 -12.5 -28t-11.5 -24t-12.5 -20t-13.5 -16 q-8 -8 -16.5 -13.5t-19 -10t-23 -6.5t-27.5 -2q-24 0 -41.5 5.5t-31.5 19.5q-8 8 -13.5 18t-8.5 22t-5 25.5t-3 30.5l-81 895q-4 38 -6 74t-4 65l-4 63h-4l-23 -63l-26 -65q-14 -36 -31 -74l-392 -898l-13 -28q-5 -12 -11 -22.5t-12.5 -19.5t-13.5 -16q-17 -17 -37 -24.5 t-48 -7.5q-25 0 -42.5 5.5t-31.5 19.5q-8 8 -13.5 18t-8.5 22t-5 26t-3 30l-109 1158q-2 23 -2.5 32.5t-0.5 17.5z" />
<glyph unicode="X" horiz-adv-x="1163" d="M-3 64q0 9 3 17t7.5 15.5t10.5 15.5l14 15l497 580l-293 550q-4 7 -7 13.5t-5.5 13t-4 12.5t-1.5 13q0 18 8 32.5t20.5 24.5t27 15.5t28.5 5.5q15 0 26.5 -4.5t19.5 -12.5t13 -16t10 -19l263 -517l441 539q14 17 28 23.5t28 6.5q15 0 29 -6t25 -16t18 -23t7 -28 q0 -9 -3 -17t-7.5 -15.5t-10.5 -15.5l-14 -15l-473 -548l311 -586q4 -7 7 -13.5t5.5 -13t4 -12.5t1.5 -13q0 -17 -8.5 -30.5t-21 -23.5t-27.5 -15t-28 -5q-17 0 -28.5 5.5t-19.5 13.5t-12.5 15t-9.5 18l-280 549l-464 -571q-14 -17 -27 -23.5t-28 -6.5t-29 6t-25.5 16 t-18.5 23t-7 28z" />
<glyph unicode="Y" horiz-adv-x="1072" d="M175 1313q0 16 7 29.5t19 23.5t27 15.5t31 5.5q15 0 26 -4.5t19 -12.5q7 -7 11.5 -15.5t14.5 -33.5l200 -492l16 -40q7 -20 12 -36l11 -34h4q11 17 24 35l26 37l31 43l370 505l14 18q5 7 10 12q9 9 21 13.5t24 4.5q15 0 28.5 -5.5t24.5 -15.5t17.5 -22.5t6.5 -27.5 q0 -6 -1.5 -12t-4 -11.5t-6.5 -11.5l-9 -13l-525 -678l-91 -529q-5 -32 -24.5 -49.5t-57.5 -17.5t-55 17.5t-12 49.5l92 531l-284 666q-9 21 -13 32t-4 23z" />
<glyph unicode="Z" horiz-adv-x="1009" d="M18 74q0 11 2.5 21t7.5 21.5t14 23.5l21 30l804 1078h-566q-26 0 -40 14t-14 42q0 17 5 31t14 23.5t22 14.5t28 5h660q19 0 33.5 -5.5t24.5 -15t15 -23.5t5 -30q0 -11 -2.5 -21t-7.5 -21.5t-14 -24.5l-21 -29l-805 -1078h605q26 0 40 -14t14 -42q0 -17 -5 -31t-14 -23.5 t-22 -14.5t-28 -5h-698q-19 0 -33.5 5.5t-24.5 15t-15 23t-5 30.5z" />
<glyph unicode="[" horiz-adv-x="612" d="M52 -306q0 8 0.5 14.5t2.5 15.5l299 1726q6 35 25 51.5t54 16.5h228q24 0 37 -13t13 -38q0 -16 -4.5 -29t-13 -22t-20.5 -13.5t-27 -4.5h-162l-284 -1640h156q24 0 37 -13t13 -38q0 -16 -4.5 -29t-13 -22t-20.5 -13.5t-27 -4.5h-228q-30 0 -45.5 14.5t-15.5 41.5z" />
<glyph unicode="\" horiz-adv-x="811" d="M226 1424q0 16 7 28t18 20.5t24 12.5t25 4q29 0 43 -15t18 -37l309 -1673l4 -25q2 -8 2 -14q0 -16 -7 -28t-18 -20.5t-24 -12.5t-25 -4q-29 0 -43 15t-18 37l-309 1673l-4 25q-2 8 -2 14z" />
<glyph unicode="]" horiz-adv-x="612" d="M-73 -311q0 16 4.5 29t13 22t20.5 13.5t27 4.5h162l284 1640h-156q-24 0 -37 13t-13 38q0 16 4.5 29t13 22t20.5 13.5t27 4.5h228q30 0 45.5 -14.5t15.5 -41.5q0 -8 -0.5 -14.5t-2.5 -15.5l-299 -1726q-6 -35 -25 -51.5t-54 -16.5h-228q-24 0 -37 13t-13 38z" />
<glyph unicode="^" d="M203 764q0 12 3.5 22.5t12.5 24.5l418 532q10 14 20 24t20.5 17t21.5 10t22 3q25 0 42.5 -12.5t29.5 -41.5l235 -544q4 -10 5.5 -17.5t1.5 -15.5q0 -15 -5.5 -27t-14.5 -20.5t-21.5 -13.5t-26.5 -5q-19 0 -34.5 9t-26.5 32l-209 480l-375 -482q-14 -17 -29 -23.5 t-31 -6.5q-11 0 -22 3.5t-19 10.5t-13 17.5t-5 23.5z" />
<glyph unicode="_" d="M-168 -464q0 16 4.5 29.5t13.5 22.5t21 14t27 5h1054q24 0 37.5 -11.5t13.5 -36.5q0 -17 -4.5 -30t-13.5 -22t-21 -14t-27 -5h-1054q-24 0 -37.5 11.5t-13.5 36.5z" />
<glyph unicode="`" horiz-adv-x="1024" d="M509 1434q0 16 8.5 30.5t22 25.5t29.5 17.5t32 6.5t27 -7t19 -21l130 -253q5 -9 6.5 -15t1.5 -13q0 -12 -5.5 -22t-14.5 -17.5t-21 -12t-24 -4.5q-14 0 -23.5 6t-17.5 17l-155 225q-7 10 -11 18.5t-4 18.5z" />
<glyph unicode="a" horiz-adv-x="1119" d="M89 368q0 154 44.5 275.5t124 205.5t190 128.5t242.5 44.5q60 0 109.5 -8.5t87.5 -21t63 -26.5t36 -24q6 -6 10 -12.5t6.5 -15t2.5 -19.5t-3 -26l-98 -566q-6 -35 -10.5 -65.5t-8 -56.5t-5 -47t-1.5 -37q0 -15 1 -25t1 -24q0 -24 -15.5 -39t-42.5 -15q-26 0 -42 11.5 t-24.5 32.5t-10.5 50q-1 10 -1 20q0 21 3 45h-3q-36 -48 -85 -86q-21 -16 -47 -31.5t-56.5 -27.5t-65.5 -19t-74 -7q-73 0 -133 25t-103.5 73.5t-67.5 120.5t-24 167zM241 390q0 -75 15 -128.5t42.5 -88t66 -50.5t85.5 -16q35 0 67 9t60.5 23.5t53.5 33.5t45 39 q48 47 85 106l93 535q-20 12 -47 23q-23 8 -59 15.5t-84 7.5q-89 0 -166 -33.5t-134 -98t-90 -159.5t-33 -218z" />
<glyph unicode="b" horiz-adv-x="1119" d="M114 109q0 11 3 26l221 1281q5 32 24.5 49.5t55.5 17.5t53 -17.5t12 -49.5l-72 -419l-12 -65q-6 -31 -15 -65h3q34 43 82 77q20 15 45 29t54 25t62.5 17.5t71.5 6.5q73 0 133 -25t103.5 -73.5t67.5 -121t24 -166.5q0 -154 -44.5 -275.5t-124 -205.5t-190 -128.5 t-242.5 -44.5q-59 0 -108.5 8.5t-87.5 21t-64 26t-36 24.5q-6 6 -10 12.5t-6.5 15t-2.5 19.5zM264 150q19 -13 47 -23q24 -9 60 -16t84 -7q89 0 166 33t134 97.5t90 159.5t33 220q0 75 -15 128.5t-42.5 88t-66 50.5t-85.5 16q-36 0 -68 -9t-60.5 -24t-53 -34t-44.5 -39 q-48 -47 -85 -105z" />
<glyph unicode="c" horiz-adv-x="898" d="M86 387q0 140 45.5 257t123.5 201t182.5 130.5t221.5 46.5q78 0 131.5 -19t77.5 -43q11 -11 16 -22.5t5 -24.5q0 -12 -4 -23t-12 -19t-19.5 -13t-26.5 -5q-18 0 -33 7t-36 15t-51 15t-77 7q-75 0 -145.5 -34.5t-125.5 -99t-88 -155.5t-33 -203q0 -145 73 -220.5 t202 -75.5q45 0 77 6.5t56 14t41 14t31 6.5q22 0 34.5 -13.5t12.5 -33.5q0 -16 -5 -28t-16 -23q-25 -25 -90.5 -47.5t-165.5 -22.5q-93 0 -167 28t-126.5 80.5t-80.5 127.5t-28 169z" />
<glyph unicode="d" horiz-adv-x="1119" d="M89 368q0 154 44.5 275.5t124 205.5t190 128.5t242.5 44.5q42 0 76 -4.5t59 -9.5q29 -6 53 -13l3 1l10 66q5 35 11 71l49 283q5 32 24.5 49.5t55.5 17.5t53 -17.5t12 -49.5l-192 -1113q-6 -35 -10.5 -65.5t-8 -56.5t-5 -47t-1.5 -37q0 -15 1 -25t1 -24q0 -24 -15.5 -39 t-42.5 -15q-26 0 -42 11.5t-24.5 32.5t-10.5 50q-1 10 -1 20q0 21 3 45h-3q-36 -48 -85 -86q-21 -16 -47 -31.5t-56.5 -27.5t-65.5 -19t-74 -7q-73 0 -133 25t-103.5 73.5t-67.5 120.5t-24 167zM241 390q0 -75 15 -128.5t42.5 -88t66 -50.5t85.5 -16q35 0 67 9t60.5 23.5 t53.5 33.5t45 39q48 47 85 106l93 535q-20 12 -47 23q-23 8 -59 15.5t-84 7.5q-89 0 -166 -33.5t-134 -98t-90 -159.5t-33 -218z" />
<glyph unicode="e" horiz-adv-x="1010" d="M86 368q0 151 44 272t119.5 206t176.5 130.5t215 45.5q73 0 128.5 -18.5t93 -50.5t57 -75.5t19.5 -93.5q0 -89 -43.5 -157t-130.5 -112.5t-219 -65.5q-106 -17 -241 -17q-32 0 -66 1q-2 -21 -2 -41q0 -50 11 -92q15 -60 51 -102t92.5 -65.5t132.5 -23.5q56 0 96 8.5 t68.5 18t48 18t36.5 8.5q22 0 34.5 -13.5t12.5 -33.5q0 -16 -5 -28t-16 -23q-14 -14 -42.5 -28.5t-67.5 -26.5t-87.5 -19.5t-103.5 -7.5q-101 0 -178 28t-129 79t-78.5 122t-26.5 157zM255 551q43 -2 82 -2q85 0 155 9q100 13 166 41.5t98 70.5t32 94q0 63 -40 99t-128 36 q-61 0 -118.5 -22.5t-106 -67t-85 -109.5t-55.5 -149z" />
<glyph unicode="f" horiz-adv-x="621" d="M-290 -402q0 13 4.5 24t12.5 19t18.5 12t23.5 4t25 -3l26 -8q14 -4 31.5 -7.5t43.5 -3.5q35 0 68 11.5t61.5 40t50.5 76t34 119.5l173 1000h-117q-25 0 -38 13t-13 39q0 16 4.5 29t13.5 22t21 14t27 5h123l22 125q16 91 47.5 159t78.5 113t109 67.5t137 22.5 q63 0 100 -13.5t52 -28.5q9 -9 14 -19.5t5 -24.5t-4.5 -24.5t-13 -18.5t-19.5 -12t-23 -4q-14 0 -26 4l-25 7q-14 4 -32 7.5t-43 3.5q-83 0 -137.5 -59t-75.5 -183l-21 -122h183q25 0 38 -13t13 -39q0 -17 -4.5 -30t-13.5 -22t-21 -13.5t-27 -4.5h-189l-176 -1015 q-18 -100 -53 -168t-83.5 -109.5t-108.5 -59.5t-126 -18q-63 0 -99.5 13t-52.5 29q-9 9 -13.5 19.5t-4.5 24.5z" />
<glyph unicode="g" horiz-adv-x="1119" d="M35 -382q0 13 4.5 24t12 18.5t18.5 12t24 4.5q15 0 34.5 -7t47 -15t66 -15t92.5 -7q79 0 141.5 22.5t109 70.5t78.5 124t50 183l5 29l5 25l5 24q3 12 7 26h-3q-35 -44 -83 -78q-41 -29 -99 -53t-133 -24q-73 0 -133 25t-103.5 73.5t-67.5 120.5t-24 167q0 154 44.5 275.5 t124 205.5t190 128.5t242.5 44.5q60 0 109.5 -8.5t87.5 -21t63 -26.5t36 -24q6 -6 10 -12.5t6.5 -15t2.5 -19.5t-3 -26l-143 -829q-26 -149 -73 -251t-115.5 -164.5t-158.5 -89.5t-202 -27q-102 0 -167.5 20.5t-86.5 41.5q-11 11 -16 22.5t-5 25.5zM241 390q0 -75 15 -128.5 t42.5 -88t66 -50.5t85.5 -16q35 0 67 9t60.5 23.5t53.5 33.5t45 39q48 47 85 106l93 535q-20 12 -47 23q-23 8 -58.5 15.5t-83.5 7.5q-89 0 -166.5 -33.5t-134.5 -98t-90 -159.5t-33 -218z" />
<glyph unicode="h" horiz-adv-x="1167" d="M105 61l234 1355q5 32 24.5 49.5t55.5 17.5t53 -17.5t12 -49.5l-72 -419l-12 -65q-6 -31 -15 -65h3q35 43 83 77q20 15 45.5 29t55.5 25t65 17.5t74 6.5q74 0 132.5 -20.5t99 -59.5t62 -95t21.5 -127q0 -39 -7 -90.5t-18 -109.5l-22 -117l-23 -117q-10 -56 -17 -105 t-7 -84q0 -15 1 -25t1 -24q0 -23 -16.5 -38.5t-47.5 -15.5q-39 0 -61.5 23.5t-22.5 69.5q0 33 7 80.5t17 102.5t22 114.5t22 116.5t17 108.5t7 90.5q0 100 -50 148.5t-150 48.5q-37 0 -70.5 -9t-63 -24t-54.5 -34t-46 -39q-48 -47 -85 -105l-109 -625q-5 -32 -24.5 -49.5 t-55.5 -17.5t-53 17.5t-12 49.5z" />
<glyph unicode="i" horiz-adv-x="506" d="M104 61l153 882q5 32 24.5 49.5t55.5 17.5t53 -17.5t12 -49.5l-153 -882q-5 -32 -24.5 -49.5t-55.5 -17.5t-53 17.5t-12 49.5zM286 1315q0 25 8.5 46t24 36.5t36.5 24t46 8.5q22 0 41 -7.5t32.5 -21t21 -32.5t7.5 -42q0 -25 -8.5 -46t-24 -36.5t-36.5 -24t-46 -8.5 q-23 0 -41.5 7.5t-32 21t-21 32.5t-7.5 42z" />
<glyph unicode="j" horiz-adv-x="506" d="M-201 -432q0 22 11 35.5t34 22.5q56 22 96.5 49.5t69 69.5t48.5 104t36 154l163 940q5 32 24.5 49.5t55.5 17.5t53 -17.5t12 -49.5l-166 -957q-14 -81 -30.5 -140t-35.5 -102t-40 -73t-45 -54q-47 -47 -103.5 -75.5t-109.5 -28.5q-38 0 -55.5 15.5t-17.5 39.5zM286 1315 q0 25 8.5 46t24 36.5t36.5 24t46 8.5q22 0 41 -7.5t32.5 -21t21 -32.5t7.5 -42q0 -25 -8.5 -46t-24 -36.5t-36.5 -24t-46 -8.5q-23 0 -41.5 7.5t-32 21t-21 32.5t-7.5 42z" />
<glyph unicode="k" horiz-adv-x="1031" d="M104 61l234 1355q5 32 24.5 49.5t55.5 17.5t53 -17.5t12 -49.5l-72 -419l-12 -64q-6 -32 -15 -66h3q35 43 83 77q21 15 46.5 29t56 25t66 17.5t76.5 6.5q59 0 104.5 -15.5t77 -44t48 -68.5t16.5 -89q0 -68 -26 -123.5t-75.5 -98.5t-122 -73t-164.5 -46l257 -332 q8 -10 14 -18.5t10.5 -16.5t7 -16t2.5 -17q0 -16 -7 -29.5t-18 -23t-24.5 -15t-27.5 -5.5t-25 5t-19 13q-5 5 -10 11l-19 24l-267 357q-20 28 -33 50t-13 49q0 25 16.5 45.5t51.5 22.5q170 11 255.5 67t85.5 149q0 52 -33 82.5t-100 30.5q-37 0 -70.5 -9t-63 -24t-54.5 -34 t-46 -39q-48 -47 -85 -105l-109 -625q-3 -16 -9 -28.5t-15.5 -21t-23.5 -13t-32 -4.5q-36 0 -53 17.5t-12 49.5z" />
<glyph unicode="l" horiz-adv-x="541" d="M125 166q0 24 2.5 45t7.5 47l199 1158q5 32 24.5 49.5t55.5 17.5q32 0 49 -13.5t17 -39.5q0 -6 -1 -13.5t-5 -29.5l-194 -1127q-7 -40 -7 -67v-7q1 -28 9.5 -43.5t23 -21.5t32.5 -6q22 0 34 3t26 3q21 0 32.5 -13.5t11.5 -32.5q0 -16 -5 -27.5t-16 -22.5q-7 -7 -18 -13.5 t-26 -11t-34.5 -7.5t-43.5 -3q-87 0 -130.5 45.5t-43.5 130.5z" />
<glyph unicode="m" horiz-adv-x="1796" d="M104 61l155 894q5 29 21 43t42 14q28 0 43.5 -18t15.5 -60q0 -14 -1.5 -28t-3.5 -26l-4 -28h3q35 47 83 85q21 16 46.5 31t56 27t65.5 19.5t75 7.5q60 0 108 -14.5t84 -40t60.5 -61.5t36.5 -78q41 54 96 97q23 18 51.5 35.5t62 31t71.5 22t80 8.5q70 0 126.5 -20.5 t96 -59.5t60.5 -95t21 -127q0 -39 -7 -90.5t-18 -109.5l-22 -117l-23 -117q-10 -56 -17 -105t-7 -84q0 -15 1 -25t1 -24q0 -23 -16.5 -38.5t-47.5 -15.5q-39 0 -61.5 23.5t-22.5 69.5q0 33 7 80.5t17 102.5t22 114.5t22 116.5t17 108.5t7 90.5q0 100 -48.5 148.5 t-141.5 48.5q-36 0 -68.5 -9.5t-61.5 -25t-53.5 -35t-45.5 -40.5q-48 -48 -85 -109l-2 -17q-1 -17 -6 -49l-95 -551q-5 -32 -26 -49.5t-57 -17.5t-51.5 17.5t-10.5 49.5l91 527q5 31 8 59t3 53q0 100 -48.5 148.5t-141.5 48.5q-35 0 -67 -9t-60.5 -24t-53 -34t-44.5 -39 q-48 -47 -84 -105l-109 -625q-5 -32 -24.5 -49.5t-55.5 -17.5t-53 17.5t-12 49.5z" />
<glyph unicode="n" horiz-adv-x="1166" d="M104 61l155 894q5 29 21 43t42 14q28 0 43.5 -18t15.5 -60q0 -14 -1.5 -28t-3.5 -26l-4 -28h3q36 47 85 85q21 16 47 31t57.5 27t68 19.5t78.5 7.5q74 0 132 -20.5t98.5 -59.5t62 -95t21.5 -127q0 -39 -7 -90.5t-18 -109.5l-22 -117l-23 -117q-10 -56 -17 -105t-7 -84 q0 -15 1 -25t1 -24q0 -23 -16.5 -38.5t-47.5 -15.5q-39 0 -61.5 23.5t-22.5 69.5q0 33 7 80.5t17 102.5t22 114.5t22 116.5t17 108.5t7 90.5q0 100 -50 148.5t-150 48.5q-37 0 -70.5 -9t-62.5 -24t-54 -34t-46 -39q-48 -47 -86 -105l-109 -625q-5 -32 -24.5 -49.5 t-55.5 -17.5t-53 17.5t-12 49.5z" />
<glyph unicode="o" horiz-adv-x="1122" d="M89 382q0 146 44 264.5t119 202t176 128.5t215 45q88 0 160 -28t123 -80.5t79 -126.5t28 -165q0 -146 -44 -264.5t-119 -202t-176 -128.5t-215 -45q-89 0 -161 28t-123 80.5t-78.5 126t-27.5 165.5zM241 400q0 -72 18 -127t52 -91.5t81.5 -55.5t106.5 -19q75 0 144 33.5 t122 97t84.5 156t31.5 210.5q0 72 -18 127t-52 91.5t-81.5 55.5t-106.5 19q-75 0 -144 -33.5t-122 -97.5t-84.5 -156t-31.5 -210z" />
<glyph unicode="p" horiz-adv-x="1119" d="M23 -412l236 1367q5 29 21 43t42 14q28 0 43.5 -18t15.5 -60q0 -14 -1.5 -28t-3.5 -26l-4 -28h3q36 47 84 85q21 16 46.5 31t56 27t65.5 19.5t75 7.5q73 0 133 -25t103.5 -73.5t67.5 -121t24 -166.5q0 -154 -44.5 -275.5t-124 -205.5t-190 -128.5t-242.5 -44.5 q-42 0 -76.5 4t-59.5 9q-29 6 -52 14q-1 0 -1.5 -0.5t-1.5 -0.5l-10 -66q-5 -35 -11 -71l-49 -283q-5 -32 -24.5 -49.5t-55.5 -17.5t-53 17.5t-12 49.5zM264 147q19 -13 47 -23q24 -8 59.5 -15t84.5 -7q89 0 166 33t134 97.5t90 160.5t33 221q0 75 -15 128.5t-42.5 88 t-66 50.5t-85.5 16q-36 0 -68 -9t-60.5 -24t-53 -34t-44.5 -39q-48 -47 -85 -105z" />
<glyph unicode="q" horiz-adv-x="1118" d="M89 368q0 154 44.5 275.5t124 205.5t190 128.5t242.5 44.5q60 0 109.5 -8.5t87.5 -21t63 -26.5t36 -24q6 -6 10 -12.5t6.5 -15t2.5 -19.5t-3 -26l-221 -1281q-5 -32 -24.5 -49.5t-55.5 -17.5t-53 17.5t-12 49.5l72 419l12 64q6 31 15 66h-3q-35 -44 -83 -78 q-41 -29 -99 -53t-133 -24q-73 0 -133 25t-103.5 73.5t-67.5 120.5t-24 167zM241 390q0 -75 15 -128.5t42.5 -88t66 -50.5t85.5 -16q35 0 67 9t60.5 23.5t53.5 33.5t45 39q48 47 85 106l93 535q-20 12 -47 23q-23 8 -59 15.5t-84 7.5q-89 0 -166 -33.5t-134 -98t-90 -159.5 t-33 -218z" />
<glyph unicode="r" horiz-adv-x="683" d="M103 47q0 6 1 13.5t5 29.5l150 865q5 29 21 43t42 14q28 0 43.5 -18t15.5 -60q0 -16 -2 -33t-4 -31l-6 -34h2q28 40 60.5 74.5t67.5 59t72 38.5t74 14q49 0 74 -22t25 -57q0 -20 -6 -36.5t-16.5 -27.5t-24.5 -17t-30 -6q-10 0 -18 1t-16 3l-16 3q-8 1 -18 1 q-25 0 -53.5 -12t-60 -37t-64.5 -62t-66 -87l-106 -605q-5 -32 -24.5 -49.5t-55.5 -17.5q-32 0 -49 13.5t-17 39.5z" />
<glyph unicode="s" horiz-adv-x="836" d="M42 97q0 23 16 41t45 18q18 0 36.5 -8t45 -17.5t65.5 -17.5t100 -8q51 0 89.5 13t65 36t40 54t13.5 68q0 39 -17 67t-45.5 50t-64.5 40l-73 38q-38 19 -74 41t-64.5 51.5t-45.5 68.5t-17 93q0 64 23.5 118t70 94t116 62.5t160.5 22.5q78 0 132.5 -17.5t77.5 -40.5 q11 -11 16 -22.5t5 -24.5q0 -23 -16 -41t-45 -18q-18 0 -33 6.5t-35.5 14t-50 14t-75.5 6.5q-104 0 -151 -41.5t-47 -109.5q0 -49 29.5 -81t74.5 -57t96.5 -49t96.5 -57.5t74.5 -82t29.5 -122.5q0 -66 -25.5 -124t-74.5 -101t-119.5 -67.5t-160.5 -24.5q-54 0 -97.5 6.5 t-76.5 16t-55 21.5t-34 24q-11 11 -16 22.5t-5 24.5z" />
<glyph unicode="t" horiz-adv-x="669" d="M110 934q0 16 4.5 29t13.5 22t21 14t27 5h122l58 205q4 16 11.5 28.5t17 21t21 13t25.5 4.5q27 0 40 -16t8 -45l-36 -211h218q25 0 38 -13t13 -39q0 -17 -4.5 -30t-13.5 -22t-21 -13.5t-27 -4.5h-223l-108 -623q-5 -27 -5 -48q0 -41 18 -63q26 -34 82 -34q23 0 40.5 2.5 t30.5 6t23.5 6t20.5 2.5q22 0 34 -12t12 -32q0 -16 -5 -28t-16 -23q-20 -20 -64 -33t-101 -13q-131 0 -185 67q-37 47 -37 126q0 34 7 75l108 624h-117q-25 0 -38 13t-13 39z" />
<glyph unicode="u" horiz-adv-x="1159" d="M142 284q0 29 4 63.5t9 66.5l92 529q5 32 24.5 49.5t55.5 17.5t53 -17.5t12 -49.5l-91 -527q-6 -34 -8.5 -59t-2.5 -53q0 -100 49 -148.5t143 -48.5q37 0 70 9t62.5 23.5t54.5 33.5t46 39q48 47 86 106l109 625q5 32 24.5 49.5t55.5 17.5t53 -17.5t12 -49.5l-111 -640 q-6 -35 -10.5 -65.5t-8 -56.5t-5 -47t-1.5 -37q0 -15 1 -25t1 -24q0 -24 -15.5 -39t-42.5 -15q-51 0 -67 43q-11 29 -12 71q0 20 3 44h-3q-36 -48 -85 -85q-21 -16 -47 -31.5t-57.5 -27.5t-68 -19t-78.5 -7q-71 0 -127.5 20.5t-96.5 59.5t-61 95t-21 127z" />
<glyph unicode="v" horiz-adv-x="951" d="M101 949q0 16 7.5 28t19 20.5t26 13t28.5 4.5q15 0 28 -5t21 -13t12.5 -19.5t9.5 -31.5q23 -96 44.5 -197.5t40.5 -202.5t35.5 -198t28.5 -183h3q45 62 95 138.5t101.5 171.5t101 210t93.5 255l11 34q4 13 15 24q8 8 20.5 12.5t26.5 4.5q13 0 26 -4t23.5 -11.5t16.5 -19 t6 -25.5q0 -7 -2 -17.5t-10 -36.5q-27 -97 -69 -195t-90 -190t-98 -174t-94 -146.5t-78 -108.5t-49 -59q-6 -6 -14 -12.5t-18 -11t-21.5 -7.5t-26.5 -3q-21 0 -35.5 5.5t-24.5 16.5t-16.5 29t-10.5 42q-36 216 -81.5 425.5t-93.5 396.5q-2 10 -5 21t-3 19z" />
<glyph unicode="w" horiz-adv-x="1526" d="M129 947q0 15 6.5 27.5t17 21.5t25 14t30.5 5t28.5 -5t21.5 -14t12.5 -22t8.5 -41q18 -113 31.5 -211t23.5 -190.5t18 -183.5l15 -190h3l74 151l77 164l89 195l112 246q6 12 10.5 22.5t9.5 19.5t10.5 16.5t12.5 14.5q12 12 29.5 19t43.5 7q22 0 37.5 -5t26.5 -16 q16 -16 20 -35t8 -45l34 -243q14 -106 24.5 -194.5t18 -164.5t13.5 -152h3q44 73 88.5 163t86.5 191.5t79.5 210t68.5 218.5q6 22 11 35t14 22q8 8 19.5 12.5t25.5 4.5t27 -4.5t23 -12.5t16 -19t6 -25q0 -8 -1.5 -15.5t-7.5 -29.5q-21 -82 -55.5 -174.5t-74.5 -186t-82 -181 t-80 -158t-67.5 -119t-43.5 -62.5q-9 -9 -18 -15t-19 -10.5t-21.5 -6.5t-25.5 -2q-21 0 -37 5.5t-26.5 16.5t-16.5 29t-9 42l-20 185l-20 177q-10 89 -22 182t-27 199h-4l-95 -214l-84 -183l-82 -171l-87 -178q-11 -23 -20 -37t-20 -25q-13 -13 -32 -20.5t-51 -7.5 q-21 0 -37.5 5.5t-28 16.5t-18.5 29t-10 42l-25 219q-12 100 -24.5 195.5t-27.5 193.5t-34 211q-4 22 -4.5 29t-0.5 12z" />
<glyph unicode="x" horiz-adv-x="1001" d="M-2 55q0 10 4 21t19 33q8 12 26 34l40 47l50 55l53 56l53 53l56 55l58 56l63 57l-231 364q-5 7 -9 13.5t-7 13.5t-5 13.5t-2 14.5q0 16 7.5 30t19.5 23.5t26.5 15t28.5 5.5q16 0 26.5 -5t19.5 -14q6 -6 11 -13l13 -21l213 -355l76 74l76 82q39 43 80 94l87 110 q12 16 17 22l10 10q7 7 17.5 11.5t25.5 4.5q11 0 23.5 -4t23.5 -12t18 -20t7 -28q0 -10 -4 -21t-19 -33q-8 -12 -25 -33l-41 -48l-49 -55l-54 -56l-48 -48l-46 -46l-51 -48l-62 -58l244 -385q4 -7 8.5 -13.5t7.5 -13.5t5 -14t2 -14q0 -17 -7.5 -30.5t-19.5 -23t-26.5 -15 t-28.5 -5.5q-16 0 -26.5 5t-19.5 14q-6 6 -10 13l-14 21l-226 377l-90 -89l-82 -88l-82 -95l-87 -110q-12 -16 -17 -21l-10 -11q-7 -7 -18 -11.5t-26 -4.5q-11 0 -23.5 4t-23 12t-18 20t-7.5 28z" />
<glyph unicode="y" horiz-adv-x="956" d="M-219 -408q0 13 4.5 24t12 18.5t18.5 12t24 4.5q18 0 32 -3.5t41 -3.5q41 0 84 13.5t92 47.5t105 92.5t124 147.5q-27 163 -52 299t-50 253t-49 218l-48 194q-2 10 -5 21t-3 19q0 16 7.5 28t19 20.5t26 13t28.5 4.5q15 0 28 -5t21 -13t12.5 -19.5t9.5 -31.5 q46 -192 86.5 -403.5t75.5 -449.5h3q48 75 95.5 159.5t94.5 186.5t94 225.5t94 275.5l11 34q4 13 15 24q8 8 20.5 12.5t26.5 4.5q13 0 26 -4t23.5 -11.5t16.5 -19t6 -25.5q0 -7 -2 -17.5t-10 -36.5q-41 -146 -95 -282t-118.5 -263.5t-139.5 -246t-159 -227.5 q-80 -104 -150.5 -173.5t-134.5 -112.5t-123 -61t-116 -18q-36 0 -61 7.5t-39 19.5q-12 11 -17 22.5t-5 25.5z" />
<glyph unicode="z" horiz-adv-x="915" d="M26 67q0 11 2.5 21t7.5 20t12.5 20.5t17.5 22.5l628 731h-448q-25 0 -38 13t-13 39q0 16 4.5 29t13.5 22t21 14t27 5h543q19 0 33.5 -5.5t24.5 -15t15 -23.5t5 -30q0 -11 -2.5 -21t-7.5 -20t-12.5 -20.5t-17.5 -22.5l-628 -731l48 2q29 2 63.5 3t72.5 1.5t77 0.5 q88 0 153.5 -3t95.5 -8q32 -5 45 -20.5t13 -37.5q0 -15 -4.5 -26.5t-13.5 -19.5t-21.5 -12t-28.5 -4q-17 0 -37.5 1.5t-50.5 3t-73 3t-105 1.5q-105 0 -187 -4.5t-144 -4.5q-24 0 -41 5.5t-28.5 15.5t-16.5 24t-5 31z" />
<glyph unicode="{" horiz-adv-x="646" d="M85 594q0 17 4.5 28.5t12.5 19.5q10 10 24.5 14t32.5 9.5t39.5 16.5t44.5 34q16 16 29.5 43t25 60t20.5 71t15 77l43 244q15 87 39.5 146.5t58.5 96.5t75.5 53.5t91.5 16.5h4q25 0 43 -4.5t29 -12.5t16.5 -19.5t5.5 -25.5q0 -25 -17 -40t-55 -15h-8q-29 0 -51 -8 t-38.5 -29t-29 -57.5t-22.5 -93.5l-42 -243q-17 -96 -36 -160t-43.5 -106.5t-55 -68.5t-69.5 -45l-1 -2q32 -19 54 -44.5t32.5 -66t8.5 -99.5t-17 -145l-52 -297q-11 -62 -11 -100t9.5 -59t28.5 -28t47 -7h7q26 0 40.5 -12.5t14.5 -35.5q0 -15 -6 -27.5t-19 -21.5 t-32.5 -14.5t-46.5 -5.5h-4q-53 0 -91.5 17t-60.5 53.5t-27 93.5t9 138l52 302q7 39 12 78t5.5 74t-6 63t-22.5 45q-15 15 -29 22.5t-26 12.5l-23 9q-10 4 -19 13q-7 7 -10.5 16.5t-3.5 25.5z" />
<glyph unicode="|" horiz-adv-x="594" d="M71 -441q0 6 0.5 12t2.5 14l321 1850q5 28 23.5 44t49.5 16q26 0 41 -13t15 -38q0 -6 -0.5 -12t-2.5 -14l-321 -1850q-5 -28 -23.5 -44t-49.5 -16q-26 0 -41 13t-15 38z" />
<glyph unicode="}" horiz-adv-x="646" d="M-66 -307q0 25 17 40t55 15h8q29 0 51 8t38.5 29t29 57.5t22.5 93.5l49 284q16 96 35.5 160t44 106.5t55 68.5t69.5 45l1 2q-32 19 -54 44.5t-32.5 66t-8.5 99.5t17 145l45 256q10 61 10.5 99t-9 59t-28.5 28.5t-47 7.5h-7q-26 0 -40.5 12.5t-14.5 35.5q0 15 6 27.5 t19 21.5t32.5 14.5t46.5 5.5h4q53 0 91.5 -17t60.5 -53.5t27 -93.5t-9 -138l-45 -261q-7 -39 -12 -78t-5.5 -74t5.5 -63.5t23 -44.5q15 -15 29 -22.5t26 -12.5l23 -9q10 -4 19 -13q7 -7 10.5 -16.5t3.5 -25.5q0 -17 -4.5 -28.5t-12.5 -19.5q-10 -10 -24.5 -14t-32.5 -9.5 t-39.5 -16.5t-44.5 -34q-16 -16 -29.5 -43t-25 -60t-20 -71t-15.5 -77l-50 -285q-15 -87 -39.5 -146.5t-58.5 -96.5t-76 -53.5t-91 -16.5h-4q-25 0 -43 4.5t-29 12.5t-16.5 19.5t-5.5 25.5z" />
<glyph unicode="~" d="M158 509q0 8 2.5 17t8.5 20q22 38 53.5 70t69 55t79 36t83.5 13q43 0 74.5 -10.5t56.5 -27t46 -35t42 -35t44 -27t53 -10.5q23 0 46 9.5t45 25t42.5 36.5t38.5 44q11 14 22 19t23 5q23 0 37.5 -15t14.5 -40q0 -8 -2.5 -17t-8.5 -20q-22 -38 -53.5 -70t-69 -55t-79.5 -36 t-84 -13t-73.5 10.5t-56 27t-45.5 35t-42 35t-44.5 27t-53.5 10.5q-23 0 -46 -9.5t-45 -25t-42.5 -36.5t-38.5 -44q-11 -14 -22 -19t-23 -5q-23 0 -37.5 15t-14.5 40z" />
<glyph unicode="&#xa1;" horiz-adv-x="592" d="M67 -378q0 4 0.5 7.5t1 8.5t2 13.5t4.5 22.5l177 951q6 31 24 47t50 16q31 0 47 -16.5t12 -47.5l-153 -963l-4 -21q-1 -10 -3 -18.5t-6 -15.5t-10 -13q-12 -12 -29 -17.5t-38 -5.5q-20 0 -34 4t-23 10.5t-13.5 16t-4.5 21.5zM259 953q0 26 9.5 48t26 38.5t39 26t48.5 9.5 q25 0 45.5 -8t35 -22.5t22.5 -35t8 -44.5q0 -26 -9.5 -48.5t-26 -39t-39 -26t-48.5 -9.5q-25 0 -45.5 8t-35 22.5t-22.5 35t-8 45.5z" />
<glyph unicode="&#xa2;" horiz-adv-x="986" d="M127 527q0 109 34 205t96.5 171.5t151.5 126t199 68.5l42 241q5 30 21.5 44t45.5 14t43.5 -14t9.5 -44l-40 -232q75 -2 129 -19.5t76 -39.5q11 -11 16 -22.5t5 -24.5q0 -12 -4 -22.5t-11.5 -18.5t-19 -12.5t-25.5 -4.5q-17 0 -33 6t-38.5 13.5t-54 13.5t-78.5 6 q-89 0 -165 -31t-131 -88.5t-86 -138.5t-31 -180q0 -140 74 -215t217 -75q52 0 89 7.5t63 16t43.5 16t31.5 7.5q22 0 34.5 -13.5t12.5 -33.5q0 -16 -5 -28t-16 -23q-12 -12 -36 -25t-57.5 -23.5t-76.5 -18t-93 -8.5l-40 -234q-5 -30 -21.5 -44t-45.5 -14t-43.5 14t-9.5 44 l41 242q-80 13 -139 47t-98 84.5t-58 116.5t-19 143z" />
<glyph unicode="&#xa3;" horiz-adv-x="1023" d="M61 87q0 16 3 29.5t10.5 27t19.5 28.5t29 34q35 38 68 82.5t58.5 98t41 117.5t15.5 142h-108q-25 0 -38 13.5t-13 39.5q0 17 4.5 30t13.5 22t21 14t27 5h85q-5 42 -9 82.5t-4 85.5q0 103 33 186.5t96 142t154 90.5t206 32q78 0 135.5 -14.5t80.5 -37.5q11 -11 16 -22.5 t5 -24.5q0 -12 -4 -23t-12 -19t-19.5 -13t-26.5 -5q-16 0 -33 5.5t-40 11.5t-54 11.5t-75 5.5q-70 0 -127.5 -19.5t-98 -58.5t-63 -97.5t-22.5 -135.5q0 -49 5 -93l10 -90h356q25 0 38 -13.5t13 -39.5q0 -17 -4.5 -30t-13.5 -22t-21 -14t-27 -5h-335q-2 -83 -18 -154.5 t-44.5 -135t-68.5 -119t-89 -104.5l1 -2h585q26 0 39 -14t13 -42q0 -18 -5 -32t-14.5 -23.5t-23 -14.5t-30.5 -5h-653q-44 0 -66 23t-22 64z" />
<glyph unicode="&#xa4;" horiz-adv-x="1009" d="M87 320q0 15 7.5 26t21.5 23l110 98q-23 36 -34.5 80t-11.5 96q0 101 34.5 183.5t95.5 140.5l-86 119q-6 9 -9 16t-3 16q0 13 6 24.5t16 20.5t22.5 14.5t25.5 5.5q29 0 43 -26l71 -129q43 23 92 35t103 12q59 0 107.5 -13.5t86.5 -39.5l98 111q11 13 21.5 19.5t24.5 6.5 q12 0 23.5 -5t20.5 -13.5t14.5 -20t5.5 -23.5q0 -15 -7.5 -25.5t-21.5 -23.5l-109 -99q46 -72 46 -176q0 -101 -34.5 -183t-96.5 -140l86 -119q6 -9 9 -16t3 -16q0 -13 -6 -24.5t-16 -20.5t-22.5 -14.5t-25.5 -5.5q-29 0 -43 26l-71 128q-87 -46 -195 -46q-118 0 -194 53 l-98 -111q-11 -13 -21.5 -19.5t-24.5 -6.5q-12 0 -23.5 5t-20.5 13.5t-14.5 20t-5.5 23.5zM311 657q0 -99 51.5 -153.5t144.5 -54.5q54 0 102 21.5t83.5 62t56.5 98t21 129.5q0 99 -51.5 153.5t-145.5 54.5q-54 0 -101.5 -21.5t-83 -62t-56.5 -98t-21 -129.5z" />
<glyph unicode="&#xa5;" horiz-adv-x="1190" d="M172 288q0 29 16 48t47 19h260l28 161h-258q-45 0 -45 49q0 29 16 48t47 19h246l-275 648q-4 9 -6 17t-2 16q0 18 8 31.5t20.5 23t27 14.5t27.5 5q24 0 38 -12.5t22 -31.5l201 -497l15 -41q8 -20 13 -35l11 -34h4q10 17 23 35l25 36l32 44l368 500q13 18 26.5 27t33.5 9 q13 0 26.5 -5t24 -14.5t17 -22t6.5 -27.5q0 -14 -4.5 -24t-14.5 -22l-493 -640h244q22 0 33.5 -13t11.5 -36q0 -29 -16 -48t-47 -19h-259l-28 -161h257q22 0 33.5 -13t11.5 -36q0 -29 -16 -48t-47 -19h-259l-31 -178q-5 -32 -24.5 -49.5t-56.5 -17.5t-54 17.5t-12 49.5 l31 178h-258q-45 0 -45 49z" />
<glyph unicode="&#xa6;" horiz-adv-x="594" d="M71 -441q0 6 0.5 12t2.5 14l123 711q5 28 23.5 44t49.5 16t45.5 -17.5t9.5 -47.5l-125 -723q-5 -28 -23.5 -44t-49.5 -16q-26 0 -41 13t-15 38zM272 730l123 705q5 28 23.5 44t49.5 16q26 0 41 -13t15 -38q0 -6 -0.5 -12t-2.5 -14l-121 -694q-5 -28 -23.5 -44t-49.5 -16 t-45.5 17.5t-9.5 48.5z" />
<glyph unicode="&#xa7;" horiz-adv-x="1072" d="M107 -232q0 12 4 22.5t12 18.5t19 13t26 5q18 0 34 -7l37 -14q22 -9 53.5 -15.5t79.5 -6.5q58 0 101 13.5t71.5 37.5t42.5 57t14 73q0 42 -20 74.5t-52.5 59.5t-73.5 51l-85 50q-44 25 -85.5 54t-74 65t-52.5 82t-20 106q0 69 20 126t56.5 103.5t87 82.5t110.5 64 q-36 35 -58 80t-22 107q0 69 26.5 128.5t78 103.5t126.5 69.5t172 25.5q48 0 84.5 -6t63 -15t44 -19.5t26.5 -19.5q11 -11 16 -22.5t5 -24.5q0 -12 -4 -22.5t-12 -18.5t-19 -13t-26 -5q-18 0 -34 6l-37 15q-22 9 -53.5 15.5t-79.5 6.5q-58 0 -101 -13.5t-71.5 -37.5 t-42.5 -57t-14 -73q0 -42 20 -74.5t52.5 -59.5t74.5 -52l85 -49q43 -25 84.5 -54t74 -65t52.5 -82t20 -106q0 -69 -20.5 -126.5t-56.5 -103.5t-86.5 -82.5t-110.5 -63.5q35 -35 57.5 -80.5t22.5 -106.5q0 -69 -26.5 -128.5t-78 -103.5t-126.5 -69.5t-172 -25.5 q-48 0 -84.5 6t-63 15t-44 19.5t-26.5 19.5q-11 11 -16 22.5t-5 24.5zM292 530q0 -53 23 -92t61 -70.5t86 -58.5l100 -55q60 27 103 55.5t70.5 61.5t40.5 71.5t13 85.5q0 50 -23 88.5t-61.5 70.5t-86.5 60l-100 56q-60 -27 -102.5 -55t-70 -61t-40.5 -71.5t-13 -85.5z" />
<glyph unicode="&#xa8;" horiz-adv-x="1024" d="M346 1313q0 24 8.5 45t24 36.5t36.5 24t46 8.5q21 0 39 -7.5t31 -20.5t20.5 -31t7.5 -39q0 -24 -8.5 -45t-23.5 -36.5t-35.5 -24.5t-45.5 -9q-21 0 -39.5 7.5t-32 20.5t-21 31t-7.5 40zM728 1313q0 24 8.5 45t24 36.5t36.5 24t46 8.5q21 0 39 -7.5t31 -20.5t20.5 -31 t7.5 -39q0 -24 -8.5 -45t-23.5 -36.5t-35.5 -24.5t-45.5 -9q-21 0 -39.5 7.5t-32 20.5t-21 31t-7.5 40z" />
<glyph unicode="&#xa9;" horiz-adv-x="1572" d="M127 646q0 165 55 303t153 237.5t231.5 155t291.5 55.5q145 0 265 -47.5t206 -134.5t133 -209.5t47 -272.5q0 -110 -25 -208.5t-71 -182t-112 -150t-147 -113.5t-176 -72t-200 -25q-146 0 -265.5 47.5t-205.5 134.5t-133 209.5t-47 272.5zM245 660q0 -135 39 -242 t111 -181t174 -113.5t228 -39.5q129 0 238 45t188 128t123.5 200.5t44.5 261.5q0 135 -39 242t-111 181t-173.5 113.5t-227.5 39.5q-129 0 -238.5 -45t-188.5 -128t-123.5 -200.5t-44.5 -261.5zM464 595q0 117 35.5 211t96.5 161t142.5 103t174.5 36q36 0 66.5 -5t54 -12.5 t40.5 -17.5t26 -19q16 -16 16 -39q0 -20 -13 -34.5t-35 -14.5q-12 0 -25 6t-31.5 13t-44.5 13t-65 6q-60 0 -115.5 -27t-98 -77t-68.5 -123t-26 -164q0 -107 55.5 -163t150.5 -56q37 0 65 6t49 13.5t35.5 13.5t26.5 6q18 0 27.5 -10.5t9.5 -27.5q0 -13 -4 -23t-14 -20 q-12 -12 -34 -23.5t-51 -20t-63.5 -14t-70.5 -5.5q-74 0 -131.5 21t-98 60.5t-61.5 97t-21 129.5z" />
<glyph unicode="&#xaa;" horiz-adv-x="812" d="M79 510q0 26 15.5 41.5t43.5 15.5h544q21 0 33 -12t12 -33q0 -26 -15.5 -41.5t-43.5 -15.5h-544q-21 0 -33 12t-12 33zM159 949q0 104 30 185.5t84 138t130 86.5t168 30q44 0 79 -6t61.5 -14t43.5 -18t24 -17q4 -4 7.5 -9t5.5 -12t2 -16t-2 -21l-62 -358q-5 -26 -8 -47 t-5 -38t-3 -31t-1 -24q0 -11 0.5 -18t0.5 -17q0 -21 -13.5 -34t-37.5 -13q-38 0 -51.5 29t-10.5 76h-2q-22 -31 -55 -56q-28 -21 -68.5 -38.5t-94.5 -17.5q-50 0 -90.5 16.5t-70 49.5t-45.5 81.5t-16 112.5zM287 966q0 -92 35 -133t93 -41q44 0 78.5 20.5t60.5 45.5 q29 29 53 66l59 336q-12 8 -29 14q-14 5 -36 9.5t-51 4.5q-55 0 -103 -21t-83.5 -61.5t-56 -101t-20.5 -138.5z" />
<glyph unicode="&#xab;" horiz-adv-x="1130" d="M105 511q0 25 11 42.5t33 36.5l403 338q16 13 35 13q13 0 24.5 -5.5t19.5 -14t13 -19.5t5 -23q0 -11 -4.5 -21t-14.5 -19l-367 -329l233 -344q5 -8 8 -16t3 -19q0 -14 -6.5 -25.5t-16.5 -20t-22.5 -13.5t-24.5 -5q-14 0 -25.5 5.5t-21.5 18.5l-263 361q-10 14 -16 28 t-6 31zM555 491q0 25 11 42.5t33 36.5l404 338q8 7 16.5 10t18.5 3q12 0 23 -5t19 -13.5t13 -19.5t5 -23q0 -11 -4.5 -21t-14.5 -19l-368 -330l205 -305q11 -17 11 -34q0 -13 -6 -24.5t-16 -20.5t-22 -14t-25 -5t-25 5.5t-21 18.5l-235 321q-10 14 -16 28t-6 31z" />
<glyph unicode="&#xac;" d="M193 571q0 32 19.5 52t51.5 20h668q67 0 67 -55q0 -10 -1 -19t-3 -18l-51 -285q-6 -35 -26 -53t-52 -18q-31 0 -44 18t-7 53l45 254h-610q-29 0 -43 14t-14 37z" />
<glyph unicode="&#xad;" horiz-adv-x="952" d="M174 525q0 16 4.5 29.5t13.5 22.5t21 14t27 5h500q25 0 38 -13t13 -39q0 -17 -4.5 -30t-13.5 -22t-21 -14t-27 -5h-500q-25 0 -38 13t-13 39z" />
<glyph unicode="&#xae;" horiz-adv-x="967" d="M170 1065q0 95 31.5 174t88.5 136t136.5 88.5t175.5 31.5q89 0 162 -28.5t125.5 -79.5t81 -122t28.5 -155q0 -95 -31.5 -174t-88.5 -136t-136.5 -88.5t-175.5 -31.5q-89 0 -162 28.5t-125.5 79.5t-81 122t-28.5 155zM253 1071q0 -71 23 -129.5t65.5 -100.5t102 -65 t131.5 -23q76 0 138.5 25t107.5 71t70 110.5t25 144.5q0 71 -23 129.5t-65.5 100.5t-102 65t-131.5 23q-76 0 -138.5 -25t-107.5 -71t-70 -111t-25 -144zM413 907l64 364q3 17 12 25t26 8h104q38 0 65 -8t44.5 -22.5t26 -35t8.5 -45.5q0 -52 -33.5 -87.5t-81.5 -46.5 q9 -39 19.5 -63t21 -38.5t20 -22t15.5 -13.5q4 -4 6 -8.5t2 -11.5q0 -13 -11 -22t-30 -9q-16 0 -29.5 6t-27.5 20q-18 18 -35 57.5t-25 95.5h-60l-25 -143q-3 -17 -13 -26t-29 -9t-28 9t-6 26zM524 1113h65q51 0 73 21t22 52q0 26 -17.5 39.5t-59.5 13.5h-62z" />
<glyph unicode="&#xaf;" horiz-adv-x="1024" d="M345 1310q0 15 4.5 27.5t12.5 21t20 13.5t27 5h484q25 0 37 -13t12 -36q0 -15 -4.5 -27.5t-12.5 -21t-20 -13.5t-27 -5h-484q-25 0 -37 13t-12 36z" />
<glyph unicode="&#xb0;" horiz-adv-x="810" d="M242 1208q0 59 23 111.5t63.5 91.5t96 61.5t120.5 22.5q64 0 115.5 -18.5t87 -53t54.5 -83t19 -107.5t-23 -110.5t-63.5 -90.5t-96 -61.5t-120.5 -22.5t-116 19t-86.5 53t-54.5 82t-19 106zM369 1219q0 -38 11.5 -68.5t33 -52.5t51 -33.5t65.5 -11.5t66 12.5t51.5 35 t34 53.5t12.5 69q0 77 -44.5 122.5t-117.5 45.5q-35 0 -65 -12.5t-52 -35t-34 -54.5t-12 -70z" />
<glyph unicode="&#xb1;" d="M92 51q0 16 5 29.5t15 23t23.5 14.5t30.5 5h696q28 0 42 -13.5t14 -37.5q0 -16 -5 -29.5t-15 -23t-23.5 -14.5t-30.5 -5h-694q-28 0 -43 14t-15 37zM207 707q0 16 5 29t15 22.5t23.5 14.5t30.5 5h284l51 299q6 35 26.5 53.5t51.5 18.5t44 -18t7 -54l-49 -299h281 q28 0 41.5 -14t13.5 -37q0 -16 -5 -29.5t-14.5 -23t-23.5 -14.5t-31 -5h-284l-51 -299q-6 -35 -26 -53t-52 -18q-29 0 -44 18t-9 53l53 299h-281q-28 0 -42.5 13.5t-14.5 38.5z" />
<glyph unicode="&#xb2;" horiz-adv-x="665" d="M93 695q0 23 9 42.5t35 40.5l173 141l108 91q43 38 69 68t36.5 56.5t10.5 57.5q0 42 -25.5 66t-78.5 24q-30 0 -53.5 -5t-42.5 -10.5t-34.5 -10.5t-28.5 -5q-19 0 -29.5 11.5t-10.5 29.5q0 11 3.5 20.5t14.5 20.5t32 21.5t48.5 18.5t61 13t68.5 5q57 0 99.5 -13 t70.5 -36.5t41.5 -56t13.5 -72.5q0 -46 -14 -85t-47.5 -80t-89.5 -89.5t-139 -112.5l-135 -105h315q44 0 44 -49q0 -26 -15.5 -44.5t-41.5 -18.5h-396q-34 0 -53 17.5t-19 48.5z" />
<glyph unicode="&#xb3;" horiz-adv-x="678" d="M127 696q0 23 14 37t36 14q12 0 23.5 -4t28 -9t40.5 -9t59 -4q41 0 73 11t54.5 29.5t34 43.5t11.5 53q0 25 -9.5 45t-32.5 34t-61 21t-96 7q-20 0 -28 8q-7 7 -9.5 18.5t-2 24t5 24.5t12.5 20q6 6 13 8.5t21 2.5q63 0 105 10.5t68 28.5t37 42t11 50q0 38 -25 59.5 t-79 21.5q-26 0 -47 -5t-38 -10.5t-31 -10.5t-26 -5q-20 0 -30.5 12t-10.5 30q0 14 5.5 25t17.5 21q13 10 33 19.5t45 16.5t54 11t60 4q56 0 97 -13t67.5 -35.5t39.5 -53.5t13 -67q0 -69 -43 -118t-112 -75l-1 -1q57 -11 90.5 -51t33.5 -102q0 -54 -22.5 -101.5t-65.5 -82.5 t-105 -55t-141 -20q-69 0 -108.5 12.5t-56.5 25.5q-22 17 -22 42z" />
<glyph unicode="&#xb4;" horiz-adv-x="1024" d="M463 1209q0 10 4 18t12 18l207 247q17 20 42 20q15 0 30 -7t27 -18.5t19.5 -26.5t7.5 -30q0 -13 -5 -22.5t-14 -18.5l-237 -221q-7 -6 -15.5 -9.5t-17.5 -3.5q-11 0 -22 4.5t-19.5 12t-13.5 17.5t-5 20z" />
<glyph unicode="&#xb5;" d="M22 -427q0 6 0.5 12t2.5 14l232 1344q5 32 24.5 49.5t55.5 17.5t53 -17.5t12 -49.5l-91 -527q-6 -33 -8.5 -58.5t-2.5 -53.5q0 -100 48.5 -148.5t142.5 -48.5q37 0 70.5 9t63 23.5t54.5 33.5t46 39q48 47 86 106l109 626q5 31 24.5 48.5t55.5 17.5q32 0 49 -13.5 t17 -39.5q0 -6 -1 -13.5t-5 -29.5l-106 -611q-6 -35 -10.5 -65.5t-8 -56.5t-5 -47t-1.5 -37q0 -15 1 -25t1 -24q0 -24 -15.5 -39t-42.5 -15q-51 0 -67.5 43t-8.5 115h-3q-36 -48 -85 -85q-21 -16 -47 -31.5t-57.5 -27.5t-68 -19t-78.5 -7q-59 0 -100.5 12t-68.5 27 q-32 17 -52 39l-3 -2l-53 -393l-5 -37q-3 -17 -7 -34q-9 -40 -30.5 -56.5t-53.5 -16.5t-47.5 13.5t-15.5 38.5z" />
<glyph unicode="&#xb6;" horiz-adv-x="1247" d="M192 867q0 116 35 210.5t109 161t188.5 103t273.5 36.5h317q34 0 50.5 -14.5t16.5 -43.5q0 -9 -1 -17.5t-3 -17.5l-268 -1553q-11 -60 -72 -60q-32 0 -46.5 15.5t-9.5 44.5l263 1520h-198l-262 -1520q-11 -60 -72 -60q-32 0 -46.5 15.5t-9.5 44.5l133 770q-95 0 -169 25 t-125 71.5t-77.5 114.5t-26.5 154z" />
<glyph unicode="&#xb7;" horiz-adv-x="550" d="M162 532q0 25 9.5 47.5t25.5 38.5t38 25.5t48 9.5q25 0 46.5 -8.5t37 -24t24 -37t8.5 -46.5q0 -26 -9.5 -48t-25.5 -38t-38 -25.5t-47 -9.5q-26 0 -47 8.5t-37 24t-24.5 37t-8.5 46.5z" />
<glyph unicode="&#xb8;" horiz-adv-x="1024" d="M172 -430q0 22 13.5 36t34.5 14q12 0 24.5 -1.5t29.5 -1.5q43 0 73.5 7.5t50.5 20.5t29.5 31.5t9.5 41.5q0 29 -18 47t-60 18h-6q-23 0 -32.5 15.5t3.5 46.5l64 155h112l-46 -112q31 -6 55 -17.5t40.5 -30t24.5 -44t8 -57.5q0 -48 -20.5 -90.5t-59 -73.5t-93 -49 t-123.5 -18q-32 0 -54 4.5t-35.5 13t-19 19.5t-5.5 25z" />
<glyph unicode="&#xb9;" horiz-adv-x="532" d="M168 1230q0 12 3.5 21.5t13.5 19.5q13 13 53 33.5t89 40.5q52 22 82 31.5t55 9.5q29 0 43 -15.5t14 -39.5q0 -5 -0.5 -12t-2.5 -16l-107 -618q-5 -30 -24.5 -46t-54.5 -16t-50 17t-10 45l95 546l-101 -33q-16 -5 -30 -8.5t-26 -3.5q-20 0 -31 13t-11 31z" />
<glyph unicode="&#xba;" horiz-adv-x="873" d="M107 510q0 26 15.5 41.5t43.5 15.5h559q21 0 33 -12t12 -33q0 -26 -15.5 -41.5t-43.5 -15.5h-559q-21 0 -33 12t-12 33zM198 959q0 99 29.5 178.5t81.5 135.5t122.5 86.5t153.5 30.5q64 0 115 -19t86.5 -54.5t54.5 -85.5t19 -111q0 -99 -29.5 -178.5t-81.5 -135.5 t-123 -86.5t-153 -30.5q-64 0 -115 19t-86.5 54.5t-54.5 85t-19 111.5zM326 974q0 -92 44 -137.5t120 -45.5q48 0 92 21t77 61t53 98.5t20 133.5q0 91 -44 137t-120 46q-48 0 -92 -21t-77.5 -61t-53 -98.5t-19.5 -133.5z" />
<glyph unicode="&#xbb;" horiz-adv-x="1130" d="M32 143q0 11 4.5 21t14.5 19l368 330l-205 305q-11 17 -11 34q0 13 6 24.5t15.5 20.5t22 14t25.5 5t25 -5.5t21 -18.5l235 -321q10 -14 16 -28t6 -31q0 -25 -11 -42.5t-33 -36.5l-404 -338q-8 -7 -16.5 -10t-18.5 -3q-12 0 -23 5t-19 13.5t-13 19.5t-5 23zM481 124 q0 11 4.5 21t14.5 19l367 329l-233 344q-5 8 -8 16t-3 19q0 13 6.5 25t16.5 20.5t22.5 13.5t24.5 5q14 0 25.5 -5.5t21.5 -18.5l263 -361q10 -14 16 -28t6 -31q0 -25 -11 -42.5t-33 -36.5l-403 -338q-16 -13 -35 -13q-13 0 -24.5 5.5t-19.5 14t-13 19.5t-5 23z" />
<glyph unicode="&#xbc;" horiz-adv-x="1488" d="M168 1230q0 12 3.5 21.5t13.5 19.5q13 13 53 33.5t89 40.5q52 22 82 31.5t55 9.5q29 0 43 -15.5t14 -39.5q0 -5 -0.5 -12t-2.5 -16l-107 -618q-5 -30 -24.5 -46t-54.5 -16t-50 17t-10 45l95 546l-101 -33q-16 -5 -30 -8.5t-26 -3.5q-20 0 -31 13t-11 31zM171 40 q0 11 5 19.5t13 19.5l975 1291q11 14 20.5 20.5t24.5 6.5q13 0 24.5 -5t20.5 -13t14 -18t5 -21t-5 -19.5t-13 -19.5l-975 -1291q-11 -14 -20.5 -20.5t-24.5 -6.5q-13 0 -24.5 5t-20.5 13t-14 18t-5 21zM764 274q0 25 10 43.5t30 40.5l311 339q16 18 31 30t30.5 19.5 t32.5 10.5t37 3q22 0 38 -5.5t26 -16t13 -25.5t0 -34l-64 -369h80q19 0 29 -11t10 -32q0 -30 -15 -47t-39 -17h-83l-26 -146q-5 -30 -24 -46t-53 -16q-33 0 -48 17t-10 45l25 146h-266q-35 0 -55 19t-20 52zM897 310h227l52 305z" />
<glyph unicode="&#xbd;" horiz-adv-x="1530" d="M168 1230q0 12 3.5 21.5t13.5 19.5q13 13 53 33.5t89 40.5q52 22 82 31.5t55 9.5q29 0 43 -15.5t14 -39.5q0 -5 -0.5 -12t-2.5 -16l-107 -618q-5 -30 -24.5 -46t-54.5 -16t-50 17t-10 45l95 546l-101 -33q-16 -5 -30 -8.5t-26 -3.5q-20 0 -31 13t-11 31zM171 40 q0 11 5 19.5t13 19.5l975 1291q11 14 20.5 20.5t24.5 6.5q13 0 24.5 -5t20.5 -13t14 -18t5 -21t-5 -19.5t-13 -19.5l-975 -1291q-11 -14 -20.5 -20.5t-24.5 -6.5q-13 0 -24.5 5t-20.5 13t-14 18t-5 21zM849 67q0 23 9 42.5t35 40.5l173 141l108 91q43 38 69 68t36.5 56.5 t10.5 57.5q0 42 -25.5 66t-78.5 24q-30 0 -53.5 -5t-42.5 -10.5t-34.5 -10.5t-28.5 -5q-19 0 -29.5 11.5t-10.5 29.5q0 11 3.5 20.5t14.5 20.5t32 21.5t48.5 18.5t61 13t68.5 5q57 0 99.5 -13t70.5 -36.5t41.5 -56t13.5 -72.5q0 -46 -14 -85t-47.5 -80t-89.5 -89.5 t-139 -112.5l-135 -105h315q44 0 44 -49q0 -26 -15.5 -44.5t-41.5 -18.5h-396q-34 0 -53 17.5t-19 48.5z" />
<glyph unicode="&#xbe;" horiz-adv-x="1600" d="M123 696q0 23 14 37t36 14q12 0 23.5 -4t28 -9t40.5 -9t59 -4q41 0 73 11t54.5 29.5t34 43.5t11.5 53q0 25 -9.5 45t-32.5 34t-61 21t-96 7q-20 0 -28 8q-7 7 -9.5 18.5t-2 24t5 24.5t12.5 20q6 6 13 8.5t21 2.5q63 0 105 10.5t68 28.5t37 42t11 50q0 38 -25 59.5 t-79 21.5q-26 0 -47 -5t-38 -10.5t-31 -10.5t-26 -5q-20 0 -30.5 12t-10.5 30q0 14 5.5 25t17.5 21q13 10 33 19.5t45 16.5t54 11t60 4q56 0 97 -13t67.5 -35.5t39.5 -53.5t13 -67q0 -69 -43 -118t-112 -75l-1 -1q57 -11 90.5 -51t33.5 -102q0 -54 -22.5 -101.5t-65.5 -82.5 t-105 -55t-141 -20q-69 0 -108.5 12.5t-56.5 25.5q-22 17 -22 42zM284 40q0 11 5 19.5t13 19.5l975 1291q11 14 20.5 20.5t24.5 6.5q13 0 24.5 -5t20.5 -13t14 -18t5 -21t-5 -19.5t-13 -19.5l-975 -1291q-11 -14 -20.5 -20.5t-24.5 -6.5q-13 0 -24.5 5t-20.5 13t-14 18 t-5 21zM876 274q0 25 10 43.5t30 40.5l311 339q16 18 31 30t30.5 19.5t32.5 10.5t37 3q22 0 38 -5.5t26 -16t13 -25.5t0 -34l-64 -369h80q19 0 29 -11t10 -32q0 -30 -15 -47t-39 -17h-83l-26 -146q-5 -30 -24 -46t-53 -16q-33 0 -48 17t-10 45l25 146h-266q-35 0 -55 19 t-20 52zM1009 310h227l52 305z" />
<glyph unicode="&#xbf;" horiz-adv-x="740" d="M-58 -157q0 70 19.5 125t51 100t72.5 83t83 73l83 69q41 34 72.5 73t51 85t19.5 104q0 26 -2 40t-2 26q0 29 19.5 48t51.5 19q35 0 57.5 -26t22.5 -89q0 -95 -32.5 -164t-81.5 -123t-106 -98.5t-106 -91.5t-81.5 -102t-32.5 -129q0 -83 51.5 -130.5t155.5 -47.5 q50 0 84 6.5t58 15t40.5 15t32.5 6.5q20 0 32.5 -13t12.5 -33q0 -13 -4 -23.5t-17 -23.5t-37.5 -26t-58.5 -24t-77.5 -18t-93.5 -7q-82 0 -145 18.5t-106 54.5t-65 88.5t-22 119.5zM392 953q0 26 9.5 48t26 38.5t39 26t48.5 9.5q25 0 45.5 -8t35 -22.5t22.5 -35t8 -44.5 q0 -26 -9.5 -48.5t-26 -39t-39 -26t-48.5 -9.5q-25 0 -45.5 8t-35 22.5t-22.5 35t-8 45.5z" />
<glyph unicode="&#xc0;" horiz-adv-x="1200" d="M-16 56q0 11 3.5 21t13.5 29l617 1173q6 12 12 23l12 19q5 9 11.5 17t14.5 16q15 15 34.5 22.5t45.5 7.5q24 0 40.5 -6t30.5 -20q13 -14 19 -34.5t11 -48.5l214 -1173q4 -20 5 -28.5t1 -15.5q0 -15 -6.5 -27.5t-18 -21t-26.5 -13.5t-31 -5q-17 0 -30 5t-23 15 q-9 9 -13 23t-7 31l-54 317h-559l-172 -339q-7 -14 -11 -21t-11 -14q-8 -8 -19 -12.5t-26 -4.5t-29 5t-25 13.5t-17.5 20.5t-6.5 26zM365 509h473l-86 505q-8 42 -13 78l-9 64q-4 32 -7 59h-4l-28 -60l-32 -64l-38 -77zM538 1733q0 16 8 32t20.5 28.5t27.5 20t30 7.5 q13 0 22 -5t15 -12l194 -218q8 -10 10.5 -20t0.5 -20q-2 -12 -9 -22t-17 -17.5t-22 -10.5t-24 0q-5 2 -10 4.5t-10 6.5l-212 182q-11 10 -17.5 20t-6.5 24z" />
<glyph unicode="&#xc1;" horiz-adv-x="1200" d="M-16 56q0 11 3.5 21t13.5 29l617 1173q6 12 12 23l12 19q5 9 11.5 17t14.5 16q15 15 34.5 22.5t45.5 7.5q24 0 40.5 -6t30.5 -20q13 -14 19 -34.5t11 -48.5l214 -1173q4 -20 5 -28.5t1 -15.5q0 -15 -6.5 -27.5t-18 -21t-26.5 -13.5t-31 -5q-17 0 -30 5t-23 15 q-9 9 -13 23t-7 31l-54 317h-559l-172 -339q-7 -14 -11 -21t-11 -14q-8 -8 -19 -12.5t-26 -4.5t-29 5t-25 13.5t-17.5 20.5t-6.5 26zM365 509h473l-86 505q-8 42 -13 78l-9 64q-4 32 -7 59h-4l-28 -60l-32 -64l-38 -77zM671 1558q0 11 4.5 20t13.5 17l248 205q16 13 34 13 q16 0 30 -8t25 -20t17.5 -27t6.5 -28q0 -15 -6 -25.5t-18 -18.5l-271 -175q-8 -5 -15 -8t-16 -3q-11 0 -20.5 5t-16.5 13t-11.5 18.5t-4.5 21.5z" />
<glyph unicode="&#xc2;" horiz-adv-x="1200" d="M-16 56q0 11 3.5 21t13.5 29l617 1173q6 12 12 23l12 19q5 9 11.5 17t14.5 16q15 15 34.5 22.5t45.5 7.5q24 0 40.5 -6t30.5 -20q13 -14 19 -34.5t11 -48.5l214 -1173q4 -20 5 -28.5t1 -15.5q0 -15 -6.5 -27.5t-18 -21t-26.5 -13.5t-31 -5q-17 0 -30 5t-23 15 q-9 9 -13 23t-7 31l-54 317h-559l-172 -339q-7 -14 -11 -21t-11 -14q-8 -8 -19 -12.5t-26 -4.5t-29 5t-25 13.5t-17.5 20.5t-6.5 26zM365 509h473l-86 505q-8 42 -13 78l-9 64q-4 32 -7 59h-4l-28 -60l-32 -64l-38 -77zM490 1557q0 21 17 35l220 182q22 18 40.5 28.5 t41.5 10.5q24 0 40.5 -10t32.5 -29l152 -185q6 -8 8.5 -15t2.5 -16q0 -12 -5 -21.5t-13.5 -17t-19 -11.5t-20.5 -4q-11 0 -18.5 3.5t-15.5 9.5l-164 144l-219 -149q-6 -4 -12 -6t-14 -2q-11 0 -20.5 4.5t-17 12t-12 17t-4.5 19.5z" />
<glyph unicode="&#xc3;" horiz-adv-x="1200" d="M-16 56q0 11 3.5 21t13.5 29l617 1173q6 12 12 23l12 19q5 9 11.5 17t14.5 16q15 15 34.5 22.5t45.5 7.5q24 0 40.5 -6t30.5 -20q13 -14 19 -34.5t11 -48.5l214 -1173q4 -20 5 -28.5t1 -15.5q0 -15 -6.5 -27.5t-18 -21t-26.5 -13.5t-31 -5q-17 0 -30 5t-23 15 q-9 9 -13 23t-7 31l-54 317h-559l-172 -339q-7 -14 -11 -21t-11 -14q-8 -8 -19 -12.5t-26 -4.5t-29 5t-25 13.5t-17.5 20.5t-6.5 26zM365 509h473l-86 505q-8 42 -13 78l-9 64q-4 32 -7 59h-4l-28 -60l-32 -64l-38 -77zM444 1606q0 20 16 47t45 51t69 41t88 17 q49 0 84.5 -15.5t64.5 -33.5l56 -33q27 -16 60 -16q31 0 52.5 12.5t38.5 28.5l32 28q15 12 33 12q19 0 34 -12t15 -38q0 -20 -16 -47t-45 -51t-69 -41t-88 -17q-49 0 -84.5 15.5t-64.5 33.5l-56 34q-27 15 -60 15q-31 0 -52.5 -12.5t-38.5 -27.5l-32 -28q-15 -13 -33 -13 q-19 0 -34 12t-15 38z" />
<glyph unicode="&#xc4;" horiz-adv-x="1200" d="M-16 56q0 11 3.5 21t13.5 29l617 1173q6 12 12 23l12 19q5 9 11.5 17t14.5 16q15 15 34.5 22.5t45.5 7.5q24 0 40.5 -6t30.5 -20q13 -14 19 -34.5t11 -48.5l214 -1173q4 -20 5 -28.5t1 -15.5q0 -15 -6.5 -27.5t-18 -21t-26.5 -13.5t-31 -5q-17 0 -30 5t-23 15 q-9 9 -13 23t-7 31l-54 317h-559l-172 -339q-7 -14 -11 -21t-11 -14q-8 -8 -19 -12.5t-26 -4.5t-29 5t-25 13.5t-17.5 20.5t-6.5 26zM365 509h473l-86 505q-8 42 -13 78l-9 64q-4 32 -7 59h-4l-28 -60l-32 -64l-38 -77zM472 1642q0 24 8.5 44.5t23.5 36t35.5 24t45.5 8.5 q22 0 40.5 -7.5t31.5 -21t20.5 -32t7.5 -39.5q0 -24 -8 -44.5t-22.5 -36t-35 -24t-44.5 -8.5q-23 0 -41.5 7.5t-32.5 21t-21.5 32t-7.5 39.5zM881 1642q0 24 8.5 44.5t23.5 36t35.5 24t45.5 8.5q22 0 40.5 -7.5t31.5 -21t20.5 -32t7.5 -39.5q0 -24 -8 -44.5t-22.5 -36 t-35 -24t-44.5 -8.5q-23 0 -41.5 7.5t-32.5 21t-21.5 32t-7.5 39.5z" />
<glyph unicode="&#xc5;" horiz-adv-x="1200" d="M-16 56q0 11 3.5 21t13.5 29l617 1173q6 12 12 23l12 19q5 9 11.5 17t14.5 16q15 15 34.5 22.5t45.5 7.5q24 0 40.5 -6t30.5 -20q13 -14 19 -34.5t11 -48.5l214 -1173q4 -20 5 -28.5t1 -15.5q0 -15 -6.5 -27.5t-18 -21t-26.5 -13.5t-31 -5q-17 0 -30 5t-23 15 q-9 9 -13 23t-7 31l-54 317h-559l-172 -339q-7 -14 -11 -21t-11 -14q-8 -8 -19 -12.5t-26 -4.5t-29 5t-25 13.5t-17.5 20.5t-6.5 26zM365 509h473l-86 505q-8 42 -13 78l-9 64q-4 32 -7 59h-4l-28 -60l-32 -64l-38 -77zM544 1708q0 47 18 88.5t51 73t78.5 49.5t101.5 18 q54 0 97 -16.5t73 -45t46 -67.5t16 -84q0 -47 -18 -88.5t-51 -73t-79 -49.5t-101 -18q-54 0 -97 16.5t-73 45t-46 67.5t-16 84zM646 1716q0 -63 38 -99.5t101 -36.5t100.5 36.5t37.5 99.5t-37.5 100t-100.5 37t-101 -37t-38 -100z" />
<glyph unicode="&#xc6;" horiz-adv-x="1694" d="M-75 58q0 17 9 30.5t22 30.5l917 1199q14 18 26 29.5t24 18.5t26.5 9.5t32.5 2.5h704q26 0 40 -14t14 -42q0 -17 -5 -31t-14 -23.5t-22 -14.5t-28 -5h-542l-82 -473h463q26 0 40 -14t14 -42q0 -17 -5 -31t-14 -23.5t-22 -14.5t-28 -5h-470l-89 -515h538q26 0 40 -14 t14 -42q0 -17 -5 -31t-14 -23.5t-22 -14.5t-28 -5h-615q-40 0 -56 20t-9 61l52 301h-504l-260 -346q-3 -5 -6 -9l-5 -6q-3 -3 -5 -6l-6 -5q-19 -19 -45 -19q-14 0 -27.5 5t-24 14t-17 21.5t-6.5 26.5zM422 509h431l127 739h-3z" />
<glyph unicode="&#xc7;" horiz-adv-x="1171" d="M122 512q0 135 27.5 253t77 216t118.5 175t153 130t179.5 81t198.5 28q58 0 108 -7t89 -19t67.5 -27t44.5 -31q12 -12 16.5 -23.5t4.5 -25.5q0 -26 -17 -44.5t-48 -18.5q-20 0 -41.5 10t-53.5 22t-79 22t-117 10q-111 0 -214.5 -50t-183 -144.5t-127 -230t-47.5 -306.5 q0 -100 27 -177.5t77 -130.5t121 -80.5t158 -27.5q70 0 120.5 11t86.5 23.5t60 23.5t42 11q24 0 37 -14.5t13 -35.5q0 -16 -5 -29t-17 -25q-21 -21 -57.5 -38.5t-84 -30.5t-104 -20.5t-116.5 -7.5h-17l-39 -96q31 -6 55 -17.5t40.5 -30t24.5 -44t8 -57.5q0 -48 -20.5 -90.5 t-59 -73.5t-93 -49t-123.5 -18q-32 0 -54 4.5t-35.5 13t-19 19.5t-5.5 25q0 22 13.5 36t34.5 14q12 0 24.5 -1.5t29.5 -1.5q43 0 73.5 7.5t50.5 20.5t29.5 31.5t9.5 41.5q0 29 -18 47t-60 18h-6q-23 0 -32.5 15.5t3.5 46.5l62 150q-92 17 -164 60t-122.5 108.5t-77 153.5 t-26.5 195z" />
<glyph unicode="&#xc8;" horiz-adv-x="1043" d="M126 58q0 9 1 17.5t3 17.5l209 1214q6 35 26.5 53t56.5 18h613q26 0 40 -14t14 -42q0 -17 -5 -31t-14 -23.5t-22 -14.5t-28 -5h-542l-82 -473h463q26 0 40 -14t14 -42q0 -17 -5 -31t-14 -23.5t-22 -14.5t-28 -5h-470l-89 -515h538q26 0 40 -14t14 -42q0 -17 -5 -31 t-14 -23.5t-22 -14.5t-28 -5h-615q-34 0 -50.5 14.5t-16.5 43.5zM506 1733q0 16 8 32t20.5 28.5t27.5 20t30 7.5q13 0 22 -5t15 -12l194 -218q8 -10 10.5 -20t0.5 -20q-2 -12 -9 -22t-17 -17.5t-22 -10.5t-24 0q-5 2 -10 4.5t-10 6.5l-212 182q-11 10 -17.5 20t-6.5 24z" />
<glyph unicode="&#xc9;" horiz-adv-x="1043" d="M126 58q0 9 1 17.5t3 17.5l209 1214q6 35 26.5 53t56.5 18h613q26 0 40 -14t14 -42q0 -17 -5 -31t-14 -23.5t-22 -14.5t-28 -5h-542l-82 -473h463q26 0 40 -14t14 -42q0 -17 -5 -31t-14 -23.5t-22 -14.5t-28 -5h-470l-89 -515h538q26 0 40 -14t14 -42q0 -17 -5 -31 t-14 -23.5t-22 -14.5t-28 -5h-615q-34 0 -50.5 14.5t-16.5 43.5zM673 1558q0 11 4.5 20t13.5 17l248 205q16 13 34 13q16 0 30 -8t25 -20t17.5 -27t6.5 -28q0 -15 -6 -25.5t-18 -18.5l-271 -175q-8 -5 -15 -8t-16 -3q-11 0 -20.5 5t-16.5 13t-11.5 18.5t-4.5 21.5z" />
<glyph unicode="&#xca;" horiz-adv-x="1043" d="M126 58q0 9 1 17.5t3 17.5l209 1214q6 35 26.5 53t56.5 18h613q26 0 40 -14t14 -42q0 -17 -5 -31t-14 -23.5t-22 -14.5t-28 -5h-542l-82 -473h463q26 0 40 -14t14 -42q0 -17 -5 -31t-14 -23.5t-22 -14.5t-28 -5h-470l-89 -515h538q26 0 40 -14t14 -42q0 -17 -5 -31 t-14 -23.5t-22 -14.5t-28 -5h-615q-34 0 -50.5 14.5t-16.5 43.5zM469 1557q0 21 17 35l220 182q22 18 40.5 28.5t41.5 10.5q24 0 40.5 -10t32.5 -29l152 -185q6 -8 8.5 -15t2.5 -16q0 -12 -5 -21.5t-13.5 -17t-19 -11.5t-20.5 -4q-11 0 -18.5 3.5t-15.5 9.5l-164 144 l-219 -149q-6 -4 -12 -6t-14 -2q-11 0 -20.5 4.5t-17 12t-12 17t-4.5 19.5z" />
<glyph unicode="&#xcb;" horiz-adv-x="1043" d="M126 58q0 9 1 17.5t3 17.5l209 1214q6 35 26.5 53t56.5 18h613q26 0 40 -14t14 -42q0 -17 -5 -31t-14 -23.5t-22 -14.5t-28 -5h-542l-82 -473h463q26 0 40 -14t14 -42q0 -17 -5 -31t-14 -23.5t-22 -14.5t-28 -5h-470l-89 -515h538q26 0 40 -14t14 -42q0 -17 -5 -31 t-14 -23.5t-22 -14.5t-28 -5h-615q-34 0 -50.5 14.5t-16.5 43.5zM438 1642q0 24 8.5 44.5t23.5 36t35.5 24t45.5 8.5q22 0 40.5 -7.5t31.5 -21t20.5 -32t7.5 -39.5q0 -24 -8 -44.5t-22.5 -36t-35 -24t-44.5 -8.5q-23 0 -41.5 7.5t-32.5 21t-21.5 32t-7.5 39.5zM847 1642 q0 24 8.5 44.5t23.5 36t35.5 24t45.5 8.5q22 0 40.5 -7.5t31.5 -21t20.5 -32t7.5 -39.5q0 -24 -8 -44.5t-22.5 -36t-35 -24t-44.5 -8.5q-23 0 -41.5 7.5t-32.5 21t-21.5 32t-7.5 39.5z" />
<glyph unicode="&#xcc;" horiz-adv-x="549" d="M123 47q0 6 1 15l4 22l213 1233q5 32 24.5 49.5t57.5 17.5q68 0 68 -53q0 -6 -1 -15l-4 -22l-213 -1233q-5 -32 -24.5 -49.5t-57.5 -17.5q-68 0 -68 53zM228 1733q0 16 8 32t20.5 28.5t27.5 20t30 7.5q13 0 22 -5t15 -12l194 -218q8 -10 10.5 -20t0.5 -20q-2 -12 -9 -22 t-17 -17.5t-22 -10.5t-24 0q-5 2 -10 4.5t-10 6.5l-212 182q-11 10 -17.5 20t-6.5 24z" />
<glyph unicode="&#xcd;" horiz-adv-x="549" d="M123 47q0 6 1 15l4 22l213 1233q5 32 24.5 49.5t57.5 17.5q68 0 68 -53q0 -6 -1 -15l-4 -22l-213 -1233q-5 -32 -24.5 -49.5t-57.5 -17.5q-68 0 -68 53zM331 1558q0 11 4.5 20t13.5 17l248 205q16 13 34 13q16 0 30 -8t25 -20t17.5 -27t6.5 -28q0 -15 -6 -25.5t-18 -18.5 l-271 -175q-8 -5 -15 -8t-16 -3q-11 0 -20.5 5t-16.5 13t-11.5 18.5t-4.5 21.5z" />
<glyph unicode="&#xce;" horiz-adv-x="549" d="M123 47q0 6 1 15l4 22l213 1233q5 32 24.5 49.5t57.5 17.5q68 0 68 -53q0 -6 -1 -15l-4 -22l-213 -1233q-5 -32 -24.5 -49.5t-57.5 -17.5q-68 0 -68 53zM167 1557q0 21 17 35l220 182q22 18 40.5 28.5t41.5 10.5q24 0 40.5 -10t32.5 -29l152 -185q6 -8 8.5 -15t2.5 -16 q0 -12 -5 -21.5t-13.5 -17t-19 -11.5t-20.5 -4q-11 0 -18.5 3.5t-15.5 9.5l-164 144l-219 -149q-6 -4 -12 -6t-14 -2q-11 0 -20.5 4.5t-17 12t-12 17t-4.5 19.5z" />
<glyph unicode="&#xcf;" horiz-adv-x="549" d="M123 47q0 6 1 15l4 22l213 1233q5 32 24.5 49.5t57.5 17.5q68 0 68 -53q0 -6 -1 -15l-4 -22l-213 -1233q-5 -32 -24.5 -49.5t-57.5 -17.5q-68 0 -68 53zM149 1642q0 24 8.5 44.5t23.5 36t35.5 24t45.5 8.5q22 0 40.5 -7.5t31.5 -21t20.5 -32t7.5 -39.5q0 -24 -8 -44.5 t-22.5 -36t-35 -24t-44.5 -8.5q-23 0 -41.5 7.5t-32.5 21t-21.5 32t-7.5 39.5zM558 1642q0 24 8.5 44.5t23.5 36t35.5 24t45.5 8.5q22 0 40.5 -7.5t31.5 -21t20.5 -32t7.5 -39.5q0 -24 -8 -44.5t-22.5 -36t-35 -24t-44.5 -8.5q-23 0 -41.5 7.5t-32.5 21t-21.5 32t-7.5 39.5z " />
<glyph unicode="&#xd0;" horiz-adv-x="1379" d="M86 718q0 16 4.5 29.5t13.5 22.5t21 14t27 5h121l89 518q6 35 26.5 53t56.5 18h309q142 0 249 -35.5t179 -103.5t108 -166t36 -224q0 -191 -60.5 -347.5t-170 -268t-261.5 -172.5t-334 -61h-284q-40 0 -56 20t-9 61l101 584h-115q-25 0 -38 13.5t-13 39.5zM308 130h217 q142 0 260.5 48.5t204 139t133 220t47.5 291.5q0 206 -109.5 312.5t-332.5 106.5h-227l-80 -459h270q25 0 38 -13.5t13 -39.5q0 -17 -4.5 -30t-13.5 -22t-21 -14t-27 -5h-276z" />
<glyph unicode="&#xd1;" horiz-adv-x="1453" d="M123 47q0 6 1 15l4 22l206 1200q4 26 13.5 45t23.5 31t33.5 18t43.5 6q26 0 45 -7t33 -21q17 -17 32.5 -47.5t36.5 -76.5l381 -835l33 -75q16 -38 27 -67l25 -66l4 2q4 36 8 76l9 77q6 43 14 88l151 884q6 34 26 51t55 17q32 0 49.5 -13.5t17.5 -39.5q0 -8 -1.5 -16 t-3.5 -21l-206 -1200q-5 -26 -14 -45t-23 -31t-33.5 -18t-43.5 -6q-26 0 -45 7t-33 21q-17 17 -32.5 47.5t-36.5 76.5l-381 835q-18 38 -33.5 75.5t-26.5 66.5l-25 66l-4 -2q-4 -36 -8 -76l-10 -77q-5 -43 -13 -88l-151 -884q-6 -34 -26 -51t-55 -17q-32 0 -49.5 13.5 t-17.5 39.5zM584 1606q0 20 16 47t45 51t69 41t88 17q49 0 84.5 -15.5t64.5 -33.5l56 -33q27 -16 60 -16q31 0 52.5 12.5t38.5 27.5l32 28q15 13 33 13q19 0 34 -12t15 -38q0 -20 -16 -47t-45 -51t-69 -41t-88 -17q-49 0 -84.5 15.5t-64.5 33.5l-56 33q-27 16 -60 16 q-31 0 -52.5 -12.5t-38.5 -28.5l-32 -28q-15 -12 -33 -12q-19 0 -34 12t-15 38z" />
<glyph unicode="&#xd2;" horiz-adv-x="1443" d="M124 516q0 135 27 253t76.5 215.5t118 174.5t151 129.5t177.5 80.5t196 28q118 0 213 -37t162 -106t103 -168t36 -223q0 -135 -27 -253t-76.5 -215.5t-118 -174.5t-151.5 -129.5t-178 -80.5t-196 -28q-117 0 -212 36.5t-162 105.5t-103 168t-36 224zM280 536 q0 -102 27.5 -181t77 -132.5t119.5 -81.5t156 -28q110 0 212.5 50t181.5 144.5t126.5 229.5t47.5 306q0 102 -27.5 181t-77 132.5t-120 81.5t-155.5 28q-110 0 -212.5 -50t-181.5 -144.5t-126.5 -229.5t-47.5 -306zM649 1733q0 16 8 32t20.5 28.5t27.5 20t30 7.5q13 0 22 -5 t15 -12l194 -218q8 -10 10.5 -20t0.5 -20q-2 -12 -9 -22t-17 -17.5t-22 -10.5t-24 0q-5 2 -10 4.5t-10 6.5l-212 182q-11 10 -17.5 20t-6.5 24z" />
<glyph unicode="&#xd3;" horiz-adv-x="1443" d="M124 516q0 135 27 253t76.5 215.5t118 174.5t151 129.5t177.5 80.5t196 28q118 0 213 -37t162 -106t103 -168t36 -223q0 -135 -27 -253t-76.5 -215.5t-118 -174.5t-151.5 -129.5t-178 -80.5t-196 -28q-117 0 -212 36.5t-162 105.5t-103 168t-36 224zM280 536 q0 -102 27.5 -181t77 -132.5t119.5 -81.5t156 -28q110 0 212.5 50t181.5 144.5t126.5 229.5t47.5 306q0 102 -27.5 181t-77 132.5t-120 81.5t-155.5 28q-110 0 -212.5 -50t-181.5 -144.5t-126.5 -229.5t-47.5 -306zM792 1558q0 11 4.5 20t13.5 17l248 205q16 13 34 13 q16 0 30 -8t25 -20t17.5 -27t6.5 -28q0 -15 -6 -25.5t-18 -18.5l-271 -175q-8 -5 -15 -8t-16 -3q-11 0 -20.5 5t-16.5 13t-11.5 18.5t-4.5 21.5z" />
<glyph unicode="&#xd4;" horiz-adv-x="1443" d="M124 516q0 135 27 253t76.5 215.5t118 174.5t151 129.5t177.5 80.5t196 28q118 0 213 -37t162 -106t103 -168t36 -223q0 -135 -27 -253t-76.5 -215.5t-118 -174.5t-151.5 -129.5t-178 -80.5t-196 -28q-117 0 -212 36.5t-162 105.5t-103 168t-36 224zM280 536 q0 -102 27.5 -181t77 -132.5t119.5 -81.5t156 -28q110 0 212.5 50t181.5 144.5t126.5 229.5t47.5 306q0 102 -27.5 181t-77 132.5t-120 81.5t-155.5 28q-110 0 -212.5 -50t-181.5 -144.5t-126.5 -229.5t-47.5 -306zM624 1557q0 21 17 35l220 182q22 18 40.5 28.5t41.5 10.5 q24 0 40.5 -10t32.5 -29l152 -185q6 -8 8.5 -15t2.5 -16q0 -12 -5 -21.5t-13.5 -17t-19 -11.5t-20.5 -4q-11 0 -18.5 3.5t-15.5 9.5l-164 144l-219 -149q-6 -4 -12 -6t-14 -2q-11 0 -20.5 4.5t-17 12t-12 17t-4.5 19.5z" />
<glyph unicode="&#xd5;" horiz-adv-x="1443" d="M124 516q0 135 27 253t76.5 215.5t118 174.5t151 129.5t177.5 80.5t196 28q118 0 213 -37t162 -106t103 -168t36 -223q0 -135 -27 -253t-76.5 -215.5t-118 -174.5t-151.5 -129.5t-178 -80.5t-196 -28q-117 0 -212 36.5t-162 105.5t-103 168t-36 224zM280 536 q0 -102 27.5 -181t77 -132.5t119.5 -81.5t156 -28q110 0 212.5 50t181.5 144.5t126.5 229.5t47.5 306q0 102 -27.5 181t-77 132.5t-120 81.5t-155.5 28q-110 0 -212.5 -50t-181.5 -144.5t-126.5 -229.5t-47.5 -306zM563 1606q0 20 16 47t45 51t69 41t88 17q49 0 84.5 -15.5 t64.5 -33.5l56 -33q27 -16 60 -16q31 0 52.5 12.5t38.5 27.5l32 28q15 13 33 13q19 0 34 -12t15 -38q0 -20 -16 -47t-45 -51t-69 -41t-88 -17q-49 0 -84.5 15.5t-64.5 33.5l-56 34q-27 15 -60 15q-31 0 -52.5 -12.5t-38.5 -27.5l-32 -28q-15 -13 -33 -13q-19 0 -34 12 t-15 38z" />
<glyph unicode="&#xd6;" horiz-adv-x="1443" d="M124 516q0 135 27 253t76.5 215.5t118 174.5t151 129.5t177.5 80.5t196 28q118 0 213 -37t162 -106t103 -168t36 -223q0 -135 -27 -253t-76.5 -215.5t-118 -174.5t-151.5 -129.5t-178 -80.5t-196 -28q-117 0 -212 36.5t-162 105.5t-103 168t-36 224zM280 536 q0 -102 27.5 -181t77 -132.5t119.5 -81.5t156 -28q110 0 212.5 50t181.5 144.5t126.5 229.5t47.5 306q0 102 -27.5 181t-77 132.5t-120 81.5t-155.5 28q-110 0 -212.5 -50t-181.5 -144.5t-126.5 -229.5t-47.5 -306zM592 1642q0 24 8.5 44.5t23.5 36t35.5 24t45.5 8.5 q22 0 40.5 -7.5t31.5 -21t20.5 -32t7.5 -39.5q0 -24 -8 -44.5t-22.5 -36t-35 -24t-44.5 -8.5q-23 0 -41.5 7.5t-32.5 21t-21.5 32t-7.5 39.5zM1001 1642q0 24 8.5 44.5t23.5 36t35.5 24t45.5 8.5q22 0 40.5 -7.5t31.5 -21t20.5 -32t7.5 -39.5q0 -24 -8 -44.5t-22.5 -36 t-35 -24t-44.5 -8.5q-23 0 -41.5 7.5t-32.5 21t-21.5 32t-7.5 39.5z" />
<glyph unicode="&#xd7;" d="M164 256q0 15 5.5 27.5t20.5 25.5l324 277l-231 272q-9 11 -14 21.5t-5 25.5q0 12 5.5 23.5t14.5 20t20.5 13.5t23.5 5q15 0 28 -6t27 -23l227 -270l320 276q12 11 24 16t25 5q12 0 23 -4.5t19 -12.5t12.5 -18.5t4.5 -22.5q0 -15 -7 -27.5t-21 -25.5l-322 -276l231 -273 q10 -12 13.5 -22.5t3.5 -22.5q0 -14 -5 -25.5t-14 -20t-21 -13t-26 -4.5q-12 0 -26.5 6.5t-26.5 21.5l-225 271l-322 -279q-11 -10 -22.5 -15t-24.5 -5t-24 4.5t-18.5 12.5t-12 19t-4.5 23z" />
<glyph unicode="&#xd8;" horiz-adv-x="1468" d="M111 -130q0 14 7.5 27t26.5 39l131 183q-72 68 -112 167.5t-40 229.5q0 135 28 253t78.5 215.5t121 174.5t156 129.5t183 80.5t201.5 28q77 0 140 -13.5t119 -40.5l122 171q6 9 11 16l9 11l7 9q4 5 7 8q16 16 39 16q14 0 27.5 -5t24 -14t17 -21t6.5 -25q0 -14 -7.5 -27 t-26.5 -39l-126 -177q72 -69 109.5 -170.5t37.5 -232.5q0 -203 -58.5 -365.5t-159.5 -277.5t-237.5 -176.5t-293.5 -61.5q-76 0 -145 15t-129 45l-126 -177l-19 -27q-8 -10 -15 -17q-16 -16 -39 -16q-14 0 -27.5 5t-24 14t-17 20.5t-6.5 25.5zM280 536q0 -93 23 -164.5 t67 -124.5l696 975q-42 22 -90 33t-106 11q-76 0 -149.5 -22.5t-139 -65.5t-121 -106t-95.5 -144.5t-62.5 -179.5t-22.5 -212zM469 163q46 -24 97 -37t116 -13q114 0 217.5 50t182 144.5t124.5 229.5t46 306q0 95 -22 168t-64 127z" />
<glyph unicode="&#xd9;" horiz-adv-x="1391" d="M184 398q0 58 8 116t18 116l119 687q5 32 24.5 49.5t57.5 17.5t55 -17.5t12 -49.5l-121 -699q-5 -29 -9 -55t-7 -50.5t-5 -47t-2 -43.5q0 -82 23 -140.5t63 -96t94 -55t117 -17.5q77 0 147 25.5t127 78.5t98 134.5t60 193.5l133 772q5 32 24.5 49.5t57.5 17.5t55 -17.5 t12 -49.5l-132 -763q-26 -147 -79.5 -254.5t-131 -178t-176.5 -105t-215 -34.5q-103 0 -182.5 26.5t-134 79t-82.5 130.5t-28 180zM603 1733q0 16 8 32t20.5 28.5t27.5 20t30 7.5q13 0 22 -5t15 -12l194 -218q8 -10 10.5 -20t0.5 -20q-2 -12 -9 -22t-17 -17.5t-22 -10.5 t-24 0q-5 2 -10 4.5t-10 6.5l-212 182q-11 10 -17.5 20t-6.5 24z" />
<glyph unicode="&#xda;" horiz-adv-x="1391" d="M184 398q0 58 8 116t18 116l119 687q5 32 24.5 49.5t57.5 17.5t55 -17.5t12 -49.5l-121 -699q-5 -29 -9 -55t-7 -50.5t-5 -47t-2 -43.5q0 -82 23 -140.5t63 -96t94 -55t117 -17.5q77 0 147 25.5t127 78.5t98 134.5t60 193.5l133 772q5 32 24.5 49.5t57.5 17.5t55 -17.5 t12 -49.5l-132 -763q-26 -147 -79.5 -254.5t-131 -178t-176.5 -105t-215 -34.5q-103 0 -182.5 26.5t-134 79t-82.5 130.5t-28 180zM792 1558q0 11 4.5 20t13.5 17l248 205q16 13 34 13q16 0 30 -8t25 -20t17.5 -27t6.5 -28q0 -15 -6 -25.5t-18 -18.5l-271 -175q-8 -5 -15 -8 t-16 -3q-11 0 -20.5 5t-16.5 13t-11.5 18.5t-4.5 21.5z" />
<glyph unicode="&#xdb;" horiz-adv-x="1391" d="M184 398q0 58 8 116t18 116l119 687q5 32 24.5 49.5t57.5 17.5t55 -17.5t12 -49.5l-121 -699q-5 -29 -9 -55t-7 -50.5t-5 -47t-2 -43.5q0 -82 23 -140.5t63 -96t94 -55t117 -17.5q77 0 147 25.5t127 78.5t98 134.5t60 193.5l133 772q5 32 24.5 49.5t57.5 17.5t55 -17.5 t12 -49.5l-132 -763q-26 -147 -79.5 -254.5t-131 -178t-176.5 -105t-215 -34.5q-103 0 -182.5 26.5t-134 79t-82.5 130.5t-28 180zM592 1557q0 21 17 35l220 182q22 18 40.5 28.5t41.5 10.5q24 0 40.5 -10t32.5 -29l152 -185q6 -8 8.5 -15t2.5 -16q0 -12 -5 -21.5t-13.5 -17 t-19 -11.5t-20.5 -4q-11 0 -18.5 3.5t-15.5 9.5l-164 144l-219 -149q-6 -4 -12 -6t-14 -2q-11 0 -20.5 4.5t-17 12t-12 17t-4.5 19.5z" />
<glyph unicode="&#xdc;" horiz-adv-x="1391" d="M184 398q0 58 8 116t18 116l119 687q5 32 24.5 49.5t57.5 17.5t55 -17.5t12 -49.5l-121 -699q-5 -29 -9 -55t-7 -50.5t-5 -47t-2 -43.5q0 -82 23 -140.5t63 -96t94 -55t117 -17.5q77 0 147 25.5t127 78.5t98 134.5t60 193.5l133 772q5 32 24.5 49.5t57.5 17.5t55 -17.5 t12 -49.5l-132 -763q-26 -147 -79.5 -254.5t-131 -178t-176.5 -105t-215 -34.5q-103 0 -182.5 26.5t-134 79t-82.5 130.5t-28 180zM572 1642q0 24 8.5 44.5t23.5 36t35.5 24t45.5 8.5q22 0 40.5 -7.5t31.5 -21t20.5 -32t7.5 -39.5q0 -24 -8 -44.5t-22.5 -36t-35 -24 t-44.5 -8.5q-23 0 -41.5 7.5t-32.5 21t-21.5 32t-7.5 39.5zM981 1642q0 24 8.5 44.5t23.5 36t35.5 24t45.5 8.5q22 0 40.5 -7.5t31.5 -21t20.5 -32t7.5 -39.5q0 -24 -8 -44.5t-22.5 -36t-35 -24t-44.5 -8.5q-23 0 -41.5 7.5t-32.5 21t-21.5 32t-7.5 39.5z" />
<glyph unicode="&#xdd;" horiz-adv-x="1072" d="M175 1313q0 16 7 29.5t19 23.5t27 15.5t31 5.5q15 0 26 -4.5t19 -12.5q7 -7 11.5 -15.5t14.5 -33.5l200 -492l16 -40q7 -20 12 -36l11 -34h4q11 17 24 35l26 37l31 43l370 505l14 18q5 7 10 12q9 9 21 13.5t24 4.5q15 0 28.5 -5.5t24.5 -15.5t17.5 -22.5t6.5 -27.5 q0 -6 -1.5 -12t-4 -11.5t-6.5 -11.5l-9 -13l-525 -678l-91 -529q-5 -32 -24.5 -49.5t-57.5 -17.5t-55 17.5t-12 49.5l92 531l-284 666q-9 21 -13 32t-4 23zM616 1558q0 11 4.5 20t13.5 17l248 205q16 13 34 13q16 0 30 -8t25 -20t17.5 -27t6.5 -28q0 -15 -6 -25.5t-18 -18.5 l-271 -175q-8 -5 -15 -8t-16 -3q-11 0 -20.5 5t-16.5 13t-11.5 18.5t-4.5 21.5z" />
<glyph unicode="&#xde;" horiz-adv-x="1073" d="M124 61l217 1256q5 32 24.5 49.5t57.5 17.5q19 0 32.5 -4.5t22 -13t12 -21t0.5 -28.5l-35 -203h185q104 0 180.5 -23t127 -65.5t75 -102t24.5 -132.5q0 -107 -39 -197.5t-111.5 -157.5t-177.5 -104.5t-237 -37.5h-169l-40 -233q-5 -32 -24.5 -49.5t-57.5 -17.5t-55 17.5 t-12 49.5zM335 423h174q90 0 160.5 25t119 70.5t74.5 109t26 139.5q0 52 -15 92.5t-48 68.5t-85.5 42t-126.5 14h-182z" />
<glyph unicode="&#xdf;" horiz-adv-x="1151" d="M-326 -402q0 13 4.5 24t12.5 19t18.5 12t23.5 4t25 -3l26 -8q14 -4 31.5 -7.5t43.5 -3.5q35 0 68 11.5t61.5 40t50.5 76t34 119.5l211 1218q16 95 55.5 168.5t98.5 124t138 76.5t175 26q72 0 128.5 -19.5t95.5 -52.5t59 -78t20 -96q0 -71 -25 -123.5t-62 -93t-81 -73 t-81 -63.5t-62 -65t-25 -78q0 -45 25 -77t62.5 -59t81.5 -53.5t81.5 -61t62.5 -80.5t25 -112q0 -70 -26 -130t-76.5 -104t-124.5 -69t-170 -25q-83 0 -137 18t-74 38q-11 11 -16 22.5t-5 24.5q0 12 4 22.5t12 18.5t19 13t26 5t30 -6t36 -13.5t51.5 -13.5t77.5 -6q55 0 97 14 t70.5 38.5t43 57.5t14.5 72q0 51 -25 86.5t-63 64t-82 54t-82 58t-63 75t-25 105.5q0 69 25 118t62 86t81 67t81 62t62 70.5t25 92.5q0 68 -43 106.5t-138 38.5q-55 0 -103.5 -18t-87 -52.5t-65.5 -85.5t-39 -118l-213 -1230q-17 -100 -52.5 -168t-84 -109.5t-108.5 -59.5 t-126 -18q-63 0 -99.5 13t-52.5 29q-9 9 -13.5 19.5t-4.5 24.5z" />
<glyph unicode="&#xe0;" horiz-adv-x="1119" d="M89 368q0 154 44.5 275.5t124 205.5t190 128.5t242.5 44.5q60 0 109.5 -8.5t87.5 -21t63 -26.5t36 -24q6 -6 10 -12.5t6.5 -15t2.5 -19.5t-3 -26l-98 -566q-6 -35 -10.5 -65.5t-8 -56.5t-5 -47t-1.5 -37q0 -15 1 -25t1 -24q0 -24 -15.5 -39t-42.5 -15q-26 0 -42 11.5 t-24.5 32.5t-10.5 50t2 65h-3q-36 -48 -85 -86q-21 -16 -47 -31.5t-56.5 -27.5t-65.5 -19t-74 -7q-73 0 -133 25t-103.5 73.5t-67.5 120.5t-24 167zM241 390q0 -75 15 -128.5t42.5 -88t66 -50.5t85.5 -16q35 0 67 9t60.5 23.5t53.5 33.5t45 39q48 47 85 106l93 535 q-20 12 -47 23q-23 8 -59 15.5t-84 7.5q-89 0 -166 -33.5t-134 -98t-90 -159.5t-33 -218zM492 1434q0 16 8.5 30.5t22 25.5t29.5 17.5t32 6.5t27 -7t19 -21l130 -253q5 -9 6.5 -15t1.5 -13q0 -12 -5.5 -22t-14.5 -17.5t-21 -12t-24 -4.5q-14 0 -23.5 6t-17.5 17l-155 225 q-7 10 -11 18.5t-4 18.5z" />
<glyph unicode="&#xe1;" horiz-adv-x="1119" d="M89 368q0 154 44.5 275.5t124 205.5t190 128.5t242.5 44.5q60 0 109.5 -8.5t87.5 -21t63 -26.5t36 -24q6 -6 10 -12.5t6.5 -15t2.5 -19.5t-3 -26l-98 -566q-6 -35 -10.5 -65.5t-8 -56.5t-5 -47t-1.5 -37q0 -15 1 -25t1 -24q0 -24 -15.5 -39t-42.5 -15q-26 0 -42 11.5 t-24.5 32.5t-10.5 50t2 65h-3q-36 -48 -85 -86q-21 -16 -47 -31.5t-56.5 -27.5t-65.5 -19t-74 -7q-73 0 -133 25t-103.5 73.5t-67.5 120.5t-24 167zM241 390q0 -75 15 -128.5t42.5 -88t66 -50.5t85.5 -16q35 0 67 9t60.5 23.5t53.5 33.5t45 39q48 47 85 106l93 535 q-20 12 -47 23q-23 8 -59 15.5t-84 7.5q-89 0 -166 -33.5t-134 -98t-90 -159.5t-33 -218zM590 1209q0 10 4 18t12 18l207 247q17 20 42 20q15 0 30 -7t27 -18.5t19.5 -26.5t7.5 -30q0 -13 -5 -22.5t-14 -18.5l-237 -221q-7 -6 -15.5 -9.5t-17.5 -3.5q-11 0 -22 4.5t-19.5 12 t-13.5 17.5t-5 20z" />
<glyph unicode="&#xe2;" horiz-adv-x="1119" d="M89 368q0 154 44.5 275.5t124 205.5t190 128.5t242.5 44.5q60 0 109.5 -8.5t87.5 -21t63 -26.5t36 -24q6 -6 10 -12.5t6.5 -15t2.5 -19.5t-3 -26l-98 -566q-6 -35 -10.5 -65.5t-8 -56.5t-5 -47t-1.5 -37q0 -15 1 -25t1 -24q0 -24 -15.5 -39t-42.5 -15q-26 0 -42 11.5 t-24.5 32.5t-10.5 50t2 65h-3q-36 -48 -85 -86q-21 -16 -47 -31.5t-56.5 -27.5t-65.5 -19t-74 -7q-73 0 -133 25t-103.5 73.5t-67.5 120.5t-24 167zM241 390q0 -75 15 -128.5t42.5 -88t66 -50.5t85.5 -16q35 0 67 9t60.5 23.5t53.5 33.5t45 39q48 47 85 106l93 535 q-20 12 -47 23q-23 8 -59 15.5t-84 7.5q-89 0 -166 -33.5t-134 -98t-90 -159.5t-33 -218zM407 1211q0 10 4 19.5t13 17.5l219 207q22 20 39 30t40 10t39 -9.5t30 -29.5l147 -213q5 -8 7 -14.5t2 -14.5q0 -11 -5 -21t-13 -17t-18.5 -11t-21.5 -4q-24 0 -40 18l-146 163 l-214 -168q-15 -12 -32 -12q-11 0 -20.5 4.5t-16 11.5t-10 16t-3.5 17z" />
<glyph unicode="&#xe3;" horiz-adv-x="1119" d="M89 368q0 154 44.5 275.5t124 205.5t190 128.5t242.5 44.5q60 0 109.5 -8.5t87.5 -21t63 -26.5t36 -24q6 -6 10 -12.5t6.5 -15t2.5 -19.5t-3 -26l-98 -566q-6 -35 -10.5 -65.5t-8 -56.5t-5 -47t-1.5 -37q0 -15 1 -25t1 -24q0 -24 -15.5 -39t-42.5 -15q-26 0 -42 11.5 t-24.5 32.5t-10.5 50t2 65h-3q-36 -48 -85 -86q-21 -16 -47 -31.5t-56.5 -27.5t-65.5 -19t-74 -7q-73 0 -133 25t-103.5 73.5t-67.5 120.5t-24 167zM241 390q0 -75 15 -128.5t42.5 -88t66 -50.5t85.5 -16q35 0 67 9t60.5 23.5t53.5 33.5t45 39q48 47 85 106l93 535 q-20 12 -47 23q-23 8 -59 15.5t-84 7.5q-89 0 -166 -33.5t-134 -98t-90 -159.5t-33 -218zM352 1269q0 24 17.5 53t47.5 53.5t70.5 41t85.5 16.5q50 0 84.5 -16.5t62.5 -37.5l52 -37q25 -16 54 -16q31 0 52.5 13.5t38.5 29.5l34 29q16 14 36 14q10 0 18.5 -3t14.5 -8.5 t9.5 -14t3.5 -20.5q0 -24 -17.5 -53t-47.5 -53.5t-70.5 -41t-85.5 -16.5q-50 0 -84.5 16.5t-62.5 36.5l-53 37q-24 17 -53 17q-31 0 -52.5 -13.5t-39.5 -29.5l-33 -30q-16 -13 -36 -13q-10 0 -18.5 3t-14.5 8.5t-9.5 14t-3.5 20.5z" />
<glyph unicode="&#xe4;" horiz-adv-x="1119" d="M89 368q0 154 44.5 275.5t124 205.5t190 128.5t242.5 44.5q60 0 109.5 -8.5t87.5 -21t63 -26.5t36 -24q6 -6 10 -12.5t6.5 -15t2.5 -19.5t-3 -26l-98 -566q-6 -35 -10.5 -65.5t-8 -56.5t-5 -47t-1.5 -37q0 -15 1 -25t1 -24q0 -24 -15.5 -39t-42.5 -15q-26 0 -42 11.5 t-24.5 32.5t-10.5 50t2 65h-3q-36 -48 -85 -86q-21 -16 -47 -31.5t-56.5 -27.5t-65.5 -19t-74 -7q-73 0 -133 25t-103.5 73.5t-67.5 120.5t-24 167zM241 390q0 -75 15 -128.5t42.5 -88t66 -50.5t85.5 -16q35 0 67 9t60.5 23.5t53.5 33.5t45 39q48 47 85 106l93 535 q-20 12 -47 23q-23 8 -59 15.5t-84 7.5q-89 0 -166 -33.5t-134 -98t-90 -159.5t-33 -218zM387 1313q0 24 8.5 45t24 36.5t36.5 24t46 8.5q21 0 39 -7.5t31 -20.5t20.5 -31t7.5 -39q0 -24 -8.5 -45t-23.5 -36.5t-35.5 -24.5t-45.5 -9q-21 0 -39.5 7.5t-32 20.5t-21 31 t-7.5 40zM769 1313q0 24 8.5 45t24 36.5t36.5 24t46 8.5q21 0 39 -7.5t31 -20.5t20.5 -31t7.5 -39q0 -24 -8.5 -45t-23.5 -36.5t-35.5 -24.5t-45.5 -9q-21 0 -39.5 7.5t-32 20.5t-21 31t-7.5 40z" />
<glyph unicode="&#xe5;" horiz-adv-x="1119" d="M89 368q0 154 44.5 275.5t124 205.5t190 128.5t242.5 44.5q60 0 109.5 -8.5t87.5 -21t63 -26.5t36 -24q6 -6 10 -12.5t6.5 -15t2.5 -19.5t-3 -26l-98 -566q-6 -35 -10.5 -65.5t-8 -56.5t-5 -47t-1.5 -37q0 -15 1 -25t1 -24q0 -24 -15.5 -39t-42.5 -15q-26 0 -42 11.5 t-24.5 32.5t-10.5 50t2 65h-3q-36 -48 -85 -86q-21 -16 -47 -31.5t-56.5 -27.5t-65.5 -19t-74 -7q-73 0 -133 25t-103.5 73.5t-67.5 120.5t-24 167zM241 390q0 -75 15 -128.5t42.5 -88t66 -50.5t85.5 -16q35 0 67 9t60.5 23.5t53.5 33.5t45 39q48 47 85 106l93 535 q-20 12 -47 23q-23 8 -59 15.5t-84 7.5q-89 0 -166 -33.5t-134 -98t-90 -159.5t-33 -218zM452 1331q0 48 18 90.5t51 74t78.5 49.5t99.5 18q50 0 91.5 -16t71 -43.5t45.5 -65.5t16 -82q0 -48 -18.5 -90.5t-51.5 -74t-78.5 -49.5t-99.5 -18q-50 0 -91 16t-70.5 43.5 t-45.5 65.5t-16 82zM554 1343q0 -63 35.5 -98.5t97.5 -35.5q59 0 96 37.5t37 96.5q0 63 -35.5 99t-97.5 36q-59 0 -96 -37.5t-37 -97.5z" />
<glyph unicode="&#xe6;" horiz-adv-x="1619" d="M66 235q0 72 30.5 127.5t88 94t139.5 58t186 19.5q47 0 83 -3.5t62 -7.5q30 -4 52 -10l28 138q13 67 8.5 113.5t-29 75t-68.5 41t-109 12.5q-59 0 -102.5 -9t-75.5 -19.5t-54.5 -19t-39.5 -8.5q-22 0 -34.5 13.5t-12.5 33.5q0 16 5 28t16 23q16 16 49 31.5t77 27.5t98 19 t112 7q67 0 117.5 -13.5t85.5 -36.5t56.5 -54t31.5 -66q30 35 69.5 66t87.5 54.5t105 37.5t122 14q73 0 128.5 -18.5t93 -50.5t57 -75.5t19.5 -93.5q0 -89 -43.5 -157t-130.5 -112.5t-218.5 -65.5t-307.5 -16q-6 -73 9 -132.5t51 -102t92.5 -66t132.5 -23.5q56 0 96 8.5 t68.5 18t48 18t36.5 8.5q22 0 34.5 -13.5t12.5 -33.5q0 -16 -5 -28t-16 -23q-14 -14 -42.5 -28.5t-67.5 -26.5t-87.5 -19.5t-103.5 -7.5q-64 0 -118 11t-98.5 32.5t-79 52.5t-60.5 71l-26 -26q-27 -26 -75.5 -57.5t-117.5 -57.5t-154 -26q-77 0 -135.5 19t-97.5 52.5t-59 80 t-20 101.5zM217 250q0 -67 44.5 -107t138.5 -40q71 0 128 23t97 52q47 33 83 76q-4 21 -8 45q-3 20 -4.5 45.5t0.5 53.5q-24 7 -53 12q-25 5 -59 9t-76 4q-143 0 -217 -46t-74 -127zM864 551q136 -6 236.5 7t166.5 41.5t98 70.5t32 94q0 63 -40 99t-128 36 q-61 0 -118.5 -22.5t-106 -67t-85 -109.5t-55.5 -149z" />
<glyph unicode="&#xe7;" horiz-adv-x="898" d="M86 387q0 140 45.5 257t123.5 201t182.5 130.5t221.5 46.5q78 0 131.5 -19t77.5 -43q11 -11 16 -22.5t5 -24.5q0 -12 -4 -23t-12 -19t-19.5 -13t-26.5 -5q-18 0 -33 7t-36 15t-51 15t-77 7q-75 0 -145.5 -34.5t-125.5 -99t-88 -155.5t-33 -203q0 -145 73 -220.5 t202 -75.5q45 0 77 6.5t56 14t41 14t31 6.5q22 0 34.5 -13.5t12.5 -33.5q0 -16 -5 -28t-16 -23q-28 -28 -99.5 -50t-172.5 -20l-39 -94q31 -6 55 -17.5t40.5 -30t24.5 -44t8 -57.5q0 -48 -20.5 -90.5t-59 -73.5t-93 -49t-123.5 -18q-32 0 -54 4.5t-35.5 13t-19 19.5t-5.5 25 q0 22 13.5 36t34.5 14q12 0 24.5 -1.5t29.5 -1.5q43 0 73.5 7.5t50.5 20.5t29.5 31.5t9.5 41.5q0 29 -18 47t-60 18h-6q-23 0 -32.5 15.5t3.5 46.5l62 151q-65 17 -116.5 51t-87.5 83.5t-55.5 114t-19.5 142.5z" />
<glyph unicode="&#xe8;" horiz-adv-x="1010" d="M86 368q0 151 44 272t119.5 206t176.5 130.5t215 45.5q73 0 128.5 -18.5t93 -50.5t57 -75.5t19.5 -93.5q0 -89 -43.5 -157t-130.5 -112.5t-218.5 -65.5t-307.5 -16q-6 -73 9 -132.5t51 -102t92.5 -66t132.5 -23.5q56 0 96 8.5t68.5 18t48 18t36.5 8.5q22 0 34.5 -13.5 t12.5 -33.5q0 -16 -5 -28t-16 -23q-14 -14 -42.5 -28.5t-67.5 -26.5t-87.5 -19.5t-103.5 -7.5q-101 0 -178 28t-129 79t-78.5 122t-26.5 157zM255 551q136 -6 236.5 7t166.5 41.5t98 70.5t32 94q0 63 -40 99t-128 36q-61 0 -118.5 -22.5t-106 -67t-85 -109.5t-55.5 -149z M440 1434q0 16 8.5 30.5t22 25.5t29.5 17.5t32 6.5t27 -7t19 -21l130 -253q5 -9 6.5 -15t1.5 -13q0 -12 -5.5 -22t-14.5 -17.5t-21 -12t-24 -4.5q-14 0 -23.5 6t-17.5 17l-155 225q-7 10 -11 18.5t-4 18.5z" />
<glyph unicode="&#xe9;" horiz-adv-x="1010" d="M86 368q0 151 44 272t119.5 206t176.5 130.5t215 45.5q73 0 128.5 -18.5t93 -50.5t57 -75.5t19.5 -93.5q0 -89 -43.5 -157t-130.5 -112.5t-218.5 -65.5t-307.5 -16q-6 -73 9 -132.5t51 -102t92.5 -66t132.5 -23.5q56 0 96 8.5t68.5 18t48 18t36.5 8.5q22 0 34.5 -13.5 t12.5 -33.5q0 -16 -5 -28t-16 -23q-14 -14 -42.5 -28.5t-67.5 -26.5t-87.5 -19.5t-103.5 -7.5q-101 0 -178 28t-129 79t-78.5 122t-26.5 157zM255 551q136 -6 236.5 7t166.5 41.5t98 70.5t32 94q0 63 -40 99t-128 36q-61 0 -118.5 -22.5t-106 -67t-85 -109.5t-55.5 -149z M527 1209q0 10 4 18t12 18l207 247q17 20 42 20q15 0 30 -7t27 -18.5t19.5 -26.5t7.5 -30q0 -13 -5 -22.5t-14 -18.5l-237 -221q-7 -6 -15.5 -9.5t-17.5 -3.5q-11 0 -22 4.5t-19.5 12t-13.5 17.5t-5 20z" />
<glyph unicode="&#xea;" horiz-adv-x="1010" d="M86 368q0 151 44 272t119.5 206t176.5 130.5t215 45.5q73 0 128.5 -18.5t93 -50.5t57 -75.5t19.5 -93.5q0 -89 -43.5 -157t-130.5 -112.5t-218.5 -65.5t-307.5 -16q-6 -73 9 -132.5t51 -102t92.5 -66t132.5 -23.5q56 0 96 8.5t68.5 18t48 18t36.5 8.5q22 0 34.5 -13.5 t12.5 -33.5q0 -16 -5 -28t-16 -23q-14 -14 -42.5 -28.5t-67.5 -26.5t-87.5 -19.5t-103.5 -7.5q-101 0 -178 28t-129 79t-78.5 122t-26.5 157zM255 551q136 -6 236.5 7t166.5 41.5t98 70.5t32 94q0 63 -40 99t-128 36q-61 0 -118.5 -22.5t-106 -67t-85 -109.5t-55.5 -149z M364 1211q0 10 4 19.5t13 17.5l219 207q22 20 39 30t40 10t39 -9.5t30 -29.5l147 -213q5 -8 7 -14.5t2 -14.5q0 -11 -5 -21t-13 -17t-18.5 -11t-21.5 -4q-24 0 -40 18l-146 163l-214 -168q-15 -12 -32 -12q-11 0 -20.5 4.5t-16 11.5t-10 16t-3.5 17z" />
<glyph unicode="&#xeb;" horiz-adv-x="1010" d="M86 368q0 151 44 272t119.5 206t176.5 130.5t215 45.5q73 0 128.5 -18.5t93 -50.5t57 -75.5t19.5 -93.5q0 -89 -43.5 -157t-130.5 -112.5t-218.5 -65.5t-307.5 -16q-6 -73 9 -132.5t51 -102t92.5 -66t132.5 -23.5q56 0 96 8.5t68.5 18t48 18t36.5 8.5q22 0 34.5 -13.5 t12.5 -33.5q0 -16 -5 -28t-16 -23q-14 -14 -42.5 -28.5t-67.5 -26.5t-87.5 -19.5t-103.5 -7.5q-101 0 -178 28t-129 79t-78.5 122t-26.5 157zM255 551q136 -6 236.5 7t166.5 41.5t98 70.5t32 94q0 63 -40 99t-128 36q-61 0 -118.5 -22.5t-106 -67t-85 -109.5t-55.5 -149z M351 1313q0 24 8.5 45t24 36.5t36.5 24t46 8.5q21 0 39 -7.5t31 -20.5t20.5 -31t7.5 -39q0 -24 -8.5 -45t-23.5 -36.5t-35.5 -24.5t-45.5 -9q-21 0 -39.5 7.5t-32 20.5t-21 31t-7.5 40zM733 1313q0 24 8.5 45t24 36.5t36.5 24t46 8.5q21 0 39 -7.5t31 -20.5t20.5 -31 t7.5 -39q0 -24 -8.5 -45t-23.5 -36.5t-35.5 -24.5t-45.5 -9q-21 0 -39.5 7.5t-32 20.5t-21 31t-7.5 40z" />
<glyph unicode="&#xec;" horiz-adv-x="506" d="M103 47q0 6 1 13.5t5 29.5l148 853q5 32 24.5 49.5t55.5 17.5q32 0 49 -13.5t17 -39.5q0 -6 -1 -13.5t-5 -29.5l-148 -853q-5 -32 -24.5 -49.5t-55.5 -17.5q-32 0 -49 13.5t-17 39.5zM204 1434q0 16 8.5 30.5t22 25.5t29.5 17.5t32 6.5t27 -7t19 -21l130 -253 q5 -9 6.5 -15t1.5 -13q0 -12 -5.5 -22t-14.5 -17.5t-21 -12t-24 -4.5q-14 0 -23.5 6t-17.5 17l-155 225q-7 10 -11 18.5t-4 18.5z" />
<glyph unicode="&#xed;" horiz-adv-x="506" d="M103 47q0 6 1 13.5t5 29.5l148 853q5 32 24.5 49.5t55.5 17.5q32 0 49 -13.5t17 -39.5q0 -6 -1 -13.5t-5 -29.5l-148 -853q-5 -32 -24.5 -49.5t-55.5 -17.5q-32 0 -49 13.5t-17 39.5zM235 1209q0 10 4 18t12 18l207 247q17 20 42 20q15 0 30 -7t27 -18.5t19.5 -26.5 t7.5 -30q0 -13 -5 -22.5t-14 -18.5l-237 -221q-7 -6 -15.5 -9.5t-17.5 -3.5q-11 0 -22 4.5t-19.5 12t-13.5 17.5t-5 20z" />
<glyph unicode="&#xee;" horiz-adv-x="506" d="M103 47q0 6 1 13.5t5 29.5l148 853q5 32 24.5 49.5t55.5 17.5q32 0 49 -13.5t17 -39.5q0 -6 -1 -13.5t-5 -29.5l-148 -853q-5 -32 -24.5 -49.5t-55.5 -17.5q-32 0 -49 13.5t-17 39.5zM117 1211q0 10 3.5 18.5t11.5 16.5l203 209q21 21 38 30.5t39 9.5q23 0 39 -9.5 t28 -29.5l130 -213q9 -15 9 -29q0 -12 -5.5 -21.5t-14 -16.5t-19 -11t-21.5 -4q-14 0 -23.5 5.5t-17.5 14.5l-124 161l-192 -166q-8 -6 -15.5 -9.5t-18.5 -3.5q-10 0 -19 3.5t-16 10t-11 15.5t-4 19z" />
<glyph unicode="&#xef;" horiz-adv-x="506" d="M97 1313q0 24 8.5 45t24 36.5t36.5 24t46 8.5q21 0 39 -7.5t31 -20.5t20.5 -31t7.5 -39q0 -24 -8.5 -45t-23.5 -36.5t-35.5 -24.5t-45.5 -9q-21 0 -39.5 7.5t-32 20.5t-21 31t-7.5 40zM103 47q0 6 1 13.5t5 29.5l148 853q5 32 24.5 49.5t55.5 17.5q32 0 49 -13.5 t17 -39.5q0 -6 -1 -13.5t-5 -29.5l-148 -853q-5 -32 -24.5 -49.5t-55.5 -17.5q-32 0 -49 13.5t-17 39.5zM451 1313q0 24 8.5 45t24 36.5t36.5 24t46 8.5q21 0 39 -7.5t31 -20.5t20.5 -31t7.5 -39q0 -24 -8.5 -45t-23.5 -36.5t-35.5 -24.5t-45.5 -9q-21 0 -39.5 7.5t-32 20.5 t-21 31t-7.5 40z" />
<glyph unicode="&#xf0;" horiz-adv-x="1114" d="M87 382q0 146 44.5 264.5t123.5 202t188 128.5t238 45q39 0 70.5 -3.5t53.5 -7.5t34 -7l12 -4q-36 146 -120 238l-164 -122q-11 -8 -19 -11.5t-19 -3.5q-12 0 -22.5 5.5t-18.5 14t-13 19.5t-5 23q0 13 6 23t18 19l147 109q-32 20 -56.5 31.5t-42.5 18.5l-30 12 q-12 5 -20 13t-11.5 16.5t-3.5 20.5q0 11 4.5 22.5t13 21t21.5 15.5t31 6q19 0 46 -8t56.5 -21t58 -28.5t50.5 -31.5l158 117q11 8 19 11.5t19 3.5q12 0 22.5 -5.5t18.5 -14t13 -19.5t5 -23q0 -13 -6 -23t-18 -19l-143 -106q94 -103 139.5 -249.5t45.5 -328.5 q0 -193 -44 -336.5t-120 -238.5t-178 -142t-217 -47q-87 0 -158 28t-121.5 80.5t-78 126t-27.5 165.5zM239 400q0 -72 18 -127t51.5 -91.5t80 -55.5t103.5 -19q76 0 146.5 35.5t123.5 111.5t85 194t32 283q0 32 -1.5 62.5t-3.5 59.5q-37 21 -88.5 33t-124.5 12 q-90 0 -167 -33.5t-133.5 -97.5t-89 -156.5t-32.5 -210.5z" />
<glyph unicode="&#xf1;" horiz-adv-x="1166" d="M104 61l155 894q5 29 21 43t42 14q28 0 43.5 -18t15.5 -60q0 -14 -1.5 -28t-3.5 -26l-4 -28h3q36 47 85 85q21 16 47 31t57.5 27t68 19.5t78.5 7.5q74 0 132 -20.5t98.5 -59.5t62 -95t21.5 -127q0 -39 -7 -90.5t-18 -109.5l-22 -117l-23 -117q-10 -56 -17 -105t-7 -84 q0 -15 1 -25t1 -24q0 -23 -16.5 -38.5t-47.5 -15.5q-39 0 -61.5 23.5t-22.5 69.5q0 33 7 80.5t17 102.5t22 114.5t22 116.5t17 108.5t7 90.5q0 100 -50 148.5t-150 48.5q-37 0 -70.5 -9t-62.5 -24t-54 -34t-46 -39q-48 -47 -86 -105l-109 -625q-5 -32 -24.5 -49.5 t-55.5 -17.5t-53 17.5t-12 49.5zM379 1269q0 24 17.5 53t47.5 53.5t70.5 41t85.5 16.5q50 0 84.5 -16.5t62.5 -37.5l52 -37q25 -16 54 -16q31 0 52.5 13.5t38.5 29.5l34 29q16 14 36 14q10 0 18.5 -3t14.5 -8.5t9.5 -14t3.5 -20.5q0 -24 -17.5 -53t-47.5 -53.5t-70.5 -41 t-85.5 -16.5q-50 0 -84.5 16.5t-62.5 36.5l-53 37q-24 17 -53 17q-31 0 -52.5 -13.5t-39.5 -29.5l-33 -30q-16 -13 -36 -13q-10 0 -18.5 3t-14.5 8.5t-9.5 14t-3.5 20.5z" />
<glyph unicode="&#xf2;" horiz-adv-x="1122" d="M89 382q0 146 44 264.5t119 202t176 128.5t215 45q88 0 160 -28t123 -80.5t79 -126.5t28 -165q0 -146 -44 -264.5t-119 -202t-176 -128.5t-215 -45q-89 0 -161 28t-123 80.5t-78.5 126t-27.5 165.5zM241 400q0 -72 18 -127t52 -91.5t81.5 -55.5t106.5 -19q75 0 144 33.5 t122 97t84.5 156t31.5 210.5q0 72 -18 127t-52 91.5t-81.5 55.5t-106.5 19q-75 0 -144 -33.5t-122 -97.5t-84.5 -156t-31.5 -210zM486 1434q0 16 8.5 30.5t22 25.5t29.5 17.5t32 6.5t27 -7t19 -21l130 -253q5 -9 6.5 -15t1.5 -13q0 -12 -5.5 -22t-14.5 -17.5t-21 -12 t-24 -4.5q-14 0 -23.5 6t-17.5 17l-155 225q-7 10 -11 18.5t-4 18.5z" />
<glyph unicode="&#xf3;" horiz-adv-x="1122" d="M89 382q0 146 44 264.5t119 202t176 128.5t215 45q88 0 160 -28t123 -80.5t79 -126.5t28 -165q0 -146 -44 -264.5t-119 -202t-176 -128.5t-215 -45q-89 0 -161 28t-123 80.5t-78.5 126t-27.5 165.5zM241 400q0 -72 18 -127t52 -91.5t81.5 -55.5t106.5 -19q75 0 144 33.5 t122 97t84.5 156t31.5 210.5q0 72 -18 127t-52 91.5t-81.5 55.5t-106.5 19q-75 0 -144 -33.5t-122 -97.5t-84.5 -156t-31.5 -210zM558 1209q0 10 4 18t12 18l207 247q17 20 42 20q15 0 30 -7t27 -18.5t19.5 -26.5t7.5 -30q0 -13 -5 -22.5t-14 -18.5l-237 -221 q-7 -6 -15.5 -9.5t-17.5 -3.5q-11 0 -22 4.5t-19.5 12t-13.5 17.5t-5 20z" />
<glyph unicode="&#xf4;" horiz-adv-x="1122" d="M89 382q0 146 44 264.5t119 202t176 128.5t215 45q88 0 160 -28t123 -80.5t79 -126.5t28 -165q0 -146 -44 -264.5t-119 -202t-176 -128.5t-215 -45q-89 0 -161 28t-123 80.5t-78.5 126t-27.5 165.5zM241 400q0 -72 18 -127t52 -91.5t81.5 -55.5t106.5 -19q75 0 144 33.5 t122 97t84.5 156t31.5 210.5q0 72 -18 127t-52 91.5t-81.5 55.5t-106.5 19q-75 0 -144 -33.5t-122 -97.5t-84.5 -156t-31.5 -210zM408 1211q0 10 4 19.5t13 17.5l219 207q22 20 39 30t40 10t39 -9.5t30 -29.5l147 -213q5 -8 7 -14.5t2 -14.5q0 -11 -5 -21t-13 -17t-18.5 -11 t-21.5 -4q-24 0 -40 18l-146 163l-214 -168q-15 -12 -32 -12q-11 0 -20.5 4.5t-16 11.5t-10 16t-3.5 17z" />
<glyph unicode="&#xf5;" horiz-adv-x="1122" d="M89 382q0 146 44 264.5t119 202t176 128.5t215 45q88 0 160 -28t123 -80.5t79 -126.5t28 -165q0 -146 -44 -264.5t-119 -202t-176 -128.5t-215 -45q-89 0 -161 28t-123 80.5t-78.5 126t-27.5 165.5zM241 400q0 -72 18 -127t52 -91.5t81.5 -55.5t106.5 -19q75 0 144 33.5 t122 97t84.5 156t31.5 210.5q0 72 -18 127t-52 91.5t-81.5 55.5t-106.5 19q-75 0 -144 -33.5t-122 -97.5t-84.5 -156t-31.5 -210zM352 1269q0 24 17.5 53t47.5 53.5t70.5 41t85.5 16.5q50 0 84.5 -16.5t62.5 -36.5l52 -38q25 -16 54 -16q31 0 52.5 13.5t38.5 29.5l34 29 q16 14 36 14q10 0 18.5 -3t14.5 -8.5t9.5 -14t3.5 -20.5q0 -24 -17.5 -53t-47.5 -53.5t-70.5 -41t-85.5 -16.5q-50 0 -84.5 16.5t-62.5 37.5l-53 36q-24 17 -53 17q-31 0 -52.5 -13.5t-38.5 -29.5l-34 -30q-16 -13 -36 -13q-10 0 -18.5 3t-14.5 8.5t-9.5 14t-3.5 20.5z" />
<glyph unicode="&#xf6;" horiz-adv-x="1122" d="M89 382q0 146 44 264.5t119 202t176 128.5t215 45q88 0 160 -28t123 -80.5t79 -126.5t28 -165q0 -146 -44 -264.5t-119 -202t-176 -128.5t-215 -45q-89 0 -161 28t-123 80.5t-78.5 126t-27.5 165.5zM241 400q0 -72 18 -127t52 -91.5t81.5 -55.5t106.5 -19q75 0 144 33.5 t122 97t84.5 156t31.5 210.5q0 72 -18 127t-52 91.5t-81.5 55.5t-106.5 19q-75 0 -144 -33.5t-122 -97.5t-84.5 -156t-31.5 -210zM393 1313q0 24 8.5 45t24 36.5t36.5 24t46 8.5q21 0 39 -7.5t31 -20.5t20.5 -31t7.5 -39q0 -24 -8.5 -45t-23.5 -36.5t-35.5 -24.5t-45.5 -9 q-21 0 -39.5 7.5t-32 20.5t-21 31t-7.5 40zM775 1313q0 24 8.5 45t24 36.5t36.5 24t46 8.5q21 0 39 -7.5t31 -20.5t20.5 -31t7.5 -39q0 -24 -8.5 -45t-23.5 -36.5t-35.5 -24.5t-45.5 -9q-21 0 -39.5 7.5t-32 20.5t-21 31t-7.5 40z" />
<glyph unicode="&#xf7;" d="M178 571q0 16 5 29.5t14.5 23t23 14.5t29.5 5h719q27 0 42 -13t15 -38q0 -16 -5 -29.5t-15 -23t-23.5 -14.5t-30.5 -5h-717q-29 0 -43 14t-14 37zM446 268q0 22 8 40.5t22 32.5t33 22t42 8q20 0 37 -7.5t30 -20t20 -30t7 -37.5q0 -21 -8 -40t-22 -32.5t-33 -21.5t-41 -8 q-20 0 -37.5 7t-30.5 20t-20 30t-7 37zM555 887q0 21 8 40t21.5 32.5t32.5 21.5t40 8t39 -7t30.5 -19.5t20 -29.5t7.5 -38t-8 -40t-22 -32.5t-33.5 -21.5t-41.5 -8q-20 0 -37 7t-30 20t-20 30t-7 37z" />
<glyph unicode="&#xf8;" horiz-adv-x="1122" d="M32 -104q0 10 4 18.5t13 19.5l132 173q-42 48 -67 117.5t-25 157.5q0 146 44 264.5t119 202t176 128.5t215 45q58 0 107.5 -11.5t91.5 -34.5l130 171q11 15 22 22t27 7q13 0 26 -5t23 -14t16.5 -20.5t6.5 -24.5q0 -10 -4 -18.5t-13 -19.5l-135 -177q45 -52 68.5 -121 t23.5 -154q0 -146 -44 -264.5t-119 -202t-176 -128.5t-215 -45q-60 0 -107.5 11.5t-91.5 34.5l-127 -167q-11 -15 -22 -22t-27 -7q-13 0 -26 5t-23 14t-16.5 20.5t-6.5 24.5zM241 400q0 -53 9.5 -94t26.5 -75l482 633q-29 17 -62.5 25t-73.5 8q-75 0 -144 -33.5t-122 -97.5 t-84.5 -156t-31.5 -210zM363 140q29 -17 64.5 -25t71.5 -8q75 0 144 33.5t122 97t84.5 156t31.5 210.5q0 53 -9.5 94t-26.5 75z" />
<glyph unicode="&#xf9;" horiz-adv-x="1159" d="M142 284q0 29 4 63.5t9 66.5l92 529q5 32 24.5 49.5t55.5 17.5t53 -17.5t12 -49.5l-91 -527q-6 -34 -8.5 -59t-2.5 -53q0 -100 49 -148.5t143 -48.5q37 0 70 9t62.5 23.5t54.5 33.5t46 39q48 47 86 106l109 625q5 32 24.5 49.5t55.5 17.5t53 -17.5t12 -49.5l-111 -640 q-6 -35 -10.5 -65.5t-8 -56.5t-5 -47t-1.5 -37q0 -15 1 -25t1 -24q0 -24 -15.5 -39t-42.5 -15q-51 0 -67.5 43t-8.5 115h-3q-36 -48 -85 -85q-21 -16 -47 -31.5t-57.5 -27.5t-68 -19t-78.5 -7q-71 0 -127.5 20.5t-96.5 59.5t-61 95t-21 127zM473 1434q0 16 8.5 30.5t22 25.5 t29.5 17.5t32 6.5t27 -7t19 -21l130 -253q5 -9 6.5 -15t1.5 -13q0 -12 -5.5 -22t-14.5 -17.5t-21 -12t-24 -4.5q-14 0 -23.5 6t-17.5 17l-155 225q-7 10 -11 18.5t-4 18.5z" />
<glyph unicode="&#xfa;" horiz-adv-x="1159" d="M142 284q0 29 4 63.5t9 66.5l92 529q5 32 24.5 49.5t55.5 17.5t53 -17.5t12 -49.5l-91 -527q-6 -34 -8.5 -59t-2.5 -53q0 -100 49 -148.5t143 -48.5q37 0 70 9t62.5 23.5t54.5 33.5t46 39q48 47 86 106l109 625q5 32 24.5 49.5t55.5 17.5t53 -17.5t12 -49.5l-111 -640 q-6 -35 -10.5 -65.5t-8 -56.5t-5 -47t-1.5 -37q0 -15 1 -25t1 -24q0 -24 -15.5 -39t-42.5 -15q-51 0 -67.5 43t-8.5 115h-3q-36 -48 -85 -85q-21 -16 -47 -31.5t-57.5 -27.5t-68 -19t-78.5 -7q-71 0 -127.5 20.5t-96.5 59.5t-61 95t-21 127zM602 1209q0 10 4 18t12 18 l207 247q17 20 42 20q15 0 30 -7t27 -18.5t19.5 -26.5t7.5 -30q0 -13 -5 -22.5t-14 -18.5l-237 -221q-7 -6 -15.5 -9.5t-17.5 -3.5q-11 0 -22 4.5t-19.5 12t-13.5 17.5t-5 20z" />
<glyph unicode="&#xfb;" horiz-adv-x="1159" d="M142 284q0 29 4 63.5t9 66.5l92 529q5 32 24.5 49.5t55.5 17.5t53 -17.5t12 -49.5l-91 -527q-6 -34 -8.5 -59t-2.5 -53q0 -100 49 -148.5t143 -48.5q37 0 70 9t62.5 23.5t54.5 33.5t46 39q48 47 86 106l109 625q5 32 24.5 49.5t55.5 17.5t53 -17.5t12 -49.5l-111 -640 q-6 -35 -10.5 -65.5t-8 -56.5t-5 -47t-1.5 -37q0 -15 1 -25t1 -24q0 -24 -15.5 -39t-42.5 -15q-51 0 -67.5 43t-8.5 115h-3q-36 -48 -85 -85q-21 -16 -47 -31.5t-57.5 -27.5t-68 -19t-78.5 -7q-71 0 -127.5 20.5t-96.5 59.5t-61 95t-21 127zM417 1211q0 10 4 19.5t13 17.5 l219 207q22 20 39 30t40 10t39 -9.5t30 -29.5l147 -213q5 -8 7 -14.5t2 -14.5q0 -11 -5 -21t-13 -17t-18.5 -11t-21.5 -4q-24 0 -40 18l-146 163l-214 -168q-15 -12 -32 -12q-11 0 -20.5 4.5t-16 11.5t-10 16t-3.5 17z" />
<glyph unicode="&#xfc;" horiz-adv-x="1159" d="M142 284q0 29 4 63.5t9 66.5l92 529q5 32 24.5 49.5t55.5 17.5t53 -17.5t12 -49.5l-91 -527q-6 -34 -8.5 -59t-2.5 -53q0 -100 49 -148.5t143 -48.5q37 0 70 9t62.5 23.5t54.5 33.5t46 39q48 47 86 106l109 625q5 32 24.5 49.5t55.5 17.5t53 -17.5t12 -49.5l-111 -640 q-6 -35 -10.5 -65.5t-8 -56.5t-5 -47t-1.5 -37q0 -15 1 -25t1 -24q0 -24 -15.5 -39t-42.5 -15q-51 0 -67.5 43t-8.5 115h-3q-36 -48 -85 -85q-21 -16 -47 -31.5t-57.5 -27.5t-68 -19t-78.5 -7q-71 0 -127.5 20.5t-96.5 59.5t-61 95t-21 127zM399 1313q0 24 8.5 45t24 36.5 t36.5 24t46 8.5q21 0 39 -7.5t31 -20.5t20.5 -31t7.5 -39q0 -24 -8.5 -45t-23.5 -36.5t-35.5 -24.5t-45.5 -9q-21 0 -39.5 7.5t-32 20.5t-21 31t-7.5 40zM781 1313q0 24 8.5 45t24 36.5t36.5 24t46 8.5q21 0 39 -7.5t31 -20.5t20.5 -31t7.5 -39q0 -24 -8.5 -45t-23.5 -36.5 t-35.5 -24.5t-45.5 -9q-21 0 -39.5 7.5t-32 20.5t-21 31t-7.5 40z" />
<glyph unicode="&#xfd;" horiz-adv-x="956" d="M-219 -408q0 13 4.5 24t12 18.5t18.5 12t24 4.5q18 0 32 -3.5t41 -3.5q41 0 84 13.5t92 47.5t105 92.5t124 147.5q-27 163 -52 299t-50 253t-49 218l-48 194q-2 10 -5 21t-3 19q0 16 7.5 28t19 20.5t26 13t28.5 4.5q15 0 28 -5t21 -13t12.5 -19.5t9.5 -31.5 q46 -192 86.5 -403.5t75.5 -449.5h3q48 75 95.5 159.5t94.5 186.5t94 225.5t94 275.5l11 34q4 13 15 24q8 8 20.5 12.5t26.5 4.5q13 0 26 -4t23.5 -11.5t16.5 -19t6 -25.5q0 -7 -2 -17.5t-10 -36.5q-41 -146 -95 -282t-118.5 -263.5t-139.5 -246t-159 -227.5 q-80 -104 -150.5 -173.5t-134.5 -112.5t-123 -61t-116 -18q-36 0 -61 7.5t-39 19.5q-12 11 -17 22.5t-5 25.5zM502 1209q0 10 4 18t12 18l207 247q17 20 42 20q15 0 30 -7t27 -18.5t19.5 -26.5t7.5 -30q0 -13 -5 -22.5t-14 -18.5l-237 -221q-7 -6 -15.5 -9.5t-17.5 -3.5 q-11 0 -22 4.5t-19.5 12t-13.5 17.5t-5 20z" />
<glyph unicode="&#xfe;" horiz-adv-x="1119" d="M23 -412l315 1828q5 32 24.5 49.5t55.5 17.5t53 -17.5t12 -49.5l-72 -419l-12 -64q-6 -32 -15 -66h3q34 43 82 77q20 15 45 29t54 25t62.5 17.5t71.5 6.5q73 0 133 -25t103.5 -73.5t67.5 -121t24 -166.5q0 -154 -44.5 -275.5t-124 -205.5t-190 -128.5t-242.5 -44.5 q-42 0 -76.5 4t-59.5 9q-29 6 -52 14l-3 -1q-5 -32 -9.5 -66.5t-11.5 -70.5l-25 -141l-24 -142q-5 -32 -24.5 -49.5t-55.5 -17.5t-53 17.5t-12 49.5zM264 147q19 -13 47 -23q24 -8 59.5 -15t84.5 -7q89 0 166 33t134 97.5t90 160.5t33 221q0 75 -15 128.5t-42.5 88t-66 50.5 t-86.5 16q-35 0 -67.5 -9t-61 -24t-53 -34t-44.5 -39q-48 -47 -84 -105z" />
<glyph unicode="&#xff;" horiz-adv-x="956" d="M-219 -408q0 13 4.5 24t12 18.5t18.5 12t24 4.5q18 0 32 -3.5t41 -3.5q41 0 84 13.5t92 47.5t105 92.5t124 147.5q-27 163 -52 299t-50 253t-49 218l-48 194q-2 10 -5 21t-3 19q0 16 7.5 28t19 20.5t26 13t28.5 4.5q15 0 28 -5t21 -13t12.5 -19.5t9.5 -31.5 q46 -192 86.5 -403.5t75.5 -449.5h3q48 75 95.5 159.5t94.5 186.5t94 225.5t94 275.5l11 34q4 13 15 24q8 8 20.5 12.5t26.5 4.5q13 0 26 -4t23.5 -11.5t16.5 -19t6 -25.5q0 -7 -2 -17.5t-10 -36.5q-41 -146 -95 -282t-118.5 -263.5t-139.5 -246t-159 -227.5 q-80 -104 -150.5 -173.5t-134.5 -112.5t-123 -61t-116 -18q-36 0 -61 7.5t-39 19.5q-12 11 -17 22.5t-5 25.5zM300 1313q0 24 8.5 45t24 36.5t36.5 24t46 8.5q21 0 39 -7.5t31 -20.5t20.5 -31t7.5 -39q0 -24 -8.5 -45t-23.5 -36.5t-35.5 -24.5t-45.5 -9q-21 0 -39.5 7.5 t-32 20.5t-21 31t-7.5 40zM682 1313q0 24 8.5 45t24 36.5t36.5 24t46 8.5q21 0 39 -7.5t31 -20.5t20.5 -31t7.5 -39q0 -24 -8.5 -45t-23.5 -36.5t-35.5 -24.5t-45.5 -9q-21 0 -39.5 7.5t-32 20.5t-21 31t-7.5 40z" />
<glyph unicode="&#x152;" horiz-adv-x="1807" d="M124 516q0 135 27 253t77 215.5t119.5 174.5t155 129.5t183.5 80.5t204 28q72 0 128.5 -4.5t107.5 -14.5h673q26 0 40 -14t14 -42q0 -17 -5 -31t-14 -23.5t-22 -14.5t-28 -5h-542l-82 -473h463q26 0 40 -14t14 -42q0 -17 -5 -31t-14 -23.5t-22 -14.5t-28 -5h-470 l-89 -515h538q26 0 40 -14t14 -42q0 -17 -5 -30.5t-14 -23.5t-21.5 -15t-28.5 -5h-684q-52 -8 -107 -13t-124 -5q-125 0 -224 36.5t-167.5 105.5t-105 168t-36.5 224zM280 536q0 -102 27.5 -181t79.5 -132.5t126 -81.5t167 -28q69 0 121.5 6.5t100.5 19.5l189 1098 q-43 14 -97.5 21.5t-125.5 7.5q-117 0 -223.5 -50t-187.5 -144.5t-129 -229.5t-48 -306z" />
<glyph unicode="&#x153;" horiz-adv-x="1789" d="M89 382q0 146 44 264.5t119 202t176 128.5t215 45q66 0 122 -15.5t101 -44t77.5 -69t51.5 -90.5q35 49 80 89.5t99 69t116 44.5t130 16q73 0 128.5 -18.5t93 -50.5t57 -75.5t19.5 -93.5q0 -89 -43.5 -157t-130.5 -112.5t-218.5 -65.5t-307.5 -16q-6 -73 9 -132.5t51 -102 t92.5 -66t132.5 -23.5q56 0 96 8.5t68.5 18t48 18t36.5 8.5q22 0 34.5 -13.5t12.5 -33.5q0 -16 -5 -28t-16 -23q-14 -14 -42.5 -28.5t-67.5 -26.5t-87.5 -19.5t-103.5 -7.5q-145 0 -240.5 56.5t-138.5 155.5q-73 -97 -178.5 -154.5t-240.5 -57.5q-89 0 -161 28t-123 80.5 t-78.5 126t-27.5 165.5zM241 400q0 -72 18 -127t52 -91.5t81.5 -55.5t106.5 -19q75 0 144 33.5t122 97t84.5 156t31.5 210.5q0 72 -18 127t-52 91.5t-81.5 55.5t-106.5 19q-75 0 -144 -33.5t-122 -97.5t-84.5 -156t-31.5 -210zM1034 551q136 -6 236.5 7t166.5 41.5t98 70.5 t32 94q0 63 -40 99t-128 36q-61 0 -118.5 -22.5t-106 -67t-85 -109.5t-55.5 -149z" />
<glyph unicode="&#x178;" horiz-adv-x="1072" d="M175 1313q0 16 7 29.5t19 23.5t27 15.5t31 5.5q15 0 26 -4.5t19 -12.5q7 -7 11.5 -15.5t14.5 -33.5l200 -492l16 -40q7 -20 12 -36l11 -34h4q11 17 24 35l26 37l31 43l370 505l14 18q5 7 10 12q9 9 21 13.5t24 4.5q15 0 28.5 -5.5t24.5 -15.5t17.5 -22.5t6.5 -27.5 q0 -6 -1.5 -12t-4 -11.5t-6.5 -11.5l-9 -13l-525 -678l-91 -529q-5 -32 -24.5 -49.5t-57.5 -17.5t-55 17.5t-12 49.5l92 531l-284 666q-9 21 -13 32t-4 23zM395 1642q0 24 8.5 44.5t23.5 36t35.5 24t45.5 8.5q22 0 40.5 -7.5t31.5 -21t20.5 -32t7.5 -39.5q0 -24 -8 -44.5 t-22.5 -36t-35 -24t-44.5 -8.5q-23 0 -41.5 7.5t-32.5 21t-21.5 32t-7.5 39.5zM804 1642q0 24 8.5 44.5t23.5 36t35.5 24t45.5 8.5q22 0 40.5 -7.5t31.5 -21t20.5 -32t7.5 -39.5q0 -24 -8 -44.5t-22.5 -36t-35 -24t-44.5 -8.5q-23 0 -41.5 7.5t-32.5 21t-21.5 32t-7.5 39.5z " />
<glyph unicode="&#x2c6;" horiz-adv-x="1024" d="M358 1211q0 10 4 19.5t13 17.5l219 207q22 20 39 30t40 10t39 -9.5t30 -29.5l147 -213q5 -8 7 -14.5t2 -14.5q0 -11 -5 -21t-13 -17t-18.5 -11t-21.5 -4q-24 0 -40 18l-146 163l-214 -168q-15 -12 -32 -12q-11 0 -20.5 4.5t-16 11.5t-10 16t-3.5 17z" />
<glyph unicode="&#x2dc;" horiz-adv-x="1024" d="M299 1269q0 24 17.5 53t47.5 53.5t70.5 41t85.5 16.5q50 0 84.5 -16.5t62.5 -36.5l52 -38q25 -16 54 -16q31 0 52.5 13.5t38.5 29.5l34 29q16 14 36 14q10 0 18.5 -3t14.5 -8.5t9.5 -14t3.5 -20.5q0 -24 -17.5 -53t-47.5 -53.5t-70.5 -41t-85.5 -16.5q-50 0 -84.5 16.5 t-62.5 37.5l-53 36q-24 17 -53 17q-31 0 -52.5 -13.5t-39.5 -29.5l-33 -30q-16 -13 -36 -13q-10 0 -18.5 3t-14.5 8.5t-9.5 14t-3.5 20.5z" />
<glyph unicode="&#x2000;" horiz-adv-x="968" />
<glyph unicode="&#x2001;" horiz-adv-x="1937" />
<glyph unicode="&#x2002;" horiz-adv-x="968" />
<glyph unicode="&#x2003;" horiz-adv-x="1937" />
<glyph unicode="&#x2004;" horiz-adv-x="645" />
<glyph unicode="&#x2005;" horiz-adv-x="484" />
<glyph unicode="&#x2006;" horiz-adv-x="322" />
<glyph unicode="&#x2007;" horiz-adv-x="322" />
<glyph unicode="&#x2008;" horiz-adv-x="242" />
<glyph unicode="&#x2009;" horiz-adv-x="387" />
<glyph unicode="&#x200a;" horiz-adv-x="107" />
<glyph unicode="&#x2010;" horiz-adv-x="952" d="M174 525q0 16 4.5 29.5t13.5 22.5t21 14t27 5h500q25 0 38 -13t13 -39q0 -17 -4.5 -30t-13.5 -22t-21 -14t-27 -5h-500q-25 0 -38 13t-13 39z" />
<glyph unicode="&#x2011;" horiz-adv-x="952" d="M174 525q0 16 4.5 29.5t13.5 22.5t21 14t27 5h500q25 0 38 -13t13 -39q0 -17 -4.5 -30t-13.5 -22t-21 -14t-27 -5h-500q-25 0 -38 13t-13 39z" />
<glyph unicode="&#x2012;" horiz-adv-x="952" d="M174 525q0 16 4.5 29.5t13.5 22.5t21 14t27 5h500q25 0 38 -13t13 -39q0 -17 -4.5 -30t-13.5 -22t-21 -14t-27 -5h-500q-25 0 -38 13t-13 39z" />
<glyph unicode="&#x2013;" d="M6 525q0 16 4.5 29.5t13.5 22.5t21 14t27 5h1054q25 0 38 -13t13 -39q0 -17 -4.5 -30t-13.5 -22t-21 -14t-27 -5h-1054q-25 0 -38 13t-13 39z" />
<glyph unicode="&#x2014;" horiz-adv-x="2048" d="M201 525q0 16 4.5 29.5t13.5 22.5t21 14t27 5h1544q25 0 38 -13t13 -39q0 -17 -4.5 -30t-13.5 -22t-21 -14t-27 -5h-1544q-25 0 -38 13t-13 39z" />
<glyph unicode="&#x2018;" horiz-adv-x="546" d="M266 1099q0 42 15.5 86.5t41.5 87.5t59 82.5t69 71.5q21 18 38.5 31t33 21.5t29.5 12t28 3.5q23 0 36.5 -12.5t13.5 -32.5q0 -22 -15 -37l-41 -39q-26 -24 -58.5 -65t-66.5 -116q10 -8 18.5 -17.5t15 -21.5t10 -27t3.5 -33q0 -25 -9 -46.5t-24.5 -37.5t-37.5 -25.5 t-48 -9.5t-46.5 8t-35 24t-22 39t-7.5 53z" />
<glyph unicode="&#x2019;" horiz-adv-x="546" d="M201 1020q0 22 15 37l41 39q26 24 58.5 65t66.5 116q-10 7 -18.5 17t-15 22t-10 27t-3.5 33q0 25 8.5 46.5t24.5 37.5t38 25.5t48 9.5t46.5 -8t35 -24t22 -39t7.5 -53q0 -42 -15.5 -86.5t-41.5 -87.5t-59 -82.5t-69 -71.5q-21 -18 -38.5 -31t-33 -21.5t-30 -12 t-27.5 -3.5q-23 0 -36.5 12.5t-13.5 32.5z" />
<glyph unicode="&#x201a;" horiz-adv-x="546" d="M-23 -260q0 14 7 25t20 23l30 27q17 16 37 40t42 58t45 84q-10 7 -18.5 17t-15 22t-10 27t-3.5 33q0 25 8.5 46.5t24.5 37.5t38 25.5t48 9.5t46.5 -8t35 -24t22 -39t7.5 -53q0 -42 -15.5 -86.5t-41.5 -87.5t-59 -82.5t-69 -71.5q-21 -18 -38.5 -31t-33 -21.5t-30 -12 t-27.5 -3.5q-23 0 -36.5 12.5t-13.5 32.5z" />
<glyph unicode="&#x201c;" horiz-adv-x="946" d="M266 1099q0 42 15.5 86.5t41.5 87.5t59 82.5t69 71.5q21 18 38.5 31t33 21.5t29.5 12t28 3.5q23 0 36.5 -12.5t13.5 -32.5q0 -14 -7 -25t-20 -23l-30 -28q-17 -15 -37 -39t-42.5 -58t-44.5 -84q10 -8 18.5 -17.5t15 -21.5t10 -27t3.5 -33q0 -25 -9 -46.5t-24.5 -37.5 t-37.5 -25.5t-48 -9.5t-46.5 8t-35 24t-22 39t-7.5 53zM666 1099q0 42 15.5 86.5t41.5 87.5t59 82.5t69 71.5q21 18 38.5 31t33 21.5t29.5 12t28 3.5q23 0 36.5 -12.5t13.5 -32.5q0 -14 -7 -25t-20 -23l-30 -28q-17 -15 -37 -39t-42.5 -58t-44.5 -84q10 -8 18.5 -17.5 t15 -21.5t10 -27t3.5 -33q0 -25 -9 -46.5t-24.5 -37.5t-37.5 -25.5t-48 -9.5t-46.5 8t-35 24t-22 39t-7.5 53z" />
<glyph unicode="&#x201d;" horiz-adv-x="946" d="M201 1020q0 22 15 37l41 39q26 24 58.5 65t66.5 116q-10 7 -18.5 17t-15 22t-10 27t-3.5 33q0 25 8.5 46.5t24.5 37.5t38 25.5t48 9.5t46.5 -8t35 -24t22 -39t7.5 -53q0 -42 -15.5 -86.5t-41.5 -87.5t-59 -82.5t-69 -71.5q-21 -18 -38.5 -31t-33 -21.5t-30 -12 t-27.5 -3.5q-23 0 -36.5 12.5t-13.5 32.5zM601 1020q0 22 15 37l41 39q26 24 58.5 65t66.5 116q-10 7 -18.5 17t-15 22t-10 27t-3.5 33q0 25 8.5 46.5t24.5 37.5t38 25.5t48 9.5t46.5 -8t35 -24t22 -39t7.5 -53q0 -42 -15.5 -86.5t-41.5 -87.5t-59 -82.5t-69 -71.5 q-21 -18 -38.5 -31t-33 -21.5t-30 -12t-27.5 -3.5q-23 0 -36.5 12.5t-13.5 32.5z" />
<glyph unicode="&#x201e;" horiz-adv-x="946" d="M-23 -260q0 14 7 25t20 23l30 27q17 16 37 40t42 58t45 84q-10 7 -18.5 17t-15 22t-10 27t-3.5 33q0 25 8.5 46.5t24.5 37.5t38 25.5t48 9.5t46.5 -8t35 -24t22 -39t7.5 -53q0 -42 -15.5 -86.5t-41.5 -87.5t-59 -82.5t-69 -71.5q-21 -18 -38.5 -31t-33 -21.5t-30 -12 t-27.5 -3.5q-23 0 -36.5 12.5t-13.5 32.5zM377 -260q0 14 7 25t20 23l30 28q17 15 37 39t42 58t45 84q-10 7 -18.5 17t-15 22t-10 27t-3.5 33q0 25 8.5 46.5t24.5 37.5t38 25.5t48 9.5t46.5 -8t35 -24t22 -39t7.5 -53q0 -42 -15.5 -86.5t-41.5 -87.5t-59 -82.5t-69 -71.5 q-21 -18 -38.5 -31t-33 -21.5t-30 -12t-27.5 -3.5q-23 0 -36.5 12.5t-13.5 32.5z" />
<glyph unicode="&#x2022;" horiz-adv-x="888" d="M263 696q0 49 17 91t47.5 72.5t72 47.5t90.5 17q46 0 84 -15t65.5 -42.5t42.5 -65.5t15 -84q0 -49 -17.5 -91t-48 -72.5t-72 -47.5t-89.5 -17q-46 0 -84 15t-65.5 42.5t-42.5 65.5t-15 84z" />
<glyph unicode="&#x2026;" horiz-adv-x="1574" d="M87 96q0 25 9 47t25 38t37.5 25t47.5 9q25 0 46 -8.5t36 -23.5t23.5 -36.5t8.5 -46.5t-9 -46.5t-25 -37.5t-37.5 -25t-46.5 -9q-26 0 -47 8.5t-36 23.5t-23.5 36t-8.5 46zM606 96q0 25 9 47t25 38t37.5 25t47.5 9q25 0 46 -8.5t36 -23.5t23.5 -36.5t8.5 -46.5t-9 -46.5 t-25 -37.5t-37.5 -25t-46.5 -9q-26 0 -47 8.5t-36 23.5t-23.5 36t-8.5 46zM1125 96q0 25 9 47t25 38t37.5 25t47.5 9q25 0 46 -8.5t36 -23.5t23.5 -36.5t8.5 -46.5t-9 -46.5t-25 -37.5t-37.5 -25t-46.5 -9q-26 0 -47 8.5t-36 23.5t-23.5 36t-8.5 46z" />
<glyph unicode="&#x202f;" horiz-adv-x="387" />
<glyph unicode="&#x2039;" horiz-adv-x="695" d="M105 511q0 25 11 42.5t33 36.5l403 338q16 13 35 13q13 0 24.5 -5.5t19.5 -14t13 -19.5t5 -23q0 -11 -4.5 -21t-14.5 -19l-367 -329l233 -344q5 -8 8 -16t3 -19q0 -14 -6.5 -25.5t-16.5 -20t-22.5 -13.5t-24.5 -5q-14 0 -25.5 5.5t-21.5 18.5l-263 361q-10 14 -16 28 t-6 31z" />
<glyph unicode="&#x203a;" horiz-adv-x="695" d="M46 124q0 11 4.5 21t14.5 19l367 329l-233 344q-5 8 -8 16t-3 19q0 13 6.5 25t16.5 20.5t22.5 13.5t24.5 5q14 0 25.5 -5.5t21.5 -18.5l263 -361q10 -14 16 -28t6 -31q0 -25 -11 -42.5t-33 -36.5l-403 -338q-16 -13 -35 -13q-13 0 -24.5 5.5t-19.5 14t-13 19.5t-5 23z " />
<glyph unicode="&#x205f;" horiz-adv-x="484" />
<glyph unicode="&#x20ac;" horiz-adv-x="1216" d="M80 513q0 29 16 48t47 19h119q3 54 10.5 105t18.5 99h-112q-22 0 -33.5 13t-11.5 36q0 29 16 48t47 19h128q42 116 107 208t148 155.5t181.5 97.5t207.5 34q101 0 170 -20.5t98 -49.5q12 -12 16.5 -23t4.5 -25q0 -25 -17 -43t-46 -18q-18 0 -36.5 8t-46 17.5t-68 17.5 t-101.5 8q-81 0 -153 -28t-131 -77t-105 -116.5t-75 -145.5h419q22 0 33.5 -13t11.5 -36q0 -29 -16 -48t-47 -19h-437q-11 -48 -18.5 -98.5t-9.5 -105.5h429q22 0 33.5 -13t11.5 -36q0 -29 -16 -48t-47 -19h-410q12 -177 100.5 -263.5t243.5 -86.5q59 0 101.5 9t73.5 20 t53 20t40 9q23 0 35.5 -14t12.5 -34q0 -17 -5 -29t-16 -23q-18 -18 -50.5 -34t-75 -28t-92.5 -19t-102 -7q-111 0 -197 32.5t-146 94t-93 150.5t-38 203h-136q-22 0 -33.5 13t-11.5 36z" />
<glyph unicode="&#x2122;" horiz-adv-x="1594" d="M161 1321q0 27 14 42t36 15h464q19 0 29 -10.5t10 -32.5q0 -26 -14 -41.5t-37 -15.5h-175l-93 -539q-5 -26 -20.5 -40t-45.5 -14q-31 0 -44.5 14t-8.5 40l93 539h-169q-39 0 -39 43zM687 726q0 5 1 10t3 14l153 553q11 40 34.5 58t68.5 18q43 0 60.5 -18.5t22.5 -53.5 l63 -494h2l232 492q17 37 40 55.5t65 18.5q20 0 35.5 -3.5t25.5 -12t15 -21t5 -30.5v-10q0 -6 -1 -19l-38 -539q-1 -14 -3 -25.5t-10 -19.5t-21 -12.5t-27 -4.5q-25 0 -41.5 11t-16.5 32v10q0 5 1 16l34 393l15 106h-2l-235 -493q-8 -18 -16 -31.5t-18 -23t-24 -14.5t-35 -5 q-38 0 -53.5 18.5t-20.5 56.5l-66 492h-2l-23 -105l-105 -408q-5 -17 -8 -25t-9 -14q-7 -7 -17.5 -11.5t-25.5 -4.5q-26 0 -42 12t-16 32z" />
<glyph unicode="&#x25fc;" horiz-adv-x="1014" d="M0 0v1015h1015v-1015h-1015z" />
<glyph unicode="&#xfb01;" horiz-adv-x="1155" d="M-290 -402q0 13 4.5 24t12.5 19t18.5 12t23.5 4t25 -3l26 -8q14 -4 31.5 -7.5t43.5 -3.5q35 0 68 11.5t61.5 40t50.5 76t34 119.5l173 1000h-117q-25 0 -38 13t-13 39q0 16 4.5 29t13.5 22t21 14t27 5h123l19 111q16 91 53 161t96 118t140 72.5t183 24.5q55 0 99 -6 t76 -15t53 -19.5t31 -20.5q19 -19 19 -44q0 -26 -16.5 -42.5t-41.5 -16.5q-16 0 -34 6.5t-44.5 14t-66 14t-97.5 6.5q-132 0 -208.5 -65.5t-97.5 -190.5l-18 -108h541q37 0 52 -18t9 -54l-151 -871q-5 -32 -24.5 -49.5t-55.5 -17.5t-53 17.5t-12 49.5l142 821h-469 l-176 -1015q-18 -100 -53 -168t-83.5 -109.5t-108.5 -59.5t-126 -18q-63 0 -99.5 13t-52.5 29q-9 9 -13.5 19.5t-4.5 24.5z" />
<glyph unicode="&#xfb02;" horiz-adv-x="1172" d="M-290 -402q0 13 4.5 24t12.5 19t18.5 12t23.5 4t25 -3l26 -8q14 -4 31.5 -7.5t43.5 -3.5q35 0 68 11.5t61.5 40t50.5 76t34 119.5l173 1000h-117q-25 0 -38 13t-13 39q0 16 4.5 29t13.5 22t21 14t27 5h123l22 125q15 84 52 151.5t97.5 115t145 73.5t192.5 26 q50 0 94.5 -5t79.5 -13.5t60.5 -20t38.5 -24.5q9 -9 14 -19.5t5 -26.5q0 -5 -0.5 -11.5t-2.5 -15.5l-191 -1103q-8 -44 -6.5 -71t9.5 -43t22.5 -21.5t32.5 -5.5q22 0 34 3t26 3q21 0 32.5 -13.5t11.5 -32.5q0 -16 -5 -27.5t-16 -22.5q-7 -7 -18 -13.5t-26 -11t-34.5 -7.5 t-43.5 -3q-87 0 -130.5 45.5t-43.5 130.5q0 24 2.5 45t7.5 47l188 1087q-17 8 -42 14q-21 5 -53 9.5t-77 4.5q-71 0 -125 -17t-92 -49.5t-61.5 -78t-33.5 -102.5l-21 -122h177q25 0 38 -13t13 -39q0 -17 -4.5 -30t-13.5 -22t-21 -13.5t-27 -4.5h-183l-176 -1015 q-18 -100 -53 -168t-83.5 -109.5t-108.5 -59.5t-126 -18q-63 0 -99.5 13t-52.5 29q-9 9 -13.5 19.5t-4.5 24.5z" />
</font>
</defs>
</svg>
