<?xml version="1.0" standalone="no"?>
<!DOCTYPE svg PUBLIC "-//W3C//DTD SVG 1.1//EN" "http://www.w3.org/Graphics/SVG/1.1/DTD/svg11.dtd" >
<svg xmlns="http://www.w3.org/2000/svg" xmlns:xlink="http://www.w3.org/1999/xlink" version="1.1">
<metadata></metadata>
<defs>
<font id="rooneysans-blackuploaded_file" horiz-adv-x="1168" >
<font-face units-per-em="2048" ascent="1548" descent="-500" />
<missing-glyph horiz-adv-x="494" />
<glyph horiz-adv-x="0" />
<glyph horiz-adv-x="0" />
<glyph unicode="&#xd;" horiz-adv-x="0" />
<glyph unicode=" "  horiz-adv-x="494" />
<glyph unicode="&#x09;" horiz-adv-x="494" />
<glyph unicode="&#xa0;" horiz-adv-x="494" />
<glyph unicode="!" horiz-adv-x="737" d="M135 195q0 48 18 88.5t49.5 70t74.5 46t94 16.5t93.5 -16t73 -45t47.5 -68.5t17 -87.5t-17 -88.5t-48 -70t-74.5 -46.5t-95.5 -17t-94.5 16t-73 45t-47.5 69t-17 88zM143 1327q0 34 13 62.5t40 49.5t70 32.5t103 11.5q61 0 104 -11.5t70 -32.5t39 -49.5t12 -62.5 q0 -12 -0.5 -25.5t-1 -30.5t-2 -39t-2.5 -52l-35 -564q-3 -56 -47.5 -92.5t-136.5 -36.5t-136.5 36.5t-48.5 92.5l-34 564l-4 52q-1 22 -1.5 39t-1 30.5t-0.5 25.5z" />
<glyph unicode="&#x22;" horiz-adv-x="961" d="M95 1379q0 55 43.5 85.5t125.5 30.5t125.5 -30.5t43.5 -85.5q0 -11 -1 -26.5t-3 -42.5l-32 -362q-5 -48 -41.5 -73.5t-91.5 -25.5t-91.5 25.5t-41.5 73.5l-32 362q-2 27 -3 42q-1 16 -1 27zM528 1379q0 55 43.5 85.5t125.5 30.5t125.5 -30.5t43.5 -85.5q0 -11 -1 -26.5 t-3 -42.5l-32 -362q-5 -48 -41.5 -73.5t-91.5 -25.5t-91.5 25.5t-41.5 73.5l-32 362q-2 27 -3 42q-1 16 -1 27z" />
<glyph unicode="#" horiz-adv-x="1549" d="M35 417q0 62 31.5 93.5t88.5 31.5h152l84 292h-80q-57 0 -88.5 31.5t-31.5 92.5q0 62 31.5 93.5t88.5 31.5h152l55 187q20 66 56.5 97.5t89.5 31.5q33 0 62 -9t50.5 -26t34 -42t12.5 -56q0 -17 -2 -36.5t-10 -45.5l-29 -101h208l55 187q20 66 56.5 97.5t89.5 31.5 q33 0 62 -9t50.5 -26t34 -42t12.5 -56q0 -17 -2 -36.5t-10 -45.5l-29 -101h82q57 0 90 -31.5t33 -93.5q0 -61 -33 -92.5t-90 -31.5h-154l-84 -292h82q57 0 90 -31.5t33 -93.5q0 -61 -33 -92.5t-90 -31.5h-154l-54 -189q-20 -65 -57 -97t-91 -32q-33 0 -62 9t-50.5 26.5 t-34 42t-12.5 56.5q0 17 2 36t10 45l30 103h-208l-54 -189q-20 -65 -57 -97t-91 -32q-33 0 -62 9t-50.5 26.5t-34 42t-12.5 56.5q0 17 2 36t10 45l30 103h-80q-57 0 -88.5 31.5t-31.5 92.5zM626 542h208l84 292h-208z" />
<glyph unicode="$" horiz-adv-x="1146" d="M100 909q0 73 21.5 137.5t65 116.5t108 89.5t150.5 57.5v195q0 63 33 94t96 31q62 0 96.5 -31t34.5 -94v-179q40 -3 77.5 -10.5t70.5 -19.5t60 -27.5t46 -34.5q29 -29 39 -57t10 -66q0 -64 -36.5 -98t-92.5 -34q-30 0 -55 8l-53 18q-28 9 -64 17t-88 8q-32 0 -54.5 -5.5 t-36.5 -15.5t-20 -23t-6 -29q0 -32 24 -52.5t63.5 -36t89.5 -29.5t102.5 -33.5t103 -46.5t90 -69.5t63.5 -103t24 -145.5q0 -77 -22.5 -144.5t-67 -122t-111.5 -93.5t-156 -60v-195q0 -63 -33 -94t-96 -31q-62 0 -96.5 31t-34.5 94v177q-48 3 -91 11t-79.5 20t-65 27 t-45.5 32q-30 30 -42 58.5t-12 68.5q0 67 37 101.5t92 34.5q30 0 55 -8l55 -18q30 -10 70.5 -18.5t100.5 -8.5q38 0 64.5 6.5t43.5 18.5t24.5 28.5t7.5 36.5q0 34 -24 55.5t-63.5 38t-90 30.5t-103 33.5t-102.5 46t-89.5 68t-63.5 101t-24 143.5z" />
<glyph unicode="%" horiz-adv-x="2007" d="M76 996q0 91 28.5 165t80 126t123.5 80t159 28q93 0 164 -23.5t119 -71t72 -119t24 -167.5q0 -92 -28.5 -165.5t-80.5 -125.5t-124 -80t-160 -28q-93 0 -163.5 23.5t-118 71t-71.5 119t-24 167.5zM374 1007q0 -54 7.5 -88t20 -53.5t28.5 -26.5t32 -7t31.5 7t27.5 26 t19.5 52t7.5 86q0 54 -7.5 88t-20.5 53.5t-29 26.5t-32 7q-15 0 -30.5 -7t-27.5 -26t-19.5 -52.5t-7.5 -85.5zM523 94q0 17 7.5 35.5t17.5 34.5l702 1169q18 31 41 49t60 18q24 0 48 -9t43 -24.5t30.5 -37t11.5 -45.5q0 -17 -7.5 -35.5t-17.5 -34.5l-702 -1169 q-18 -31 -41 -49t-60 -18q-24 0 -48 9t-43 24.5t-30.5 37t-11.5 45.5zM1161 365q0 91 28.5 165t80 126t123.5 80t159 28q93 0 164 -23.5t119 -71t72 -119t24 -167.5q0 -92 -28.5 -165.5t-80.5 -125.5t-124 -80t-160 -28q-93 0 -163.5 23.5t-118 71t-71.5 119t-24 167.5z M1459 376q0 -54 7.5 -88t20 -53.5t28.5 -26.5t32 -7t31.5 7t27.5 26t19.5 52t7.5 86q0 54 -7.5 88t-20.5 53.5t-29 26.5t-32 7q-15 0 -30.5 -7t-27.5 -26t-19.5 -52.5t-7.5 -85.5z" />
<glyph unicode="&#x26;" horiz-adv-x="1761" d="M86 447q0 55 11.5 102.5t31 87.5t43.5 73.5t50 59.5q60 62 136 103q-29 55 -44 109t-15 108q0 91 30.5 165.5t92.5 127.5t155 82.5t218 29.5q61 0 110 -6.5t86 -18t63 -26.5t43 -31q23 -23 33.5 -53t10.5 -68q0 -27 -9 -51t-25 -41t-37.5 -27t-46.5 -10q-24 0 -46 6 l-45 13q-24 6 -52 12t-64 6q-60 0 -88 -26t-28 -75q0 -58 38 -122.5t104.5 -134t157.5 -142.5t196 -146v9v17q0 31 -7 56.5t-19 46.5t-27.5 39t-32.5 35q-26 26 -40 55t-14 80q0 63 30 101.5t93 38.5h367q59 0 93.5 -37t34.5 -111t-34.5 -111t-93.5 -37h-16l5 -13 q5 -14 11 -37.5t11 -55.5t5 -69q0 -44 -10.5 -94.5t-33.5 -103.5l40 -22q20 -11 36 -19q25 -12 43.5 -27.5t31.5 -34.5t19.5 -42.5t6.5 -51.5q0 -35 -13.5 -67t-37.5 -57t-58 -39.5t-76 -14.5q-11 0 -23.5 1.5t-25 4t-24 6t-21.5 8.5q-20 9 -38 18l-37 19l-38 21l-40 23 l-31 -17q-31 -18 -93 -39t-155.5 -38.5t-219.5 -17.5q-179 0 -307.5 35.5t-211 98.5t-121 149t-38.5 187zM486 481q0 -41 16.5 -75.5t53 -60.5t95.5 -40.5t144 -14.5q30 0 57 2t48 5t33 5l13 2q-109 73 -210 155.5t-184 164.5q-19 -15 -33 -35q-13 -18 -23 -44.5t-10 -63.5z " />
<glyph unicode="'" horiz-adv-x="528" d="M95 1379q0 55 43.5 85.5t125.5 30.5t125.5 -30.5t43.5 -85.5q0 -11 -1 -26.5t-3 -42.5l-32 -362q-5 -48 -41.5 -73.5t-91.5 -25.5t-91.5 25.5t-41.5 73.5l-32 362q-2 27 -3 42q-1 16 -1 27z" />
<glyph unicode="(" horiz-adv-x="727" d="M92 590q0 133 22 264.5t64 253t104 228.5t142 192q27 29 62 44t71 15q33 0 59.5 -10t46 -26.5t30 -39.5t10.5 -48q0 -28 -11 -51.5t-25 -47.5q-41 -73 -76.5 -156t-61.5 -178.5t-40.5 -204.5t-14.5 -235q0 -125 14.5 -234t40.5 -204.5t61.5 -178.5t76.5 -156 q14 -24 25 -47.5t11 -51.5q0 -26 -10.5 -48.5t-30 -39t-46 -26.5t-59.5 -10q-36 0 -71 15t-62 44q-80 85 -142 192t-104 228.5t-64 252.5t-22 264z" />
<glyph unicode=")" horiz-adv-x="727" d="M24 -283q0 28 11 51.5t25 47.5q41 73 76.5 156t61.5 178.5t40.5 204.5t14.5 235q0 125 -14.5 234t-40.5 204.5t-61.5 178.5t-76.5 156q-14 24 -25 47.5t-11 51.5q0 25 10.5 48t30 39.5t46 26.5t59.5 10q36 0 71 -15t62 -44q80 -85 142 -192t104 -228.5t64 -252.5t22 -264 q0 -134 -22 -265t-64 -252.5t-104 -228.5t-142 -192q-27 -29 -62 -44t-71 -15q-33 0 -59.5 10t-46 26.5t-30 39t-10.5 48.5z" />
<glyph unicode="*" horiz-adv-x="844" d="M84 1231q0 26 10.5 52t27 46.5t38 33t42.5 12.5q16 0 29.5 -7t27.5 -20l75 -64l-23 93q-3 13 -4.5 21t-1.5 15q0 35 31.5 56.5t85.5 21.5t85.5 -21.5t31.5 -56.5q0 -7 -1.5 -15t-4.5 -21l-23 -92l78 64q14 11 27.5 16.5t25.5 5.5q23 0 44 -12.5t36.5 -32t24.5 -44 t9 -47.5q0 -32 -15.5 -49t-43.5 -26l-94 -30l90 -31q35 -12 51.5 -29.5t16.5 -49.5q0 -26 -10.5 -52t-27 -46.5t-38 -33t-42.5 -12.5q-16 0 -29.5 7t-27.5 20l-75 64l23 -93q3 -13 4.5 -21t1.5 -15q0 -35 -31.5 -56.5t-85.5 -21.5t-85.5 21.5t-31.5 56.5q0 7 1.5 15t4.5 21 l23 92l-78 -64q-14 -11 -27.5 -16.5t-25.5 -5.5q-23 0 -44 12.5t-36.5 32t-24.5 44t-9 47.5q0 32 15.5 49t43.5 26l94 30l-90 31q-35 12 -51.5 29.5t-16.5 49.5z" />
<glyph unicode="+" d="M115 586q0 68 36 106t99 38h174v153q0 89 42.5 130.5t117.5 41.5t117.5 -41.5t42.5 -130.5v-153h174q63 0 99 -38t36 -106t-36 -106t-99 -38h-174v-153q0 -89 -42.5 -130.5t-117.5 -41.5t-117.5 41.5t-42.5 130.5v153h-174q-63 0 -99 38t-36 106z" />
<glyph unicode="," horiz-adv-x="671" d="M60 -281q0 32 18.5 57t44 54t53.5 69.5t46 104.5q-21 10 -43.5 28t-40.5 44t-29.5 60.5t-11.5 78.5q0 51 18.5 95t50.5 76.5t76.5 50.5t96.5 18t95.5 -18.5t74.5 -53.5t48 -85t17 -114t-13 -123t-33 -110.5t-45.5 -95t-50.5 -77.5q-63 -85 -125 -125t-127 -40 q-58 0 -89 29t-31 77z" />
<glyph unicode="-" horiz-adv-x="897" d="M76 564q0 76 35.5 115.5t93.5 39.5h487q58 0 93.5 -39.5t35.5 -115.5t-35.5 -115.5t-93.5 -39.5h-487q-58 0 -93.5 39.5t-35.5 115.5z" />
<glyph unicode="." horiz-adv-x="671" d="M97 215q0 51 18.5 95t50.5 76.5t76.5 50.5t96.5 18q51 0 94.5 -17.5t74.5 -49t48.5 -75t17.5 -94.5q0 -52 -18 -96.5t-50 -76.5t-76 -50.5t-95 -18.5q-52 0 -96 17.5t-75.5 49t-49 75.5t-17.5 96z" />
<glyph unicode="/" horiz-adv-x="932" d="M-7 -161q0 19 6 41t20 61l523 1434q23 63 58 90.5t92 27.5q34 0 67.5 -11t60 -31t43 -48.5t16.5 -62.5q0 -19 -6 -41t-20 -61l-523 -1434q-23 -63 -58 -90.5t-92 -27.5q-34 0 -67.5 11t-60 31t-43 48t-16.5 63z" />
<glyph unicode="0" horiz-adv-x="1360" d="M76 526q0 133 41.5 240.5t120 183t193 116t261.5 40.5q145 0 255.5 -37.5t185.5 -108t113 -172t38 -229.5q0 -134 -41.5 -241.5t-120 -183t-193 -116.5t-261.5 -41q-145 0 -255.5 37.5t-185.5 108t-113 172.5t-38 231zM489 545q0 -66 14.5 -114.5t40.5 -80.5t61 -47.5 t77 -15.5q41 0 75.5 15t59.5 46.5t39 79.5t14 113t-14.5 113.5t-40 80t-61 47t-76.5 15.5t-75.5 -15t-60 -46.5t-39.5 -79t-14 -111.5z" />
<glyph unicode="1" horiz-adv-x="812" d="M10 792q0 32 12 59.5t35 50.5q12 12 37.5 28.5t58.5 33.5l71 35q37 18 74 33l70 28q31 12 56.5 19.5t47 11t40.5 3.5q87 0 135.5 -50t48.5 -143v-729q0 -87 -51 -133.5t-156 -46.5q-106 0 -156.5 46.5t-50.5 133.5v502l-40 -9l-47 -10q-24 -6 -44 -6q-32 0 -58 11.5 t-44.5 31t-28.5 45.5t-10 55z" />
<glyph unicode="2" horiz-adv-x="1038" d="M40 193q0 60 25 104t76 86l163 133l78 62q36 29 61.5 54t39.5 47.5t14 45.5q0 34 -23.5 53t-82.5 19q-38 0 -65.5 -5t-50 -11.5t-42 -11.5t-41.5 -5q-56 0 -87.5 35t-31.5 94q0 34 10 61t33 50q21 21 56.5 40t82.5 32.5t105 21.5t125 8q124 0 211.5 -23t143 -65t81 -101 t25.5 -131q0 -57 -15.5 -107t-50 -96.5t-89 -92.5t-132.5 -97l-107 -69h315q61 0 97.5 -39.5t36.5 -122.5t-36.5 -122.5t-97.5 -39.5h-624q-96 0 -149.5 52.5t-53.5 140.5z" />
<glyph unicode="3" horiz-adv-x="1044" d="M20 -90q0 59 34 93t85 34q29 0 52 -10l50 -20q27 -11 62.5 -20.5t88.5 -9.5q43 0 74.5 9.5t52.5 27.5t31 43.5t10 57.5q0 34 -12.5 60.5t-45 45.5t-89 29t-145.5 10q-23 0 -39 5t-27 16q-20 20 -30 53.5t-10 70t10 70t30 53.5q11 11 27 16t39 5q71 0 119 10.5t77 29 t41 44.5t12 57q0 53 -35 84t-110 31q-38 0 -64.5 -5t-48 -11.5t-41 -11.5t-43.5 -5q-52 0 -85 33t-33 92q0 34 10.5 59.5t32.5 47.5q21 21 55 40t80.5 32.5t105.5 21.5t131 8q119 0 206.5 -26t144.5 -72.5t84.5 -111t27.5 -142.5q0 -53 -13.5 -98t-37.5 -82.5t-57.5 -67.5 t-73.5 -53v-2q51 -16 93.5 -43.5t72.5 -68t46.5 -94.5t16.5 -124q0 -92 -36 -171.5t-107 -138t-175.5 -92.5t-242.5 -34q-64 0 -119 8t-99 21t-77 30.5t-52 37.5q-26 26 -40 56.5t-14 71.5z" />
<glyph unicode="4" horiz-adv-x="1221" d="M25 272q0 27 4 51t13 48t23.5 50t34.5 56l287 433q36 54 73.5 91t80.5 59.5t93.5 32t113.5 9.5q137 0 202.5 -53.5t65.5 -155.5v-535h66q58 0 93.5 -39t35.5 -114t-35.5 -114.5t-93.5 -39.5h-66v-176q0 -88 -46.5 -132t-150.5 -44q-102 0 -148 44t-46 132v176h-359 q-121 0 -181 59t-60 162zM381 358h244v375z" />
<glyph unicode="5" horiz-adv-x="1040" d="M41 -88q0 59 34 93t85 34q29 0 53 -9l51 -20q27 -12 63.5 -21t92.5 -9q39 0 68.5 9.5t49.5 26.5t30 40.5t10 52.5q0 39 -20 71t-62 55t-107 35.5t-156 12.5q-65 0 -93 33t-25 96l26 530q3 71 39.5 106t104.5 35h537q61 0 97.5 -39.5t36.5 -121.5q0 -84 -36.5 -123.5 t-97.5 -39.5h-349l-10 -177q141 -10 242 -45.5t166.5 -92.5t96.5 -134t31 -171q0 -99 -35 -182.5t-104 -143.5t-172.5 -94t-241.5 -34q-66 0 -121.5 8t-100 21t-77.5 30.5t-52 37.5q-26 26 -40 56t-14 74z" />
<glyph unicode="6" horiz-adv-x="1225" d="M80 586q0 188 43.5 339t130 256.5t216 162.5t300.5 57q58 0 100 -6t72 -15t48.5 -20.5t29.5 -22.5q20 -20 31.5 -45.5t11.5 -62.5q0 -62 -35.5 -98.5t-89.5 -36.5q-16 0 -31.5 1.5t-32 3.5t-34.5 3.5t-39 1.5q-63 0 -113.5 -10t-89 -39.5t-65 -83.5t-40.5 -142 q28 17 65 30q32 11 75.5 20.5t99.5 9.5q100 0 178 -30t132 -85.5t82 -134.5t28 -178q0 -108 -35 -197.5t-103 -153t-167.5 -98.5t-228.5 -35q-132 0 -233 41t-169 119t-102.5 191.5t-34.5 257.5zM478 537q3 -72 15.5 -120.5t32.5 -78t46 -41.5t55 -12q27 0 48.5 10t36.5 30 t23 48.5t8 66.5t-8 65.5t-24 45.5t-40 26.5t-55 8.5t-56 -8t-43 -17q-21 -11 -39 -24z" />
<glyph unicode="7" horiz-adv-x="1001" d="M15 915q0 86 37 127t103 41h602q55 0 93.5 -14t63 -38t35.5 -57t11 -71q0 -49 -13 -98t-39 -111l-89 -216l-81 -205q-38 -100 -71.5 -198t-61.5 -196q-14 -47 -31 -82t-40.5 -58t-54.5 -34.5t-73 -11.5q-44 0 -81 10.5t-63.5 32t-41 54t-14.5 75.5q0 32 6 62.5t17 72.5 q21 81 49 171l62 185l68 194l72 198h-325q-65 0 -102.5 41t-37.5 126z" />
<glyph unicode="8" horiz-adv-x="1177" d="M62 346q0 53 14.5 98t42 84.5t68.5 74.5t94 70q-45 33 -81 70.5t-60.5 78.5t-37.5 86t-13 93q0 85 32.5 158.5t97.5 127t163 84t229 30.5q120 0 209.5 -28t149 -76t89 -113t29.5 -140q0 -53 -14 -97.5t-40.5 -83t-64 -72.5t-84.5 -65q53 -33 95.5 -70t72.5 -78.5 t46 -88.5t16 -100q0 -93 -31.5 -169t-98.5 -130t-171 -83.5t-248 -29.5q-131 0 -226.5 27.5t-157 76.5t-91 116.5t-29.5 148.5zM452 377q0 -26 8.5 -47.5t26 -37t42.5 -24t58 -8.5q32 0 56.5 8t41 22.5t25 35t8.5 45.5q0 22 -10 42t-31 39t-52 38t-73 40q-29 -21 -48 -40 t-30.5 -37.5t-16.5 -37t-5 -38.5zM486 1018q0 -23 7 -43t22 -38t39 -35.5t59 -36.5q24 18 40 35.5t26.5 35.5t15 37.5t4.5 40.5q0 24 -7.5 43t-21.5 32.5t-34 21t-45 7.5t-44.5 -7t-33 -20t-20.5 -31.5t-7 -41.5z" />
<glyph unicode="9" horiz-adv-x="1225" d="M72 623q0 108 35 197t103 152.5t167.5 98.5t228.5 35q132 0 232.5 -41t169 -119t103 -191t34.5 -257q0 -188 -44.5 -338t-135 -256t-228 -162.5t-323.5 -56.5q-59 0 -101 6t-71.5 15t-48 20t-29.5 22q-20 20 -31.5 45.5t-11.5 63.5q0 62 35.5 97.5t89.5 35.5q16 0 31 -1 l32 -3q17 -2 35 -3t39 -1q96 0 157.5 15.5t100 48.5t58.5 84.5t32 123.5q-28 -17 -65 -30q-32 -11 -76 -20t-98 -9q-100 0 -178 29.5t-132 85t-82 135t-28 178.5zM481 643q0 -38 8 -65t24 -45t39.5 -26.5t55.5 -8.5q31 0 56.5 7.5t44.5 16.5q22 11 39 25q-3 68 -15 116 t-31.5 78t-46 44t-57.5 14q-27 0 -48.5 -10.5t-37 -30t-23.5 -49t-8 -66.5z" />
<glyph unicode=":" horiz-adv-x="671" d="M97 215q0 51 18.5 95t50.5 76.5t76.5 50.5t96.5 18q51 0 94.5 -17.5t74.5 -49t48.5 -75t17.5 -94.5q0 -52 -18 -96.5t-50 -76.5t-76 -50.5t-95 -18.5q-52 0 -96 17.5t-75.5 49t-49 75.5t-17.5 96zM97 815q0 51 18.5 95t50.5 76.5t76.5 50.5t96.5 18q51 0 94.5 -17.5 t74.5 -49t48.5 -75t17.5 -94.5q0 -52 -18 -96t-50 -76.5t-76 -50.5t-95 -18q-52 0 -96 17.5t-75.5 49t-49 75t-17.5 95.5z" />
<glyph unicode=";" horiz-adv-x="671" d="M60 -281q0 32 18.5 57t44 54t53.5 69.5t46 104.5q-21 10 -43.5 28t-40.5 44t-29.5 60.5t-11.5 78.5q0 51 18.5 95t50.5 76.5t76.5 50.5t96.5 18t95.5 -18.5t74.5 -53.5t48 -85t17 -114t-13 -123t-33 -110.5t-45.5 -95t-50.5 -77.5q-63 -85 -125 -125t-128 -40 q-57 0 -88 29t-31 77zM97 815q0 51 18.5 95t50.5 76.5t76.5 50.5t96.5 18q51 0 94.5 -17.5t74.5 -49t48.5 -75t17.5 -94.5q0 -52 -18 -96t-50 -76.5t-76 -50.5t-95 -18q-52 0 -96 17.5t-75.5 49t-49 75t-17.5 95.5z" />
<glyph unicode="&#x3c;" d="M180 579q0 48 20.5 85.5t67.5 68.5l420 279q30 20 53 30t49 10q33 0 62 -14.5t50.5 -38.5t34.5 -54.5t13 -61.5q0 -34 -15.5 -62t-47.5 -50l-269 -182l271 -185q32 -23 46.5 -52t14.5 -61q0 -33 -13.5 -65.5t-36.5 -58t-52.5 -41t-60.5 -15.5q-27 0 -50.5 8.5t-55.5 30.5 l-413 274q-48 32 -68 69.5t-20 85.5z" />
<glyph unicode="=" d="M135 367q0 68 36 106t99 38h627q63 0 99 -38t36 -106t-36 -106t-99 -38h-627q-63 0 -99 38t-36 106zM135 804q0 68 36 106t99 38h627q63 0 99 -38t36 -106t-36 -106t-99 -38h-627q-63 0 -99 38t-36 106z" />
<glyph unicode="&#x3e;" d="M218 278q0 34 15.5 62t47.5 50l269 182l-271 185q-32 23 -46.5 52t-14.5 61q0 33 13.5 65t36.5 57.5t52 41.5t61 16q27 0 50.5 -8.5t55.5 -30.5l413 -274q48 -32 68 -69.5t20 -85.5t-20.5 -85.5t-67.5 -68.5l-420 -279q-30 -20 -53 -30t-49 -10q-33 0 -62 14.5 t-50.5 38.5t-34.5 54t-13 62z" />
<glyph unicode="?" horiz-adv-x="913" d="M40 1280q0 34 11.5 60.5t33.5 48.5q23 23 58.5 42.5t80.5 33.5t99 22t115 8q117 0 201 -24t138.5 -68.5t80.5 -106.5t26 -137q0 -66 -20.5 -116.5t-51 -90.5t-66.5 -73l-66 -61q-31 -29 -51.5 -58t-20.5 -62q0 -15 1.5 -27t3.5 -22t3.5 -20.5t1.5 -22.5 q0 -52 -47.5 -85.5t-149.5 -33.5q-54 0 -96 14.5t-70.5 43t-43.5 69t-15 93.5q0 56 19.5 100t49.5 80t64 65l64 57q30 27 49.5 53.5t19.5 55.5q0 15 -5.5 27t-19.5 20.5t-37 13.5t-59 5q-35 0 -59 -4.5t-43.5 -10t-38 -10t-41.5 -4.5q-56 0 -87.5 34.5t-31.5 90.5zM200 195 q0 48 17.5 88.5t49 70t75 46t94.5 16.5t93.5 -16t73 -45t47.5 -68.5t17 -87.5t-17 -88.5t-48.5 -70t-75 -46.5t-95.5 -17q-51 0 -93.5 16t-73 45t-47.5 69t-17 88z" />
<glyph unicode="@" horiz-adv-x="2154" d="M101 473q0 147 35 280.5t102.5 247t165 205t222 156t274.5 99t322 34.5q211 0 370 -51t265 -143.5t159 -222t53 -287.5q0 -143 -33 -266.5t-100.5 -214t-169 -142t-239.5 -51.5q-108 0 -178.5 37t-102.5 100l-4 2q-30 -39 -71 -70q-36 -26 -89 -47.5t-125 -21.5 q-83 0 -148 24t-110 73t-68.5 122.5t-23.5 171.5q0 121 41 222t117.5 173.5t186 113t245.5 40.5q61 0 108 -5.5t83 -15t61.5 -22t42.5 -25.5q35 -28 47.5 -62.5t7.5 -88.5l-28 -326q-3 -33 -0.5 -55t9 -35.5t17.5 -19t26 -5.5q24 0 49.5 18.5t46.5 60t35 108t14 163.5 q0 100 -33 182t-97.5 140.5t-160.5 90t-222 31.5q-113 0 -211.5 -23.5t-181 -67.5t-147.5 -106.5t-110 -140t-69 -169t-24 -192.5q0 -254 130.5 -380.5t407.5 -126.5q84 0 142 6t99 13t70.5 13t56.5 6q54 0 86 -34.5t32 -85.5q0 -34 -10 -58.5t-35 -49.5q-21 -21 -61.5 -41 t-99 -35.5t-135.5 -24.5t-173 -9q-216 0 -379 53.5t-271.5 155t-163.5 247.5t-55 332zM980 526q0 -59 22.5 -85.5t63.5 -26.5q22 0 39.5 8t29.5 19q14 12 24 28l22 288q-6 2 -14 5q-7 2 -17 3.5t-24 1.5q-28 0 -54 -14t-46.5 -43t-33 -75t-12.5 -109z" />
<glyph unicode="A" horiz-adv-x="1371" d="M20 165q0 22 5 44.5t18 60.5l269 815q13 40 26 72t27 58t29.5 47t33.5 39q40 40 102 61.5t156 21.5t156 -21.5t102 -61.5q18 -18 33.5 -39t29.5 -47t26.5 -58t26.5 -72l268 -807q13 -38 18 -60.5t5 -42.5q0 -47 -21.5 -82t-54.5 -58t-74 -34.5t-80 -11.5q-47 0 -81.5 14 t-59.5 39q-23 23 -37 55t-25 70l-27 91h-433l-25 -92q-11 -39 -24.5 -73t-36.5 -57q-22 -22 -55.5 -34.5t-77.5 -12.5q-39 0 -78 12t-70.5 34.5t-51 55.5t-19.5 74zM542 569h257l-78 266q-12 40 -21.5 76.5t-17.5 63.5q-9 32 -15 59h-4q-6 -27 -14 -59l-16 -63l-20 -77z" />
<glyph unicode="B" horiz-adv-x="1309" d="M120 186v1006q0 88 49 137t137 49h324q153 0 261 -27.5t176 -74.5t99 -109.5t31 -132.5q0 -55 -14 -102.5t-41.5 -85.5t-67.5 -66t-92 -45v-4q56 -9 104 -33.5t82.5 -62.5t54 -89t19.5 -112q0 -95 -35.5 -174.5t-111.5 -137t-195 -90t-286 -32.5h-308q-88 0 -137 49 t-49 137zM532 287h98q47 0 81.5 10.5t57.5 29t34 44.5t11 57t-10 56.5t-32 42.5t-57 26.5t-85 9.5h-98v-276zM532 838h86q39 0 68.5 9.5t49 26.5t29.5 41.5t10 53.5t-9 51.5t-28 38.5t-50 24t-74 8h-82v-253z" />
<glyph unicode="C" horiz-adv-x="1183" d="M68 637q0 171 48.5 311.5t138 240t216.5 154t284 54.5q63 0 114.5 -8.5t91.5 -22.5t68.5 -31t46.5 -35q31 -31 44 -64.5t13 -78.5q0 -32 -10 -58.5t-28 -45.5t-43 -30t-54 -11q-25 0 -47 9l-46 20q-24 10 -56 19t-78 9q-52 0 -100.5 -22.5t-86 -70t-60 -121.5t-22.5 -177 q0 -92 21.5 -160.5t59 -114.5t89 -68.5t111.5 -22.5q49 0 82.5 8.5t58.5 19.5l47 19q21 9 46 9t47 -10t38.5 -28.5t26 -43.5t9.5 -55q0 -41 -14 -72.5t-43 -60.5q-20 -20 -51.5 -41t-76.5 -37.5t-105 -27t-138 -10.5q-146 0 -264.5 45.5t-202.5 130.5t-129.5 206.5 t-45.5 272.5z" />
<glyph unicode="D" horiz-adv-x="1460" d="M120 186v1006q0 88 49 137t137 49h357q177 0 313 -46.5t228.5 -132.5t140 -208t47.5 -272q0 -167 -50.5 -300t-148 -226t-239 -143t-324.5 -50h-324q-88 0 -137 49t-49 137zM544 312h102q72 0 129.5 23t98 70t62.5 120t22 172q0 100 -19.5 170t-58.5 114t-97.5 64.5 t-136.5 20.5h-102v-754z" />
<glyph unicode="E" horiz-adv-x="1111" d="M120 186v1006q0 88 49 137t137 49h608q61 0 97 -39t36 -119t-36 -119t-97 -39h-370v-211h309q58 0 93.5 -39.5t35.5 -115.5t-35.5 -115.5t-93.5 -39.5h-309v-225h375q60 0 96 -39t36 -119t-36 -119t-96 -39h-613q-88 0 -137 49t-49 137z" />
<glyph unicode="F" horiz-adv-x="1055" d="M120 178v1014q0 88 49 137t137 49h596q61 0 97 -39t36 -119t-36 -119t-97 -39h-358v-242h285q58 0 93.5 -39.5t35.5 -116.5t-35.5 -116.5t-93.5 -39.5h-285v-330q0 -90 -53.5 -138t-159.5 -48q-108 0 -159.5 48t-51.5 138z" />
<glyph unicode="G" horiz-adv-x="1441" d="M68 649q0 162 50 299t150.5 237t252.5 156t356 56q69 0 130 -10.5t110.5 -27t86 -37t57.5 -41.5q29 -29 42 -60.5t13 -77.5q0 -33 -10.5 -60t-29 -46t-43.5 -29.5t-54 -10.5q-31 0 -58 11l-64 26q-36 14 -85.5 25.5t-122.5 11.5q-78 0 -141.5 -22.5t-109.5 -69 t-71 -118.5t-25 -171q0 -100 23.5 -175.5t69 -126.5t111.5 -77t151 -26q23 0 41 2t30 5q14 3 23 7v203h-106q-62 0 -94.5 41t-32.5 109t32.5 109t94.5 41h328q83 0 126 -43t43 -126v-346q0 -56 -15 -95.5t-50 -74.5q-18 -18 -55.5 -42t-96 -45.5t-138.5 -37t-183 -15.5 q-179 0 -316.5 47t-230.5 134t-141 211.5t-48 279.5z" />
<glyph unicode="H" horiz-adv-x="1461" d="M120 178v1022q0 89 52 137.5t160 48.5q109 0 160.5 -48.5t51.5 -137.5v-338h373v338q0 89 51.5 137.5t160.5 48.5q108 0 160 -48.5t52 -137.5v-1022q0 -89 -51.5 -137.5t-160.5 -48.5t-160.5 48.5t-51.5 137.5v346h-373v-346q0 -89 -51.5 -137.5t-160.5 -48.5 t-160.5 48.5t-51.5 137.5z" />
<glyph unicode="I" horiz-adv-x="664" d="M120 178v1022q0 89 52 137.5t160 48.5q109 0 160.5 -48.5t51.5 -137.5v-1022q0 -89 -52 -137.5t-161 -48.5q-108 0 -159.5 48.5t-51.5 137.5z" />
<glyph unicode="J" horiz-adv-x="673" d="M-106 -229q0 50 20.5 82t59.5 54q36 20 64.5 40t49 46t31 60t10.5 83v1064q0 89 52 137.5t160 48.5q109 0 160.5 -48.5t51.5 -137.5v-997q0 -98 -11 -170t-30.5 -125t-46.5 -91.5t-59 -70.5q-63 -63 -149 -96t-177 -33t-138.5 43t-47.5 111z" />
<glyph unicode="K" horiz-adv-x="1329" d="M120 178v1022q0 89 52 137.5t160 48.5q109 0 160.5 -48.5t51.5 -137.5v-450l356 532q12 18 22 31t23 26q21 21 53 35.5t73 14.5q43 0 83.5 -15.5t72.5 -42.5t51.5 -63t19.5 -76q0 -29 -11 -56.5t-36 -59.5l-268 -348l269 -388q9 -12 19 -27t18.5 -32.5t14 -37t5.5 -41.5 q0 -42 -20.5 -81t-54.5 -68t-77 -46.5t-89 -17.5q-42 0 -76 14.5t-58 38.5q-14 14 -27 31t-31 45l-332 520v-460q0 -89 -52 -137.5t-161 -48.5q-108 0 -159.5 48.5t-51.5 137.5z" />
<glyph unicode="L" horiz-adv-x="1033" d="M120 186v1014q0 89 52 137.5t160 48.5q109 0 160.5 -48.5t51.5 -137.5v-868h339q65 0 102.5 -40.5t37.5 -125.5t-37 -125.5t-103 -40.5h-577q-88 0 -137 49t-49 137z" />
<glyph unicode="M" horiz-adv-x="1998" d="M76 146q0 15 1 30t4 42l98 886q8 72 27 120.5t54 83.5q36 36 98.5 57t156.5 21q77 0 132.5 -16.5t93.5 -47t61 -75t36 -100.5l124 -537q8 -35 14 -69l12 -61q5 -32 10 -60h4q5 28 10 60l11 61q6 33 14 67l125 539q13 56 36.5 100.5t61.5 75t93.5 47t132.5 16.5 q91 0 153.5 -21t98.5 -57q35 -35 54 -83.5t27 -120.5l98 -879q3 -27 4 -41t1 -28q0 -37 -17 -67.5t-47 -52.5t-71 -34.5t-89 -12.5q-45 0 -86 14t-67 40q-29 29 -38 68.5t-12 77.5l-47 587q-3 40 -4 76v34v31q0 33 2 63h-4l-167 -725q-16 -68 -39.5 -120t-53.5 -82 q-33 -33 -81.5 -47t-114.5 -14t-114.5 14t-81.5 47q-30 30 -53.5 82t-39.5 120l-168 728h-4v-62q0 -29 -1.5 -66t-3.5 -79l-38 -588q-2 -38 -10 -77t-40 -71q-23 -23 -62 -37t-83 -14q-43 0 -81 10.5t-67 30.5t-46 49t-17 67z" />
<glyph unicode="N" horiz-adv-x="1536" d="M120 154v950q0 144 70 213t219 69q69 0 117.5 -14t85.5 -41t66 -67.5t58 -93.5l264 -480q20 -37 36.5 -72.5t27.5 -63.5l24 -63l5 2q-6 35 -10 75q-4 35 -8.5 79t-6.5 94l-24 483v11q0 67 45 107q49 44 143 44q91 0 137.5 -43t46.5 -119v-950q0 -144 -70 -213t-219 -69 q-69 0 -117.5 14t-85.5 41t-66 67.5t-58 93.5l-264 480q-20 37 -36.5 72t-27.5 64l-24 63l-5 -2q5 -35 10 -75q4 -35 8.5 -79.5t6.5 -93.5l24 -483v-11q0 -67 -45 -107q-49 -44 -143 -44q-91 0 -137.5 43t-46.5 119z" />
<glyph unicode="O" horiz-adv-x="1552" d="M68 668q0 171 50 307t144 230.5t227 145t300 50.5q161 0 290 -48t219 -138t138 -218.5t48 -288.5q0 -170 -50 -305.5t-144 -230t-227.5 -145t-299.5 -50.5q-161 0 -290 48t-219 137.5t-138 217.5t-48 288zM502 690q0 -99 22 -172t59.5 -121t87.5 -71.5t107 -23.5 q56 0 105.5 23t86.5 70.5t58.5 120t21.5 170.5q0 99 -22 172.5t-59.5 122t-87.5 72t-107 23.5q-56 0 -105.5 -23t-86.5 -71t-58.5 -120.5t-21.5 -171.5z" />
<glyph unicode="P" horiz-adv-x="1241" d="M120 178v1014q0 88 49 137t137 49h312q147 0 256 -34t182 -95.5t109 -146t36 -184.5q0 -116 -36 -207.5t-109.5 -156t-187 -98.5t-267.5 -34h-61v-244q0 -89 -50.5 -137.5t-159.5 -48.5t-159.5 48.5t-50.5 137.5zM540 726h78q69 0 113 46t44 129q0 84 -43 126.5 t-129 42.5h-63v-344z" />
<glyph unicode="Q" horiz-adv-x="1552" d="M68 668q0 171 50 307t144 230.5t227 145t300 50.5q161 0 290 -48t219 -138t138 -218.5t48 -288.5q0 -131 -30 -241.5t-86.5 -198t-138.5 -150t-186 -98.5q37 -41 81 -69.5t96 -48t110.5 -31.5t124.5 -21q72 -9 102.5 -47t30.5 -96q0 -39 -15.5 -73t-47 -59t-78.5 -39.5 t-109 -14.5q-55 0 -115 10.5t-121 33.5t-120 59t-112.5 87t-99 117.5t-79.5 151.5q-145 10 -260.5 62t-196 140.5t-123.5 211t-43 274.5zM502 690q0 -99 22 -172.5t59.5 -122t87.5 -72t107 -23.5q56 0 105.5 23t86.5 71t58.5 120.5t21.5 171.5t-22 172.5t-59.5 122t-87.5 72 t-107 23.5q-56 0 -105.5 -23t-86.5 -71t-58.5 -120.5t-21.5 -171.5z" />
<glyph unicode="R" horiz-adv-x="1300" d="M120 178v1014q0 88 49 137t137 49h320q159 0 273.5 -32.5t188.5 -89.5t109 -135t35 -169q0 -64 -13.5 -118t-39 -98.5t-62.5 -80.5t-83 -64l169 -281q25 -41 33.5 -66t8.5 -52q0 -42 -20.5 -79t-54 -64.5t-76.5 -43.5t-89 -16q-42 0 -75 13.5t-58 38.5q-10 10 -17.5 19.5 t-13.5 19t-11 20t-11 21.5l-184 372h-101v-315q0 -89 -50 -137.5t-157 -48.5t-157 48.5t-50 137.5zM534 791h92q45 0 78 10.5t55.5 29.5t33.5 45t11 58t-10 57.5t-33.5 43t-60.5 27t-91 9.5h-75v-280z" />
<glyph unicode="S" horiz-adv-x="1161" d="M75 956q0 95 35 176t105 140t175.5 92t245.5 33q67 0 122 -8t98.5 -21.5t75 -31.5t52.5 -39q30 -30 40.5 -59.5t10.5 -68.5q0 -69 -38 -104t-97 -35q-31 0 -57 9l-55 18q-30 9 -68 17.5t-94 8.5q-38 0 -63 -6t-41 -16t-22.5 -24.5t-6.5 -30.5q0 -34 25.5 -56.5t67.5 -40 t96 -33.5t110 -37.5t110 -51.5t96 -76t67.5 -111.5t25.5 -157.5q0 -100 -36.5 -184.5t-109 -145.5t-182 -95.5t-256.5 -34.5q-71 0 -130 8t-104.5 21.5t-77.5 31t-50 35.5q-31 31 -43.5 60.5t-12.5 71.5q0 71 38.5 107t96.5 36q31 0 57 -9l58 -18q31 -11 73 -19.5t105 -8.5 q43 0 73 7t48.5 19.5t26.5 30t8 37.5q0 36 -25.5 60t-67.5 42.5t-96 34.5t-110 37.5t-110 51.5t-96 75t-67.5 109t-25.5 154z" />
<glyph unicode="T" horiz-adv-x="1190" d="M10 1212q0 85 37 125.5t103 40.5h890q66 0 103 -40.5t37 -125.5t-37.5 -125.5t-102.5 -40.5h-233v-868q0 -89 -52 -137.5t-161 -48.5q-108 0 -159.5 48.5t-51.5 137.5v868h-233q-65 0 -102.5 40.5t-37.5 125.5z" />
<glyph unicode="U" horiz-adv-x="1432" d="M110 528v672q0 89 52 137.5t160 48.5q109 0 160.5 -48.5t51.5 -137.5v-622q0 -72 14 -123t39.5 -84t60.5 -48.5t76 -15.5q39 0 71 13.5t55 42t35.5 71.5t12.5 103v663q0 89 51.5 137.5t160.5 48.5q108 0 160 -48.5t52 -137.5v-631q0 -144 -39 -254.5t-116 -185.5 t-192 -113.5t-267 -38.5q-150 0 -262 36.5t-187 106.5t-112 173t-37 235z" />
<glyph unicode="V" horiz-adv-x="1298" d="M20 1196q0 47 22 83t56.5 60.5t75.5 37t79 12.5q46 0 79 -13.5t54 -34.5q23 -23 35.5 -55.5t23.5 -70.5l177 -629q10 -35 18.5 -71t14.5 -66q7 -35 13 -68h4q4 32 9 67q5 29 12 66t16 72l160 630q9 36 22 69.5t37 57.5q21 21 54.5 33.5t73.5 12.5q37 0 76.5 -11.5 t71.5 -34t53 -55.5t21 -77q0 -17 -5 -39.5t-16 -59.5l-266 -864q-18 -59 -40.5 -102t-54.5 -75q-34 -34 -92.5 -56.5t-156.5 -22.5t-156.5 22.5t-92.5 56.5q-32 32 -54.5 75t-40.5 102l-261 844q-12 39 -17 61t-5 43z" />
<glyph unicode="W" horiz-adv-x="2051" d="M40 1200q0 46 21 81.5t54 59.5t74 36t81 12q45 0 80.5 -13.5t57.5 -35.5q29 -29 40.5 -66.5t18.5 -72.5l119 -613q8 -39 12.5 -74.5t7.5 -63.5q4 -33 6 -61h4q2 29 6 62q3 28 8 64t13 75l115 579q23 117 92.5 168.5t188.5 51.5q120 0 189.5 -51.5t92.5 -170.5l110 -579 q7 -38 13 -74t10 -65l8 -64h4q2 31 6 64q3 29 7.5 64.5t11.5 72.5l109 613q7 38 17 74.5t36 62.5t62.5 39.5t78.5 13.5q39 0 78 -11.5t70 -34t50 -54.5t19 -74q0 -8 -0.5 -16t-2 -18t-4.5 -23l-7 -31l-193 -864q-14 -65 -35.5 -113t-54.5 -81q-38 -38 -98 -57.5t-146 -19.5 t-144 19.5t-96 57.5q-33 33 -51.5 81.5t-31.5 114.5l-101 523q-6 30 -10 62t-7 59q-4 32 -5 62h-4q-2 -30 -5 -62q-2 -27 -6 -59.5t-10 -63.5l-101 -521q-13 -66 -31.5 -114.5t-51.5 -81.5q-38 -38 -96 -57.5t-144 -19.5t-146 19.5t-98 57.5q-33 33 -54.5 81t-35.5 113 l-188 848q-8 38 -10.5 56.5t-2.5 32.5z" />
<glyph unicode="X" horiz-adv-x="1263" d="M20 184q0 45 22 80t49 71l272 370l-241 288l-30 37q-16 19 -28 39.5t-19.5 43t-7.5 48.5q0 49 22 91t57.5 72.5t79 47.5t86.5 17q42 0 69 -12.5t49 -34.5l12 -12q6 -7 14 -16l19 -23q10 -13 24 -32l201 -271l143 255l20 34q9 15 17 27t16 22t17 19q20 20 49 32t64 12 q46 0 88 -16t73.5 -43t50 -62.5t18.5 -73.5q0 -45 -22 -80t-49 -71l-256 -344l259 -314l30 -37q16 -19 28 -39.5t19.5 -43t7.5 -48.5q0 -49 -22 -91t-57.5 -72.5t-79 -47.5t-86.5 -17q-42 0 -69 12.5t-49 34.5q-12 12 -26.5 28.5t-42.5 54.5l-217 298l-161 -282 q-22 -39 -37 -61.5t-33 -40.5q-20 -20 -49 -32t-64 -12q-46 0 -88 16t-73.5 43t-50 62.5t-18.5 73.5z" />
<glyph unicode="Y" horiz-adv-x="1213" d="M12 1173q0 50 22.5 90t57.5 68t77 43t81 15q45 0 74.5 -14.5t49.5 -34.5q18 -18 33.5 -43.5t35.5 -63.5l135 -266q9 -18 17 -37l15 -33l14 -35h4q5 17 11 35q5 16 12.5 35t16.5 37l124 265q18 38 32 63t34 45q23 23 54 35t66 12q41 0 81 -14.5t71.5 -40.5t51 -61.5 t19.5 -77.5q0 -38 -15 -69.5t-36 -67.5l-338 -585v-295q0 -89 -52 -137.5t-161 -48.5q-108 0 -159.5 48.5t-51.5 137.5v295l-322 553l-20 37q-10 18 -17.5 36t-12 36t-4.5 38z" />
<glyph unicode="Z" horiz-adv-x="1140" d="M52 233q0 45 20 97t64 116l411 600h-328q-65 0 -102.5 40.5t-37.5 125.5t37 125.5t103 40.5h609q118 0 181 -62t63 -171q0 -45 -19.5 -96.5t-64.5 -116.5l-411 -600h376q65 0 102.5 -40.5t37.5 -125.5t-37 -125.5t-103 -40.5h-657q-118 0 -181 62t-63 171z" />
<glyph unicode="[" horiz-adv-x="733" d="M116 -206v1592q0 69 37.5 106.5t106.5 37.5h327q57 0 86.5 -37t29.5 -105t-29.5 -105t-86.5 -37h-103v-1312h103q57 0 86.5 -37t29.5 -105t-29.5 -105t-86.5 -37h-327q-69 0 -106.5 37.5t-37.5 106.5z" />
<glyph unicode="\" horiz-adv-x="943" d="M53 1331q0 37 18 67.5t46.5 52t64.5 33t72 11.5t61 -10t42 -28t29 -42t22 -51l520 -1427q11 -31 16.5 -50.5t5.5 -37.5q0 -37 -18 -67.5t-46.5 -52t-64.5 -33t-72 -11.5t-61 10t-42 28t-29 42t-22 51l-520 1427q-11 31 -16.5 50.5t-5.5 37.5z" />
<glyph unicode="]" horiz-adv-x="733" d="M30 -208q0 68 29.5 105t86.5 37h103v1312h-103q-57 0 -86.5 37t-29.5 105t29.5 105t86.5 37h327q69 0 106.5 -37.5t37.5 -106.5v-1592q0 -69 -37.5 -106.5t-106.5 -37.5h-327q-57 0 -86.5 37t-29.5 105z" />
<glyph unicode="^" d="M142 843q0 24 7 45.5t27 53.5l215 344q40 63 87.5 89t107.5 26t107.5 -26t86.5 -89l209 -334q18 -29 27.5 -52t9.5 -50q0 -33 -14 -61.5t-37.5 -49.5t-54 -33t-62.5 -12q-47 1 -80.5 26t-58.5 64l-141 222l-141 -222q-24 -38 -55.5 -64t-81.5 -26q-31 0 -59.5 11 t-50.5 31t-35 47.5t-13 59.5z" />
<glyph unicode="_" d="M0 -358q0 77 35.5 116.5t93.5 39.5h910q58 0 93.5 -39.5t35.5 -116.5q0 -75 -35.5 -114.5t-93.5 -39.5h-910q-58 0 -93.5 39.5t-35.5 114.5z" />
<glyph unicode="`" horiz-adv-x="1024" d="M259 1401q0 33 15 66t40 59.5t56.5 43t64.5 16.5q15 0 27.5 -3.5t24.5 -11t25 -18.5t29 -27l183 -185q21 -21 34 -38.5t13 -44.5q0 -23 -10 -46.5t-28 -42.5t-42 -31t-52 -12q-14 0 -32 5.5t-41 19.5l-223 139l-31 20q-15 10 -27 23t-19 29.5t-7 38.5z" />
<glyph unicode="a" horiz-adv-x="1210" d="M61 328q0 75 37 132.5t102.5 96t156 58.5t198.5 20q29 0 54 -2t45 -4q23 -3 42 -6v38q0 24 -7 41.5t-25.5 29.5t-50.5 18t-81 6q-65 0 -109.5 -9t-77.5 -20l-59 -20q-26 -9 -53 -9q-50 0 -83 33t-33 96q0 35 11 60.5t34 48.5q21 21 61 42t98.5 38t135 28t170.5 11 q238 0 358.5 -93t120.5 -276v-258q0 -71 8 -114.5t17 -73.5l18 -54q8 -23 8 -53t-11.5 -56.5t-34.5 -46t-58 -31t-82 -11.5q-44 0 -78.5 10.5t-61 28t-45 40t-30.5 47.5h-3q-27 -38 -71 -67q-38 -26 -96.5 -46.5t-143.5 -20.5q-88 0 -158.5 26t-120 72.5t-76 110.5 t-26.5 139zM477 344q0 -17 6 -31t17.5 -24t28.5 -15.5t40 -5.5q32 0 55.5 9.5t39.5 21.5q18 13 32 31v76q-12 3 -28 6q-14 2 -33.5 4t-42.5 2q-56 0 -85.5 -18.5t-29.5 -55.5z" />
<glyph unicode="b" horiz-adv-x="1262" d="M104 238v1063q0 86 50.5 133t156.5 47t156.5 -47t50.5 -133v-166q0 -47 -3.5 -90t-9.5 -93h3q25 28 63 50q16 9 36.5 18.5t45 16.5t54 11.5t63.5 4.5q97 0 176 -32t135.5 -96t87.5 -159t31 -221q0 -133 -39.5 -238.5t-118 -178.5t-195 -112t-270.5 -39q-98 0 -169 9.5 t-120.5 24t-79.5 32t-46 33.5q-14 14 -24.5 29t-18 33.5t-11.5 43t-4 56.5zM518 301q10 -4 23 -8q11 -3 27 -5.5t38 -2.5q39 0 71 13.5t55 43t35.5 74.5t12.5 108q0 58 -9 97t-25 63t-38.5 34.5t-48.5 10.5q-18 0 -33.5 -4.5t-29 -12t-24.5 -16.5t-20 -19q-20 -23 -34 -52 v-324z" />
<glyph unicode="c" horiz-adv-x="967" d="M62 475q0 133 40.5 240t114.5 182t179 115.5t234 40.5q48 0 86 -6.5t68 -17.5t51.5 -24.5t35.5 -27.5q26 -26 38 -55.5t12 -75.5q0 -30 -9 -55t-24.5 -43t-37 -28t-46.5 -10t-42 5.5t-33.5 12.5t-36.5 12.5t-50 5.5q-32 0 -61 -14t-51 -43t-35 -73t-13 -104 q0 -55 13.5 -96.5t37.5 -70t56.5 -43t70.5 -14.5q31 0 52 5.5t38 12.5l32 12q15 5 33 5q27 0 47.5 -10.5t35 -28.5t22 -41t7.5 -47q0 -38 -11.5 -68t-36.5 -55q-18 -18 -43.5 -35t-62 -30.5t-86 -22t-113.5 -8.5q-120 0 -215 35t-161 99.5t-101 157t-35 206.5z" />
<glyph unicode="d" horiz-adv-x="1262" d="M62 487q0 133 39.5 238.5t118 178.5t195 112t270.5 39q14 0 25 -0.5t19 -1.5q9 -1 15 -2l3 1q-3 34 -3 74v175q0 86 50.5 133t156.5 47t156.5 -47t50.5 -133v-1141q0 -85 -43.5 -128.5t-128.5 -43.5q-41 0 -70.5 9t-50.5 25.5t-34.5 39t-22.5 48.5l-7 21h-4 q-27 -43 -70 -76q-37 -29 -95 -52.5t-140 -23.5q-97 0 -176 32t-135.5 96t-87.5 159t-31 221zM482 508q0 -58 9 -97t25 -63t38.5 -34.5t48.5 -10.5q18 0 33.5 4.5t29 12t24 16.5t19.5 19q20 23 35 52v324q-10 4 -23 8q-11 3 -27.5 5.5t-37.5 2.5q-39 0 -71 -13.5t-55 -43 t-35.5 -74.5t-12.5 -108z" />
<glyph unicode="e" horiz-adv-x="1153" d="M62 481q0 132 40 238t113.5 181t178 115t232.5 40q110 0 196.5 -31t146 -88.5t91 -139t31.5 -182.5q0 -98 -47 -147t-130 -49h-444v-1q10 -33 28.5 -57t46 -40t65 -24t85.5 -8q42 0 75.5 5.5t60.5 11.5l50 12q23 6 44 6q28 0 50 -10t37 -27t23 -39.5t8 -47.5 q0 -38 -11.5 -64.5t-35.5 -50.5q-18 -18 -50.5 -37t-79.5 -34.5t-109 -25.5t-140 -10q-134 0 -237.5 35.5t-174 101.5t-107 159t-36.5 208zM467 635h243q-8 77 -36 110t-81 33q-22 0 -42 -6.5t-36 -23t-28.5 -44t-19.5 -69.5z" />
<glyph unicode="f" horiz-adv-x="789" d="M8 884q0 74 34 111t91 37h29v53q0 93 29.5 168.5t85 129t135 83t178.5 29.5q80 0 127.5 -17t72.5 -42q21 -21 33 -49.5t12 -77.5q0 -32 -8 -56.5t-22 -41.5t-32.5 -26t-39.5 -9q-12 0 -22 2.5t-20 5.5t-22 5.5t-30 2.5q-38 0 -57 -26q-15 -22 -15 -63q0 -8 1 -18l4 -53 h76q57 0 91 -37t34 -111t-34 -111t-91 -37h-72v-564q0 -87 -50.5 -133.5t-156.5 -46.5t-156.5 47t-50.5 133v564h-29q-57 0 -91 37t-34 111z" />
<glyph unicode="g" horiz-adv-x="1145" d="M22 -195q0 61 24.5 105t54.5 73q35 33 80 56q-37 30 -59 71t-22 95q0 47 17.5 84t38.5 63q25 30 57 53q-63 49 -95 114t-32 138q0 85 32 157.5t95.5 126t157.5 84t219 30.5q42 0 79.5 -4t72.5 -12l108 137q34 43 62 61t66 18q31 0 60 -12.5t51 -33t35 -47t13 -54.5 q0 -35 -20 -62.5t-60 -61.5l-78 -68q45 -46 67.5 -101.5t22.5 -116.5q0 -84 -32 -157t-95.5 -126t-158 -83.5t-218.5 -30.5q-23 0 -43.5 1t-42.5 4q-7 -6 -12 -13q-5 -6 -8 -14.5t-3 -16.5q0 -14 5 -23.5t19.5 -15.5t41 -9t68.5 -3h133q114 0 195 -22.5t133.5 -63.5 t77 -97.5t24.5 -123.5q0 -81 -38.5 -153t-115 -126t-190.5 -85.5t-264 -31.5q-146 0 -245.5 24t-161.5 64.5t-89 94.5t-27 114zM438 -131q0 -19 8 -35.5t25 -28.5t43.5 -19t64.5 -7q48 0 81.5 7t54.5 19.5t30.5 29.5t9.5 36q0 14 -5.5 26.5t-17.5 21.5t-31.5 14.5t-47.5 5.5 h-90q-21 0 -44 1t-46 3q-10 -10 -18 -21q-7 -10 -12 -23t-5 -30zM471 680q0 -27 7.5 -48.5t22 -36t34.5 -22.5t44 -8q23 0 42.5 8t33.5 22t21.5 34.5t7.5 46.5q0 27 -8 48.5t-22 36t-34 22.5t-45 8q-23 0 -42 -8t-33 -22t-21.5 -35t-7.5 -46z" />
<glyph unicode="h" horiz-adv-x="1266" d="M104 172v1129q0 86 50.5 133t156.5 47t156.5 -47t50.5 -133v-166q0 -47 -3.5 -90t-9.5 -93h3q25 28 64 50q16 9 36.5 18.5t46 16.5t55 11.5t64.5 4.5q90 0 163 -28.5t124 -82.5t79 -133t28 -180v-457q0 -86 -50.5 -133t-156.5 -47t-156.5 47t-50.5 133v416q0 39 -7 66 t-19.5 43.5t-31 24t-41.5 7.5q-17 0 -32 -4.5t-28 -12t-23.5 -16.5t-19.5 -19q-20 -23 -34 -52v-453q0 -86 -50.5 -133t-156.5 -47t-156.5 47t-50.5 133z" />
<glyph unicode="i" horiz-adv-x="622" d="M86 1315q0 44 16 82t45.5 65.5t71.5 43.5t94 16q50 0 91 -16t70.5 -43.5t45.5 -64.5t16 -79q0 -44 -16 -82t-45.5 -66t-71.5 -43.5t-94 -15.5q-50 0 -91 16t-70.5 43.5t-45.5 64.5t-16 79zM104 172v688q0 86 50.5 133t156.5 47t156.5 -47t50.5 -133v-688 q0 -86 -50.5 -133t-156.5 -47t-156.5 47t-50.5 133z" />
<glyph unicode="j" horiz-adv-x="628" d="M-78 -332q0 33 13.5 61.5t40.5 55.5q32 32 57 61.5t42 61.5t26 68.5t9 81.5v802q0 86 50.5 133t156.5 47t156.5 -47t50.5 -133v-805q0 -72 -10 -132t-28 -110t-43.5 -90.5t-57.5 -72.5q-56 -56 -125.5 -93.5t-158.5 -37.5q-41 0 -74 11t-56.5 30.5t-36 47t-12.5 60.5z M92 1315q0 44 16 82t45.5 65.5t71.5 43.5t94 16q50 0 91 -16t70.5 -43.5t45.5 -64.5t16 -79q0 -44 -16 -82t-45.5 -66t-71.5 -43.5t-94 -15.5q-50 0 -91 16t-70.5 43.5t-45.5 64.5t-16 79z" />
<glyph unicode="k" horiz-adv-x="1187" d="M104 172v1129q0 86 50.5 133t156.5 47t156.5 -47t50.5 -133v-700l229 338q16 23 24.5 33.5t19.5 21.5q23 23 56.5 36t71.5 13q41 0 79.5 -16t68.5 -42.5t48 -61.5t18 -73q0 -24 -11 -51.5t-42 -66.5l-134 -167l158 -254q15 -24 31.5 -55.5t16.5 -69.5q0 -42 -20.5 -78.5 t-53 -62.5t-73 -41t-80.5 -15q-44 0 -75.5 15t-57.5 41q-14 14 -25 30.5t-24 39.5l-225 395v-338q0 -87 -50.5 -133.5t-156.5 -46.5q-105 0 -156 47t-51 133z" />
<glyph unicode="l" horiz-adv-x="683" d="M101 303v998q0 86 50.5 133t156.5 47t156.5 -47t50.5 -133v-891q0 -35 3.5 -57t10 -34.5t15.5 -17t20 -4.5q6 0 14.5 1t16.5 1q16 0 32 -6.5t28.5 -20.5t20 -35t7.5 -49q0 -45 -13 -75.5t-36 -53.5q-13 -13 -31.5 -26t-45 -23t-62 -16t-82.5 -6q-155 0 -233.5 78.5 t-78.5 236.5z" />
<glyph unicode="m" horiz-adv-x="1896" d="M104 172v700q0 85 43.5 128.5t128.5 43.5q40 0 70 -9t51 -25.5t34.5 -39t22.5 -48.5l7 -21h4q27 43 69 76q18 14 41.5 28t52.5 24.5t64 17t77 6.5q105 0 186 -39.5t132 -114.5q30 43 77 77q20 14 45 28t55.5 25t66.5 17.5t78 6.5q88 0 160 -28.5t123 -82.5t78.5 -133 t27.5 -180v-457q0 -86 -50.5 -133t-156.5 -47t-156.5 47t-50.5 133v416q0 39 -6.5 66t-19 43.5t-30 24t-38.5 7.5q-17 0 -31 -4.5t-26.5 -12t-23 -16.5t-18.5 -19q-19 -23 -33 -52v-48v-47v-358q0 -86 -50.5 -133t-156.5 -47t-156.5 47t-50.5 133v416q0 39 -6.5 66t-19 43.5 t-30 24t-38.5 7.5q-17 0 -31 -4.5t-26.5 -12t-23 -16.5t-18.5 -19q-19 -23 -33 -52v-453q0 -86 -50.5 -133t-156.5 -47t-156.5 47t-50.5 133z" />
<glyph unicode="n" horiz-adv-x="1266" d="M104 172v700q0 85 43.5 128.5t128.5 43.5q40 0 70 -9t51 -25.5t34.5 -39t22.5 -48.5l7 -21h4q26 43 69 76q18 14 42 28t53.5 24.5t65.5 17t79 6.5q90 0 163 -28.5t124 -82.5t79 -133t28 -180v-457q0 -86 -50.5 -133t-156.5 -47t-156.5 47t-50.5 133v416q0 39 -7 66 t-19.5 43.5t-31 24t-41.5 7.5q-17 0 -32 -4.5t-28 -12t-23.5 -16.5t-19.5 -19q-20 -23 -34 -52v-453q0 -86 -50.5 -133t-156.5 -47t-156.5 47t-50.5 133z" />
<glyph unicode="o" horiz-adv-x="1270" d="M62 500q0 129 39 232t113.5 174.5t183.5 110t249 38.5q132 0 236 -37.5t176.5 -106t110.5 -165t38 -214.5q0 -129 -39 -232t-113.5 -174.5t-183.5 -110t-249 -38.5q-132 0 -236 37.5t-176.5 106t-110.5 165t-38 214.5zM482 518q0 -62 12 -106.5t33 -73t49.5 -41.5 t60.5 -13q31 0 58.5 13t48 41t32.5 71.5t12 104.5q0 62 -12 106t-33 72.5t-49.5 42t-60.5 13.5q-31 0 -58.5 -13t-48 -41t-32.5 -71.5t-12 -104.5z" />
<glyph unicode="p" horiz-adv-x="1262" d="M104 -297v1169q0 85 43.5 128.5t128.5 43.5q40 0 70 -9t51 -25.5t34.5 -39t22.5 -48.5l7 -21h4q27 43 70 76q18 14 41.5 28t52.5 24.5t64 17t77 6.5q97 0 176 -32t135.5 -96t87.5 -159t31 -221q0 -133 -39.5 -238.5t-118 -178.5t-195 -112t-270.5 -39q-15 0 -25.5 0.5 t-18.5 1.5q-9 1 -15 2l-3 -1q2 -17 2.5 -35t0.5 -39v-203q0 -86 -50.5 -133t-156.5 -47t-156.5 47t-50.5 133zM518 301q10 -4 23 -8q11 -3 27 -5.5t38 -2.5q39 0 71 13.5t55 43t35.5 74.5t12.5 108q0 58 -9 97t-25 63t-38.5 34.5t-48.5 10.5q-18 0 -33.5 -4.5t-29 -12 t-24.5 -16.5t-20 -19q-20 -23 -34 -52v-324z" />
<glyph unicode="q" horiz-adv-x="1262" d="M62 487q0 133 39.5 238.5t118 178.5t195 112t270.5 39q98 0 169 -9.5t120.5 -24t79.5 -32t46 -33.5q14 -14 24.5 -29t18 -33.5t11.5 -43t4 -56.5v-1091q0 -86 -50.5 -133t-156.5 -47t-156.5 47t-50.5 133v195q0 46 3.5 89t9.5 93h-3q-25 -29 -63 -51q-32 -19 -81 -34.5 t-117 -15.5q-97 0 -176.5 32t-136 96t-87.5 159t-31 221zM482 508q0 -58 9 -97t25 -63t38.5 -34.5t48.5 -10.5q18 0 33.5 4.5t29 12t24 16.5t19.5 19q20 23 35 52v324q-10 4 -23 8q-11 3 -27.5 5.5t-37.5 2.5q-39 0 -71 -13.5t-55 -43t-35.5 -74.5t-12.5 -108z" />
<glyph unicode="r" horiz-adv-x="838" d="M104 172v700q0 85 43.5 128.5t128.5 43.5q40 0 70 -9t51 -25.5t34.5 -39t22.5 -48.5l14 -43h3q16 38 38.5 70.5t51.5 56t63.5 36.5t75.5 13q65 0 101.5 -40.5t36.5 -133.5q0 -118 -37 -184t-94 -66q-12 0 -22 3.5t-20 8t-21 8t-24 3.5q-22 0 -41 -13t-32.5 -28.5 t-20.5 -28.5l-8 -13v-399q0 -86 -50.5 -133t-156.5 -47t-156.5 47t-50.5 133z" />
<glyph unicode="s" horiz-adv-x="1018" d="M68 693q0 79 30 145t90.5 114t153.5 74.5t219 26.5q61 0 110 -7t86.5 -18t64 -26t42.5 -31q23 -23 33 -50t10 -61q0 -26 -9 -48t-25 -37.5t-37.5 -24.5t-46.5 -9q-24 0 -49 6l-53 12q-29 7 -62 13t-72 6q-26 0 -42 -2t-26 -6.5t-13.5 -11t-3.5 -15.5q0 -18 21 -29 t55 -20.5t77.5 -19t89 -24.5t89 -37.5t77.5 -57.5t55 -85.5t21 -120.5q0 -78 -31 -145t-94.5 -117t-160.5 -78.5t-229 -28.5q-66 0 -116.5 6t-89 17.5t-65.5 27t-46 34.5q-22 22 -32.5 48t-10.5 63q0 51 33 84t84 33q24 0 50 -6l56 -13q31 -6 66.5 -12t79.5 -6 q31 0 51.5 2.5t32.5 8t17 13.5t5 19q0 19 -21 31t-55 22t-77.5 19.5t-89 24.5t-89 37.5t-77.5 57t-55 84t-21 118.5z" />
<glyph unicode="t" horiz-adv-x="836" d="M6 884q0 74 34 111t91 37h48l43 135q25 79 67 116.5t119 37.5q81 0 123.5 -42.5t42.5 -125.5v-121h104q57 0 91 -37t34 -111t-34 -111t-91 -37h-104v-330q0 -53 17 -78t51 -25q10 0 19 1t17 2l16 4q8 1 17 1q21 0 39.5 -8.5t32 -24.5t21.5 -37.5t8 -47.5q0 -42 -13 -72 t-40 -57q-15 -15 -38 -29t-53.5 -24.5t-68.5 -16.5t-84 -6q-183 0 -269 87t-86 275v386h-29q-57 0 -91 37t-34 111z" />
<glyph unicode="u" horiz-adv-x="1266" d="M98 403v457q0 86 50.5 133t156.5 47t156.5 -47t50.5 -133v-416q0 -78 26 -109.5t73 -31.5q17 0 32 4.5t28 12t23.5 16.5t19.5 19q20 23 34 52v453q0 86 50.5 133t156.5 47t156.5 -47t50.5 -133v-700q0 -85 -43.5 -128.5t-128.5 -43.5q-41 0 -70.5 9t-50.5 25.5t-34.5 39 t-22.5 48.5l-7 21h-4q-26 -43 -69 -76q-18 -14 -42 -28t-54 -24.5t-66 -17t-78 -6.5q-90 0 -163 28.5t-124 82.5t-79 133t-28 180z" />
<glyph unicode="v" horiz-adv-x="1153" d="M34 856q0 44 21 78.5t54.5 58.5t74.5 37t81 13q44 0 76 -13.5t52 -33.5t32.5 -52t24.5 -76l106 -381q6 -23 11.5 -47t9.5 -44q4 -24 9 -46h4q5 22 9 46l9 44q5 24 11 47l100 387q10 38 22 70t32 52t52 33.5t76 13.5q39 0 77.5 -11.5t70 -34t51 -54.5t19.5 -73 q0 -20 -4 -40.5t-16 -57.5l-163 -499q-26 -78 -50.5 -125t-53.5 -76q-18 -18 -41 -32.5t-54 -25t-71.5 -16.5t-91.5 -6q-50 0 -89.5 5.5t-70.5 16t-54 25t-41 32.5q-29 29 -55 76.5t-51 124.5l-156 475q-14 43 -18.5 66t-4.5 43z" />
<glyph unicode="w" horiz-adv-x="1808" d="M46 866q0 44 22 77.5t55.5 55.5t73.5 33t76 11q42 0 77 -12.5t58 -35.5t35 -59.5t21 -81.5l73 -360q7 -34 11.5 -62.5t7.5 -49.5q4 -25 5 -46h4q1 21 5 46q3 21 7.5 49.5t10.5 62.5l61 333q10 56 30 97t52 67.5t77.5 39t107.5 12.5q61 0 106.5 -12.5t77.5 -39t52 -67.5 t30 -97l61 -333l11 -62l9 -50q4 -26 8 -46h4q2 20 6 46q3 22 7.5 50.5t10.5 61.5l63 360q8 44 19 81t33 59t56 35.5t79 13.5q39 0 77 -11t68.5 -32.5t49 -52.5t18.5 -71q0 -15 -3 -35t-14 -64l-130 -515q-17 -69 -40 -117.5t-53 -78.5q-36 -36 -92.5 -55.5t-141.5 -19.5 q-81 0 -137.5 18t-94.5 56q-32 32 -53 84.5t-34 122.5l-37 203q-7 35 -11.5 68.5t-8.5 59.5q-4 31 -8 58h-4q-3 -27 -7 -58l-9 -60q-5 -33 -11 -68l-37 -203q-13 -70 -34 -122.5t-53 -84.5q-38 -38 -94.5 -56t-137.5 -18q-85 0 -141.5 19.5t-92.5 55.5q-30 30 -53 78.5 t-40 117.5l-127 500q-11 44 -14 66.5t-3 37.5z" />
<glyph unicode="x" horiz-adv-x="1154" d="M50 192q0 25 7.5 45t19.5 37t26.5 31t27.5 28l178 181l-146 139q-20 18 -38 36.5t-32 38t-22.5 41.5t-8.5 47q0 48 22 89.5t56 72t75 48t79 17.5q30 0 54.5 -9t43.5 -25q5 -5 10 -9.5t12.5 -12t18.5 -19.5l29 -32l148 -163l113 162q10 15 18 26l13 18q6 7 10.5 12t8.5 9 q22 22 48 32.5t55 10.5q36 0 74 -15.5t69.5 -43t52 -64.5t20.5 -80q0 -25 -7.5 -45t-19.5 -37t-27 -31l-27 -28l-168 -165l160 -155l37 -37q18 -19 32.5 -38.5t23 -41t8.5 -46.5q0 -48 -22 -89.5t-56 -72t-75 -48t-79 -17.5q-30 0 -54.5 9t-43.5 25q-5 4 -10 9l-13 13 q-7 7 -18 19l-29 32l-162 179l-123 -178l-19 -25l-13 -18q-5 -8 -9.5 -13t-8.5 -9q-22 -22 -48 -32.5t-55 -10.5q-36 0 -74 15.5t-69.5 43t-52 64.5t-20.5 80z" />
<glyph unicode="y" horiz-adv-x="1153" d="M-73 -291q0 60 36.5 96.5t96.5 36.5q20 0 35 -1.5t29.5 -4t29 -4t32.5 -1.5q27 0 49 4t41 11.5t34.5 19t27.5 25.5l-281 856q-14 44 -18.5 66.5t-4.5 42.5q0 44 21 78.5t54 58.5t74 37t81 13q39 0 71.5 -12.5t54.5 -34.5t32.5 -53t21.5 -75l107 -415q7 -27 12 -55.5 t10 -52.5q4 -28 9 -54h4q4 27 9 55q5 24 10 52.5t12 54.5l103 422q9 38 21 69.5t32 51.5q21 21 52 34t76 13q38 0 76.5 -11.5t70 -34t51.5 -54.5t20 -73q0 -20 -4 -41t-16 -58l-181 -554q-56 -170 -124.5 -301t-156 -219.5t-197.5 -134t-249 -45.5q-77 0 -130 18.5t-84 49.5 q-50 50 -50 124z" />
<glyph unicode="z" horiz-adv-x="1007" d="M54 198q0 45 19 90t63 99l282 349h-212q-57 0 -91 37t-34 112q0 73 34 110t91 37h495q120 0 177 -52.5t57 -145.5q0 -45 -19 -90t-63 -99l-282 -349h261q57 0 91 -37t34 -112q0 -73 -34 -110t-91 -37h-544q-121 0 -177.5 52t-56.5 146z" />
<glyph unicode="{" horiz-adv-x="809" d="M30 602q0 42 11.5 74t32.5 53q10 10 21 15l24 11q12 6 25 13t27 21q12 12 19.5 31.5t12 43t6 50t1.5 52.5v177q0 90 27.5 163t78.5 124t124 78.5t164 27.5h4q51 0 87 -10.5t58.5 -30t33 -46t10.5 -59.5q0 -26 -8 -49t-22.5 -40.5t-36 -28t-48.5 -10.5h-10q-23 0 -40.5 -6 t-29 -18.5t-17 -32t-5.5 -46.5v-181q0 -74 -8 -128t-25.5 -94.5t-46 -71t-68.5 -57.5v-2q40 -27 68.5 -58.5t46 -76.5t25.5 -108.5t8 -154.5v-196q0 -30 6.5 -51.5t18.5 -35.5t30.5 -20.5t42.5 -6.5h10q56 0 82.5 -31.5t26.5 -85.5q0 -35 -12 -63.5t-37.5 -49t-65.5 -32 t-96 -11.5h-4q-90 0 -159.5 24.5t-116.5 72.5t-71.5 118.5t-24.5 162.5v216q0 26 -1.5 52.5t-6 50t-12 43t-19.5 31.5q-14 13 -27 20.5t-25 12.5l-24 11q-11 6 -21 16q-21 21 -32.5 53t-11.5 74z" />
<glyph unicode="|" horiz-adv-x="700" d="M175 -318v1640q0 90 45 131.5t130 41.5t130 -41.5t45 -131.5v-1640q0 -90 -45 -132t-130 -42t-130 42t-45 132z" />
<glyph unicode="}" horiz-adv-x="809" d="M12 -210q0 25 8 48.5t22.5 41t36 28t48.5 10.5h10q23 0 40.5 6t29 18.5t17 32t5.5 46.5v203q0 74 8 128t26 94.5t46.5 71t69.5 56.5v4q-41 27 -69.5 58t-46.5 76t-26 108t-8 155v174q0 30 -6.5 51.5t-18.5 35.5t-30.5 20.5t-42.5 6.5h-10q-56 0 -82.5 31.5t-26.5 85.5 q0 34 12 63t37.5 49.5t65.5 32t96 11.5h4q90 0 159.5 -24.5t116.5 -72.5t71.5 -118.5t24.5 -162.5v-192q0 -26 1.5 -52.5t6 -50t12 -43t19.5 -31.5q13 -14 26.5 -21t25.5 -12l23 -12q12 -5 22 -15q44 -44 44 -127q0 -42 -11.5 -74t-32.5 -53q-10 -10 -22 -16l-23 -11 q-12 -5 -25.5 -12.5t-26.5 -20.5q-12 -12 -19.5 -31.5t-12 -43t-6 -50t-1.5 -52.5v-201q0 -90 -27.5 -163t-78.5 -124t-124 -78.5t-164 -27.5h-4q-51 0 -87 10.5t-58.5 30t-33 46t-10.5 59.5z" />
<glyph unicode="~" d="M108 540q0 34 16 67q20 42 50.5 76t69.5 58t86 37t99 13q39 0 72 -8t62 -20t54 -26l47 -26q23 -12 43.5 -20t40.5 -8q27 0 48 12.5t38 30.5q22 23 46 33.5t50 10.5q25 0 48.5 -10t41.5 -28t28.5 -42.5t10.5 -53.5q0 -16 -4 -33t-12 -34q-20 -42 -50.5 -76t-69.5 -58 t-86 -37t-99 -13q-39 0 -72 8t-62 20t-54 26l-48 26q-22 12 -42.5 20t-40.5 8q-27 0 -48 -12.5t-38 -30.5q-22 -23 -46 -33.5t-50 -10.5t-49 10t-41 28t-28.5 42.5t-10.5 53.5z" />
<glyph unicode="&#xa1;" horiz-adv-x="703" d="M118 885q0 48 17 88.5t48 70t74.5 46t95.5 16.5t94.5 -16t73 -45t47.5 -68.5t17 -87.5t-18 -88.5t-49.5 -70t-74.5 -46t-94 -16.5t-93.5 16t-73 45t-47.5 68.5t-17 87.5zM126 -219q0 14 1 31.5t2 39.5t3 52l35 563q3 57 47 93t137 36t137.5 -36t47.5 -93l34 -563l3 -52 q2 -22 2.5 -39.5t1 -31t0.5 -25.5q0 -34 -13 -62.5t-40 -49t-70 -32t-103 -11.5q-62 0 -104.5 11.5t-69.5 32t-39 49t-12 62.5v25z" />
<glyph unicode="&#xa2;" horiz-adv-x="1061" d="M86 593q0 90 26 170t74.5 145t119.5 112t161 73v183q0 63 33.5 94t95.5 31t96.5 -31t34.5 -94v-157q39 -4 72 -12t59 -19t45.5 -23.5t31.5 -24.5q26 -26 38 -55.5t12 -75.5q0 -60 -32.5 -98t-84.5 -38q-25 0 -44 6.5t-38.5 14t-43 14t-56.5 6.5q-40 0 -73 -13.5 t-57 -38.5t-37 -61t-13 -81q0 -40 14 -73.5t40 -58t62.5 -38.5t81.5 -14q33 0 55 6t40.5 13.5t37 13.5t43.5 6q27 0 47.5 -10.5t34.5 -28.5t21.5 -41t7.5 -47q0 -75 -48 -123q-14 -14 -34 -28t-46.5 -26.5t-60.5 -22.5t-75 -16v-165q0 -63 -33.5 -94t-95.5 -31t-96.5 31 t-34.5 94v172q-92 18 -163 59t-119.5 100t-73.5 133.5t-25 161.5z" />
<glyph unicode="&#xa3;" horiz-adv-x="1157" d="M82 700q0 71 34 108t89 37h4q-5 21 -7.5 40t-2.5 45q0 93 38.5 176.5t109.5 146.5t172.5 99.5t227.5 36.5q51 0 93.5 -7t75.5 -18t56.5 -25t37.5 -28q26 -26 39 -55.5t13 -73.5q0 -29 -10 -53.5t-27.5 -42.5t-40 -28t-47.5 -10t-44.5 6t-39 13t-42 13t-52.5 6 q-39 0 -68.5 -10t-49.5 -28.5t-30 -46.5t-10 -64q0 -14 1 -26t2.5 -23t4 -21.5t5.5 -21.5h228q55 0 89 -37t34 -108t-34 -108t-89 -37h-181q-8 -63 -30 -119.5t-56 -111.5l2 -4h393q62 0 95.5 -43t33.5 -117q0 -75 -33.5 -117.5t-95.5 -42.5h-673q-94 0 -145.5 52t-51.5 136 q0 25 4 47t11 42t17.5 39.5t24.5 40.5l27 40q15 22 29.5 47.5t26.5 53.5t17 57h-52q-55 0 -89 37t-34 108z" />
<glyph unicode="&#xa4;" horiz-adv-x="1130" d="M66 275q0 24 10.5 44.5t32.5 43.5l97 99q-32 48 -50.5 106t-18.5 130t17.5 132t51.5 108l-91 95q-17 17 -30 38.5t-13 49.5q0 29 13.5 55.5t35 47t48.5 32.5t54 12q29 0 52 -15t46 -49l83 -123q39 13 80 19t89 6q90 0 162 -24l86 127q23 35 47 49.5t54 14.5 q27 0 52.5 -11.5t45.5 -30.5t32 -43.5t12 -51.5q0 -24 -10.5 -44.5t-32.5 -43.5l-97 -100q35 -48 52 -106t17 -128q0 -72 -17.5 -132t-50.5 -109l90 -95q17 -17 30 -38.5t13 -49.5q0 -29 -13.5 -55.5t-35 -47t-48.5 -32.5t-54 -12q-29 0 -52 15t-46 49l-82 122 q-37 -11 -79.5 -17.5t-90.5 -6.5q-47 0 -85.5 5.5t-76.5 17.5l-86 -126q-23 -35 -47 -49.5t-54 -14.5q-27 0 -52.5 11.5t-45.5 30.5t-32 43.5t-12 51.5zM411 708q0 -47 11.5 -82.5t32.5 -59.5t49.5 -36.5t62.5 -12.5q32 0 60 12t48.5 35.5t32 58.5t11.5 81t-11.5 81.5 t-32.5 59.5t-49.5 36.5t-62.5 12.5q-33 0 -60.5 -12t-48 -35.5t-32 -58.5t-11.5 -80z" />
<glyph unicode="&#xa5;" horiz-adv-x="1284" d="M94 1199q0 42 18 76.5t47.5 60t66.5 39.5t76 14q42 0 70.5 -14t44.5 -30q19 -19 33 -43t34 -62l129 -253q9 -17 17 -35l14 -33l13 -33h4q6 15 12 33q5 15 13 34l15 36l119 252q17 38 30.5 62t31.5 42q44 44 112 44q37 0 72.5 -13.5t63 -37t44 -56t16.5 -69.5 q0 -38 -17 -72t-39 -70l-228 -378h100q51 0 78 -25.5t27 -79.5t-27 -79.5t-78 -25.5h-165v-80h165q51 0 78 -25.5t27 -79.5t-27 -79.5t-78 -25.5h-161v-25q0 -86 -52 -131t-157 -45q-103 0 -155 45.5t-52 130.5v25h-161q-51 0 -78 25.5t-27 79.5t27 79.5t78 25.5h165v80 h-165q-51 0 -78 25.5t-27 79.5t27 79.5t78 25.5h100l-218 361q-22 36 -39 69t-17 76z" />
<glyph unicode="&#xa6;" horiz-adv-x="700" d="M175 236q0 90 45 132t130 42t130 -42t45 -132v-554q0 -89 -45 -131.5t-130 -42.5t-130 42.5t-45 131.5v554zM175 779v543q0 90 45 131.5t130 41.5t130 -41.5t45 -131.5v-543q0 -89 -45 -131t-130 -42t-130 42t-45 131z" />
<glyph unicode="&#xa7;" horiz-adv-x="1207" d="M87 516q0 103 49.5 179t139.5 133q-37 38 -59.5 85.5t-22.5 111.5q0 84 32.5 153t95.5 118.5t155 77t210 27.5q58 0 104.5 -6.5t83 -18t62.5 -26.5t43 -31q23 -23 33 -50t10 -61q0 -26 -9 -48t-25 -37.5t-37.5 -24.5t-46.5 -9q-24 0 -49 6l-52 13q-28 6 -59 12t-68 6 q-49 0 -67 -14t-18 -37q0 -24 22.5 -43t60 -38t84.5 -38.5t96.5 -43.5t97 -55t85 -71.5t60 -93.5t22.5 -122q0 -103 -48.5 -178t-136.5 -131q35 -38 56.5 -87t21.5 -113q0 -84 -32.5 -153t-95.5 -118.5t-155 -77t-210 -27.5q-58 0 -104.5 6.5t-83 18t-63 26t-42.5 31.5 q-23 23 -33 50t-10 61q0 26 9 48t25 37.5t37.5 24.5t46.5 9q24 0 49 -6l52 -13q28 -6 59 -12t68 -6q49 0 67 14t18 37q0 24 -22.5 43t-60 38t-85 38.5t-97 43.5t-96.5 55t-84.5 71.5t-60 93.5t-22.5 122zM487 566q0 -24 13.5 -44t37 -37.5t55.5 -34t70 -33.5 q28 23 42.5 46.5t14.5 55.5q0 25 -13.5 45t-37 37.5t-55.5 33.5l-70 33q-26 -20 -41.5 -45t-15.5 -57z" />
<glyph unicode="&#xa8;" horiz-adv-x="1024" d="M72 1311q0 41 15 77t42 62.5t64 41.5t81 15t80.5 -14.5t63 -40t41 -61t14.5 -76.5q0 -42 -15.5 -78t-42.5 -62.5t-64 -41.5t-81 -15t-80 14.5t-62.5 40.5t-41 61t-14.5 77zM551 1311q0 41 15.5 77t42.5 62.5t64 41.5t81 15q43 0 79.5 -14.5t63 -40t41 -61t14.5 -76.5 q0 -42 -15.5 -78t-42.5 -62.5t-64 -41.5t-80 -15q-44 0 -80.5 14.5t-63 40.5t-41 61t-14.5 77z" />
<glyph unicode="&#xa9;" horiz-adv-x="1635" d="M76 685q0 154 54.5 285t153 227t236 150t303.5 54q165 0 301 -52.5t232.5 -146.5t149.5 -223.5t53 -283.5q0 -155 -54.5 -286.5t-153 -227.5t-235.5 -150t-303 -54t-302 52.5t-232.5 146.5t-149.5 224t-53 285zM321 690q0 -111 36 -202.5t101.5 -157t157 -101.5 t201.5 -36q111 0 202.5 36t157 101.5t101.5 157t36 202.5q0 110 -36 201t-101.5 156.5t-157 101.5t-201.5 36q-111 0 -202.5 -36t-157 -101.5t-101.5 -156.5t-36 -201zM475 660q0 94 27.5 169t77 127.5t119 80t154.5 27.5q33 0 61.5 -4.5t51.5 -12.5t40.5 -18t28.5 -21 q18 -18 25.5 -36.5t7.5 -44.5q0 -37 -22 -61.5t-56 -24.5q-14 0 -27 4l-26 10q-14 5 -31 9.5t-40 4.5q-28 0 -52 -11t-41.5 -33.5t-27.5 -58t-10 -83.5q0 -45 10 -77.5t28 -54t43.5 -32t56.5 -10.5q25 0 42.5 4t32 9.5t26.5 9.5t26 4q29 0 50 -23t21 -59q0 -45 -33 -78 q-12 -12 -30.5 -23.5t-45 -20.5t-59.5 -14.5t-73 -5.5q-83 0 -149 24.5t-111.5 69.5t-70 109.5t-24.5 144.5z" />
<glyph unicode="&#xaa;" horiz-adv-x="891" d="M71 506q0 53 28 81.5t79 28.5h552q51 0 79 -28.5t28 -81.5t-28.5 -81.5t-79.5 -28.5h-551q-51 0 -79 28.5t-28 81.5zM94 910q0 49 24 87t67.5 63.5t102.5 38.5t130 13q20 0 37 -1t30 -3q15 -2 28 -4v27q0 17 -5 29.5t-17.5 21t-34 12.5t-54.5 4q-42 0 -71.5 -6t-50.5 -13 l-39 -13q-17 -6 -35 -6q-32 0 -53.5 21t-21.5 62q0 23 7 39.5t22 31.5q13 13 39.5 26.5t64.5 25t88 18.5t111 7q157 0 235.5 -60.5t78.5 -181.5v-174q0 -47 5 -75.5t12 -48.5l11 -35q5 -15 5 -34q0 -39 -30 -66.5t-90 -27.5q-57 0 -90.5 25t-48.5 58h-2q-18 -25 -47 -44 q-25 -17 -63.5 -30.5t-94.5 -13.5q-57 0 -103.5 17t-79 47.5t-50 72t-17.5 90.5zM362 921q0 -23 16 -38t48 -15q21 0 37.5 7t27.5 15q13 10 22 22v51q-8 2 -19 4q-9 2 -22.5 3.5t-29.5 1.5q-80 0 -80 -51z" />
<glyph unicode="&#xab;" horiz-adv-x="1337" d="M62 515q0 44 18.5 78t45.5 64l257 279q30 32 59.5 52t70.5 20q36 0 68.5 -13t57.5 -35.5t40 -51.5t15 -62q0 -29 -13 -54t-35 -53l-172 -215l177 -224q25 -32 36.5 -55.5t11.5 -52.5q0 -33 -15 -62.5t-40.5 -52t-58.5 -35.5t-69 -13q-22 0 -40 4.5t-34.5 14t-33 24 t-35.5 35.5l-248 269q-27 29 -45 63t-18 76zM662 515q0 44 18.5 78t45.5 64l232 252q32 35 62.5 53t68.5 18q34 0 66 -12.5t57 -34t39.5 -50t14.5 -59.5q0 -39 -20 -69t-53 -71l-128 -160l156 -198q26 -33 37.5 -57t11.5 -52q0 -34 -15 -63.5t-40.5 -51t-58 -34t-66.5 -12.5 q-22 0 -40 4.5t-34.5 14.5t-33 25t-35.5 35l-222 241q-27 29 -45 63t-18 76z" />
<glyph unicode="&#xac;" d="M116 586q0 68 36 106t99 38h588q174 0 174 -174v-230q0 -91 -42.5 -132.5t-117.5 -41.5t-117.5 41.5t-42.5 132.5v116h-442q-63 0 -99 38t-36 106z" />
<glyph unicode="&#xad;" horiz-adv-x="897" d="M76 564q0 76 35.5 115.5t93.5 39.5h487q58 0 93.5 -39.5t35.5 -115.5t-35.5 -115.5t-93.5 -39.5h-487q-58 0 -93.5 39.5t-35.5 115.5z" />
<glyph unicode="&#xae;" horiz-adv-x="975" d="M57 1080q0 92 30.5 168.5t87.5 131t137.5 85t180.5 30.5q99 0 177.5 -29t133.5 -82t84.5 -127.5t29.5 -164.5q0 -92 -30.5 -168t-87.5 -130.5t-137.5 -85t-180.5 -30.5q-99 0 -177.5 29t-133.5 82t-84.5 127t-29.5 164zM189 1086q0 -68 20.5 -122t58.5 -92t93.5 -58 t126.5 -20q70 0 125.5 20t93.5 58t58.5 92t20.5 122t-20.5 122.5t-58.5 92.5t-94 58t-126 20t-125.5 -20t-93.5 -58t-58.5 -92.5t-20.5 -122.5zM322 943v290q0 27 15.5 42t41.5 15h105q94 0 136.5 -36t42.5 -90q0 -38 -15.5 -64.5t-41.5 -41.5q6 -15 13 -27t17 -23l18 -18 l16 -14q11 -9 14 -17.5t3 -19.5q0 -22 -17.5 -38t-49.5 -16q-23 0 -40.5 8t-32.5 23q-17 16 -31.5 44t-26.5 69h-41v-86q0 -28 -15.5 -43t-47.5 -15t-47.5 15t-15.5 43zM448 1119h38q23 0 35 11t12 29t-11.5 27.5t-40.5 9.5h-33v-77z" />
<glyph unicode="&#xaf;" horiz-adv-x="1024" d="M117 1311q0 68 31.5 103.5t88.5 35.5h550q57 0 88.5 -35.5t31.5 -103.5t-31.5 -103.5t-88.5 -35.5h-550q-57 0 -88.5 35.5t-31.5 103.5z" />
<glyph unicode="&#xb0;" horiz-adv-x="899" d="M78 1157q0 71 27 132.5t76 107.5t118 72t154 26t153 -24.5t116 -68.5t73.5 -104.5t25.5 -132.5q0 -70 -27 -131t-76.5 -106.5t-119 -72t-154.5 -26.5t-153 25t-115 68.5t-72.5 103.5t-25.5 131zM336 1161q0 -25 8.5 -46t23.5 -36.5t36 -24t45 -8.5q25 0 45.5 8.5t35.5 24 t23 36.5t8 46q0 26 -8 47.5t-23 36.5t-35.5 23t-45.5 8q-24 0 -45 -8t-36 -23t-23.5 -36.5t-8.5 -47.5z" />
<glyph unicode="&#xb1;" d="M120 144q0 68 36 106t99 38h658q63 0 99 -38t36 -106t-35.5 -106t-98.5 -38h-659q-63 0 -99 38t-36 106zM120 826q0 68 36 106t99 38h169v144q0 89 42.5 130.5t117.5 41.5t117.5 -41.5t42.5 -130.5v-144h168q64 0 100 -38t36 -106t-36 -106t-99 -38h-169v-144 q0 -89 -42.5 -130.5t-117.5 -41.5t-117.5 41.5t-42.5 130.5v144h-169q-63 0 -99 38t-36 106z" />
<glyph unicode="&#xb2;" horiz-adv-x="743" d="M49 765q0 41 16.5 73t45.5 57l101 89l57 51q24 21 39 37.5t22 30.5t7 28q0 22 -15 34.5t-53 12.5q-18 0 -30.5 -2t-24 -4.5t-23 -4.5t-26.5 -2q-37 0 -60.5 23.5t-23.5 64.5q0 24 8.5 43t23.5 34q13 13 35 25t52 20t69 13t86 5q79 0 135.5 -16t93 -45t54 -69t17.5 -88 q0 -44 -12 -79.5t-37.5 -68t-65 -65t-93.5 -70.5l-50 -35h193q43 0 68.5 -28t25.5 -85t-25.5 -85t-68.5 -28h-404q-65 0 -101 36.5t-36 97.5z" />
<glyph unicode="&#xb3;" horiz-adv-x="731" d="M51 764q0 40 24 63t59 23q20 0 35 -6l31 -11q15 -6 35.5 -11.5t50.5 -5.5q45 0 62 11.5t17 29.5q0 11 -6 19.5t-23 14.5t-47.5 9.5t-78.5 3.5q-14 0 -25 3.5t-19 11.5q-14 14 -21 36.5t-7 47.5t7 47.5t21 36.5q8 8 19 11.5t25 3.5q42 0 67 3.5t39 9.5t18.5 14.5t4.5 17.5 q0 17 -14.5 28t-55.5 11q-21 0 -35 -2t-25 -4l-23 -4q-12 -2 -28 -2q-36 0 -59 22t-23 64q0 21 7.5 39t23.5 34q28 28 85.5 44t150.5 16q77 0 133 -15t92 -41.5t53.5 -63t17.5 -79.5q0 -56 -27.5 -93t-71.5 -63v-1q57 -19 92 -60.5t35 -117.5q0 -51 -22.5 -95t-66.5 -77 t-111 -52t-155 -19q-81 0 -140.5 18.5t-88.5 47.5q-14 14 -23 33.5t-9 48.5z" />
<glyph unicode="&#xb4;" horiz-adv-x="1024" d="M252 1258q0 27 13 44.5t34 38.5l183 185q31 31 53.5 45.5t52.5 14.5q33 0 64.5 -16.5t56.5 -43t40 -59.5t15 -66q0 -22 -7 -38.5t-19 -29.5t-27 -23l-31 -20l-223 -139q-23 -14 -41 -19.5t-32 -5.5q-28 0 -52 12t-42 31t-28 42.5t-10 46.5z" />
<glyph unicode="&#xb5;" horiz-adv-x="1272" d="M104 -297v1157q0 86 50.5 133t156.5 47t156.5 -47t50.5 -133v-416q0 -78 26 -109.5t73 -31.5q17 0 32 4.5t28 12t23.5 16.5t19.5 19q20 23 34 52v453q0 86 50.5 133t156.5 47t156.5 -47t50.5 -133v-700q0 -85 -43.5 -128.5t-128.5 -43.5q-41 0 -70.5 9t-50.5 25.5 t-34.5 39t-22.5 48.5l-7 21h-4q-21 -43 -53 -76q-27 -29 -67.5 -52t-93.5 -23q-26 0 -45.5 5.5t-33.5 12.5q-16 8 -27 18l-2 -2l18 -195q1 -14 2.5 -31.5t2.5 -35.5l2 -34q1 -17 1 -29q0 -81 -51 -123.5t-149 -42.5q-106 0 -156.5 47t-50.5 133z" />
<glyph unicode="&#xb6;" horiz-adv-x="1341" d="M107 909q0 114 32 202t100 147t174 89.5t255 30.5h349q87 0 131.5 -44.5t44.5 -131.5v-1364q0 -67 -33.5 -103t-107.5 -36t-107.5 36.5t-33.5 102.5v1259h-149v-1259q0 -67 -33.5 -103t-107.5 -36t-107.5 36.5t-33.5 102.5v633q-82 0 -150.5 29t-118 84.5t-77 137 t-27.5 187.5z" />
<glyph unicode="&#xb7;" horiz-adv-x="653" d="M97 563q0 51 17 93.5t48 73t73.5 48t93.5 17.5t92.5 -16.5t71.5 -46.5t46.5 -72t16.5 -93t-17 -93t-48 -73t-73 -48t-93 -17t-93 16.5t-72 46.5t-46.5 71.5t-16.5 92.5z" />
<glyph unicode="&#xb8;" horiz-adv-x="1024" d="M247 -386q0 36 20 56.5t54 20.5q17 0 34 -2t43 -2q31 0 49.5 4.5t28.5 12t13.5 16t3.5 16.5q0 16 -11 26.5t-42 10.5h-46q-28 0 -38.5 15.5t-2.5 49.5l38 162h207l-18 -67q43 -3 79.5 -16t62 -35.5t40 -54.5t14.5 -73q0 -50 -21 -95t-63 -78.5t-105 -53t-147 -19.5 q-55 0 -92 8.5t-59.5 23.5t-32 34t-9.5 40z" />
<glyph unicode="&#xb9;" horiz-adv-x="611" d="M31 1177q0 26 8.5 44t26.5 36q10 10 25.5 21t36 22t45 22.5t54.5 23.5q52 22 87.5 31.5t64.5 9.5q63 0 98.5 -34t35.5 -94v-507q0 -61 -37.5 -95t-112.5 -34t-112.5 34t-37.5 95v327l-22 -6q-14 -4 -27 -6.5t-25 -2.5q-48 0 -78 33t-30 80z" />
<glyph unicode="&#xba;" horiz-adv-x="921" d="M78 506q0 53 28 81.5t79 28.5h551q51 0 79 -28.5t28 -81.5t-28 -81.5t-79 -28.5h-551q-51 0 -79 28.5t-28 81.5zM85 1025q0 85 25.5 153t74.5 115t120.5 72.5t163.5 25.5q86 0 154.5 -25t116 -70t72.5 -108.5t25 -141.5q0 -85 -25.5 -153t-75 -115t-121 -72.5 t-162.5 -25.5q-86 0 -154.5 25t-116 70t-72.5 108.5t-25 141.5zM355 1036q0 -42 8.5 -71.5t23 -49t34 -28.5t41.5 -9t41 9t33 28t22.5 48.5t8.5 70.5q0 42 -8.5 72t-23 49.5t-34 28.5t-41.5 9t-41 -9t-33.5 -28t-22.5 -49t-8 -71z" />
<glyph unicode="&#xbb;" horiz-adv-x="1337" d="M67 816q0 34 15 63t40.5 51t57.5 34.5t67 12.5q22 0 40 -5t34.5 -14.5t33 -24.5t35.5 -35l222 -241q27 -29 45 -63t18 -76q0 -44 -18.5 -78t-45.5 -64l-232 -252q-32 -35 -62.5 -53t-68.5 -18q-35 0 -66.5 12.5t-56.5 34t-39.5 50t-14.5 59.5q0 39 20 69t53 71l128 160 l-156 198q-26 33 -37.5 57t-11.5 52zM638 841q0 33 15 62.5t40.5 52t58.5 35.5t69 13q43 0 74 -18.5t69 -59.5l248 -269q27 -29 45 -63t18 -76q0 -44 -18.5 -78t-45.5 -64l-257 -279q-30 -32 -59.5 -52t-70.5 -20q-36 0 -68.5 13t-57.5 35.5t-40 51.5t-15 62q0 29 13 54 t35 53l172 215l-177 224q-25 32 -36.5 55.5t-11.5 52.5z" />
<glyph unicode="&#xbc;" horiz-adv-x="1715" d="M31 1177q0 26 8.5 44t26.5 36q10 10 25.5 21t36 22t45 22.5t54.5 23.5q52 22 87.5 31.5t64.5 9.5q63 0 98.5 -34t35.5 -94v-507q0 -61 -37.5 -95t-112.5 -34t-112.5 34t-37.5 95v327l-22 -6q-14 -4 -27 -6.5t-25 -2.5q-48 0 -78 33t-30 80zM310 94q0 17 7.5 35.5 t17.5 34.5l702 1169q18 31 41 49t60 18q24 0 48 -9t43 -24.5t30.5 -37t11.5 -45.5q0 -17 -7.5 -35.5t-17.5 -34.5l-702 -1169q-18 -31 -41 -49t-60 -18q-24 0 -48 9t-43 24.5t-30.5 37t-11.5 45.5zM919 310q0 36 12.5 67.5t41.5 70.5l147 203q22 30 45.5 51t52.5 33.5 t64.5 18.5t81.5 6q104 0 147.5 -33t43.5 -101v-260h33q37 0 58.5 -25.5t21.5 -78.5t-21.5 -78.5t-58.5 -25.5h-33v-44q0 -61 -33.5 -91t-103.5 -30t-103.5 30t-33.5 91v44h-192q-86 0 -128 40.5t-42 111.5zM1145 366h136v188z" />
<glyph unicode="&#xbd;" horiz-adv-x="1716" d="M31 1177q0 26 8.5 44t26.5 36q10 10 25.5 21t36 22t45 22.5t54.5 23.5q52 22 87.5 31.5t64.5 9.5q63 0 98.5 -34t35.5 -94v-507q0 -61 -37.5 -95t-112.5 -34t-112.5 34t-37.5 95v327l-22 -6q-14 -4 -27 -6.5t-25 -2.5q-48 0 -78 33t-30 80zM308 94q0 17 7.5 35.5 t17.5 34.5l702 1169q18 31 41 49t60 18q24 0 48 -9t43 -24.5t30.5 -37t11.5 -45.5q0 -17 -7.5 -35.5t-17.5 -34.5l-702 -1169q-18 -31 -41 -49t-60 -18q-24 0 -48 9t-43 24.5t-30.5 37t-11.5 45.5zM1022 135q0 41 16.5 73t45.5 57l101 89l57 51q24 21 39 37.5t22 30.5t7 28 q0 22 -15 34.5t-53 12.5q-18 0 -30.5 -2t-24 -4.5t-23 -4.5t-26.5 -2q-37 0 -60.5 23.5t-23.5 64.5q0 24 8.5 43t23.5 34q13 13 35 25t52 20t69 13t86 5q79 0 135.5 -16t93 -45t54 -69t17.5 -88q0 -44 -12 -79.5t-37.5 -68t-65 -65t-93.5 -70.5l-50 -35h193q43 0 68.5 -28 t25.5 -85t-25.5 -85t-68.5 -28h-404q-65 0 -101 36.5t-36 97.5z" />
<glyph unicode="&#xbe;" horiz-adv-x="1810" d="M51 764q0 40 24 63t59 23q20 0 35 -6l30 -11q16 -6 36.5 -11.5t50.5 -5.5q45 0 62 11.5t17 29.5q0 11 -6 19.5t-23 14.5t-47.5 9.5t-78.5 3.5q-14 0 -25 3.5t-19 11.5q-14 14 -21 36.5t-7 47.5t7 47.5t21 36.5q8 8 19 11.5t25 3.5q42 0 67 3.5t39 9.5t18.5 14.5t4.5 17.5 q0 17 -14.5 28t-55.5 11q-21 0 -35 -2t-25 -4l-23 -4q-12 -2 -28 -2q-36 0 -59 22t-23 64q0 21 7.5 39t23.5 34q28 28 85.5 44t150.5 16q77 0 133 -15t92 -41.5t53.5 -63t17.5 -79.5q0 -56 -27.5 -93t-71.5 -63v-1q57 -19 92 -60.5t35 -117.5q0 -51 -22.5 -95t-66.5 -77 t-111 -52t-155 -19q-81 0 -140.5 18.5t-88.5 47.5q-14 14 -23 33.5t-9 48.5zM405 94q0 17 7.5 35.5t17.5 34.5l702 1169q18 31 41 49t60 18q24 0 48 -9t43 -24.5t30.5 -37t11.5 -45.5q0 -17 -7.5 -35.5t-17.5 -34.5l-702 -1169q-18 -31 -41 -49t-60 -18q-24 0 -48 9 t-43 24.5t-30.5 37t-11.5 45.5zM1014 310q0 36 12.5 67.5t41.5 70.5l147 203q22 30 45.5 51t52.5 33.5t64.5 18.5t81.5 6q104 0 147.5 -33t43.5 -101v-260h33q37 0 58.5 -25.5t21.5 -78.5t-21.5 -78.5t-58.5 -25.5h-33v-44q0 -61 -33.5 -91t-103.5 -30t-103.5 30t-33.5 91 v44h-192q-86 0 -128 40.5t-42 111.5zM1240 366h136v188z" />
<glyph unicode="&#xbf;" horiz-adv-x="868" d="M24 -76q0 66 20.5 116.5t51 90.5t66.5 73l66 61q31 29 51.5 58t20.5 62q0 15 -1.5 27t-3.5 22t-3.5 20.5t-1.5 22.5q0 52 47.5 85.5t149.5 33.5q54 0 96 -14.5t70.5 -42.5t43.5 -69t15 -93q0 -56 -19.5 -100t-49.5 -80t-64 -66l-64 -57q-30 -27 -49.5 -53.5t-19.5 -55.5 q0 -15 5.5 -27t19.5 -20.5t37 -13t59 -4.5q34 0 58.5 4.5t44.5 9.5l38 9q18 5 41 5q56 0 87.5 -34.5t31.5 -90.5q0 -34 -11.5 -60t-33.5 -48q-23 -23 -58.5 -43t-80.5 -34t-99 -22t-115 -8q-117 0 -201 24.5t-138.5 68.5t-80.5 106t-26 137zM241 885q0 48 17 88.5t48 70 t74.5 46t95.5 16.5t94.5 -16t73 -45t47.5 -68.5t17 -87.5t-18 -88.5t-49.5 -70t-74.5 -46t-94 -16.5t-93.5 16t-73 45t-47.5 68.5t-17 87.5z" />
<glyph unicode="&#xc0;" horiz-adv-x="1371" d="M20 165q0 22 5 44.5t18 60.5l269 815q13 40 26 72t27 58t29.5 47t33.5 39q40 40 102 61.5t156 21.5t156 -21.5t102 -61.5q18 -18 33.5 -39t29.5 -47t26.5 -58t26.5 -72l268 -807q13 -38 18 -60.5t5 -42.5q0 -47 -21.5 -82t-54.5 -58t-74 -34.5t-80 -11.5q-47 0 -81.5 14 t-59.5 39q-23 23 -37 55t-25 70l-27 91h-433l-25 -92q-11 -39 -24.5 -73t-36.5 -57q-22 -22 -55.5 -34.5t-77.5 -12.5q-39 0 -78 12t-70.5 34.5t-51 55.5t-19.5 74zM296 1706q0 34 14 70.5t37 66.5t54 49.5t64 19.5q19 0 36.5 -7.5t39.5 -23.5l261 -186q32 -23 43.5 -42.5 t11.5 -45.5q0 -25 -9.5 -51t-26.5 -47t-40.5 -34t-50.5 -13q-17 0 -32 4.5t-29 10.5l-293 124q-41 17 -60.5 41t-19.5 64zM542 569h257l-78 266q-12 40 -21.5 76.5t-17.5 63.5q-9 32 -15 59h-4q-6 -27 -14 -59l-16 -63l-20 -77z" />
<glyph unicode="&#xc1;" horiz-adv-x="1371" d="M20 165q0 22 5 44.5t18 60.5l269 815q13 40 26 72t27 58t29.5 47t33.5 39q40 40 102 61.5t156 21.5t156 -21.5t102 -61.5q18 -18 33.5 -39t29.5 -47t26.5 -58t26.5 -72l268 -807q13 -38 18 -60.5t5 -42.5q0 -47 -21.5 -82t-54.5 -58t-74 -34.5t-80 -11.5q-47 0 -81.5 14 t-59.5 39q-23 23 -37 55t-25 70l-27 91h-433l-25 -92q-11 -39 -24.5 -73t-36.5 -57q-22 -22 -55.5 -34.5t-77.5 -12.5q-39 0 -78 12t-70.5 34.5t-51 55.5t-19.5 74zM468 1607q0 26 11.5 45.5t43.5 42.5l261 186q22 16 39.5 23.5t36.5 7.5q33 0 64 -19.5t54 -49.5t37 -66.5 t14 -70.5q0 -40 -19.5 -64t-60.5 -41l-293 -124q-14 -6 -29 -10.5t-32 -4.5q-27 0 -50.5 13t-40.5 34t-26.5 47t-9.5 51zM542 569h257l-78 266q-12 40 -21.5 76.5t-17.5 63.5q-9 32 -15 59h-4q-6 -27 -14 -59l-16 -63l-20 -77z" />
<glyph unicode="&#xc2;" horiz-adv-x="1371" d="M20 165q0 22 5 44.5t18 60.5l269 815q13 40 26 72t27 58t29.5 47t33.5 39q40 40 102 61.5t156 21.5t156 -21.5t102 -61.5q18 -18 33.5 -39t29.5 -47t26.5 -58t26.5 -72l268 -807q13 -38 18 -60.5t5 -42.5q0 -47 -21.5 -82t-54.5 -58t-74 -34.5t-80 -11.5q-47 0 -81.5 14 t-59.5 39q-23 23 -37 55t-25 70l-27 91h-433l-25 -92q-11 -39 -24.5 -73t-36.5 -57q-22 -22 -55.5 -34.5t-77.5 -12.5q-39 0 -78 12t-70.5 34.5t-51 55.5t-19.5 74zM283 1588q0 27 13 48t45 49l187 160q29 25 62 41t80 16t80 -16t62 -40l183 -158q27 -23 38.5 -42.5 t11.5 -46.5t-10.5 -50.5t-28 -41.5t-40 -28.5t-45.5 -10.5q-19 0 -35.5 6t-38.5 18l-188 105l-191 -108q-21 -12 -36 -17t-32 -5q-25 0 -46.5 10.5t-37 27.5t-24.5 38.5t-9 44.5zM542 569h257l-78 266q-12 40 -21.5 76.5t-17.5 63.5q-9 32 -15 59h-4q-6 -27 -14 -59l-16 -63 l-20 -77z" />
<glyph unicode="&#xc3;" horiz-adv-x="1371" d="M20 165q0 22 5 44.5t18 60.5l269 815q13 40 26 72t27 58t29.5 47t33.5 39q40 40 102 61.5t156 21.5t156 -21.5t102 -61.5q18 -18 33.5 -39t29.5 -47t26.5 -58t26.5 -72l268 -807q13 -38 18 -60.5t5 -42.5q0 -47 -21.5 -82t-54.5 -58t-74 -34.5t-80 -11.5q-47 0 -81.5 14 t-59.5 39q-23 23 -37 55t-25 70l-27 91h-433l-25 -92q-11 -39 -24.5 -73t-36.5 -57q-22 -22 -55.5 -34.5t-77.5 -12.5q-39 0 -78 12t-70.5 34.5t-51 55.5t-19.5 74zM243 1612q0 39 21 81t60.5 77t95.5 57.5t126 22.5q52 0 94.5 -15t77.5 -33l65 -32q29 -15 56 -15 q30 0 49 12t35.5 27t34.5 27t47 12q48 0 80 -28.5t32 -92.5q0 -39 -21 -81t-60.5 -77t-95.5 -57.5t-126 -22.5q-53 0 -95 15t-77 33l-65 32q-29 15 -55 15q-31 0 -50 -12t-35.5 -27t-34.5 -27t-47 -12q-48 0 -80 28.5t-32 92.5zM542 569h257l-78 266q-12 40 -21.5 76.5 t-17.5 63.5q-9 32 -15 59h-4q-6 -27 -14 -59l-16 -63l-20 -77z" />
<glyph unicode="&#xc4;" horiz-adv-x="1371" d="M20 165q0 22 5 44.5t18 60.5l269 815q13 40 26 72t27 58t29.5 47t33.5 39q40 40 102 61.5t156 21.5t156 -21.5t102 -61.5q18 -18 33.5 -39t29.5 -47t26.5 -58t26.5 -72l268 -807q13 -38 18 -60.5t5 -42.5q0 -47 -21.5 -82t-54.5 -58t-74 -34.5t-80 -11.5q-47 0 -81.5 14 t-59.5 39q-23 23 -37 55t-25 70l-27 91h-433l-25 -92q-11 -39 -24.5 -73t-36.5 -57q-22 -22 -55.5 -34.5t-77.5 -12.5q-39 0 -78 12t-70.5 34.5t-51 55.5t-19.5 74zM217 1667q0 42 15.5 78.5t42.5 63.5t64.5 42t82.5 15t82 -14.5t63.5 -40.5t41 -62t14.5 -78t-15.5 -78.5 t-42.5 -64t-64.5 -43t-82.5 -15.5t-82 15t-63.5 41t-41 62.5t-14.5 78.5zM542 569h257l-78 266q-12 40 -21.5 76.5t-17.5 63.5q-9 32 -15 59h-4q-6 -27 -14 -59l-16 -63l-20 -77zM721 1667q0 42 15.5 78.5t42.5 63.5t64.5 42t82.5 15t82 -14.5t63.5 -40.5t41 -62t14.5 -78 t-15.5 -78.5t-42.5 -64t-64.5 -43t-82.5 -15.5t-82 15t-63.5 41t-41 62.5t-14.5 78.5z" />
<glyph unicode="&#xc5;" horiz-adv-x="1371" d="M20 165q0 22 5 44.5t18 60.5l269 815q13 40 26 72t27 58t29.5 47t33.5 39q40 40 102 61.5t156 21.5t156 -21.5t102 -61.5q18 -18 33.5 -39t29.5 -47t26.5 -58t26.5 -72l268 -807q13 -38 18 -60.5t5 -42.5q0 -47 -21.5 -82t-54.5 -58t-74 -34.5t-80 -11.5q-47 0 -81.5 14 t-59.5 39q-23 23 -37 55t-25 70l-27 91h-433l-25 -92q-11 -39 -24.5 -73t-36.5 -57q-22 -22 -55.5 -34.5t-77.5 -12.5q-39 0 -78 12t-70.5 34.5t-51 55.5t-19.5 74zM348 1731q0 60 25 110t69 86.5t104 57t130 20.5t128.5 -19t101 -54t66.5 -84t24 -109q0 -61 -25 -111.5 t-69 -87t-104 -56.5t-130 -20t-128.5 19t-101 54t-66.5 84t-24 110zM542 569h257l-78 266q-12 40 -21.5 76.5t-17.5 63.5q-9 32 -15 59h-4q-6 -27 -14 -59l-16 -63l-20 -77zM576 1735q0 -43 27 -68t69 -25t69 25t27 68q0 41 -27 66.5t-69 25.5t-69 -25.5t-27 -66.5z" />
<glyph unicode="&#xc6;" horiz-adv-x="1829" d="M0 174q0 19 3.5 36t10.5 34.5t16 36.5t21 42l455 885q24 47 51 79.5t60.5 52.5t77 29t102.5 9h835q61 0 97 -39t36 -119t-36 -119t-97 -39h-370v-211h309q58 0 93.5 -39.5t35.5 -114.5q0 -77 -35.5 -116.5t-93.5 -39.5h-309v-225h375q60 0 96 -39t36 -119t-36 -119 t-96 -39h-613q-88 0 -137 49t-49 137v72h-377l-44 -93q-21 -45 -37 -74t-36 -49q-24 -24 -58 -38.5t-76 -14.5q-38 0 -75.5 12.5t-67.5 36t-48.5 58t-18.5 78.5zM605 569h233v493h-4z" />
<glyph unicode="&#xc7;" horiz-adv-x="1183" d="M68 637q0 171 48.5 311.5t138 240t216.5 154t284 54.5q63 0 114.5 -8.5t91.5 -22.5t68.5 -31t46.5 -35q31 -31 44 -64.5t13 -78.5q0 -32 -10 -58.5t-28 -45.5t-43 -30t-54 -11q-25 0 -47 9l-46 19q-24 11 -56 20t-78 9q-52 0 -100.5 -22.5t-86 -70t-60 -121.5t-22.5 -177 q0 -92 21.5 -160.5t59 -114.5t89 -68.5t111.5 -22.5q49 0 82.5 8.5t58.5 18.5l47 20q21 9 46 9t47 -10t38.5 -28.5t26 -43.5t9.5 -55q0 -41 -14 -72.5t-43 -60.5q-23 -23 -55 -43t-74.5 -36t-95.5 -25.5t-117 -10.5l-13 -50q43 -3 79.5 -16t62 -35.5t40 -54.5t14.5 -73 q0 -50 -21 -95t-63 -78.5t-105 -53t-147 -19.5q-55 0 -92 8.5t-59.5 23.5t-32 34t-9.5 40q0 36 20 56.5t54 20.5q17 0 34 -2t43 -2q31 0 49.5 4.5t28.5 12t13.5 16t3.5 16.5q0 16 -11 26.5t-42 10.5h-46q-28 0 -38.5 15.5t-2.5 49.5l38 162q-108 24 -194.5 78.5t-147.5 136 t-94 188t-33 234.5z" />
<glyph unicode="&#xc8;" horiz-adv-x="1111" d="M120 186v1006q0 88 49 137t137 49h608q61 0 97 -39t36 -119t-36 -119t-97 -39h-370v-211h309q58 0 93.5 -39.5t35.5 -115.5t-35.5 -115.5t-93.5 -39.5h-309v-225h375q60 0 96 -39t36 -119t-36 -119t-96 -39h-613q-88 0 -137 49t-49 137zM184 1706q0 34 14 70.5t37 66.5 t54 49.5t64 19.5q19 0 36.5 -7.5t39.5 -23.5l261 -186q32 -23 43.5 -42.5t11.5 -45.5q0 -25 -9.5 -51t-26.5 -47t-40.5 -34t-50.5 -13q-17 0 -32 4.5t-29 10.5l-293 124q-41 17 -60.5 41t-19.5 64z" />
<glyph unicode="&#xc9;" horiz-adv-x="1111" d="M120 186v1006q0 88 49 137t137 49h608q61 0 97 -39t36 -119t-36 -119t-97 -39h-370v-211h309q58 0 93.5 -39.5t35.5 -115.5t-35.5 -115.5t-93.5 -39.5h-309v-225h375q60 0 96 -39t36 -119t-36 -119t-96 -39h-613q-88 0 -137 49t-49 137zM403 1607q0 26 11.5 45.5 t43.5 42.5l261 186q22 16 39.5 23.5t36.5 7.5q33 0 64 -19.5t54 -49.5t37 -66.5t14 -70.5q0 -40 -19.5 -64t-60.5 -41l-293 -124q-14 -6 -29 -10.5t-32 -4.5q-27 0 -50.5 13t-40.5 34t-26.5 47t-9.5 51z" />
<glyph unicode="&#xca;" horiz-adv-x="1111" d="M120 186v1006q0 88 49 137t137 49h608q61 0 97 -39t36 -119t-36 -119t-97 -39h-370v-211h309q58 0 93.5 -39.5t35.5 -115.5t-35.5 -115.5t-93.5 -39.5h-309v-225h375q60 0 96 -39t36 -119t-36 -119t-96 -39h-613q-88 0 -137 49t-49 137zM192 1588q0 27 13 48t45 49 l187 160q29 25 62 41t80 16t80 -16t62 -40l183 -158q27 -23 38.5 -42.5t11.5 -46.5t-10.5 -50.5t-28 -41.5t-40 -28.5t-45.5 -10.5q-19 0 -35.5 6t-38.5 18l-188 105l-191 -108q-21 -12 -36 -17t-32 -5q-25 0 -46.5 10.5t-37 27.5t-24.5 38.5t-9 44.5z" />
<glyph unicode="&#xcb;" horiz-adv-x="1111" d="M120 186v1006q0 88 49 137t137 49h608q61 0 97 -39t36 -119t-36 -119t-97 -39h-370v-211h309q58 0 93.5 -39.5t35.5 -115.5t-35.5 -115.5t-93.5 -39.5h-309v-225h375q60 0 96 -39t36 -119t-36 -119t-96 -39h-613q-88 0 -137 49t-49 137zM131 1667q0 42 15.5 78.5 t42.5 63.5t64.5 42t82.5 15t82 -14.5t63.5 -40.5t41 -62t14.5 -78t-15.5 -78.5t-42.5 -64t-64.5 -43t-82.5 -15.5t-82 15t-63.5 41t-41 62.5t-14.5 78.5zM635 1667q0 42 15.5 78.5t42.5 63.5t64.5 42t82.5 15t82 -14.5t63.5 -40.5t41 -62t14.5 -78t-15.5 -78.5t-42.5 -64 t-64.5 -43t-82.5 -15.5t-82 15t-63.5 41t-41 62.5t-14.5 78.5z" />
<glyph unicode="&#xcc;" horiz-adv-x="664" d="M-30 1706q0 34 14 70.5t37 66.5t54 49.5t64 19.5q19 0 36.5 -7.5t39.5 -23.5l261 -186q32 -23 43.5 -42.5t11.5 -45.5q0 -25 -9.5 -51t-26.5 -47t-40.5 -34t-50.5 -13q-17 0 -32 4.5t-29 10.5l-293 124q-41 17 -60.5 41t-19.5 64zM120 178v1022q0 89 52 137.5t160 48.5 q109 0 160.5 -48.5t51.5 -137.5v-1022q0 -89 -52 -137.5t-161 -48.5q-108 0 -159.5 48.5t-51.5 137.5z" />
<glyph unicode="&#xcd;" horiz-adv-x="664" d="M115 1607q0 26 11.5 45.5t43.5 42.5l261 186q22 16 39.5 23.5t36.5 7.5q33 0 64 -19.5t54 -49.5t37 -66.5t14 -70.5q0 -40 -19.5 -64t-60.5 -41l-293 -124q-14 -6 -29 -10.5t-32 -4.5q-27 0 -50.5 13t-40.5 34t-26.5 47t-9.5 51zM120 178v1022q0 89 52 137.5t160 48.5 q109 0 160.5 -48.5t51.5 -137.5v-1022q0 -89 -52 -137.5t-161 -48.5q-108 0 -159.5 48.5t-51.5 137.5z" />
<glyph unicode="&#xce;" horiz-adv-x="664" d="M-48 1588q0 27 13 48t45 49l187 160q29 25 62 41t80 16t80 -16t62 -40l183 -158q27 -23 38.5 -42.5t11.5 -46.5t-10.5 -50.5t-28 -41.5t-40 -28.5t-45.5 -10.5q-19 0 -35.5 6t-38.5 18l-188 105l-191 -108q-21 -12 -36 -17t-32 -5q-25 0 -46.5 10.5t-37 27.5t-24.5 38.5 t-9 44.5zM120 178v1022q0 89 52 137.5t160 48.5q109 0 160.5 -48.5t51.5 -137.5v-1022q0 -89 -52 -137.5t-161 -48.5q-108 0 -159.5 48.5t-51.5 137.5z" />
<glyph unicode="&#xcf;" horiz-adv-x="664" d="M-119 1667q0 42 15.5 78.5t42.5 63.5t64.5 42t82.5 15t82 -14.5t63.5 -40.5t41 -62t14.5 -78t-15.5 -78.5t-42.5 -64t-64.5 -43t-82.5 -15.5t-82 15t-63.5 41t-41 62.5t-14.5 78.5zM120 178v1022q0 89 52 137.5t160 48.5q109 0 160.5 -48.5t51.5 -137.5v-1022 q0 -89 -52 -137.5t-161 -48.5q-108 0 -159.5 48.5t-51.5 137.5zM385 1667q0 42 15.5 78.5t42.5 63.5t64.5 42t82.5 15t82 -14.5t63.5 -40.5t41 -62t14.5 -78t-15.5 -78.5t-42.5 -64t-64.5 -43t-82.5 -15.5t-82 15t-63.5 41t-41 62.5t-14.5 78.5z" />
<glyph unicode="&#xd0;" horiz-adv-x="1515" d="M20 708q0 68 32.5 102t89.5 34h33v348q0 88 49 137t137 49h357q177 0 313 -46.5t228.5 -132.5t140 -208t47.5 -272q0 -167 -50.5 -300t-148 -226t-239 -143t-324.5 -50h-324q-88 0 -137 49t-49 137v378h-33q-57 0 -89.5 36.5t-32.5 107.5zM599 312h102q72 0 129.5 23 t98 70t62.5 120t22 172q0 100 -19.5 170t-58.5 114t-97.5 64.5t-136.5 20.5h-102v-222h108q57 0 89.5 -34.5t32.5 -103.5t-32.5 -105.5t-89.5 -36.5h-108v-252z" />
<glyph unicode="&#xd1;" horiz-adv-x="1536" d="M120 154v950q0 144 70 213t219 69q69 0 117.5 -14t85.5 -41t66 -67.5t58 -93.5l264 -480q20 -37 36.5 -72.5t27.5 -63.5l24 -63l5 2q-6 35 -10 75q-4 35 -8.5 79t-6.5 94l-24 483q-4 75 45 118.5t143 43.5q91 0 137.5 -43t46.5 -119v-950q0 -144 -70 -213t-219 -69 q-69 0 -117.5 14t-85.5 41t-66 67.5t-58 93.5l-264 480q-20 37 -36.5 72t-27.5 64l-24 63l-5 -2q5 -35 10 -75q4 -35 8.5 -79.5t6.5 -93.5l24 -483q4 -75 -45 -118.5t-143 -43.5q-91 0 -137.5 43t-46.5 119zM317 1612q0 39 21 81t60.5 77t95.5 57.5t126 22.5q52 0 94.5 -15 t77.5 -32l65 -33q29 -15 56 -15q30 0 49 12t35.5 27t34.5 27t47 12q48 0 80 -28.5t32 -92.5q0 -39 -21 -81t-60.5 -77t-95.5 -57.5t-126 -22.5q-53 0 -95 15t-77 33l-64 32q-30 15 -56 15q-31 0 -50 -12t-35.5 -27t-34.5 -27t-47 -12q-48 0 -80 28.5t-32 92.5z" />
<glyph unicode="&#xd2;" horiz-adv-x="1552" d="M68 668q0 171 50 307t144 230.5t227 145t300 50.5q161 0 290 -48t219 -138t138 -218.5t48 -288.5q0 -170 -50 -305.5t-144 -230t-227.5 -145t-299.5 -50.5q-161 0 -290 48t-219 137.5t-138 217.5t-48 288zM373 1706q0 34 14 70.5t37 66.5t54 49.5t64 19.5q19 0 36.5 -7.5 t39.5 -23.5l261 -186q32 -23 43.5 -42.5t11.5 -45.5q0 -25 -9.5 -51t-26.5 -47t-40.5 -34t-50.5 -13q-17 0 -32 4.5t-29 10.5l-293 124q-41 17 -60.5 41t-19.5 64zM502 690q0 -99 22 -172t59.5 -121t87.5 -71.5t107 -23.5q56 0 105.5 23t86.5 70.5t58.5 120t21.5 170.5 q0 99 -22 172.5t-59.5 122t-87.5 72t-107 23.5q-56 0 -105.5 -23t-86.5 -71t-58.5 -120.5t-21.5 -171.5z" />
<glyph unicode="&#xd3;" horiz-adv-x="1552" d="M68 668q0 171 50 307t144 230.5t227 145t300 50.5q161 0 290 -48t219 -138t138 -218.5t48 -288.5q0 -170 -50 -305.5t-144 -230t-227.5 -145t-299.5 -50.5q-161 0 -290 48t-219 137.5t-138 217.5t-48 288zM502 690q0 -99 22 -172t59.5 -121t87.5 -71.5t107 -23.5 q56 0 105.5 23t86.5 70.5t58.5 120t21.5 170.5q0 99 -22 172.5t-59.5 122t-87.5 72t-107 23.5q-56 0 -105.5 -23t-86.5 -71t-58.5 -120.5t-21.5 -171.5zM595 1607q0 26 11.5 45.5t43.5 42.5l261 186q22 16 39.5 23.5t36.5 7.5q33 0 64 -19.5t54 -49.5t37 -66.5t14 -70.5 q0 -40 -19.5 -64t-60.5 -41l-293 -124q-14 -6 -29 -10.5t-32 -4.5q-27 0 -50.5 13t-40.5 34t-26.5 47t-9.5 51z" />
<glyph unicode="&#xd4;" horiz-adv-x="1552" d="M68 668q0 171 50 307t144 230.5t227 145t300 50.5q161 0 290 -48t219 -138t138 -218.5t48 -288.5q0 -170 -50 -305.5t-144 -230t-227.5 -145t-299.5 -50.5q-161 0 -290 48t-219 137.5t-138 217.5t-48 288zM391 1588q0 27 13 48t45 49l187 160q29 25 62 41t80 16t80 -16 t62 -40l183 -158q27 -23 38.5 -42.5t11.5 -46.5t-10.5 -50.5t-28 -41.5t-40 -28.5t-45.5 -10.5q-19 0 -35.5 6t-38.5 18l-188 105l-191 -108q-21 -12 -36 -17t-32 -5q-25 0 -46.5 10.5t-37 27.5t-24.5 38.5t-9 44.5zM502 690q0 -99 22 -172t59.5 -121t87.5 -71.5t107 -23.5 q56 0 105.5 23t86.5 70.5t58.5 120t21.5 170.5q0 99 -22 172.5t-59.5 122t-87.5 72t-107 23.5q-56 0 -105.5 -23t-86.5 -71t-58.5 -120.5t-21.5 -171.5z" />
<glyph unicode="&#xd5;" horiz-adv-x="1552" d="M68 668q0 171 50 307t144 230.5t227 145t300 50.5q161 0 290 -48t219 -138t138 -218.5t48 -288.5q0 -170 -50 -305.5t-144 -230t-227.5 -145t-299.5 -50.5q-161 0 -290 48t-219 137.5t-138 217.5t-48 288zM337 1612q0 39 21 81t60.5 77t95.5 57.5t126 22.5q52 0 94.5 -15 t77.5 -32l65 -33q29 -15 56 -15q30 0 49 12t35.5 27t34.5 27t47 12q48 0 80 -28.5t32 -92.5q0 -39 -21 -81t-60.5 -77t-95.5 -57.5t-126 -22.5q-53 0 -95 15t-77 33l-65 32q-29 15 -55 15q-31 0 -50 -12t-35.5 -27t-34.5 -27t-47 -12q-48 0 -80 28.5t-32 92.5zM502 690 q0 -99 22 -172t59.5 -121t87.5 -71.5t107 -23.5q56 0 105.5 23t86.5 70.5t58.5 120t21.5 170.5q0 99 -22 172.5t-59.5 122t-87.5 72t-107 23.5q-56 0 -105.5 -23t-86.5 -71t-58.5 -120.5t-21.5 -171.5z" />
<glyph unicode="&#xd6;" horiz-adv-x="1552" d="M68 668q0 171 50 307t144 230.5t227 145t300 50.5q161 0 290 -48t219 -138t138 -218.5t48 -288.5q0 -170 -50 -305.5t-144 -230t-227.5 -145t-299.5 -50.5q-161 0 -290 48t-219 137.5t-138 217.5t-48 288zM324 1667q0 42 15.5 78.5t42.5 63.5t64.5 42t82.5 15t82 -14.5 t63.5 -40.5t41 -62t14.5 -78t-15.5 -78.5t-42.5 -64t-64.5 -43t-82.5 -15.5t-82 15t-63.5 41t-41 62.5t-14.5 78.5zM502 690q0 -99 22 -172t59.5 -121t87.5 -71.5t107 -23.5q56 0 105.5 23t86.5 70.5t58.5 120t21.5 170.5q0 99 -22 172.5t-59.5 122t-87.5 72t-107 23.5 q-56 0 -105.5 -23t-86.5 -71t-58.5 -120.5t-21.5 -171.5zM828 1667q0 42 15.5 78.5t42.5 63.5t64.5 42t82.5 15t82 -14.5t63.5 -40.5t41 -62t14.5 -78t-15.5 -78.5t-42.5 -64t-64.5 -43t-82.5 -15.5t-82 15t-63.5 41t-41 62.5t-14.5 78.5z" />
<glyph unicode="&#xd7;" d="M162 849q0 32 13.5 61t36 50.5t50.5 34.5t57 13q35 0 60 -16.5t46 -37.5l165 -166l157 157q31 31 55 44.5t55 13.5q29 0 55.5 -12t47 -32t32.5 -46.5t12 -55.5q0 -31 -14 -55.5t-40 -50.5l-162 -162l167 -167q23 -23 37 -47.5t14 -55.5q0 -32 -13.5 -61t-36 -50.5 t-50.5 -34.5t-57 -13q-35 0 -60 16.5t-46 37.5l-165 166l-157 -157q-31 -31 -55 -44.5t-55 -13.5q-29 0 -55.5 12t-47 32t-32.5 46.5t-12 55.5q0 31 14 56t40 50l163 161l-168 168q-23 23 -37 47.5t-14 55.5z" />
<glyph unicode="&#xd8;" horiz-adv-x="1592" d="M68 668q0 171 50.5 307t146 230.5t233 145t311.5 50.5q56 0 106 -5t95 -15l63 113q20 36 31.5 53t23.5 29q31 31 84 31q30 0 60 -11t54 -30t38.5 -45t14.5 -57q0 -25 -10.5 -47.5t-30.5 -58.5l-54 -98q60 -45 105 -105t75 -131t45 -151t15 -165q0 -170 -50.5 -305.5 t-146 -230t-233 -145t-311.5 -50.5q-54 0 -104.5 5t-95.5 15l-63 -113q-20 -36 -31.5 -53t-23.5 -29q-31 -31 -84 -31q-30 0 -60 11t-54 30t-38.5 45t-14.5 57q0 25 10.5 47.5t30.5 58.5l54 98q-56 43 -101 99.5t-76 125t-47.5 150t-16.5 175.5zM472 690q0 -70 10.5 -126 t27.5 -98l347 625q-12 2 -27.5 3.5t-35.5 1.5q-71 0 -130.5 -25t-102 -75.5t-66 -126.5t-23.5 -179zM737 287q14 -2 28.5 -3.5t32.5 -1.5q71 0 130.5 25t102 75t66 126t23.5 178q0 74 -9 127.5t-26 100.5z" />
<glyph unicode="&#xd9;" horiz-adv-x="1432" d="M110 528v672q0 89 52 137.5t160 48.5q109 0 160.5 -48.5t51.5 -137.5v-622q0 -72 14 -123t39.5 -84t60.5 -48.5t76 -15.5q39 0 71 13.5t55 42t35.5 71.5t12.5 103v663q0 89 51.5 137.5t160.5 48.5q108 0 160 -48.5t52 -137.5v-631q0 -144 -39 -254.5t-116 -185.5 t-192 -113.5t-267 -38.5q-150 0 -262 36.5t-187 106.5t-112 173t-37 235zM279 1706q0 34 14 70.5t37 66.5t54 49.5t64 19.5q19 0 36.5 -7.5t39.5 -23.5l261 -186q32 -23 43.5 -42.5t11.5 -45.5q0 -25 -9.5 -51t-26.5 -47t-40.5 -34t-50.5 -13q-17 0 -32 4.5t-29 10.5 l-293 124q-41 17 -60.5 41t-19.5 64z" />
<glyph unicode="&#xda;" horiz-adv-x="1432" d="M110 528v672q0 89 52 137.5t160 48.5q109 0 160.5 -48.5t51.5 -137.5v-622q0 -72 14 -123t39.5 -84t60.5 -48.5t76 -15.5q39 0 71 13.5t55 42t35.5 71.5t12.5 103v663q0 89 51.5 137.5t160.5 48.5q108 0 160 -48.5t52 -137.5v-631q0 -144 -39 -254.5t-116 -185.5 t-192 -113.5t-267 -38.5q-150 0 -262 36.5t-187 106.5t-112 173t-37 235zM577 1607q0 26 11.5 45.5t43.5 42.5l261 186q22 16 39.5 23.5t36.5 7.5q33 0 64 -19.5t54 -49.5t37 -66.5t14 -70.5q0 -40 -19.5 -64t-60.5 -41l-293 -124q-14 -6 -29 -10.5t-32 -4.5q-27 0 -50.5 13 t-40.5 34t-26.5 47t-9.5 51z" />
<glyph unicode="&#xdb;" horiz-adv-x="1432" d="M110 528v672q0 89 52 137.5t160 48.5q109 0 160.5 -48.5t51.5 -137.5v-622q0 -72 14 -123t39.5 -84t60.5 -48.5t76 -15.5q39 0 71 13.5t55 42t35.5 71.5t12.5 103v663q0 89 51.5 137.5t160.5 48.5q108 0 160 -48.5t52 -137.5v-631q0 -144 -39 -254.5t-116 -185.5 t-192 -113.5t-267 -38.5q-150 0 -262 36.5t-187 106.5t-112 173t-37 235zM336 1588q0 27 13 48t45 49l187 160q29 25 62 41t80 16t80 -16t62 -40l183 -158q27 -23 38.5 -42.5t11.5 -46.5t-10.5 -50.5t-28 -41.5t-40 -28.5t-45.5 -10.5q-19 0 -35.5 6t-38.5 18l-188 105 l-191 -108q-21 -12 -36 -17t-32 -5q-25 0 -46.5 10.5t-37 27.5t-24.5 38.5t-9 44.5z" />
<glyph unicode="&#xdc;" horiz-adv-x="1432" d="M110 528v672q0 89 52 137.5t160 48.5q109 0 160.5 -48.5t51.5 -137.5v-622q0 -72 14 -123t39.5 -84t60.5 -48.5t76 -15.5q39 0 71 13.5t55 42t35.5 71.5t12.5 103v663q0 89 51.5 137.5t160.5 48.5q108 0 160 -48.5t52 -137.5v-631q0 -144 -39 -254.5t-116 -185.5 t-192 -113.5t-267 -38.5q-150 0 -262 36.5t-187 106.5t-112 173t-37 235zM260 1667q0 42 15.5 78.5t42.5 63.5t64.5 42t82.5 15t82 -14.5t63.5 -40.5t41 -62t14.5 -78t-15.5 -78.5t-42.5 -64t-64.5 -43t-82.5 -15.5t-82 15t-63.5 41t-41 62.5t-14.5 78.5zM764 1667 q0 42 15.5 78.5t42.5 63.5t64.5 42t82.5 15t82 -14.5t63.5 -40.5t41 -62t14.5 -78t-15.5 -78.5t-42.5 -64t-64.5 -43t-82.5 -15.5t-82 15t-63.5 41t-41 62.5t-14.5 78.5z" />
<glyph unicode="&#xdd;" horiz-adv-x="1213" d="M12 1173q0 50 22.5 90t57.5 68t77 43t81 15q45 0 74.5 -14.5t49.5 -34.5q18 -18 33.5 -43.5t35.5 -63.5l135 -266q9 -18 17 -37l15 -33l14 -35h4q5 17 11 35q5 16 12.5 35t16.5 37l124 265q18 38 32 63t34 45q23 23 54 35t66 12q41 0 81 -14.5t71.5 -40.5t51 -61.5 t19.5 -77.5q0 -38 -15 -69.5t-36 -67.5l-338 -585v-295q0 -89 -52 -137.5t-161 -48.5q-108 0 -159.5 48.5t-51.5 137.5v295l-322 553l-20 37q-10 18 -17.5 36t-12 36t-4.5 38zM453 1607q0 26 11.5 45.5t43.5 42.5l261 186q22 16 39.5 23.5t36.5 7.5q33 0 64 -19.5t54 -49.5 t37 -66.5t14 -70.5q0 -40 -19.5 -64t-60.5 -41l-293 -124q-14 -6 -29 -10.5t-32 -4.5q-27 0 -50.5 13t-40.5 34t-26.5 47t-9.5 51z" />
<glyph unicode="&#xde;" horiz-adv-x="1241" d="M120 178v1022q0 89 50.5 137.5t159.5 48.5q54 0 94 -12t65.5 -34t38 -52.5t12.5 -67.5v-73h78q150 0 260 -32.5t182 -91t106.5 -139t34.5 -177.5q0 -112 -34.5 -200t-107.5 -149.5t-186.5 -94t-271.5 -32.5h-61v-73q0 -37 -12.5 -67.5t-38 -52.5t-65.5 -34t-94 -12 q-109 0 -159.5 48.5t-50.5 137.5zM540 535h78q75 0 116 40.5t41 114.5q0 75 -40 112t-132 37h-63v-304z" />
<glyph unicode="&#xdf;" horiz-adv-x="1425" d="M104 172v821q0 119 36 212t114 157.5t200 98.5t294 34q115 0 201.5 -27t144.5 -73t87 -107t29 -128q0 -56 -14.5 -99.5t-36 -78.5t-46.5 -63l-47 -52q-21 -24 -35.5 -46t-14.5 -46q0 -19 16 -34t42 -29t59 -29.5t67.5 -35t67.5 -45.5t59 -61.5t42 -82.5t16 -109 q0 -81 -29 -149t-88 -116.5t-148 -76t-210 -27.5q-53 0 -94.5 6.5t-74 17t-55.5 24.5t-39 30q-23 23 -35 51t-12 68q0 27 8.5 49t24.5 38.5t37 25.5t47 9q24 0 43.5 -5t39 -11.5t42 -11.5t52.5 -5q52 0 69.5 12t17.5 31t-16 32t-42 24.5t-59 23.5t-67.5 28.5t-67.5 39 t-59 56t-42 79.5t-16 108q0 49 13 90t32.5 75t42.5 63l43 56q19 27 32 52t13 52q0 46 -29.5 74t-86.5 28q-72 0 -113 -44t-41 -133v-841q0 -87 -50.5 -133.5t-156.5 -46.5t-156.5 47t-50.5 133z" />
<glyph unicode="&#xe0;" horiz-adv-x="1210" d="M61 328q0 75 37 132.5t102.5 96t156 58.5t198.5 20q29 0 54 -2t45 -4q23 -3 42 -6v38q0 24 -7 41.5t-25.5 29.5t-50.5 18t-81 6q-65 0 -109.5 -9t-77.5 -20l-59 -20q-26 -9 -53 -9q-50 0 -83 33t-33 96q0 35 11 60.5t34 48.5q21 21 61 42t98.5 38t135 28t170.5 11 q238 0 358.5 -93t120.5 -276v-258q0 -71 8 -114.5t17 -73.5l18 -54q8 -23 8 -53t-11.5 -56.5t-34.5 -46t-58 -31t-82 -11.5q-44 0 -78.5 10.5t-61 28t-45 40t-30.5 47.5h-3q-27 -38 -71 -67q-38 -26 -96.5 -46.5t-143.5 -20.5q-88 0 -158.5 26t-120 72.5t-76 110.5 t-26.5 139zM247 1401q0 33 15 66t40 59.5t56.5 43t64.5 16.5q15 0 27.5 -3.5t24.5 -11t25 -18.5t29 -27l183 -185q21 -21 34 -38.5t13 -44.5q0 -23 -10 -46.5t-28 -42.5t-42 -31t-52 -12q-14 0 -32 5.5t-41 19.5l-223 139l-31 20q-15 10 -27 23t-19 29.5t-7 38.5zM477 344 q0 -17 6 -31t17.5 -24t28.5 -15.5t40 -5.5q32 0 55.5 9.5t39.5 21.5q18 13 32 31v76q-12 3 -28 6q-14 2 -33.5 4t-42.5 2q-56 0 -85.5 -18.5t-29.5 -55.5z" />
<glyph unicode="&#xe1;" horiz-adv-x="1210" d="M61 328q0 75 37 132.5t102.5 96t156 58.5t198.5 20q29 0 54 -2t45 -4q23 -3 42 -6v38q0 24 -7 41.5t-25.5 29.5t-50.5 18t-81 6q-65 0 -109.5 -9t-77.5 -20l-59 -20q-26 -9 -53 -9q-50 0 -83 33t-33 96q0 35 11 60.5t34 48.5q21 21 61 42t98.5 38t135 28t170.5 11 q238 0 358.5 -93t120.5 -276v-258q0 -71 8 -114.5t17 -73.5l18 -54q8 -23 8 -53t-11.5 -56.5t-34.5 -46t-58 -31t-82 -11.5q-44 0 -78.5 10.5t-61 28t-45 40t-30.5 47.5h-3q-27 -38 -71 -67q-38 -26 -96.5 -46.5t-143.5 -20.5q-88 0 -158.5 26t-120 72.5t-76 110.5 t-26.5 139zM439 1258q0 27 13 44.5t34 38.5l183 185q31 31 53.5 45.5t52.5 14.5q33 0 64.5 -16.5t56.5 -43t40 -59.5t15 -66q0 -22 -7 -38.5t-19 -29.5t-27 -23l-31 -20l-223 -139q-23 -14 -41 -19.5t-32 -5.5q-28 0 -52 12t-42 31t-28 42.5t-10 46.5zM477 344q0 -17 6 -31 t17.5 -24t28.5 -15.5t40 -5.5q32 0 55.5 9.5t39.5 21.5q18 13 32 31v76q-12 3 -28 6q-14 2 -33.5 4t-42.5 2q-56 0 -85.5 -18.5t-29.5 -55.5z" />
<glyph unicode="&#xe2;" horiz-adv-x="1210" d="M61 328q0 75 37 132.5t102.5 96t156 58.5t198.5 20q29 0 54 -2t45 -4q23 -3 42 -6v38q0 24 -7 41.5t-25.5 29.5t-50.5 18t-81 6q-65 0 -109.5 -9t-77.5 -20l-59 -20q-26 -9 -53 -9q-50 0 -83 33t-33 96q0 35 11 60.5t34 48.5q21 21 61 42t98.5 38t135 28t170.5 11 q238 0 358.5 -93t120.5 -276v-258q0 -71 8 -114.5t17 -73.5l18 -54q8 -23 8 -53t-11.5 -56.5t-34.5 -46t-58 -31t-82 -11.5q-44 0 -78.5 10.5t-61 28t-45 40t-30.5 47.5h-3q-27 -38 -71 -67q-38 -26 -96.5 -46.5t-143.5 -20.5q-88 0 -158.5 26t-120 72.5t-76 110.5 t-26.5 139zM253 1243q0 22 10.5 40.5t33.5 41.5l193 183q27 26 56.5 40.5t67.5 14.5t67.5 -14.5t57.5 -39.5l187 -170q29 -26 38.5 -44.5t9.5 -39.5q0 -25 -10.5 -48t-28.5 -41t-41 -29t-48 -11q-19 0 -35 6t-42 23l-160 107l-165 -107q-23 -15 -40.5 -22.5t-34.5 -7.5 q-24 0 -45 10t-37 26.5t-25 37.5t-9 44zM477 344q0 -17 6 -31t17.5 -24t28.5 -15.5t40 -5.5q32 0 55.5 9.5t39.5 21.5q18 13 32 31v76q-12 3 -28 6q-14 2 -33.5 4t-42.5 2q-56 0 -85.5 -18.5t-29.5 -55.5z" />
<glyph unicode="&#xe3;" horiz-adv-x="1210" d="M61 328q0 75 37 132.5t102.5 96t156 58.5t198.5 20q29 0 54 -2t45 -4q23 -3 42 -6v38q0 24 -7 41.5t-25.5 29.5t-50.5 18t-81 6q-65 0 -109.5 -9t-77.5 -20l-59 -20q-26 -9 -53 -9q-50 0 -83 33t-33 96q0 35 11 60.5t34 48.5q21 21 61 42t98.5 38t135 28t170.5 11 q238 0 358.5 -93t120.5 -276v-258q0 -71 8 -114.5t17 -73.5l18 -54q8 -23 8 -53t-11.5 -56.5t-34.5 -46t-58 -31t-82 -11.5q-44 0 -78.5 10.5t-61 28t-45 40t-30.5 47.5h-3q-27 -38 -71 -67q-38 -26 -96.5 -46.5t-143.5 -20.5q-88 0 -158.5 26t-120 72.5t-76 110.5 t-26.5 139zM182 1267q0 43 22.5 86t63 77t96.5 55t122 21q55 0 93.5 -14.5t68.5 -32.5l54 -33q25 -14 52 -14q26 0 44 13t35 28t36.5 28t49.5 13q23 0 44.5 -7.5t38 -23t26 -38.5t9.5 -54q0 -44 -22.5 -86.5t-63 -76.5t-96.5 -55t-122 -21q-55 0 -93.5 14.5t-68.5 32.5 l-54 33q-25 14 -52 14q-26 0 -44 -13t-35 -28t-36.5 -28t-49.5 -13q-23 0 -44.5 7.5t-38 23t-26 38.5t-9.5 54zM477 344q0 -17 6 -31t17.5 -24t28.5 -15.5t40 -5.5q32 0 55.5 9.5t39.5 21.5q18 13 32 31v76q-12 3 -28 6q-14 2 -33.5 4t-42.5 2q-56 0 -85.5 -18.5 t-29.5 -55.5z" />
<glyph unicode="&#xe4;" horiz-adv-x="1210" d="M61 328q0 75 37 132.5t102.5 96t156 58.5t198.5 20q29 0 54 -2t45 -4q23 -3 42 -6v38q0 24 -7 41.5t-25.5 29.5t-50.5 18t-81 6q-65 0 -109.5 -9t-77.5 -20l-59 -20q-26 -9 -53 -9q-50 0 -83 33t-33 96q0 35 11 60.5t34 48.5q21 21 61 42t98.5 38t135 28t170.5 11 q238 0 358.5 -93t120.5 -276v-258q0 -71 8 -114.5t17 -73.5l18 -54q8 -23 8 -53t-11.5 -56.5t-34.5 -46t-58 -31t-82 -11.5q-44 0 -78.5 10.5t-61 28t-45 40t-30.5 47.5h-3q-27 -38 -71 -67q-38 -26 -96.5 -46.5t-143.5 -20.5q-88 0 -158.5 26t-120 72.5t-76 110.5 t-26.5 139zM169 1311q0 41 15 77t42 62.5t64 41.5t81 15t80.5 -14.5t63 -40t41 -61t14.5 -76.5q0 -42 -15.5 -78t-42.5 -62.5t-64 -41.5t-81 -15t-80 14.5t-62.5 40.5t-41 61t-14.5 77zM477 344q0 -17 6 -31t17.5 -24t28.5 -15.5t40 -5.5q32 0 55.5 9.5t39.5 21.5 q18 13 32 31v76q-12 3 -28 6q-14 2 -33.5 4t-42.5 2q-56 0 -85.5 -18.5t-29.5 -55.5zM648 1311q0 41 15.5 77t42.5 62.5t64 41.5t81 15q43 0 79.5 -14.5t63 -40t41 -61t14.5 -76.5q0 -42 -15.5 -78t-42.5 -62.5t-64 -41.5t-80 -15q-44 0 -80.5 14.5t-63 40.5t-41 61 t-14.5 77z" />
<glyph unicode="&#xe5;" horiz-adv-x="1210" d="M61 328q0 75 37 132.5t102.5 96t156 58.5t198.5 20q29 0 54 -2t45 -4q23 -3 42 -6v38q0 24 -7 41.5t-25.5 29.5t-50.5 18t-81 6q-65 0 -109.5 -9t-77.5 -20l-59 -20q-26 -9 -53 -9q-50 0 -83 33t-33 96q0 35 11 60.5t34 48.5q21 21 61 42t98.5 38t135 28t170.5 11 q238 0 358.5 -93t120.5 -276v-258q0 -71 8 -114.5t17 -73.5l18 -54q8 -23 8 -53t-11.5 -56.5t-34.5 -46t-58 -31t-82 -11.5q-44 0 -78.5 10.5t-61 28t-45 40t-30.5 47.5h-3q-27 -38 -71 -67q-38 -26 -96.5 -46.5t-143.5 -20.5q-88 0 -158.5 26t-120 72.5t-76 110.5 t-26.5 139zM313 1374q0 60 24 109.5t67 85.5t101.5 55.5t126.5 19.5t125 -18.5t98.5 -52.5t64.5 -82.5t23 -108.5q0 -59 -24.5 -108.5t-67 -85.5t-101 -56t-126.5 -20t-125.5 19t-98.5 53.5t-64 82.5t-23 107zM477 344q0 -17 6 -31t17.5 -24t28.5 -15.5t40 -5.5 q32 0 55.5 9.5t39.5 21.5q18 13 32 31v76q-12 3 -28 6q-14 2 -33.5 4t-42.5 2q-56 0 -85.5 -18.5t-29.5 -55.5zM540 1378q0 -39 24.5 -63.5t63.5 -24.5t63.5 24.5t24.5 63.5q0 42 -24.5 65t-63.5 23t-63.5 -23t-24.5 -65z" />
<glyph unicode="&#xe6;" horiz-adv-x="1770" d="M61 328q0 75 37 132.5t102.5 96t156 58.5t198.5 20q29 0 54 -2t45 -4q23 -3 42 -6v38q0 24 -7 41.5t-25.5 29.5t-50.5 18t-81 6q-65 0 -109.5 -9t-77.5 -20l-59 -20q-26 -9 -53 -9q-50 0 -83 33t-33 96q0 35 11 60.5t34 48.5q21 21 61 42t98.5 38t135 28t170.5 11 q59 0 106 -5.5t84.5 -16t67 -26t52.5 -34.5q26 19 59 34.5t72 26t83 16t92 5.5q110 0 196.5 -31t146 -88.5t91 -139t31.5 -182.5q0 -98 -47 -147t-130 -49h-444v-1q10 -33 28.5 -57t46 -40t65 -24t85.5 -8q42 0 75.5 5.5t60.5 12.5l50 12q23 5 44 5q28 0 50 -10t37 -27 t23 -39.5t8 -47.5q0 -38 -11.5 -64.5t-35.5 -50.5q-18 -18 -50.5 -37t-79.5 -34.5t-109 -25.5t-140 -10q-73 0 -134 10t-112 28.5t-93 44.5t-76 58q-29 -29 -66 -54.5t-83 -44t-100 -29t-118 -10.5q-92 0 -164.5 26t-122.5 72.5t-77 110.5t-27 139zM477 344q0 -17 6 -31 t17.5 -24t28.5 -15.5t40 -5.5q28 0 52 8t41 19q20 11 37 27l-6 27q-2 12 -5 27.5t-5 32.5q-11 2 -25 4q-12 2 -29 3.5t-37 1.5q-56 0 -85.5 -18.5t-29.5 -55.5zM1084 635h243q-8 77 -36 110t-81 33q-22 0 -42 -6.5t-36 -23t-28.5 -44t-19.5 -69.5z" />
<glyph unicode="&#xe7;" horiz-adv-x="967" d="M62 475q0 133 40.5 240t114.5 182t179 115.5t234 40.5q48 0 86 -6.5t68 -17.5t51.5 -24.5t35.5 -27.5q26 -26 38 -55.5t12 -75.5q0 -30 -9 -55t-24.5 -43t-37 -28t-46.5 -10t-42 5.5t-33.5 12.5t-36.5 12.5t-50 5.5q-32 0 -61 -14t-51 -43t-35 -73t-13 -104 q0 -55 13.5 -96.5t37.5 -70t56.5 -43t70.5 -14.5q31 0 52 5.5t38 12.5l32 12q15 5 33 5q27 0 47.5 -10.5t35 -28.5t22 -41t7.5 -47q0 -38 -11.5 -68t-36.5 -55q-18 -18 -43.5 -34.5t-59.5 -29.5t-77.5 -21.5t-96.5 -9.5l-12 -45q43 -3 79.5 -16t62 -35.5t40 -54.5t14.5 -73 q0 -50 -21 -95t-63 -78.5t-105 -53t-147 -19.5q-55 0 -92 8.5t-59.5 23.5t-32 34t-9.5 40q0 36 20 56.5t54 20.5q17 0 34 -2t43 -2q31 0 49.5 4.5t28.5 12t13.5 16t3.5 16.5q0 16 -11 26.5t-42 10.5h-46q-28 0 -38.5 15.5t-2.5 49.5l38 161q-81 22 -144 64.5t-106.5 103.5 t-66 138.5t-22.5 169.5z" />
<glyph unicode="&#xe8;" horiz-adv-x="1153" d="M62 481q0 132 40 238t113.5 181t178 115t232.5 40q110 0 196.5 -31t146 -88.5t91 -139t31.5 -182.5q0 -98 -47 -147t-130 -49h-444v-1q10 -33 28.5 -57t46 -40t65 -24t85.5 -8q42 0 75.5 5.5t60.5 11.5l50 12q23 6 44 6q28 0 50 -10t37 -27t23 -39.5t8 -47.5 q0 -38 -11.5 -64.5t-35.5 -50.5q-18 -18 -50.5 -37t-79.5 -34.5t-109 -25.5t-140 -10q-134 0 -237.5 35.5t-174 101.5t-107 159t-36.5 208zM233 1401q0 33 15 66t40 59.5t56.5 43t64.5 16.5q15 0 27.5 -3.5t24.5 -11t25 -18.5t29 -27l183 -185q21 -21 34 -38.5t13 -44.5 q0 -23 -10 -46.5t-28 -42.5t-42 -31t-52 -12q-14 0 -32 5.5t-41 19.5l-223 139l-31 20q-15 10 -27 23t-19 29.5t-7 38.5zM467 635h243q-8 77 -36 110t-81 33q-22 0 -42 -6.5t-36 -23t-28.5 -44t-19.5 -69.5z" />
<glyph unicode="&#xe9;" horiz-adv-x="1153" d="M62 481q0 132 40 238t113.5 181t178 115t232.5 40q110 0 196.5 -31t146 -88.5t91 -139t31.5 -182.5q0 -98 -47 -147t-130 -49h-444v-1q10 -33 28.5 -57t46 -40t65 -24t85.5 -8q42 0 75.5 5.5t60.5 11.5l50 12q23 6 44 6q28 0 50 -10t37 -27t23 -39.5t8 -47.5 q0 -38 -11.5 -64.5t-35.5 -50.5q-18 -18 -50.5 -37t-79.5 -34.5t-109 -25.5t-140 -10q-134 0 -237.5 35.5t-174 101.5t-107 159t-36.5 208zM421 1258q0 27 13 44.5t34 38.5l183 185q31 31 53.5 45.5t52.5 14.5q33 0 64.5 -16.5t56.5 -43t40 -59.5t15 -66q0 -22 -7 -38.5 t-19 -29.5t-27 -23l-31 -20l-223 -139q-23 -14 -41 -19.5t-32 -5.5q-28 0 -52 12t-42 31t-28 42.5t-10 46.5zM467 635h243q-8 77 -36 110t-81 33q-22 0 -42 -6.5t-36 -23t-28.5 -44t-19.5 -69.5z" />
<glyph unicode="&#xea;" horiz-adv-x="1153" d="M62 481q0 132 40 238t113.5 181t178 115t232.5 40q110 0 196.5 -31t146 -88.5t91 -139t31.5 -182.5q0 -98 -47 -147t-130 -49h-444v-1q10 -33 28.5 -57t46 -40t65 -24t85.5 -8q42 0 75.5 5.5t60.5 11.5l50 12q23 6 44 6q28 0 50 -10t37 -27t23 -39.5t8 -47.5 q0 -38 -11.5 -64.5t-35.5 -50.5q-18 -18 -50.5 -37t-79.5 -34.5t-109 -25.5t-140 -10q-134 0 -237.5 35.5t-174 101.5t-107 159t-36.5 208zM229 1243q0 22 10.5 40.5t33.5 41.5l193 183q27 26 56.5 40.5t67.5 14.5t67.5 -14.5t57.5 -39.5l187 -170q29 -26 38.5 -44.5 t9.5 -39.5q0 -25 -10.5 -48t-28.5 -41t-41 -29t-48 -11q-19 0 -35 6t-42 23l-160 107l-165 -107q-23 -15 -40.5 -22.5t-34.5 -7.5q-24 0 -45 10t-37 26.5t-25 37.5t-9 44zM467 635h243q-8 77 -36 110t-81 33q-22 0 -42 -6.5t-36 -23t-28.5 -44t-19.5 -69.5z" />
<glyph unicode="&#xeb;" horiz-adv-x="1153" d="M62 481q0 132 40 238t113.5 181t178 115t232.5 40q110 0 196.5 -31t146 -88.5t91 -139t31.5 -182.5q0 -98 -47 -147t-130 -49h-444v-1q10 -33 28.5 -57t46 -40t65 -24t85.5 -8q42 0 75.5 5.5t60.5 11.5l50 12q23 6 44 6q28 0 50 -10t37 -27t23 -39.5t8 -47.5 q0 -38 -11.5 -64.5t-35.5 -50.5q-18 -18 -50.5 -37t-79.5 -34.5t-109 -25.5t-140 -10q-134 0 -237.5 35.5t-174 101.5t-107 159t-36.5 208zM150 1311q0 41 15 77t42 62.5t64 41.5t81 15t80.5 -14.5t63 -40t41 -61t14.5 -76.5q0 -42 -15.5 -78t-42.5 -62.5t-64 -41.5t-81 -15 t-80 14.5t-62.5 40.5t-41 61t-14.5 77zM467 635h243q-8 77 -36 110t-81 33q-22 0 -42 -6.5t-36 -23t-28.5 -44t-19.5 -69.5zM629 1311q0 41 15.5 77t42.5 62.5t64 41.5t81 15q43 0 79.5 -14.5t63 -40t41 -61t14.5 -76.5q0 -42 -15.5 -78t-42.5 -62.5t-64 -41.5t-80 -15 q-44 0 -80.5 14.5t-63 40.5t-41 61t-14.5 77z" />
<glyph unicode="&#xec;" horiz-adv-x="622" d="M35 1401q0 33 15 66t40 59.5t56.5 43t64.5 16.5q15 0 27.5 -3.5t24.5 -11t25 -18.5t29 -27l183 -185q21 -21 34 -38.5t13 -44.5q0 -23 -10 -46.5t-28 -42.5t-42 -31t-52 -12q-14 0 -32 5.5t-41 19.5l-223 139l-31 20q-15 10 -27 23t-19 29.5t-7 38.5zM104 172v688 q0 86 50.5 133t156.5 47t156.5 -47t50.5 -133v-688q0 -86 -50.5 -133t-156.5 -47t-156.5 47t-50.5 133z" />
<glyph unicode="&#xed;" horiz-adv-x="622" d="M80 1258q0 27 13 44.5t34 38.5l183 185q31 31 53.5 45.5t52.5 14.5q33 0 64.5 -16.5t56.5 -43t40 -59.5t15 -66q0 -22 -7 -38.5t-19 -29.5t-27 -23l-31 -20l-223 -139q-23 -14 -41 -19.5t-32 -5.5q-28 0 -52 12t-42 31t-28 42.5t-10 46.5zM104 172v688q0 86 50.5 133 t156.5 47t156.5 -47t50.5 -133v-688q0 -86 -50.5 -133t-156.5 -47t-156.5 47t-50.5 133z" />
<glyph unicode="&#xee;" horiz-adv-x="622" d="M-26 1240q0 23 10 42t33 42l153 163q34 36 65.5 57t80.5 21q24 0 44 -5.5t37.5 -15.5t34 -24.5t34.5 -32.5l156 -159q21 -21 29.5 -39t8.5 -37q0 -25 -11 -48t-29 -40t-41.5 -27.5t-48.5 -10.5q-20 0 -39.5 8t-42.5 26l-136 102l-144 -104q-23 -17 -40.5 -24.5 t-37.5 -7.5q-23 0 -44 9t-37 24.5t-25.5 36t-9.5 44.5zM104 172v688q0 86 50.5 133t156.5 47t156.5 -47t50.5 -133v-688q0 -86 -50.5 -133t-156.5 -47t-156.5 47t-50.5 133z" />
<glyph unicode="&#xef;" horiz-adv-x="622" d="M-112 1311q0 40 15 75.5t41 61t62.5 40.5t78.5 15q43 0 78.5 -14t61 -39.5t40 -60t14.5 -74.5q0 -41 -15 -76.5t-41.5 -61.5t-62.5 -40.5t-79 -14.5q-42 0 -77.5 14t-61 39.5t-40 60t-14.5 75.5zM104 172v688q0 86 50.5 133t156.5 47t156.5 -47t50.5 -133v-688 q0 -86 -50.5 -133t-156.5 -47t-156.5 47t-50.5 133zM349 1311q0 40 15 75.5t41 61t62.5 40.5t78.5 15q43 0 78.5 -14t61 -39.5t40 -60t14.5 -74.5q0 -41 -15 -76.5t-41.5 -61.5t-62.5 -40.5t-79 -14.5q-42 0 -77.5 14t-61 39.5t-40 60t-14.5 75.5z" />
<glyph unicode="&#xf0;" horiz-adv-x="1210" d="M57 450q0 89 23.5 161t64 128.5t94.5 98t114.5 68.5t125 40t125.5 13q5 0 9 -0.5t7 -0.5h5q-17 29 -38.5 58.5t-46.5 55.5l-84 -57q-43 -29 -77 -29q-24 0 -45.5 10t-37 26.5t-25 38t-9.5 44.5q0 35 16.5 57.5t48.5 44.5l32 22l-15 9q-8 5 -15 10l-15 11q-7 6 -14 13 q-13 13 -21.5 30.5t-8.5 42.5q0 27 14 54t42 48.5t69 34.5t95 13q26 0 49 -4.5t44.5 -12t42 -18.5t41.5 -24l87 59q43 29 77 29q24 0 45.5 -10t37 -26.5t25 -38t9.5 -44.5q0 -32 -14.5 -54.5t-47.5 -45.5l-28 -19q66 -65 119 -142t90 -163.5t56.5 -181t19.5 -194.5 q0 -158 -38 -276t-110.5 -196t-177.5 -117t-239 -39q-126 0 -223 33t-163.5 94.5t-100.5 149t-34 196.5zM477 468q0 -48 9.5 -83t26.5 -57.5t39.5 -33t48.5 -10.5q29 0 54.5 12.5t44.5 43t30 80.5t11 125q0 29 -2 57.5t-5 53.5q-10 1 -21 3q-10 2 -24 3t-31 1 q-42 0 -75.5 -13t-57 -37.5t-36 -61t-12.5 -83.5z" />
<glyph unicode="&#xf1;" horiz-adv-x="1266" d="M104 172v700q0 85 43.5 128.5t128.5 43.5q40 0 70 -9t51 -25.5t34.5 -39t22.5 -48.5l7 -21h4q26 43 69 76q18 14 42 28t53.5 24.5t65.5 17t79 6.5q90 0 163 -28.5t124 -82.5t79 -133t28 -180v-457q0 -86 -50.5 -133t-156.5 -47t-156.5 47t-50.5 133v416q0 39 -7 66 t-19.5 43.5t-31 24t-41.5 7.5q-17 0 -32 -4.5t-28 -12t-23.5 -16.5t-19.5 -19q-20 -23 -34 -52v-453q0 -86 -50.5 -133t-156.5 -47t-156.5 47t-50.5 133zM196 1267q0 43 22.5 86t63 77t96.5 55t122 21q55 0 93.5 -14.5t68.5 -32.5l54 -33q25 -14 52 -14q26 0 44 13t35 28 t36.5 28t49.5 13q23 0 44.5 -7.5t38 -23t26 -38.5t9.5 -54q0 -44 -22.5 -86.5t-63 -76.5t-96.5 -55t-122 -21q-55 0 -93.5 14.5t-67.5 32.5l-55 33q-25 14 -52 14q-26 0 -44 -13t-35 -28t-36.5 -28t-49.5 -13q-23 0 -44.5 7.5t-38 23t-26 38.5t-9.5 54z" />
<glyph unicode="&#xf2;" horiz-adv-x="1270" d="M62 500q0 129 39 232t113.5 174.5t183.5 110t249 38.5q132 0 236 -37.5t176.5 -106t110.5 -165t38 -214.5q0 -129 -39 -232t-113.5 -174.5t-183.5 -110t-249 -38.5q-132 0 -236 37.5t-176.5 106t-110.5 165t-38 214.5zM291 1401q0 33 15 66t40 59.5t56.5 43t64.5 16.5 q15 0 27.5 -3.5t24.5 -11t25 -18.5t29 -27l183 -185q21 -21 34 -38.5t13 -44.5q0 -23 -10 -46.5t-28 -42.5t-42 -31t-52 -12q-14 0 -32 5.5t-41 19.5l-223 139l-31 20q-15 10 -27 23t-19 29.5t-7 38.5zM482 518q0 -62 12 -106.5t33 -73t49.5 -41.5t60.5 -13q31 0 58.5 13 t48 41t32.5 71.5t12 104.5q0 62 -12 106t-33 72.5t-49.5 42t-60.5 13.5q-31 0 -58.5 -13t-48 -41t-32.5 -71.5t-12 -104.5z" />
<glyph unicode="&#xf3;" horiz-adv-x="1270" d="M62 500q0 129 39 232t113.5 174.5t183.5 110t249 38.5q132 0 236 -37.5t176.5 -106t110.5 -165t38 -214.5q0 -129 -39 -232t-113.5 -174.5t-183.5 -110t-249 -38.5q-132 0 -236 37.5t-176.5 106t-110.5 165t-38 214.5zM469 1258q0 27 13 44.5t34 38.5l183 185 q31 31 53.5 45.5t52.5 14.5q33 0 64.5 -16.5t56.5 -43t40 -59.5t15 -66q0 -22 -7 -38.5t-19 -29.5t-27 -23l-31 -20l-223 -139q-23 -14 -41 -19.5t-32 -5.5q-28 0 -52 12t-42 31t-28 42.5t-10 46.5zM482 518q0 -62 12 -106.5t33 -73t49.5 -41.5t60.5 -13q31 0 58.5 13t48 41 t32.5 71.5t12 104.5q0 62 -12 106t-33 72.5t-49.5 42t-60.5 13.5q-31 0 -58.5 -13t-48 -41t-32.5 -71.5t-12 -104.5z" />
<glyph unicode="&#xf4;" horiz-adv-x="1270" d="M62 500q0 129 39 232t113.5 174.5t183.5 110t249 38.5q132 0 236 -37.5t176.5 -106t110.5 -165t38 -214.5q0 -129 -39 -232t-113.5 -174.5t-183.5 -110t-249 -38.5q-132 0 -236 37.5t-176.5 106t-110.5 165t-38 214.5zM277 1243q0 22 10.5 40.5t33.5 41.5l193 183 q27 26 56.5 40.5t67.5 14.5t67.5 -14.5t57.5 -39.5l187 -170q29 -26 38.5 -44.5t9.5 -39.5q0 -25 -10.5 -48t-28.5 -41t-41 -29t-48 -11q-19 0 -35 6t-42 23l-160 107l-165 -107q-23 -15 -40.5 -22.5t-34.5 -7.5q-24 0 -45 10t-37 26.5t-25 37.5t-9 44zM482 518 q0 -62 12 -106.5t33 -73t49.5 -41.5t60.5 -13q31 0 58.5 13t48 41t32.5 71.5t12 104.5q0 62 -12 106t-33 72.5t-49.5 42t-60.5 13.5q-31 0 -58.5 -13t-48 -41t-32.5 -71.5t-12 -104.5z" />
<glyph unicode="&#xf5;" horiz-adv-x="1270" d="M62 500q0 129 39 232t113.5 174.5t183.5 110t249 38.5q132 0 236 -37.5t176.5 -106t110.5 -165t38 -214.5q0 -129 -39 -232t-113.5 -174.5t-183.5 -110t-249 -38.5q-132 0 -236 37.5t-176.5 106t-110.5 165t-38 214.5zM201 1267q0 43 22.5 86t63 77t96.5 55t122 21 q55 0 93.5 -14.5t68.5 -32.5l54 -33q25 -14 52 -14q26 0 44 13t35 28t36.5 28t49.5 13q23 0 44.5 -7.5t38 -23t26 -38.5t9.5 -54q0 -44 -22.5 -86.5t-63 -76.5t-96.5 -55t-122 -21q-55 0 -93.5 14.5t-68.5 32.5l-54 33q-25 14 -52 14q-26 0 -44 -13t-35 -28t-36.5 -28 t-49.5 -13q-23 0 -44.5 7.5t-38 23t-26 38.5t-9.5 54zM482 518q0 -62 12 -106.5t33 -73t49.5 -41.5t60.5 -13q31 0 58.5 13t48 41t32.5 71.5t12 104.5q0 62 -12 106t-33 72.5t-49.5 42t-60.5 13.5q-31 0 -58.5 -13t-48 -41t-32.5 -71.5t-12 -104.5z" />
<glyph unicode="&#xf6;" horiz-adv-x="1270" d="M62 500q0 129 39 232t113.5 174.5t183.5 110t249 38.5q132 0 236 -37.5t176.5 -106t110.5 -165t38 -214.5q0 -129 -39 -232t-113.5 -174.5t-183.5 -110t-249 -38.5q-132 0 -236 37.5t-176.5 106t-110.5 165t-38 214.5zM190 1311q0 41 15 77t42 62.5t64 41.5t81 15 t80.5 -14.5t63 -40t41 -61t14.5 -76.5q0 -42 -15.5 -78t-42.5 -62.5t-64 -41.5t-81 -15t-80 14.5t-62.5 40.5t-41 61t-14.5 77zM482 518q0 -62 12 -106.5t33 -73t49.5 -41.5t60.5 -13q31 0 58.5 13t48 41t32.5 71.5t12 104.5q0 62 -12 106t-33 72.5t-49.5 42t-60.5 13.5 q-31 0 -58.5 -13t-48 -41t-32.5 -71.5t-12 -104.5zM669 1311q0 41 15.5 77t42.5 62.5t64 41.5t81 15q43 0 79.5 -14.5t63 -40t41 -61t14.5 -76.5q0 -42 -15.5 -78t-42.5 -62.5t-64 -41.5t-80 -15q-44 0 -80.5 14.5t-63 40.5t-41 61t-14.5 77z" />
<glyph unicode="&#xf7;" d="M116 586q0 68 36 106t99 38h666q63 0 99 -38t36 -106t-36 -106t-99 -38h-666q-63 0 -99 38t-36 106zM396 196q0 40 14.5 74t40 59.5t60 40t74.5 14.5t74 -14.5t59 -40t39.5 -59.5t14.5 -74t-14.5 -74.5t-39.5 -59.5t-59 -39.5t-74 -14.5t-74.5 14.5t-60 40t-40 59.5 t-14.5 74zM396 976q0 40 14.5 74t40 59.5t59.5 40t74 14.5t74 -14.5t59.5 -40t40 -59.5t14.5 -74t-14.5 -74t-40 -59.5t-59.5 -40t-74 -14.5t-74 14.5t-59.5 40t-40 59.5t-14.5 74z" />
<glyph unicode="&#xf8;" horiz-adv-x="1291" d="M63 500q0 129 39 232t114.5 174.5t186.5 110t255 38.5q36 0 71.5 -3t67.5 -8l70 117q20 35 47.5 55t68.5 20q29 0 57 -11t50.5 -30t36.5 -44.5t14 -53.5q0 -17 -5.5 -34.5t-16.5 -34.5l-59 -100q84 -70 126.5 -170.5t42.5 -225.5q0 -129 -39 -232t-114.5 -174.5 t-186.5 -110t-255 -38.5q-37 0 -72 3t-67 8l-70 -116q-21 -35 -48 -55t-68 -20q-29 0 -57 11t-50.5 30t-36.5 44t-14 54q0 17 5.5 34.5t16.5 34.5l59 98q-83 69 -126 170.5t-43 226.5zM433 518q0 -31 2 -54t5 -43l216 362h-6h-6q-50 0 -89 -13.5t-66 -45t-41.5 -82 t-14.5 -124.5zM636 249h6h6q50 0 89 13.5t66 45t41.5 82t14.5 124.5q0 31 -2 54t-5 43z" />
<glyph unicode="&#xf9;" horiz-adv-x="1266" d="M98 403v457q0 86 50.5 133t156.5 47t156.5 -47t50.5 -133v-416q0 -78 26 -109.5t73 -31.5q17 0 32 4.5t28 12t23.5 16.5t19.5 19q20 23 34 52v453q0 86 50.5 133t156.5 47t156.5 -47t50.5 -133v-700q0 -85 -43.5 -128.5t-128.5 -43.5q-41 0 -70.5 9t-50.5 25.5t-34.5 39 t-22.5 48.5l-7 21h-4q-26 -43 -69 -76q-18 -14 -42 -28t-54 -24.5t-66 -17t-78 -6.5q-90 0 -163 28.5t-124 82.5t-79 133t-28 180zM259 1401q0 33 15 66t40 59.5t56.5 43t64.5 16.5q15 0 27.5 -3.5t24.5 -11t25 -18.5t29 -27l183 -185q21 -21 34 -38.5t13 -44.5 q0 -23 -10 -46.5t-28 -42.5t-42 -31t-52 -12q-14 0 -32 5.5t-41 19.5l-223 139l-31 20q-15 10 -27 23t-19 29.5t-7 38.5z" />
<glyph unicode="&#xfa;" horiz-adv-x="1266" d="M98 403v457q0 86 50.5 133t156.5 47t156.5 -47t50.5 -133v-416q0 -78 26 -109.5t73 -31.5q17 0 32 4.5t28 12t23.5 16.5t19.5 19q20 23 34 52v453q0 86 50.5 133t156.5 47t156.5 -47t50.5 -133v-700q0 -85 -43.5 -128.5t-128.5 -43.5q-41 0 -70.5 9t-50.5 25.5t-34.5 39 t-22.5 48.5l-7 21h-4q-26 -43 -69 -76q-18 -14 -42 -28t-54 -24.5t-66 -17t-78 -6.5q-90 0 -163 28.5t-124 82.5t-79 133t-28 180zM458 1258q0 27 13 44.5t34 38.5l183 185q31 31 53.5 45.5t52.5 14.5q33 0 64.5 -16.5t56.5 -43t40 -59.5t15 -66q0 -22 -7 -38.5t-19 -29.5 t-27 -23l-31 -20l-223 -139q-23 -14 -41 -19.5t-32 -5.5q-28 0 -52 12t-42 31t-28 42.5t-10 46.5z" />
<glyph unicode="&#xfb;" horiz-adv-x="1266" d="M98 403v457q0 86 50.5 133t156.5 47t156.5 -47t50.5 -133v-416q0 -78 26 -109.5t73 -31.5q17 0 32 4.5t28 12t23.5 16.5t19.5 19q20 23 34 52v453q0 86 50.5 133t156.5 47t156.5 -47t50.5 -133v-700q0 -85 -43.5 -128.5t-128.5 -43.5q-41 0 -70.5 9t-50.5 25.5t-34.5 39 t-22.5 48.5l-7 21h-4q-26 -43 -69 -76q-18 -14 -42 -28t-54 -24.5t-66 -17t-78 -6.5q-90 0 -163 28.5t-124 82.5t-79 133t-28 180zM266 1243q0 22 10.5 40.5t33.5 41.5l193 183q27 26 56.5 40.5t67.5 14.5t67.5 -14.5t57.5 -39.5l187 -170q29 -26 38.5 -44.5t9.5 -39.5 q0 -25 -10.5 -48t-28.5 -41t-41 -29t-48 -11q-19 0 -35 6t-42 23l-160 107l-165 -107q-23 -15 -40.5 -22.5t-34.5 -7.5q-24 0 -45 10t-37 26.5t-25 37.5t-9 44z" />
<glyph unicode="&#xfc;" horiz-adv-x="1266" d="M98 403v457q0 86 50.5 133t156.5 47t156.5 -47t50.5 -133v-416q0 -78 26 -109.5t73 -31.5q17 0 32 4.5t28 12t23.5 16.5t19.5 19q20 23 34 52v453q0 86 50.5 133t156.5 47t156.5 -47t50.5 -133v-700q0 -85 -43.5 -128.5t-128.5 -43.5q-41 0 -70.5 9t-50.5 25.5t-34.5 39 t-22.5 48.5l-7 21h-4q-26 -43 -69 -76q-18 -14 -42 -28t-54 -24.5t-66 -17t-78 -6.5q-90 0 -163 28.5t-124 82.5t-79 133t-28 180zM188 1311q0 41 15 77t42 62.5t64 41.5t81 15t80.5 -14.5t63 -40t41 -61t14.5 -76.5q0 -42 -15.5 -78t-42.5 -62.5t-64 -41.5t-81 -15 t-80 14.5t-62.5 40.5t-41 61t-14.5 77zM667 1311q0 41 15.5 77t42.5 62.5t64 41.5t81 15q43 0 79.5 -14.5t63 -40t41 -61t14.5 -76.5q0 -42 -15.5 -78t-42.5 -62.5t-64 -41.5t-80 -15q-44 0 -80.5 14.5t-63 40.5t-41 61t-14.5 77z" />
<glyph unicode="&#xfd;" horiz-adv-x="1153" d="M-73 -291q0 60 36.5 96.5t96.5 36.5q20 0 35 -1.5t29.5 -4t29 -4t32.5 -1.5q27 0 49 4t41 11.5t34.5 19t27.5 25.5l-281 856q-14 44 -18.5 66.5t-4.5 42.5q0 44 21 78.5t54 58.5t74 37t81 13q39 0 71.5 -12.5t54.5 -34.5t32.5 -53t21.5 -75l107 -415q7 -27 12 -55.5 t10 -52.5q4 -28 9 -54h4q4 27 9 55q5 24 10 52.5t12 54.5l103 422q9 38 21 69.5t32 51.5q21 21 52 34t76 13q38 0 76.5 -11.5t70 -34t51.5 -54.5t20 -73q0 -20 -4 -41t-16 -58l-181 -554q-56 -170 -124.5 -301t-156 -219.5t-197.5 -134t-249 -45.5q-77 0 -130 18.5t-84 49.5 q-50 50 -50 124zM439 1258q0 27 13 44.5t34 38.5l183 185q31 31 53.5 45.5t52.5 14.5q33 0 64.5 -16.5t56.5 -43t40 -59.5t15 -66q0 -22 -7 -38.5t-19 -29.5t-27 -23l-31 -20l-223 -139q-23 -14 -41 -19.5t-32 -5.5q-28 0 -52 12t-42 31t-28 42.5t-10 46.5z" />
<glyph unicode="&#xfe;" horiz-adv-x="1262" d="M104 -297v1598q0 86 50.5 133t156.5 47t156.5 -47t50.5 -133v-166q0 -47 -3.5 -90t-9.5 -93h3q25 28 63 50q16 9 36.5 18.5t45 16.5t54 11.5t63.5 4.5q97 0 176 -32t135.5 -96t87.5 -159t31 -221q0 -133 -39.5 -238.5t-118 -178.5t-195 -112t-270.5 -39q-15 0 -25.5 0.5 t-18.5 1.5q-9 1 -15 2l-3 -1q2 -17 2.5 -35t0.5 -39v-203q0 -86 -50.5 -133t-156.5 -47t-156.5 47t-50.5 133zM518 301q10 -4 23 -8q11 -3 27 -5.5t38 -2.5q39 0 71 13.5t55 43t35.5 74.5t12.5 108q0 58 -9 97t-25 63t-38.5 34.5t-48.5 10.5q-18 0 -33.5 -4.5t-29 -12 t-24.5 -16.5t-20 -19q-20 -23 -34 -52v-324z" />
<glyph unicode="&#xff;" horiz-adv-x="1153" d="M-73 -291q0 60 36.5 96.5t96.5 36.5q20 0 35 -1.5t29.5 -4t29 -4t32.5 -1.5q27 0 49 4t41 11.5t34.5 19t27.5 25.5l-281 856q-14 44 -18.5 66.5t-4.5 42.5q0 44 21 78.5t54 58.5t74 37t81 13q39 0 71.5 -12.5t54.5 -34.5t32.5 -53t21.5 -75l107 -415q7 -27 12 -55.5 t10 -52.5q4 -28 9 -54h4q4 27 9 55q5 24 10 52.5t12 54.5l103 422q9 38 21 69.5t32 51.5q21 21 52 34t76 13q38 0 76.5 -11.5t70 -34t51.5 -54.5t20 -73q0 -20 -4 -41t-16 -58l-181 -554q-56 -170 -124.5 -301t-156 -219.5t-197.5 -134t-249 -45.5q-77 0 -130 18.5t-84 49.5 q-50 50 -50 124zM148 1311q0 41 15 77t42 62.5t64 41.5t81 15t80.5 -14.5t63 -40t41 -61t14.5 -76.5q0 -42 -15.5 -78t-42.5 -62.5t-64 -41.5t-81 -15t-80 14.5t-62.5 40.5t-41 61t-14.5 77zM627 1311q0 41 15.5 77t42.5 62.5t64 41.5t81 15q43 0 79.5 -14.5t63 -40t41 -61 t14.5 -76.5q0 -42 -15.5 -78t-42.5 -62.5t-64 -41.5t-80 -15q-44 0 -80.5 14.5t-63 40.5t-41 61t-14.5 77z" />
<glyph unicode="&#x152;" horiz-adv-x="1933" d="M68 668q0 171 50 307t144 230.5t227 145t300 50.5q66 0 120.5 -6t103.5 -17h723q61 0 97 -39t36 -119t-36 -119t-97 -39h-370v-211h309q58 0 93.5 -39.5t35.5 -114.5q0 -77 -35.5 -116.5t-93.5 -39.5h-309v-225h376q60 0 95.5 -39t35.5 -119t-36 -119t-96 -39h-756 q-48 -11 -105.5 -17t-116.5 -6q-161 0 -290 48t-219 137.5t-138 217.5t-48 288zM502 690q0 -99 22 -172.5t61.5 -122.5t94 -73t118.5 -24q44 0 76.5 6.5t67.5 21.5v722q-32 15 -68 23.5t-80 8.5q-64 0 -117.5 -23.5t-92.5 -72t-60.5 -122t-21.5 -172.5z" />
<glyph unicode="&#x153;" horiz-adv-x="1883" d="M62 500q0 129 39 232t113.5 174.5t183.5 110t249 38.5q69 0 123 -9.5t96.5 -25t74.5 -36.5t57 -44q30 25 67 46.5t82 36.5t97.5 23.5t111.5 8.5q110 0 196.5 -31t146 -88.5t91 -139t31.5 -182.5q0 -98 -47 -147t-130 -49h-444v-1q10 -33 28.5 -57t46 -40t65 -24t85.5 -8 q42 0 75.5 5.5t60.5 11.5l50 12q23 6 44 6q28 0 50 -10t37 -27t23 -39.5t8 -47.5q0 -38 -11.5 -64.5t-35.5 -50.5q-18 -18 -50.5 -37t-79.5 -34.5t-109 -25.5t-140 -10q-59 0 -110.5 6.5t-97.5 20t-85.5 34t-74.5 47.5q-31 -27 -68 -47t-81 -33.5t-95.5 -20.5t-111.5 -7 q-132 0 -236 37.5t-176.5 106t-110.5 165t-38 214.5zM482 518q0 -62 12 -106.5t33 -73t49.5 -41.5t60.5 -13q31 0 58.5 13t48 41t32.5 71.5t12 104.5q0 62 -12 106t-33 72.5t-49.5 42t-60.5 13.5q-31 0 -58.5 -13t-48 -41t-32.5 -71.5t-12 -104.5zM1197 635h243 q-8 77 -36 110t-81 33q-22 0 -42 -6.5t-36 -23t-28.5 -44t-19.5 -69.5z" />
<glyph unicode="&#x178;" horiz-adv-x="1213" d="M12 1173q0 50 22.5 90t57.5 68t77 43t81 15q45 0 74.5 -14.5t49.5 -34.5q18 -18 33.5 -43.5t35.5 -63.5l135 -266q9 -18 17 -37l15 -33l14 -35h4q5 17 11 35q5 16 12.5 35t16.5 37l124 265q18 38 32 63t34 45q23 23 54 35t66 12q41 0 81 -14.5t71.5 -40.5t51 -61.5 t19.5 -77.5q0 -38 -15 -69.5t-36 -67.5l-338 -585v-295q0 -89 -52 -137.5t-161 -48.5q-108 0 -159.5 48.5t-51.5 137.5v295l-322 553l-20 37q-10 18 -17.5 36t-12 36t-4.5 38zM170 1667q0 42 15.5 78.5t42.5 63.5t64.5 42t82.5 15t82 -14.5t63.5 -40.5t41 -62t14.5 -78 t-15.5 -78.5t-42.5 -64t-64.5 -43t-82.5 -15.5t-82 15t-63.5 41t-41 62.5t-14.5 78.5zM674 1667q0 42 15.5 78.5t42.5 63.5t64.5 42t82.5 15t82 -14.5t63.5 -40.5t41 -62t14.5 -78t-15.5 -78.5t-42.5 -64t-64.5 -43t-82.5 -15.5t-82 15t-63.5 41t-41 62.5t-14.5 78.5z" />
<glyph unicode="&#x2c6;" horiz-adv-x="1024" d="M148 1243q0 22 10.5 40.5t33.5 41.5l193 183q27 26 56.5 40.5t67.5 14.5t67.5 -14.5t57.5 -39.5l187 -170q29 -26 38.5 -44.5t9.5 -39.5q0 -25 -10.5 -48t-28.5 -41t-41 -29t-48 -11q-19 0 -35 6t-42 23l-160 107l-165 -107q-23 -15 -40.5 -22.5t-34.5 -7.5q-24 0 -45 10 t-37 26.5t-25 37.5t-9 44z" />
<glyph unicode="&#x2dc;" horiz-adv-x="1024" d="M82 1267q0 43 22.5 86t63 77t96.5 55t122 21q55 0 93.5 -14.5t68.5 -32.5l54 -33q25 -14 52 -14q26 0 44 13t35 28t36.5 28t49.5 13q23 0 44.5 -7.5t38 -23t26 -38.5t9.5 -54q0 -44 -22.5 -86.5t-63 -76.5t-96.5 -55t-122 -21q-55 0 -93.5 14.5t-67.5 32.5l-55 33 q-25 14 -52 14q-26 0 -44 -13t-35 -28t-36.5 -28t-49.5 -13q-23 0 -44.5 7.5t-38 23t-26 38.5t-9.5 54z" />
<glyph unicode="&#x2000;" horiz-adv-x="1002" />
<glyph unicode="&#x2001;" horiz-adv-x="2005" />
<glyph unicode="&#x2002;" horiz-adv-x="1002" />
<glyph unicode="&#x2003;" horiz-adv-x="2005" />
<glyph unicode="&#x2004;" horiz-adv-x="668" />
<glyph unicode="&#x2005;" horiz-adv-x="501" />
<glyph unicode="&#x2006;" horiz-adv-x="334" />
<glyph unicode="&#x2007;" horiz-adv-x="334" />
<glyph unicode="&#x2008;" horiz-adv-x="250" />
<glyph unicode="&#x2009;" horiz-adv-x="401" />
<glyph unicode="&#x200a;" horiz-adv-x="111" />
<glyph unicode="&#x2010;" horiz-adv-x="897" d="M76 564q0 76 35.5 115.5t93.5 39.5h487q58 0 93.5 -39.5t35.5 -115.5t-35.5 -115.5t-93.5 -39.5h-487q-58 0 -93.5 39.5t-35.5 115.5z" />
<glyph unicode="&#x2011;" horiz-adv-x="897" d="M76 564q0 76 35.5 115.5t93.5 39.5h487q58 0 93.5 -39.5t35.5 -115.5t-35.5 -115.5t-93.5 -39.5h-487q-58 0 -93.5 39.5t-35.5 115.5z" />
<glyph unicode="&#x2012;" horiz-adv-x="897" d="M76 564q0 76 35.5 115.5t93.5 39.5h487q58 0 93.5 -39.5t35.5 -115.5t-35.5 -115.5t-93.5 -39.5h-487q-58 0 -93.5 39.5t-35.5 115.5z" />
<glyph unicode="&#x2013;" d="M0 563q0 77 35.5 116.5t93.5 39.5h910q58 0 93.5 -39.5t35.5 -116.5q0 -75 -35.5 -114.5t-93.5 -39.5h-910q-58 0 -93.5 39.5t-35.5 114.5z" />
<glyph unicode="&#x2014;" horiz-adv-x="2048" d="M106 563q0 77 35.5 116.5t93.5 39.5h1578q58 0 93.5 -39.5t35.5 -116.5q0 -75 -35.5 -114.5t-93.5 -39.5h-1578q-58 0 -93.5 39.5t-35.5 114.5z" />
<glyph unicode="&#x2018;" horiz-adv-x="649" d="M97 945q0 68 12.5 127.5t32 110.5t44.5 93t51 75q51 67 113.5 105.5t125.5 38.5q55 0 84 -28.5t29 -73.5q0 -31 -17.5 -54.5t-42 -52t-51 -67t-44.5 -99.5q21 -10 42.5 -27t39 -42.5t28.5 -59t11 -76.5q0 -49 -17.5 -91t-48.5 -73t-74 -48.5t-93 -17.5t-91 17.5t-71 51 t-46.5 81.5t-16.5 110z" />
<glyph unicode="&#x2019;" horiz-adv-x="649" d="M60 787q0 31 17.5 54.5t42 52t51 67t44.5 99.5q-21 10 -42.5 27t-39 42.5t-28.5 59t-11 76.5q0 49 17.5 91t48.5 73t74 48.5t93 17.5q49 0 90.5 -17.5t71.5 -51t46.5 -82t16.5 -109.5q0 -68 -12.5 -127.5t-32 -110.5t-45 -93t-50.5 -75q-51 -67 -113.5 -105.5 t-125.5 -38.5q-55 0 -84 28.5t-29 73.5z" />
<glyph unicode="&#x201a;" horiz-adv-x="649" d="M60 -264q0 31 17.5 54.5t42 52t51 67t44.5 99.5q-21 10 -42.5 27t-39 42.5t-28.5 59t-11 76.5q0 49 17.5 91t48.5 73t74 48.5t93 17.5q49 0 90.5 -17.5t71.5 -51t46.5 -82t16.5 -109.5q0 -68 -12.5 -127.5t-32 -110.5t-45 -93t-50.5 -75q-51 -67 -113.5 -105.5 t-125.5 -38.5q-55 0 -84 28.5t-29 73.5z" />
<glyph unicode="&#x201c;" horiz-adv-x="1198" d="M97 945q0 68 12.5 127.5t32 110.5t44.5 93t51 75q51 67 113.5 105.5t125.5 38.5q55 0 84 -28.5t29 -73.5q0 -31 -17.5 -54.5t-42 -52t-51 -67t-44.5 -99.5q21 -10 42.5 -27t39 -42.5t28.5 -59t11 -76.5q0 -49 -17.5 -91t-48.5 -73t-74 -48.5t-93 -17.5t-91 17.5t-71 51 t-46.5 81.5t-16.5 110zM646 945q0 68 12.5 127.5t32 110.5t44.5 93t51 75q51 67 113.5 105.5t125.5 38.5q55 0 84 -28.5t29 -73.5q0 -31 -17.5 -54.5t-42 -52t-51 -67t-44.5 -99.5q21 -10 42.5 -27t39 -42.5t28.5 -59t11 -76.5q0 -49 -17.5 -91t-48.5 -73t-74 -48.5 t-93 -17.5t-91 17.5t-71 51t-46.5 81.5t-16.5 110z" />
<glyph unicode="&#x201d;" horiz-adv-x="1198" d="M60 787q0 31 17.5 54.5t42 52t51 67t44.5 99.5q-21 10 -42.5 27t-39 42.5t-28.5 59t-11 76.5q0 49 17.5 91t48.5 73t74 48.5t93 17.5q49 0 90.5 -17.5t71.5 -51t46.5 -82t16.5 -109.5q0 -68 -12.5 -127.5t-32 -110.5t-45 -93t-50.5 -75q-51 -67 -113.5 -105.5 t-125.5 -38.5q-55 0 -84 28.5t-29 73.5zM609 787q0 31 17.5 54.5t42 52t51 67t44.5 99.5q-21 10 -42.5 27t-39 42.5t-28.5 59t-11 76.5q0 49 17.5 91t48.5 73t74 48.5t93 17.5q49 0 90.5 -17.5t71.5 -51t46.5 -82t16.5 -109.5q0 -68 -12.5 -127.5t-32 -110.5t-45 -93 t-50.5 -75q-51 -67 -113.5 -105.5t-125.5 -38.5q-55 0 -84 28.5t-29 73.5z" />
<glyph unicode="&#x201e;" horiz-adv-x="1198" d="M60 -264q0 31 17.5 54.5t42 52t51 67t44.5 99.5q-21 10 -42.5 27t-39 42.5t-28.5 59t-11 76.5q0 49 17.5 91t48.5 73t74 48.5t93 17.5q49 0 90.5 -17.5t71.5 -51t46.5 -82t16.5 -109.5q0 -68 -12.5 -127.5t-32 -110.5t-45 -93t-50.5 -75q-51 -67 -113.5 -105.5 t-125.5 -38.5q-55 0 -84 28.5t-29 73.5zM609 -264q0 31 17.5 54.5t42 52t51 67t44.5 99.5q-21 10 -42.5 27t-39 42.5t-28.5 59t-11 76.5q0 49 17.5 91t48.5 73t74 48.5t93 17.5q49 0 90.5 -17.5t71.5 -51t46.5 -82t16.5 -109.5q0 -68 -12.5 -127.5t-32 -110.5t-45 -93 t-50.5 -75q-51 -67 -113.5 -105.5t-125.5 -38.5q-55 0 -84 28.5t-29 73.5z" />
<glyph unicode="&#x2022;" horiz-adv-x="1037" d="M152 696q0 80 27.5 147.5t76.5 117t116.5 77t147.5 27.5t147 -27t115.5 -75.5t75.5 -115.5t27 -147t-27.5 -147.5t-77 -116.5t-117 -76.5t-147.5 -27.5t-147 27t-115 75t-75 115t-27 147z" />
<glyph unicode="&#x2026;" horiz-adv-x="1976" d="M97 215q0 51 18.5 95t50.5 76.5t76.5 50.5t96.5 18q51 0 94.5 -17.5t74.5 -49t48.5 -75t17.5 -94.5q0 -52 -18 -96.5t-50 -76.5t-76 -50.5t-95 -18.5q-52 0 -96 17.5t-75.5 49t-49 75.5t-17.5 96zM751 215q0 51 18 95t50 76.5t76 50.5t95 18q52 0 96 -17.5t75.5 -49 t49 -75t17.5 -94.5q0 -52 -18.5 -96.5t-50.5 -76.5t-76.5 -50.5t-96.5 -18.5q-51 0 -94.5 17.5t-74.5 49t-48.5 75.5t-17.5 96zM1402 215q0 51 18 95t50.5 76.5t76.5 50.5t96 18t95 -17.5t74.5 -49t49 -75t17.5 -94.5q0 -52 -18 -96.5t-50 -76.5t-76 -50.5t-96 -18.5 t-95.5 17.5t-75 49t-49 75.5t-17.5 96z" />
<glyph unicode="&#x202f;" horiz-adv-x="401" />
<glyph unicode="&#x2039;" horiz-adv-x="766" d="M62 515q0 44 18.5 78t45.5 64l257 279q30 32 59.5 52t70.5 20q36 0 68.5 -13t57.5 -35.5t40 -51.5t15 -62q0 -29 -13 -54t-35 -53l-172 -215l177 -224q25 -32 36.5 -55.5t11.5 -52.5q0 -33 -15 -62.5t-40.5 -52t-58.5 -35.5t-69 -13q-22 0 -40 4.5t-34.5 14t-33 24 t-35.5 35.5l-248 269q-27 29 -45 63t-18 76z" />
<glyph unicode="&#x203a;" horiz-adv-x="766" d="M67 841q0 33 15 62.5t40.5 52t58.5 35.5t69 13q43 0 74 -18.5t69 -59.5l248 -269q27 -29 45 -63t18 -76q0 -44 -18.5 -78t-45.5 -64l-257 -279q-30 -32 -59.5 -52t-70.5 -20q-36 0 -68.5 13t-57.5 35.5t-40 51.5t-15 62q0 29 13 54t35 53l172 215l-177 224 q-25 32 -36.5 55.5t-11.5 52.5z" />
<glyph unicode="&#x205f;" horiz-adv-x="501" />
<glyph unicode="&#x20ac;" horiz-adv-x="1300" d="M74 530q0 57 27 86t78 29h44v3v3q0 21 1 42t3 42h-48q-51 0 -78 29t-27 86t27 86t78 29h95q36 99 94.5 179t138 136.5t178.5 86.5t216 30q56 0 102.5 -7t83.5 -19t65 -28.5t47 -35.5q27 -27 38 -57t11 -66q0 -62 -35 -97t-94 -35q-25 0 -47 7l-48 16q-26 9 -58.5 16.5 t-78.5 7.5q-31 0 -60 -8t-55 -24.5t-48.5 -41.5t-40.5 -60h237q51 0 78 -29t27 -86t-27 -86t-78 -29h-291q-1 -13 -1 -28v-29v-17v-16h292q51 0 78 -29t27 -86t-27 -86t-78 -29h-246q16 -34 38.5 -59t51 -41.5t62.5 -24.5t73 -8q51 0 85 7t59 15l47 15q21 7 46 7 q51 0 84.5 -32t33.5 -88q0 -38 -11 -65.5t-37 -53.5q-20 -20 -54.5 -39t-80.5 -33.5t-103 -23.5t-122 -9q-113 0 -209 28.5t-172 84t-130 136t-82 184.5h-74q-51 0 -78 29t-27 86z" />
<glyph unicode="&#x2122;" horiz-adv-x="1883" d="M32 1275q0 52 24 78t62 26h466q38 0 62 -26t24 -78t-24 -78t-62 -26h-98v-369q0 -56 -33.5 -86.5t-101.5 -30.5t-101.5 30.5t-33.5 86.5v369h-98q-38 0 -62 26t-24 78zM696 780q0 10 1 20.5t3 23.5l52 408q9 73 60 112t148 39q51 0 87 -10t60 -29t38.5 -46.5t21.5 -62.5 l39 -189l6 -34q3 -16 5 -30q3 -16 5 -31h2q2 15 5 32q2 14 5 30l6 33l39 188q7 36 21.5 63.5t38.5 46.5t59.5 29t86.5 10q97 0 147.5 -39t59.5 -112l52 -409q2 -13 2.5 -20.5t0.5 -14.5q0 -24 -11 -43.5t-30 -33t-44.5 -20.5t-54.5 -7q-23 0 -45.5 5.5t-40 17.5t-29 29.5 t-13.5 41.5l-20 258q-2 19 -2.5 37.5t-0.5 32.5v32h-1l-63 -303q-17 -81 -58 -115.5t-120 -34.5t-120 34.5t-58 115.5l-63 303h-2q0 -14 -1 -31q-1 -14 -2 -32.5t-2 -39.5l-15 -258q-2 -24 -12.5 -41.5t-28 -29t-39 -17.5t-43.5 -6q-20 0 -43 5t-43 16.5t-33 30t-13 45.5z " />
<glyph unicode="&#x25fc;" horiz-adv-x="1045" d="M0 0v1045h1045v-1045h-1045z" />
<glyph unicode="&#xfb01;" horiz-adv-x="1346" d="M8 888q0 71 34 107.5t89 36.5h31v34q0 93 34.5 172t107.5 136t186 89t269 32q70 0 123 -8t92.5 -21t67 -30t46.5 -36q22 -22 33 -48t11 -64q0 -31 -10 -56.5t-27 -44t-40 -28.5t-50 -10q-30 0 -52 7l-48 14q-27 9 -63.5 15.5t-95.5 6.5q-48 0 -81 -8t-52.5 -23.5t-28 -40 t-8.5 -57.5v-31h490q86 0 131 -44.5t45 -131.5v-684q0 -87 -50.5 -133.5t-156.5 -46.5t-156.5 47t-50.5 133v572h-252v-572q0 -87 -50.5 -133.5t-156.5 -46.5t-156.5 47t-50.5 133v572h-31q-55 0 -89 36.5t-34 107.5z" />
<glyph unicode="&#xfb02;" horiz-adv-x="1410" d="M8 884q0 74 34 111t91 37h29v31q0 96 34 175.5t107 136.5t186.5 88.5t271.5 31.5q93 0 163.5 -8t122.5 -21.5t87 -32.5t56 -40q30 -30 41 -62.5t11 -79.5v-841q0 -35 3.5 -57t10 -34.5t15.5 -17t20 -4.5q6 0 14.5 1t16.5 1q16 0 32 -6.5t28.5 -20.5t20 -35t7.5 -49 q0 -45 -13 -75.5t-36 -53.5q-13 -13 -31.5 -26t-45 -23t-62 -16t-82.5 -6q-155 0 -233.5 78.5t-78.5 236.5v882q-11 3 -26 6q-13 2 -31.5 4.5t-43.5 2.5q-84 0 -119.5 -31.5t-35.5 -90.5v-44h53q57 0 91 -37t34 -111t-34 -111t-91 -37h-49v-564q0 -87 -50.5 -133.5 t-156.5 -46.5t-156.5 47t-50.5 133v564h-29q-57 0 -91 37t-34 111z" />
</font>
</defs>
</svg>
