<?xml version="1.0" standalone="no"?>
<!DOCTYPE svg PUBLIC "-//W3C//DTD SVG 1.1//EN" "http://www.w3.org/Graphics/SVG/1.1/DTD/svg11.dtd" >
<svg xmlns="http://www.w3.org/2000/svg" xmlns:xlink="http://www.w3.org/1999/xlink" version="1.1">
<metadata></metadata>
<defs>
<font id="rooneysans-regulauploadedfile" horiz-adv-x="1134" >
<font-face units-per-em="2048" ascent="1540" descent="-508" />
<missing-glyph horiz-adv-x="534" />
<glyph horiz-adv-x="0" />
<glyph horiz-adv-x="0" />
<glyph unicode="&#xd;" horiz-adv-x="0" />
<glyph unicode=" "  horiz-adv-x="534" />
<glyph unicode="&#x09;" horiz-adv-x="534" />
<glyph unicode="&#xa0;" horiz-adv-x="534" />
<glyph unicode="!" horiz-adv-x="670" d="M135 104q0 29 11 54.5t29.5 44t44 29t54.5 10.5t52 -9t39.5 -25.5t25.5 -39.5t9 -50q0 -29 -10.5 -54t-29 -43.5t-44 -29t-55.5 -10.5q-28 0 -51 9t-39.5 25.5t-26 39t-9.5 49.5zM246 457l142 918q2 15 4 27t4.5 22t7 18.5t11.5 16.5q15 15 35.5 21t47.5 6 q25 0 42.5 -4.5t28.5 -12.5t16.5 -20t5.5 -26q0 -4 -0.5 -8t-1.5 -10t-2.5 -16t-5.5 -26l-172 -907q-6 -34 -29 -52.5t-62 -18.5q-40 0 -58.5 19t-13.5 53z" />
<glyph unicode="&#x22;" horiz-adv-x="768" d="M245 1032q0 7 1 15t3 27l41 362q2 15 10 26t20 18t27 10.5t32 3.5q18 0 33.5 -4t27 -11.5t17.5 -17.5t6 -23q0 -5 -1 -11.5t-4 -22.5l-83 -365q-8 -29 -26.5 -42t-45.5 -13q-25 0 -41.5 11.5t-16.5 36.5zM578 1032q0 7 1 15t3 27l42 362q1 15 9 26t20.5 18t27.5 10.5 t31 3.5q19 0 34.5 -4t26.5 -11.5t17.5 -17.5t6.5 -23q0 -5 -1 -11.5t-5 -22.5l-83 -365q-7 -29 -25.5 -42t-45.5 -13q-25 0 -42 11.5t-17 36.5z" />
<glyph unicode="#" horiz-adv-x="1437" d="M41 415q0 33 18.5 53t54.5 20h225l198 400h-182q-26 0 -39.5 14t-13.5 41q0 33 18.5 53t54.5 20h224l164 332q13 26 30.5 37t41.5 11q14 0 26 -5t21 -13.5t14 -20t5 -24.5q0 -9 -2.5 -18.5t-6.5 -16.5l-140 -282h318l164 332q13 26 30.5 37t41.5 11q14 0 26 -5 t20.5 -13.5t14 -20t5.5 -24.5q0 -9 -3 -18.5t-6 -16.5l-140 -282h184q26 0 39.5 -14t13.5 -40q0 -34 -19.5 -54t-54.5 -20h-225l-197 -400h182q26 0 39.5 -13.5t13.5 -40.5q0 -34 -19 -54t-55 -20h-224l-164 -332q-12 -26 -30 -36.5t-42 -10.5q-13 0 -25.5 5t-21 13 t-14 19.5t-5.5 24.5q0 9 3 18.5t6 16.5l139 282h-316l-164 -332q-13 -26 -30.5 -36.5t-41.5 -10.5q-14 0 -26 5t-21 13t-14 19.5t-5 24.5q0 9 2.5 18.5t6.5 16.5l139 282h-183q-26 0 -39.5 14t-13.5 41zM493 488h317l197 400h-316z" />
<glyph unicode="$" horiz-adv-x="1048" d="M86 143q0 15 5.5 27.5t14.5 22t23 15.5t31 6q20 0 41 -9.5t52 -21t77 -21t117 -9.5t123.5 16t87 45t51.5 69t17 88q0 50 -23 87t-61 66.5t-86 53.5l-98 49q-49 25 -97 53.5t-86 66.5t-61 87.5t-23 118.5q0 70 23.5 130.5t71 107t118 77.5t164.5 40l38 223q6 35 24.5 51 t52.5 16q33 0 50 -16t11 -51l-38 -220q37 -3 71 -9.5t63 -16.5t51 -22t36 -25q13 -14 18 -27t5 -30q0 -15 -5 -27.5t-14.5 -22t-23.5 -15t-30 -5.5q-21 0 -41.5 8t-49 17.5t-68 17.5t-96.5 8q-64 0 -110 -13.5t-76 -37.5t-45 -57t-15 -72q0 -47 23 -81.5t61 -61.5t86 -51 l98 -49q50 -24 98 -53.5t85.5 -69t60.5 -92.5t23 -124q0 -77 -25 -143.5t-74 -118t-122 -85.5t-170 -45l-39 -230q-6 -34 -25 -50.5t-52 -16.5q-34 0 -50.5 16.5t-10.5 50.5l39 225q-52 2 -95.5 10.5t-78 20t-59.5 25.5t-39 28q-13 13 -18.5 26t-5.5 30z" />
<glyph unicode="%" horiz-adv-x="1885" d="M180 895q0 101 27 192t78.5 159.5t127.5 108.5t173 40q65 0 116 -19t86.5 -55.5t54.5 -89t19 -119.5q0 -101 -27 -191.5t-78.5 -159.5t-127.5 -109t-172 -40q-66 0 -117 19t-86.5 55t-54.5 88.5t-19 120.5zM343 909q0 -90 36.5 -131.5t98.5 -41.5q49 0 90.5 27.5t70 76 t45 114.5t16.5 144q0 90 -37.5 132t-98.5 42q-50 0 -91 -27.5t-69.5 -76t-44.5 -115t-16 -144.5zM421 46q0 12 5.5 22t14.5 22l965 1277q13 16 24 23t27 7q15 0 28 -5.5t23 -14.5t15.5 -20t5.5 -24q0 -12 -5 -21.5t-14 -21.5l-966 -1277q-12 -16 -23 -23.5t-28 -7.5 q-14 0 -27 5.5t-23 14.5t-16 20.5t-6 23.5zM1088 267q0 101 27 192t78.5 159.5t127.5 108.5t173 40q65 0 116 -19t86.5 -55.5t54.5 -89t19 -119.5q0 -101 -27 -191.5t-78.5 -159.5t-127.5 -109t-172 -40q-66 0 -117 19t-86.5 55t-54.5 88.5t-19 120.5zM1251 281 q0 -90 36.5 -131.5t98.5 -41.5q49 0 90.5 27.5t70 76t45 114.5t16.5 144q0 90 -37.5 132t-98.5 42q-50 0 -91 -27.5t-69.5 -76t-44.5 -115t-16 -144.5z" />
<glyph unicode="&#x26;" horiz-adv-x="1658" d="M97 349q0 97 36.5 172t97.5 134.5t139.5 105.5t161.5 86q-13 59 -19.5 115t-6.5 109q0 99 29.5 177.5t84 133.5t130.5 84t170 29q71 0 126.5 -19.5t93.5 -53.5t57.5 -81.5t19.5 -104.5q0 -90 -41.5 -156.5t-109.5 -119.5t-155.5 -95.5t-177.5 -81.5q20 -71 50 -145 t68.5 -146t85 -137.5t101.5 -120.5q22 -23 44.5 -41t44.5 -30.5t44.5 -19.5t48.5 -7q31 0 58.5 11t47.5 35t31 62.5t11 93.5q0 65 -21 125t-57.5 105t-84.5 71.5t-102 26.5q-25 0 -41.5 -2t-29.5 -2q-10 0 -18.5 3.5t-15 10.5t-10.5 18.5t-4 27.5q0 38 36 65t114 27 q97 0 173.5 -37t129.5 -99.5t81.5 -143.5t28.5 -168q0 -63 -17 -129.5t-57.5 -122.5t-106.5 -92t-164 -36q-88 0 -160 34t-141 103q-25 -21 -62.5 -45.5t-87 -45.5t-111 -35.5t-134.5 -14.5q-97 0 -173 27t-128 75t-80 115.5t-28 149.5zM279 373q0 -115 65 -178.5t190 -63.5 q49 0 91 9.5t76.5 24t61 32.5t45.5 33q-76 104 -135 225.5t-102 254.5q-61 -30 -114 -64t-93 -74.5t-62.5 -89.5t-22.5 -109zM684 1091q0 -45 4 -86.5t11 -85.5q70 31 131 62.5t106.5 67t72 77t26.5 92.5q0 64 -35.5 98.5t-104.5 34.5q-45 0 -84 -16.5t-67 -49.5t-44 -81.5 t-16 -112.5z" />
<glyph unicode="'" horiz-adv-x="434" d="M245 1032q0 7 1 15t3 27l41 362q2 15 10 26t20 18t27 10.5t32 3.5q18 0 33.5 -4t27 -11.5t17.5 -17.5t6 -23q0 -5 -1 -11.5t-4 -22.5l-83 -365q-8 -29 -26.5 -42t-45.5 -13q-25 0 -41.5 11.5t-16.5 36.5z" />
<glyph unicode="(" horiz-adv-x="637" d="M124 338q0 179 35.5 344.5t102 316t161 285t213.5 251.5q20 20 49 20q15 0 28.5 -5.5t23.5 -14.5t16 -21t6 -26q0 -10 -3.5 -19t-11.5 -19q-99 -111 -180 -234t-139 -261.5t-90 -291.5t-32 -325q0 -91 9 -180t25.5 -170.5t41.5 -154.5t57 -133q3 -7 4.5 -12.5t1.5 -14.5 q0 -15 -6.5 -27t-17.5 -21t-25 -14t-28 -5q-16 0 -30.5 6.5t-23.5 21.5q-45 63 -80 143t-58.5 170t-36 189.5t-12.5 201.5z" />
<glyph unicode=")" horiz-adv-x="637" d="M-96 -329q0 11 3.5 20t12.5 19q98 111 179.5 234t139.5 261t89.5 291.5t31.5 325.5q0 91 -8.5 180t-25.5 170.5t-42 154.5t-56 133q-4 7 -5.5 13t-1.5 14q0 15 7 27t17.5 20.5t24.5 14t29 5.5q16 0 30 -7t24 -21q44 -63 79 -143t59 -170t36 -189.5t12 -201.5 q0 -179 -35.5 -344.5t-102 -316t-161 -285t-212.5 -251.5q-20 -20 -49 -20q-15 0 -28.5 5.5t-23.5 14.5t-16.5 21t-6.5 25z" />
<glyph unicode="*" horiz-adv-x="838" d="M197 1008q0 17 8 29.5t24 19.5l199 88l-169 97q-12 8 -18 18t-6 24q0 13 6 27.5t16 25.5t23 18.5t26 7.5q11 0 19 -4t21 -15l147 -109l24 214q1 11 6.5 19.5t14 14.5t19.5 8.5t23 2.5t23.5 -2.5t21 -8.5t15.5 -15t6 -20q0 -5 -1 -11l-5 -18l-43 -187l163 96q13 9 22 12.5 t18 3.5q12 0 23 -6t19.5 -16t13 -23t4.5 -26q0 -17 -7.5 -29.5t-23.5 -19.5l-199 -88l169 -97q12 -7 18 -17.5t6 -24.5q0 -13 -6 -27.5t-16 -25.5t-23 -18.5t-27 -7.5q-10 0 -18 4t-22 15l-146 109l-25 -214q-1 -11 -6.5 -19.5t-14 -14.5t-19.5 -8.5t-23 -2.5 q-11 0 -22.5 2.5t-21 8.5t-15.5 14.5t-6 20.5q0 5 1.5 11.5t3.5 17.5l44 187l-163 -96q-14 -9 -22.5 -12.5t-17.5 -3.5q-13 0 -24 6t-19 16t-13 23t-5 26z" />
<glyph unicode="+" horiz-adv-x="1168" d="M170 570q0 18 6 34t17 27t27 17t35 6h284l49 288q7 43 30 64.5t60 21.5t53 -21.5t9 -64.5l-49 -288h272q32 0 49 -15t17 -45q0 -19 -6 -34.5t-17.5 -26.5t-27.5 -17t-35 -6h-277l-49 -288q-8 -43 -32 -64.5t-60 -21.5q-37 0 -53.5 21.5t-8.5 64.5l49 288h-276 q-33 0 -49.5 16t-16.5 44z" />
<glyph unicode="," horiz-adv-x="561" d="M-52 -262q0 15 7.5 27t20.5 25l31 29q18 15 38.5 39t43 58t44.5 83q-11 8 -20.5 19t-16.5 24t-11 30t-4 37q0 29 10 54t28.5 43.5t43.5 29.5t55 11q58 0 91.5 -36.5t33.5 -103.5q0 -46 -16 -93t-42.5 -92.5t-60.5 -87t-71 -75.5q-23 -20 -42.5 -34.5t-37 -23.5t-33.5 -13 t-31 -4q-29 0 -45 15t-16 39z" />
<glyph unicode="-" horiz-adv-x="942" d="M162 526q0 20 5.5 36t15.5 27t24 17t31 6h498q28 0 43.5 -15t15.5 -46q0 -20 -5.5 -36t-16 -27t-24.5 -17t-31 -6h-498q-28 0 -43 15t-15 46z" />
<glyph unicode="." horiz-adv-x="561" d="M81 109q0 29 10.5 54.5t28.5 44t43 29t55 10.5q28 0 51.5 -9.5t40.5 -26.5t26.5 -41t9.5 -52q0 -29 -10.5 -54t-29 -43.5t-43.5 -29t-54 -10.5q-28 0 -52 9.5t-40.5 26.5t-26 40.5t-9.5 51.5z" />
<glyph unicode="/" horiz-adv-x="825" d="M-132 -263q0 12 4.5 22.5t10.5 22.5l883 1663q12 24 28.5 35.5t40.5 11.5q12 0 28 -5t28.5 -14.5t21.5 -23.5t9 -32q0 -12 -4.5 -22.5t-10.5 -22.5l-883 -1663q-12 -24 -28.5 -35.5t-39.5 -11.5q-14 0 -29.5 5t-28 14.5t-21.5 23.5t-9 32z" />
<glyph unicode="0" horiz-adv-x="1241" d="M94 430q0 145 46.5 264t128.5 205t193.5 133t241.5 47q106 0 190 -31t142 -89t89 -141t31 -187q0 -145 -46.5 -264.5t-128 -205t-193.5 -133t-242 -47.5q-105 0 -189 31t-142.5 89t-89.5 141.5t-31 187.5zM280 451q0 -80 20 -139.5t57.5 -99.5t91 -60.5t121.5 -20.5 q81 0 153.5 33.5t127.5 95t87 150.5t32 200q0 79 -20 139t-57.5 100t-91 60.5t-120.5 20.5q-82 0 -154.5 -33.5t-127.5 -95.5t-87 -151t-32 -199z" />
<glyph unicode="1" horiz-adv-x="672" d="M91 866q0 16 4.5 27.5t17.5 24.5q9 9 24 19t38 21.5t54 25.5l70 30l67 27q28 11 49.5 17.5t38.5 9.5t33 3q21 0 37 -7t26 -20t13.5 -31t-0.5 -40l-155 -897q-6 -40 -30 -61t-69 -21t-65.5 21t-14.5 61l137 789l-161 -48q-18 -5 -31 -7.5t-25 -2.5q-26 0 -42 16.5 t-16 42.5z" />
<glyph unicode="2" horiz-adv-x="919" d="M-12 90q0 17 3.5 31.5t13 29t26 30t41.5 34.5l263 199l132 103q59 48 100.5 92t64 87.5t22.5 90.5q0 66 -44 104.5t-141 38.5q-50 0 -87 -7.5t-65 -16t-48.5 -16t-37.5 -7.5q-26 0 -41.5 16.5t-15.5 43.5q0 15 5.5 28.5t16.5 23.5q16 16 45.5 31t70 27t90.5 19t105 7 q85 0 148.5 -19t105 -54t62 -84t20.5 -108q0 -68 -26.5 -128.5t-76 -119t-121.5 -118.5t-163 -126l-223 -166h479q30 0 45.5 -16.5t15.5 -49.5q0 -22 -6 -38.5t-17 -28t-26.5 -17.5t-34.5 -6h-605q-46 0 -71 25t-25 65z" />
<glyph unicode="3" horiz-adv-x="940" d="M-59 -215q0 31 18.5 50t48.5 19q17 0 35.5 -7.5t45.5 -16.5t66.5 -16t98.5 -7q78 0 140.5 22.5t106 62.5t67 94t23.5 117q0 52 -18 94.5t-59 72t-107.5 45.5t-163.5 16q-35 0 -51 16q-8 9 -11.5 23.5t-2 31t7.5 32t16 25.5q8 9 22 13t36 4q107 0 183 20t124 56.5t70.5 87 t22.5 111.5q0 83 -51 131.5t-149 48.5q-51 0 -88 -7.5t-65 -16t-48.5 -16t-36.5 -7.5q-26 0 -41.5 16.5t-15.5 43.5q0 15 6 28t16 23q16 16 45.5 31t70 27t90.5 19t105 7q86 0 151.5 -21.5t109.5 -60t66 -93t22 -121.5q0 -68 -20.5 -127.5t-59 -107t-93.5 -81.5t-123 -53v-2 q51 -9 93 -36t72 -66.5t46.5 -87.5t16.5 -99q0 -95 -37.5 -178.5t-107 -146.5t-168.5 -99t-222 -36q-60 0 -107 7t-82 17t-57.5 21.5t-34.5 23.5q-11 11 -16.5 23.5t-5.5 29.5z" />
<glyph unicode="4" horiz-adv-x="1052" d="M-8 175q0 15 3.5 29.5t10 29t17 29.5t24.5 32l555 680q19 25 38.5 43t41 29.5t46.5 18t55 6.5q29 0 51.5 -8.5t36.5 -23.5t19 -35.5t0 -46.5l-124 -726h151q59 0 59 -64q0 -21 -6 -37t-16.5 -27t-26 -17t-33.5 -6h-154l-56 -326q-7 -39 -30.5 -60t-67.5 -21t-64.5 21.5 t-14.5 60.5l56 325h-475q-46 0 -71 25.5t-25 68.5zM184 232h405l111 635z" />
<glyph unicode="5" horiz-adv-x="957" d="M-49 -215q0 31 19 50t49 19q17 0 35.5 -7t46 -16t65.5 -16.5t94 -7.5q84 0 151.5 24t114.5 66.5t71.5 99.5t24.5 123q0 60 -21 108.5t-71 83.5t-131 54t-200 19q-40 0 -56.5 22.5t-8.5 64.5l112 506q10 43 34.5 62.5t70.5 19.5h506q30 0 46 -16.5t16 -49.5q0 -22 -6 -38 t-16.5 -28t-25.5 -18t-32 -6h-453l-80 -366q118 -3 212 -30t159 -76.5t99.5 -120.5t34.5 -162q0 -105 -38 -194t-110 -154t-176 -101.5t-238 -36.5q-56 0 -102.5 7t-81 17t-57.5 21.5t-34 23.5q-12 11 -17.5 23.5t-5.5 29.5z" />
<glyph unicode="6" horiz-adv-x="1089" d="M104 415q0 116 20.5 233.5t62 227t104 204.5t146.5 166t190 111.5t235 40.5q54 0 90.5 -7.5t58 -20t31 -28.5t9.5 -35q0 -15 -5.5 -27.5t-14 -22t-21.5 -15t-27 -5.5q-12 0 -25 2l-28 5q-17 2 -38.5 4t-52.5 2q-93 0 -173 -36t-145 -99.5t-113 -153t-78 -194.5 q35 24 80 43q38 16 91.5 29.5t119.5 13.5q90 0 159 -25t116 -71.5t71.5 -112t24.5 -145.5q0 -118 -38 -213.5t-105.5 -162.5t-158 -104.5t-196.5 -37.5q-194 0 -292 112t-98 322zM285 427q0 -79 15.5 -135.5t44.5 -93t71.5 -53.5t95.5 -17q59 0 112 22t93.5 66t64 108.5 t23.5 149.5q0 53 -15 96.5t-44.5 73.5t-73 46.5t-99.5 16.5q-63 0 -113.5 -17t-86.5 -37q-43 -24 -76 -53q-6 -43 -9 -85.5t-3 -87.5z" />
<glyph unicode="7" horiz-adv-x="907" d="M92 -257q0 14 5 29t15 41q46 113 109.5 243t140.5 269l163 285l182 293h-532q-30 0 -45.5 16.5t-15.5 50.5q0 22 6 38.5t17 28t26.5 17.5t35.5 6h644q22 0 38.5 -5t27.5 -15t16.5 -23.5t5.5 -30.5q0 -13 -2.5 -25.5t-7 -25.5t-12.5 -28t-20 -33q-103 -153 -195.5 -305.5 t-173 -299.5t-148.5 -285.5t-121 -262.5q-11 -26 -29.5 -36.5t-44.5 -10.5q-17 0 -32.5 5t-27 14t-18.5 22t-7 28z" />
<glyph unicode="8" horiz-adv-x="1064" d="M60 294q0 82 28.5 146t76.5 115t111 92t132 77q-39 23 -73.5 52t-60.5 65.5t-40.5 80.5t-14.5 96q0 77 32 145.5t92 120.5t146.5 83t194.5 31q85 0 150 -22.5t110 -60.5t67.5 -90t22.5 -110q0 -73 -24.5 -129t-65.5 -101t-97 -81.5t-118 -69.5q43 -24 83 -58t70.5 -75 t49 -90.5t18.5 -105.5q0 -90 -33.5 -167.5t-97.5 -134.5t-157.5 -89.5t-214.5 -32.5q-94 0 -166 24t-121.5 66.5t-74.5 99.5t-25 123zM243 320q0 -44 14.5 -80t43.5 -61.5t72.5 -39.5t100.5 -14q68 0 122 19t91.5 53t57 81t19.5 102q0 47 -17 85.5t-46.5 71.5t-70.5 60 t-87 50q-65 -34 -119.5 -66.5t-95.5 -70.5t-63 -84t-22 -106zM403 1039q0 -41 14 -73t39.5 -59.5t60.5 -51t76 -44.5q58 30 106 59t81.5 61.5t52.5 70t19 86.5q0 73 -50.5 119t-149.5 46q-57 0 -103.5 -16.5t-79 -45.5t-49.5 -68t-17 -84z" />
<glyph unicode="9" horiz-adv-x="1090" d="M10 -239q0 15 5 27.5t14 21.5t21.5 14.5t27.5 5.5t30 -3l35 -7q20 -4 46 -7t64 -3q102 0 185.5 38.5t147.5 103.5t110 153t75 188q-35 -25 -80 -43q-39 -17 -92.5 -30t-119.5 -13q-89 0 -158 25t-116.5 71.5t-71.5 112.5t-24 146q0 117 38 212.5t105 163t158 104.5 t197 37q193 0 291.5 -112t98.5 -322q0 -115 -20.5 -233t-62 -227.5t-104.5 -204.5t-147 -165.5t-190 -111t-234 -40.5q-83 0 -135.5 14.5t-73.5 34.5q-9 9 -14.5 20.5t-5.5 28.5zM296 586q0 -53 15 -96t44.5 -73t73 -46.5t98.5 -16.5q62 0 113 16t88 37q43 23 76 53 q6 43 8.5 87t2.5 89q0 79 -15.5 135t-44.5 92t-71 53t-95 17q-59 0 -112.5 -22.5t-93.5 -66t-63.5 -108.5t-23.5 -150z" />
<glyph unicode=":" horiz-adv-x="561" d="M81 109q0 29 10.5 54.5t28.5 44t43 29t55 10.5q28 0 51.5 -9.5t40.5 -26.5t26.5 -41t9.5 -52q0 -29 -10.5 -54t-29 -43.5t-43.5 -29t-54 -10.5q-28 0 -52 9.5t-40.5 26.5t-26 40.5t-9.5 51.5zM186 722q0 29 10 54t28.5 43.5t43.5 29t55 10.5q28 0 51.5 -9.5t40.5 -26 t26.5 -40.5t9.5 -52q0 -29 -10.5 -54t-29 -43.5t-43.5 -29t-54 -10.5t-52.5 9.5t-40.5 26t-26 40t-9 52.5z" />
<glyph unicode=";" horiz-adv-x="561" d="M-52 -262q0 15 7.5 27t20.5 25l31 29q18 15 38.5 39t43 58t44.5 83q-11 8 -20.5 19t-16.5 24t-11 30t-4 37q0 29 10 54t28.5 43.5t43.5 29.5t55 11q58 0 91.5 -36.5t33.5 -103.5q0 -46 -16 -93t-42.5 -92.5t-60.5 -87t-71 -75.5q-23 -20 -42.5 -34.5t-37 -23.5t-33.5 -13 t-31 -4q-29 0 -45 15t-16 39zM186 722q0 29 10 54t28.5 43.5t43.5 29t55 10.5q28 0 51.5 -9.5t40.5 -26t26.5 -40.5t9.5 -52q0 -29 -10.5 -54t-29 -43.5t-43.5 -29t-54 -10.5t-52.5 9.5t-40.5 26t-26 40t-9 52.5z" />
<glyph unicode="&#x3c;" horiz-adv-x="1168" d="M231 572q0 27 14.5 50t52.5 45l567 340q14 8 26 11t25 3q14 0 27 -6t22.5 -16t15 -23t5.5 -27q0 -21 -10.5 -37.5t-33.5 -29.5l-505 -303l382 -291q23 -17 30.5 -32.5t7.5 -33.5q0 -16 -6.5 -30.5t-18 -26t-27 -18.5t-33.5 -7q-14 0 -28 5.5t-30 16.5l-445 336 q-20 16 -29 33.5t-9 40.5z" />
<glyph unicode="=" horiz-adv-x="1168" d="M158 381q0 19 6 34.5t17 27t26.5 17.5t34.5 6h670q33 0 50 -15.5t17 -43.5q0 -19 -6.5 -35t-17.5 -27.5t-27.5 -17.5t-36.5 -6h-669q-33 0 -48.5 16t-15.5 44zM220 759q0 19 6 34.5t18 26.5t27.5 17t35.5 6h669q66 0 66 -60q0 -19 -6 -34.5t-17 -26.5t-27.5 -17t-35.5 -6 h-669q-67 0 -67 60z" />
<glyph unicode="&#x3e;" horiz-adv-x="1168" d="M208 218q0 22 9.5 38.5t32.5 29.5l506 303l-382 292q-21 16 -29 31.5t-8 33.5q0 15 6.5 30t17.5 26.5t27 18.5t33 7q15 0 28.5 -4.5t29.5 -17.5l446 -337q20 -16 28.5 -33t8.5 -40q0 -27 -14.5 -50t-53.5 -46l-565 -339q-13 -8 -25.5 -11t-25.5 -3q-15 0 -27.5 6t-22 16 t-15 22.5t-5.5 26.5z" />
<glyph unicode="?" horiz-adv-x="796" d="M154 104q0 29 11 54.5t29.5 44t44 29t55.5 10.5q28 0 51 -9t39.5 -25.5t25.5 -39.5t9 -50q0 -29 -10.5 -54t-29.5 -43.5t-44 -29t-55 -10.5q-28 0 -51 9t-39.5 25.5t-26 39t-9.5 49.5zM209 1360q0 16 5 28.5t20 27.5q14 14 40 28t62 25.5t81 18.5t96 7q85 0 149.5 -19 t108.5 -55.5t66.5 -89.5t22.5 -120q0 -69 -19 -123t-50 -98t-70.5 -81t-80.5 -71l-81 -66q-40 -33 -70.5 -70.5t-49.5 -81t-19 -97.5q0 -24 1.5 -37t1.5 -24q0 -34 -23.5 -55.5t-64.5 -21.5q-44 0 -70 28.5t-26 93.5q0 70 18.5 124t48.5 98.5t68.5 80.5t78.5 69l78 66 q38 32 68 67.5t48.5 77t18.5 93.5q0 76 -48 119.5t-146 43.5q-48 0 -80.5 -6.5t-56 -14.5t-40 -14.5t-33.5 -6.5q-24 0 -38.5 16t-14.5 40z" />
<glyph unicode="@" horiz-adv-x="2074" d="M120 373q0 164 38.5 311.5t110.5 273t176 226.5t234 172t285 109.5t331 38.5q172 0 303 -44t220.5 -123.5t134.5 -190t45 -243.5q0 -118 -21 -221.5t-59.5 -189.5t-92 -153.5t-117.5 -114t-136.5 -71t-148.5 -24.5q-51 0 -88 10.5t-62 30t-38.5 46.5t-18.5 60l-4 2 q-35 -42 -81 -75q-38 -28 -94.5 -51t-127.5 -23q-67 0 -121 22t-93.5 64t-61 102.5t-21.5 137.5q0 125 43 230.5t120 181.5t185 118.5t238 42.5q51 0 95.5 -6.5t79.5 -16t59.5 -22t37.5 -22.5q20 -20 24 -39.5t-4 -51.5l-113 -439q-12 -46 -13 -77.5t8 -50.5t29 -27.5 t50 -8.5q38 0 81 15t84.5 46.5t80 81t67 117.5t46 155.5t17.5 196.5q0 111 -34 199.5t-103 149.5t-174 94t-247 33t-270 -32.5t-235.5 -93t-194.5 -146.5t-148 -193t-93.5 -232.5t-32.5 -264.5q0 -142 38 -250.5t114.5 -182t190.5 -111.5t267 -38q97 0 160 11t105 24 t67.5 24t46.5 11q28 0 43 -17.5t15 -41.5q0 -18 -7 -34t-26 -31q-18 -14 -54 -30.5t-90 -30.5t-125 -23.5t-159 -9.5q-185 0 -327.5 49t-239 140t-145.5 222.5t-49 298.5zM792 478q0 -108 42 -155.5t118 -47.5q28 0 54.5 6.5t49.5 17.5t43.5 25t37.5 28q40 34 72 78l106 416 q-14 10 -37 18q-19 8 -48.5 14t-69.5 6q-77 0 -144.5 -29.5t-117 -82.5t-78 -128t-28.5 -166z" />
<glyph unicode="A" horiz-adv-x="1219" d="M-19 69q0 13 4.5 25.5t15.5 34.5l589 1125q8 16 15 29l14 23q7 11 14.5 20.5t17.5 19.5q19 18 44.5 28t60.5 10q33 0 55 -7.5t38 -23.5q17 -17 24.5 -42.5t13.5 -60.5l203 -1129q4 -23 5 -32.5t1 -17.5q0 -18 -8 -32.5t-22 -25t-33 -16.5t-39 -6q-21 0 -37 6t-28 18 q-11 11 -15.5 28t-8.5 37l-48 286h-541l-155 -308l-14 -28q-5 -9 -13 -17q-10 -10 -24 -16t-34 -6q-18 0 -35 5.5t-30.5 16t-21.5 25t-8 31.5zM390 517h443l-78 474q-8 41 -13 77t-8 64q-4 32 -7 59h-4l-27 -60l-32 -63l-37 -77z" />
<glyph unicode="B" horiz-adv-x="1184" d="M119 94l207 1200q7 42 31 63t67 21h276q111 0 191.5 -22.5t132 -62t76 -94.5t24.5 -119q0 -69 -21 -126t-58.5 -101t-88.5 -76t-111 -52v-2q54 -11 95 -33.5t69.5 -56t43.5 -77t15 -94.5q0 -96 -38.5 -180.5t-116 -147t-194 -98.5t-273.5 -36h-251q-46 0 -65 24 q-13 17 -13 44q0 12 2 26zM311 151h167q103 0 178 21.5t124 60t72 91t23 114.5q0 46 -15.5 82.5t-51.5 62.5t-94 40t-144 14h-175zM421 787h158q90 0 156.5 20t110.5 55t65 83t21 105q0 40 -14 73t-44.5 56t-81 35.5t-122.5 12.5h-173z" />
<glyph unicode="C" horiz-adv-x="1169" d="M116 514q0 134 27.5 252t77 216t119 174.5t153.5 129.5t180.5 81t200.5 28q59 0 109 -7t89 -19t67 -27.5t44 -31.5q13 -14 19 -27.5t6 -31.5q0 -31 -20 -52.5t-55 -21.5q-21 0 -42.5 9.5t-52 21t-75.5 21t-112 9.5q-105 0 -203 -48t-173.5 -138t-121 -220t-45.5 -294 q0 -96 25.5 -170t72.5 -124t114 -76t149 -26q67 0 115.5 10.5t83 22t58 22t42.5 10.5q28 0 43 -17t15 -42q0 -19 -6 -35t-20 -30q-22 -21 -58 -39t-83.5 -31.5t-104.5 -21t-118 -7.5q-121 0 -217.5 36t-164 104.5t-103 166.5t-35.5 223z" />
<glyph unicode="D" horiz-adv-x="1366" d="M119 94l207 1200q7 42 31 63t67 21h316q144 0 252 -36t180.5 -104t108.5 -166t36 -224q0 -191 -60.5 -347t-170.5 -267.5t-263.5 -172.5t-338.5 -61h-289q-46 0 -65 24q-13 17 -13 44q0 12 2 26zM313 154h202q134 0 246 46t193 132.5t126 211t45 281.5q0 197 -103 298 t-314 101h-210z" />
<glyph unicode="E" horiz-adv-x="1049" d="M117 68q0 9 1 18t3 19l205 1189q7 42 31 63t67 21h611q30 0 46 -16.5t16 -49.5q0 -21 -6 -37.5t-16.5 -28t-25.5 -17.5t-32 -6h-519l-76 -438h440q30 0 46 -16.5t16 -49.5q0 -20 -5.5 -36.5t-16.5 -28t-25.5 -17.5t-32.5 -6h-449l-82 -476h514q30 0 46 -17t16 -50 q0 -20 -5.5 -36.5t-16.5 -28t-26 -17.5t-32 -6h-614q-39 0 -58.5 17t-19.5 51z" />
<glyph unicode="F" horiz-adv-x="991" d="M114 59q0 7 1.5 16.5t4.5 24.5l206 1194q7 42 31 63t67 21h602q30 0 46 -16.5t16 -49.5q0 -21 -6 -37.5t-16.5 -28t-25.5 -17.5t-33 -6h-509l-80 -460h421q29 0 45 -16.5t16 -49.5q0 -21 -5.5 -37.5t-16 -27.5t-25.5 -17t-33 -6h-429l-91 -532q-7 -40 -31 -61.5 t-71 -21.5q-84 0 -84 65z" />
<glyph unicode="G" horiz-adv-x="1348" d="M118 525q0 129 28.5 243.5t81 211.5t126.5 174t166.5 130.5t200.5 82t227 28.5q64 0 119 -8.5t98.5 -22.5t75.5 -31t50 -36q14 -13 19.5 -27t5.5 -31q0 -32 -20 -53.5t-55 -21.5q-22 0 -45 11.5t-57.5 25.5t-87 25.5t-133.5 11.5q-127 0 -237.5 -49t-193 -138.5 t-130 -217t-47.5 -283.5q0 -202 106 -308t309 -106q60 0 104.5 6t74.5 15q35 9 60 21l67 393h-231q-29 0 -45 16.5t-16 48.5q0 20 5.5 36.5t16 27.5t25.5 17t32 6h331q43 0 61 -23q13 -16 13 -42q0 -12 -2 -25l-76 -442q-6 -32 -16.5 -55t-27.5 -41q-21 -20 -60 -40 t-93 -36.5t-121.5 -27t-145.5 -10.5q-136 0 -241 37t-176.5 106.5t-108.5 170.5t-37 230z" />
<glyph unicode="H" horiz-adv-x="1401" d="M114 59q0 7 1.5 16.5t4.5 24.5l207 1201q7 40 31 61.5t71 21.5t68 -21q16 -16 16 -43q0 -9 -2 -19l-89 -515h655l89 515q6 40 30.5 61.5t70.5 21.5q84 0 84 -65q0 -7 -1.5 -16.5t-3.5 -24.5l-208 -1201q-7 -40 -31 -61.5t-71 -21.5t-68 21q-16 16 -16 43q0 9 2 19l95 554 h-654l-95 -554q-7 -40 -31 -61.5t-71 -21.5q-84 0 -84 65z" />
<glyph unicode="I" horiz-adv-x="563" d="M114 59q0 7 1.5 16.5t4.5 24.5l207 1202q7 40 31 61t71 21q84 0 84 -65q0 -7 -2 -16.5t-4 -24.5l-207 -1201q-7 -40 -31 -61.5t-71 -21.5q-84 0 -84 65z" />
<glyph unicode="J" horiz-adv-x="570" d="M-178 -318q0 24 12.5 40.5t40.5 28.5q50 25 91 53.5t73 70.5t55 101.5t38 147.5l203 1178q7 40 31 61t71 21q84 0 84 -65q0 -7 -2 -16.5t-4 -24.5l-201 -1162q-14 -80 -31.5 -138.5t-39 -102t-46.5 -76t-53 -60.5q-29 -29 -60.5 -52t-62.5 -39t-61 -24.5t-57 -8.5 q-40 0 -60.5 18.5t-20.5 48.5z" />
<glyph unicode="K" horiz-adv-x="1126" d="M114 59q0 7 1.5 16.5t4.5 24.5l207 1202q7 40 31 61t71 21t68 -21q16 -16 16 -43q0 -9 -2 -19l-93 -539l615 579q7 7 12 11l8 8q4 3 7 5l6 5q11 8 23 12.5t25 4.5q19 0 35.5 -7t30 -19.5t21.5 -28.5t8 -34q0 -13 -4.5 -24t-11.5 -20.5t-15 -17.5l-17 -15l-557 -500 l383 -563q14 -19 22.5 -36t8.5 -36q0 -20 -9.5 -37.5t-24 -30.5t-33.5 -20t-38 -7q-20 0 -35 6.5t-26 17.5l-14 16q-6 8 -17 27l-414 636l-107 -617q-7 -40 -31 -61.5t-71 -21.5q-84 0 -84 65z" />
<glyph unicode="L" horiz-adv-x="971" d="M117 68q0 9 1 18t3 19l206 1197q7 40 31 61t71 21t68 -21q16 -16 16 -43q0 -9 -2 -19l-198 -1144h498q30 0 46.5 -17t16.5 -51q0 -20 -6 -37t-16.5 -28.5t-26 -17.5t-32.5 -6h-598q-39 0 -58.5 17t-19.5 51z" />
<glyph unicode="M" horiz-adv-x="1760" d="M56 62q0 8 1.5 16t6.5 26l319 1160q9 31 22 54t32 37.5t44.5 21.5t59.5 7q32 0 55 -7.5t38.5 -21.5t24 -35.5t12.5 -50.5l133 -880q6 -38 10 -73l7 -60q4 -31 5 -57h4l24 57l27 60q16 35 35 73l436 877q15 30 31 52.5t35.5 37t43.5 21.5t56 7q34 0 57.5 -7.5t39.5 -23.5 q25 -25 25 -74v-6v-8q0 -5 -0.5 -13t-1.5 -20l-81 -1141q-1 -15 -2.5 -26t-4 -19.5t-6 -15t-10.5 -13.5q-12 -12 -31.5 -19t-41.5 -7q-36 0 -63 17t-27 53q0 11 0.5 21.5t1.5 22.5l74 854q3 42 8 80.5t10 67.5q5 34 11 65h-4l-513 -1035q-17 -36 -33 -64.5t-31 -43.5 q-8 -8 -17.5 -14.5t-21.5 -11t-26.5 -7t-33.5 -2.5q-28 0 -48 7t-34 22q-17 16 -24 46t-12 70l-155 1033h-4q-6 -30 -14 -64l-15 -67q-8 -38 -19 -80l-232 -886q-6 -24 -11 -36.5t-15 -22.5t-26.5 -17.5t-40.5 -7.5q-38 0 -64 18.5t-26 52.5z" />
<glyph unicode="N" horiz-adv-x="1460" d="M114 59q0 7 1.5 16.5t4.5 24.5l199 1163q5 31 16.5 54.5t28.5 38t41 21.5t54 7q33 0 55.5 -8t39.5 -25q19 -19 36 -52l39 -84l350 -779q17 -38 32 -75l26 -67l24 -65l4 2q3 35 7 75q3 34 8.5 77.5t13.5 89.5l139 831q6 40 30 60t67 20q38 0 59 -16.5t21 -48.5 q0 -8 -1.5 -17t-3.5 -24l-200 -1163q-6 -31 -17 -54.5t-28 -38t-40.5 -21.5t-54.5 -7q-33 0 -55.5 8t-38.5 25q-20 19 -36.5 52.5t-38.5 83.5l-351 779q-17 38 -32 76l-26 66l-23 65l-5 -2q-3 -35 -7 -75q-3 -34 -8.5 -77.5t-12.5 -89.5l-139 -831q-7 -40 -30.5 -60 t-66.5 -20q-38 0 -59.5 16.5t-21.5 48.5z" />
<glyph unicode="O" horiz-adv-x="1453" d="M118 517q0 135 27.5 253t77 215.5t118.5 174.5t153 129.5t180.5 80.5t200.5 28q121 0 218 -37.5t165 -107t104.5 -168.5t36.5 -223q0 -135 -27 -253t-76.5 -215.5t-119 -174.5t-153.5 -129.5t-180.5 -80.5t-200.5 -28q-120 0 -217 37t-165.5 106.5t-105 168.5t-36.5 224z M310 541q0 -98 26 -173t73 -126t113 -77.5t146 -26.5q104 0 201.5 47.5t172.5 138t120 220.5t45 294q0 98 -26 173t-72.5 126t-113 77.5t-146.5 26.5q-104 0 -201 -48t-172 -138t-120.5 -220t-45.5 -294z" />
<glyph unicode="P" horiz-adv-x="1097" d="M116 77l210 1217q7 42 31 63t67 21h269q108 0 186.5 -24t130.5 -68t77.5 -105.5t25.5 -136.5q0 -109 -39.5 -201t-113.5 -159.5t-181.5 -105.5t-244.5 -38h-155l-40 -232l-40 -231q-6 -40 -30.5 -61.5t-71.5 -21.5q-45 0 -67 21q-17 15 -16 42q0 9 2 20zM405 692h160 q84 0 149.5 24t111.5 67t70 103t24 132q0 50 -14 88.5t-45 65t-80 40t-118 13.5h-166z" />
<glyph unicode="Q" horiz-adv-x="1453" d="M118 517q0 135 27.5 253t77 215.5t118.5 174.5t153 129.5t180.5 80.5t200.5 28q121 0 218 -37.5t165 -107t104.5 -168.5t36.5 -223q0 -177 -46.5 -324.5t-128.5 -259.5t-194 -184.5t-244 -97.5q27 -60 70 -103.5t98.5 -73.5t120.5 -47.5t137 -24.5q37 -3 54.5 -20.5 t17.5 -45.5q0 -19 -9 -37t-27 -31t-47 -21t-70 -8q-77 0 -157.5 26.5t-150.5 77t-124.5 124.5t-79.5 170q-114 3 -206.5 40.5t-157.5 106.5t-101 166.5t-36 221.5zM310 541q0 -99 26 -174.5t73 -127t113 -77.5t146 -26q104 0 201.5 47.5t172.5 138t120 221t45 295.5 q0 98 -26 173t-72.5 126t-113 77.5t-146.5 26.5q-104 0 -201 -48t-172 -138t-120.5 -220t-45.5 -294z" />
<glyph unicode="R" horiz-adv-x="1152" d="M116 77l210 1217q7 42 31 63t67 21h273q113 0 195.5 -24t136.5 -67t80 -102.5t26 -129.5q0 -88 -31 -161.5t-85 -129t-126 -92.5t-155 -54l224 -473q10 -21 15 -35t5 -29q0 -19 -8.5 -35.5t-23 -28.5t-33 -19t-37.5 -7t-34.5 6.5t-26.5 17.5q-10 10 -17 22.5t-15 30.5 l-234 527h-165l-90 -518q-6 -40 -30 -61.5t-71 -21.5t-67 21q-15 16 -16 42q0 10 2 20zM414 747h165q90 0 158 22t113.5 59.5t68.5 89t23 110.5q0 45 -15 82t-47.5 62.5t-84.5 39t-127 13.5h-171z" />
<glyph unicode="S" horiz-adv-x="1059" d="M61 130q0 31 20 52.5t55 21.5q22 0 44.5 -10.5t55.5 -23t81 -23t120 -10.5q77 0 134.5 17.5t95 49.5t56 77t18.5 99q0 50 -22.5 88.5t-60 69.5t-84.5 58l-98 55q-50 27 -97.5 58.5t-85 72.5t-60 94t-22.5 123q0 85 31.5 158t94 126t154.5 83.5t212 30.5q53 0 97 -6.5 t80 -17.5t62.5 -25.5t41.5 -29.5q14 -14 19.5 -27.5t5.5 -30.5q0 -31 -20 -52.5t-55 -21.5q-21 0 -41.5 9t-49 19.5t-69 19t-99.5 8.5q-73 0 -125 -16t-85 -44.5t-48.5 -67.5t-15.5 -86q0 -49 23 -85.5t60 -67t85 -56.5l98 -54q49 -28 97 -60t85 -73.5t60 -96t23 -126.5 q0 -94 -33 -172.5t-99 -135t-164.5 -88t-227.5 -31.5q-65 0 -117.5 8t-92.5 21t-68.5 29.5t-43.5 31.5q-14 14 -19.5 27.5t-5.5 30.5z" />
<glyph unicode="T" horiz-adv-x="1093" d="M163 1289q0 20 6 37t17 28.5t26 17.5t33 6h898q30 0 46.5 -16.5t16.5 -50.5q0 -21 -6 -38t-17 -28.5t-26 -17.5t-33 -6h-362l-198 -1144q-6 -40 -30.5 -61.5t-70.5 -21.5q-47 0 -68 21q-16 16 -16 45q0 8 1 17l198 1144h-351q-31 0 -47.5 17t-16.5 51z" />
<glyph unicode="U" horiz-adv-x="1393" d="M173 400q0 56 8 114.5t19 119.5l115 667q7 40 31 61.5t71 21.5t68 -21q16 -16 16 -43q0 -9 -2 -19l-117 -678q-5 -29 -9 -55.5t-7 -50.5t-5 -46t-2 -43q0 -77 21 -132t58.5 -90t87.5 -51.5t110 -16.5q71 0 136.5 24.5t119 74t92 126.5t56.5 182l130 756q7 40 31 61.5 t71 21.5t68 -21q16 -16 16 -43q0 -9 -2 -19l-129 -748q-26 -146 -80 -253.5t-132.5 -178t-179.5 -105.5t-222 -35q-106 0 -187 27t-137 79.5t-85 131t-29 181.5z" />
<glyph unicode="V" horiz-adv-x="1183" d="M187 1307q0 18 8.5 33.5t22 25.5t31.5 15.5t37 5.5q22 0 37.5 -6.5t25.5 -15.5q5 -6 8 -12t6 -15.5t6 -23.5t6 -35l135 -885q7 -41 11 -78l7 -63q3 -32 5 -60h4l25 60l29 63l37 78l443 901l14 29q6 12 10.5 20t8.5 13t8 9q10 11 24.5 16t29.5 5q19 0 36.5 -6t31.5 -17 t22.5 -25.5t8.5 -30.5q0 -8 -2 -14.5t-5 -15t-8 -19.5l-14 -28l-565 -1105q-16 -32 -29.5 -55t-31.5 -41t-43.5 -27t-60.5 -9q-31 0 -52 7t-38 23q-16 17 -23.5 41t-13.5 61l-185 1124q-4 24 -5.5 37t-1.5 20z" />
<glyph unicode="W" horiz-adv-x="1864" d="M209 1309q0 18 8 32.5t22 24.5t31.5 15.5t36.5 5.5q21 0 38 -6t28 -17q7 -7 11 -15.5t6 -19t3 -24.5t3 -34l68 -879q3 -42 4.5 -78.5t2.5 -64.5v-59h4l20 58q11 27 24.5 63.5t32.5 80.5l380 882q13 32 28.5 54t33 35t39 18.5t47.5 5.5q51 0 83 -24t37 -89l74 -878 q3 -41 4.5 -77.5t3.5 -65.5q0 -33 1 -63h4q10 30 23 63q10 29 25 65l30 76l374 902l12 28q5 12 9.5 20t8 13t7.5 9q10 10 24.5 15.5t32.5 5.5q15 0 32.5 -4.5t31 -14.5t22.5 -24t9 -33q0 -5 -1 -11t-3 -13.5t-6 -17.5t-11 -25l-480 -1105q-9 -19 -15.5 -34.5t-13.5 -28.5 t-15 -24t-16 -20q-10 -9 -20.5 -15.5t-23.5 -12t-29 -8t-35 -2.5q-31 0 -53 7t-39 24q-10 9 -16 21t-9.5 26.5t-6 31t-3.5 37.5l-71 840q-4 37 -5.5 72.5t-3.5 64.5q-1 33 -2 62h-4l-22 -63l-24 -63q-14 -36 -31 -73l-363 -844l-14 -34q-7 -15 -14.5 -28t-15 -23.5 t-15.5 -19.5q-20 -19 -45 -28.5t-62 -9.5q-33 0 -55 7t-38 24q-10 9 -16 20.5t-9.5 26t-6 31.5t-3.5 38l-100 1115q-2 25 -2.5 35t-0.5 18z" />
<glyph unicode="X" horiz-adv-x="1175" d="M-4 80q0 11 3.5 21t9 19t13.5 18l14 16l476 553l-281 517q-5 9 -9 17t-7.5 16t-5 16t-1.5 17q0 21 9.5 39.5t25 31t34 19.5t37.5 7q18 0 31.5 -5.5t23.5 -15.5q9 -9 15 -18.5t13 -22.5l248 -484l413 509q16 21 33 29t35 8q19 0 36 -7.5t30.5 -19.5t22 -28t8.5 -34 q0 -11 -3.5 -21t-9 -19t-12.5 -18l-15 -16l-452 -522l298 -552q5 -10 9.5 -18t7.5 -16t5 -15.5t2 -16.5q0 -21 -10 -38t-25.5 -29.5t-34.5 -19t-36 -6.5q-21 0 -35 6.5t-24 16.5q-8 9 -14 17.5t-12 22.5l-265 515l-436 -541q-16 -20 -32 -28.5t-35 -8.5q-18 0 -35.5 7.5 t-31.5 19.5t-22.5 28t-8.5 34z" />
<glyph unicode="Y" horiz-adv-x="1088" d="M166 1296q0 20 8.5 36.5t23.5 28.5t33.5 19t39.5 7q18 0 32 -5.5t24 -15.5q9 -9 14.5 -20.5t16.5 -38.5l184 -460l15 -40q7 -19 12 -35q5 -18 10 -34h4l23 35l25 36l30 43l346 477q9 13 15.5 21.5t13.5 14.5q10 11 25 16.5t30 5.5q18 0 35 -6.5t30.5 -18.5t21.5 -27.5 t8 -33.5q0 -8 -2 -15.5t-5.5 -14.5t-8.5 -14.5t-11 -15.5l-513 -667l-86 -497q-7 -40 -31 -61.5t-71 -21.5t-68 21q-16 16 -16 43q0 9 2 19l86 499l-277 656q-10 24 -14.5 37t-4.5 27z" />
<glyph unicode="Z" horiz-adv-x="1023" d="M16 90q0 14 3 26t9 26t17 29l25 35l763 1015h-530q-31 0 -47 17t-16 51q0 20 6 37t16.5 28.5t26 17.5t32.5 6h651q23 0 41 -6.5t30 -18t18.5 -28.5t6.5 -37q0 -14 -3 -26.5t-9.5 -26t-17.5 -29.5l-24 -34l-764 -1015h570q31 0 47 -17t16 -51q0 -20 -6 -37t-16.5 -28.5 t-26 -17.5t-32.5 -6h-690q-23 0 -41 6.5t-30.5 18t-18.5 28t-6 37.5z" />
<glyph unicode="[" horiz-adv-x="626" d="M43 -298q0 8 0.5 15t2.5 16l297 1711q6 39 27.5 57.5t60.5 18.5h240q28 0 42.5 -15.5t14.5 -44.5q0 -19 -5 -34.5t-15 -26t-24 -16t-30 -5.5h-154l-277 -1597h147q28 0 42.5 -15t14.5 -45q0 -19 -5 -34t-15 -25.5t-24 -16t-30 -5.5h-241q-34 0 -51.5 16t-17.5 46z" />
<glyph unicode="\" horiz-adv-x="826" d="M222 1413q0 19 8.5 33t21.5 24t29 15t31 5q33 0 50 -17t22 -44l304 -1648l4 -25q2 -9 2 -15q0 -19 -8 -33.5t-21.5 -24.5t-29.5 -14.5t-30 -4.5q-34 0 -51 16.5t-22 43.5l-304 1648q-3 18 -4.5 26t-1.5 15z" />
<glyph unicode="]" horiz-adv-x="626" d="M-76 -301q0 20 5 35t15 25.5t24 16t30 5.5h155l276 1597h-147q-28 0 -42.5 15t-14.5 45q0 19 5 34t15 26t24 16.5t30 5.5h241q34 0 51.5 -16.5t17.5 -46.5q0 -8 -0.5 -15t-2.5 -16l-297 -1710q-6 -40 -27.5 -58t-60.5 -18h-240q-28 0 -42.5 15t-14.5 44z" />
<glyph unicode="^" horiz-adv-x="1168" d="M201 772q0 13 4 25.5t15 28.5l400 509q13 17 24.5 28.5t24 19.5t25 11.5t25.5 3.5q30 0 50.5 -14.5t35.5 -48.5l226 -522q4 -12 6 -20t2 -17q0 -17 -7 -31t-17.5 -24t-25 -16t-30.5 -6q-23 0 -41 11t-31 37l-195 447l-352 -452q-16 -19 -33 -27t-36 -8q-14 0 -26.5 4.5 t-22 13t-15.5 20.5t-6 27z" />
<glyph unicode="_" horiz-adv-x="1168" d="M-166 -454q0 19 5 35.5t15.5 27.5t24.5 17t31 6h1036q28 0 43.5 -14t15.5 -44q0 -20 -5.5 -36t-15.5 -27t-24 -17t-31 -6h-1036q-28 0 -43.5 14t-15.5 44z" />
<glyph unicode="`" horiz-adv-x="1024" d="M496 1430q0 18 9.5 34.5t24.5 29.5t33 21t36 8t30 -7.5t21 -22.5l137 -248q6 -10 8 -17.5t2 -16.5q0 -13 -6 -25t-16 -20.5t-23.5 -14t-27.5 -5.5q-15 0 -25.5 6t-20.5 18l-162 217q-8 10 -14 20t-6 23z" />
<glyph unicode="a" d="M84 370q0 155 44.5 276.5t125.5 206t194 129t250 44.5q65 0 117 -8.5t90.5 -21t64 -26.5t36.5 -25q7 -6 11.5 -14t7.5 -18t3 -23t-3 -31l-93 -537q-7 -38 -12 -69l-8 -57q-3 -26 -4.5 -46.5t-1.5 -36.5t1 -27t1 -25q0 -30 -19.5 -49t-54.5 -19q-28 0 -46 11.5t-28.5 32 t-14.5 49.5q-2 17 -2 35q0 14 1 29h-3q-35 -47 -83 -84q-21 -16 -46.5 -31.5t-56 -27t-65.5 -18.5t-74 -7q-74 0 -135 25t-105 74t-68 121.5t-24 167.5zM271 395q0 -69 13.5 -119t39 -82t61 -46.5t79.5 -14.5q32 0 61.5 8.5t56.5 22t50 31.5t42 36q45 44 80 100l88 506 q-19 11 -44 21q-21 7 -54 14t-78 7q-83 0 -155 -31.5t-125 -93t-84 -151.5t-31 -208z" />
<glyph unicode="b" d="M106 117q0 13 3 31l216 1253q6 39 30 60.5t69 21.5q46 1 66 -21q15 -16 16 -42q0 -9 -2 -19l-66 -385q-6 -35 -13 -68t-17 -70h3q33 41 79 74q20 14 44 27t52.5 24t61 17t70.5 6q74 0 135 -25t105 -74t68 -122t24 -167q0 -155 -45 -277t-125.5 -206t-193.5 -129t-250 -45 q-63 0 -115 9t-91.5 21.5t-65.5 26t-36 25.5q-7 6 -12 13.5t-7.5 17.5t-2.5 23zM291 170q18 -12 44 -21q22 -8 55 -14.5t77 -6.5q83 0 155 31t125.5 92.5t84.5 151.5t31 209q0 70 -14 119.5t-39 81.5t-61 47t-79 15q-33 0 -63 -8.5t-56.5 -22.5t-49 -32t-41.5 -37 q-45 -43 -80 -98z" />
<glyph unicode="c" horiz-adv-x="905" d="M81 389q0 141 45.5 258t124.5 201.5t184.5 131t226.5 46.5q78 0 132.5 -19t79.5 -45q13 -12 18.5 -26t5.5 -29t-5 -28t-14 -22.5t-22.5 -15t-29.5 -5.5q-19 0 -34 6.5t-35.5 14t-49 14.5t-72.5 7q-70 0 -136 -33t-117.5 -93.5t-83 -146.5t-31.5 -192q0 -138 68.5 -209 t188.5 -71q43 0 73.5 6t53.5 13l40 14q17 6 32 6q25 0 40 -16t15 -40q0 -19 -6 -33t-20 -28q-27 -27 -94 -50.5t-169 -23.5q-95 0 -170.5 28.5t-129 81.5t-81.5 128.5t-28 169.5z" />
<glyph unicode="d" d="M84 370q0 155 44.5 276.5t125.5 206t194 129t250 44.5q38 0 69.5 -4t53.5 -8q27 -6 49 -12l3 1q4 31 9 63l10 66l47 269q7 39 31 60.5t69 21.5q45 1 65 -21q15 -16 16 -42q0 -9 -2 -19l-186 -1079q-7 -38 -12 -69l-8 -57q-3 -26 -4.5 -46.5t-1.5 -36.5t1 -27t1 -25 q0 -30 -19.5 -49t-54.5 -19q-28 0 -46 11.5t-28.5 32t-14.5 49.5q-2 17 -2 35q0 14 1 29h-3q-35 -47 -83 -84q-21 -16 -46.5 -31.5t-56 -27t-65.5 -18.5t-74 -7q-74 0 -135 25t-105 74t-68 121.5t-24 167.5zM271 395q0 -69 13.5 -119t39 -82t61 -46.5t79.5 -14.5 q32 0 62 8.5t56.5 22t49.5 31.5t42 36q45 44 80 100l88 506q-19 11 -44 21q-21 7 -54 14t-78 7q-83 0 -155 -31.5t-125 -93t-84 -151.5t-31 -208z" />
<glyph unicode="e" horiz-adv-x="1024" d="M81 375q0 150 44 270.5t120.5 205t179.5 130t221 45.5q77 0 135.5 -19t97.5 -52t59 -78.5t20 -97.5q0 -89 -42 -157.5t-128 -113.5q-86 -44 -216 -66q-110 -18 -251 -19q-26 0 -54 1q-1 -14 -1 -28q0 -50 12 -92q15 -54 49 -92t87 -59t124 -21q55 0 94 8t67 17t47.5 17 t37.5 8q26 0 40.5 -15.5t14.5 -39.5q0 -19 -6 -33.5t-18 -27.5q-15 -15 -44.5 -30t-69 -27.5t-89.5 -20t-106 -7.5q-105 0 -184.5 28.5t-133 80.5t-80.5 124.5t-27 160.5zM283 559q37 -1 72 -2q83 0 148 9q93 12 154 38.5t90.5 65.5t29.5 88q0 58 -37 91.5t-118 33.5 q-57 0 -110 -20.5t-98 -61.5t-79 -102t-52 -140z" />
<glyph unicode="f" horiz-adv-x="641" d="M-284 -392q0 16 5.5 29t14.5 22.5t21.5 14t27.5 4.5q13 0 25 -3l24 -7q13 -3 29.5 -6.5t40.5 -3.5q33 0 64 11t57 38t46 71t31 111l169 974h-104q-29 0 -44 15t-15 46q0 20 5.5 35.5t16 26t24.5 16.5t31 6h111l21 120q16 92 49 160.5t81.5 113.5t112 67.5t138.5 22.5 q66 0 104.5 -14.5t55.5 -30.5q10 -10 16 -23t6 -29q0 -17 -5 -29.5t-15 -22t-22.5 -14.5t-26.5 -5t-25 3.5t-24.5 7t-31 7t-41.5 3.5q-76 0 -126 -55t-69 -170l-19 -112h167q29 0 44 -15.5t15 -46.5q0 -20 -5.5 -35.5t-16 -26t-24.5 -16t-31 -5.5h-174l-172 -990 q-18 -102 -54 -171.5t-86 -111.5t-111.5 -60.5t-129.5 -18.5q-66 0 -104 14t-55 31q-11 10 -16.5 23t-5.5 29z" />
<glyph unicode="g" d="M29 -369q0 16 5 28.5t13.5 22t21.5 14.5t28 5q17 0 37.5 -7t48.5 -15t66.5 -15t91.5 -7q76 0 136 20.5t104 64.5t74 113t47 166l6 30q2 14 5 26t5.5 25t7.5 28h-3q-34 -42 -80 -75q-40 -28 -96.5 -50.5t-130.5 -22.5t-135 25t-105 74t-68 121.5t-24 167.5 q0 155 44.5 276.5t125.5 206t194 129t250 44.5q64 0 116 -8.5t91 -21t64.5 -26.5t36.5 -25q7 -6 11.5 -14t7.5 -18t3 -23t-3 -31l-142 -824q-26 -146 -73.5 -247t-117 -163t-162 -89.5t-207.5 -27.5q-107 0 -176.5 21t-93.5 46q-13 12 -18.5 25.5t-5.5 30.5zM271 395 q0 -69 13.5 -119t39 -82t61 -46.5t79.5 -14.5q32 0 61.5 8.5t56.5 22t50 31.5t42 36q45 44 80 100l88 506q-19 11 -44 21q-21 7 -53.5 14t-77.5 7q-83 0 -155.5 -31.5t-125.5 -93t-84 -151.5t-31 -208z" />
<glyph unicode="h" horiz-adv-x="1176" d="M97 76l229 1325q6 39 30 60.5t69 21.5q45 1 66 -21q16 -16 16 -43q0 -9 -2 -18l-66 -385l-13 -68q-7 -33 -17 -70h3q33 41 80 74q20 14 45 27t54.5 24t63.5 17t73 6q75 0 134 -20.5t99.5 -60t62 -96.5t21.5 -130q0 -39 -6.5 -89.5t-16.5 -105.5l-22 -114l-22 -113 q-11 -55 -17.5 -102.5t-6.5 -81.5q0 -16 1 -27t1 -25q0 -30 -20.5 -48.5t-60.5 -18.5q-48 0 -74.5 27t-26.5 80q0 32 6.5 78.5t16 100t21.5 111.5l21 112q10 54 16.5 103.5t6.5 85.5q0 93 -46 138t-137 45q-35 0 -66 -8.5t-58.5 -22.5t-51 -32t-42.5 -37q-45 -43 -80 -98 l-105 -601q-6 -40 -30 -61t-70 -21t-66 21q-15 16 -15 42q0 9 2 19z" />
<glyph unicode="i" horiz-adv-x="520" d="M96 76l149 856q6 40 30 61t69 21q46 0 66 -21q16 -16 15 -44q0 -8 -1 -17l-149 -856q-6 -40 -30 -61t-69 -21q-46 0 -66 21q-16 16 -15 44q0 8 1 17zM277 1314q0 28 10 51t27 40.5t41 27t53 9.5q25 0 47 -8.5t37.5 -23.5t24 -36.5t8.5 -46.5q0 -28 -10 -51.5t-27 -40.5 t-41 -26.5t-53 -9.5q-26 0 -47.5 8.5t-37 23.5t-24 36.5t-8.5 46.5z" />
<glyph unicode="j" horiz-adv-x="520" d="M-207 -420q0 25 12 41t38 28q54 22 93.5 49.5t67.5 68t47.5 100t34.5 146.5l159 919q7 40 31 61t69 21t65 -21q16 -16 16 -44q0 -8 -1 -17l-163 -937q-14 -80 -30.5 -139.5t-36 -103t-41.5 -74.5t-48 -56q-49 -49 -108.5 -79t-117.5 -30q-45 0 -66 19t-21 48zM278 1314 q0 28 9.5 51t27 40.5t41.5 27t53 9.5q25 0 47 -8.5t37.5 -23.5t24 -36.5t8.5 -46.5q0 -28 -10 -51.5t-27.5 -40.5t-41.5 -26.5t-52 -9.5q-26 0 -47.5 8.5t-37 23.5t-24 36.5t-8.5 46.5z" />
<glyph unicode="k" horiz-adv-x="1057" d="M96 78l229 1323q6 39 30 60.5t69 21.5q45 1 66 -21q16 -16 16 -43q0 -9 -2 -18l-66 -385l-14 -68q-6 -33 -16 -70h3q34 41 81 74q20 14 45.5 27t56 24t66 17t76.5 6q61 0 108.5 -16t80 -45.5t49.5 -71t17 -91.5q0 -67 -24.5 -122t-70.5 -98t-113.5 -73.5t-153.5 -48.5 l234 -305q8 -10 14 -19.5t11 -18.5t7.5 -18t2.5 -20q0 -19 -8.5 -35.5t-22.5 -28t-31 -18t-34 -6.5q-18 0 -32 6t-24 17q-7 7 -13.5 15t-21.5 28l-239 327q-22 31 -35.5 56t-13.5 53q0 27 17.5 49.5t54.5 25.5q154 12 232.5 63.5t78.5 138.5q0 49 -30.5 77.5t-93.5 28.5 q-36 0 -67.5 -8.5t-59 -22.5t-51 -32t-43.5 -37q-46 -44 -81 -99l-105 -601q-4 -21 -11 -36.5t-19 -25.5t-29.5 -15.5t-40.5 -5.5q-45 0 -65 22q-15 17 -15 45q0 9 1 18z" />
<glyph unicode="l" horiz-adv-x="558" d="M117 177q0 24 2.5 46.5t7.5 51.5l194 1126q6 39 30.5 60.5t69.5 21.5q40 0 60.5 -16.5t20.5 -47.5q0 -8 -2 -16l-5 -31l-188 -1095q-7 -38 -7 -64v-6q1 -27 9 -42t21.5 -20.5t30.5 -5.5q20 0 31.5 2.5t24.5 2.5q23 0 35.5 -15.5t12.5 -38.5q0 -19 -6 -33.5t-19 -26.5 q-7 -8 -19 -15t-28.5 -12.5t-38.5 -9t-50 -3.5q-93 0 -140 47.5t-47 139.5z" />
<glyph unicode="m" horiz-adv-x="1804" d="M96 76l151 870q6 36 25.5 53t53.5 17t53 -21t19 -65q0 -13 -1.5 -25t-2.5 -22l-4 -25h4q34 47 81 84q21 16 46.5 31t56 26.5t65.5 19t76 7.5q59 0 106.5 -14t83.5 -39t61 -59.5t37 -76.5q41 53 95 94q23 18 51.5 35t61.5 30.5t71 21.5t80 8q71 0 128 -20.5t96.5 -60 t60.5 -96.5t21 -130q0 -39 -6.5 -89.5t-16.5 -106t-22 -114t-22 -113t-16.5 -102t-6.5 -81.5q0 -16 1 -27t1 -25q0 -30 -21 -48.5t-60 -18.5q-48 0 -75 27t-27 80q0 32 7 78.5t16.5 100t21 111t21 112t16.5 104t7 85.5q0 93 -45 138t-129 45q-34 0 -64 -9t-57 -23.5 t-50 -32.5t-43 -38q-45 -45 -79 -102q-1 -3 -2.5 -20.5t-6.5 -48.5l-91 -525q-6 -39 -31.5 -60.5t-70.5 -21.5t-64 21.5t-13 60.5l88 512q5 29 8 55t3 49q0 93 -45 138t-130 45q-32 0 -62 -8.5t-56.5 -22.5t-49.5 -32t-41 -37q-45 -44 -79 -98l-105 -601q-6 -40 -30 -61 t-69 -21q-46 0 -66 21q-16 16 -15 44q0 8 1 17z" />
<glyph unicode="n" horiz-adv-x="1176" d="M96 76l151 870q6 36 25.5 53t53.5 17t53 -21t19 -65q0 -13 -1.5 -25t-2.5 -22l-4 -25h4q34 47 83 84q21 16 47 31t57.5 26.5t68 19t78.5 7.5q75 0 133.5 -20.5t99 -60t62 -96.5t21.5 -130q0 -39 -6.5 -89.5t-16.5 -105.5l-22 -114l-22 -113q-10 -55 -17 -102.5t-7 -81.5 q0 -16 1 -27t1 -25q0 -30 -20.5 -48.5t-60.5 -18.5q-48 0 -74.5 27t-26.5 80q0 32 6.5 78.5t16.5 100.5l22 111q11 57 20.5 111.5t16 104t6.5 85.5q0 93 -46 138t-137 45q-35 0 -66 -8.5t-58 -22.5t-50.5 -32t-43.5 -37q-45 -44 -80 -98l-105 -601q-6 -40 -30 -61t-69 -21 q-46 0 -66 21q-16 16 -15 44q0 8 1 17z" />
<glyph unicode="o" horiz-adv-x="1138" d="M84 384q0 147 44 265.5t120.5 202.5t180.5 129t224 45q91 0 165.5 -28t126.5 -81t80.5 -127.5t28.5 -165.5q0 -147 -44 -266t-120.5 -202.5t-180.5 -129t-224 -45.5q-92 0 -166 28.5t-126.5 81.5t-80.5 127t-28 166zM271 405q0 -68 16.5 -119.5t48.5 -85.5t76 -52t98 -18 q70 0 134.5 31.5t114.5 92t79.5 148.5t29.5 201q0 67 -17 119t-48.5 86t-75.5 52t-99 18q-70 0 -134.5 -32t-114 -92.5t-79 -148t-29.5 -200.5z" />
<glyph unicode="p" d="M15 -397l232 1343q6 36 25.5 53t53.5 17t53 -21t19 -65q0 -13 -1.5 -25t-2.5 -22l-4 -25h4q34 47 82 84q21 16 46 31t55.5 26.5t65.5 19t75 7.5q74 0 135 -25t105 -74t68 -122t24 -167q0 -155 -45 -277t-125.5 -206t-193.5 -129t-250 -45q-38 0 -70 4t-54 8q-27 5 -48 12 q-1 0 -1.5 -0.5t-1.5 -0.5q-5 -30 -9 -62l-10 -66l-48 -273q-6 -39 -30 -60.5t-70 -21.5q-45 0 -66 21q-15 17 -15 42q0 9 2 19zM291 168q18 -13 44 -22q22 -7 54.5 -13.5t77.5 -6.5q83 0 155 31t125.5 92.5t84.5 152.5t31 210q0 70 -14 119.5t-39 81.5t-61 47t-79 15 q-33 0 -63 -8.5t-56.5 -22.5t-49.5 -32t-42 -37q-45 -43 -79 -98z" />
<glyph unicode="q" horiz-adv-x="1132" d="M84 370q0 155 44.5 276.5t125.5 206t194 129t250 44.5q64 0 116 -8.5t91 -21t64.5 -26.5t36.5 -25q7 -6 11.5 -14t7.5 -18t3 -23t-3 -31l-217 -1256q-6 -39 -30 -60.5t-69 -21.5t-66 21q-16 17 -16 43q0 8 2 18l67 389q6 34 13 67t17 71h-3q-34 -42 -80 -75 q-40 -28 -96.5 -50.5t-130.5 -22.5t-135 25t-105 74t-68 121.5t-24 167.5zM271 395q0 -69 13.5 -119t39 -82t61 -46.5t79.5 -14.5q32 0 61.5 8.5t56.5 22t50 31.5t42 36q45 44 80 100l88 506q-19 11 -44 21q-21 7 -54 14t-78 7q-83 0 -155 -31.5t-125 -93t-84 -151.5 t-31 -208z" />
<glyph unicode="r" horiz-adv-x="701" d="M95 58q0 7 1 16t5 30l146 842q6 36 25.5 53t53.5 17t53 -21t19 -65q0 -15 -1.5 -30t-3.5 -28q-3 -15 -5 -31h2q27 40 59 74.5t67 59t71.5 38t73.5 13.5q51 0 76.5 -23.5t25.5 -64.5q0 -23 -6.5 -44t-18.5 -36t-28 -23.5t-35 -8.5q-11 0 -19.5 1.5t-16.5 3.5t-16.5 3.5 t-18.5 1.5q-25 0 -52.5 -12t-57 -35.5t-59.5 -57.5t-59 -77l-101 -578q-6 -40 -30 -61t-69 -21q-40 0 -60.5 16t-20.5 48z" />
<glyph unicode="s" horiz-adv-x="852" d="M39 107q0 28 18.5 48t51.5 20q18 0 37.5 -8t46 -17.5t65 -17t97.5 -7.5q48 0 83.5 11.5t59.5 32.5t36.5 49t12.5 61q0 36 -17 62.5t-45 47t-64 38.5l-73 37q-38 19 -73.5 41t-63.5 52t-45 69.5t-17 93.5q0 66 24.5 122t72.5 97t120.5 64t167.5 23q83 0 139.5 -18 t81.5 -43q12 -13 18 -26t6 -29q0 -28 -18.5 -48t-51.5 -20q-18 0 -34 6.5t-37 14t-51 14t-75 6.5q-96 0 -138.5 -37.5t-42.5 -98.5q0 -45 29.5 -75.5t74 -54.5t95.5 -47.5t95.5 -57.5t74 -83t29.5 -123q0 -68 -26.5 -127t-77 -103t-124 -69t-168.5 -25q-56 0 -100.5 6.5 t-78 16.5t-56.5 22.5t-35 24.5q-13 13 -18.5 26.5t-5.5 28.5z" />
<glyph unicode="t" horiz-adv-x="691" d="M104 924q0 20 5.5 35.5t16 26t24.5 16.5t31 6h113l58 195q5 19 14.5 33.5t21 24.5t25.5 15.5t32 5.5q34 0 50 -19.5t9 -55.5l-34 -199h202q29 0 44 -15.5t15 -46.5q0 -20 -5.5 -35.5t-16 -26t-24.5 -16t-31 -5.5h-208l-101 -586q-5 -26 -4 -46q-1 -39 15 -60 q24 -32 78 -32q21 0 37 2t28 5.5t22.5 5.5t19.5 2q25 0 39 -14.5t14 -37.5q0 -19 -6 -34t-20 -28q-22 -22 -69 -36t-109 -14q-136 0 -192 70q-40 49 -40 134q0 36 7 78l102 591h-104q-29 0 -44 15t-15 46z" />
<glyph unicode="u" horiz-adv-x="1169" d="M133 289q0 28 3.5 62t8.5 66l90 515q7 40 31 61t69 21t65 -21q15 -16 16 -42q0 -9 -2 -19l-88 -512q-6 -32 -8.5 -55.5t-2.5 -49.5q0 -93 45.5 -137.5t131.5 -44.5q35 0 65.5 8.5t58 22t51 31.5t42.5 36q45 44 81 100l104 601q7 40 31 61t69 21q46 0 66 -21 q16 -16 15 -44q0 -8 -1 -17l-106 -610l-11 -69q-5 -31 -8.5 -57t-5 -46.5t-1.5 -36.5t1 -27t1 -25q0 -30 -19.5 -49t-53.5 -19q-57 1 -77 43q-16 33 -15 82q0 15 1 31h-4q-35 -47 -83 -83q-21 -16 -47 -31.5t-57.5 -27t-68 -18.5t-78.5 -7q-72 0 -129 20.5t-97.5 60 t-61.5 96.5t-21 130z" />
<glyph unicode="v" horiz-adv-x="974" d="M98 939q0 20 9 34.5t23.5 24.5t32 15.5t35.5 5.5q19 0 35 -6t26 -16t14.5 -23t9.5 -35l41 -189q20 -96 37 -192l32 -190q15 -94 26 -179h3q44 63 91.5 138t96 166.5t95 200.5t87.5 240q7 23 12 37.5t17 26.5q10 9 25.5 15t32.5 6q16 0 32 -5t29 -14t20.5 -23t7.5 -31 q0 -8 -2 -19.5t-10 -36.5q-27 -94 -67.5 -189t-87 -184.5t-94.5 -169.5t-91 -143.5t-76.5 -107.5t-50.5 -60q-8 -8 -18 -16t-23 -13.5t-28.5 -9t-35.5 -3.5q-29 0 -49 6.5t-33 20t-21 35t-13 50.5q-33 207 -75 407.5t-87 382.5q-2 11 -5 23t-3 20z" />
<glyph unicode="w" horiz-adv-x="1558" d="M124 937q0 19 8 34t21.5 25.5t31 16.5t37.5 6t35.5 -6.5t25.5 -16.5q12 -11 16 -26.5t8 -44.5q17 -108 29 -201.5t21 -182.5t15 -177l14 -183h3l71 148l72 157l83 185l103 234l11 24q5 12 10.5 22t11.5 18t13 16q15 14 36.5 23t54.5 9q28 0 47.5 -6.5t33.5 -20.5 q17 -17 21.5 -38.5t9.5 -51.5l29 -228q13 -99 22 -183t15.5 -158t11.5 -150h3q42 73 84 159.5t81 183t74.5 200.5t66.5 212q6 22 11.5 36.5t15.5 24.5t24.5 16t32.5 6q17 0 33 -5.5t28.5 -15t19.5 -23t7 -29.5q0 -10 -2 -19t-8 -31q-22 -80 -54.5 -168.5t-70 -176.5 t-76.5 -170t-74.5 -149.5t-64 -115t-44.5 -66.5q-11 -15 -23 -25t-25.5 -17t-30 -10.5t-37.5 -3.5q-29 0 -49 7t-33 20t-20 34t-10 48q-10 90 -18 173l-17 167q-8 84 -18.5 173.5t-23.5 190.5h-4l-89 -202l-78 -173l-75 -162l-80 -167q-12 -27 -22.5 -44t-24.5 -30 q-17 -17 -41.5 -26t-62.5 -9q-28 0 -49 6.5t-35.5 20t-23 35t-11.5 50.5l-23 208q-10 96 -21.5 188.5t-25.5 187.5t-32 205q-4 23 -4.5 30t-0.5 12z" />
<glyph unicode="x" horiz-adv-x="1014" d="M-2 71q0 10 4 21t18 32q7 12 23.5 32.5t38.5 45.5l47 52l52 55l51 51l54 53l57 54l63 55l-219 340q-6 8 -11 15.5t-8.5 15.5t-5.5 16t-2 18q0 20 9 37t24 29t32.5 19t34.5 7q19 0 31.5 -6t23.5 -17q7 -7 12.5 -14.5t15.5 -23.5l199 -330l71 70l70 76q36 40 74 87l79 103 q12 16 18 23l13 13q8 8 20.5 13.5t30.5 5.5q14 0 29.5 -5.5t29 -16t21.5 -25.5t8 -33q0 -10 -3.5 -21.5t-17.5 -32.5q-8 -12 -25 -32l-38 -45l-46 -52l-53 -55l-47 -47l-46 -44l-50 -48l-60 -55l232 -359q5 -9 10.5 -17t9 -16t6 -16.5t2.5 -17.5q0 -20 -9 -36.5t-23.5 -28.5 t-32.5 -18.5t-36 -6.5t-31.5 6t-24.5 17q-6 7 -12 15t-16 25l-211 348l-84 -83l-77 -83l-75 -88l-79 -102q-12 -17 -18 -23l-12 -13q-9 -9 -22 -14t-30 -5q-14 0 -30 5.5t-28.5 15.5t-21.5 25t-9 34z" />
<glyph unicode="y" horiz-adv-x="979" d="M-219 -395q0 16 5 28.5t14 22t21.5 14.5t27.5 5q21 0 37 -3.5t43 -3.5q39 0 79.5 12t86 42.5t96.5 82.5t112 131q-25 160 -48.5 294.5t-47 251t-46.5 218.5l-46 196q-2 11 -5 23t-3 20q0 20 9 34.5t23.5 24.5t32 15.5t34.5 5.5q20 0 36 -6.5t26 -15.5q9 -10 14 -23 t10 -35q42 -184 79 -388t68 -435h3q46 75 91 157.5t89.5 181.5t89 217t89.5 262q7 23 12 37.5t17 26.5q10 9 25 15t33 6q16 0 32 -5t29 -14t20.5 -23t7.5 -31q0 -8 -2 -19.5t-10 -36.5q-44 -149 -99.5 -287.5t-121.5 -268t-141.5 -247.5t-158.5 -223q-77 -97 -146.5 -163 t-134 -107.5t-125.5 -59t-119 -17.5q-42 0 -69.5 9t-43.5 23q-13 12 -19 25.5t-6 30.5z" />
<glyph unicode="z" horiz-adv-x="922" d="M22 82q0 14 3 26.5t9 24.5t15.5 25t22.5 28l589 677h-416q-29 0 -44 15t-15 46q0 20 5.5 35.5t15.5 26t24 16.5t31 6h533q23 0 41 -7t30 -18.5t18.5 -28t6.5 -36.5q0 -14 -3 -26.5t-9 -25t-15.5 -25t-22.5 -27.5l-589 -677q20 2 47.5 3.5t60 2.5t69 1.5t73.5 0.5 q86 0 148.5 -4t91.5 -11q30 -7 42.5 -24t12.5 -40q0 -18 -5.5 -31.5t-16 -23.5t-25 -15t-33.5 -5q-18 0 -39 1.5t-50.5 3t-71 3t-100.5 1.5q-101 0 -181.5 -4.5t-145.5 -4.5q-28 0 -47.5 6.5t-33 18.5t-20 29t-6.5 37z" />
<glyph unicode="{" horiz-adv-x="665" d="M80 593q0 21 5.5 35.5t14.5 24.5q11 10 26 15l32 10q18 6 39.5 17t43.5 33q15 16 28 41t24 57t19.5 68.5t14.5 74.5l41 235q15 87 41 148t63 99.5t82 56.5t101 18h4q27 0 47.5 -5.5t33 -15t19 -22.5t6.5 -29q0 -30 -19 -48t-60 -18h-8q-29 0 -51 -8t-38.5 -28.5 t-28.5 -55t-21 -87.5l-41 -235q-16 -93 -35 -155.5t-43.5 -105t-55 -69t-70.5 -46.5l-1 -2q33 -20 55 -46.5t32 -67.5t8 -100.5t-17 -146.5l-50 -283q-10 -58 -9.5 -93.5t10 -55t28 -26.5t45.5 -7h7q30 0 45.5 -15t15.5 -41q0 -17 -7 -32t-22 -26t-38 -17t-54 -6h-4 q-58 0 -99.5 18t-65.5 56.5t-30 97.5t8 142l50 290q7 40 12 77.5t5 71t-6.5 60t-22.5 42.5q-14 14 -27.5 21.5t-24.5 12.5l-22 10q-10 4 -19 12q-8 9 -12 20t-4 29z" />
<glyph unicode="|" horiz-adv-x="606" d="M65 -431q0 7 0.5 14t2.5 16l316 1822q7 36 29.5 55t59.5 19q33 0 51 -15.5t18 -45.5q0 -7 -1 -14t-3 -16l-316 -1822q-6 -36 -28.5 -55t-60.5 -19q-32 0 -50 15.5t-18 45.5z" />
<glyph unicode="}" horiz-adv-x="665" d="M-72 -295q0 29 18.5 47t59.5 18h8q29 0 51 8t38.5 28.5t28.5 55t21 87.5l48 276q16 93 35 155.5t43.5 105t55 69t70.5 46.5l1 2q-32 20 -54 46t-32.5 67.5t-8.5 101t17 145.5l43 244q9 56 9.5 91.5t-9 55.5t-28 27t-46.5 7h-7q-29 0 -45 15t-16 41q0 18 7 32.5t22 25.5 t38 17.5t55 6.5h4q57 0 98.5 -18.5t66 -57t30 -97.5t-8.5 -141l-43 -250q-7 -40 -11.5 -77.5t-5 -71t6 -60t22.5 -42.5q14 -14 27.5 -21.5t25.5 -12.5l22 -9q10 -5 19 -13q8 -8 12 -19.5t4 -29.5q0 -22 -5.5 -36t-15.5 -24t-25 -15l-33 -10q-18 -6 -39 -17t-44 -33 q-15 -15 -28 -41t-23.5 -57.5t-19 -68t-15.5 -74.5l-48 -276q-15 -87 -41 -148t-62.5 -99.5t-82.5 -56t-100 -17.5h-4q-28 0 -48 5t-33 14.5t-19 23t-6 29.5z" />
<glyph unicode="~" horiz-adv-x="1168" d="M155 509q0 9 2.5 20t9.5 23q22 38 53.5 70.5t69.5 56t81 37t87 13.5q42 0 73 -10t56 -26t46.5 -34t42.5 -33.5t43.5 -26t51.5 -10.5q22 0 44 8.5t42.5 23t40.5 34.5t37 41q12 16 24.5 21.5t25.5 5.5q26 0 42.5 -17t16.5 -46q0 -9 -2.5 -19.5t-9.5 -23.5 q-22 -38 -53.5 -70.5t-69.5 -56t-81.5 -37t-87.5 -13.5q-41 0 -72 10t-56 26t-46 34t-42 33.5t-44 26t-52 10.5q-22 0 -44 -9t-43 -23.5t-40.5 -34t-36.5 -41.5q-12 -15 -24.5 -20.5t-25.5 -5.5q-26 0 -42.5 17t-16.5 46z" />
<glyph unicode="&#xa1;" horiz-adv-x="605" d="M58 -363q0 5 0.5 9t1 10t2.5 15.5t5 26.5l172 906q7 35 29.5 53.5t61.5 18.5t58 -19t14 -54l-141 -917q-3 -15 -4.5 -27t-4 -22.5t-7.5 -19t-12 -15.5q-15 -15 -35.5 -21.5t-47.5 -6.5q-24 0 -41.5 5t-28.5 13t-16.5 19.5t-5.5 25.5zM248 943q0 29 11 53.5t29.5 43t44 29 t54.5 10.5q28 0 51.5 -9t39.5 -25t25.5 -39t9.5 -50q0 -29 -11 -54t-29.5 -43.5t-44 -29t-54.5 -10.5q-28 0 -51.5 9t-39.5 25.5t-25.5 39t-9.5 50.5z" />
<glyph unicode="&#xa2;" horiz-adv-x="993" d="M122 528q0 108 33.5 203.5t96 171t151 126.5t199.5 70l40 232q6 34 24.5 50.5t52.5 16.5q33 0 50 -16.5t11 -50.5l-38 -223q73 -2 125.5 -20t74.5 -40q13 -13 18.5 -26.5t5.5 -28.5t-5 -28t-13.5 -22t-22 -14.5t-28.5 -5.5q-18 0 -34 5l-38 13q-22 8 -52.5 13.5 t-76.5 5.5q-83 0 -154 -29t-122.5 -83t-81 -130t-29.5 -168q0 -132 70 -202t204 -70q49 0 84 7t60.5 15.5t43 15.5t32.5 7q25 0 40 -16t15 -40q0 -19 -6 -33t-20 -28q-12 -12 -36 -25.5t-57.5 -24.5t-75.5 -18.5t-91 -9.5l-39 -224q-6 -35 -25 -51t-52 -16t-50 16t-11 51 l40 233q-79 14 -138 47.5t-98 84t-58 116t-19 143.5z" />
<glyph unicode="&#xa3;" horiz-adv-x="1038" d="M60 99q0 17 3 32t11 29.5t20.5 30.5t30.5 36q32 35 63 76.5t55.5 91t40 108.5t17.5 131h-100q-29 0 -44 15.5t-15 46.5q0 20 5.5 35.5t16 26t24.5 16.5t31 6h74l-8 74q-3 37 -3 78q0 103 33.5 187.5t98 144.5t157.5 92.5t211 32.5q81 0 139 -15.5t82 -39.5 q13 -13 18.5 -26.5t5.5 -29.5q0 -14 -5 -27.5t-14 -22.5t-22.5 -15t-29.5 -6q-17 0 -34.5 5.5t-40 11.5t-53 11.5t-72.5 5.5q-66 0 -120 -19t-91.5 -55.5t-58.5 -91.5t-21 -126q0 -46 4.5 -86.5t8.5 -82.5h338q28 0 43.5 -15.5t15.5 -46.5q0 -20 -5.5 -35.5t-16 -26 t-24.5 -16.5t-31 -6h-314q-4 -77 -20 -143.5t-43 -125.5t-64 -110.5t-81 -96.5l1 -2h557q29 0 44.5 -16.5t15.5 -50.5q0 -21 -6 -37.5t-17 -28t-26.5 -17.5t-34.5 -6h-651q-48 0 -73.5 26t-25.5 73z" />
<glyph unicode="&#xa4;" horiz-adv-x="1022" d="M80 316q0 17 8.5 29.5t23.5 24.5l110 98q-22 36 -33.5 79.5t-11.5 95.5q0 100 34 182t94 141l-86 118q-6 10 -9.5 18t-3.5 18q0 15 7 28t18.5 23.5t26 16.5t29.5 6q34 0 50 -29l70 -130q42 22 89.5 33t100.5 11q58 0 105.5 -12.5t85.5 -36.5l99 113q12 14 23.5 21t27.5 7 q13 0 26.5 -5.5t24 -15.5t17 -23t6.5 -27q0 -17 -8.5 -28.5t-22.5 -25.5l-110 -99q45 -72 45 -174q0 -100 -34 -182t-95 -141l86 -118q6 -10 9.5 -18t3.5 -18q0 -15 -7 -28t-18.5 -23.5t-26 -16.5t-29.5 -6q-33 0 -49 30l-70 128q-86 -43 -191 -43q-115 0 -190 50l-100 -114 q-12 -14 -23.5 -21t-27.5 -7q-13 0 -26.5 5.5t-24 15.5t-17 23t-6.5 27zM327 658q0 -95 49 -147.5t138 -52.5q52 0 98 20.5t80 59.5t54 94.5t20 125.5q0 96 -49 148t-139 52q-51 0 -96.5 -20.5t-80 -59.5t-54.5 -94.5t-20 -125.5z" />
<glyph unicode="&#xa5;" horiz-adv-x="1199" d="M165 287q0 33 18 53.5t54 20.5h246l26 151h-244q-51 0 -51 54q0 32 17.5 53t53.5 21h226l-262 619q-5 11 -7.5 20.5t-2.5 19.5q0 20 9.5 36.5t24.5 28t32.5 17.5t33.5 6q30 0 47 -15t26 -39l187 -468q7 -21 14.5 -41t12.5 -35q5 -18 10 -33h4l22 34l25 37l30 42l345 475 q15 21 31 32t40 11q16 0 32.5 -6t29.5 -17.5t21 -26.5t8 -33q0 -16 -5.5 -28t-17.5 -26l-470 -610h224q26 0 39 -14.5t13 -39.5q0 -33 -18 -53.5t-54 -20.5h-246l-26 -151h244q26 0 39 -14.5t13 -39.5q0 -33 -18.5 -53.5t-53.5 -20.5h-245l-28 -157q-6 -39 -30 -60.5 t-70 -21.5t-66.5 21t-14.5 61l28 157h-244q-52 0 -52 54z" />
<glyph unicode="&#xa6;" horiz-adv-x="606" d="M65 -431q0 7 0.5 14t2.5 16l119 690q7 36 29.5 55t60.5 19t55.5 -21t11.5 -58l-122 -702q-6 -36 -28.5 -55t-60.5 -19q-32 0 -50 15.5t-18 45.5zM265 736l119 685q7 36 29.5 55t59.5 19q33 0 51 -15.5t18 -45.5q0 -7 -1 -14t-3 -16l-117 -674q-6 -36 -28.5 -55t-60.5 -19 t-55.5 21t-11.5 59z" />
<glyph unicode="&#xa7;" horiz-adv-x="1087" d="M102 -218q0 14 4.5 26t14 21.5t22 15t28.5 5.5q20 0 36 -6l39 -15q22 -9 53.5 -15.5t79.5 -6.5q54 0 93.5 12.5t65.5 34t39 51.5t13 67q0 40 -20 70.5t-52 56t-73 49.5l-84 48q-43 25 -84.5 53.5t-73.5 65t-51.5 83t-19.5 106.5q0 69 19.5 125.5t55.5 102t85.5 81.5 t108.5 64q-35 35 -56 80t-21 106q0 70 27.5 131t80.5 106t131 71.5t179 26.5q49 0 87 -6t66 -15.5t46.5 -20.5t28.5 -21q13 -13 18.5 -26.5t5.5 -28.5t-5 -27t-14 -21t-21.5 -14.5t-29.5 -5.5q-19 0 -36 6l-39 15q-21 9 -52.5 15.5t-79.5 6.5q-54 0 -94 -12.5t-66 -34.5 t-38.5 -52t-12.5 -66q0 -40 19.5 -70.5t52 -56.5t73.5 -50l84 -48q43 -24 84 -53t73.5 -65t52 -82.5t19.5 -107.5q0 -69 -20 -125.5t-55.5 -102t-85.5 -81.5t-109 -64q34 -35 55.5 -80t21.5 -106q0 -70 -27 -130.5t-80 -105.5t-131 -71.5t-180 -26.5q-49 0 -87 6t-65.5 15.5 t-46 20.5t-28.5 21q-13 13 -18.5 26t-5.5 29zM319 532q0 -48 21 -84t56 -65.5t79 -54.5l93 -51q55 25 94.5 51t65 56.5t37.5 66t12 78.5q0 46 -21 82t-56.5 65.5t-80.5 55.5l-92 52q-55 -25 -94.5 -51t-64.5 -56.5t-37 -66t-12 -78.5z" />
<glyph unicode="&#xa8;" horiz-adv-x="1024" d="M327 1311q0 27 9.5 50t27 40t41 26.5t50.5 9.5q24 0 44 -8t34.5 -22.5t23 -34.5t8.5 -43q0 -27 -9.5 -50.5t-26 -40.5t-40 -27t-50.5 -10q-24 0 -44.5 8.5t-35.5 23t-23.5 34.5t-8.5 44zM721 1311q0 27 9.5 50t26.5 40t40.5 26.5t51.5 9.5q23 0 43.5 -8t35 -22.5 t22.5 -34.5t8 -43q0 -27 -9 -50.5t-26 -40.5t-40 -27t-51 -10q-23 0 -44 8.5t-35.5 23t-23 34.5t-8.5 44z" />
<glyph unicode="&#xa9;" horiz-adv-x="1576" d="M122 644q0 165 55.5 303.5t154.5 238.5t234 156t295 56q147 0 268 -47.5t207.5 -134.5t133.5 -209.5t47 -271.5q0 -110 -25 -209t-71.5 -182.5t-113 -150.5t-148.5 -114t-178 -72.5t-203 -25.5q-147 0 -268 47.5t-207 134.5t-133.5 209.5t-47.5 271.5zM257 659 q0 -131 38 -235.5t108.5 -176.5t170.5 -110.5t225 -38.5q127 0 234 44.5t185 125.5t121.5 196t43.5 256q0 131 -38 235.5t-108.5 176.5t-170.5 110.5t-224 38.5q-127 0 -235 -44.5t-185.5 -125.5t-121 -196t-43.5 -256zM467 596q0 115 35 208t95.5 159t142 101.5t173.5 35.5 q37 0 67 -5t53 -12.5t40 -17.5t26 -19q18 -17 18 -43q0 -22 -14.5 -38t-38.5 -16q-12 0 -25 5.5t-31 12t-42.5 12.5t-61.5 6q-56 0 -108.5 -25.5t-92.5 -73t-64.5 -116.5t-24.5 -156q0 -102 52 -154t141 -52q35 0 61.5 5.5t46.5 12.5t34.5 13t26.5 6q20 0 30.5 -12t10.5 -31 q0 -14 -4.5 -25.5t-15.5 -22.5q-13 -12 -34.5 -23.5t-50.5 -20.5t-63 -14.5t-70 -5.5q-74 0 -131.5 21t-98 60t-61.5 96t-21 129z" />
<glyph unicode="&#xaa;" horiz-adv-x="820" d="M76 508q0 30 17.5 47.5t49.5 17.5h545q24 0 37.5 -13.5t13.5 -37.5q0 -31 -17.5 -48.5t-49.5 -17.5h-545q-24 0 -37.5 14t-13.5 38zM156 949q0 104 30 185.5t85 138t132 86.5t172 30q46 0 82.5 -6t63.5 -14t44 -18t24 -17l8 -10q4 -6 6.5 -13.5t2.5 -17.5t-2 -24 l-60 -342q-5 -27 -8 -48.5t-5 -38.5t-3 -31t-1 -24q0 -11 0.5 -18.5t0.5 -17.5q0 -24 -15.5 -39t-43.5 -15q-41 0 -56.5 28.5t-13.5 74.5h-2q-22 -30 -54 -55q-28 -21 -68.5 -38t-94.5 -17q-50 0 -91 16.5t-70.5 49.5t-46 82t-16.5 113zM303 968q0 -86 32.5 -124.5 t86.5 -38.5q41 0 74 19t57 43q27 28 50 63l56 320q-11 7 -27 13q-13 4 -33.5 8.5t-47.5 4.5q-52 0 -97 -20t-78.5 -58.5t-53 -96.5t-19.5 -133z" />
<glyph unicode="&#xab;" horiz-adv-x="1154" d="M99 512q0 28 13 48.5t37 41.5l395 332q19 16 42 16q16 0 30 -6.5t24 -17t16 -24t6 -27.5q0 -13 -5.5 -25t-17.5 -24l-351 -315l222 -331q5 -10 8.5 -19t3.5 -21q0 -17 -8 -31t-20 -24.5t-27.5 -16.5t-30.5 -6q-17 0 -31.5 7t-26.5 23l-255 353q-11 15 -17.5 31t-6.5 36z M567 492q0 28 13 48.5t37 41.5l396 332q10 8 20.5 12t21.5 4q15 0 28.5 -6t23.5 -16.5t16 -23.5t6 -28q0 -13 -5.5 -25t-17.5 -23l-353 -317l194 -293q12 -19 12 -39q0 -16 -7 -29.5t-19 -24.5t-27 -17t-31 -6q-15 0 -30 7t-26 23l-227 313q-11 15 -18 31t-7 36z" />
<glyph unicode="&#xac;" horiz-adv-x="1168" d="M186 570q0 38 23 61t61 23h654q78 0 78 -64q0 -10 -1 -20t-3 -20l-49 -276q-8 -42 -31.5 -63.5t-60.5 -21.5q-36 0 -51.5 21.5t-8.5 63.5l42 236h-587q-34 0 -50 16t-16 44z" />
<glyph unicode="&#xad;" horiz-adv-x="942" d="M162 526q0 20 5.5 36t15.5 27t24 17t31 6h498q28 0 43.5 -15t15.5 -46q0 -20 -5.5 -36t-16 -27t-24.5 -17t-31 -6h-498q-28 0 -43 15t-15 46z" />
<glyph unicode="&#xae;" horiz-adv-x="965" d="M167 1064q0 96 31.5 175t88.5 136t137.5 88.5t176.5 31.5q90 0 163.5 -28.5t126 -79.5t81 -122t28.5 -155q0 -95 -31.5 -174t-88.5 -136t-137.5 -88.5t-177.5 -31.5q-90 0 -163 28.5t-125.5 79.5t-81 121.5t-28.5 154.5zM256 1071q0 -70 22.5 -127.5t64.5 -98.5 t100.5 -64t130.5 -23q76 0 137.5 24.5t106 70t69 109t24.5 142.5q0 69 -23 126.5t-64.5 99t-100.5 64t-130 22.5q-76 0 -137.5 -24.5t-106 -69.5t-69 -109t-24.5 -142zM410 912l62 354q3 18 13 27t29 9h103q39 0 66 -8t45 -22.5t26.5 -35t8.5 -45.5q0 -51 -31.5 -86 t-78.5 -47q9 -36 18.5 -58.5t19.5 -36.5t19 -21.5t15 -13.5q4 -4 6.5 -9t2.5 -12q0 -15 -12 -24.5t-33 -9.5q-16 0 -30 6t-28 20q-17 18 -33.5 56t-24.5 92h-57l-24 -135q-3 -19 -14 -28.5t-31 -9.5q-21 0 -30.5 9.5t-6.5 28.5zM526 1114h62q48 0 69 20t21 49q0 25 -17 37.5 t-57 12.5h-58z" />
<glyph unicode="&#xaf;" horiz-adv-x="1024" d="M332 1307q0 18 5.5 33t15 25t23.5 16t31 6h490q28 0 42.5 -15t14.5 -43q0 -18 -5.5 -33t-15.5 -25t-23.5 -16t-30.5 -6h-490q-28 0 -42.5 15t-14.5 43z" />
<glyph unicode="&#xb0;" horiz-adv-x="820" d="M233 1200q0 60 24 114t66 94.5t99.5 63.5t125.5 23q67 0 120.5 -19t90 -55t56.5 -85.5t20 -110.5q0 -60 -24 -113.5t-66 -93.5t-99.5 -63t-125.5 -23q-67 0 -120.5 19.5t-90 54.5t-56.5 84.5t-20 109.5zM378 1211q0 -36 11 -65.5t31.5 -50.5t49 -32.5t63.5 -11.5 q34 0 63 12t49.5 33.5t32.5 51.5t12 67q0 73 -42.5 117t-112.5 44q-34 0 -63 -12t-50 -33.5t-32.5 -52t-11.5 -67.5z" />
<glyph unicode="&#xb1;" horiz-adv-x="1168" d="M88 60q0 19 6 34.5t18 26.5t27.5 17t35.5 6h685q33 0 49 -15.5t16 -43.5q0 -19 -6 -35t-17.5 -27t-27 -17t-35.5 -6h-684q-32 0 -49.5 16t-17.5 44zM204 720q0 19 6 34.5t17.5 26.5t27.5 17t36 6h267l47 278q7 42 31 64t61 22t52.5 -21.5t7.5 -64.5l-45 -278h264 q32 0 48 -16t16 -44q0 -19 -6 -34.5t-17 -27t-27.5 -17.5t-36.5 -6h-267l-47 -278q-8 -42 -31.5 -63.5t-60.5 -21.5q-35 0 -52.5 21.5t-9.5 63.5l49 278h-264q-33 0 -49.5 16t-16.5 45z" />
<glyph unicode="&#xb2;" horiz-adv-x="673" d="M94 703q0 27 10.5 48.5t37.5 43.5l165 134q62 50 103 86t66 64t35 52.5t10 53.5q0 39 -23.5 61t-73.5 22q-29 0 -51.5 -4.5t-40.5 -9.5t-33 -10t-28 -5q-20 0 -31.5 13t-11.5 34q0 12 4 22.5t16 22.5q11 12 32 22.5t49 19t62 13.5t71 5q59 0 103 -13t72.5 -36.5 t42.5 -56.5t14 -74q0 -45 -14 -83.5t-46.5 -79t-87.5 -87.5t-137 -109l-124 -96h297q48 0 48 -54q0 -31 -17.5 -52t-46.5 -21h-393q-37 0 -58 20t-21 54z" />
<glyph unicode="&#xb3;" horiz-adv-x="683" d="M122 702q0 26 15 41.5t39 15.5q13 0 25 -4t28.5 -9t40 -9t58.5 -4q39 0 69 10t51 27t31.5 40t10.5 48q0 23 -9 41.5t-31 31.5t-58.5 19.5t-92.5 6.5q-21 0 -30 9q-7 8 -10 20.5t-2.5 26.5t5.5 27.5t14 22.5q7 6 14.5 9t22.5 3q60 0 100 9.5t64.5 26t35 38.5t10.5 47 q0 34 -23.5 54t-75.5 20q-25 0 -45.5 -4.5t-36.5 -9.5l-30 -10q-14 -4 -26 -4q-21 0 -32.5 13t-11.5 33q0 15 6 27t18 23q13 11 33.5 20.5t46 17t55.5 11.5t62 4q59 0 101.5 -13t70 -36t41 -54t13.5 -67q0 -69 -42 -117.5t-109 -74.5l-1 -1q55 -12 87.5 -51.5t32.5 -101.5 q0 -54 -23 -101.5t-66.5 -82.5t-106.5 -55t-143 -20q-71 0 -113 13t-60 28q-23 19 -23 45z" />
<glyph unicode="&#xb4;" horiz-adv-x="1024" d="M453 1215q0 11 4.5 20.5t13.5 21.5l212 242q19 21 45 21q17 0 34 -8.5t30 -22t21.5 -30.5t8.5 -34q0 -15 -6 -26t-17 -21l-242 -213q-9 -6 -18 -9.5t-19 -3.5q-13 0 -25 5.5t-21.5 14t-15 20t-5.5 23.5z" />
<glyph unicode="&#xb5;" horiz-adv-x="1178" d="M14 -415q0 7 0.5 14.5t2.5 17.5l228 1315q6 40 30 61t69 21t65.5 -21t14.5 -61l-89 -512q-5 -31 -7.5 -55t-2.5 -50q0 -93 44.5 -137.5t131.5 -44.5q34 0 65 8.5t58.5 22t51 31.5t43.5 36q45 44 80 100l105 602q7 39 31 60t69 21q40 0 60.5 -16.5t20.5 -47.5 q0 -7 -1.5 -16t-5.5 -31l-101 -581l-10 -69l-8 -57q-4 -26 -5.5 -46.5t-1.5 -36.5t1 -27t1 -25q0 -30 -19.5 -49t-54.5 -19q-55 0 -76 42.5t-15 113.5h-3q-36 -47 -83 -83q-21 -16 -46 -31.5t-55 -27t-65 -18.5t-75 -7q-55 0 -93.5 11t-63.5 25q-29 15 -48 36l-3 -2 l-48 -367q-3 -21 -5.5 -40.5t-6.5 -38.5q-9 -45 -35.5 -65t-67.5 -20q-40 0 -58.5 16.5t-18.5 47.5z" />
<glyph unicode="&#xb6;" horiz-adv-x="1256" d="M188 863q0 117 35.5 212.5t110 162.5t190 103.5t276.5 36.5h319q38 0 57.5 -17t19.5 -51q0 -9 -1 -18t-3 -19l-263 -1527q-13 -70 -83 -70q-38 0 -54.5 18t-10.5 52l257 1486h-191l-256 -1486q-13 -70 -83 -70q-38 0 -54 18t-11 52l130 752q-90 1 -161.5 26t-121.5 71 t-76 113.5t-26 154.5z" />
<glyph unicode="&#xb7;" horiz-adv-x="562" d="M154 534q0 29 10.5 54.5t29 43.5t43.5 29t54 11q28 0 52 -9.5t41 -26.5t26.5 -41t9.5 -52q0 -29 -10.5 -54t-29 -43.5t-43.5 -29t-53 -10.5q-29 0 -52.5 9.5t-41 26.5t-27 40.5t-9.5 51.5z" />
<glyph unicode="&#xb8;" horiz-adv-x="1024" d="M162 -425q0 24 14.5 39t37.5 15q13 0 25.5 -1.5t31.5 -1.5q41 0 70.5 7t48.5 19.5t28 30t9 38.5q0 27 -17.5 44t-57.5 17h-9q-24 0 -33.5 15.5t3.5 47.5l64 155h124l-44 -106q31 -6 56 -17.5t42 -30.5t26 -44.5t9 -58.5q0 -49 -21 -92t-60.5 -74.5t-96.5 -50t-129 -18.5 q-34 0 -57.5 5t-38 14t-20 21t-5.5 27z" />
<glyph unicode="&#xb9;" horiz-adv-x="541" d="M165 1221q0 15 4 25.5t15 21.5q15 15 55.5 35.5t91.5 41.5q53 22 83.5 31.5t56.5 9.5q33 0 48.5 -17.5t15.5 -44.5q0 -6 -0.5 -13t-2.5 -17l-104 -600q-5 -34 -27 -52.5t-63 -18.5q-40 0 -57.5 19t-11.5 52l90 517l-91 -29q-15 -5 -29 -8.5t-26 -3.5q-23 0 -35.5 15 t-12.5 36z" />
<glyph unicode="&#xba;" horiz-adv-x="877" d="M102 508q0 30 18 47.5t50 17.5h556q24 0 38 -13.5t14 -37.5q0 -31 -18 -48.5t-50 -17.5h-556q-24 0 -38 14t-14 38zM194 959q0 99 29.5 178.5t82 135.5t124.5 86.5t157 30.5q66 0 118 -19t88 -54.5t55.5 -86t19.5 -111.5q0 -99 -30 -178.5t-82.5 -135.5t-125 -86.5 t-156.5 -30.5q-66 0 -117.5 19t-88 54.5t-55.5 85.5t-19 112zM340 975q0 -87 41.5 -130t111.5 -43q46 0 87 20t72.5 58.5t50 94.5t18.5 128q0 86 -41 129.5t-112 43.5q-45 0 -86.5 -20t-73 -58t-50 -94.5t-18.5 -128.5z" />
<glyph unicode="&#xbb;" horiz-adv-x="1154" d="M25 151q0 13 5.5 25t17.5 23l353 317l-194 293q-12 19 -12 39q0 16 7 30t19 24.5t27 16.5t31 6t30.5 -7t25.5 -23l228 -312q10 -16 17 -32t7 -36q0 -27 -13 -47.5t-37 -41.5l-396 -333q-10 -8 -20.5 -12t-22.5 -4q-14 0 -27.5 6t-23.5 16.5t-16 23.5t-6 28zM492 132 q0 14 5.5 25.5t17.5 23.5l351 315l-222 331q-5 10 -8.5 19t-3.5 21q0 16 8 30.5t20 24.5t27.5 16.5t30.5 6.5q17 0 31.5 -7t26.5 -23l255 -352q11 -16 17.5 -32t6.5 -36q0 -27 -13 -47.5t-37 -41.5l-394 -333q-20 -16 -43 -16q-16 0 -30 6.5t-24 17t-16 24t-6 27.5z" />
<glyph unicode="&#xbc;" horiz-adv-x="1514" d="M165 1221q0 15 4 25.5t15 21.5q15 15 55.5 35.5t91.5 41.5q53 22 83.5 31.5t56.5 9.5q33 0 48.5 -17.5t15.5 -44.5q0 -6 -0.5 -13t-2.5 -17l-104 -600q-5 -34 -27 -52.5t-63 -18.5q-40 0 -57.5 19t-11.5 52l90 517l-91 -29q-15 -5 -29 -8.5t-26 -3.5q-23 0 -35.5 15 t-12.5 36zM178 46q0 12 5.5 22t14.5 22l965 1277q13 16 24 23t27 7q15 0 28 -5.5t23 -14.5t15.5 -20t5.5 -24q0 -12 -5 -21.5t-14 -21.5l-966 -1277q-12 -16 -23 -23.5t-28 -7.5q-14 0 -27 5.5t-23 14.5t-16 20.5t-6 23.5zM779 277q0 27 11 48t34 47l292 319q18 20 34.5 33 t33.5 21t36 11.5t43 3.5q26 0 44.5 -6t30 -17.5t15 -28t0.5 -37.5l-62 -353h74q20 0 31 -12.5t11 -35.5q0 -34 -16.5 -53.5t-42.5 -19.5h-77l-24 -132q-5 -35 -26.5 -52.5t-60.5 -17.5q-37 0 -54 19t-11 51l22 132h-254q-40 0 -62 21.5t-22 58.5zM924 318h214l50 289z" />
<glyph unicode="&#xbd;" horiz-adv-x="1550" d="M165 1221q0 15 4 25.5t15 21.5q15 15 55.5 35.5t91.5 41.5q53 22 83.5 31.5t56.5 9.5q33 0 48.5 -17.5t15.5 -44.5q0 -6 -0.5 -13t-2.5 -17l-104 -600q-5 -34 -27 -52.5t-63 -18.5q-40 0 -57.5 19t-11.5 52l90 517l-91 -29q-15 -5 -29 -8.5t-26 -3.5q-23 0 -35.5 15 t-12.5 36zM178 46q0 12 5.5 22t14.5 22l965 1277q13 16 24 23t27 7q15 0 28 -5.5t23 -14.5t15.5 -20t5.5 -24q0 -12 -5 -21.5t-14 -21.5l-966 -1277q-12 -16 -23 -23.5t-28 -7.5q-14 0 -27 5.5t-23 14.5t-16 20.5t-6 23.5zM862 75q0 27 10.5 48.5t37.5 43.5l165 134 q62 50 103 86t66 64t35 52.5t10 53.5q0 39 -23.5 61t-73.5 22q-29 0 -51.5 -4.5t-40.5 -9.5t-33 -10t-28 -5q-20 0 -31.5 13t-11.5 34q0 12 4 22.5t16 22.5q11 12 32 22.5t49 19t62 13.5t71 5q59 0 103 -13t72.5 -36.5t42.5 -56.5t14 -74q0 -45 -14 -83.5t-46.5 -79 t-87.5 -87.5t-137 -109l-124 -96h297q48 0 48 -54q0 -31 -17.5 -52t-46.5 -21h-393q-37 0 -58 20t-21 54z" />
<glyph unicode="&#xbe;" horiz-adv-x="1623" d="M119 702q0 26 15 41.5t39 15.5q13 0 25 -4t28.5 -9t40 -9t58.5 -4q39 0 69 10t51 27t31.5 40t10.5 48q0 23 -9 41.5t-31 31.5t-58.5 19.5t-92.5 6.5q-21 0 -30 9q-7 8 -10 20.5t-2.5 26.5t5.5 27.5t14 22.5q7 6 14.5 9t22.5 3q60 0 100 9.5t64.5 26t35 38.5t10.5 47 q0 34 -23.5 54t-75.5 20q-25 0 -45.5 -4.5t-36.5 -9.5l-30 -10q-14 -4 -26 -4q-21 0 -32.5 13t-11.5 33q0 15 6 27t18 23q13 11 33.5 20.5t46 17t55.5 11.5t62 4q59 0 101.5 -13t70 -36t41 -54t13.5 -67q0 -69 -42 -117.5t-109 -74.5l-1 -1q55 -12 87.5 -51.5t32.5 -101.5 q0 -54 -23 -101.5t-66.5 -82.5t-106.5 -55t-143 -20q-71 0 -113 13t-60 28q-23 19 -23 45zM289 46q0 12 5.5 22t14.5 22l965 1277q13 16 24 23t27 7q15 0 28 -5.5t23 -14.5t15.5 -20t5.5 -24q0 -12 -5 -21.5t-14 -21.5l-966 -1277q-12 -16 -23 -23.5t-28 -7.5q-14 0 -27 5.5 t-23 14.5t-16 20.5t-6 23.5zM888 277q0 27 11 48t34 47l292 319q18 20 34.5 33t33.5 21t36 11.5t43 3.5q26 0 44.5 -6t30 -17.5t15 -28t0.5 -37.5l-62 -353h74q20 0 31 -12.5t11 -35.5q0 -34 -16.5 -53.5t-42.5 -19.5h-77l-24 -132q-5 -35 -26.5 -52.5t-60.5 -17.5 q-37 0 -54 19t-11 51l22 132h-254q-40 0 -62 21.5t-22 58.5zM1033 318h214l50 289z" />
<glyph unicode="&#xbf;" horiz-adv-x="755" d="M-61 -151q0 69 18.5 123t49.5 98.5t71 81t81 70.5l81 66q39 33 70 70.5t49.5 81t18.5 98.5q0 23 -1.5 36t-1.5 24q0 35 23.5 56.5t65.5 21.5q44 0 69.5 -28.5t25.5 -94.5q0 -92 -31.5 -158.5t-79 -118.5t-102.5 -95t-102.5 -87.5t-79 -96t-31.5 -120.5q0 -76 47.5 -119 t145.5 -43q48 0 81 6t56 14t40 14.5t34 6.5q23 0 37.5 -16t14.5 -40q0 -15 -4.5 -28t-19.5 -28q-15 -14 -41 -28t-61.5 -25t-81 -18.5t-96.5 -7.5q-84 0 -149 19t-109 55.5t-66 89.5t-22 120zM380 943q0 29 10.5 53.5t29 43t44 29t55.5 10.5q28 0 51 -9t39.5 -25t25.5 -39 t9 -50q0 -29 -10.5 -54t-29 -43.5t-44 -29t-55.5 -10.5q-28 0 -51 9t-39.5 25t-25.5 39t-9 51z" />
<glyph unicode="&#xc0;" horiz-adv-x="1219" d="M-19 69q0 13 4.5 25.5t15.5 34.5l589 1125q8 16 15 29l14 23q7 11 14.5 20.5t17.5 19.5q19 18 44.5 28t60.5 10q33 0 55 -7.5t38 -23.5q17 -17 24.5 -42.5t13.5 -60.5l203 -1129q4 -23 5 -32.5t1 -17.5q0 -18 -8 -32.5t-22 -25t-33 -16.5t-39 -6q-21 0 -37 6t-28 18 q-11 11 -15.5 28t-8.5 37l-48 286h-541l-155 -308l-14 -28q-5 -9 -13 -17q-10 -10 -24 -16t-34 -6q-18 0 -35 5.5t-30.5 16t-21.5 25t-8 31.5zM390 517h443l-78 474q-8 41 -13 77t-8 64q-4 32 -7 59h-4l-27 -60l-32 -63l-37 -77zM530 1729q0 19 9 37.5t23 33t31.5 24 t34.5 9.5q13 0 23 -5t17 -13l201 -215q9 -11 13 -22.5t3 -24.5q-2 -13 -9.5 -25t-18.5 -21t-24.5 -13.5t-27.5 -1.5q-6 2 -12 4.5t-13 7.5l-222 176q-13 10 -20.5 22t-7.5 27z" />
<glyph unicode="&#xc1;" horiz-adv-x="1219" d="M-19 69q0 13 4.5 25.5t15.5 34.5l589 1125q8 16 15 29l14 23q7 11 14.5 20.5t17.5 19.5q19 18 44.5 28t60.5 10q33 0 55 -7.5t38 -23.5q17 -17 24.5 -42.5t13.5 -60.5l203 -1129q4 -23 5 -32.5t1 -17.5q0 -18 -8 -32.5t-22 -25t-33 -16.5t-39 -6q-21 0 -37 6t-28 18 q-11 11 -15.5 28t-8.5 37l-48 286h-541l-155 -308l-14 -28q-5 -9 -13 -17q-10 -10 -24 -16t-34 -6q-18 0 -35 5.5t-30.5 16t-21.5 25t-8 31.5zM390 517h443l-78 474q-8 41 -13 77t-8 64q-4 32 -7 59h-4l-27 -60l-32 -63l-37 -77zM667 1564q0 13 5.5 24t16.5 20l254 203 q18 14 36 14t34 -9.5t28 -23.5t19.5 -31.5t7.5 -33.5q0 -17 -7 -30t-23 -21l-277 -169q-8 -5 -15.5 -8t-16.5 -3q-13 0 -24 6t-19.5 15.5t-13.5 21.5t-5 25z" />
<glyph unicode="&#xc2;" horiz-adv-x="1219" d="M-19 69q0 13 4.5 25.5t15.5 34.5l589 1125q8 16 15 29l14 23q7 11 14.5 20.5t17.5 19.5q19 18 44.5 28t60.5 10q33 0 55 -7.5t38 -23.5q17 -17 24.5 -42.5t13.5 -60.5l203 -1129q4 -23 5 -32.5t1 -17.5q0 -18 -8 -32.5t-22 -25t-33 -16.5t-39 -6q-21 0 -37 6t-28 18 q-11 11 -15.5 28t-8.5 37l-48 286h-541l-155 -308l-14 -28q-5 -9 -13 -17q-10 -10 -24 -16t-34 -6q-18 0 -35 5.5t-30.5 16t-21.5 25t-8 31.5zM390 517h443l-78 474q-8 41 -13 77t-8 64q-4 32 -7 59h-4l-27 -60l-32 -63l-37 -77zM485 1562q0 24 20 41l221 180 q24 19 44.5 30.5t46.5 11.5q27 0 45.5 -11t35.5 -30l154 -185q8 -8 11 -17t3 -19q0 -14 -6 -25t-15.5 -20t-22 -14t-24.5 -5t-20 3.5t-17 10.5l-166 139l-219 -144q-7 -4 -13.5 -6.5t-15.5 -2.5q-13 0 -24 5.5t-19.5 14t-13.5 20t-5 23.5z" />
<glyph unicode="&#xc3;" horiz-adv-x="1219" d="M-19 69q0 13 4.5 25.5t15.5 34.5l589 1125q8 16 15 29l14 23q7 11 14.5 20.5t17.5 19.5q19 18 44.5 28t60.5 10q33 0 55 -7.5t38 -23.5q17 -17 24.5 -42.5t13.5 -60.5l203 -1129q4 -23 5 -32.5t1 -17.5q0 -18 -8 -32.5t-22 -25t-33 -16.5t-39 -6q-21 0 -37 6t-28 18 q-11 11 -15.5 28t-8.5 37l-48 286h-541l-155 -308l-14 -28q-5 -9 -13 -17q-10 -10 -24 -16t-34 -6q-18 0 -35 5.5t-30.5 16t-21.5 25t-8 31.5zM390 517h443l-78 474q-8 41 -13 77t-8 64q-4 32 -7 59h-4l-27 -60l-32 -63l-37 -77zM439 1605q0 24 17 53t48 54.5t73.5 43.5 t92.5 18q49 0 85.5 -15.5t66.5 -33.5l57 -33q27 -16 59 -16q31 0 52 12.5t38 27.5l33 28q16 13 36 13q22 0 38.5 -14.5t16.5 -43.5q0 -24 -17 -53t-48 -54.5t-73 -43t-93 -17.5q-50 0 -86 15t-66 33l-57 33q-27 16 -59 16q-31 0 -52 -12.5t-39 -27.5l-33 -27 q-16 -13 -35 -13q-22 0 -38.5 13.5t-16.5 43.5z" />
<glyph unicode="&#xc4;" horiz-adv-x="1219" d="M-19 69q0 13 4.5 25.5t15.5 34.5l589 1125q8 16 15 29l14 23q7 11 14.5 20.5t17.5 19.5q19 18 44.5 28t60.5 10q33 0 55 -7.5t38 -23.5q17 -17 24.5 -42.5t13.5 -60.5l203 -1129q4 -23 5 -32.5t1 -17.5q0 -18 -8 -32.5t-22 -25t-33 -16.5t-39 -6q-21 0 -37 6t-28 18 q-11 11 -15.5 28t-8.5 37l-48 286h-541l-155 -308l-14 -28q-5 -9 -13 -17q-10 -10 -24 -16t-34 -6q-18 0 -35 5.5t-30.5 16t-21.5 25t-8 31.5zM390 517h443l-78 474q-8 41 -13 77t-8 64q-4 32 -7 59h-4l-27 -60l-32 -63l-37 -77zM462 1644q0 27 9.5 49.5t26.5 40t40 27 t50 9.5q25 0 45.5 -8.5t35 -23.5t23 -35.5t8.5 -43.5q0 -27 -9 -50t-25.5 -40.5t-39.5 -27t-50 -9.5q-25 0 -46 8.5t-36 23.5t-23.5 35.5t-8.5 44.5zM882 1644q0 27 9.5 49.5t26.5 40t40 27t51 9.5q24 0 45 -8.5t35.5 -23.5t22.5 -35.5t8 -43.5q0 -27 -9 -50t-25.5 -40.5 t-39.5 -27t-50 -9.5q-25 0 -45.5 8.5t-36 23.5t-24 35.5t-8.5 44.5z" />
<glyph unicode="&#xc5;" horiz-adv-x="1219" d="M-19 69q0 13 4.5 25.5t15.5 34.5l589 1125q8 16 15 29l14 23q7 11 14.5 20.5t17.5 19.5q19 18 44.5 28t60.5 10q33 0 55 -7.5t38 -23.5q17 -17 24.5 -42.5t13.5 -60.5l203 -1129q4 -23 5 -32.5t1 -17.5q0 -18 -8 -32.5t-22 -25t-33 -16.5t-39 -6q-21 0 -37 6t-28 18 q-11 11 -15.5 28t-8.5 37l-48 286h-541l-155 -308l-14 -28q-5 -9 -13 -17q-10 -10 -24 -16t-34 -6q-18 0 -35 5.5t-30.5 16t-21.5 25t-8 31.5zM390 517h443l-78 474q-8 41 -13 77t-8 64q-4 32 -7 59h-4l-27 -60l-32 -63l-37 -77zM542 1709q0 49 19 92t54 75.5t82.5 51 t105.5 18.5q56 0 100.5 -16.5t76 -46t48.5 -69.5t17 -86q0 -49 -19 -92t-53.5 -75.5t-83 -51t-105.5 -18.5q-56 0 -100.5 16.5t-76 46t-48.5 69.5t-17 86zM661 1719q0 -61 36.5 -96t96.5 -35t96 35t36 96q0 60 -36 95.5t-96 35.5t-96.5 -35.5t-36.5 -95.5z" />
<glyph unicode="&#xc6;" horiz-adv-x="1707" d="M-72 72q0 19 9 34.5t24 34.5l876 1164q16 22 30.5 36t29.5 22.5t33 11.5t41 3h722q30 0 46 -16.5t16 -49.5q0 -21 -6 -37.5t-16.5 -28t-25.5 -17.5t-32 -6h-519l-76 -438h440q30 0 46 -16.5t16 -49.5q0 -20 -6 -36.5t-16.5 -28t-25 -17.5t-32.5 -6h-449l-82 -476h514 q30 0 46 -17t16 -50q0 -20 -6 -36.5t-16.5 -28t-25.5 -17.5t-32 -6h-615q-45 0 -64 23.5t-11 70.5l47 272h-484l-236 -318q-4 -7 -8 -11.5t-7 -8.5t-6 -7l-7 -7q-23 -23 -56 -23q-18 0 -34.5 6t-29.5 17t-20.5 26t-7.5 32zM447 517h403l122 706h-3z" />
<glyph unicode="&#xc7;" horiz-adv-x="1169" d="M116 514q0 134 27.5 252t77 216t119 174.5t153.5 129.5t180.5 81t200.5 28q59 0 109 -7t89 -19t67 -27.5t44 -31.5q13 -14 19 -27.5t6 -31.5q0 -31 -20 -52.5t-55 -21.5q-21 0 -42.5 9.5t-52 21t-75.5 21t-112 9.5q-105 0 -203 -48t-173.5 -138t-121 -220t-45.5 -294 q0 -96 25.5 -170t72.5 -124t114 -76t149 -26q67 0 115.5 10.5t83 22t58 22t42.5 10.5q28 0 43 -17t15 -42q0 -19 -6 -35t-20 -30q-22 -21 -58 -39t-83.5 -31.5t-104.5 -21t-118 -7.5h-15l-37 -90q32 -6 56.5 -17.5t41.5 -30.5t26 -44.5t9 -58.5q0 -49 -21 -92t-60.5 -74.5 t-96.5 -50t-128 -18.5q-35 0 -58.5 5t-37.5 14t-20 21t-6 27q0 24 14.5 39t37.5 15q13 0 26 -1.5t31 -1.5q41 0 70.5 7t48.5 19.5t28 30t9 38.5q0 27 -17.5 44t-57.5 17h-9q-24 0 -33.5 15.5t3.5 47.5l62 151q-91 18 -162.5 61.5t-121.5 109t-76 153t-26 194.5z" />
<glyph unicode="&#xc8;" horiz-adv-x="1049" d="M117 68q0 9 1 18t3 19l205 1189q7 42 31 63t67 21h611q30 0 46 -16.5t16 -49.5q0 -21 -6 -37.5t-16.5 -28t-25.5 -17.5t-32 -6h-519l-76 -438h440q30 0 46 -16.5t16 -49.5q0 -20 -5.5 -36.5t-16.5 -28t-25.5 -17.5t-32.5 -6h-449l-82 -476h514q30 0 46 -17t16 -50 q0 -20 -5.5 -36.5t-16.5 -28t-26 -17.5t-32 -6h-614q-39 0 -58.5 17t-19.5 51zM489 1729q0 19 9 37.5t23 33t31.5 24t34.5 9.5q13 0 23 -5t17 -13l201 -215q9 -11 13 -22.5t3 -24.5q-2 -13 -9.5 -25t-18.5 -21t-24.5 -13.5t-27.5 -1.5q-6 2 -12 4.5t-13 7.5l-222 176 q-13 10 -20.5 22t-7.5 27z" />
<glyph unicode="&#xc9;" horiz-adv-x="1049" d="M117 68q0 9 1 18t3 19l205 1189q7 42 31 63t67 21h611q30 0 46 -16.5t16 -49.5q0 -21 -6 -37.5t-16.5 -28t-25.5 -17.5t-32 -6h-519l-76 -438h440q30 0 46 -16.5t16 -49.5q0 -20 -5.5 -36.5t-16.5 -28t-25.5 -17.5t-32.5 -6h-449l-82 -476h514q30 0 46 -17t16 -50 q0 -20 -5.5 -36.5t-16.5 -28t-26 -17.5t-32 -6h-614q-39 0 -58.5 17t-19.5 51zM661 1564q0 13 5.5 24t16.5 20l254 203q18 14 36 14t34 -9.5t28 -23.5t19.5 -31.5t7.5 -33.5q0 -17 -7 -30t-23 -21l-277 -169q-8 -5 -15.5 -8t-16.5 -3q-13 0 -24 6t-19.5 15.5t-13.5 21.5 t-5 25z" />
<glyph unicode="&#xca;" horiz-adv-x="1049" d="M117 68q0 9 1 18t3 19l205 1189q7 42 31 63t67 21h611q30 0 46 -16.5t16 -49.5q0 -21 -6 -37.5t-16.5 -28t-25.5 -17.5t-32 -6h-519l-76 -438h440q30 0 46 -16.5t16 -49.5q0 -20 -5.5 -36.5t-16.5 -28t-25.5 -17.5t-32.5 -6h-449l-82 -476h514q30 0 46 -17t16 -50 q0 -20 -5.5 -36.5t-16.5 -28t-26 -17.5t-32 -6h-614q-39 0 -58.5 17t-19.5 51zM457 1562q0 24 20 41l221 180q24 19 44.5 30.5t46.5 11.5q27 0 45.5 -11t35.5 -30l154 -185q8 -8 11 -17t3 -19q0 -14 -6 -25t-15.5 -20t-22 -14t-24.5 -5t-20 3.5t-17 10.5l-166 139l-219 -144 q-7 -4 -13.5 -6.5t-15.5 -2.5q-13 0 -24 5.5t-19.5 14t-13.5 20t-5 23.5z" />
<glyph unicode="&#xcb;" horiz-adv-x="1049" d="M117 68q0 9 1 18t3 19l205 1189q7 42 31 63t67 21h611q30 0 46 -16.5t16 -49.5q0 -21 -6 -37.5t-16.5 -28t-25.5 -17.5t-32 -6h-519l-76 -438h440q30 0 46 -16.5t16 -49.5q0 -20 -5.5 -36.5t-16.5 -28t-25.5 -17.5t-32.5 -6h-449l-82 -476h514q30 0 46 -17t16 -50 q0 -20 -5.5 -36.5t-16.5 -28t-26 -17.5t-32 -6h-614q-39 0 -58.5 17t-19.5 51zM422 1644q0 27 9.5 49.5t26.5 40t40 27t50 9.5q25 0 45.5 -8.5t35 -23.5t23 -35.5t8.5 -43.5q0 -27 -9 -50t-25.5 -40.5t-39.5 -27t-50 -9.5q-25 0 -46 8.5t-36 23.5t-23.5 35.5t-8.5 44.5z M842 1644q0 27 9.5 49.5t26.5 40t40 27t51 9.5q24 0 45 -8.5t35.5 -23.5t22.5 -35.5t8 -43.5q0 -27 -9 -50t-25.5 -40.5t-39.5 -27t-50 -9.5q-25 0 -45.5 8.5t-36 23.5t-24 35.5t-8.5 44.5z" />
<glyph unicode="&#xcc;" horiz-adv-x="563" d="M114 59q0 7 1.5 16.5t4.5 24.5l207 1202q7 40 31 61t71 21q84 0 84 -65q0 -7 -2 -16.5t-4 -24.5l-207 -1201q-7 -40 -31 -61.5t-71 -21.5q-84 0 -84 65zM219 1729q0 19 9 37.5t23 33t31.5 24t34.5 9.5q13 0 23 -5t17 -13l201 -215q9 -11 13 -22.5t3 -24.5 q-2 -13 -9.5 -25t-18.5 -21t-24.5 -13.5t-27.5 -1.5q-6 2 -12 4.5t-13 7.5l-222 176q-13 10 -20.5 22t-7.5 27z" />
<glyph unicode="&#xcd;" horiz-adv-x="563" d="M114 59q0 7 1.5 16.5t4.5 24.5l207 1202q7 40 31 61t71 21q84 0 84 -65q0 -7 -2 -16.5t-4 -24.5l-207 -1201q-7 -40 -31 -61.5t-71 -21.5q-84 0 -84 65zM327 1564q0 13 5.5 24t16.5 20l254 203q18 14 36 14t34 -9.5t28 -23.5t19.5 -31.5t7.5 -33.5q0 -17 -7 -30t-23 -21 l-277 -169q-8 -5 -15.5 -8t-16.5 -3q-13 0 -24 6t-19.5 15.5t-13.5 21.5t-5 25z" />
<glyph unicode="&#xce;" horiz-adv-x="563" d="M114 59q0 7 1.5 16.5t4.5 24.5l207 1202q7 40 31 61t71 21q84 0 84 -65q0 -7 -2 -16.5t-4 -24.5l-207 -1201q-7 -40 -31 -61.5t-71 -21.5q-84 0 -84 65zM163 1562q0 24 20 41l221 180q24 19 44.5 30.5t46.5 11.5q27 0 45.5 -11t35.5 -30l154 -185q8 -8 11 -17t3 -19 q0 -14 -6 -25t-15.5 -20t-22 -14t-24.5 -5t-20 3.5t-17 10.5l-166 139l-219 -144q-7 -4 -13.5 -6.5t-15.5 -2.5q-13 0 -24 5.5t-19.5 14t-13.5 20t-5 23.5z" />
<glyph unicode="&#xcf;" horiz-adv-x="563" d="M114 59q0 7 1.5 16.5t4.5 24.5l207 1202q7 40 31 61t71 21q84 0 84 -65q0 -7 -2 -16.5t-4 -24.5l-207 -1201q-7 -40 -31 -61.5t-71 -21.5q-84 0 -84 65zM138 1644q0 27 9.5 49.5t26.5 40t40 27t50 9.5q25 0 45.5 -8.5t35 -23.5t23 -35.5t8.5 -43.5q0 -27 -9 -50 t-25.5 -40.5t-39.5 -27t-50 -9.5q-25 0 -46 8.5t-36 23.5t-23.5 35.5t-8.5 44.5zM558 1644q0 27 9.5 49.5t26.5 40t40 27t51 9.5q24 0 45 -8.5t35.5 -23.5t22.5 -35.5t8 -43.5q0 -27 -9 -50t-25.5 -40.5t-39.5 -27t-50 -9.5q-25 0 -45.5 8.5t-36 23.5t-24 35.5t-8.5 44.5z " />
<glyph unicode="&#xd0;" horiz-adv-x="1393" d="M81 713q0 19 5.5 34.5t16 26.5t24.5 16.5t31 5.5h109l86 498q7 42 31 63t67 21h316q144 0 252 -36t180.5 -104t109 -166t36.5 -224q0 -191 -61 -347t-171 -267.5t-263.5 -172.5t-338.5 -61h-289q-46 0 -65 23.5t-11 70.5l96 558h-102q-29 0 -44 15t-15 46zM340 154h202 q134 0 246 46t193 132.5t126.5 211t45.5 281.5q0 197 -103.5 298t-314.5 101h-210l-75 -428h247q29 0 44 -15.5t15 -45.5q0 -20 -5.5 -35t-15.5 -26t-24.5 -16.5t-31.5 -5.5h-253z" />
<glyph unicode="&#xd1;" horiz-adv-x="1460" d="M114 59q0 7 1.5 16.5t4.5 24.5l199 1163q5 31 16.5 54.5t28.5 38t41 21.5t54 7q33 0 55.5 -8t39.5 -25q19 -19 36 -52l39 -84l350 -779q17 -38 32 -75l26 -67l24 -65l4 2q3 35 7 75q3 34 8.5 77.5t13.5 89.5l139 831q6 40 30 60t67 20q38 0 59 -16.5t21 -48.5 q0 -8 -1.5 -17t-3.5 -24l-200 -1163q-6 -31 -17 -54.5t-28 -38t-40.5 -21.5t-54.5 -7q-33 0 -55.5 8t-38.5 25q-20 19 -36.5 52.5t-38.5 83.5l-351 779q-17 38 -32 76l-26 66l-23 65l-5 -2q-3 -35 -7 -75q-3 -34 -8.5 -77.5t-12.5 -89.5l-139 -831q-7 -40 -30.5 -60 t-66.5 -20q-38 0 -59.5 16.5t-21.5 48.5zM572 1605q0 24 17 53t48 54.5t73.5 43.5t92.5 18q49 0 85.5 -15.5t66.5 -33.5l57 -33q27 -16 59 -16q31 0 52 12.5t39 28.5l33 28q15 12 35 12q22 0 38.5 -14.5t16.5 -43.5q0 -24 -17 -53t-48 -54.5t-73 -43t-93 -17.5q-50 0 -86 15 t-65 33l-57 34q-28 15 -60 15q-31 0 -52 -12.5t-38 -27.5l-34 -27q-16 -13 -35 -13q-22 0 -38.5 13.5t-16.5 43.5z" />
<glyph unicode="&#xd2;" horiz-adv-x="1453" d="M118 517q0 135 27.5 253t77 215.5t118.5 174.5t153 129.5t180.5 80.5t200.5 28q121 0 218 -37.5t165 -107t104.5 -168.5t36.5 -223q0 -135 -27 -253t-76.5 -215.5t-119 -174.5t-153.5 -129.5t-180.5 -80.5t-200.5 -28q-120 0 -217 37t-165.5 106.5t-105 168.5t-36.5 224z M310 541q0 -98 26 -173t73 -126t113 -77.5t146 -26.5q104 0 201.5 47.5t172.5 138t120 220.5t45 294q0 98 -26 173t-72.5 126t-113 77.5t-146.5 26.5q-104 0 -201 -48t-172 -138t-120.5 -220t-45.5 -294zM636 1729q0 19 9 37.5t23 33t31.5 24t34.5 9.5q13 0 23 -5t17 -13 l201 -215q9 -11 13 -22.5t3 -24.5q-2 -13 -9.5 -25t-18.5 -21t-24.5 -13.5t-27.5 -1.5q-6 2 -12 4.5t-13 7.5l-222 176q-13 10 -20.5 22t-7.5 27z" />
<glyph unicode="&#xd3;" horiz-adv-x="1453" d="M118 517q0 135 27.5 253t77 215.5t118.5 174.5t153 129.5t180.5 80.5t200.5 28q121 0 218 -37.5t165 -107t104.5 -168.5t36.5 -223q0 -135 -27 -253t-76.5 -215.5t-119 -174.5t-153.5 -129.5t-180.5 -80.5t-200.5 -28q-120 0 -217 37t-165.5 106.5t-105 168.5t-36.5 224z M310 541q0 -98 26 -173t73 -126t113 -77.5t146 -26.5q104 0 201.5 47.5t172.5 138t120 220.5t45 294q0 98 -26 173t-72.5 126t-113 77.5t-146.5 26.5q-104 0 -201 -48t-172 -138t-120.5 -220t-45.5 -294zM789 1564q0 13 5.5 24t16.5 20l254 203q18 14 36 14t34 -9.5 t28 -23.5t19.5 -31.5t7.5 -33.5q0 -17 -7 -30t-23 -21l-277 -169q-8 -5 -15.5 -8t-16.5 -3q-13 0 -24 6t-19.5 15.5t-13.5 21.5t-5 25z" />
<glyph unicode="&#xd4;" horiz-adv-x="1453" d="M118 517q0 135 27.5 253t77 215.5t118.5 174.5t153 129.5t180.5 80.5t200.5 28q121 0 218 -37.5t165 -107t104.5 -168.5t36.5 -223q0 -135 -27 -253t-76.5 -215.5t-119 -174.5t-153.5 -129.5t-180.5 -80.5t-200.5 -28q-120 0 -217 37t-165.5 106.5t-105 168.5t-36.5 224z M310 541q0 -98 26 -173t73 -126t113 -77.5t146 -26.5q104 0 201.5 47.5t172.5 138t120 220.5t45 294q0 98 -26 173t-72.5 126t-113 77.5t-146.5 26.5q-104 0 -201 -48t-172 -138t-120.5 -220t-45.5 -294zM616 1562q0 24 20 41l221 180q24 19 44.5 30.5t46.5 11.5 q27 0 45.5 -11t35.5 -30l154 -185q8 -8 11 -17t3 -19q0 -14 -6 -25t-15.5 -20t-22 -14t-24.5 -5t-20 3.5t-17 10.5l-166 139l-219 -144q-7 -4 -13.5 -6.5t-15.5 -2.5q-13 0 -24 5.5t-19.5 14t-13.5 20t-5 23.5z" />
<glyph unicode="&#xd5;" horiz-adv-x="1453" d="M118 517q0 135 27.5 253t77 215.5t118.5 174.5t153 129.5t180.5 80.5t200.5 28q121 0 218 -37.5t165 -107t104.5 -168.5t36.5 -223q0 -135 -27 -253t-76.5 -215.5t-119 -174.5t-153.5 -129.5t-180.5 -80.5t-200.5 -28q-120 0 -217 37t-165.5 106.5t-105 168.5t-36.5 224z M310 541q0 -98 26 -173t73 -126t113 -77.5t146 -26.5q104 0 201.5 47.5t172.5 138t120 220.5t45 294q0 98 -26 173t-72.5 126t-113 77.5t-146.5 26.5q-104 0 -201 -48t-172 -138t-120.5 -220t-45.5 -294zM555 1605q0 24 17 53t48 54.5t73.5 43.5t92.5 18q49 0 85.5 -15.5 t66.5 -33.5l57 -33q27 -16 59 -16q31 0 52 12.5t39 27.5l33 28q15 13 35 13q22 0 38.5 -14.5t16.5 -43.5q0 -24 -17 -53t-48 -54.5t-73 -43t-93 -17.5q-50 0 -86 15t-65 33l-58 33q-27 16 -59 16q-31 0 -52 -12.5t-38 -27.5l-34 -27q-16 -13 -35 -13q-22 0 -38.5 13.5 t-16.5 43.5z" />
<glyph unicode="&#xd6;" horiz-adv-x="1453" d="M118 517q0 135 27.5 253t77 215.5t118.5 174.5t153 129.5t180.5 80.5t200.5 28q121 0 218 -37.5t165 -107t104.5 -168.5t36.5 -223q0 -135 -27 -253t-76.5 -215.5t-119 -174.5t-153.5 -129.5t-180.5 -80.5t-200.5 -28q-120 0 -217 37t-165.5 106.5t-105 168.5t-36.5 224z M310 541q0 -98 26 -173t73 -126t113 -77.5t146 -26.5q104 0 201.5 47.5t172.5 138t120 220.5t45 294q0 98 -26 173t-72.5 126t-113 77.5t-146.5 26.5q-104 0 -201 -48t-172 -138t-120.5 -220t-45.5 -294zM580 1644q0 27 9.5 49.5t26.5 40t40 27t50 9.5q25 0 45.5 -8.5 t35 -23.5t23 -35.5t8.5 -43.5q0 -27 -9 -50t-25.5 -40.5t-39.5 -27t-50 -9.5q-25 0 -46 8.5t-36 23.5t-23.5 35.5t-8.5 44.5zM1000 1644q0 27 9.5 49.5t26.5 40t40 27t51 9.5q24 0 45 -8.5t35.5 -23.5t22.5 -35.5t8 -43.5q0 -27 -9 -50t-25.5 -40.5t-39.5 -27t-50 -9.5 q-25 0 -45.5 8.5t-36 23.5t-24 35.5t-8.5 44.5z" />
<glyph unicode="&#xd7;" horiz-adv-x="1168" d="M160 262q0 17 6.5 31.5t23.5 29.5l309 264l-220 257q-11 13 -16.5 25.5t-5.5 29.5q0 15 6 28t16.5 23t24 15.5t27.5 5.5q18 0 33 -7t31 -26l217 -256l305 264q15 12 28.5 18t28.5 6q14 0 27 -5.5t22 -14.5t14.5 -21.5t5.5 -25.5q0 -17 -8 -32t-24 -30l-308 -263l220 -258 q12 -14 16.5 -26.5t4.5 -26.5q0 -16 -6 -29.5t-16 -23.5t-24 -15.5t-30 -5.5q-15 0 -32 8t-31 25l-214 257l-307 -266q-13 -12 -26.5 -18t-28.5 -6t-28 5.5t-22 15t-14 22t-5 26.5z" />
<glyph unicode="&#xd8;" horiz-adv-x="1480" d="M110 -125q0 15 8.5 29t26.5 40l126 176q-73 68 -113 168t-40 229q0 135 28 253t79 215.5t122 174.5t157.5 129.5t185.5 80.5t207 28q74 0 135.5 -12.5t116.5 -37.5l121 168l11 16q5 7 9 12l8 9q3 4 6 7q18 18 44 18q16 0 31.5 -5.5t27.5 -15.5t19 -24t7 -29t-8 -29 t-26 -40l-122 -171q72 -69 110 -170.5t38 -231.5q0 -203 -58.5 -365.5t-161 -277.5t-241.5 -176.5t-300 -61.5q-74 0 -141 14t-125 42l-124 -174q-13 -18 -20.5 -27.5t-14.5 -16.5q-17 -18 -44 -18q-16 0 -31 5.5t-27 15.5t-19.5 23.5t-7.5 29.5zM307 541q0 -85 20 -151 t59 -115l664 930q-39 19 -82.5 29t-96.5 10q-73 0 -143.5 -21.5t-133.5 -63t-115.5 -102t-91 -138.5t-59.5 -173t-21 -205zM496 179q42 -21 88.5 -32.5t105.5 -11.5q110 0 209.5 48t174.5 138.5t119 221t44 295.5q0 87 -19.5 154t-56.5 117z" />
<glyph unicode="&#xd9;" horiz-adv-x="1393" d="M173 400q0 56 8 114.5t19 119.5l115 667q7 40 31 61.5t71 21.5t68 -21t14 -62l-117 -678q-5 -29 -9 -55.5t-7 -50.5t-5 -46t-2 -43q0 -77 21 -132t58.5 -90t87.5 -51.5t110 -16.5q71 0 136.5 24.5t119 74t92 126.5t56.5 182l130 756q7 40 31 61.5t71 21.5t68 -21t14 -62 l-129 -748q-26 -146 -80 -253.5t-132.5 -178t-179.5 -105.5t-222 -35q-106 0 -187 27t-137 79.5t-85 131t-29 181.5zM584 1729q0 19 9 37.5t23 33t31.5 24t34.5 9.5q13 0 23 -5t17 -13l201 -215q9 -11 13 -22.5t3 -24.5q-2 -13 -9.5 -25t-18.5 -21t-24.5 -13.5t-27.5 -1.5 q-6 2 -12 4.5t-13 7.5l-222 176q-13 10 -20.5 22t-7.5 27z" />
<glyph unicode="&#xda;" horiz-adv-x="1393" d="M173 400q0 56 8 114.5t19 119.5l115 667q7 40 31 61.5t71 21.5t68 -21t14 -62l-117 -678q-5 -29 -9 -55.5t-7 -50.5t-5 -46t-2 -43q0 -77 21 -132t58.5 -90t87.5 -51.5t110 -16.5q71 0 136.5 24.5t119 74t92 126.5t56.5 182l130 756q7 40 31 61.5t71 21.5t68 -21t14 -62 l-129 -748q-26 -146 -80 -253.5t-132.5 -178t-179.5 -105.5t-222 -35q-106 0 -187 27t-137 79.5t-85 131t-29 181.5zM783 1564q0 13 5.5 24t16.5 20l254 203q18 14 36 14t34 -9.5t28 -23.5t19.5 -31.5t7.5 -33.5q0 -17 -7 -30t-23 -21l-277 -169q-8 -5 -15.5 -8t-16.5 -3 q-13 0 -24 6t-19.5 15.5t-13.5 21.5t-5 25z" />
<glyph unicode="&#xdb;" horiz-adv-x="1393" d="M173 400q0 56 8 114.5t19 119.5l115 667q7 40 31 61.5t71 21.5t68 -21t14 -62l-117 -678q-5 -29 -9 -55.5t-7 -50.5t-5 -46t-2 -43q0 -77 21 -132t58.5 -90t87.5 -51.5t110 -16.5q71 0 136.5 24.5t119 74t92 126.5t56.5 182l130 756q7 40 31 61.5t71 21.5t68 -21t14 -62 l-129 -748q-26 -146 -80 -253.5t-132.5 -178t-179.5 -105.5t-222 -35q-106 0 -187 27t-137 79.5t-85 131t-29 181.5zM580 1562q0 24 20 41l221 180q24 19 44.5 30.5t46.5 11.5q27 0 45.5 -11t35.5 -30l154 -185q8 -8 11 -17t3 -19q0 -14 -6 -25t-15.5 -20t-22 -14t-24.5 -5 t-20 3.5t-17 10.5l-166 139l-219 -144q-7 -4 -13.5 -6.5t-15.5 -2.5q-13 0 -24 5.5t-19.5 14t-13.5 20t-5 23.5z" />
<glyph unicode="&#xdc;" horiz-adv-x="1393" d="M173 400q0 56 8 114.5t19 119.5l115 667q7 40 31 61.5t71 21.5t68 -21t14 -62l-117 -678q-5 -29 -9 -55.5t-7 -50.5t-5 -46t-2 -43q0 -77 21 -132t58.5 -90t87.5 -51.5t110 -16.5q71 0 136.5 24.5t119 74t92 126.5t56.5 182l130 756q7 40 31 61.5t71 21.5t68 -21t14 -62 l-129 -748q-26 -146 -80 -253.5t-132.5 -178t-179.5 -105.5t-222 -35q-106 0 -187 27t-137 79.5t-85 131t-29 181.5zM553 1644q0 27 9.5 49.5t26.5 40t40 27t50 9.5q25 0 45.5 -8.5t35 -23.5t23 -35.5t8.5 -43.5q0 -27 -9 -50t-25.5 -40.5t-39.5 -27t-50 -9.5q-25 0 -46 8.5 t-36 23.5t-23.5 35.5t-8.5 44.5zM973 1644q0 27 9.5 49.5t26.5 40t40 27t51 9.5q24 0 45 -8.5t35.5 -23.5t22.5 -35.5t8 -43.5q0 -27 -9 -50t-25.5 -40.5t-39.5 -27t-50 -9.5q-25 0 -45.5 8.5t-36 23.5t-24 35.5t-8.5 44.5z" />
<glyph unicode="&#xdd;" horiz-adv-x="1088" d="M166 1296q0 20 8.5 36.5t23.5 28.5t33.5 19t39.5 7q18 0 32 -5.5t24 -15.5q9 -9 14.5 -20.5t16.5 -38.5l184 -460l15 -40q7 -19 12 -35q5 -18 10 -34h4l23 35l25 36l30 43l346 477q9 13 15.5 21.5t13.5 14.5q10 11 25 16.5t30 5.5q18 0 35 -6.5t30.5 -18.5t21.5 -27.5 t8 -33.5q0 -8 -2 -15.5t-5.5 -14.5t-8.5 -14.5t-11 -15.5l-513 -667l-86 -497q-7 -40 -31 -61.5t-71 -21.5t-68 21t-14 62l86 499l-277 656q-10 24 -14.5 37t-4.5 27zM614 1564q0 13 5.5 24t16.5 20l254 203q18 14 36 14t34 -9.5t28 -23.5t19.5 -31.5t7.5 -33.5 q0 -17 -7 -30t-23 -21l-277 -169q-8 -5 -15.5 -8t-16.5 -3q-13 0 -24 6t-19.5 15.5t-13.5 21.5t-5 25z" />
<glyph unicode="&#xde;" horiz-adv-x="1092" d="M116 77l211 1225q7 40 31 61t71 21q23 0 40 -5.5t27 -16t14 -25.5t1 -34l-32 -185h170q107 0 186 -23.5t131.5 -67.5t77.5 -105t25 -135q0 -108 -39.5 -199.5t-113.5 -159t-181.5 -105t-244.5 -37.5h-155l-36 -209q-6 -40 -30.5 -61.5t-71.5 -21.5q-46 0 -67 21t-14 62z M361 438h161q83 0 149 23.5t111.5 66t70 102.5t24.5 131q0 49 -14.5 87t-45.5 64.5t-80 39.5t-118 13h-167z" />
<glyph unicode="&#xdf;" horiz-adv-x="1183" d="M-322 -392q0 16 5 29t14.5 22.5t21.5 14t27 4.5q13 0 25 -3l25 -7q13 -3 29.5 -6.5t40.5 -3.5q33 0 63.5 11t56.5 38t46.5 71t31.5 111l208 1201q16 99 57.5 174t103.5 126.5t145.5 78t185.5 26.5q78 0 138.5 -20t101.5 -54.5t62 -81t21 -99.5q0 -70 -24.5 -122 t-60.5 -92.5t-78.5 -73t-78.5 -63t-60 -63t-24 -74.5q0 -41 24.5 -71.5t61 -56.5t80 -52.5t80.5 -61t61.5 -80.5t24.5 -112q0 -72 -26.5 -133.5t-78.5 -106.5t-128.5 -70.5t-175.5 -25.5q-87 0 -142.5 18.5t-77.5 39.5q-12 12 -18 25.5t-6 30.5q0 14 5 26.5t14 21.5 t21.5 14.5t28.5 5.5q17 0 33 -6l36 -13q21 -7 50.5 -13t74.5 -6q51 0 90 12.5t65 35t39.5 52t13.5 65.5q0 47 -25 80t-62 60t-80.5 52.5t-81 57.5t-62 75t-24.5 106q0 67 24 116t59.5 86.5t78 67.5t78.5 61.5t60 69t24 87.5q0 65 -40.5 101t-129.5 36q-52 0 -98.5 -17 t-83 -50t-62 -81.5t-36.5 -112.5l-210 -1213q-17 -102 -54 -171.5t-87 -111.5t-111.5 -60.5t-129.5 -18.5q-65 0 -103.5 14t-55.5 31q-10 10 -15.5 23t-5.5 29z" />
<glyph unicode="&#xe0;" d="M84 370q0 155 44.5 276.5t125.5 206t194 129t250 44.5q65 0 117 -8.5t90.5 -21t64 -26.5t36.5 -25q7 -6 11.5 -14t7.5 -18t3 -23t-3 -31l-93 -537q-7 -38 -12 -69l-8 -57q-3 -26 -4.5 -46.5t-1.5 -36.5t1 -27t1 -25q0 -30 -19.5 -49t-54.5 -19q-28 0 -46 11.5t-28.5 32 t-14.5 49.5t-1 64h-3q-35 -47 -83 -84q-21 -16 -46.5 -31.5t-56 -27t-65.5 -18.5t-74 -7q-74 0 -135 25t-105 74t-68 121.5t-24 167.5zM271 395q0 -69 13.5 -119t39 -82t61 -46.5t79.5 -14.5q32 0 61.5 8.5t56.5 22t50 31.5t42 36q45 44 80 100l88 506q-19 11 -44 21 q-21 7 -54 14t-78 7q-83 0 -155 -31.5t-125 -93t-84 -151.5t-31 -208zM484 1430q0 18 9.5 34.5t24.5 29.5t33 21t36 8t30 -7.5t21 -22.5l137 -248q6 -10 8 -17.5t2 -16.5q0 -13 -6 -25t-16 -20.5t-23.5 -14t-27.5 -5.5q-15 0 -25.5 6t-20.5 18l-162 217q-8 10 -14 20t-6 23z " />
<glyph unicode="&#xe1;" d="M84 370q0 155 44.5 276.5t125.5 206t194 129t250 44.5q65 0 117 -8.5t90.5 -21t64 -26.5t36.5 -25q7 -6 11.5 -14t7.5 -18t3 -23t-3 -31l-93 -537q-7 -38 -12 -69l-8 -57q-3 -26 -4.5 -46.5t-1.5 -36.5t1 -27t1 -25q0 -30 -19.5 -49t-54.5 -19q-28 0 -46 11.5t-28.5 32 t-14.5 49.5t-1 64h-3q-35 -47 -83 -84q-21 -16 -46.5 -31.5t-56 -27t-65.5 -18.5t-74 -7q-74 0 -135 25t-105 74t-68 121.5t-24 167.5zM271 395q0 -69 13.5 -119t39 -82t61 -46.5t79.5 -14.5q32 0 61.5 8.5t56.5 22t50 31.5t42 36q45 44 80 100l88 506q-19 11 -44 21 q-21 7 -54 14t-78 7q-83 0 -155 -31.5t-125 -93t-84 -151.5t-31 -208zM593 1215q0 11 4.5 20.5t13.5 21.5l212 242q19 21 45 21q17 0 34 -8.5t30 -22t21.5 -30.5t8.5 -34q0 -15 -6 -26t-17 -21l-242 -213q-9 -6 -18 -9.5t-19 -3.5q-13 0 -25 5.5t-21.5 14t-15 20t-5.5 23.5z " />
<glyph unicode="&#xe2;" d="M84 370q0 155 44.5 276.5t125.5 206t194 129t250 44.5q65 0 117 -8.5t90.5 -21t64 -26.5t36.5 -25q7 -6 11.5 -14t7.5 -18t3 -23t-3 -31l-93 -537q-7 -38 -12 -69l-8 -57q-3 -26 -4.5 -46.5t-1.5 -36.5t1 -27t1 -25q0 -30 -19.5 -49t-54.5 -19q-28 0 -46 11.5t-28.5 32 t-14.5 49.5t-1 64h-3q-35 -47 -83 -84q-21 -16 -46.5 -31.5t-56 -27t-65.5 -18.5t-74 -7q-74 0 -135 25t-105 74t-68 121.5t-24 167.5zM271 395q0 -69 13.5 -119t39 -82t61 -46.5t79.5 -14.5q32 0 61.5 8.5t56.5 22t50 31.5t42 36q45 44 80 100l88 506q-19 11 -44 21 q-21 7 -54 14t-78 7q-83 0 -155 -31.5t-125 -93t-84 -151.5t-31 -208zM411 1216q0 11 5 22t15 21l219 203q23 21 42 31.5t44 10.5q26 0 43.5 -10t32.5 -31l149 -209q6 -9 9 -17t3 -17q0 -13 -6 -25t-15.5 -20.5t-21.5 -13.5t-25 -5q-26 0 -44 19l-146 157l-211 -161 q-17 -13 -35 -13q-13 0 -23.5 5.5t-18 13.5t-12 18.5t-4.5 20.5z" />
<glyph unicode="&#xe3;" d="M84 370q0 155 44.5 276.5t125.5 206t194 129t250 44.5q65 0 117 -8.5t90.5 -21t64 -26.5t36.5 -25q7 -6 11.5 -14t7.5 -18t3 -23t-3 -31l-93 -537q-7 -38 -12 -69l-8 -57q-3 -26 -4.5 -46.5t-1.5 -36.5t1 -27t1 -25q0 -30 -19.5 -49t-54.5 -19q-28 0 -46 11.5t-28.5 32 t-14.5 49.5t-1 64h-3q-35 -47 -83 -84q-21 -16 -46.5 -31.5t-56 -27t-65.5 -18.5t-74 -7q-74 0 -135 25t-105 74t-68 121.5t-24 167.5zM271 395q0 -69 13.5 -119t39 -82t61 -46.5t79.5 -14.5q32 0 61.5 8.5t56.5 22t50 31.5t42 36q45 44 80 100l88 506q-19 11 -44 21 q-21 7 -54 14t-78 7q-83 0 -155 -31.5t-125 -93t-84 -151.5t-31 -208zM351 1267q0 27 18.5 58t50 57t74 43.5t90.5 17.5q50 0 85 -16.5t63 -36.5l53 -37q25 -16 54 -16q30 0 51.5 13.5t39 29.5t34.5 29.5t38 13.5q11 0 21 -3.5t17 -10t11.5 -17t4.5 -24.5q0 -27 -18.5 -58 t-50.5 -57t-74 -43t-90 -17q-51 0 -85.5 16t-63.5 36l-52 36q-25 17 -55 17t-51 -13.5t-39 -29.5t-34.5 -29t-38.5 -13q-11 0 -20.5 3t-16.5 10t-11.5 17t-4.5 24z" />
<glyph unicode="&#xe4;" d="M84 370q0 155 44.5 276.5t125.5 206t194 129t250 44.5q65 0 117 -8.5t90.5 -21t64 -26.5t36.5 -25q7 -6 11.5 -14t7.5 -18t3 -23t-3 -31l-93 -537q-7 -38 -12 -69l-8 -57q-3 -26 -4.5 -46.5t-1.5 -36.5t1 -27t1 -25q0 -30 -19.5 -49t-54.5 -19q-28 0 -46 11.5t-28.5 32 t-14.5 49.5t-1 64h-3q-35 -47 -83 -84q-21 -16 -46.5 -31.5t-56 -27t-65.5 -18.5t-74 -7q-74 0 -135 25t-105 74t-68 121.5t-24 167.5zM271 395q0 -69 13.5 -119t39 -82t61 -46.5t79.5 -14.5q32 0 61.5 8.5t56.5 22t50 31.5t42 36q45 44 80 100l88 506q-19 11 -44 21 q-21 7 -54 14t-78 7q-83 0 -155 -31.5t-125 -93t-84 -151.5t-31 -208zM380 1311q0 27 9.5 50t27 40t41 26.5t50.5 9.5q24 0 44 -8t34.5 -22.5t23 -34.5t8.5 -43q0 -27 -9.5 -50.5t-26 -40.5t-40 -27t-50.5 -10q-24 0 -44.5 8.5t-35.5 23t-23.5 34.5t-8.5 44zM774 1311 q0 27 9.5 50t26.5 40t40.5 26.5t51.5 9.5q23 0 43.5 -8t35 -22.5t22.5 -34.5t8 -43q0 -27 -9 -50.5t-26 -40.5t-40 -27t-51 -10q-23 0 -44 8.5t-35.5 23t-23 34.5t-8.5 44z" />
<glyph unicode="&#xe5;" d="M84 370q0 155 44.5 276.5t125.5 206t194 129t250 44.5q65 0 117 -8.5t90.5 -21t64 -26.5t36.5 -25q7 -6 11.5 -14t7.5 -18t3 -23t-3 -31l-93 -537q-7 -38 -12 -69l-8 -57q-3 -26 -4.5 -46.5t-1.5 -36.5t1 -27t1 -25q0 -30 -19.5 -49t-54.5 -19q-28 0 -46 11.5t-28.5 32 t-14.5 49.5t-1 64h-3q-35 -47 -83 -84q-21 -16 -46.5 -31.5t-56 -27t-65.5 -18.5t-74 -7q-74 0 -135 25t-105 74t-68 121.5t-24 167.5zM271 395q0 -69 13.5 -119t39 -82t61 -46.5t79.5 -14.5q32 0 61.5 8.5t56.5 22t50 31.5t42 36q45 44 80 100l88 506q-19 11 -44 21 q-21 7 -54 14t-78 7q-83 0 -155 -31.5t-125 -93t-84 -151.5t-31 -208zM457 1335q0 50 19 93.5t53.5 76t82 50.5t103.5 18q52 0 95 -16t74 -44t48 -67t17 -85q0 -50 -19.5 -93.5t-54 -76t-82 -51t-103.5 -18.5q-52 0 -95 16.5t-73.5 44.5t-47.5 67t-17 85zM575 1348 q0 -60 34.5 -94t93.5 -34q56 0 91.5 35.5t35.5 92.5q0 60 -34.5 94t-92.5 34q-57 0 -92.5 -35.5t-35.5 -92.5z" />
<glyph unicode="&#xe6;" horiz-adv-x="1629" d="M60 242q0 74 32 130.5t91 95.5t143 59t189 20q44 0 78 -3t59 -7q28 -4 49 -9l26 125q11 61 6.5 103.5t-27.5 69t-64.5 38t-103.5 11.5q-59 0 -102.5 -9t-76 -19t-55 -18.5t-40.5 -8.5q-26 0 -41 16t-15 40q0 18 6 32t18 27q17 17 51.5 33.5t80 29t101.5 20t117 7.5 q67 0 118 -13t86 -34t57.5 -50t33.5 -62q29 33 67.5 62t85.5 50.5t102.5 34.5t119.5 13q77 0 135.5 -19t97.5 -52t59 -78.5t20 -97.5q0 -89 -42 -157.5t-128 -113.5t-216 -66.5t-305 -17.5q-4 -67 11 -120.5t49 -92t87 -59t124 -20.5q55 0 94 8t67 17t47.5 17t37.5 8 q26 0 40.5 -15.5t14.5 -39.5q0 -19 -6 -33.5t-18 -27.5q-15 -15 -44.5 -30t-69.5 -27.5t-89.5 -20t-106.5 -7.5q-65 0 -119.5 11t-99.5 32t-80 51.5t-62 68.5q-4 -3 -32 -29t-76.5 -56t-115 -53.5t-147.5 -23.5q-79 0 -138.5 19.5t-99.5 54t-60.5 82t-20.5 104.5zM243 261 q0 -62 41.5 -99.5t129.5 -37.5q65 0 117.5 21t90.5 48q43 30 77 70q-4 20 -7 42q-3 20 -4.5 44t-0.5 50q-22 7 -49 12q-23 4 -54.5 7.5t-70.5 3.5q-132 0 -201 -42.5t-69 -118.5zM889 559q127 -5 220 7t154 38.5t90.5 65.5t29.5 88q0 58 -37 91.5t-118 33.5 q-57 0 -110 -20.5t-98 -61.5t-79 -102t-52 -140z" />
<glyph unicode="&#xe7;" horiz-adv-x="905" d="M81 389q0 141 45.5 258t124.5 201.5t184.5 131t226.5 46.5q78 0 132.5 -19t79.5 -45q13 -12 18.5 -26t5.5 -29t-5 -28t-14 -22.5t-22.5 -15t-29.5 -5.5q-19 0 -34 6.5t-35.5 14t-49 14.5t-72.5 7q-70 0 -136 -33t-117.5 -93.5t-83 -146.5t-31.5 -192q0 -138 68.5 -209 t188.5 -71q43 0 73.5 6t53.5 14l40 13q17 6 32 6q25 0 40 -16t15 -40q0 -19 -6 -33t-20 -28q-30 -30 -102 -53t-175 -21l-36 -87q31 -6 56 -17.5t42 -30.5t26 -44.5t9 -58.5q0 -49 -21 -92t-61 -74.5t-96.5 -50t-128.5 -18.5q-34 0 -57.5 5t-38 14t-20 21t-5.5 27 q0 24 14 39t38 15q13 0 25.5 -1.5t30.5 -1.5q42 0 71.5 7t48.5 19.5t28 30t9 38.5q0 27 -17.5 44t-57.5 17h-9q-24 0 -33.5 15.5t3.5 47.5l62 152q-65 18 -116 52.5t-87 84t-55 114t-19 141.5z" />
<glyph unicode="&#xe8;" horiz-adv-x="1024" d="M81 375q0 150 44 270.5t120.5 205t179.5 130t221 45.5q77 0 135.5 -19t97.5 -52t59 -78.5t20 -97.5q0 -89 -42 -157.5t-128 -113.5t-216 -66.5t-305 -17.5q-4 -67 11 -120.5t49 -91.5t87 -59t124 -21q55 0 94 8t67 17t47.5 17t37.5 8q26 0 40.5 -15.5t14.5 -39.5 q0 -19 -6 -33.5t-18 -27.5q-15 -15 -44.5 -30t-69 -27.5t-89.5 -20t-106 -7.5q-105 0 -184.5 28.5t-133 80.5t-80.5 124.5t-27 160.5zM283 559q127 -5 220 7t154 38.5t90.5 65.5t29.5 88q0 58 -37 91.5t-118 33.5q-57 0 -110 -20.5t-98 -61.5t-79 -102t-52 -140zM431 1430 q0 18 9.5 34.5t24.5 29.5t33 21t36 8t30 -7.5t21 -22.5l137 -248q6 -10 8 -17.5t2 -16.5q0 -13 -6 -25t-16 -20.5t-23.5 -14t-27.5 -5.5q-15 0 -25.5 6t-20.5 18l-162 217q-8 10 -14 20t-6 23z" />
<glyph unicode="&#xe9;" horiz-adv-x="1024" d="M81 375q0 150 44 270.5t120.5 205t179.5 130t221 45.5q77 0 135.5 -19t97.5 -52t59 -78.5t20 -97.5q0 -89 -42 -157.5t-128 -113.5t-216 -66.5t-305 -17.5q-4 -67 11 -120.5t49 -91.5t87 -59t124 -21q55 0 94 8t67 17t47.5 17t37.5 8q26 0 40.5 -15.5t14.5 -39.5 q0 -19 -6 -33.5t-18 -27.5q-15 -15 -44.5 -30t-69 -27.5t-89.5 -20t-106 -7.5q-105 0 -184.5 28.5t-133 80.5t-80.5 124.5t-27 160.5zM283 559q127 -5 220 7t154 38.5t90.5 65.5t29.5 88q0 58 -37 91.5t-118 33.5q-57 0 -110 -20.5t-98 -61.5t-79 -102t-52 -140zM529 1215 q0 11 4.5 20.5t13.5 21.5l212 242q19 21 45 21q17 0 34 -8.5t30 -22t21.5 -30.5t8.5 -34q0 -15 -6 -26t-17 -21l-242 -213q-9 -6 -18 -9.5t-19 -3.5q-13 0 -25 5.5t-21.5 14t-15 20t-5.5 23.5z" />
<glyph unicode="&#xea;" horiz-adv-x="1024" d="M81 375q0 150 44 270.5t120.5 205t179.5 130t221 45.5q77 0 135.5 -19t97.5 -52t59 -78.5t20 -97.5q0 -89 -42 -157.5t-128 -113.5t-216 -66.5t-305 -17.5q-4 -67 11 -120.5t49 -91.5t87 -59t124 -21q55 0 94 8t67 17t47.5 17t37.5 8q26 0 40.5 -15.5t14.5 -39.5 q0 -19 -6 -33.5t-18 -27.5q-15 -15 -44.5 -30t-69 -27.5t-89.5 -20t-106 -7.5q-105 0 -184.5 28.5t-133 80.5t-80.5 124.5t-27 160.5zM283 559q127 -5 220 7t154 38.5t90.5 65.5t29.5 88q0 58 -37 91.5t-118 33.5q-57 0 -110 -20.5t-98 -61.5t-79 -102t-52 -140zM362 1216 q0 11 5 22t15 21l219 203q23 21 42 31.5t44 10.5q26 0 43.5 -10t32.5 -31l149 -209q6 -9 9 -17t3 -17q0 -13 -6 -25t-15.5 -20.5t-21.5 -13.5t-25 -5q-26 0 -44 19l-146 157l-211 -161q-17 -13 -35 -13q-13 0 -23.5 5.5t-18 13.5t-12 18.5t-4.5 20.5z" />
<glyph unicode="&#xeb;" horiz-adv-x="1024" d="M81 375q0 150 44 270.5t120.5 205t179.5 130t221 45.5q77 0 135.5 -19t97.5 -52t59 -78.5t20 -97.5q0 -89 -42 -157.5t-128 -113.5t-216 -66.5t-305 -17.5q-4 -67 11 -120.5t49 -91.5t87 -59t124 -21q55 0 94 8t67 17t47.5 17t37.5 8q26 0 40.5 -15.5t14.5 -39.5 q0 -19 -6 -33.5t-18 -27.5q-15 -15 -44.5 -30t-69 -27.5t-89.5 -20t-106 -7.5q-105 0 -184.5 28.5t-133 80.5t-80.5 124.5t-27 160.5zM283 559q127 -5 220 7t154 38.5t90.5 65.5t29.5 88q0 58 -37 91.5t-118 33.5q-57 0 -110 -20.5t-98 -61.5t-79 -102t-52 -140zM340 1311 q0 27 9.5 50t27 40t41 26.5t50.5 9.5q24 0 44 -8t34.5 -22.5t23 -34.5t8.5 -43q0 -27 -9.5 -50.5t-26 -40.5t-40 -27t-50.5 -10q-24 0 -44.5 8.5t-35.5 23t-23.5 34.5t-8.5 44zM734 1311q0 27 9.5 50t26.5 40t40.5 26.5t51.5 9.5q23 0 43.5 -8t35 -22.5t22.5 -34.5t8 -43 q0 -27 -9 -50.5t-26 -40.5t-40 -27t-51 -10q-23 0 -44 8.5t-35.5 23t-23 34.5t-8.5 44z" />
<glyph unicode="&#xec;" horiz-adv-x="520" d="M95 58q0 7 1 16t5 30l144 828q6 40 30 61t69 21q40 0 60.5 -16.5t20.5 -47.5q0 -7 -1 -16t-5 -31l-144 -827q-6 -40 -30 -61t-69 -21q-40 0 -60.5 16t-20.5 48zM200 1430q0 18 9.5 34.5t24.5 29.5t33 21t36 8t30 -7.5t21 -22.5l137 -248q6 -10 8 -17.5t2 -16.5 q0 -13 -6 -25t-16 -20.5t-23.5 -14t-27.5 -5.5q-15 0 -25.5 6t-20.5 18l-162 217q-8 10 -14 20t-6 23z" />
<glyph unicode="&#xed;" horiz-adv-x="520" d="M95 58q0 7 1 16t5 30l144 828q6 40 30 61t69 21q40 0 60.5 -16.5t20.5 -47.5q0 -7 -1 -16t-5 -31l-144 -827q-6 -40 -30 -61t-69 -21q-40 0 -60.5 16t-20.5 48zM231 1215q0 11 4.5 20.5t13.5 21.5l212 242q19 21 45 21q17 0 34 -8.5t30 -22t21.5 -30.5t8.5 -34 q0 -15 -6 -26t-17 -21l-242 -213q-9 -6 -18 -9.5t-19 -3.5q-13 0 -25 5.5t-21.5 14t-15 20t-5.5 23.5z" />
<glyph unicode="&#xee;" horiz-adv-x="520" d="M95 58q0 7 1 16t5 30l144 828q6 40 30 61t69 21q40 0 60.5 -16.5t20.5 -47.5q0 -7 -1 -16t-5 -31l-144 -827q-6 -40 -30 -61t-69 -21q-40 0 -60.5 16t-20.5 48zM115 1216q0 11 4.5 21t13.5 19l203 206q22 22 41 32t43 10q25 0 43 -10t31 -31l133 -210q11 -16 11 -33 q0 -14 -6.5 -25.5t-16.5 -20t-22.5 -13.5t-24.5 -5q-15 0 -25.5 6t-19.5 15l-124 155l-189 -159q-8 -6 -16.5 -10t-20.5 -4t-22 4.5t-18 12t-13 18t-5 22.5z" />
<glyph unicode="&#xef;" horiz-adv-x="520" d="M85 1311q0 27 9.5 50t26.5 40t40.5 26.5t51.5 9.5q23 0 43 -8t34.5 -22.5t23 -34.5t8.5 -43q0 -27 -9.5 -50t-26.5 -40t-39.5 -27t-50.5 -10q-23 0 -43.5 8t-35.5 22.5t-23.5 34.5t-8.5 44zM95 58q0 7 1 16t5 30l144 828q6 40 30 61t69 21q40 0 60.5 -16.5t20.5 -47.5 q0 -7 -1 -16t-5 -31l-144 -827q-6 -40 -30 -61t-69 -21q-40 0 -60.5 16t-20.5 48zM452 1311q0 27 9.5 50t26.5 40t40.5 26.5t51.5 9.5q23 0 43 -8t34.5 -22.5t22.5 -34.5t8 -43q0 -27 -9 -50t-26 -40t-40 -27t-50 -10q-23 0 -43.5 8t-35.5 22.5t-23.5 34.5t-8.5 44z" />
<glyph unicode="&#xf0;" horiz-adv-x="1125" d="M81 381q0 144 45 261t124 199.5t189 127.5t240 45q35 0 63 -3t48 -6.5t31.5 -7t12.5 -3.5q-34 136 -111 223l-158 -115q-12 -8 -20.5 -11.5t-20.5 -3.5q-13 0 -24.5 6t-20.5 15.5t-14.5 22t-5.5 25.5q0 15 7.5 26.5t21.5 21.5l135 99q-29 19 -51.5 29.5t-39 17 t-27.5 11.5t-19 13q-9 9 -13 19t-4 23t5.5 26t16 24t26.5 18t38 7q20 0 47.5 -7.5t57 -20t57.5 -28t50 -30.5l152 110q12 8 20.5 11.5t20.5 3.5q13 0 25 -6t20.5 -15.5t14 -21.5t5.5 -25q0 -15 -7 -27t-21 -22l-132 -96q92 -103 137.5 -248.5t45.5 -322.5 q0 -192 -44.5 -335.5t-121.5 -238.5t-181 -143t-224 -48q-91 0 -164 28.5t-124.5 81t-79.5 126t-28 164.5zM268 402q0 -67 17 -118t47.5 -85t73.5 -51.5t95 -17.5q71 0 136 32.5t114 102.5t79 179t31 262q1 31 0 61t-3 59q-34 19 -81 30t-114 11q-84 0 -156.5 -31.5 t-125 -91t-83 -146t-30.5 -196.5z" />
<glyph unicode="&#xf1;" horiz-adv-x="1176" d="M96 76l151 870q6 36 25.5 53t53.5 17t53 -21t19 -65q0 -13 -1.5 -25t-2.5 -22l-4 -25h4q34 47 83 84q21 16 47 31t57.5 26.5t68 19t78.5 7.5q75 0 133.5 -20.5t99 -60t62 -96.5t21.5 -130q0 -39 -6.5 -89.5t-16.5 -105.5l-22 -114l-22 -113q-10 -55 -17 -102.5t-7 -81.5 q0 -16 1 -27t1 -25q0 -30 -20.5 -48.5t-60.5 -18.5q-48 0 -74.5 27t-26.5 80q0 32 6.5 78.5t16.5 100.5l22 111q11 57 20.5 111.5t16 104t6.5 85.5q0 93 -46 138t-137 45q-35 0 -66 -8.5t-58 -22.5t-50.5 -32t-43.5 -37q-45 -44 -80 -98l-105 -601q-6 -40 -30 -61t-69 -21 t-65.5 21t-14.5 61zM369 1267q0 27 18.5 58t50 57t74 43.5t90.5 17.5q50 0 85 -16.5t63 -36.5l53 -37q25 -16 54 -16q30 0 51.5 13.5t39 29.5t34.5 29.5t38 13.5q11 0 21 -3.5t17 -10t11.5 -17t4.5 -24.5q0 -27 -18.5 -58t-50.5 -57t-74 -43t-90 -17q-51 0 -85.5 16 t-62.5 36l-53 37q-25 16 -55 16t-51 -13.5t-39 -29.5t-34.5 -29t-38.5 -13q-11 0 -20.5 3t-16.5 10t-11.5 17t-4.5 24z" />
<glyph unicode="&#xf2;" horiz-adv-x="1138" d="M84 384q0 147 44 265.5t120.5 202.5t180.5 129t224 45q91 0 165.5 -28t126.5 -81t80.5 -127.5t28.5 -165.5q0 -147 -44 -266t-120.5 -202.5t-180.5 -129t-224 -45.5q-92 0 -166 28.5t-126.5 81.5t-80.5 127t-28 166zM271 405q0 -68 16.5 -119.5t48.5 -85.5t76 -52t98 -18 q70 0 134.5 31.5t114.5 92t79.5 148.5t29.5 201q0 67 -17 119t-48.5 86t-75.5 52t-99 18q-70 0 -134.5 -32t-114 -92.5t-79 -148t-29.5 -200.5zM476 1430q0 18 9.5 34.5t24.5 29.5t33 21t36 8t30 -7.5t21 -22.5l137 -248q6 -10 8 -17.5t2 -16.5q0 -13 -6 -25t-16 -20.5 t-23.5 -14t-27.5 -5.5q-15 0 -25.5 6t-20.5 18l-162 217q-8 10 -14 20t-6 23z" />
<glyph unicode="&#xf3;" horiz-adv-x="1138" d="M84 384q0 147 44 265.5t120.5 202.5t180.5 129t224 45q91 0 165.5 -28t126.5 -81t80.5 -127.5t28.5 -165.5q0 -147 -44 -266t-120.5 -202.5t-180.5 -129t-224 -45.5q-92 0 -166 28.5t-126.5 81.5t-80.5 127t-28 166zM271 405q0 -68 16.5 -119.5t48.5 -85.5t76 -52t98 -18 q70 0 134.5 31.5t114.5 92t79.5 148.5t29.5 201q0 67 -17 119t-48.5 86t-75.5 52t-99 18q-70 0 -134.5 -32t-114 -92.5t-79 -148t-29.5 -200.5zM560 1215q0 11 4.5 20.5t13.5 21.5l212 242q19 21 45 21q17 0 34 -8.5t30 -22t21.5 -30.5t8.5 -34q0 -15 -6 -26t-17 -21 l-242 -213q-9 -6 -18 -9.5t-19 -3.5q-13 0 -25 5.5t-21.5 14t-15 20t-5.5 23.5z" />
<glyph unicode="&#xf4;" horiz-adv-x="1138" d="M84 384q0 147 44 265.5t120.5 202.5t180.5 129t224 45q91 0 165.5 -28t126.5 -81t80.5 -127.5t28.5 -165.5q0 -147 -44 -266t-120.5 -202.5t-180.5 -129t-224 -45.5q-92 0 -166 28.5t-126.5 81.5t-80.5 127t-28 166zM271 405q0 -68 16.5 -119.5t48.5 -85.5t76 -52t98 -18 q70 0 134.5 31.5t114.5 92t79.5 148.5t29.5 201q0 67 -17 119t-48.5 86t-75.5 52t-99 18q-70 0 -134.5 -32t-114 -92.5t-79 -148t-29.5 -200.5zM404 1216q0 11 5 22t15 21l219 203q23 21 42 31.5t44 10.5q26 0 43.5 -10t32.5 -31l149 -209q6 -9 9 -17t3 -17q0 -13 -6 -25 t-15.5 -20.5t-21.5 -13.5t-25 -5q-26 0 -44 19l-146 157l-211 -161q-17 -13 -35 -13q-13 0 -23.5 5.5t-18 13.5t-12 18.5t-4.5 20.5z" />
<glyph unicode="&#xf5;" horiz-adv-x="1138" d="M84 384q0 147 44 265.5t120.5 202.5t180.5 129t224 45q91 0 165.5 -28t126.5 -81t80.5 -127.5t28.5 -165.5q0 -147 -44 -266t-120.5 -202.5t-180.5 -129t-224 -45.5q-92 0 -166 28.5t-126.5 81.5t-80.5 127t-28 166zM271 405q0 -68 16.5 -119.5t48.5 -85.5t76 -52t98 -18 q70 0 134.5 31.5t114.5 92t79.5 148.5t29.5 201q0 67 -17 119t-48.5 86t-75.5 52t-99 18q-70 0 -134.5 -32t-114 -92.5t-79 -148t-29.5 -200.5zM345 1267q0 27 18.5 58t50 57t74 43.5t90.5 17.5q50 0 85 -16.5t63 -36.5l53 -37q25 -16 54 -16q30 0 51.5 13.5t39 29.5 t34.5 29.5t38 13.5q11 0 21 -3.5t17 -10t11.5 -17t4.5 -24.5q0 -27 -18.5 -58t-50.5 -57t-74 -43t-90 -17q-51 0 -85.5 16t-63.5 36l-53 36q-24 17 -54 17t-51 -13.5t-39 -29.5t-34.5 -29t-38.5 -13q-11 0 -20.5 3t-16.5 10t-11.5 17t-4.5 24z" />
<glyph unicode="&#xf6;" horiz-adv-x="1138" d="M84 384q0 147 44 265.5t120.5 202.5t180.5 129t224 45q91 0 165.5 -28t126.5 -81t80.5 -127.5t28.5 -165.5q0 -147 -44 -266t-120.5 -202.5t-180.5 -129t-224 -45.5q-92 0 -166 28.5t-126.5 81.5t-80.5 127t-28 166zM271 405q0 -68 16.5 -119.5t48.5 -85.5t76 -52t98 -18 q70 0 134.5 31.5t114.5 92t79.5 148.5t29.5 201q0 67 -17 119t-48.5 86t-75.5 52t-99 18q-70 0 -134.5 -32t-114 -92.5t-79 -148t-29.5 -200.5zM380 1311q0 27 9.5 50t27 40t41 26.5t50.5 9.5q24 0 44 -8t34.5 -22.5t23 -34.5t8.5 -43q0 -27 -9.5 -50.5t-26 -40.5t-40 -27 t-50.5 -10q-24 0 -44.5 8.5t-35.5 23t-23.5 34.5t-8.5 44zM774 1311q0 27 9.5 50t26.5 40t40.5 26.5t51.5 9.5q23 0 43.5 -8t35 -22.5t22.5 -34.5t8 -43q0 -27 -9 -50.5t-26 -40.5t-40 -27t-51 -10q-23 0 -44 8.5t-35.5 23t-23 34.5t-8.5 44z" />
<glyph unicode="&#xf7;" horiz-adv-x="1168" d="M172 570q0 18 5.5 34t17 27t27 17t34.5 6h709q32 0 49 -15t17 -45q0 -19 -6 -34.5t-18 -26.5t-27.5 -17t-35.5 -6h-706q-34 0 -50 16t-16 44zM432 257q0 24 9 45t24.5 37t37 25t46.5 9q23 0 42 -8.5t33.5 -22.5t22 -33.5t7.5 -41.5q0 -24 -9 -45.5t-24.5 -36.5t-37 -24 t-46.5 -9q-22 0 -41.5 8t-33.5 22.5t-22 33t-8 41.5zM545 897q0 24 9 45.5t24 36.5t36 24t46 9q23 0 42.5 -8t33.5 -21.5t22.5 -33t8.5 -42.5q0 -24 -9 -45t-24.5 -36.5t-37.5 -24.5t-47 -9q-22 0 -41 8t-33.5 22.5t-22 33.5t-7.5 41z" />
<glyph unicode="&#xf8;" horiz-adv-x="1138" d="M33 -100q0 11 4.5 20.5t14.5 21.5l126 166q-44 49 -69 118.5t-25 157.5q0 147 44 265.5t120.5 202.5t180.5 129t224 45q55 0 102.5 -10.5t88.5 -30.5l126 166q12 17 25 25t31 8q15 0 29.5 -6t26 -16t19 -23t7.5 -28q0 -11 -4.5 -20.5t-13.5 -21.5l-129 -169 q46 -53 69.5 -122t23.5 -154q0 -147 -44 -266t-120.5 -202.5t-180.5 -129t-224 -45.5q-56 0 -102 10.5t-88 31.5l-124 -163q-12 -16 -24.5 -24.5t-31.5 -8.5q-15 0 -29.5 6t-26 16t-19 23.5t-7.5 27.5zM264 405q0 -46 8 -82.5t23 -66.5l454 597q-26 15 -55.5 22t-65.5 7 q-72 0 -138 -32t-116 -93t-80 -149.5t-30 -202.5zM389 155q26 -15 57.5 -22t63.5 -7q72 0 138 31.5t116.5 92.5t80 149.5t29.5 203.5q0 46 -8 82t-23 66z" />
<glyph unicode="&#xf9;" horiz-adv-x="1169" d="M133 289q0 28 3.5 62t8.5 66l90 515q7 40 31 61t69 21t65.5 -21t13.5 -61l-88 -512q-6 -32 -8.5 -55.5t-2.5 -49.5q0 -93 45.5 -137.5t131.5 -44.5q35 0 65.5 8.5t58 22t51 31.5t42.5 36q45 44 81 100l104 601q7 40 31 61t69 21t65.5 -21t14.5 -61l-106 -610l-11 -69 q-5 -31 -8.5 -57t-5 -46.5t-1.5 -36.5t1 -27t1 -25q0 -30 -19.5 -49t-53.5 -19q-56 0 -76.5 42.5t-14.5 113.5h-4q-35 -47 -83 -83q-21 -16 -47 -31.5t-57.5 -27t-68 -18.5t-78.5 -7q-72 0 -129 20.5t-97.5 60t-61.5 96.5t-21 130zM462 1430q0 18 9.5 34.5t24.5 29.5t33 21 t36 8t30 -7.5t21 -22.5l137 -248q6 -10 8 -17.5t2 -16.5q0 -13 -6 -25t-16 -20.5t-23.5 -14t-27.5 -5.5q-15 0 -25.5 6t-20.5 18l-162 217q-8 10 -14 20t-6 23z" />
<glyph unicode="&#xfa;" horiz-adv-x="1169" d="M133 289q0 28 3.5 62t8.5 66l90 515q7 40 31 61t69 21t65.5 -21t13.5 -61l-88 -512q-6 -32 -8.5 -55.5t-2.5 -49.5q0 -93 45.5 -137.5t131.5 -44.5q35 0 65.5 8.5t58 22t51 31.5t42.5 36q45 44 81 100l104 601q7 40 31 61t69 21t65.5 -21t14.5 -61l-106 -610l-11 -69 q-5 -31 -8.5 -57t-5 -46.5t-1.5 -36.5t1 -27t1 -25q0 -30 -19.5 -49t-53.5 -19q-56 0 -76.5 42.5t-14.5 113.5h-4q-35 -47 -83 -83q-21 -16 -47 -31.5t-57.5 -27t-68 -18.5t-78.5 -7q-72 0 -129 20.5t-97.5 60t-61.5 96.5t-21 130zM598 1215q0 11 4.5 20.5t13.5 21.5 l212 242q19 21 45 21q17 0 34 -8.5t30 -22t21.5 -30.5t8.5 -34q0 -15 -6 -26t-17 -21l-242 -213q-9 -6 -18 -9.5t-19 -3.5q-13 0 -25 5.5t-21.5 14t-15 20t-5.5 23.5z" />
<glyph unicode="&#xfb;" horiz-adv-x="1169" d="M133 289q0 28 3.5 62t8.5 66l90 515q7 40 31 61t69 21t65.5 -21t13.5 -61l-88 -512q-6 -32 -8.5 -55.5t-2.5 -49.5q0 -93 45.5 -137.5t131.5 -44.5q35 0 65.5 8.5t58 22t51 31.5t42.5 36q45 44 81 100l104 601q7 40 31 61t69 21t65.5 -21t14.5 -61l-106 -610l-11 -69 q-5 -31 -8.5 -57t-5 -46.5t-1.5 -36.5t1 -27t1 -25q0 -30 -19.5 -49t-53.5 -19q-56 0 -76.5 42.5t-14.5 113.5h-4q-35 -47 -83 -83q-21 -16 -47 -31.5t-57.5 -27t-68 -18.5t-78.5 -7q-72 0 -129 20.5t-97.5 60t-61.5 96.5t-21 130zM412 1216q0 11 5 22t15 21l219 203 q23 21 42 31.5t44 10.5q26 0 43.5 -10t32.5 -31l149 -209q6 -9 9 -17t3 -17q0 -13 -6 -25t-15.5 -20.5t-21.5 -13.5t-25 -5q-26 0 -44 19l-146 157l-211 -161q-17 -13 -35 -13q-13 0 -23.5 5.5t-18 13.5t-12 18.5t-4.5 20.5z" />
<glyph unicode="&#xfc;" horiz-adv-x="1169" d="M133 289q0 28 3.5 62t8.5 66l90 515q7 40 31 61t69 21t65.5 -21t13.5 -61l-88 -512q-6 -32 -8.5 -55.5t-2.5 -49.5q0 -93 45.5 -137.5t131.5 -44.5q35 0 65.5 8.5t58 22t51 31.5t42.5 36q45 44 81 100l104 601q7 40 31 61t69 21t65.5 -21t14.5 -61l-106 -610l-11 -69 q-5 -31 -8.5 -57t-5 -46.5t-1.5 -36.5t1 -27t1 -25q0 -30 -19.5 -49t-53.5 -19q-56 0 -76.5 42.5t-14.5 113.5h-4q-35 -47 -83 -83q-21 -16 -47 -31.5t-57.5 -27t-68 -18.5t-78.5 -7q-72 0 -129 20.5t-97.5 60t-61.5 96.5t-21 130zM386 1311q0 27 9.5 50t27 40t41 26.5 t50.5 9.5q24 0 44 -8t34.5 -22.5t23 -34.5t8.5 -43q0 -27 -9.5 -50.5t-26 -40.5t-40 -27t-50.5 -10q-24 0 -44.5 8.5t-35.5 23t-23.5 34.5t-8.5 44zM780 1311q0 27 9.5 50t26.5 40t40.5 26.5t51.5 9.5q23 0 43.5 -8t35 -22.5t22.5 -34.5t8 -43q0 -27 -9 -50.5t-26 -40.5 t-40 -27t-51 -10q-23 0 -44 8.5t-35.5 23t-23 34.5t-8.5 44z" />
<glyph unicode="&#xfd;" horiz-adv-x="979" d="M-219 -395q0 16 5 28.5t14 22t21.5 14.5t27.5 5q21 0 37 -3.5t43 -3.5q39 0 79.5 12t86 42.5t96.5 82.5t112 131q-25 160 -48.5 294.5t-47 251t-46.5 218.5l-46 196q-2 11 -5 23t-3 20q0 20 9 34.5t23.5 24.5t32 15.5t34.5 5.5q20 0 36 -6.5t26 -15.5q9 -10 14 -23 t10 -35q42 -184 79 -388t68 -435h3q46 75 91 157.5t89.5 181.5t89 217t89.5 262q7 23 12 37.5t17 26.5q10 9 25 15t33 6q16 0 32 -5t29 -14t20.5 -23t7.5 -31q0 -8 -2 -19.5t-10 -36.5q-44 -149 -99.5 -287.5t-121.5 -268t-141.5 -247.5t-158.5 -223q-77 -97 -146.5 -163 t-134 -107.5t-125.5 -59t-119 -17.5q-42 0 -69.5 9t-43.5 23q-13 12 -19 25.5t-6 30.5zM506 1215q0 11 4.5 20.5t13.5 21.5l212 242q19 21 45 21q17 0 34 -8.5t30 -22t21.5 -30.5t8.5 -34q0 -15 -6 -26t-17 -21l-242 -213q-9 -6 -18 -9.5t-19 -3.5q-13 0 -25 5.5t-21.5 14 t-15 20t-5.5 23.5z" />
<glyph unicode="&#xfe;" d="M15 -397l310 1798q6 39 30 60.5t69 21.5q46 0 66.5 -21.5t13.5 -60.5l-66 -385q-6 -35 -13 -68t-17 -70h3q33 41 79 74q20 14 44 27t52.5 24t61 17t70.5 6q74 0 135 -25t105 -74t68 -122t24 -167q0 -155 -45 -277t-125.5 -206t-193.5 -129t-250 -45q-38 0 -70 4t-54 8 q-27 5 -48 12l-3 -1q-5 -30 -9 -62t-10 -66q-13 -69 -25 -136l-23 -137q-6 -39 -30 -60.5t-70 -21.5q-45 0 -65.5 21.5t-13.5 60.5zM291 168q18 -13 44 -22q22 -7 54.5 -13.5t77.5 -6.5q83 0 155 31t125.5 92.5t84.5 152.5t31 210q0 70 -14 119.5t-39 81.5t-61 47t-80 15 q-32 0 -62.5 -8.5t-57 -22.5t-49.5 -32t-41 -37q-45 -43 -79 -98z" />
<glyph unicode="&#xff;" horiz-adv-x="979" d="M-219 -395q0 16 5 28.5t14 22t21.5 14.5t27.5 5q21 0 37 -3.5t43 -3.5q39 0 79.5 12t86 42.5t96.5 82.5t112 131q-25 160 -48.5 294.5t-47 251t-46.5 218.5l-46 196q-2 11 -5 23t-3 20q0 20 9 34.5t23.5 24.5t32 15.5t34.5 5.5q20 0 36 -6.5t26 -15.5q9 -10 14 -23 t10 -35q42 -184 79 -388t68 -435h3q46 75 91 157.5t89.5 181.5t89 217t89.5 262q7 23 12 37.5t17 26.5q10 9 25 15t33 6q16 0 32 -5t29 -14t20.5 -23t7.5 -31q0 -8 -2 -19.5t-10 -36.5q-44 -149 -99.5 -287.5t-121.5 -268t-141.5 -247.5t-158.5 -223q-77 -97 -146.5 -163 t-134 -107.5t-125.5 -59t-119 -17.5q-42 0 -69.5 9t-43.5 23q-13 12 -19 25.5t-6 30.5zM293 1311q0 27 9.5 50t27 40t41 26.5t50.5 9.5q24 0 44 -8t34.5 -22.5t23 -34.5t8.5 -43q0 -27 -9.5 -50.5t-26 -40.5t-40 -27t-50.5 -10q-24 0 -44.5 8.5t-35.5 23t-23.5 34.5t-8.5 44 zM687 1311q0 27 9.5 50t26.5 40t40.5 26.5t51.5 9.5q23 0 43.5 -8t35 -22.5t22.5 -34.5t8 -43q0 -27 -9 -50.5t-26 -40.5t-40 -27t-51 -10q-23 0 -44 8.5t-35.5 23t-23 34.5t-8.5 44z" />
<glyph unicode="&#x152;" horiz-adv-x="1819" d="M118 517q0 135 27.5 253t77.5 215.5t120 174.5t156.5 129.5t186 80.5t207.5 28q70 0 126 -5t107 -15h678q31 0 47 -16.5t16 -49.5q0 -21 -6 -37.5t-17 -28t-25.5 -17.5t-32.5 -6h-519l-76 -438h441q30 0 46 -16.5t16 -49.5q0 -20 -6 -36.5t-16.5 -28t-25.5 -17.5t-32 -6 h-449l-82 -476h514q30 0 46 -17t16 -50q0 -20 -6 -36.5t-16.5 -28t-25.5 -17.5t-33 -6h-691q-51 -8 -105 -13.5t-121 -5.5q-128 0 -229 37t-170.5 106.5t-106.5 168.5t-37 224zM310 541q0 -98 26 -173.5t75 -126.5t119 -77t157 -26q67 0 117 6.5t97 20.5l180 1047 q-41 14 -93 21.5t-120 7.5q-111 0 -212 -47.5t-177.5 -138t-122.5 -220.5t-46 -294z" />
<glyph unicode="&#x153;" horiz-adv-x="1795" d="M84 384q0 147 44 265.5t120.5 202.5t180 129t222.5 45q65 0 120 -14.5t99 -41t76.5 -64t52.5 -84.5q35 46 79.5 83.5t97.5 64t113.5 41.5t128.5 15q77 0 135.5 -19t97.5 -52t59 -78.5t20 -97.5q0 -89 -42 -157.5t-128 -113.5t-216 -66.5t-305 -17.5q-4 -67 11 -120.5 t49 -91.5t87 -59t124 -21q55 0 94 8t67 17t47.5 17t37.5 8q26 0 40.5 -15.5t14.5 -39.5q0 -19 -6 -33.5t-18 -27.5q-15 -15 -44.5 -30t-69 -27.5t-89.5 -20t-106 -7.5q-146 0 -239.5 53.5t-137.5 146.5q-71 -91 -175.5 -145.5t-240.5 -54.5q-92 0 -166 28.5t-126.5 81.5 t-80.5 127t-28 166zM271 405q0 -68 16.5 -119.5t48.5 -85.5t76 -52t98 -18q70 0 134.5 31.5t114.5 92t79.5 148.5t29.5 201q0 67 -17 119t-48.5 86t-75.5 52t-99 18q-70 0 -134.5 -32t-114 -92.5t-79 -148t-29.5 -200.5zM1055 559q127 -5 220 7t154 38.5t90.5 65.5t29.5 88 q0 58 -37 91.5t-118 33.5q-57 0 -110 -20.5t-98 -61.5t-79 -102t-52 -140z" />
<glyph unicode="&#x178;" horiz-adv-x="1088" d="M166 1296q0 20 8.5 36.5t23.5 28.5t33.5 19t39.5 7q18 0 32 -5.5t24 -15.5q9 -9 14.5 -20.5t16.5 -38.5l184 -460l15 -40q7 -19 12 -35q5 -18 10 -34h4l23 35l25 36l30 43l346 477q9 13 15.5 21.5t13.5 14.5q10 11 25 16.5t30 5.5q18 0 35 -6.5t30.5 -18.5t21.5 -27.5 t8 -33.5q0 -8 -2 -15.5t-5.5 -14.5t-8.5 -14.5t-11 -15.5l-513 -667l-86 -497q-7 -40 -31 -61.5t-71 -21.5t-68 21t-14 62l86 499l-277 656q-10 24 -14.5 37t-4.5 27zM385 1644q0 27 9.5 49.5t26.5 40t40 27t50 9.5q25 0 45.5 -8.5t35 -23.5t23 -35.5t8.5 -43.5 q0 -27 -9 -50t-25.5 -40.5t-39.5 -27t-50 -9.5q-25 0 -46 8.5t-36 23.5t-23.5 35.5t-8.5 44.5zM805 1644q0 27 9.5 49.5t26.5 40t40 27t51 9.5q24 0 45 -8.5t35.5 -23.5t22.5 -35.5t8 -43.5q0 -27 -9 -50t-25.5 -40.5t-39.5 -27t-50 -9.5q-25 0 -45.5 8.5t-36 23.5t-24 35.5 t-8.5 44.5z" />
<glyph unicode="&#x2c6;" horiz-adv-x="1024" d="M348 1216q0 11 5 22t15 21l219 203q23 21 42 31.5t44 10.5q26 0 43.5 -10t32.5 -31l149 -209q6 -9 9 -17t3 -17q0 -13 -6 -25t-15.5 -20.5t-21.5 -13.5t-25 -5q-26 0 -44 19l-146 157l-211 -161q-17 -13 -35 -13q-13 0 -23.5 5.5t-18 13.5t-12 18.5t-4.5 20.5z" />
<glyph unicode="&#x2dc;" horiz-adv-x="1024" d="M287 1267q0 27 18.5 58t50 57t74 43.5t90.5 17.5q50 0 85 -16.5t63 -36.5l53 -37q25 -16 54 -16q30 0 51.5 13.5t39 29.5t34.5 29.5t38 13.5q11 0 21 -3.5t17 -10t11.5 -17t4.5 -24.5q0 -27 -18.5 -58t-50.5 -57t-74 -43t-90 -17q-51 0 -85.5 16t-63.5 36l-52 37 q-25 16 -55 16t-51 -13.5t-39 -29.5t-34.5 -29t-38.5 -13q-11 0 -20.5 3t-16.5 10t-11.5 17t-4.5 24z" />
<glyph unicode="&#x2000;" horiz-adv-x="973" />
<glyph unicode="&#x2001;" horiz-adv-x="1946" />
<glyph unicode="&#x2002;" horiz-adv-x="973" />
<glyph unicode="&#x2003;" horiz-adv-x="1946" />
<glyph unicode="&#x2004;" horiz-adv-x="648" />
<glyph unicode="&#x2005;" horiz-adv-x="486" />
<glyph unicode="&#x2006;" horiz-adv-x="324" />
<glyph unicode="&#x2007;" horiz-adv-x="324" />
<glyph unicode="&#x2008;" horiz-adv-x="243" />
<glyph unicode="&#x2009;" horiz-adv-x="389" />
<glyph unicode="&#x200a;" horiz-adv-x="108" />
<glyph unicode="&#x2010;" horiz-adv-x="942" d="M162 526q0 20 5.5 36t15.5 27t24 17t31 6h498q28 0 43.5 -15t15.5 -46q0 -20 -5.5 -36t-16 -27t-24.5 -17t-31 -6h-498q-28 0 -43 15t-15 46z" />
<glyph unicode="&#x2011;" horiz-adv-x="942" d="M162 526q0 20 5.5 36t15.5 27t24 17t31 6h498q28 0 43.5 -15t15.5 -46q0 -20 -5.5 -36t-16 -27t-24.5 -17t-31 -6h-498q-28 0 -43 15t-15 46z" />
<glyph unicode="&#x2012;" horiz-adv-x="942" d="M162 526q0 20 5.5 36t15.5 27t24 17t31 6h498q28 0 43.5 -15t15.5 -46q0 -20 -5.5 -36t-16 -27t-24.5 -17t-31 -6h-498q-28 0 -43 15t-15 46z" />
<glyph unicode="&#x2013;" horiz-adv-x="1168" d="M6 526q0 20 5.5 36t16 27t24 17t31.5 6h1036q29 0 44 -15t15 -46q0 -20 -5.5 -36t-16 -27t-24.5 -17t-31 -6h-1036q-29 0 -44 15t-15 46z" />
<glyph unicode="&#x2014;" horiz-adv-x="2048" d="M189 526q0 20 5.5 36t16 27t24.5 17t31 6h1550q28 0 43 -15t15 -46q0 -20 -5 -36t-15.5 -27t-24.5 -17t-31 -6h-1550q-28 0 -43.5 15t-15.5 46z" />
<glyph unicode="&#x2018;" horiz-adv-x="558" d="M252 1076q0 44 16 91t42.5 92t60 86.5t70.5 75.5q23 20 42 34t36.5 23t33 13t31.5 4q27 0 43 -15t16 -38t-16 -39l-43 -41q-26 -24 -58.5 -65t-66.5 -114q12 -10 21.5 -20.5t16.5 -23.5t11 -29.5t4 -36.5q0 -29 -10 -53.5t-28 -43t-42.5 -29t-54.5 -10.5q-29 0 -52 9 t-39.5 27t-25 43.5t-8.5 59.5z" />
<glyph unicode="&#x2019;" horiz-adv-x="558" d="M188 989q0 24 16 40l42 41q27 24 60 65t66 114q-11 8 -20.5 19t-17 24.5t-11.5 30t-4 36.5q0 29 10 53.5t28 43t43 29t54 10.5t52 -9t39.5 -27t25 -43.5t8.5 -59.5q0 -44 -15.5 -91t-42 -92.5t-60.5 -86.5t-70 -75q-23 -20 -42.5 -34t-37 -23.5t-33.5 -13t-30 -3.5 q-28 0 -44 14.5t-16 37.5z" />
<glyph unicode="&#x201a;" horiz-adv-x="558" d="M-30 -261q0 16 7.5 28t20.5 25l30 28q18 15 38.5 39t43 57.5t44.5 82.5q-11 9 -20.5 19.5t-17 24t-11.5 30t-4 36.5q0 29 10 53.5t28 43t43 29t54 10.5t52 -9t39.5 -27t25 -43.5t8.5 -58.5q0 -45 -16 -92t-42 -92t-60 -86.5t-70 -74.5q-23 -21 -42.5 -35t-37 -23.5 t-33.5 -13t-30 -3.5q-29 0 -44.5 14.5t-15.5 37.5z" />
<glyph unicode="&#x201c;" horiz-adv-x="976" d="M252 1076q0 44 16 91t42.5 92t60 86.5t70.5 75.5q23 20 42 34t36.5 23t33 13t31.5 4q27 0 43 -15t16 -37q0 -16 -7.5 -27.5t-20.5 -24.5t-30.5 -28.5t-38 -39.5t-43 -58t-44.5 -82q12 -10 21.5 -20.5t16.5 -23.5t11 -29.5t4 -36.5q0 -29 -10 -53.5t-28 -43t-42.5 -29 t-54.5 -10.5q-29 0 -52 9t-39.5 27t-25 43.5t-8.5 59.5zM670 1076q0 44 16 91t42.5 92t60 86.5t70.5 75.5q23 20 42.5 34t36.5 23t32.5 13t31.5 4q28 0 43.5 -15t15.5 -37q0 -16 -7.5 -27.5t-20.5 -24.5t-30.5 -28.5t-38 -39.5t-43 -58t-44.5 -82q12 -10 21.5 -20.5 t16.5 -23.5t11 -29.5t4 -36.5q0 -29 -10 -53.5t-28 -43t-42.5 -29t-54.5 -10.5q-29 0 -52 9t-39.5 27t-25 43.5t-8.5 59.5z" />
<glyph unicode="&#x201d;" horiz-adv-x="976" d="M188 989q0 24 16 40l42 41q27 24 60 65t66 114q-11 8 -20.5 19t-17 24.5t-11.5 30t-4 36.5q0 29 10 53.5t28 43t43 29t54 10.5t52 -9t39.5 -27t25 -43.5t8.5 -59.5q0 -44 -15.5 -91t-42 -92.5t-60.5 -86.5t-70 -75q-23 -20 -42.5 -34t-37 -23.5t-33.5 -13t-30 -3.5 q-28 0 -44 14.5t-16 37.5zM606 989q0 24 17 40l42 41q26 24 59 65t66 114q-11 8 -20.5 19t-16.5 24.5t-11 30t-4 36.5q0 29 9.5 53.5t27.5 43t43 29t54 10.5t52.5 -9t39.5 -27t24.5 -43.5t8.5 -59.5q0 -44 -15.5 -91t-42 -92.5t-60 -86.5t-70.5 -75q-23 -20 -42.5 -34 t-37 -23.5t-33.5 -13t-30 -3.5q-28 0 -44 14.5t-16 37.5z" />
<glyph unicode="&#x201e;" horiz-adv-x="976" d="M-30 -261q0 16 7.5 28t20.5 25l30 28q18 15 38.5 39t43 57.5t44.5 82.5q-11 9 -20.5 19.5t-17 24t-11.5 30t-4 36.5q0 29 10 53.5t28 43t43 29t54 10.5t52 -9t39.5 -27t25 -43.5t8.5 -58.5q0 -45 -16 -92t-42 -92t-60 -86.5t-70 -74.5q-23 -21 -42.5 -35t-37 -23.5 t-33.5 -13t-30 -3.5q-29 0 -44.5 14.5t-15.5 37.5zM388 -261q0 16 7.5 28t20.5 25l31 28q18 15 38 39t42.5 57.5t44.5 82.5q-11 9 -20.5 19.5t-16.5 24t-11 30t-4 36.5q0 29 9.5 53.5t27.5 43t43 29t54 10.5t52.5 -9t39.5 -27t24.5 -43.5t8.5 -58.5q0 -45 -15.5 -92t-42 -92 t-60.5 -86.5t-70 -74.5q-23 -21 -42.5 -35t-37 -23.5t-33.5 -13t-30 -3.5q-28 0 -44 14.5t-16 37.5z" />
<glyph unicode="&#x2022;" horiz-adv-x="905" d="M251 694q0 54 19 99.5t52 79t78 52t99 18.5q50 0 91.5 -16.5t71.5 -47t46.5 -71.5t16.5 -91q0 -54 -19 -99.5t-52.5 -78.5t-78.5 -52t-98 -19q-50 0 -91.5 17t-71 46.5t-46.5 71t-17 91.5z" />
<glyph unicode="&#x2026;" horiz-adv-x="1622" d="M81 109q0 29 10.5 54.5t28.5 44t43 29t55 10.5q28 0 51.5 -9.5t40.5 -26.5t26.5 -41t9.5 -52q0 -29 -10.5 -54t-29 -43.5t-43.5 -29t-54 -10.5q-28 0 -52 9.5t-40.5 26.5t-26 40.5t-9.5 51.5zM617 109q0 29 10.5 54.5t28.5 44t43 29t55 10.5q28 0 51.5 -9.5t40.5 -26.5 t26.5 -41t9.5 -52q0 -29 -10.5 -54t-29 -43.5t-43.5 -29t-54 -10.5t-52.5 9.5t-40 26.5t-26 40.5t-9.5 51.5zM1153 109q0 29 10.5 54.5t29 44t43 29t54.5 10.5q28 0 51.5 -9.5t40.5 -26.5t26.5 -41t9.5 -52q0 -29 -10.5 -54t-29 -43.5t-43.5 -29t-54 -10.5q-28 0 -51.5 9.5 t-40.5 26.5t-26.5 40.5t-9.5 51.5z" />
<glyph unicode="&#x202f;" horiz-adv-x="389" />
<glyph unicode="&#x2039;" horiz-adv-x="702" d="M99 512q0 28 13 48.5t37 41.5l395 332q19 16 42 16q16 0 30 -6.5t24 -17t16 -24t6 -27.5q0 -13 -5.5 -25t-17.5 -24l-351 -315l222 -331q5 -10 8.5 -19t3.5 -21q0 -17 -8 -31t-20 -24.5t-27.5 -16.5t-30.5 -6q-17 0 -31.5 7t-26.5 23l-255 353q-11 15 -17.5 31t-6.5 36z " />
<glyph unicode="&#x203a;" horiz-adv-x="702" d="M40 132q0 14 5.5 25.5t17.5 23.5l351 315l-221 331q-6 10 -9 19t-3 21q0 16 7.5 30.5t20 24.5t27.5 16.5t30 6.5q18 0 32 -7t26 -23l255 -352q11 -16 18 -32t7 -36q0 -27 -13 -47.5t-37 -41.5l-395 -333q-20 -16 -43 -16q-16 0 -29.5 6.5t-23.5 17t-16.5 24t-6.5 27.5z " />
<glyph unicode="&#x205f;" horiz-adv-x="486" />
<glyph unicode="&#x20ac;" horiz-adv-x="1224" d="M79 513q0 34 19 54.5t54 20.5h107q2 51 9 98t17 92h-99q-26 0 -39.5 14.5t-13.5 40.5q0 34 19 54.5t54 20.5h118q43 114 108.5 204.5t149 153t182.5 96t209 33.5q102 0 171.5 -21t98.5 -50q14 -14 19 -26.5t5 -29.5q0 -30 -19.5 -50.5t-53.5 -20.5q-19 0 -38 7.5 t-46 16.5t-66 16.5t-98 7.5q-75 0 -142 -25.5t-122.5 -70.5t-98.5 -106.5t-71 -134.5h394q26 0 39.5 -14.5t13.5 -40.5q0 -34 -18.5 -54.5t-54.5 -20.5h-418q-10 -45 -17 -91.5t-9 -98.5h410q26 0 39.5 -14.5t13.5 -40.5q0 -34 -19 -54.5t-54 -20.5h-386q13 -164 97 -243 t228 -79q58 0 99 8.5t71 19.5l52 20q22 8 41 8q26 0 41 -16t15 -40q0 -21 -6.5 -35t-19.5 -27q-18 -19 -51 -35t-75.5 -28.5t-92.5 -19.5t-104 -7q-111 0 -198 32t-148 93t-95.5 148.5t-41.5 200.5h-126q-26 0 -39.5 14.5t-13.5 40.5z" />
<glyph unicode="&#x2122;" horiz-adv-x="1626" d="M162 1313q0 31 16 48t40 17h463q21 0 32.5 -12t11.5 -37q0 -30 -16.5 -47.5t-41.5 -17.5h-165l-89 -518q-6 -29 -24 -45t-53 -16t-51 16t-10 46l89 517h-158q-44 0 -44 49zM694 732q0 5 1 10.5t4 15.5l148 535q13 45 40 65.5t78 20.5q49 0 69.5 -21t25.5 -60l54 -469h2 l216 467q18 41 44 62t75 21q22 0 39.5 -3.5t29 -13t18 -24t6.5 -35.5v-11q0 -6 -1 -21l-36 -520q-1 -15 -3.5 -27.5t-11.5 -22.5q-9 -9 -24 -14t-31 -5q-30 0 -48.5 12.5t-18.5 36.5v10q0 6 1 18l33 371l15 105h-2l-220 -471q-8 -19 -17 -34t-20 -25.5t-27 -16t-40 -5.5 q-43 0 -60.5 20t-21.5 62l-59 471h-2l-22 -105l-98 -386q-5 -19 -8.5 -28.5t-10.5 -16.5q-8 -8 -20.5 -13t-29.5 -5q-30 0 -48.5 13.5t-18.5 36.5z" />
<glyph unicode="&#x25fc;" horiz-adv-x="1020" d="M0 0v1020h1020v-1020h-1020z" />
<glyph unicode="&#xfb01;" horiz-adv-x="1177" d="M-284 -392q0 16 5.5 29t14.5 22.5t21.5 14t27.5 4.5q13 0 25 -3l24 -7q13 -3 29.5 -6.5t40.5 -3.5q33 0 64 11t57 38t46 71t31 111l169 975h-104q-29 0 -44 15t-15 46q0 19 5.5 34.5t16 26t24.5 16.5t31 6h111l18 105q17 92 55 162t99 118.5t145 73.5t190 25 q57 0 102.5 -6.5t78.5 -16t55.5 -20.5t32.5 -22q23 -22 23 -52q0 -32 -19.5 -51t-49.5 -19q-17 0 -35.5 6t-45 13.5t-66 14t-97.5 6.5q-127 0 -199 -61t-92 -178l-16 -98h533q43 0 61 -21.5t11 -64.5l-147 -846q-6 -40 -30 -61t-70 -21q-44 0 -65 21t-14 61l136 788h-440 l-172 -991q-18 -102 -54 -171.5t-86 -111.5t-111.5 -60.5t-129.5 -18.5q-66 0 -104 14t-55 31q-11 10 -16.5 23t-5.5 29z" />
<glyph unicode="&#xfb02;" horiz-adv-x="1200" d="M-284 -392q0 16 5.5 29t14.5 22.5t21.5 14t27.5 4.5q13 0 25 -3l24 -7q13 -3 29.5 -6.5t40.5 -3.5q33 0 64 11t57 38t46 71t31 111l169 974h-104q-29 0 -44 15t-15 46q0 20 5.5 35.5t16 26t24.5 16.5t31 6h111l20 112q15 87 53.5 156t101 117.5t150.5 75t203 26.5 q54 0 101.5 -5.5t84.5 -14.5t63.5 -21t40.5 -26q10 -10 16 -22.5t6 -31.5q0 -6 -0.5 -14t-2.5 -17l-185 -1069q-8 -42 -6.5 -68t9 -41t21 -20.5t30.5 -5.5q20 0 31 2.5t25 2.5q23 0 35.5 -15.5t12.5 -38.5q0 -19 -6 -33.5t-19 -26.5q-7 -8 -19 -15t-29 -12.5t-39 -9 t-49 -3.5q-93 0 -140 47.5t-47 139.5q0 24 2.5 46.5t7.5 51.5l182 1049q-17 7 -40 13q-20 4 -50 8.5t-73 4.5q-67 0 -117.5 -16t-86.5 -46t-58 -72.5t-31 -95.5l-19 -112h159q29 0 44 -15.5t15 -46.5q0 -20 -5.5 -35.5t-16 -26t-24.5 -16t-31 -5.5h-166l-172 -990 q-18 -102 -54 -171.5t-86 -111.5t-111.5 -60.5t-129.5 -18.5q-66 0 -104 14t-55 31q-11 10 -16.5 23t-5.5 29z" />
</font>
</defs>
</svg>
