<?xml version="1.0" standalone="no"?>
<!DOCTYPE svg PUBLIC "-//W3C//DTD SVG 1.1//EN" "http://www.w3.org/Graphics/SVG/1.1/DTD/svg11.dtd" >
<svg xmlns="http://www.w3.org/2000/svg" xmlns:xlink="http://www.w3.org/1999/xlink" version="1.1">
<metadata></metadata>
<defs>
<font id="rooneysans-bolduploaded_file" horiz-adv-x="1168" >
<font-face units-per-em="2048" ascent="1540" descent="-508" />
<missing-glyph horiz-adv-x="526" />
<glyph horiz-adv-x="0" />
<glyph horiz-adv-x="0" />
<glyph unicode="&#xd;" horiz-adv-x="0" />
<glyph unicode=" "  horiz-adv-x="526" />
<glyph unicode="&#x09;" horiz-adv-x="526" />
<glyph unicode="&#xa0;" horiz-adv-x="526" />
<glyph unicode="!" horiz-adv-x="704" d="M181 142q0 36 13 66.5t36.5 53t55 35t68.5 12.5q38 0 69 -12t53.5 -33.5t35 -51.5t12.5 -66t-13 -66t-36 -52.5t-55 -35t-70 -12.5t-69 12t-53 33.5t-34.5 51t-12.5 65.5zM203 1376q0 23 8 43t26 34.5t46.5 23t68.5 8.5q41 0 69.5 -8.5t46 -23t25.5 -34.5t8 -43v-26 q0 -13 -0.5 -29.5t-1 -38t-1.5 -49.5l-23 -715q-2 -42 -32 -68t-91 -26q-60 0 -90.5 26t-31.5 68l-23 715q-1 28 -2 49q0 22 -0.5 38.5t-1 30t-0.5 25.5z" />
<glyph unicode="&#x22;" horiz-adv-x="852" d="M118 1408q0 41 31 64t89 23t88.5 -23t30.5 -64q0 -8 -0.5 -20t-2.5 -33l-24 -350q-3 -37 -28.5 -55t-63.5 -18t-63.5 18t-28.5 55l-25 350q-2 21 -2.5 33t-0.5 20zM494 1408q0 41 31 64t89 23t88.5 -23t30.5 -64q0 -8 -0.5 -20t-2.5 -33l-24 -350q-3 -37 -28.5 -55 t-63.5 -18t-63.5 18t-28.5 55l-25 350q-2 21 -2.5 33t-0.5 20z" />
<glyph unicode="#" horiz-adv-x="1498" d="M49 421q0 44 22 66t63 22h199l114 358h-147q-41 0 -63 22.5t-22 64.5q0 44 22 66t63 22h200l86 270q14 45 39 65t61 20q22 0 42 -6.5t34.5 -18.5t23 -29t8.5 -38q0 -13 -2 -26t-7 -30l-67 -207h278l87 270q14 45 39 65t61 20q22 0 42 -6.5t34.5 -18.5t23 -29t8.5 -38 q0 -13 -2 -26t-7 -30l-66 -207h147q40 0 63 -22t23 -66q0 -42 -23 -64.5t-63 -22.5h-201l-113 -358h148q40 0 63 -22t23 -66q0 -42 -23 -64.5t-63 -22.5h-201l-85 -270q-14 -45 -39 -65t-62 -20q-23 0 -42.5 6.5t-34 18.5t-23 29t-8.5 38q0 12 1.5 25t7.5 31l66 207h-277 l-87 -270q-14 -45 -38.5 -65t-61.5 -20q-23 0 -42.5 6.5t-34 18.5t-23 29t-8.5 38q0 12 1.5 25t7.5 31l66 207h-146q-41 0 -63 22.5t-22 64.5zM552 509h278l114 358h-279z" />
<glyph unicode="$" horiz-adv-x="1105" d="M119 937q0 69 21.5 130t64 109t107 81.5t150.5 48.5v215q0 45 23.5 67t68.5 22t69.5 -22t24.5 -67v-204q46 -2 86.5 -9.5t74 -19t59 -26t40.5 -29.5q21 -21 28.5 -40.5t7.5 -45.5q0 -43 -26 -67.5t-67 -24.5q-24 0 -47 9l-52 19q-29 10 -68 19t-95 9q-54 0 -92.5 -10.5 t-62.5 -29t-35.5 -45t-11.5 -57.5q0 -44 26.5 -74t69.5 -52t98.5 -40t113 -39t113 -48.5t98.5 -69t69.5 -99.5t26.5 -141q0 -74 -22 -138t-66.5 -114.5t-111 -86t-154.5 -51.5v-219q0 -45 -24 -67.5t-69 -22.5t-69 22.5t-24 67.5v206q-58 1 -106.5 9.5t-87 20.5t-65.5 27 t-41 29q-21 21 -30 41t-9 48q0 45 26.5 69.5t66.5 24.5q24 0 47 -9.5t54.5 -21t76.5 -21t113 -9.5q60 0 102.5 12t70.5 33.5t41 51.5t13 66q0 48 -26.5 80.5t-69.5 56t-98 42.5l-114 40q-57 21 -112.5 48t-98.5 66t-69.5 95t-26.5 135z" />
<glyph unicode="%" horiz-adv-x="1956" d="M95 995q0 96 26.5 170.5t74.5 125.5t114.5 77.5t146.5 26.5q81 0 145.5 -24t109.5 -71.5t69 -119t24 -167.5q0 -95 -27 -169.5t-75 -125.5t-114.5 -78t-146.5 -27q-81 0 -145 24t-109 71.5t-69 119t-24 167.5zM310 1005q0 -65 12 -109.5t31.5 -71.5t45 -39t52.5 -12 t52.5 11.5t44.5 38.5t30.5 71t11.5 109t-12 109.5t-31.5 72t-45 39.5t-53.5 12q-27 0 -52 -12t-44 -39t-30.5 -71.5t-11.5 -108.5zM516 65q0 13 5 26t14 28l734 1229q14 23 31 36.5t44 13.5q18 0 35 -6.5t31 -18t22.5 -27t8.5 -33.5q0 -13 -5 -25.5t-14 -27.5l-734 -1229 q-14 -23 -31 -36.5t-44 -13.5q-18 0 -35.5 6.5t-31 17.5t-22 26.5t-8.5 33.5zM1151 366q0 96 26.5 170.5t74.5 125.5t114.5 77.5t146.5 26.5q81 0 145.5 -24t109.5 -71.5t69 -119t24 -167.5q0 -95 -27 -169.5t-75 -125.5t-114.5 -78t-146.5 -27q-81 0 -145 24t-109 71.5 t-69 119t-24 167.5zM1366 376q0 -65 12 -109.5t31.5 -71.5t45 -39t52.5 -12t52.5 11.5t44.5 38.5t30.5 71t11.5 109t-12 109.5t-31.5 72t-45 39.5t-53.5 12q-27 0 -52 -12t-44 -39t-30.5 -71.5t-11.5 -108.5z" />
<glyph unicode="&#x26;" horiz-adv-x="1665" d="M120 433q0 54 11.5 101t30 87t42.5 73.5t49 59.5q58 62 133 105q-35 65 -52.5 127t-17.5 122q0 88 28 160t82.5 122t135.5 77.5t188 27.5q54 0 97.5 -6.5t75.5 -16.5t54.5 -23t34.5 -25q18 -18 25.5 -38t7.5 -47q0 -19 -6.5 -35.5t-18 -28.5t-27.5 -18.5t-34 -6.5 q-19 0 -39 6l-44 15q-24 8 -54.5 14.5t-70.5 6.5q-84 0 -127 -43t-43 -126q0 -75 40.5 -158t114 -170.5t176.5 -177.5t228 -179q8 20 12 48t4 58q0 54 -10.5 94.5t-29 72.5t-43 58.5t-52.5 51.5q-25 23 -36 44t-11 56q0 44 22 70t66 26h372q42 0 66 -26t24 -75 q0 -50 -24 -76t-66 -26h-113q18 -19 33.5 -46.5t27 -62t18.5 -74.5t7 -85q0 -62 -14 -123t-41 -118l75 -43l69 -39l36 -21q17 -11 29.5 -24.5t19.5 -30t7 -38.5q0 -24 -8.5 -45.5t-25 -38.5t-39.5 -27t-51 -10q-9 0 -19 1t-22 4t-26 8t-30 13q-23 10 -43 21l-42 23l-45 26 l-50 31q-20 -20 -58.5 -43.5t-96.5 -43.5t-135.5 -34t-174.5 -14q-153 0 -266.5 34t-188 95t-111 143.5t-36.5 180.5zM386 459q0 -59 21 -108t65.5 -84.5t112.5 -55t162 -19.5q41 0 77.5 4.5t67 13t54 20t37.5 25.5q-145 103 -265.5 213.5t-207.5 219.5q-35 -23 -62 -56 q-23 -29 -42.5 -71.5t-19.5 -101.5z" />
<glyph unicode="'" horiz-adv-x="476" d="M118 1408q0 41 31 64t89 23t88.5 -23t30.5 -64q0 -8 -0.5 -20t-2.5 -33l-24 -350q-3 -37 -28.5 -55t-63.5 -18t-63.5 18t-28.5 55l-25 350q-2 21 -2.5 33t-0.5 20z" />
<glyph unicode="(" horiz-adv-x="679" d="M121 584q0 140 22 272.5t64 252.5t103.5 225t139.5 192q19 20 42 30.5t46 10.5q22 0 40.5 -7t32 -19t20.5 -27.5t7 -32.5q0 -19 -7 -35t-18 -33q-52 -81 -95 -171t-73.5 -192.5t-47 -218t-16.5 -247.5t16.5 -247.5t47 -218t73.5 -193t95 -170.5q11 -17 18 -33.5t7 -34.5 t-7 -33.5t-20.5 -27t-32 -18.5t-40.5 -7q-23 0 -46.5 10t-41.5 30q-78 87 -139.5 192.5t-103.5 225.5t-64 252.5t-22 272.5z" />
<glyph unicode=")" horiz-adv-x="679" d="M41 -313q0 18 7.5 34t18.5 34q52 80 94.5 170t73 192.5t47 218.5t16.5 248t-16.5 247.5t-47 218t-73 192.5t-94.5 170q-11 18 -18.5 34t-7.5 34t7.5 33.5t20.5 27t31.5 18.5t40.5 7q24 0 47.5 -10t41.5 -30q78 -87 139 -193t103 -225.5t64.5 -251.5t22.5 -272 q0 -141 -22.5 -273t-64.5 -252t-103 -225.5t-139 -192.5q-18 -20 -41.5 -30.5t-47.5 -10.5q-22 0 -40.5 7t-31.5 19t-20.5 27.5t-7.5 33.5z" />
<glyph unicode="*" horiz-adv-x="850" d="M98 1260q0 19 7.5 37.5t19.5 33t27 23.5t31 9q14 0 25.5 -5.5t25.5 -16.5l125 -87l-16 149q-2 13 -3 18.5t-1 10.5q0 28 24.5 44.5t61.5 16.5q38 0 62 -16.5t24 -44.5q0 -5 -0.5 -10.5t-2.5 -18.5l-16 -149l124 85q15 11 27 16.5t24 5.5q17 0 32.5 -9t27 -23.5t18 -32 t6.5 -34.5q0 -26 -15 -40t-43 -26l-134 -58l136 -63q29 -13 43.5 -26.5t14.5 -39.5q0 -19 -7.5 -37.5t-19.5 -33t-27 -23.5t-31 -9q-14 0 -26 6t-26 17l-124 87l16 -149q2 -13 2.5 -19t0.5 -11q0 -27 -24 -43.5t-62 -16.5q-37 0 -61.5 16.5t-24.5 43.5q0 5 1 11t3 19l16 149 l-125 -86q-15 -11 -26.5 -16t-23.5 -5q-18 0 -33 9t-26.5 23.5t-18 31.5t-6.5 34q0 26 14.5 40.5t42.5 25.5l134 59l-136 63q-29 12 -43 26t-14 39z" />
<glyph unicode="+" d="M136 584q0 46 25 73t69 27h244v238q0 59 29.5 87t80.5 28t80.5 -28t29.5 -87v-238h244q44 0 69 -27t25 -73t-25 -73t-69 -27h-244v-238q0 -59 -29.5 -87.5t-80.5 -28.5t-80.5 28.5t-29.5 87.5v238h-244q-44 0 -69 27t-25 73z" />
<glyph unicode="," horiz-adv-x="610" d="M75 -270q0 24 16 44l40 48q23 28 48.5 69t45.5 108q-17 7 -33.5 19.5t-29.5 31.5t-21.5 44t-8.5 57q0 38 13.5 70t37 55.5t55.5 37t70 13.5q39 0 70 -13.5t53.5 -39t34.5 -62t12 -82.5q0 -52 -11.5 -100.5t-30 -92t-41 -80.5t-43.5 -65q-49 -66 -98 -100.5t-96 -34.5 q-40 0 -61.5 20t-21.5 53z" />
<glyph unicode="-" horiz-adv-x="937" d="M127 549q0 51 24.5 77.5t66.5 26.5h500q42 0 66.5 -26.5t24.5 -77.5q0 -52 -24.5 -79t-66.5 -27h-500q-42 0 -66.5 27t-24.5 79z" />
<glyph unicode="." horiz-adv-x="610" d="M132 151q0 38 13.5 70t37 55.5t55.5 37t70 13.5q37 0 68.5 -12.5t54 -35.5t35 -54.5t12.5 -69.5t-13 -70t-36.5 -55t-55.5 -36.5t-70 -13.5t-69 12.5t-54 35.5t-35.5 54t-12.5 69z" />
<glyph unicode="/" horiz-adv-x="877" d="M-2 -224q0 14 4.5 28.5t13.5 40.5l570 1563q16 44 39.5 63.5t63.5 19.5q23 0 46 -7.5t41 -21t29.5 -32.5t11.5 -42q0 -14 -4.5 -29t-13.5 -41l-570 -1563q-16 -44 -39.5 -63.5t-63.5 -19.5q-23 0 -46 7.5t-41 21t-29.5 33t-11.5 42.5z" />
<glyph unicode="0" horiz-adv-x="1302" d="M93 517q0 133 39.5 239t113.5 180t179.5 113.5t237.5 39.5q126 0 227.5 -38t172 -107.5t108.5 -168.5t38 -222q0 -133 -39.5 -239t-113.5 -180.5t-179.5 -114t-237.5 -39.5q-126 0 -227.5 38t-172 107.5t-108.5 169t-38 222.5zM366 537q0 -84 22 -148.5t60.5 -108.5 t91 -67t113.5 -23q62 0 113.5 22t89 65.5t58.5 107.5t21 148t-22 148.5t-60 108.5t-90.5 66.5t-113.5 22.5q-62 0 -113.5 -22t-89.5 -65t-59 -107t-21 -148z" />
<glyph unicode="1" horiz-adv-x="735" d="M23 834q0 22 7.5 39t22.5 32q9 9 27.5 21t43.5 26l58 31q33 16 70 33l66 29q28 12 51 20t42 11.5t36 3.5q58 0 91 -34t33 -97v-836q0 -58 -34 -89t-102 -31q-69 0 -102.5 31t-33.5 89v678l-110 -37q-19 -6 -37.5 -10.5t-35.5 -4.5q-21 0 -38 7.5t-29 20.5t-19 30t-7 37z " />
<glyph unicode="2" horiz-adv-x="976" d="M51 136q0 42 19 74.5t61 67.5l187 157l99 85q47 40 81 78t53.5 75.5t19.5 76.5q0 58 -41 93.5t-131 35.5q-45 0 -78.5 -7t-60.5 -16l-47 -15q-20 -7 -39 -7q-38 0 -60.5 23.5t-22.5 63.5q0 23 7 41.5t23 34.5t47 32.5t74 30t97 21.5t117 8q105 0 181.5 -22t126 -62.5 t73.5 -96.5t24 -123q0 -66 -24 -124t-68 -112t-105.5 -107.5t-135.5 -110.5l-142 -110h435q42 0 68 -28t26 -82q0 -55 -26 -83t-68 -28h-623q-70 0 -108.5 36.5t-38.5 99.5z" />
<glyph unicode="3" horiz-adv-x="992" d="M48 -160q0 42 24 66t62 24q21 0 42 -9l49 -20q28 -11 67 -20t97 -9q57 0 101.5 16t75.5 45t47 68.5t16 87.5q0 50 -17 90t-58 67.5t-110.5 42.5t-174.5 15q-20 0 -32.5 4t-21.5 12q-14 13 -20.5 35.5t-6.5 47.5t6.5 48t20.5 37q8 8 21 12t33 4q86 0 146.5 15.5t98 43 t54.5 66t17 85.5q0 80 -48 124t-152 44q-44 0 -77 -7t-59 -15l-47 -15q-21 -7 -40 -7q-37 0 -60 22.5t-23 62.5q0 23 7.5 41t22.5 33q16 16 46.5 32.5t73.5 30t97 21.5t119 8q105 0 183 -24.5t130 -69t77.5 -106.5t25.5 -138q0 -56 -16 -104t-45 -88.5t-68.5 -71.5 t-86.5 -52v-2q61 -15 110 -43t83 -70t52 -97.5t18 -123.5q0 -91 -34 -169t-100 -135.5t-161.5 -90t-218.5 -32.5q-63 0 -113.5 7.5t-89.5 19t-65.5 26t-40.5 28.5q-18 18 -27.5 38.5t-9.5 48.5z" />
<glyph unicode="4" horiz-adv-x="1130" d="M34 216q0 19 2.5 35.5t8.5 33t16 34t24 38.5l405 587q27 39 53.5 66t55 43t60.5 23t71 7q85 0 127.5 -36.5t42.5 -108.5v-657h123q42 0 66.5 -27t24.5 -78q0 -52 -24.5 -79t-66.5 -27h-123v-268q0 -59 -31.5 -88.5t-99.5 -29.5q-66 0 -97.5 29.5t-31.5 88.5v268h-446 q-81 0 -120.5 38.5t-39.5 107.5zM283 281h357v524z" />
<glyph unicode="5" horiz-adv-x="1001" d="M63 -159q0 42 24 66t62 24q22 0 42.5 -9t49 -19.5t68 -19.5t99.5 -9q59 0 105 16t77.5 45t47.5 69.5t16 90.5q0 54 -23.5 100t-75 79.5t-132.5 52.5t-196 19q-51 0 -74 25t-21 75l26 515q2 54 30.5 81t83.5 27h525q43 0 69 -27.5t26 -82.5q0 -56 -26 -83.5t-69 -27.5 h-418l-14 -293q152 -6 259.5 -41t176 -92.5t100 -135t31.5 -168.5q0 -99 -33.5 -181t-99.5 -141t-163.5 -91.5t-224.5 -32.5q-63 0 -114.5 7.5t-90.5 19t-65.5 26t-40.5 28.5q-18 18 -27.5 38.5t-9.5 49.5z" />
<glyph unicode="6" horiz-adv-x="1155" d="M98 583q0 199 46 351t130.5 255.5t204.5 156.5t268 53q45 0 79.5 -4.5t59.5 -11.5t41.5 -16.5t25.5 -18.5q14 -14 21 -31t7 -41q0 -45 -25 -69t-63 -24q-14 0 -27.5 1.5t-29 4t-36 4t-47.5 1.5q-75 0 -138 -23t-111 -72t-80.5 -126t-47.5 -185q31 21 72 39 q35 15 86.5 27.5t117.5 12.5q97 0 174.5 -29t130.5 -82.5t81.5 -130.5t28.5 -173q0 -108 -33 -195t-95.5 -148.5t-151.5 -95t-201 -33.5q-116 0 -206.5 37t-153 112t-95.5 188.5t-33 265.5zM364 579q1 -111 18.5 -185.5t48 -120.5t73 -65.5t94.5 -19.5q44 0 80 15.5t62 46.5 t40.5 76.5t14.5 104.5q0 56 -14.5 98.5t-42 71.5t-67 44t-90.5 15t-90 -13t-68 -28q-33 -18 -59 -40z" />
<glyph unicode="7" horiz-adv-x="954" d="M24 956q0 57 25.5 85t70.5 28h641q37 0 64 -9t44 -25.5t25 -39t8 -49.5q0 -35 -9 -67t-27 -71q-68 -141 -126 -275.5t-106 -260.5t-86.5 -243t-68.5 -222q-9 -32 -20.5 -56t-27.5 -39.5t-36.5 -23t-47.5 -7.5q-29 0 -52.5 7.5t-40.5 21.5t-26.5 35.5t-9.5 50.5q0 21 4 42 t11 48q24 97 60.5 209.5t81.5 235t98 251.5l111 261h-464q-44 0 -70 28t-26 85z" />
<glyph unicode="8" horiz-adv-x="1120" d="M83 339q0 64 20 116t55 95.5t82 80t102 69.5q-48 28 -89.5 62.5t-71.5 75.5t-47.5 88.5t-17.5 103.5q0 78 29.5 145.5t88 117t145 78t199.5 28.5q104 0 183.5 -26t133 -71t81 -105t27.5 -127q0 -61 -18 -109.5t-49 -88.5t-73.5 -73t-91.5 -63q54 -30 102.5 -67 t84.5 -81.5t57.5 -96.5t21.5 -113q0 -89 -30.5 -162.5t-92 -126t-154.5 -81t-219 -28.5q-114 0 -200 27t-143 75t-86 114t-29 143zM345 364q0 -42 14 -76.5t41 -59t67.5 -38t93.5 -13.5q52 0 91 13t65.5 37t40 57.5t13.5 74.5q0 42 -17.5 76.5t-48.5 64t-74 54.5t-94 49 q-44 -26 -79.5 -52.5t-60.5 -55t-38.5 -60.5t-13.5 -71zM382 1048q0 -39 13.5 -69.5t38.5 -56t61.5 -47.5t81.5 -44q38 23 68.5 46.5t51.5 49t32.5 54.5t11.5 63t-12 63t-35.5 50t-57.5 32.5t-78 11.5q-42 0 -75 -11.5t-55.5 -31.5t-34 -48.5t-11.5 -61.5z" />
<glyph unicode="9" horiz-adv-x="1156" d="M88 617q0 108 33 195t95.5 148.5t151.5 95t201 33.5q115 0 206 -37t153.5 -112t95.5 -188t33 -265q0 -199 -46.5 -351.5t-135 -255.5t-216.5 -156t-291 -53q-46 0 -80.5 4t-59 11t-40.5 16t-26 19q-14 14 -21.5 30.5t-7.5 42.5q0 45 25.5 68.5t63.5 23.5q13 0 26.5 -1.5 t29.5 -3.5t36 -3.5t47 -1.5q106 0 179.5 29t122.5 82.5t76 128t40 165.5q-31 -22 -72 -40q-35 -15 -86 -27t-117 -12q-98 0 -175 28.5t-130.5 82.5t-82 131t-28.5 173zM360 638q0 -56 14.5 -98.5t42 -71.5t67 -44t90.5 -15q50 0 89.5 12.5t68.5 27.5q33 18 59 41 q0 114 -18.5 189.5t-50 120t-74.5 63t-91 18.5q-44 0 -80 -16t-62 -46.5t-40.5 -76t-14.5 -104.5z" />
<glyph unicode=":" horiz-adv-x="610" d="M132 151q0 38 13.5 70t37 55.5t55.5 37t70 13.5q37 0 68.5 -12.5t54 -35.5t35 -54.5t12.5 -69.5t-13 -70t-36.5 -55t-55.5 -36.5t-70 -13.5t-69 12.5t-54 35.5t-35.5 54t-12.5 69zM132 759q0 37 13.5 69.5t37 55.5t55.5 36.5t70 13.5q37 0 68.5 -12.5t54 -35.5t35 -54.5 t12.5 -68.5q0 -38 -13 -70t-36.5 -55.5t-55.5 -36.5t-70 -13t-69 12.5t-54 35t-35.5 54t-12.5 69.5z" />
<glyph unicode=";" horiz-adv-x="610" d="M75 -270q0 24 16 44l40 48q23 28 48.5 69t45.5 108q-17 7 -33.5 19.5t-29.5 31.5t-21.5 44t-8.5 57q0 38 13.5 70t37 55.5t55.5 37t70 13.5q39 0 70 -13.5t53.5 -39t34.5 -62t12 -82.5q0 -52 -11.5 -100.5t-30 -92t-41 -80.5t-43.5 -65q-49 -66 -98 -100.5t-97 -34.5 q-39 0 -60.5 20t-21.5 53zM132 759q0 37 13.5 69.5t37 55.5t55.5 36.5t70 13.5q37 0 68.5 -12.5t54 -35.5t35 -54.5t12.5 -68.5q0 -38 -13 -70t-36.5 -55.5t-55.5 -36.5t-70 -13t-69 12.5t-54 35t-35.5 54t-12.5 69.5z" />
<glyph unicode="&#x3c;" d="M196 581q0 32 14.5 59t49.5 50l482 317q23 14 39 21t34 7q22 0 42 -10t35 -26t23.5 -36.5t8.5 -41.5q0 -25 -11.5 -45t-36.5 -37l-380 -251l379 -252q26 -17 37 -38t11 -44t-9 -45t-25 -39t-36.5 -28t-42.5 -11q-19 0 -34.5 6t-38.5 21l-477 313q-36 23 -50 49.5 t-14 60.5z" />
<glyph unicode="=" d="M156 385q0 46 25 72.5t68 26.5h668q44 0 69 -27t25 -72q0 -47 -25 -73.5t-69 -26.5h-667q-44 0 -69 26.5t-25 73.5zM156 782q0 46 25 72.5t69 26.5h667q44 0 69 -26.5t25 -72.5q0 -47 -25 -73.5t-69 -26.5h-667q-44 0 -69 26.5t-25 73.5z" />
<glyph unicode="&#x3e;" d="M244 244q0 25 11.5 44.5t36.5 36.5l380 251l-379 253q-26 17 -37 38t-11 44q0 22 9 44t25 39.5t36 28t43 10.5q19 0 34.5 -5.5t38.5 -20.5l477 -313q36 -24 50 -50.5t14 -59.5q0 -32 -14.5 -59.5t-49.5 -50.5l-482 -316q-23 -14 -39 -21t-34 -7q-23 0 -42.5 10t-34.5 26 t-23.5 36.5t-8.5 41.5z" />
<glyph unicode="?" horiz-adv-x="852" d="M54 1331q0 23 8 41.5t24 34.5q17 17 46 33t68 28t87 19.5t105 7.5q105 0 182.5 -23.5t128.5 -67t76 -104.5t25 -136q0 -72 -23 -126.5t-57.5 -98.5t-75 -80.5t-75 -72.5t-57.5 -74.5t-23 -86.5q0 -24 2.5 -40.5t5.5 -29.5l5 -22q3 -10 3 -22q0 -38 -31.5 -62.5 t-97.5 -24.5q-36 0 -65 12t-49.5 36.5t-31.5 62t-11 89.5q0 65 22.5 115.5t55.5 91.5t72.5 76.5t72.5 71t55.5 73t22.5 84.5q0 33 -11 60.5t-34.5 46.5t-59.5 29.5t-86 10.5q-44 0 -72.5 -5.5t-49.5 -12.5l-38 -13q-17 -5 -36 -5q-38 0 -60.5 23t-22.5 61zM218 142 q0 36 13 66.5t36.5 53t55 35t68.5 12.5t68.5 -12t53.5 -33.5t34.5 -51.5t12.5 -66t-13 -66t-36 -52.5t-54.5 -35t-69.5 -12.5t-69 12t-53 33.5t-34.5 51t-12.5 65.5z" />
<glyph unicode="@" horiz-adv-x="2128" d="M127 473q0 149 34.5 283t100 247.5t160.5 204.5t215.5 155t264.5 98t309 34q197 0 347 -49.5t250.5 -141t151.5 -221.5t51 -291q0 -155 -34.5 -278.5t-99 -210t-156.5 -133t-206 -46.5q-103 0 -164.5 39.5t-85.5 104.5l-4 2q-31 -41 -73 -73q-37 -28 -91 -50.5 t-128 -22.5q-80 0 -143.5 24.5t-108 72t-68.5 116.5t-24 159q0 123 39 223t111 171t173.5 110t225.5 39q54 0 98 -5t78 -13.5t58.5 -19.5t40.5 -23q28 -22 37 -47.5t6 -66.5l-34 -402q-4 -41 0 -68.5t15 -44.5t29 -24.5t43 -7.5q37 0 76.5 22.5t72.5 74t54 136t21 208.5 q0 125 -36.5 223.5t-108.5 166.5t-179.5 103.5t-249.5 35.5q-123 0 -231.5 -26.5t-199.5 -76t-163 -120.5t-122.5 -159t-77 -192t-26.5 -220q0 -305 158.5 -460t481.5 -155q93 0 158 8.5t109.5 19t73.5 19t50 8.5q38 0 60 -23.5t22 -58.5q0 -23 -7 -40.5t-24 -34.5 q-18 -18 -56 -36.5t-96 -33.5t-136 -24.5t-175 -9.5q-213 0 -375 54.5t-271.5 157.5t-165 251.5t-55.5 337.5zM879 515q0 -96 41 -141t112 -45q45 0 79 17.5t57 38.5q26 25 45 57l30 372q-11 7 -28 12q-14 5 -36 9t-51 4q-52 0 -97.5 -20.5t-79 -61.5t-53 -101.5 t-19.5 -140.5z" />
<glyph unicode="A" horiz-adv-x="1293" d="M41 108q0 16 4.5 32t15.5 49l351 1009l17 43q8 20 17 36t18.5 29t21.5 25q26 26 64.5 39.5t95.5 13.5t95.5 -13.5t64.5 -39.5q12 -12 21.5 -25t18.5 -29t17 -36l17 -43l352 -1004q12 -34 15.5 -50t3.5 -30q0 -31 -14 -54t-36 -38.5t-49 -23.5t-53 -8q-29 0 -52 9t-39 25 q-15 15 -24.5 37t-20.5 56l-71 207h-506l-67 -206q-11 -35 -21 -58.5t-25 -38.5q-14 -14 -36 -22.5t-51 -8.5q-26 0 -51.5 8t-46.5 23t-34 37t-13 50zM448 537h378l-131 394q-14 41 -25 76l-19 64q-10 32 -17 60h-4q-7 -28 -16 -60l-18 -64q-10 -35 -23 -76z" />
<glyph unicode="B" horiz-adv-x="1247" d="M165 127v1124q0 60 33 93.5t94 33.5h297q138 0 236 -26t160.5 -72t91 -109t28.5 -137q0 -56 -15.5 -104t-44 -86.5t-69 -67t-91.5 -45.5v-3q61 -11 111 -36.5t85 -64.5t54 -90.5t19 -114.5q0 -91 -34.5 -168t-106 -133.5t-182 -88.5t-262.5 -32h-277q-61 0 -94 33.5 t-33 93.5zM438 207h145q76 0 130.5 15t89.5 42t51.5 64t16.5 81t-15.5 80t-49.5 61.5t-89 39.5t-134 14h-145v-397zM438 811h135q66 0 113.5 14t78 38.5t45.5 58.5t15 74t-13.5 72t-43.5 55t-77.5 35.5t-114.5 12.5h-138v-360z" />
<glyph unicode="C" horiz-adv-x="1189" d="M91 643q0 175 48.5 314.5t137 237t211 149.5t271.5 52q63 0 115 -9.5t92 -23.5t67.5 -31t42.5 -32q22 -22 31 -44.5t9 -52.5q0 -22 -7 -40t-20 -31t-30.5 -20.5t-38.5 -7.5q-23 0 -44.5 11t-50.5 23.5t-70 23.5t-102 11q-77 0 -145 -31t-119.5 -93.5t-81.5 -156 t-30 -218.5q0 -113 29 -200t81 -146t123.5 -89.5t156.5 -30.5q60 0 101.5 10.5t71.5 23t52 23t44 10.5q18 0 33.5 -7t26.5 -19.5t17.5 -29.5t6.5 -37q0 -27 -9.5 -48.5t-29.5 -41.5q-18 -18 -49.5 -37t-76.5 -35t-104 -26.5t-132 -10.5q-140 0 -256 46t-198.5 131.5 t-128 207.5t-45.5 275z" />
<glyph unicode="D" horiz-adv-x="1419" d="M165 127v1124q0 60 33 93.5t94 33.5h335q171 0 302.5 -45t221 -129.5t135 -207t45.5 -277.5q0 -168 -49.5 -301.5t-144 -226t-230.5 -142t-309 -49.5h-306q-61 0 -94 33.5t-33 93.5zM444 215h168q100 0 180 31t136.5 91.5t86.5 151t30 209.5t-27.5 206.5t-82 145 t-135.5 85.5t-188 28h-168v-948z" />
<glyph unicode="E" horiz-adv-x="1086" d="M165 127v1124q0 60 33 93.5t94 33.5h617q44 0 69.5 -27t25.5 -81t-25.5 -81.5t-69.5 -27.5h-465v-351h397q42 0 67.5 -27t25.5 -80q0 -52 -25.5 -79t-67.5 -27h-397v-380h470q43 0 68.5 -27.5t25.5 -81.5t-25.5 -81t-68.5 -27h-622q-61 0 -94 33.5t-33 93.5z" />
<glyph unicode="F" horiz-adv-x="1028" d="M165 116v1135q0 60 33 93.5t94 33.5h607q44 0 69 -27t25 -81t-25 -81.5t-69 -27.5h-455v-376h376q42 0 67.5 -27.5t25.5 -80.5t-25.5 -80t-67.5 -27h-376v-454q0 -59 -35 -91t-105 -32q-71 0 -105 32t-34 91z" />
<glyph unicode="G" horiz-adv-x="1400" d="M91 654q0 168 50.5 305t147 234t236 150t317.5 53q74 0 135.5 -11t108.5 -27.5t79.5 -35.5t48.5 -35q21 -21 30 -42.5t9 -52.5q0 -23 -7.5 -41t-20 -31t-30.5 -20t-39 -7q-25 0 -50.5 12.5t-62.5 28t-91 28t-136 12.5q-98 0 -179 -31.5t-139 -93.5t-89.5 -153t-31.5 -211 q0 -121 31.5 -213t89.5 -154t140.5 -93.5t185.5 -31.5q47 0 81 5t57 11q26 7 44 16v319h-189q-44 0 -68 28t-24 77q0 48 24 76t68 28h335q57 0 87 -30t30 -87v-408q0 -49 -13.5 -80t-42.5 -56q-20 -17 -56 -36.5t-89 -36.5t-124 -28t-159 -11q-163 0 -292 46t-218 133 t-136.5 212t-47.5 283z" />
<glyph unicode="H" horiz-adv-x="1442" d="M165 116v1146q0 59 34 91t105 32q72 0 106 -32t34 -91v-447h554v447q0 59 34 91t106 32q70 0 104.5 -32t34.5 -91v-1146q0 -59 -34 -91t-105 -32q-72 0 -106 32t-34 91v474h-554v-474q0 -59 -34 -91t-106 -32q-71 0 -105 32t-34 91z" />
<glyph unicode="I" horiz-adv-x="608" d="M165 116v1146q0 59 34 91t105 32q72 0 106 -32t34 -91v-1146q0 -59 -34 -91t-106 -32q-71 0 -105 32t-34 91z" />
<glyph unicode="J" horiz-adv-x="617" d="M-63 -282q0 33 14 55.5t42 37.5q40 22 73 46t57 58t37 83t13 121v1143q0 59 34.5 91t105.5 32t105 -32t34 -91v-1082q0 -92 -9 -161t-26 -122t-43 -93t-59 -73q-57 -57 -125 -86t-131 -29q-61 0 -91.5 28.5t-30.5 73.5z" />
<glyph unicode="K" horiz-adv-x="1221" d="M165 116v1146q0 59 34 91t105 32q72 0 106 -32t34 -91v-519l463 567q11 14 19.5 23.5t16.5 17.5q16 16 37.5 26.5t48.5 10.5q28 0 55 -10.5t47.5 -28.5t33 -41.5t12.5 -50.5q0 -21 -7.5 -40.5t-26.5 -40.5l-407 -452l407 -495q8 -9 16 -20t14 -23t10 -25.5t4 -28.5 q0 -29 -13.5 -54.5t-35.5 -45t-50 -31t-57 -11.5q-27 0 -49.5 9.5t-38.5 25.5q-9 9 -18 20l-23 29l-458 583v-541q0 -59 -34 -91t-106 -32q-71 0 -105 32t-34 91z" />
<glyph unicode="L" horiz-adv-x="1007" d="M165 127v1135q0 59 34 91t105 32q72 0 106 -32t34 -91v-1038h445q45 0 71.5 -27.5t26.5 -84.5t-26 -84.5t-72 -27.5h-597q-61 0 -94 33.5t-33 93.5z" />
<glyph unicode="M" horiz-adv-x="1874" d="M111 97q0 12 1.5 25t3.5 34l110 1039q5 48 18.5 81.5t36.5 56.5q24 24 64.5 38t99.5 14q50 0 86 -11t62 -33t43.5 -53.5t29.5 -71.5l224 -742q11 -37 20 -71.5t15 -60.5l13 -58h4l13 58l14 60q9 34 20 71l225 742q12 41 29.5 72.5t43.5 53.5t61.5 33t85.5 11 q57 0 96 -13.5t63 -37.5t37 -57.5t18 -81.5l110 -1037q2 -20 3 -32.5t1 -23.5q0 -25 -11.5 -45.5t-31 -35.5t-46 -23t-57.5 -8q-30 0 -57.5 9.5t-44.5 26.5q-20 20 -25.5 47.5t-8.5 62.5l-66 753q-4 41 -5 78.5t-1 66.5q0 34 1 64h-4l-280 -932q-14 -45 -29 -78t-35 -53 q-23 -23 -54.5 -32.5t-74.5 -9.5q-44 0 -76 9.5t-55 32.5q-20 20 -34.5 53.5t-28.5 77.5l-281 933h-4q0 -30 -1 -63q-1 -29 -3 -66.5t-5 -79.5l-62 -754q-3 -35 -8.5 -62.5t-26.5 -48.5q-17 -17 -42.5 -26t-54.5 -9q-28 0 -53.5 7.5t-44.5 21t-30 33.5t-11 45z" />
<glyph unicode="N" horiz-adv-x="1508" d="M165 104v1091q0 96 47.5 143t145.5 47q45 0 76.5 -10t56.5 -29t45.5 -46.5t41.5 -62.5l432 -703q23 -38 42 -74l33 -66q17 -33 31 -64l5 2q-3 35 -7 75q-3 34 -6 77.5t-4 91.5l-12 698v6q0 47 30 75q32 30 95.5 30t94.5 -29.5t31 -81.5v-1090q0 -97 -47.5 -144 t-145.5 -47q-45 0 -77 10t-57 29t-45.5 46.5t-41.5 62.5l-431 703q-23 38 -42.5 74.5t-33.5 65.5q-17 33 -31 64l-4 -2q3 -35 7 -75q3 -34 5.5 -78t4.5 -91l12 -698v-6q0 -47 -30 -75q-32 -30 -95.5 -30t-94.5 29.5t-31 81.5z" />
<glyph unicode="O" horiz-adv-x="1512" d="M91 670q0 171 49 306.5t138 229.5t214 143.5t277 49.5q147 0 267.5 -47t206 -136.5t132 -217.5t46.5 -290q0 -171 -49 -306t-138 -229t-213.5 -143.5t-276.5 -49.5q-147 0 -267.5 47t-206 136t-132.5 217t-47 290zM377 691q0 -120 30 -211.5t81.5 -153.5t121 -93.5 t148.5 -31.5t148 31t120 92.5t80 152t29 210.5t-29.5 212t-81.5 153.5t-121.5 93t-148.5 31.5t-147.5 -31t-119.5 -92t-80.5 -152t-29.5 -211z" />
<glyph unicode="P" horiz-adv-x="1163" d="M165 116v1135q0 60 33 93.5t94 33.5h289q133 0 231.5 -30.5t163.5 -86t97 -133t32 -172.5q0 -105 -34.5 -190t-102.5 -145t-170.5 -93t-238.5 -33h-117v-379q0 -59 -33.5 -91t-105.5 -32t-105 32t-33 91zM442 705h132q119 0 184 62.5t65 171.5t-62 167.5t-194 58.5h-125 v-460z" />
<glyph unicode="Q" horiz-adv-x="1513" d="M91 670q0 171 49 306.5t138 229.5t214 143.5t277 49.5q147 0 267.5 -47t206 -136.5t132 -217.5t46.5 -290q0 -140 -33 -256t-94 -205.5t-147.5 -150t-194.5 -88.5q37 -53 86 -91t107 -64t123.5 -41.5t137.5 -22.5q54 -6 77.5 -32.5t23.5 -67.5q0 -27 -11 -51t-33.5 -41 t-57 -27t-82.5 -10q-52 0 -109 11.5t-115 34t-114.5 57.5t-107.5 81.5t-94 105.5t-73 131q-140 5 -254 54t-195 137.5t-125.5 214t-44.5 283.5zM377 690q0 -120 30 -212t81.5 -154t121 -93.5t148.5 -31.5t148 31t120 92.5t80 153t29 211.5t-29.5 212t-81.5 153.5t-121.5 93 t-148.5 31.5t-147.5 -31t-119.5 -92t-80.5 -152.5t-29.5 -211.5z" />
<glyph unicode="R" horiz-adv-x="1221" d="M165 116v1135q0 60 33 93.5t94 33.5h294q141 0 243.5 -29t169 -81.5t98 -124.5t31.5 -157q0 -71 -20 -131t-56 -108t-87 -83t-113 -56l258 -397q17 -26 24.5 -45t7.5 -40q0 -29 -13.5 -53.5t-35.5 -43t-50.5 -29t-57.5 -10.5t-50.5 9.5t-37.5 25.5l-11 12q-6 6 -10 13 l-10 15l-11 18l-278 469h-138v-436q0 -59 -33.5 -91t-103.5 -32q-71 0 -104 32t-33 91zM439 764h141q67 0 117 15t83 42t49 65t16 83t-15 81.5t-47.5 62t-84.5 39.5t-126 14h-133v-402z" />
<glyph unicode="S" horiz-adv-x="1120" d="M110 991q0 87 32 161.5t95.5 129t157.5 85t218 30.5q62 0 113 -7.5t91 -20t68.5 -28.5t44.5 -32q22 -22 29.5 -42.5t7.5 -47.5q0 -46 -27 -71t-69 -25q-25 0 -47 9l-52 20q-30 11 -71 20t-101 9q-55 0 -95 -11.5t-66.5 -32.5t-39 -50t-12.5 -63q0 -50 27 -83.5t72 -57.5 t102 -43t116 -41t116 -51.5t102 -74t72 -108.5t27 -155q0 -93 -33.5 -171.5t-99.5 -135.5t-165 -89t-230 -32q-70 0 -126.5 8.5t-99.5 21.5t-72.5 29t-44.5 31q-21 21 -30 42t-9 50q0 47 27 72.5t69 25.5q25 0 47.5 -10t54.5 -21.5t78.5 -21.5t118.5 -10q61 0 105.5 13.5 t73.5 37t43.5 56.5t14.5 72q0 54 -27 89.5t-71.5 61.5t-101.5 46l-117 42q-59 23 -116 51t-101.5 71t-71.5 104t-27 148z" />
<glyph unicode="T" horiz-adv-x="1144" d="M21 1266q0 57 26 84.5t71 27.5h908q45 0 71 -27.5t26 -84.5t-26 -84.5t-71 -27.5h-315v-1038q0 -59 -34 -91t-105 -32t-105 32t-34 91v1038h-315q-45 0 -71 27.5t-26 84.5z" />
<glyph unicode="U" horiz-adv-x="1425" d="M153 535v727q0 59 34.5 91t105.5 32t105 -32t34 -91v-691q0 -97 21 -166.5t59.5 -114.5t91.5 -66t116 -21q59 0 109 20t86.5 61.5t57 104.5t20.5 150v723q0 59 34 91t105 32t105.5 -32t34.5 -91v-695q0 -146 -38.5 -256t-111 -183.5t-178 -110.5t-239.5 -37 q-135 0 -238 35.5t-172.5 105t-105.5 173.5t-36 241z" />
<glyph unicode="V" horiz-adv-x="1242" d="M41 1260q0 31 14.5 54.5t37 40t49.5 25t53 8.5q29 0 50.5 -8.5t36.5 -23.5q14 -14 23 -37t20 -56l253 -795q12 -38 22 -74l17 -65l15 -63h4q5 29 13 62l16 65q9 36 21 75l240 796q10 32 19 55t25 39q14 14 36 22t48 8q25 0 51 -7.5t47.5 -22.5t35 -37.5t13.5 -51.5 q0 -11 -4 -28t-15 -51l-343 -1029q-13 -39 -28.5 -68t-35.5 -49q-23 -23 -60 -37t-95 -14q-59 0 -96 14t-60 37q-21 21 -36 49.5t-28 67.5l-340 1018q-11 33 -15 49.5t-4 31.5z" />
<glyph unicode="W" horiz-adv-x="1960" d="M61 1263q0 30 14 53.5t35.5 39.5t48.5 24t54 8q29 0 52 -9t38 -24q19 -19 26.5 -43.5t15.5 -56.5l188 -788q9 -41 15 -77l12 -63q5 -33 8 -60h4l9 59l11 64q7 36 18 78l186 766q20 85 67.5 119.5t125.5 34.5t125.5 -34.5t67.5 -120.5l183 -763l16 -76q8 -37 13 -66 l11 -63h4l10 64l11 65q7 36 16 74l177 786q8 33 15 58t24 42t40.5 25.5t51.5 8.5q26 0 51.5 -7.5t46 -22.5t33.5 -36.5t13 -49.5q0 -5 -0.5 -10.5t-2 -13.5t-4 -19.5t-6.5 -27.5l-260 -1029q-11 -42 -24.5 -74t-35.5 -54q-26 -26 -65 -38.5t-94 -12.5q-54 0 -91 12.5 t-63 38.5q-22 22 -34 54t-23 74l-179 735q-8 34 -15 69l-11 62q-5 33 -10 62h-4q-4 -30 -9 -63l-11 -62q-7 -34 -15 -69l-179 -734q-11 -42 -23 -74t-34 -54q-26 -26 -63 -38.5t-92 -12.5q-54 0 -93 12.5t-65 38.5q-22 22 -35.5 54t-24.5 74l-258 1019q-8 34 -10.5 47.5 t-2.5 24.5z" />
<glyph unicode="X" horiz-adv-x="1222" d="M46 119q0 30 15 54.5t38 57.5l338 473l-312 415l-23 31q-11 14 -19.5 28.5t-13 29t-4.5 31.5q0 32 14 59t37 47t51.5 31.5t57.5 11.5q28 0 46.5 -8.5t32.5 -22.5q4 -4 8 -9l11 -12q6 -7 14.5 -18t19.5 -27l277 -395l242 385l19 29l14 21q6 9 11 15t11 12q14 14 33 22 t43 8q29 0 56.5 -10.5t48.5 -28t33.5 -41t12.5 -49.5q0 -30 -16 -55t-39 -57l-319 -444l332 -444q12 -17 23.5 -31t19.5 -28.5t13 -29t5 -31.5q0 -32 -14.5 -59t-37.5 -47t-51.5 -31.5t-57.5 -11.5q-27 0 -45.5 8.5t-32.5 22.5q-8 8 -19 20.5t-34 45.5l-297 425l-261 -415 q-21 -34 -32.5 -50t-22.5 -27q-14 -14 -33 -22t-43 -8q-29 0 -56 10.5t-48 28t-33.5 41t-12.5 49.5z" />
<glyph unicode="Y" horiz-adv-x="1149" d="M28 1247q0 32 14.5 58t37.5 44.5t50.5 28.5t53.5 10q29 0 48.5 -9.5t32.5 -22.5q12 -12 23 -29.5t29 -49.5l216 -384q11 -20 20 -39t17 -34q9 -18 16 -34h4l15 35l16 36q9 20 20 40l204 379q18 34 27.5 50.5t22.5 29.5q15 15 35.5 23.5t43.5 8.5q27 0 53.5 -10t47 -27.5 t33.5 -41t13 -51.5q0 -26 -11 -48.5t-30 -54.5l-369 -620v-419q0 -59 -34 -91t-106 -32q-71 0 -105 32t-34 91v419l-361 604l-18 30q-8 14 -13.5 27t-8.5 25t-3 26z" />
<glyph unicode="Z" horiz-adv-x="1081" d="M72 150q0 32 14 66.5t43 81.5l532 856h-468q-45 0 -71 27.5t-26 84.5t26 84.5t71 27.5h647q77 0 118 -39.5t41 -110.5q0 -32 -13.5 -66.5t-42.5 -81.5l-533 -856h511q46 0 72 -27.5t26 -84.5t-26 -84.5t-72 -27.5h-689q-78 0 -119 39.5t-41 110.5z" />
<glyph unicode="[" horiz-adv-x="675" d="M158 -250v1667q0 51 27.5 79t78.5 28h277q39 0 61 -25.5t22 -73.5t-22 -73t-61 -25h-136v-1487h136q39 0 61 -25t22 -73t-22 -73t-61 -25h-277q-51 0 -78.5 27.5t-27.5 78.5z" />
<glyph unicode="\" horiz-adv-x="882" d="M60 1382q0 25 12 45t31 34.5t43.5 22.5t48.5 8t41 -7t29 -19t20 -29t16 -38l567 -1553q8 -23 11.5 -36.5t3.5 -27.5q0 -25 -12 -45t-31 -34.5t-43 -22.5t-48 -8t-41 7t-29 19t-20.5 29t-15.5 38l-567 1553q-8 23 -12 36.5t-4 27.5z" />
<glyph unicode="]" horiz-adv-x="675" d="M51 -258q0 48 22.5 73t61.5 25h135v1487h-135q-39 0 -61.5 25t-22.5 73t22.5 73.5t61.5 25.5h276q51 0 79 -28t28 -79v-1667q0 -51 -28 -78.5t-79 -27.5h-276q-39 0 -61.5 25t-22.5 73z" />
<glyph unicode="^" d="M152 803q0 17 6 33.5t20 39.5l275 443q27 42 59 61t74 19q41 0 73 -18.5t59 -61.5l270 -436q14 -22 21 -39t7 -37q0 -23 -10 -42.5t-26 -33.5t-37.5 -22.5t-43.5 -8.5q-32 1 -55 18t-42 46l-223 355l-223 -354q-18 -29 -40.5 -47t-55.5 -18q-21 0 -40.5 8t-34.5 21.5 t-24 32.5t-9 41z" />
<glyph unicode="_" d="M0 -409q0 52 24.5 78.5t66.5 26.5h986q42 0 66.5 -26.5t24.5 -78.5q0 -51 -24.5 -77t-66.5 -26h-986q-42 0 -66.5 26t-24.5 77z" />
<glyph unicode="`" horiz-adv-x="1024" d="M309 1420q0 25 11.5 48t30.5 41t42.5 29t46.5 11q12 0 21.5 -2.5t18.5 -8t18 -14t18 -20.5l174 -216q12 -15 21 -28t9 -31q0 -17 -7 -33t-20 -29t-30 -20.5t-36 -7.5q-14 0 -28 5.5t-31 19.5l-208 179q-9 7 -18 15t-16.5 17t-12 20t-4.5 25z" />
<glyph unicode="a" horiz-adv-x="1126" d="M87 292q0 72 32 127t90 91.5t140 55t183 18.5q42 0 75.5 -3t57.5 -6q28 -4 50 -9v83q0 48 -11 82t-35.5 55.5t-65 32t-98.5 10.5q-62 0 -105.5 -9t-75.5 -20l-56 -21q-23 -9 -44 -9q-36 0 -59.5 23t-23.5 67q0 23 7 40t24 34q16 16 51.5 34t86 33t115.5 25t141 10 q209 0 314 -90.5t105 -263.5v-327q0 -68 5.5 -110t11.5 -70t11.5 -46.5t5.5 -39.5t-8 -39t-23 -31.5t-37.5 -21t-51.5 -7.5q-31 0 -55.5 9.5t-43 26.5t-31 40.5t-20.5 51.5h-3q-31 -39 -75 -69q-38 -26 -95.5 -47t-135.5 -21q-83 0 -148.5 23.5t-111 65t-69.5 98.5t-24 124z M362 301q0 -26 10 -48t29 -38t47 -25.5t65 -9.5q48 0 85.5 17t63.5 37q30 24 53 54v104q-20 5 -44 9q-21 4 -49 7t-63 3q-100 0 -148.5 -28t-48.5 -82z" />
<glyph unicode="b" horiz-adv-x="1204" d="M147 183v1179q0 57 33.5 88.5t102.5 31.5t102.5 -31.5t33.5 -88.5v-301q0 -39 -2 -75.5t-7 -78.5h3q28 36 70 64q18 12 40.5 23.5t49.5 21t59.5 15t69.5 5.5q94 0 170.5 -31.5t131.5 -94t85 -156t30 -218.5q0 -131 -38 -234.5t-110.5 -175t-178.5 -109t-242 -37.5 q-79 0 -140.5 9t-106.5 23t-74 29.5t-42 29.5q-10 10 -17.5 20.5t-12.5 23.5t-7.5 29.5t-2.5 38.5zM419 223q16 -10 39 -18q20 -7 48.5 -12.5t67.5 -5.5q60 0 109.5 20.5t84.5 61.5t54.5 103t19.5 145q0 82 -15 139.5t-42 93.5t-65.5 52.5t-85.5 16.5q-27 0 -50.5 -6.5 t-44 -16.5t-37.5 -23.5t-30 -26.5q-32 -33 -53 -73v-450z" />
<glyph unicode="c" horiz-adv-x="940" d="M84 470q0 131 38.5 236t109 178.5t168.5 112.5t217 39q46 0 83 -6.5t65.5 -16t48 -21.5t30.5 -24q18 -17 26.5 -37.5t8.5 -50.5q0 -20 -6.5 -37t-17.5 -29.5t-27 -19.5t-35 -7q-20 0 -36 6l-36 13q-20 8 -46 14.5t-63 6.5q-52 0 -98 -21t-80 -62t-53.5 -102.5 t-19.5 -142.5q0 -74 20 -131t55 -96t84 -59.5t107 -20.5q39 0 65.5 6t45.5 13l35 13q16 6 32 6q18 0 33 -7t25 -19t15.5 -27.5t5.5 -32.5q0 -26 -9 -46t-26 -38q-15 -15 -39.5 -29.5t-59 -25.5t-79.5 -18t-100 -7q-111 0 -201 34.5t-153.5 98.5t-98 154.5t-34.5 202.5z" />
<glyph unicode="d" horiz-adv-x="1204" d="M84 481q0 131 38 234.5t110.5 175t178.5 109t243 37.5q29 0 53 -2.5t41 -5.5q20 -4 37 -8l3 1q-3 51 -3 108v232q0 57 33.5 88.5t102.5 31.5t102.5 -31.5t33.5 -88.5v-1259q0 -55 -29 -84t-84 -29q-27 0 -47.5 6.5t-35 19t-23.5 30.5t-13 41l-9 50h-3q-30 -44 -74 -78 q-38 -29 -96.5 -53.5t-140.5 -24.5q-94 0 -171 31.5t-132 94t-85 156t-30 218.5zM361 501q0 -83 15 -140.5t42.5 -93.5t66 -52.5t85.5 -16.5q27 0 50.5 6t43.5 16.5t36.5 23.5t30.5 27q32 32 54 73v452q-17 9 -40 16q-20 6 -49 11t-67 5q-60 0 -109 -20.5t-84.5 -61.5 t-55 -102t-19.5 -143z" />
<glyph unicode="e" horiz-adv-x="1102" d="M84 475q0 133 37.5 237.5t104.5 176.5t160.5 110t205.5 38q96 0 174 -30t133 -86.5t85 -137.5t30 -184q0 -75 -34.5 -111t-98.5 -36h-526v-2q6 -62 28 -110t58.5 -81t87.5 -50t114 -17q52 0 89.5 7t65.5 15l49 16q22 7 41 7t34 -7t25.5 -18.5t16 -26.5t5.5 -32 q0 -25 -8 -43.5t-26 -36.5q-15 -15 -44 -31.5t-71.5 -30t-99 -22.5t-125.5 -9q-119 0 -214 34.5t-161 99t-101 156t-35 205.5zM358 626h403q-13 112 -60.5 165t-134.5 53q-36 0 -69 -12.5t-60.5 -39t-47.5 -67.5t-31 -99z" />
<glyph unicode="f" horiz-adv-x="706" d="M25 916q0 49 24.5 75t64.5 26h79v86q0 91 26.5 163.5t76 123t120 77t158.5 26.5q66 0 108.5 -15t62.5 -35q16 -16 24 -35t8 -50q0 -22 -6 -39t-16.5 -29t-24.5 -18t-30 -6q-12 0 -23 3t-23.5 7t-28 7t-37.5 3q-62 0 -92.5 -41t-30.5 -132v-96h136q40 0 64.5 -26t24.5 -75 q0 -50 -24.5 -76t-64.5 -26h-136v-701q0 -57 -33.5 -88.5t-102.5 -31.5t-102.5 31.5t-33.5 88.5v701h-79q-40 0 -64.5 26t-24.5 76z" />
<glyph unicode="g" horiz-adv-x="1088" d="M49 -192q0 66 24.5 113.5t54.5 79.5q34 37 79 61q-35 31 -53.5 70.5t-18.5 86.5q0 44 16 79t36 60q23 29 53 52q-62 48 -94.5 112.5t-32.5 139.5q0 81 29.5 149.5t86.5 118.5t141 78t194 28q45 0 85.5 -6.5t77.5 -18.5l114 139q27 33 47.5 46t48.5 13q21 0 41 -8.5 t35 -22.5t24.5 -33.5t9.5 -40.5q0 -26 -15.5 -46.5t-46.5 -49.5l-94 -88q48 -45 73 -103t25 -123q0 -81 -29.5 -150t-86.5 -118.5t-141 -77.5t-193 -28q-33 0 -63.5 3.5t-57.5 11.5q-12 -11 -22 -23q-8 -11 -14.5 -25t-6.5 -31q0 -20 8 -36t27.5 -27t53.5 -17t86 -6h124 q102 0 176.5 -20t123 -57.5t72 -90t23.5 -118.5q0 -77 -35 -145.5t-104 -119.5t-172 -81t-238 -30q-126 0 -215.5 24t-146 65t-83 95.5t-26.5 115.5zM322 -153q0 -31 13 -58t40 -46.5t68.5 -31t99.5 -11.5q67 0 116 12.5t81 34t48 50t16 60.5q0 27 -9.5 48.5t-30.5 37.5 t-55 24.5t-83 8.5h-104q-35 0 -65.5 3t-60.5 10q-21 -17 -37 -38q-14 -18 -25.5 -44.5t-11.5 -59.5zM373 680q0 -39 12.5 -71t35.5 -54.5t56.5 -34.5t75.5 -12t74.5 12t55.5 34t35 53t12 69q0 39 -12.5 70.5t-35.5 54t-57 35t-76 12.5q-41 0 -74 -12t-55.5 -34t-34.5 -53 t-12 -69z" />
<glyph unicode="h" horiz-adv-x="1225" d="M147 113v1249q0 57 33.5 88.5t102.5 31.5t102.5 -31.5t33.5 -88.5v-301q0 -39 -2 -75.5t-7 -78.5h3q29 36 71 64q18 12 40.5 23.5t50 21t59.5 15t70 5.5q88 0 159 -27t121 -80t76.5 -130.5t26.5 -178.5v-507q0 -57 -33.5 -88.5t-102.5 -31.5t-102.5 31.5t-33.5 88.5v475 q0 61 -12.5 105t-36 72t-57.5 41t-77 13q-27 0 -50 -6.5t-43.5 -16.5t-37 -23.5t-29.5 -26.5q-32 -33 -53 -73v-560q0 -57 -33.5 -88.5t-102.5 -31.5t-102.5 31.5t-33.5 88.5z" />
<glyph unicode="i" horiz-adv-x="565" d="M120 1317q0 33 12 61.5t33.5 49.5t52 33t67.5 12q35 0 64.5 -12t51 -32.5t33.5 -48t12 -59.5q0 -33 -12 -61.5t-34 -49.5t-52 -33t-67 -12q-35 0 -64.5 12t-51 32.5t-33.5 48t-12 59.5zM147 113v791q0 57 33.5 88.5t102.5 31.5t102.5 -31.5t33.5 -88.5v-791 q0 -57 -33.5 -88.5t-102.5 -31.5t-102.5 31.5t-33.5 88.5z" />
<glyph unicode="j" horiz-adv-x="568" d="M-53 -380q0 26 11 46t33 37q39 28 68.5 56t49.5 64t30.5 85t10.5 118v878q0 57 33 88.5t102 31.5t102.5 -31.5t33.5 -88.5v-891q0 -73 -10 -132.5t-28 -107t-42 -84t-52 -64.5q-50 -50 -107 -77.5t-116 -27.5q-27 0 -49 7t-37.5 20.5t-24 31.5t-8.5 41zM122 1317 q0 33 12 61.5t33.5 49.5t52 33t67.5 12q36 0 65.5 -12t51 -32.5t33.5 -48t12 -59.5q0 -33 -12 -61.5t-34 -49.5t-52.5 -33t-67.5 -12q-35 0 -64.5 12t-51 32.5t-33.5 48t-12 59.5z" />
<glyph unicode="k" horiz-adv-x="1076" d="M147 113v1249q0 57 33.5 88.5t102.5 31.5t102.5 -31.5t33.5 -88.5v-773l330 362l23 25l18 18q17 16 37.5 24.5t46.5 8.5q27 0 52 -10.5t44 -28t30.5 -40.5t11.5 -47q0 -20 -9.5 -41.5t-33.5 -45.5l-260 -253l282 -349q17 -20 27 -41.5t10 -46.5q0 -29 -13.5 -53.5 t-34.5 -42.5t-47.5 -28t-53.5 -10q-26 0 -47 9.5t-38 26.5q-11 11 -19.5 21.5t-19.5 25.5l-336 450v-410q0 -57 -33.5 -88.5t-102.5 -31.5t-102.5 31.5t-33.5 88.5z" />
<glyph unicode="l" horiz-adv-x="613" d="M143 261v1101q0 57 33.5 88.5t102.5 31.5t102.5 -31.5t33.5 -88.5v-1029q0 -39 5 -65t14.5 -41t22.5 -21t29 -6q14 0 25 1.5t22 1.5q13 0 25 -5t21 -15t14.5 -24.5t5.5 -33.5q0 -29 -8.5 -49t-23.5 -35q-10 -10 -24 -19t-33.5 -16.5t-46.5 -12t-62 -4.5 q-127 0 -192.5 67.5t-65.5 204.5z" />
<glyph unicode="m" horiz-adv-x="1863" d="M147 113v801q0 55 29 84t84 29q27 0 47.5 -6.5t35.5 -19t24 -30.5t12 -40l8 -51h4q29 44 72 78q18 15 41.5 29t52.5 25t63.5 17.5t75.5 6.5q115 0 195 -46t125 -128q33 48 81 87q21 16 46.5 31.5t57 28t68.5 20t80 7.5q85 0 154.5 -27t118.5 -80t75.5 -130.5t26.5 -178.5 v-507q0 -57 -33.5 -88.5t-102.5 -31.5t-102.5 31.5t-33.5 88.5v475q0 61 -12 105t-35 72t-55.5 41t-72.5 13q-26 0 -48.5 -6.5t-42 -17t-36 -24.5t-29.5 -28q-31 -33 -53 -75q0 -11 1.5 -37t1.5 -57v-461q0 -57 -33 -88.5t-102 -31.5t-102.5 31.5t-33.5 88.5v475 q0 61 -12.5 105t-35 72t-55.5 41t-73 13q-25 0 -47.5 -6.5t-41.5 -16.5t-35 -23.5t-29 -26.5q-31 -33 -52 -73v-560q0 -57 -33.5 -88.5t-102.5 -31.5t-102.5 31.5t-33.5 88.5z" />
<glyph unicode="n" horiz-adv-x="1225" d="M147 113v801q0 55 29 84t84 29q27 0 47.5 -6.5t35.5 -19t24 -30.5t12 -40l8 -51h4q29 44 73 78q19 15 43 29t54 25t65.5 17.5t77.5 6.5q88 0 159 -27t121 -80t76.5 -130.5t26.5 -178.5v-507q0 -57 -33.5 -88.5t-102.5 -31.5t-102.5 31.5t-33.5 88.5v475q0 61 -12.5 105 t-36 72t-57.5 41t-77 13q-27 0 -50 -6.5t-43.5 -16.5t-37 -23.5t-29.5 -26.5q-32 -33 -53 -73v-560q0 -57 -33.5 -88.5t-102.5 -31.5t-102.5 31.5t-33.5 88.5z" />
<glyph unicode="o" horiz-adv-x="1213" d="M84 491q0 128 37 229.5t106.5 172t168.5 107.5t223 37q115 0 208.5 -36.5t160.5 -103.5t103.5 -161.5t36.5 -209.5q0 -128 -37 -229.5t-106 -172t-168 -107.5t-223 -37q-115 0 -209 36.5t-161 103.5t-103.5 161t-36.5 210zM361 511q0 -80 19.5 -140t53 -100.5t78.5 -61 t97 -20.5q51 0 95.5 20t77.5 59.5t51.5 99t18.5 139.5q0 79 -19.5 139t-53 100.5t-78.5 61t-96 20.5q-52 0 -96.5 -20t-77.5 -59.5t-51.5 -99t-18.5 -138.5z" />
<glyph unicode="p" horiz-adv-x="1204" d="M147 -358v1272q0 55 29 84t84 29q27 0 47.5 -6.5t35.5 -19t24 -30.5t12 -40l8 -51h4q29 44 73 78q19 15 43 29t53.5 25t65 17.5t76.5 6.5q94 0 170.5 -31.5t131.5 -94t85 -156t30 -218.5q0 -131 -38 -234.5t-110.5 -175t-178.5 -109t-242 -37.5q-29 0 -53 2.5t-41 5.5 q-20 4 -37 8l-3 -1q2 -26 2.5 -52.5t0.5 -55.5v-245q0 -57 -33.5 -88.5t-102.5 -31.5t-102.5 31.5t-33.5 88.5zM419 219q17 -9 40 -16q20 -6 48.5 -11t66.5 -5q60 0 109.5 20.5t84.5 61.5t54.5 103t19.5 145q0 82 -15 139.5t-42 93.5t-65.5 52.5t-85.5 16.5 q-27 0 -50.5 -6.5t-44 -16.5t-37.5 -23.5t-30 -26.5q-32 -33 -53 -73v-454z" />
<glyph unicode="q" horiz-adv-x="1204" d="M84 481q0 131 38 234.5t110.5 175t178.5 109t243 37.5q79 0 140.5 -9t106.5 -23t73.5 -30t42.5 -29q10 -10 17.5 -20.5t12.5 -23.5t7.5 -29.5t2.5 -38.5v-1192q0 -57 -33.5 -88.5t-102.5 -31.5t-102.5 31.5t-33.5 88.5v314q0 39 2 75.5t7 78.5h-3q-29 -37 -70 -65 q-36 -24 -90 -44t-129 -20q-94 0 -171 31.5t-132 94t-85 156t-30 218.5zM361 501q0 -83 15 -140.5t42.5 -93.5t66 -52.5t85.5 -16.5q27 0 50.5 6t43.5 16.5t36.5 23.5t30.5 27q32 32 54 73v452q-16 9 -39 16q-20 6 -49 11t-68 5q-60 0 -109 -20.5t-84.5 -61.5t-55 -102 t-19.5 -143z" />
<glyph unicode="r" horiz-adv-x="763" d="M147 113v801q0 55 29 84t84 29q27 0 47.5 -6.5t35 -19t23.5 -31t13 -41.5l13 -73h3q19 39 44 72.5t56 57.5t66.5 37.5t74.5 13.5q57 0 88 -31t31 -96q0 -76 -29 -117.5t-69 -41.5q-11 0 -20 2l-17 5l-18 5q-9 3 -21 3q-24 0 -47.5 -12.5t-44 -32.5t-38.5 -45.5t-32 -52.5 v-510q0 -57 -33.5 -88.5t-102.5 -31.5t-102.5 31.5t-33.5 88.5z" />
<glyph unicode="s" horiz-adv-x="952" d="M97 718q0 67 26.5 125.5t80 101t133 67t186.5 24.5q55 0 99 -6.5t76.5 -16.5t55 -22.5t34.5 -24.5q18 -18 25 -37.5t7 -45.5q0 -19 -6.5 -35t-17.5 -27t-27 -17.5t-34 -6.5q-20 0 -42 7l-48 14q-26 8 -59 14.5t-76 6.5q-40 0 -68 -7t-46 -19t-26 -28t-8 -35 q0 -32 22 -52.5t57.5 -36t81 -29t93 -29.5t93 -37.5t81 -55t57.5 -81t22 -114.5q0 -70 -28 -131t-83.5 -106t-140 -71t-196.5 -26q-64 0 -112 6.5t-83.5 17t-58.5 24t-37 27.5q-16 16 -24 35t-8 48q0 39 23.5 63.5t61.5 24.5q19 0 41 -7.5t51.5 -16.5t67.5 -16.5t91 -7.5 q45 0 77.5 8t52.5 21.5t29.5 32.5t9.5 41q0 33 -21.5 55t-57.5 38t-81.5 29.5t-92.5 30t-92.5 38t-81.5 54t-57.5 79t-21.5 112.5z" />
<glyph unicode="t" horiz-adv-x="754" d="M22 916q0 49 24.5 75t64.5 26h88l32 169q11 57 41.5 84t81.5 27q52 0 80 -28.5t28 -82.5v-169h169q40 0 64.5 -26t24.5 -75q0 -50 -24.5 -76t-64.5 -26h-169v-481q0 -71 24 -101t74 -30q18 0 31.5 2t24.5 5t20 5t19 2q16 0 29.5 -6t23 -16.5t15 -25.5t5.5 -33 q0 -28 -9 -47.5t-26 -36.5q-10 -10 -27.5 -21t-43 -20t-59.5 -15t-77 -6q-152 0 -224 72.5t-72 221.5v531h-79q-40 0 -64.5 26t-24.5 76z" />
<glyph unicode="u" horiz-adv-x="1221" d="M139 397v507q0 57 33 88.5t103 31.5q69 0 102.5 -31.5t33.5 -88.5v-475q0 -122 47.5 -176.5t130.5 -54.5q27 0 50 6t43 16.5t36.5 23.5t30.5 27q31 32 53 73v560q0 57 33.5 88.5t102.5 31.5q70 0 103 -31.5t33 -88.5v-801q0 -55 -29 -84t-84 -29q-27 0 -47.5 6.5t-35 19 t-23.5 30.5t-13 41l-8 50h-4q-29 -44 -73 -78q-19 -15 -43 -29t-54 -25t-65.5 -17.5t-77.5 -6.5q-87 0 -156.5 27t-119 80t-76 130.5t-26.5 178.5z" />
<glyph unicode="v" horiz-adv-x="1061" d="M43 902q0 30 14 53t35.5 39t48.5 24.5t53 8.5q29 0 49.5 -8.5t34.5 -22.5q13 -13 21.5 -34.5t20.5 -56.5l176 -511q10 -29 17.5 -54.5t12.5 -45.5q6 -23 10 -42h4l11 43q5 20 12.5 45t17.5 54l172 516q10 30 18 51t22 35t34.5 22.5t48.5 8.5q25 0 50.5 -7.5t46 -22.5 t33.5 -36.5t13 -48.5q0 -14 -3.5 -29t-14.5 -46l-242 -653q-20 -53 -37 -86.5t-37 -53.5q-12 -12 -26.5 -21.5t-33.5 -16t-42.5 -10t-53.5 -3.5q-29 0 -52.5 3.5t-42.5 9.5t-33.5 15.5t-26.5 21.5q-20 20 -37.5 54.5t-36.5 85.5l-237 637q-13 35 -16.5 51.5t-3.5 30.5z" />
<glyph unicode="w" horiz-adv-x="1683" d="M64 909q0 29 14.5 51t36 37t48 22.5t50.5 7.5q29 0 51.5 -8.5t36.5 -22.5q15 -15 23 -39.5t18 -61.5l134 -502q8 -33 14 -61l10 -48l7 -43h4q3 20 7 44l10 48q6 28 15 60l126 476q11 42 26 72t36.5 49t50.5 28t69 9t69 -9t50 -28t36 -49t26 -72l127 -476l15 -60l11 -48 q5 -24 8 -44h4q4 20 8 44l10 48q6 28 14 60l125 503q9 35 16.5 60t22.5 40q14 14 36 22.5t51 8.5q25 0 50 -7t44.5 -21t32 -34.5t12.5 -47.5q0 -11 -2.5 -26t-12.5 -51l-195 -667q-14 -48 -29 -80t-35 -52q-25 -25 -60 -36.5t-86 -11.5q-49 0 -84.5 11t-59.5 35 q-21 21 -35 56t-27 83l-115 415q-10 34 -16 64t-10 53q-4 26 -8 49h-4q-3 -23 -7 -49q-4 -23 -10.5 -53t-15.5 -64l-116 -415q-13 -46 -27 -81.5t-35 -56.5q-24 -24 -59 -35.5t-86 -11.5q-53 0 -89 12.5t-59 35.5q-20 20 -34.5 51.5t-28.5 78.5l-194 659q-11 36 -13 52 t-2 27z" />
<glyph unicode="x" horiz-adv-x="1080" d="M62 122q0 16 5 29.5t13.5 26.5t19.5 26l23 26l245 282l-219 250l-28 31q-12 15 -21.5 28.5t-15 27.5t-5.5 30q0 32 14.5 59t37 47t49.5 31t52 11q20 0 36.5 -6t28.5 -17q4 -3 8 -6.5t10 -10t14 -17.5l22 -26l210 -255l185 252l18 24l12 16q5 7 8 10l7 7q14 14 31.5 21.5 t38.5 7.5q24 0 49 -10t45.5 -28t33.5 -42t13 -52q0 -16 -5 -29.5t-13 -26t-20 -25.5l-23 -26l-229 -262l237 -271q14 -17 27 -31t22.5 -28t15 -28t5.5 -30q0 -32 -14.5 -59t-37 -47t-49.5 -31t-52 -11q-20 0 -37 6.5t-30 17.5q-4 3 -7.5 7t-9.5 10t-14 16l-22 26l-227 277 l-201 -274l-18 -25l-13 -16q-5 -6 -8 -9.5t-6 -6.5q-14 -14 -32 -21.5t-39 -7.5q-24 0 -48.5 10t-45 28t-33.5 42t-13 52z" />
<glyph unicode="y" horiz-adv-x="1061" d="M-59 -353q0 42 25 66.5t68 24.5q14 0 25.5 -1t22 -2.5t21.5 -2.5t25 -1q40 0 75.5 14t66.5 41t58.5 67.5t52.5 94.5l-318 872q-13 35 -16.5 51.5t-3.5 30.5q0 30 14 53t36 39t48.5 24.5t52.5 8.5q29 0 48.5 -9t33.5 -24q14 -14 21.5 -34t19.5 -55l176 -527q10 -29 18 -57 t13 -50l11 -49h4q6 23 12 49q5 22 12.5 50t17.5 57l173 533q10 30 18 50.5t21 34.5q14 15 34.5 23t48.5 8q25 0 50.5 -7.5t46 -22t33.5 -36t13 -49.5q0 -14 -3.5 -29t-14.5 -46l-259 -700q-61 -164 -126 -281.5t-139 -192.5t-160.5 -110.5t-190.5 -35.5q-53 0 -91.5 12.5 t-60.5 34.5q-33 33 -33 83z" />
<glyph unicode="z" horiz-adv-x="971" d="M80 133q0 32 14 63.5t46 73.5l406 544h-352q-40 0 -64.5 26t-24.5 76q0 49 24.5 75t64.5 26h533q79 0 117 -35.5t38 -97.5q0 -32 -14.5 -63.5t-46.5 -73.5l-406 -544h400q40 0 64.5 -25.5t24.5 -76.5q0 -49 -24.5 -75t-64.5 -26h-580q-79 0 -117 35t-38 98z" />
<glyph unicode="{" horiz-adv-x="729" d="M52 599q0 29 8 50t22 35q10 10 22 15l25 9q14 5 29 12.5t31 23.5q15 15 24 39t14.5 53.5t7 62t1.5 65.5v213q0 88 21.5 154t61.5 110.5t97.5 66.5t129.5 22h4q36 0 61 -7t41 -20.5t23.5 -32t7.5 -40.5q0 -20 -6 -36.5t-17 -28.5t-28 -19t-38 -7h-9q-26 0 -45 -6.5 t-31 -23t-18 -44.5t-6 -71v-214q0 -86 -8.5 -145t-26 -101t-45 -70t-65.5 -50v-2q38 -23 65.5 -51t45 -70.5t26 -104t8.5 -149.5v-250q0 -47 6.5 -78t20 -49t33 -25.5t46.5 -7.5h9q42 0 62.5 -23t20.5 -61q0 -24 -8.5 -43.5t-27 -33.5t-46.5 -21.5t-67 -7.5h-4 q-71 0 -125.5 20t-92 61t-57 104.5t-19.5 149.5v262q0 33 -1.5 65.5t-7 62t-14.5 53t-24 38.5q-16 16 -31 24t-28.5 12.5t-25.5 9t-22 14.5q-14 14 -22 35.5t-8 50.5z" />
<glyph unicode="|" horiz-adv-x="650" d="M208 -376v1756q0 59 30 87t86 28q57 0 87.5 -28t30.5 -87v-1756q0 -59 -30.5 -87.5t-87.5 -28.5q-56 0 -86 28.5t-30 87.5z" />
<glyph unicode="}" horiz-adv-x="729" d="M46 -263q0 19 6 35.5t17 28.5t27.5 19t37.5 7h9q27 0 46 6.5t31 23t18 44.5t6 71v245q0 85 8.5 144.5t26.5 101.5t45.5 69.5t65.5 50.5v2q-38 23 -65.5 51t-45.5 71t-26.5 104t-8.5 150v219q0 47 -6.5 78t-20 49t-33.5 25.5t-47 7.5h-9q-42 0 -62 22.5t-20 60.5 q0 24 8.5 43.5t27 34t46.5 22t67 7.5h4q71 0 125.5 -20t92 -61.5t57 -104.5t19.5 -149v-231q0 -33 1.5 -65.5t7 -62t14.5 -53.5t24 -39q16 -16 31 -23.5t29 -12.5l25 -10q12 -4 22 -14q29 -29 29 -85q0 -29 -7.5 -50.5t-21.5 -35.5q-10 -10 -22 -14.5t-25.5 -9t-28.5 -12.5 t-31 -24q-15 -15 -24 -38.5t-14.5 -53t-7 -62t-1.5 -65.5v-244q0 -89 -21.5 -155t-61.5 -110t-97.5 -66t-129.5 -22h-4q-36 0 -61 7t-41 20.5t-23.5 31.5t-7.5 41z" />
<glyph unicode="~" d="M127 527q0 22 10 45q18 40 46.5 73.5t65.5 57.5t80.5 37.5t91.5 13.5q41 0 75 -9.5t63 -24t53.5 -31t48.5 -31t47 -24t49 -9.5q38 0 68 22t53 56q14 17 31.5 25.5t37.5 8.5q18 0 35 -7t29.5 -19t20.5 -29t8 -37q0 -11 -2.5 -22.5t-7.5 -23.5q-18 -40 -46.5 -73.5 t-65.5 -57.5t-80.5 -37.5t-91.5 -13.5q-42 0 -75.5 9.5t-62.5 24t-54 31.5l-48 31q-23 14 -46.5 23.5t-49.5 9.5q-38 0 -68 -21.5t-53 -55.5q-14 -17 -31.5 -26t-37.5 -9q-18 0 -35 7t-29.5 19.5t-20.5 29.5t-8 37z" />
<glyph unicode="&#xa1;" horiz-adv-x="650" d="M154 923q0 36 13 66t36 52.5t54.5 35t69.5 12.5q37 0 68.5 -12t53.5 -33.5t34.5 -51t12.5 -65.5t-13 -66t-36.5 -52.5t-55 -35t-68.5 -12.5q-38 0 -69 12t-53 33.5t-34.5 51t-12.5 65.5zM176 -282q0 14 0.5 31t1 38t1.5 49l24 715q2 43 32 68.5t90 25.5t90 -25.5 t32 -68.5l24 -715q1 -28 1.5 -49t1 -38t0.5 -31v-25q0 -23 -8 -43t-26 -34.5t-46.5 -23t-68.5 -8.5q-41 0 -69.5 8.5t-46 23t-25.5 34.5t-8 43v25z" />
<glyph unicode="&#xa2;" horiz-adv-x="1032" d="M105 589q0 99 27 182.5t77 149t122.5 110t164.5 65.5v214q0 45 24 67t69 22t69 -22t24 -67v-197q45 -2 81.5 -10t64.5 -18.5t47 -22.5t30 -22q18 -18 26.5 -38.5t8.5 -50.5q0 -40 -23.5 -66.5t-62.5 -26.5q-20 0 -40 7l-43 16q-23 9 -53 16t-70 7q-60 0 -109 -19.5 t-84 -57t-54 -92.5t-19 -125q0 -62 19 -112.5t55 -85.5t88 -54t118 -19q43 0 73 6.5t52 14.5l41 15q18 6 38 6q18 0 33 -7t25 -19t15.5 -27.5t5.5 -32.5q0 -48 -35 -83q-13 -13 -33.5 -25.5t-49 -24t-65 -20t-80.5 -12.5v-202q0 -45 -24 -67t-69 -22t-69.5 22t-24.5 67v207 q-93 15 -165.5 53.5t-122.5 97t-76 135.5t-26 168z" />
<glyph unicode="&#xa3;" horiz-adv-x="1097" d="M100 704q0 48 24 74.5t67 26.5h41l-17 73q-9 40 -9 90q0 87 34 164t98.5 134t157 90t209.5 33q48 0 87 -6.5t68.5 -16.5t50 -22.5t31.5 -23.5q18 -18 27 -38.5t9 -49.5q0 -20 -7 -36.5t-19 -29t-28.5 -19.5t-35.5 -7q-20 0 -38 6l-38 14q-21 8 -48 14.5t-64 6.5 q-56 0 -98 -14t-70.5 -40t-43 -63t-14.5 -82q0 -26 2.5 -48t7 -43.5t9.5 -42.5t11 -43h302q44 0 68 -26.5t24 -74.5t-24 -74t-68 -26h-265q9 -110 -20.5 -203t-94.5 -179l2 -3h510q43 0 67.5 -29t24.5 -80t-24.5 -80.5t-67.5 -29.5h-679q-69 0 -107 37t-38 98q0 20 3 37.5 t10 34t17 33t24 36.5q21 29 42 63t36.5 74.5t23 87.5t0.5 103h-79q-43 0 -67 26t-24 74z" />
<glyph unicode="&#xa4;" horiz-adv-x="1077" d="M88 288q0 18 8 33t23 31l102 107q-35 47 -54.5 107t-19.5 134q0 75 19.5 137.5t57.5 110.5l-98 103q-13 14 -22.5 29t-9.5 35t9.5 38.5t25 33t34.5 23.5t39 9q23 0 38.5 -11t32.5 -34l87 -123q41 19 86.5 28.5t99.5 9.5q105 0 179 -37l91 127q17 24 33.5 34t38.5 10 q19 0 37 -8.5t32.5 -22t23 -31t8.5 -35.5t-8 -33t-24 -31l-102 -108q36 -47 55 -106.5t19 -131.5q0 -76 -19.5 -138.5t-56.5 -110.5l98 -104q13 -14 22 -28.5t9 -34.5t-9.5 -39t-24.5 -33.5t-34.5 -23.5t-39.5 -9q-22 0 -38 11.5t-32 34.5l-87 122q-39 -19 -86 -28.5 t-101 -9.5q-52 0 -96 9t-83 27l-90 -125q-17 -24 -33.5 -34.5t-38.5 -10.5q-19 0 -37 8.5t-32.5 22t-23 31t-8.5 35.5zM345 710q0 -55 14.5 -97.5t40.5 -72t62 -44.5t78 -15t77 15t60.5 43.5t40 70.5t14.5 96t-14.5 96.5t-40.5 72t-62 44.5t-79 15q-42 0 -77 -15 t-60.5 -43.5t-39.5 -70t-14 -95.5z" />
<glyph unicode="&#xa5;" horiz-adv-x="1247" d="M105 1260q0 28 12 51.5t32 40.5t45 26.5t51 9.5t45.5 -9t31.5 -21q14 -14 26 -34l26 -46l207 -366q11 -20 21 -39l16 -34l15 -33h4l15 34l17 35q9 20 20 40l196 364q17 34 27 50.5t22 28.5q30 30 75 30q25 0 49 -9t42.5 -25.5t30 -38.5t11.5 -47q0 -26 -12 -50.5 t-32 -56.5l-305 -501h176q42 0 62 -20.5t20 -58.5t-20 -59t-62 -21h-213v-124h213q42 0 62 -21t20 -59t-20 -58.5t-62 -20.5h-212v-107q0 -57 -34 -87.5t-103 -30.5t-103 30.5t-34 87.5v107h-211q-42 0 -62 20.5t-20 58.5t20 59t62 21h213v124h-213q-42 0 -62 21t-20 59 t20 58.5t62 20.5h176l-299 491q-20 33 -32 56.5t-12 52.5z" />
<glyph unicode="&#xa6;" horiz-adv-x="650" d="M208 265q0 60 30 88t86 28q57 0 87.5 -28t30.5 -88v-641q0 -59 -30.5 -87.5t-87.5 -28.5q-56 0 -86 28.5t-30 87.5v641zM208 752v628q0 59 30 87t86 28q57 0 87.5 -28t30.5 -87v-628q0 -59 -30.5 -87t-87.5 -28q-56 0 -86 28t-30 87z" />
<glyph unicode="&#xa7;" horiz-adv-x="1147" d="M114 539q0 110 52 185.5t147 128.5q-42 39 -68 89.5t-26 120.5q0 75 28 136.5t81.5 106t132 69t179.5 24.5q54 0 97 -6.5t75 -16.5t54.5 -23t34.5 -25q17 -17 24.5 -36t7.5 -44q0 -18 -6.5 -34t-17.5 -27t-27 -17.5t-34 -6.5q-20 0 -41 7l-47 14q-27 8 -59 14.5t-74 6.5 q-78 0 -111.5 -29.5t-33.5 -80.5q0 -38 23.5 -66.5t62.5 -53t88 -46.5l102 -48q51 -26 100.5 -57.5t88.5 -72.5t62.5 -94.5t23.5 -124.5q0 -109 -52 -184.5t-146 -127.5q42 -40 67.5 -91t25.5 -121q0 -75 -28 -136.5t-82 -106t-132.5 -69t-178.5 -24.5q-54 0 -97 6.5 t-75 16.5t-54.5 23t-34.5 25q-18 17 -25.5 36t-7.5 45q0 18 6.5 33.5t18 26.5t27.5 17.5t34 6.5q19 0 41 -6l48 -15q26 -8 58 -14.5t74 -6.5q77 0 111 29.5t34 80.5q0 37 -23.5 66t-62.5 53.5t-89 46.5l-100 48q-52 26 -101.5 57.5t-88.5 72.5t-62.5 94.5t-23.5 124.5z M381 571q0 -45 23 -78t60 -60t84 -50l97 -49q58 29 89 68.5t31 96.5q0 45 -23 78t-60 60t-85 51l-96 48q-57 -29 -88.5 -68.5t-31.5 -96.5z" />
<glyph unicode="&#xa8;" horiz-adv-x="1024" d="M146 1315q0 31 11.5 58.5t32 47.5t48 31.5t60.5 11.5t60.5 -11t47 -30t30.5 -46t11 -58q0 -32 -11.5 -59t-31.5 -47.5t-48 -32t-61 -11.5t-60 11t-47 30.5t-31 46t-11 58.5zM577 1315q0 31 11.5 58.5t32 47.5t48.5 31.5t61 11.5t60 -11t46.5 -30t30.5 -46t11 -58 q0 -32 -11.5 -59t-31.5 -47.5t-47.5 -32t-60.5 -11.5t-60.5 11t-47.5 30.5t-31 46t-11 58.5z" />
<glyph unicode="&#xa9;" horiz-adv-x="1618" d="M95 684q0 157 53 288.5t148 226t227 147.5t291 53t289.5 -51t224 -144t144.5 -223t51 -287t-53 -288.5t-148 -226t-227 -147t-291 -52.5t-289.5 51t-223.5 144t-144.5 222.5t-51.5 286.5zM272 689q0 -125 39.5 -227.5t110.5 -175t169.5 -112t217.5 -39.5t218 39.5 t170 112t110.5 174.5t39.5 228t-39.5 228t-110.5 175t-170 112.5t-218 39.5t-217.5 -39.5t-169.5 -112.5t-110.5 -175t-39.5 -228zM463 666q0 99 28 177t78.5 132t121 82.5t155.5 28.5q36 0 66 -5t53.5 -13.5t40.5 -18.5t26 -19q14 -14 20 -28t6 -33q0 -29 -17 -47.5 t-44 -18.5q-14 0 -26.5 6t-29 12.5t-39 12.5t-56.5 6q-41 0 -76 -16t-61 -48t-41 -79.5t-15 -111.5q0 -59 14.5 -103.5t40.5 -74.5t63.5 -45t82.5 -15q33 0 56 5.5t39 11.5l30 12q13 6 26 6q25 0 40 -17.5t15 -44.5q0 -34 -25 -59q-11 -11 -29.5 -22t-45 -20t-61 -14.5 t-75.5 -5.5q-83 0 -149.5 25.5t-113.5 73t-72.5 115.5t-25.5 153z" />
<glyph unicode="&#xaa;" horiz-adv-x="858" d="M81 511q0 38 20.5 58.5t57.5 20.5h548q37 0 57.5 -20.5t20.5 -58.5q0 -37 -20.5 -57.5t-57.5 -20.5h-548q-37 0 -57.5 20.5t-20.5 57.5zM111 896q0 47 21.5 82.5t61 59.5t94.5 36.5t123 12.5q26 0 48 -2t38 -4q18 -3 33 -6v57q0 30 -7 51t-23 35t-42 20.5t-65 6.5 q-41 0 -70 -6t-51 -13l-37 -14q-16 -6 -30 -6q-25 0 -41.5 16.5t-16.5 46.5q0 16 5.5 28.5t16.5 23.5t35 23.5t58 22.5t78 16.5t96 6.5q143 0 213 -60t70 -177v-212q0 -45 4 -73.5t8.5 -47t8.5 -31t4 -27.5q0 -29 -22 -49.5t-64 -20.5q-43 0 -68 24.5t-36 60.5h-2 q-21 -26 -50 -45q-26 -17 -63.5 -31t-90.5 -14q-55 0 -99 16t-74.5 43.5t-47 66t-16.5 83.5zM305 904q0 -34 24 -56t72 -22q31 0 55 10.5t41 23.5q19 15 33 34v69q-12 3 -28 6l-32 5q-18 2 -40 2q-125 0 -125 -72z" />
<glyph unicode="&#xab;" horiz-adv-x="1239" d="M87 508q0 32 13 56t33 47l295 310q21 23 42 37.5t49 14.5q24 0 45 -8.5t37.5 -23.5t26 -35t9.5 -42t-10.5 -40t-26.5 -37l-237 -273l242 -280q18 -21 27 -38t9 -38q0 -23 -10 -43t-27 -35t-38.5 -24t-45.5 -9q-14 0 -25.5 3t-23 9.5t-22.5 16t-23 22.5l-292 308 q-21 22 -34 47t-13 55zM612 508q0 32 13 56t34 47l276 291q23 25 43.5 37.5t46.5 12.5q23 0 44 -8.5t37 -23t25.5 -34t9.5 -40.5q0 -26 -13 -45.5t-35 -45.5l-210 -241l225 -261q19 -22 28 -39t9 -37q0 -23 -10 -43t-27 -35t-38.5 -23.5t-44.5 -8.5q-14 0 -25.5 3t-22 9 t-21.5 15.5t-24 23.5l-273 288q-21 22 -34 47t-13 55z" />
<glyph unicode="&#xac;" d="M147 584q0 46 24.5 73t68.5 27h641q122 0 122 -123v-269q0 -60 -29 -88t-80 -28t-80.5 28t-29.5 88v192h-544q-44 0 -68.5 27t-24.5 73z" />
<glyph unicode="&#xad;" horiz-adv-x="937" d="M127 549q0 51 24.5 77.5t66.5 26.5h500q42 0 66.5 -26.5t24.5 -77.5q0 -52 -24.5 -79t-66.5 -27h-500q-42 0 -66.5 27t-24.5 79z" />
<glyph unicode="&#xae;" horiz-adv-x="981" d="M69 1083q0 90 31 165.5t87 130.5t134.5 85.5t173.5 30.5q94 0 171 -29.5t132 -83t84.5 -127.5t29.5 -164t-30.5 -165.5t-86.5 -130.5t-134.5 -85.5t-174.5 -30.5q-95 0 -171.5 29.5t-131.5 83t-84.5 127.5t-29.5 164zM176 1087q0 -71 22.5 -129.5t63.5 -99.5t99.5 -63.5 t129.5 -22.5t129 22.5t99.5 63.5t64 99.5t22.5 129.5t-22.5 129t-64 99.5t-99.5 64t-129 22.5t-129.5 -22.5t-99.5 -64t-63.5 -99.5t-22.5 -129zM337 924v328q0 22 12 33.5t34 11.5h105q91 0 132 -34t41 -88q0 -44 -22 -72.5t-56 -41.5q9 -26 21 -44t26 -32q13 -13 23 -21 l17 -14q8 -7 10.5 -14.5t2.5 -15.5q0 -17 -13.5 -29.5t-38.5 -12.5q-20 0 -38 8.5t-35 25.5q-20 20 -37 49.5t-33 78.5h-51v-116q0 -22 -12 -34t-38 -12t-38 12t-12 34zM437 1116h52q35 0 51.5 14.5t16.5 38.5q0 23 -16 36.5t-56 13.5h-48v-103z" />
<glyph unicode="&#xaf;" horiz-adv-x="1024" d="M166 1315q0 48 22 72t64 24h520q42 0 64 -24t22 -72q0 -47 -22 -71t-64 -24h-520q-42 0 -64 24t-22 71z" />
<glyph unicode="&#xb0;" horiz-adv-x="861" d="M105 1191q0 64 24 119.5t67 96.5t103.5 64.5t134.5 23.5t133.5 -22t101 -61.5t64 -94t22.5 -118.5t-24 -119t-67 -96t-104 -64.5t-134 -23.5q-74 0 -133.5 22t-101 61.5t-64 93.5t-22.5 118zM291 1195q0 -32 10.5 -58t29 -44.5t44 -29t55.5 -10.5t55.5 10.5t44 29 t29 44.5t10.5 58t-10.5 58t-29 45t-44 29t-55.5 10t-55.5 -10t-44 -29t-29 -45t-10.5 -58z" />
<glyph unicode="&#xb1;" horiz-adv-x="1167" d="M139 100q0 46 24.5 72.5t68.5 26.5h703q44 0 69 -26.5t25 -72.5t-25 -73t-68 -27h-704q-44 0 -68.5 27t-24.5 73zM144 764q0 46 25 72.5t68 26.5h237v229q0 59 29.5 87.5t80.5 28.5t80.5 -28.5t29.5 -87.5v-229h236q44 0 69 -26.5t25 -72.5q0 -47 -25 -73.5t-69 -26.5 h-236v-229q0 -59 -29.5 -87t-80.5 -28t-80.5 28t-29.5 87v229h-237q-43 0 -68 26.5t-25 73.5z" />
<glyph unicode="&#xb2;" horiz-adv-x="709" d="M53 729q0 31 12.5 55t35.5 46l128 117l71 67q30 29 48 52.5t26.5 44.5t8.5 43q0 36 -24 58t-77 22q-23 0 -41.5 -3.5t-33.5 -7.5l-29 -7q-14 -4 -27 -4q-27 0 -45 17.5t-18 46.5q0 18 7 32.5t18 25.5t32 21.5t50 18.5t65.5 13t79.5 5q69 0 120 -15.5t84.5 -43t50 -65 t16.5 -82.5q0 -44 -13 -81t-40 -73t-69.5 -75.5t-100.5 -87.5l-89 -74h269q32 0 51 -20.5t19 -62.5q0 -40 -19 -61t-51 -21h-409q-51 0 -78.5 27t-27.5 72z" />
<glyph unicode="&#xb3;" horiz-adv-x="710" d="M71 731q0 30 18.5 48.5t45.5 18.5q15 0 29 -5l30 -12q16 -6 38.5 -11t55.5 -5q61 0 90 24t29 61q0 20 -8.5 36t-30 27.5t-59 17.5t-95.5 6q-14 0 -22.5 2.5t-14.5 8.5q-11 10 -16 27.5t-5 35.5t5 35t16 28q6 6 14.5 8.5t22.5 2.5q49 0 81.5 6.5t51.5 17.5t26.5 27t7.5 34 q0 30 -23 49t-78 19q-24 0 -41.5 -3.5t-31.5 -7t-26.5 -7t-25.5 -3.5q-28 0 -45 17t-17 47q0 17 5.5 30.5t17.5 25.5q23 23 77 39t137 16q69 0 119.5 -14t83.5 -39.5t49 -60.5t16 -77q0 -58 -31.5 -99t-82.5 -66v-1q66 -17 104 -61.5t38 -119.5q0 -50 -21 -93t-62 -75.5 t-102 -51t-141 -18.5q-78 0 -129.5 15.5t-75.5 39.5q-11 11 -17.5 25t-6.5 35z" />
<glyph unicode="&#xb4;" horiz-adv-x="1024" d="M302 1229q0 18 9 31t21 28l174 216q19 24 36 34.5t40 10.5t46.5 -11t42 -29t30.5 -41t12 -48q0 -14 -4.5 -25t-12 -20t-16.5 -17t-18 -15l-208 -179q-17 -14 -31 -19.5t-28 -5.5q-20 0 -36.5 7.5t-29.5 20.5t-20 29t-7 33z" />
<glyph unicode="&#xb5;" horiz-adv-x="1229" d="M147 -358v1262q0 57 33 88.5t103 31.5q69 0 102.5 -31.5t33.5 -88.5v-475q0 -122 47.5 -176.5t130.5 -54.5q27 0 50 6t43 16.5t36.5 23.5t30.5 27q32 32 54 73v560q0 57 33 88.5t103 31.5q69 0 102.5 -31.5t33.5 -88.5v-801q0 -55 -29.5 -84t-84.5 -29q-27 0 -47.5 6.5 t-34.5 19t-23 30.5t-13 41l-9 50h-3q-27 -44 -66 -78q-33 -29 -84 -53.5t-119 -24.5q-45 0 -77.5 9t-53.5 20q-25 12 -42 29l-2 -2l16 -300q1 -12 1 -25l2 -27v-25q1 -12 1 -22q0 -60 -34.5 -88t-97.5 -28q-69 0 -102.5 31.5t-33.5 88.5z" />
<glyph unicode="&#xb6;" horiz-adv-x="1304" d="M119 924q0 110 31 194.5t96.5 142.5t167 87.5t242.5 29.5h346q60 0 91 -31.5t31 -91.5v-1474q0 -46 -24.5 -71t-75.5 -25q-52 0 -76.5 25t-24.5 71v1399h-176v-1399q0 -46 -24.5 -71t-76.5 -25t-76 25t-24 71v707q-102 0 -181.5 28.5t-134 83.5t-83 136.5t-28.5 187.5z " />
<glyph unicode="&#xb7;" horiz-adv-x="604" d="M132 546q0 37 13 69t36 55t54.5 36t68.5 13t68 -12.5t53 -34.5t34.5 -53t12.5 -68t-13 -68.5t-36 -54.5t-54.5 -36t-68.5 -13t-68 12.5t-53 34.5t-34.5 52.5t-12.5 67.5z" />
<glyph unicode="&#xb8;" horiz-adv-x="1024" d="M293 -408q0 27 16 44t45 17q14 0 29.5 -1.5t33.5 -1.5q36 0 59.5 6t37 16t19 23t5.5 27q0 26 -16.5 41t-58.5 15h-25q-26 0 -36.5 15t-2.5 46l39 161h155l-24 -90q40 -4 72.5 -16.5t56 -34t36.5 -52t13 -69.5q0 -47 -19.5 -89t-57.5 -73.5t-94.5 -49.5t-131.5 -18 q-43 0 -72 7t-46.5 18.5t-25 26.5t-7.5 32z" />
<glyph unicode="&#xb9;" horiz-adv-x="575" d="M38 1204q0 18 6 31t19 26q8 8 21.5 17t32.5 19.5t42 21.5l49 23q50 22 82 33t59 11q45 0 71 -24.5t26 -69.5v-576q0 -44 -27 -68.5t-81 -24.5t-81 24.5t-27 68.5v444l-61 -23q-14 -5 -27.5 -9t-25.5 -4q-35 0 -56.5 23.5t-21.5 56.5z" />
<glyph unicode="&#xba;" horiz-adv-x="905" d="M94 511q0 38 20.5 58.5t57.5 20.5h561q37 0 57.5 -20.5t20.5 -58.5q0 -37 -20.5 -57.5t-57.5 -20.5h-561q-37 0 -57.5 20.5t-20.5 57.5zM102 1026q0 85 24.5 153t71 114.5t113 71.5t150.5 25q78 0 141 -24.5t108 -69t69.5 -107.5t24.5 -140q0 -86 -25 -153.5t-71.5 -114 t-113 -71.5t-150.5 -25q-78 0 -141 24.5t-107.5 69t-69 107.5t-24.5 140zM296 1038q0 -51 12.5 -90t34 -64.5t50 -38.5t61.5 -13t61.5 12.5t49 38t32.5 64t12 89.5t-12.5 89.5t-33.5 65t-50 39.5t-62 13t-61 -13t-49 -38.5t-33 -64t-12 -89.5z" />
<glyph unicode="&#xbb;" horiz-adv-x="1239" d="M94 840q0 23 10 43t26.5 35t38 23.5t44.5 8.5q14 0 26 -3t22.5 -9t21.5 -16t24 -23l273 -288q20 -22 33.5 -47t13.5 -55q0 -32 -13.5 -56t-33.5 -47l-276 -291q-24 -25 -44.5 -37.5t-46.5 -12.5q-23 0 -43.5 8.5t-36.5 23t-25.5 34t-9.5 40.5q0 25 13 45t35 46l209 241 l-225 261q-18 22 -27 39t-9 37zM597 859q0 22 10 42.5t27 35.5t39 24t46 9q28 0 48.5 -12.5t45.5 -38.5l292 -308q21 -22 34 -47t13 -55q0 -32 -13 -56t-34 -47l-295 -310q-20 -23 -41 -37.5t-50 -14.5q-24 0 -45 8.5t-37.5 23.5t-26 35t-9.5 42t11 40t27 37l236 273 l-241 280q-18 21 -27.5 38t-9.5 38z" />
<glyph unicode="&#xbc;" horiz-adv-x="1610" d="M38 1204q0 18 6 31t19 26q8 8 21.5 17t32.5 19.5t42 21.5l49 23q50 22 82 33t59 11q45 0 71 -24.5t26 -69.5v-576q0 -44 -27 -68.5t-81 -24.5t-81 24.5t-27 68.5v444l-61 -23q-14 -5 -27.5 -9t-25.5 -4q-35 0 -56.5 23.5t-21.5 56.5zM282 65q0 13 5 26t14 28l734 1229 q14 23 31 36.5t44 13.5q18 0 35 -6.5t31 -18t22.5 -27t8.5 -33.5q0 -13 -5 -25.5t-14 -27.5l-734 -1229q-14 -23 -31 -36.5t-44 -13.5q-18 0 -35.5 6.5t-31 17.5t-22 26.5t-8.5 33.5zM864 292q0 26 8.5 49.5t31.5 53.5l209 279q18 24 36 40t39 26.5t46.5 15t57.5 4.5 q73 0 105 -25t32 -76v-323h59q29 0 46 -19t17 -58t-17 -58t-46 -19h-59v-99q0 -44 -25 -66.5t-76 -22.5t-76 22.5t-25 66.5v99h-239q-63 0 -93.5 29.5t-30.5 80.5zM1040 336h187v251z" />
<glyph unicode="&#xbd;" horiz-adv-x="1633" d="M38 1204q0 18 6 31t19 26q8 8 21.5 17t32.5 19.5t42 21.5l49 23q50 22 82 33t59 11q45 0 71 -24.5t26 -69.5v-576q0 -44 -27 -68.5t-81 -24.5t-81 24.5t-27 68.5v444l-61 -23q-14 -5 -27.5 -9t-25.5 -4q-35 0 -56.5 23.5t-21.5 56.5zM281 65q0 13 5 26t14 28l734 1229 q14 23 31 36.5t44 13.5q18 0 35 -6.5t31 -18t22.5 -27t8.5 -33.5q0 -13 -5 -25.5t-14 -27.5l-734 -1229q-14 -23 -31 -36.5t-44 -13.5q-18 0 -35.5 6.5t-31 17.5t-22 26.5t-8.5 33.5zM977 100q0 31 12.5 55t35.5 46l128 117l71 67q30 29 48 52.5t26.5 44.5t8.5 43 q0 36 -24 58t-77 22q-23 0 -41.5 -3.5t-33.5 -7.5l-29 -8q-14 -3 -27 -3q-27 0 -45 17.5t-18 46.5q0 18 7 32.5t18 25.5t32 21.5t50 18.5t65.5 13t79.5 5q69 0 120 -15.5t84.5 -43t50 -65t16.5 -82.5q0 -44 -13 -81t-40 -73t-69.5 -75.5t-100.5 -87.5l-89 -74h269 q32 0 51 -20.5t19 -62.5q0 -40 -19 -61t-51 -21h-409q-51 0 -78.5 27t-27.5 72z" />
<glyph unicode="&#xbe;" horiz-adv-x="1715" d="M71 731q0 30 18.5 48.5t45.5 18.5q15 0 29 -5l30 -11q16 -7 38.5 -12t55.5 -5q61 0 90 24t29 61q0 20 -8.5 36t-30 27.5t-59 17.5t-95.5 6q-14 0 -22.5 2.5t-14.5 8.5q-11 10 -16 27.5t-5 35.5t5 35t16 28q6 6 14.5 8.5t22.5 2.5q49 0 81.5 6.5t51.5 17.5t26.5 27t7.5 34 q0 30 -23 49t-78 19q-24 0 -41.5 -3.5t-31.5 -7t-26.5 -7t-25.5 -3.5q-28 0 -45 17t-17 47q0 17 5.5 30.5t17.5 25.5q23 23 77 39t137 16q69 0 119.5 -14t83.5 -39.5t49 -60.5t16 -77q0 -58 -31.5 -99t-82.5 -66v-1q66 -17 104 -61.5t38 -119.5q0 -50 -21 -93t-62 -75.5 t-102 -51t-141 -18.5q-78 0 -129.5 15.5t-75.5 39.5q-11 11 -17.5 25t-6.5 35zM387 65q0 13 5 26t14 28l734 1229q14 23 31 36.5t44 13.5q18 0 35 -6.5t31 -18t22.5 -27t8.5 -33.5q0 -13 -5 -25.5t-14 -27.5l-734 -1229q-14 -23 -31 -36.5t-44 -13.5q-18 0 -35.5 6.5 t-31 17.5t-22 26.5t-8.5 33.5zM970 292q0 26 8.5 49.5t31.5 53.5l209 279q18 24 36 40t39 26.5t46.5 15t57.5 4.5q73 0 105 -25t32 -76v-323h59q29 0 46 -19t17 -58t-17 -58t-46 -19h-59v-99q0 -44 -25 -66.5t-76 -22.5t-76 22.5t-25 66.5v99h-239q-63 0 -93.5 29.5 t-30.5 80.5zM1146 336h187v251z" />
<glyph unicode="&#xbf;" horiz-adv-x="808" d="M40 -96q0 72 23 126.5t57.5 99t75 81t75 72.5t57.5 74.5t23 86.5q0 24 -2.5 40.5t-5 29t-5 22.5t-2.5 22q0 38 32 62.5t97 24.5q36 0 65 -12t49.5 -36.5t31.5 -62t11 -88.5q0 -65 -22.5 -115.5t-55.5 -92t-72.5 -77t-72.5 -70.5t-55.5 -73.5t-22.5 -84.5q0 -33 11 -60.5 t34.5 -46.5t59.5 -29.5t86 -10.5q43 0 72 5.5t50 12.5l38 12q17 6 36 6q38 0 60.5 -23t22.5 -61q0 -23 -8 -41.5t-24 -34.5q-17 -17 -45.5 -33t-67.5 -28t-88 -19.5t-106 -7.5q-105 0 -182.5 23.5t-128.5 67t-76 104.5t-25 135zM285 923q0 36 13 66t36 52.5t54.5 35 t69.5 12.5q37 0 68.5 -12t53.5 -33.5t34.5 -51t12.5 -65.5t-13 -66t-36.5 -52.5t-55.5 -35t-69 -12.5t-68 12t-53 33.5t-34.5 51t-12.5 65.5z" />
<glyph unicode="&#xc0;" horiz-adv-x="1293" d="M41 108q0 16 4.5 32t15.5 49l351 1009l17 43q8 20 17 36t18.5 29t21.5 25q26 26 64.5 39.5t95.5 13.5t95.5 -13.5t64.5 -39.5q12 -12 21.5 -25t18.5 -29t17 -36l17 -43l352 -1004q12 -34 15.5 -50t3.5 -30q0 -31 -14 -54t-36 -38.5t-49 -23.5t-53 -8q-29 0 -52 9t-39 25 q-15 15 -24.5 37t-20.5 56l-71 207h-506l-67 -206q-11 -35 -21 -58.5t-25 -38.5q-14 -14 -36 -22.5t-51 -8.5q-26 0 -51.5 8t-46.5 23t-34 37t-13 50zM318 1720q0 24 10 49.5t27 46.5t39.5 34.5t47.5 13.5q17 0 30.5 -6t29.5 -20l237 -196q21 -17 30 -31.5t9 -32.5t-7 -35.5 t-19 -31.5t-28.5 -22.5t-35.5 -8.5q-14 0 -25.5 4t-24.5 11l-265 149q-26 14 -40.5 31t-14.5 45zM448 537h378l-131 394q-14 41 -25 76l-19 64q-10 32 -17 60h-4q-7 -28 -16 -60l-18 -64q-10 -35 -23 -76z" />
<glyph unicode="&#xc1;" horiz-adv-x="1293" d="M41 108q0 16 4.5 32t15.5 49l351 1009l17 43q8 20 17 36t18.5 29t21.5 25q26 26 64.5 39.5t95.5 13.5t95.5 -13.5t64.5 -39.5q12 -12 21.5 -25t18.5 -29t17 -36l17 -43l352 -1004q12 -34 15.5 -50t3.5 -30q0 -31 -14 -54t-36 -38.5t-49 -23.5t-53 -8q-29 0 -52 9t-39 25 q-15 15 -24.5 37t-20.5 56l-71 207h-506l-67 -206q-11 -35 -21 -58.5t-25 -38.5q-14 -14 -36 -22.5t-51 -8.5q-26 0 -51.5 8t-46.5 23t-34 37t-13 50zM448 537h378l-131 394q-14 41 -25 76l-19 64q-10 32 -17 60h-4q-7 -28 -16 -60l-18 -64q-10 -35 -23 -76zM482 1578 q0 18 9 32.5t30 31.5l237 196q16 14 29.5 20t30.5 6q25 0 47.5 -13.5t39.5 -34.5t27 -46.5t10 -49.5q0 -28 -14.5 -45t-40.5 -31l-265 -149q-13 -7 -24.5 -11t-25.5 -4q-19 0 -35.5 8.5t-28.5 22.5t-19 31.5t-7 35.5z" />
<glyph unicode="&#xc2;" horiz-adv-x="1293" d="M41 108q0 16 4.5 32t15.5 49l351 1009l17 43q8 20 17 36t18.5 29t21.5 25q26 26 64.5 39.5t95.5 13.5t95.5 -13.5t64.5 -39.5q12 -12 21.5 -25t18.5 -29t17 -36l17 -43l352 -1004q12 -34 15.5 -50t3.5 -30q0 -31 -14 -54t-36 -38.5t-49 -23.5t-53 -8q-29 0 -52 9t-39 25 q-15 15 -24.5 37t-20.5 56l-71 207h-506l-67 -206q-11 -35 -21 -58.5t-25 -38.5q-14 -14 -36 -22.5t-51 -8.5q-26 0 -51.5 8t-46.5 23t-34 37t-13 50zM302 1568q0 18 8 32.5t31 35.5l188 171q24 22 48.5 34.5t59.5 12.5q34 0 59 -12t48 -34l184 -172q18 -17 25.5 -30 t7.5 -30q0 -19 -7.5 -35.5t-19.5 -28.5t-28 -19t-33 -7q-14 0 -26.5 4.5t-29.5 15.5l-190 125l-190 -127q-16 -11 -27.5 -15.5t-25.5 -4.5q-17 0 -32 7t-26 19t-17.5 27t-6.5 31zM448 537h378l-131 394q-14 41 -25 76l-19 64q-10 32 -17 60h-4q-7 -28 -16 -60l-18 -64 q-10 -35 -23 -76z" />
<glyph unicode="&#xc3;" horiz-adv-x="1293" d="M41 108q0 16 4.5 32t15.5 49l351 1009l17 43q8 20 17 36t18.5 29t21.5 25q26 26 64.5 39.5t95.5 13.5t95.5 -13.5t64.5 -39.5q12 -12 21.5 -25t18.5 -29t17 -36l17 -43l352 -1004q12 -34 15.5 -50t3.5 -30q0 -31 -14 -54t-36 -38.5t-49 -23.5t-53 -8q-29 0 -52 9t-39 25 q-15 15 -24.5 37t-20.5 56l-71 207h-506l-67 -206q-11 -35 -21 -58.5t-25 -38.5q-14 -14 -36 -22.5t-51 -8.5q-26 0 -51.5 8t-46.5 23t-34 37t-13 50zM257 1608q0 29 17.5 63t49.5 63.5t78.5 49t103.5 19.5q51 0 91 -15t74 -34l64 -33q30 -15 61 -15t50 12.5t34.5 27.5 t31.5 27.5t40 12.5q32 0 54.5 -20t22.5 -62q0 -29 -17.5 -63t-49.5 -63.5t-78.5 -49t-103.5 -19.5q-51 0 -91 15t-74 33l-65 33q-30 15 -60 15q-31 0 -50 -12.5t-34.5 -27t-31.5 -27t-40 -12.5q-32 0 -54.5 20t-22.5 62zM448 537h378l-131 394q-14 41 -25 76l-19 64 q-10 32 -17 60h-4q-7 -28 -16 -60l-18 -64q-10 -35 -23 -76z" />
<glyph unicode="&#xc4;" horiz-adv-x="1293" d="M41 108q0 16 4.5 32t15.5 49l351 1009l17 43q8 20 17 36t18.5 29t21.5 25q26 26 64.5 39.5t95.5 13.5t95.5 -13.5t64.5 -39.5q12 -12 21.5 -25t18.5 -29t17 -36l17 -43l352 -1004q12 -34 15.5 -50t3.5 -30q0 -31 -14 -54t-36 -38.5t-49 -23.5t-53 -8q-29 0 -52 9t-39 25 q-15 15 -24.5 37t-20.5 56l-71 207h-506l-67 -206q-11 -35 -21 -58.5t-25 -38.5q-14 -14 -36 -22.5t-51 -8.5q-26 0 -51.5 8t-46.5 23t-34 37t-13 50zM256 1656q0 32 11.5 59.5t32 48t48.5 32t61 11.5t61 -11t47.5 -30.5t30.5 -46.5t11 -59t-11.5 -59.5t-31.5 -48 t-48.5 -32.5t-61.5 -12t-60.5 11t-47.5 31t-31 47t-11 59zM448 537h378l-131 394q-14 41 -25 76l-19 64q-10 32 -17 60h-4q-7 -28 -16 -60l-18 -64q-10 -35 -23 -76zM713 1656q0 32 11.5 59.5t32.5 48t49 32t61 11.5t60.5 -11t47 -30.5t30.5 -46.5t11 -59t-11.5 -59.5 t-31.5 -48t-48 -32.5t-61 -12t-60.5 11t-48 31t-31.5 47t-11 59z" />
<glyph unicode="&#xc5;" horiz-adv-x="1293" d="M41 108q0 16 4.5 32t15.5 49l351 1009l17 43q8 20 17 36t18.5 29t21.5 25q26 26 64.5 39.5t95.5 13.5t95.5 -13.5t64.5 -39.5q12 -12 21.5 -25t18.5 -29t17 -36l17 -43l352 -1004q12 -34 15.5 -50t3.5 -30q0 -31 -14 -54t-36 -38.5t-49 -23.5t-53 -8q-29 0 -52 9t-39 25 q-15 15 -24.5 37t-20.5 56l-71 207h-506l-67 -206q-11 -35 -21 -58.5t-25 -38.5q-14 -14 -36 -22.5t-51 -8.5q-26 0 -51.5 8t-46.5 23t-34 37t-13 50zM357 1721q0 53 21.5 98.5t59 78.5t89.5 52t114 19q61 0 112 -17.5t87.5 -49.5t56.5 -76t20 -97t-21.5 -98.5t-59 -78.5 t-90 -52t-113.5 -19q-62 0 -112.5 17.5t-87 49t-56.5 76t-20 97.5zM448 537h378l-131 394q-14 41 -25 76l-19 64q-10 32 -17 60h-4q-7 -28 -16 -60l-18 -64q-10 -35 -23 -76zM518 1725q0 -53 32.5 -84.5t86.5 -31.5t86.5 31.5t32.5 84.5q0 52 -32.5 83.5t-86.5 31.5 t-86.5 -31.5t-32.5 -83.5z" />
<glyph unicode="&#xc6;" horiz-adv-x="1775" d="M0 114q0 13 2.5 25.5t8 25.5t13 27.5t18.5 33.5l595 1039q18 32 36.5 53.5t41 35t50 19t65.5 5.5h768q44 0 69.5 -27t25.5 -81t-25.5 -81.5t-69.5 -27.5h-465v-351h397q43 0 68 -27t25 -79q0 -53 -25 -80t-68 -27h-397v-380h470q43 0 68.5 -27.5t25.5 -81.5t-25.5 -81 t-68.5 -27h-622q-60 0 -93.5 33.5t-33.5 93.5v197h-453l-120 -212q-20 -36 -33 -55.5t-25 -31.5q-16 -16 -37.5 -25.5t-49.5 -9.5q-25 0 -49 8.5t-43.5 24.5t-31.5 39t-12 52zM509 537h345v624h-3z" />
<glyph unicode="&#xc7;" horiz-adv-x="1189" d="M91 643q0 175 48.5 314.5t137 237t211 149.5t271.5 52q63 0 115 -9.5t92 -23.5t67.5 -31t42.5 -32q22 -22 31 -44.5t9 -52.5q0 -22 -7 -40t-20 -31t-30.5 -20.5t-38.5 -7.5q-23 0 -44.5 11t-50.5 23.5t-70 23.5t-102 11q-77 0 -145 -31t-119.5 -93.5t-81.5 -156 t-30 -218.5q0 -113 29 -200t81 -146t123.5 -89.5t156.5 -30.5q60 0 101.5 10.5t71.5 23t52 23t44 10.5q18 0 33.5 -7t26.5 -19.5t17.5 -29.5t6.5 -37q0 -27 -9 -48t-30 -42q-19 -19 -51 -38t-76.5 -34.5t-101 -25.5t-123.5 -10l-19 -74q39 -4 72 -16.5t56.5 -34t36.5 -52 t13 -69.5q0 -47 -19.5 -89t-58 -73.5t-95 -49.5t-130.5 -18q-43 0 -72 7t-46.5 18.5t-25 26.5t-7.5 32q0 27 16 44t45 17q14 0 29 -1.5t34 -1.5q36 0 59 6t37 16t19.5 23t5.5 27q0 26 -16.5 41t-58.5 15h-26q-25 0 -35.5 15t-2.5 46l38 157q-106 20 -195 72t-154 134 t-101.5 193t-36.5 248z" />
<glyph unicode="&#xc8;" horiz-adv-x="1086" d="M165 127v1124q0 60 33 93.5t94 33.5h617q44 0 69.5 -27t25.5 -81t-25.5 -81.5t-69.5 -27.5h-465v-351h397q42 0 67.5 -27t25.5 -80q0 -52 -25.5 -79t-67.5 -27h-397v-380h470q43 0 68.5 -27.5t25.5 -81.5t-25.5 -81t-68.5 -27h-622q-61 0 -94 33.5t-33 93.5zM249 1720 q0 24 10 49.5t27 46.5t39.5 34.5t47.5 13.5q17 0 30.5 -6t29.5 -20l237 -196q21 -17 30 -31.5t9 -32.5t-7 -35.5t-19 -31.5t-28.5 -22.5t-35.5 -8.5q-14 0 -25.5 4t-24.5 11l-265 149q-26 14 -40.5 31t-14.5 45z" />
<glyph unicode="&#xc9;" horiz-adv-x="1086" d="M165 127v1124q0 60 33 93.5t94 33.5h617q44 0 69.5 -27t25.5 -81t-25.5 -81.5t-69.5 -27.5h-465v-351h397q42 0 67.5 -27t25.5 -80q0 -52 -25.5 -79t-67.5 -27h-397v-380h470q43 0 68.5 -27.5t25.5 -81.5t-25.5 -81t-68.5 -27h-622q-61 0 -94 33.5t-33 93.5zM453 1578 q0 18 9 32.5t30 31.5l237 196q16 14 29.5 20t30.5 6q25 0 47.5 -13.5t39.5 -34.5t27 -46.5t10 -49.5q0 -28 -14.5 -45t-40.5 -31l-265 -149q-13 -7 -24.5 -11t-25.5 -4q-19 0 -35.5 8.5t-28.5 22.5t-19 31.5t-7 35.5z" />
<glyph unicode="&#xca;" horiz-adv-x="1086" d="M165 127v1124q0 60 33 93.5t94 33.5h617q44 0 69.5 -27t25.5 -81t-25.5 -81.5t-69.5 -27.5h-465v-351h397q42 0 67.5 -27t25.5 -80q0 -52 -25.5 -79t-67.5 -27h-397v-380h470q43 0 68.5 -27.5t25.5 -81.5t-25.5 -81t-68.5 -27h-622q-61 0 -94 33.5t-33 93.5zM248 1568 q0 18 8 32.5t31 35.5l188 171q24 22 48.5 34.5t59.5 12.5q34 0 59 -12t48 -34l184 -172q18 -17 25.5 -30t7.5 -30q0 -19 -7.5 -35.5t-19.5 -28.5t-28 -19t-33 -7q-14 0 -26.5 4.5t-29.5 15.5l-190 125l-190 -127q-16 -11 -27.5 -15.5t-25.5 -4.5q-17 0 -32 7t-26 19 t-17.5 27t-6.5 31z" />
<glyph unicode="&#xcb;" horiz-adv-x="1086" d="M165 127v1124q0 60 33 93.5t94 33.5h617q44 0 69.5 -27t25.5 -81t-25.5 -81.5t-69.5 -27.5h-465v-351h397q42 0 67.5 -27t25.5 -80q0 -52 -25.5 -79t-67.5 -27h-397v-380h470q43 0 68.5 -27.5t25.5 -81.5t-25.5 -81t-68.5 -27h-622q-61 0 -94 33.5t-33 93.5zM198 1656 q0 32 11.5 59.5t32 48t48.5 32t61 11.5t61 -11t47.5 -30.5t30.5 -46.5t11 -59t-11.5 -59.5t-31.5 -48t-48.5 -32.5t-61.5 -12t-60.5 11t-47.5 31t-31 47t-11 59zM655 1656q0 32 11.5 59.5t32.5 48t49 32t61 11.5t60.5 -11t47 -30.5t30.5 -46.5t11 -59t-11.5 -59.5t-31.5 -48 t-48 -32.5t-61 -12t-60.5 11t-48 31t-31.5 47t-11 59z" />
<glyph unicode="&#xcc;" horiz-adv-x="608" d="M1 1720q0 24 10 49.5t27 46.5t39.5 34.5t47.5 13.5q17 0 30.5 -6t29.5 -20l237 -196q21 -17 30 -31.5t9 -32.5t-7 -35.5t-19 -31.5t-28.5 -22.5t-35.5 -8.5q-14 0 -25.5 4t-24.5 11l-265 149q-26 14 -40.5 31t-14.5 45zM165 116v1146q0 59 34 91t105 32q72 0 106 -32 t34 -91v-1146q0 -59 -34 -91t-106 -32q-71 0 -105 32t-34 91z" />
<glyph unicode="&#xcd;" horiz-adv-x="608" d="M136 1578q0 18 9 32.5t30 31.5l237 196q16 14 29.5 20t30.5 6q25 0 47.5 -13.5t39.5 -34.5t27 -46.5t10 -49.5q0 -28 -14.5 -45t-40.5 -31l-265 -149q-13 -7 -24.5 -11t-25.5 -4q-19 0 -35.5 8.5t-28.5 22.5t-19 31.5t-7 35.5zM165 116v1146q0 59 34 91t105 32 q72 0 106 -32t34 -91v-1146q0 -59 -34 -91t-106 -32q-71 0 -105 32t-34 91z" />
<glyph unicode="&#xce;" horiz-adv-x="608" d="M-25 1568q0 18 8 32.5t31 35.5l188 171q24 22 48.5 34.5t59.5 12.5q34 0 59 -12t48 -34l184 -172q18 -17 25.5 -30t7.5 -30q0 -19 -7.5 -35.5t-19.5 -28.5t-28 -19t-33 -7q-14 0 -26.5 4.5t-29.5 15.5l-190 125l-190 -127q-16 -11 -27.5 -15.5t-25.5 -4.5q-17 0 -32 7 t-26 19t-17.5 27t-6.5 31zM165 116v1146q0 59 34 91t105 32q72 0 106 -32t34 -91v-1146q0 -59 -34 -91t-106 -32q-71 0 -105 32t-34 91z" />
<glyph unicode="&#xcf;" horiz-adv-x="608" d="M-73 1656q0 32 11.5 59.5t32 48t48.5 32t61 11.5t61 -11t47.5 -30.5t30.5 -46.5t11 -59t-11.5 -59.5t-31.5 -48t-48.5 -32.5t-61.5 -12t-60.5 11t-47.5 31t-31 47t-11 59zM165 116v1146q0 59 34 91t105 32q72 0 106 -32t34 -91v-1146q0 -59 -34 -91t-106 -32 q-71 0 -105 32t-34 91zM384 1656q0 32 11.5 59.5t32.5 48t49 32t61 11.5t60.5 -11t47 -30.5t30.5 -46.5t11 -59t-11.5 -59.5t-31.5 -48t-48 -32.5t-61 -12t-60.5 11t-48 31t-31.5 47t-11 59z" />
<glyph unicode="&#xd0;" horiz-adv-x="1457" d="M36 718q0 48 23.5 72.5t63.5 24.5h80v436q0 60 33 93.5t94 33.5h335q171 0 302.5 -45t221 -129.5t135 -207t45.5 -277.5q0 -168 -49.5 -301.5t-144 -226t-230.5 -142t-309 -49.5h-306q-61 0 -94 33.5t-33 93.5v491h-80q-40 0 -63.5 26t-23.5 74zM482 215h168 q100 0 180 31t136 91.5t86.5 151t30.5 209.5t-27.5 206.5t-82 145t-135.5 85.5t-188 28h-168v-348h200q40 0 63.5 -25t23.5 -73t-23.5 -73.5t-63.5 -25.5h-200v-403z" />
<glyph unicode="&#xd1;" horiz-adv-x="1508" d="M165 104v1091q0 96 47.5 143t145.5 47q45 0 76.5 -10t56.5 -29t45.5 -46.5t41.5 -62.5l432 -703q23 -38 42 -74l33 -66q17 -33 31 -64l5 2q-3 35 -7 75q-3 34 -6 77.5t-4 91.5l-12 698q-2 51 30.5 81t95.5 30t94 -29.5t31 -81.5v-1090q0 -97 -47.5 -144t-145.5 -47 q-45 0 -77 10t-57 29t-45.5 46.5t-41.5 62.5l-431 703q-23 38 -42.5 74.5t-33.5 65.5q-17 33 -31 64l-4 -2q3 -35 7 -75q3 -34 5.5 -78t4.5 -91l12 -698q2 -51 -30.5 -81t-95.5 -30t-94 29.5t-31 81.5zM371 1608q0 29 17.5 63t49.5 63.5t78.5 49t103.5 19.5q51 0 91 -15 t74 -33l64 -34q30 -15 61 -15t50 12.5t34.5 27.5t31.5 27.5t40 12.5q32 0 54.5 -20t22.5 -62q0 -29 -17.5 -63t-49.5 -63.5t-78.5 -49t-103.5 -19.5q-51 0 -91 15t-74 33l-65 33q-30 15 -60 15q-31 0 -50 -12.5t-34.5 -27t-31.5 -27t-40 -12.5q-32 0 -54.5 20t-22.5 62z" />
<glyph unicode="&#xd2;" horiz-adv-x="1512" d="M91 670q0 171 49 306.5t138 229.5t214 143.5t277 49.5q147 0 267.5 -47t206 -136.5t132 -217.5t46.5 -290q0 -171 -49 -306t-138 -229t-213.5 -143.5t-276.5 -49.5q-147 0 -267.5 47t-206 136t-132.5 217t-47 290zM377 691q0 -120 30 -211.5t81.5 -153.5t121 -93.5 t148.5 -31.5t148 31t120 92.5t80 152t29 210.5t-29.5 212t-81.5 153.5t-121.5 93t-148.5 31.5t-147.5 -31t-119.5 -92t-80.5 -152t-29.5 -211zM419 1720q0 24 10 49.5t27 46.5t39.5 34.5t47.5 13.5q17 0 30.5 -6t29.5 -20l237 -196q21 -17 30 -31.5t9 -32.5t-7 -35.5 t-19 -31.5t-28.5 -22.5t-35.5 -8.5q-14 0 -25.5 4t-24.5 11l-265 149q-26 14 -40.5 31t-14.5 45z" />
<glyph unicode="&#xd3;" horiz-adv-x="1512" d="M91 670q0 171 49 306.5t138 229.5t214 143.5t277 49.5q147 0 267.5 -47t206 -136.5t132 -217.5t46.5 -290q0 -171 -49 -306t-138 -229t-213.5 -143.5t-276.5 -49.5q-147 0 -267.5 47t-206 136t-132.5 217t-47 290zM377 691q0 -120 30 -211.5t81.5 -153.5t121 -93.5 t148.5 -31.5t148 31t120 92.5t80 152t29 210.5t-29.5 212t-81.5 153.5t-121.5 93t-148.5 31.5t-147.5 -31t-119.5 -92t-80.5 -152t-29.5 -211zM612 1578q0 18 9 32.5t30 31.5l237 196q16 14 29.5 20t30.5 6q25 0 47.5 -13.5t39.5 -34.5t27 -46.5t10 -49.5q0 -28 -14.5 -45 t-40.5 -31l-265 -149q-13 -7 -24.5 -11t-25.5 -4q-19 0 -35.5 8.5t-28.5 22.5t-19 31.5t-7 35.5z" />
<glyph unicode="&#xd4;" horiz-adv-x="1512" d="M91 670q0 171 49 306.5t138 229.5t214 143.5t277 49.5q147 0 267.5 -47t206 -136.5t132 -217.5t46.5 -290q0 -171 -49 -306t-138 -229t-213.5 -143.5t-276.5 -49.5q-147 0 -267.5 47t-206 136t-132.5 217t-47 290zM377 691q0 -120 30 -211.5t81.5 -153.5t121 -93.5 t148.5 -31.5t148 31t120 92.5t80 152t29 210.5t-29.5 212t-81.5 153.5t-121.5 93t-148.5 31.5t-147.5 -31t-119.5 -92t-80.5 -152t-29.5 -211zM429 1568q0 18 8 32.5t31 35.5l188 171q24 22 48.5 34.5t59.5 12.5q34 0 59 -12t48 -34l184 -172q18 -17 25.5 -30t7.5 -30 q0 -19 -7.5 -35.5t-19.5 -28.5t-28 -19t-33 -7q-14 0 -26.5 4.5t-29.5 15.5l-190 125l-190 -127q-16 -11 -27.5 -15.5t-25.5 -4.5q-17 0 -32 7t-26 19t-17.5 27t-6.5 31z" />
<glyph unicode="&#xd5;" horiz-adv-x="1512" d="M91 670q0 171 49 306.5t138 229.5t214 143.5t277 49.5q147 0 267.5 -47t206 -136.5t132 -217.5t46.5 -290q0 -171 -49 -306t-138 -229t-213.5 -143.5t-276.5 -49.5q-147 0 -267.5 47t-206 136t-132.5 217t-47 290zM369 1608q0 29 17.5 63t49.5 63.5t78.5 49t103.5 19.5 q51 0 91 -15t74 -33l64 -34q30 -15 61 -15t50 12.5t34.5 27.5t31.5 27.5t40 12.5q32 0 54.5 -20t22.5 -62q0 -29 -17.5 -63t-49.5 -63.5t-78.5 -49t-103.5 -19.5q-51 0 -91 15t-74 33l-64 33q-31 15 -61 15q-31 0 -50 -12.5t-34.5 -27t-31.5 -27t-40 -12.5q-32 0 -54.5 20 t-22.5 62zM377 691q0 -120 30 -211.5t81.5 -153.5t121 -93.5t148.5 -31.5t148 31t120 92.5t80 152t29 210.5t-29.5 212t-81.5 153.5t-121.5 93t-148.5 31.5t-147.5 -31t-119.5 -92t-80.5 -152t-29.5 -211z" />
<glyph unicode="&#xd6;" horiz-adv-x="1512" d="M91 670q0 171 49 306.5t138 229.5t214 143.5t277 49.5q147 0 267.5 -47t206 -136.5t132 -217.5t46.5 -290q0 -171 -49 -306t-138 -229t-213.5 -143.5t-276.5 -49.5q-147 0 -267.5 47t-206 136t-132.5 217t-47 290zM376 1656q0 32 11.5 59.5t32 48t48.5 32t61 11.5t61 -11 t47.5 -30.5t30.5 -46.5t11 -59t-11.5 -59.5t-31.5 -48t-48.5 -32.5t-61.5 -12t-60.5 11t-47.5 31t-31 47t-11 59zM377 691q0 -120 30 -211.5t81.5 -153.5t121 -93.5t148.5 -31.5t148 31t120 92.5t80 152t29 210.5t-29.5 212t-81.5 153.5t-121.5 93t-148.5 31.5t-147.5 -31 t-119.5 -92t-80.5 -152t-29.5 -211zM833 1656q0 32 11.5 59.5t32.5 48t49 32t61 11.5t60.5 -11t47 -30.5t30.5 -46.5t11 -59t-11.5 -59.5t-31.5 -48t-48 -32.5t-61 -12t-60.5 11t-48 31t-31.5 47t-11 59z" />
<glyph unicode="&#xd7;" d="M177 879q0 22 9.5 42t25 35t35 24t40.5 9q23 0 40 -10.5t32 -25.5l229 -230l224 225q20 20 36.5 29t37.5 9q20 0 38.5 -8.5t33 -22.5t23 -32.5t8.5 -38.5q0 -21 -10.5 -38.5t-27.5 -35.5l-225 -225l228 -228q17 -17 27 -33.5t10 -39.5q0 -21 -9.5 -41t-25 -35.5 t-35 -24.5t-40.5 -9q-23 0 -40 10.5t-32 25.5l-229 230l-224 -224q-20 -20 -36.5 -29.5t-37.5 -9.5q-20 0 -39 8.5t-33 22.5t-22.5 32.5t-8.5 38.5q0 22 10.5 40t27.5 35l225 224l-228 229q-17 17 -27 33.5t-10 38.5z" />
<glyph unicode="&#xd8;" horiz-adv-x="1544" d="M91 670q0 171 49 306.5t140 229.5t218.5 143.5t285.5 49.5q67 0 127.5 -10t112.5 -28l78 139l26 44q8 13 17 22q22 22 60 22q21 0 41.5 -7.5t37.5 -21t27.5 -32t10.5 -40.5q0 -18 -9 -35l-25 -49l-74 -136q58 -44 102.5 -102.5t74.5 -130t45.5 -153.5t15.5 -173 q0 -171 -49 -306t-139.5 -229t-218.5 -143.5t-285 -49.5q-70 0 -131 10.5t-108 27.5l-78 -140q-17 -32 -26.5 -45t-17.5 -21q-22 -22 -59 -22q-21 0 -42 7.5t-37.5 21t-27 32t-10.5 40.5q0 18 8 35t25 49l75 136q-55 43 -99.5 99t-75.5 126t-48 153t-17 181zM363 691 q0 -114 27.5 -200t75.5 -145l450 811q-26 12 -63 21t-83 9q-88 0 -162.5 -32t-129 -94.5t-85 -155.5t-30.5 -214zM629 221q32 -15 69 -22t76 -7q88 0 162.5 32t129 94t85 154.5t30.5 214.5q0 106 -24 192t-78 155z" />
<glyph unicode="&#xd9;" horiz-adv-x="1425" d="M153 535v727q0 59 34.5 91t105.5 32t105 -32t34 -91v-691q0 -97 21 -166.5t59.5 -114.5t91.5 -66t116 -21q59 0 109 20t86.5 61.5t57 104.5t20.5 150v723q0 59 34 91t105 32t105.5 -32t34.5 -91v-695q0 -146 -38.5 -256t-111 -183.5t-178 -110.5t-239.5 -37 q-135 0 -238 35.5t-172.5 105t-105.5 173.5t-36 241zM351 1720q0 24 10 49.5t27 46.5t39.5 34.5t47.5 13.5q17 0 30.5 -6t29.5 -20l237 -196q21 -17 30 -31.5t9 -32.5t-7 -35.5t-19 -31.5t-28.5 -22.5t-35.5 -8.5q-14 0 -25.5 4t-24.5 11l-265 149q-26 14 -40.5 31t-14.5 45 z" />
<glyph unicode="&#xda;" horiz-adv-x="1425" d="M153 535v727q0 59 34.5 91t105.5 32t105 -32t34 -91v-691q0 -97 21 -166.5t59.5 -114.5t91.5 -66t116 -21q59 0 109 20t86.5 61.5t57 104.5t20.5 150v723q0 59 34 91t105 32t105.5 -32t34.5 -91v-695q0 -146 -38.5 -256t-111 -183.5t-178 -110.5t-239.5 -37 q-135 0 -238 35.5t-172.5 105t-105.5 173.5t-36 241zM603 1578q0 18 9 32.5t30 31.5l237 196q16 14 29.5 20t30.5 6q25 0 47.5 -13.5t39.5 -34.5t27 -46.5t10 -49.5q0 -28 -14.5 -45t-40.5 -31l-265 -149q-13 -7 -24.5 -11t-25.5 -4q-19 0 -35.5 8.5t-28.5 22.5t-19 31.5 t-7 35.5z" />
<glyph unicode="&#xdb;" horiz-adv-x="1425" d="M153 535v727q0 59 34.5 91t105.5 32t105 -32t34 -91v-691q0 -97 21 -166.5t59.5 -114.5t91.5 -66t116 -21q59 0 109 20t86.5 61.5t57 104.5t20.5 150v723q0 59 34 91t105 32t105.5 -32t34.5 -91v-695q0 -146 -38.5 -256t-111 -183.5t-178 -110.5t-239.5 -37 q-135 0 -238 35.5t-172.5 105t-105.5 173.5t-36 241zM386 1568q0 18 8 32.5t31 35.5l188 171q24 22 48.5 34.5t59.5 12.5q34 0 59 -12t48 -34l184 -172q18 -17 25.5 -30t7.5 -30q0 -19 -7.5 -35.5t-19.5 -28.5t-28 -19t-33 -7q-14 0 -26.5 4.5t-29.5 15.5l-190 125 l-190 -127q-16 -11 -27.5 -15.5t-25.5 -4.5q-17 0 -32 7t-26 19t-17.5 27t-6.5 31z" />
<glyph unicode="&#xdc;" horiz-adv-x="1425" d="M153 535v727q0 59 34.5 91t105.5 32t105 -32t34 -91v-691q0 -97 21 -166.5t59.5 -114.5t91.5 -66t116 -21q59 0 109 20t86.5 61.5t57 104.5t20.5 150v723q0 59 34 91t105 32t105.5 -32t34.5 -91v-695q0 -146 -38.5 -256t-111 -183.5t-178 -110.5t-239.5 -37 q-135 0 -238 35.5t-172.5 105t-105.5 173.5t-36 241zM335 1656q0 32 11.5 59.5t32 48t48.5 32t61 11.5t61 -11t47.5 -30.5t30.5 -46.5t11 -59t-11.5 -59.5t-31.5 -48t-48.5 -32.5t-61.5 -12t-60.5 11t-47.5 31t-31 47t-11 59zM792 1656q0 32 11.5 59.5t32.5 48t49 32 t61 11.5t60.5 -11t47 -30.5t30.5 -46.5t11 -59t-11.5 -59.5t-31.5 -48t-48 -32.5t-61 -12t-60.5 11t-48 31t-31.5 47t-11 59z" />
<glyph unicode="&#xdd;" horiz-adv-x="1149" d="M28 1247q0 32 14.5 58t37.5 44.5t50.5 28.5t53.5 10q29 0 48.5 -9.5t32.5 -22.5q12 -12 23 -29.5t29 -49.5l216 -384q11 -20 20 -39t17 -34q9 -18 16 -34h4l15 35l16 36q9 20 20 40l204 379q18 34 27.5 50.5t22.5 29.5q15 15 35.5 23.5t43.5 8.5q27 0 53.5 -10t47 -27.5 t33.5 -41t13 -51.5q0 -26 -11 -48.5t-30 -54.5l-369 -620v-419q0 -59 -34 -91t-106 -32q-71 0 -105 32t-34 91v419l-361 604l-18 30q-8 14 -13.5 27t-8.5 25t-3 26zM457 1578q0 18 9 32.5t30 31.5l237 196q16 14 29.5 20t30.5 6q25 0 47.5 -13.5t39.5 -34.5t27 -46.5 t10 -49.5q0 -28 -14.5 -45t-40.5 -31l-265 -149q-13 -7 -24.5 -11t-25.5 -4q-19 0 -35.5 8.5t-28.5 22.5t-19 31.5t-7 35.5z" />
<glyph unicode="&#xde;" horiz-adv-x="1163" d="M165 116v1147q0 58 33 90t105 32q36 0 62 -8t43 -23t25.5 -36t8.5 -46v-143h139q135 0 233.5 -29.5t163 -83.5t96 -130t31.5 -169q0 -103 -33.5 -186.5t-101.5 -142.5t-170.5 -91t-240.5 -32h-117v-159q0 -26 -8.5 -46.5t-25.5 -35.5t-43 -23t-62 -8q-72 0 -105 32 t-33 91zM442 475h132q122 0 185.5 60t63.5 165t-61 160.5t-195 55.5h-125v-441z" />
<glyph unicode="&#xdf;" horiz-adv-x="1291" d="M147 113v925q0 108 32 193t97.5 143.5t165.5 89.5t236 31q96 0 169 -23.5t121.5 -64.5t73.5 -95.5t25 -117.5q0 -59 -17 -104t-42 -81.5t-55 -65.5l-54 -56q-25 -26 -42 -52.5t-17 -56.5q0 -31 17 -53.5t45 -41t64 -36t73 -37.5t73 -45t64 -59t45 -79.5t17 -106.5 q0 -73 -26.5 -135t-79 -107.5t-129.5 -71t-178 -25.5q-51 0 -90 5.5t-68.5 15t-49.5 21.5t-32 24q-17 17 -25.5 36t-8.5 48q0 19 6.5 35t17.5 27.5t27 18t34 6.5q19 0 36 -6l39 -13q21 -7 48.5 -13t66.5 -6q75 0 110 31t35 81q0 32 -17 54.5t-45 40.5t-64 34t-73.5 34.5 t-73.5 41.5t-64 55.5t-45 76.5t-17 105q0 53 16.5 94.5t40.5 75.5t53 63.5t53 58t40.5 58t16.5 65.5q0 63 -41 100t-127 37q-95 0 -150 -58t-55 -170v-945q0 -57 -33.5 -88.5t-102.5 -31.5t-102.5 31.5t-33.5 88.5z" />
<glyph unicode="&#xe0;" horiz-adv-x="1126" d="M87 292q0 72 32 127t90 91.5t140 55t183 18.5q42 0 75.5 -3t57.5 -6q28 -4 50 -9v83q0 48 -11 82t-35.5 55.5t-65 32t-98.5 10.5q-62 0 -105.5 -9t-75.5 -20l-56 -21q-23 -9 -44 -9q-36 0 -59.5 23t-23.5 67q0 23 7 40t24 34q16 16 51.5 34t86 33t115.5 25t141 10 q209 0 314 -90.5t105 -263.5v-327q0 -68 5.5 -110t11.5 -70t11.5 -46.5t5.5 -39.5t-8 -39t-23 -31.5t-37.5 -21t-51.5 -7.5q-31 0 -55.5 9.5t-43 26.5t-31 40.5t-20.5 51.5h-3q-31 -39 -75 -69q-38 -26 -95.5 -47t-135.5 -21q-83 0 -148.5 23.5t-111 65t-69.5 98.5t-24 124z M271 1420q0 25 11.5 48t30.5 41t42.5 29t46.5 11q12 0 21.5 -2.5t18.5 -8t18 -14t18 -20.5l174 -216q12 -15 21 -28t9 -31q0 -17 -7 -33t-20 -29t-30 -20.5t-36 -7.5q-14 0 -28 5.5t-31 19.5l-208 179q-9 7 -18 15t-16.5 17t-12 20t-4.5 25zM362 301q0 -26 10 -48t29 -38 t47 -25.5t65 -9.5q48 0 85.5 17t63.5 37q30 24 53 54v104q-20 5 -44 9q-21 4 -49 7t-63 3q-100 0 -148.5 -28t-48.5 -82z" />
<glyph unicode="&#xe1;" horiz-adv-x="1126" d="M87 292q0 72 32 127t90 91.5t140 55t183 18.5q42 0 75.5 -3t57.5 -6q28 -4 50 -9v83q0 48 -11 82t-35.5 55.5t-65 32t-98.5 10.5q-62 0 -105.5 -9t-75.5 -20l-56 -21q-23 -9 -44 -9q-36 0 -59.5 23t-23.5 67q0 23 7 40t24 34q16 16 51.5 34t86 33t115.5 25t141 10 q209 0 314 -90.5t105 -263.5v-327q0 -68 5.5 -110t11.5 -70t11.5 -46.5t5.5 -39.5t-8 -39t-23 -31.5t-37.5 -21t-51.5 -7.5q-31 0 -55.5 9.5t-43 26.5t-31 40.5t-20.5 51.5h-3q-31 -39 -75 -69q-38 -26 -95.5 -47t-135.5 -21q-83 0 -148.5 23.5t-111 65t-69.5 98.5t-24 124z M362 301q0 -26 10 -48t29 -38t47 -25.5t65 -9.5q48 0 85.5 17t63.5 37q30 24 53 54v104q-20 5 -44 9q-21 4 -49 7t-63 3q-100 0 -148.5 -28t-48.5 -82zM439 1229q0 18 9 31t21 28l174 216q19 24 36 34.5t40 10.5t46.5 -11t42 -29t30.5 -41t12 -48q0 -14 -4.5 -25t-12 -20 t-16.5 -17t-18 -15l-208 -179q-17 -14 -31 -19.5t-28 -5.5q-20 0 -36.5 7.5t-29.5 20.5t-20 29t-7 33z" />
<glyph unicode="&#xe2;" horiz-adv-x="1126" d="M87 292q0 72 32 127t90 91.5t140 55t183 18.5q42 0 75.5 -3t57.5 -6q28 -4 50 -9v83q0 48 -11 82t-35.5 55.5t-65 32t-98.5 10.5q-62 0 -105.5 -9t-75.5 -20l-56 -21q-23 -9 -44 -9q-36 0 -59.5 23t-23.5 67q0 23 7 40t24 34q16 16 51.5 34t86 33t115.5 25t141 10 q209 0 314 -90.5t105 -263.5v-327q0 -68 5.5 -110t11.5 -70t11.5 -46.5t5.5 -39.5t-8 -39t-23 -31.5t-37.5 -21t-51.5 -7.5q-31 0 -55.5 9.5t-43 26.5t-31 40.5t-20.5 51.5h-3q-31 -39 -75 -69q-38 -26 -95.5 -47t-135.5 -21q-83 0 -148.5 23.5t-111 65t-69.5 98.5t-24 124z M246 1225q0 16 8 29t23 29l191 197q22 22 45 34.5t52 12.5t53.5 -12t44.5 -34l183 -190q17 -18 25 -31t8 -28q0 -18 -7.5 -34t-20 -28t-28.5 -19.5t-34 -7.5q-15 0 -28 5t-31 19l-172 137l-174 -138q-17 -13 -29 -18.5t-26 -5.5q-17 0 -32 7t-26 18t-18 26t-7 32zM362 301 q0 -26 10 -48t29 -38t47 -25.5t65 -9.5q48 0 85.5 17t63.5 37q30 24 53 54v104q-20 5 -44 9q-21 4 -49 7t-63 3q-100 0 -148.5 -28t-48.5 -82z" />
<glyph unicode="&#xe3;" horiz-adv-x="1126" d="M87 292q0 72 32 127t90 91.5t140 55t183 18.5q42 0 75.5 -3t57.5 -6q28 -4 50 -9v83q0 48 -11 82t-35.5 55.5t-65 32t-98.5 10.5q-62 0 -105.5 -9t-75.5 -20l-56 -21q-23 -9 -44 -9q-36 0 -59.5 23t-23.5 67q0 23 7 40t24 34q16 16 51.5 34t86 33t115.5 25t141 10 q209 0 314 -90.5t105 -263.5v-327q0 -68 5.5 -110t11.5 -70t11.5 -46.5t5.5 -39.5t-8 -39t-23 -31.5t-37.5 -21t-51.5 -7.5q-31 0 -55.5 9.5t-43 26.5t-31 40.5t-20.5 51.5h-3q-31 -39 -75 -69q-38 -26 -95.5 -47t-135.5 -21q-83 0 -148.5 23.5t-111 65t-69.5 98.5t-24 124z M182 1269q0 33 18.5 68t51.5 64t79.5 47.5t102.5 18.5q52 0 89.5 -16t67.5 -34l57 -35q26 -16 55 -16q30 0 48.5 13t34 29t32.5 29t43 13q16 0 30.5 -5.5t25.5 -16t17.5 -25.5t6.5 -35q0 -33 -18.5 -68t-52 -64t-80 -48t-101.5 -19q-52 0 -90 16t-69 35l-56 34 q-26 16 -54 16q-30 0 -48.5 -13t-34.5 -29t-32.5 -29t-42.5 -13q-16 0 -30.5 5.5t-25.5 16t-17.5 26t-6.5 35.5zM362 301q0 -26 10 -48t29 -38t47 -25.5t65 -9.5q48 0 85.5 17t63.5 37q30 24 53 54v104q-20 5 -44 9q-21 4 -49 7t-63 3q-100 0 -148.5 -28t-48.5 -82z" />
<glyph unicode="&#xe4;" horiz-adv-x="1126" d="M87 292q0 72 32 127t90 91.5t140 55t183 18.5q42 0 75.5 -3t57.5 -6q28 -4 50 -9v83q0 48 -11 82t-35.5 55.5t-65 32t-98.5 10.5q-62 0 -105.5 -9t-75.5 -20l-56 -21q-23 -9 -44 -9q-36 0 -59.5 23t-23.5 67q0 23 7 40t24 34q16 16 51.5 34t86 33t115.5 25t141 10 q209 0 314 -90.5t105 -263.5v-327q0 -68 5.5 -110t11.5 -70t11.5 -46.5t5.5 -39.5t-8 -39t-23 -31.5t-37.5 -21t-51.5 -7.5q-31 0 -55.5 9.5t-43 26.5t-31 40.5t-20.5 51.5h-3q-31 -39 -75 -69q-38 -26 -95.5 -47t-135.5 -21q-83 0 -148.5 23.5t-111 65t-69.5 98.5t-24 124z M190 1315q0 31 11.5 58.5t32 47.5t48 31.5t60.5 11.5t60.5 -11t47 -30t30.5 -46t11 -58q0 -32 -11.5 -59t-31.5 -47.5t-48 -32t-61 -11.5t-60 11t-47 30.5t-31 46t-11 58.5zM362 301q0 -26 10 -48t29 -38t47 -25.5t65 -9.5q48 0 85.5 17t63.5 37q30 24 53 54v104 q-20 5 -44 9q-21 4 -49 7t-63 3q-100 0 -148.5 -28t-48.5 -82zM621 1315q0 31 11.5 58.5t32 47.5t48.5 31.5t61 11.5t60 -11t46.5 -30t30.5 -46t11 -58q0 -32 -11.5 -59t-31.5 -47.5t-47.5 -32t-60.5 -11.5t-60.5 11t-47.5 30.5t-31 46t-11 58.5z" />
<glyph unicode="&#xe5;" horiz-adv-x="1126" d="M87 292q0 72 32 127t90 91.5t140 55t183 18.5q42 0 75.5 -3t57.5 -6q28 -4 50 -9v83q0 48 -11 82t-35.5 55.5t-65 32t-98.5 10.5q-62 0 -105.5 -9t-75.5 -20l-56 -21q-23 -9 -44 -9q-36 0 -59.5 23t-23.5 67q0 23 7 40t24 34q16 16 51.5 34t86 33t115.5 25t141 10 q209 0 314 -90.5t105 -263.5v-327q0 -68 5.5 -110t11.5 -70t11.5 -46.5t5.5 -39.5t-8 -39t-23 -31.5t-37.5 -21t-51.5 -7.5q-31 0 -55.5 9.5t-43 26.5t-31 40.5t-20.5 51.5h-3q-31 -39 -75 -69q-38 -26 -95.5 -47t-135.5 -21q-83 0 -148.5 23.5t-111 65t-69.5 98.5t-24 124z M296 1355q0 53 21 98t57.5 78t87.5 51.5t111 18.5t109.5 -17t85 -48.5t55 -75t19.5 -96.5t-21 -98t-57.5 -78t-87.5 -51.5t-111 -18.5t-109.5 17.5t-85 49t-55 75t-19.5 95.5zM362 301q0 -26 10 -48t29 -38t47 -25.5t65 -9.5q48 0 85.5 17t63.5 37q30 24 53 54v104 q-20 5 -44 9q-21 4 -49 7t-63 3q-100 0 -148.5 -28t-48.5 -82zM457 1359q0 -51 30.5 -81.5t81.5 -30.5t81.5 30.5t30.5 82.5t-30.5 82t-81.5 30t-81.5 -30t-30.5 -83z" />
<glyph unicode="&#xe6;" horiz-adv-x="1719" d="M87 292q0 72 32 127t90 91.5t140 55t183 18.5q40 0 73 -3t57 -6q28 -4 50 -9v83q0 47 -10.5 81t-35 56t-64 32.5t-97.5 10.5q-62 0 -105.5 -9t-75.5 -20l-56 -21q-23 -9 -44 -9q-36 0 -59.5 23t-23.5 67q0 23 7 40t24 34q16 16 51.5 34t86 33t115.5 25t141 10 q67 0 117.5 -10t88.5 -27.5t65 -41t45 -51.5q25 28 58.5 52.5t75 41.5t90 27t103.5 10q96 0 174 -30t133 -86.5t85 -137.5t30 -184q0 -75 -34.5 -111t-98.5 -36h-526v-2q6 -62 28 -110t58.5 -81t87.5 -50t114 -17q52 0 89.5 7t65.5 16l49 15q22 7 41 7t34 -7t25.5 -18.5 t16 -26.5t5.5 -32q0 -25 -8 -43.5t-26 -36.5q-15 -15 -44 -31.5t-71.5 -30t-99 -22.5t-125.5 -9t-128 11.5t-108 32.5t-88.5 50t-70.5 64q-14 -14 -44 -40t-76.5 -52t-109 -45.5t-140.5 -19.5q-86 0 -152.5 23.5t-113 65t-70.5 98.5t-24 124zM362 301q0 -26 10 -48t29.5 -38 t48 -25.5t66.5 -9.5q50 0 89 16t68 36q33 23 59 53q-6 13 -10 30q-5 14 -9 34t-7 44q-19 5 -42 9q-20 3 -46.5 6t-58.5 3q-100 0 -148.5 -28t-48.5 -82zM975 626h403q-13 112 -60.5 165t-134.5 53q-36 0 -69 -12.5t-60.5 -39t-47.5 -67.5t-31 -99z" />
<glyph unicode="&#xe7;" horiz-adv-x="940" d="M84 470q0 131 38.5 236t109 178.5t168.5 112.5t217 39q46 0 83 -6.5t65.5 -16t48 -21.5t30.5 -24q18 -17 26.5 -37.5t8.5 -50.5q0 -20 -6.5 -37t-17.5 -29.5t-27 -19.5t-35 -7q-20 0 -37 6l-36 13q-19 8 -45 14.5t-63 6.5q-52 0 -98 -21t-80 -62t-53.5 -102.5 t-19.5 -142.5q0 -74 20 -131t55 -96t84 -59.5t107 -20.5q39 0 65.5 6t45.5 13l35 13q16 6 32 6q18 0 33 -7t25 -19t15.5 -27.5t5.5 -32.5q0 -26 -9 -46t-26 -38q-15 -15 -39.5 -29t-58 -25t-76 -18t-92.5 -8l-18 -70q39 -4 72 -16.5t56.5 -34t36.5 -52t13 -69.5 q0 -47 -19.5 -89t-58 -73.5t-95 -49.5t-130.5 -18q-43 0 -72 7t-46.5 18.5t-25 26.5t-7.5 32q0 27 16 44t45 17q14 0 29 -1.5t34 -1.5q36 0 59 6t37 16t19.5 23t5.5 27q0 26 -17 41t-58 15h-26q-25 0 -35.5 15t-2.5 46l38 157q-81 19 -145.5 60.5t-110 102t-69.5 139.5 t-24 172z" />
<glyph unicode="&#xe8;" horiz-adv-x="1102" d="M84 475q0 133 37.5 237.5t104.5 176.5t160.5 110t205.5 38q96 0 174 -30t133 -86.5t85 -137.5t30 -184q0 -75 -34.5 -111t-98.5 -36h-526v-2q6 -62 28 -110t58.5 -81t87.5 -50t114 -17q52 0 89.5 7t65.5 15l49 16q22 7 41 7t34 -7t25.5 -18.5t16 -26.5t5.5 -32 q0 -25 -8 -43.5t-26 -36.5q-15 -15 -44 -31.5t-71.5 -30t-99 -22.5t-125.5 -9q-119 0 -214 34.5t-161 99t-101 156t-35 205.5zM271 1420q0 25 11.5 48t30.5 41t42.5 29t46.5 11q12 0 21.5 -2.5t18.5 -8t18 -14t18 -20.5l174 -216q12 -15 21 -28t9 -31q0 -17 -7 -33t-20 -29 t-30 -20.5t-36 -7.5q-14 0 -28 5.5t-31 19.5l-208 179q-9 7 -18 15t-16.5 17t-12 20t-4.5 25zM358 626h403q-13 112 -60.5 165t-134.5 53q-36 0 -69 -12.5t-60.5 -39t-47.5 -67.5t-31 -99z" />
<glyph unicode="&#xe9;" horiz-adv-x="1102" d="M84 475q0 133 37.5 237.5t104.5 176.5t160.5 110t205.5 38q96 0 174 -30t133 -86.5t85 -137.5t30 -184q0 -75 -34.5 -111t-98.5 -36h-526v-2q6 -62 28 -110t58.5 -81t87.5 -50t114 -17q52 0 89.5 7t65.5 15l49 16q22 7 41 7t34 -7t25.5 -18.5t16 -26.5t5.5 -32 q0 -25 -8 -43.5t-26 -36.5q-15 -15 -44 -31.5t-71.5 -30t-99 -22.5t-125.5 -9q-119 0 -214 34.5t-161 99t-101 156t-35 205.5zM358 626h403q-13 112 -60.5 165t-134.5 53q-36 0 -69 -12.5t-60.5 -39t-47.5 -67.5t-31 -99zM431 1229q0 18 9 31t21 28l174 216q19 24 36 34.5 t40 10.5t46.5 -11t42 -29t30.5 -41t12 -48q0 -14 -4.5 -25t-12 -20t-16.5 -17t-18 -15l-208 -179q-17 -14 -31 -19.5t-28 -5.5q-20 0 -36.5 7.5t-29.5 20.5t-20 29t-7 33z" />
<glyph unicode="&#xea;" horiz-adv-x="1102" d="M84 475q0 133 37.5 237.5t104.5 176.5t160.5 110t205.5 38q96 0 174 -30t133 -86.5t85 -137.5t30 -184q0 -75 -34.5 -111t-98.5 -36h-526v-2q6 -62 28 -110t58.5 -81t87.5 -50t114 -17q52 0 89.5 7t65.5 15l49 16q22 7 41 7t34 -7t25.5 -18.5t16 -26.5t5.5 -32 q0 -25 -8 -43.5t-26 -36.5q-15 -15 -44 -31.5t-71.5 -30t-99 -22.5t-125.5 -9q-119 0 -214 34.5t-161 99t-101 156t-35 205.5zM246 1225q0 16 8 29t23 29l191 197q22 22 45 34.5t52 12.5t53.5 -12t44.5 -34l183 -190q17 -18 25 -31t8 -28q0 -18 -7.5 -34t-20 -28 t-28.5 -19.5t-34 -7.5q-15 0 -28 5t-31 19l-172 137l-174 -138q-17 -13 -29 -18.5t-26 -5.5q-17 0 -32 7t-26 18t-18 26t-7 32zM358 626h403q-13 112 -60.5 165t-134.5 53q-36 0 -69 -12.5t-60.5 -39t-47.5 -67.5t-31 -99z" />
<glyph unicode="&#xeb;" horiz-adv-x="1102" d="M84 475q0 133 37.5 237.5t104.5 176.5t160.5 110t205.5 38q96 0 174 -30t133 -86.5t85 -137.5t30 -184q0 -75 -34.5 -111t-98.5 -36h-526v-2q6 -62 28 -110t58.5 -81t87.5 -50t114 -17q52 0 89.5 7t65.5 15l49 16q22 7 41 7t34 -7t25.5 -18.5t16 -26.5t5.5 -32 q0 -25 -8 -43.5t-26 -36.5q-15 -15 -44 -31.5t-71.5 -30t-99 -22.5t-125.5 -9q-119 0 -214 34.5t-161 99t-101 156t-35 205.5zM196 1315q0 31 11.5 58.5t32 47.5t48 31.5t60.5 11.5t60.5 -11t47 -30t30.5 -46t11 -58q0 -32 -11.5 -59t-31.5 -47.5t-48 -32t-61 -11.5t-60 11 t-47 30.5t-31 46t-11 58.5zM358 626h403q-13 112 -60.5 165t-134.5 53q-36 0 -69 -12.5t-60.5 -39t-47.5 -67.5t-31 -99zM627 1315q0 31 11.5 58.5t32 47.5t48.5 31.5t61 11.5t60 -11t46.5 -30t30.5 -46t11 -58q0 -32 -11.5 -59t-31.5 -47.5t-47.5 -32t-60.5 -11.5t-60.5 11 t-47.5 30.5t-31 46t-11 58.5z" />
<glyph unicode="&#xec;" horiz-adv-x="565" d="M47 1420q0 25 11.5 48t30.5 41t42.5 29t46.5 11q12 0 21.5 -2.5t18.5 -8t18 -14t18 -20.5l174 -216q12 -15 21 -28t9 -31q0 -17 -7 -33t-20 -29t-30 -20.5t-36 -7.5q-14 0 -28 5.5t-31 19.5l-208 179q-9 7 -18 15t-16.5 17t-12 20t-4.5 25zM147 113v791q0 57 33.5 88.5 t102.5 31.5t102.5 -31.5t33.5 -88.5v-791q0 -57 -33.5 -88.5t-102.5 -31.5t-102.5 31.5t-33.5 88.5z" />
<glyph unicode="&#xed;" horiz-adv-x="565" d="M105 1229q0 18 9 31t21 28l174 216q19 24 36 34.5t40 10.5t46.5 -11t42 -29t30.5 -41t12 -48q0 -14 -4.5 -25t-12 -20t-16.5 -17t-18 -15l-208 -179q-17 -14 -31 -19.5t-28 -5.5q-20 0 -36.5 7.5t-29.5 20.5t-20 29t-7 33zM147 113v791q0 57 33.5 88.5t102.5 31.5 t102.5 -31.5t33.5 -88.5v-791q0 -57 -33.5 -88.5t-102.5 -31.5t-102.5 31.5t-33.5 88.5z" />
<glyph unicode="&#xee;" horiz-adv-x="565" d="M-11 1222q0 17 8 31.5t23 31.5l160 185q24 27 48 42.5t60 15.5q18 0 33 -4t28 -11t24.5 -18t23.5 -24l161 -188q14 -17 20 -28.5t6 -26.5q0 -17 -7.5 -32.5t-20.5 -27t-29 -18.5t-34 -7q-17 0 -31.5 6.5t-32.5 22.5l-148 132l-149 -132q-17 -16 -31 -22.5t-31 -6.5 q-16 0 -30.5 6.5t-26 17t-18 25t-6.5 30.5zM147 113v791q0 57 33.5 88.5t102.5 31.5t102.5 -31.5t33.5 -88.5v-791q0 -57 -33.5 -88.5t-102.5 -31.5t-102.5 31.5t-33.5 88.5z" />
<glyph unicode="&#xef;" horiz-adv-x="565" d="M-67 1315q0 31 11.5 58t31.5 46.5t47.5 31t59.5 11.5t59 -10.5t46.5 -29.5t30 -45.5t10.5 -57.5q0 -32 -11 -59t-31 -46.5t-47.5 -31t-59.5 -11.5t-59 10.5t-46.5 30t-30.5 45.5t-11 58zM147 113v791q0 57 33.5 88.5t102.5 31.5t102.5 -31.5t33.5 -88.5v-791 q0 -57 -33.5 -88.5t-102.5 -31.5t-102.5 31.5t-33.5 88.5zM341 1315q0 31 11.5 58t31.5 46.5t47.5 31t59.5 11.5t59 -10.5t46.5 -29.5t30 -45.5t10.5 -57.5q0 -32 -11 -59t-31 -46.5t-47.5 -31t-59.5 -11.5t-59 10.5t-46.5 30t-30.5 45.5t-11 58z" />
<glyph unicode="&#xf0;" horiz-adv-x="1172" d="M82 465q0 87 20 159.5t55.5 131.5t84.5 103t107.5 74t124.5 45t136 15q26 0 45 -2.5t33 -5.5q16 -4 27 -8q-26 51 -60.5 98t-76.5 83l-118 -90q-28 -21 -56 -21q-18 0 -34 7.5t-28 19.5t-19 28.5t-7 34.5q0 24 11.5 40t34.5 33l79 60q-23 14 -41 22l-34 16l-26 12 q-11 6 -19 14q-10 10 -15.5 23t-5.5 31q0 20 9 38.5t26.5 33t43.5 23.5t60 9q22 0 48 -6t53.5 -16.5t54.5 -24t52 -29.5l117 88q27 21 56 21q17 0 33 -7.5t28 -19.5t19 -28.5t7 -34.5q0 -23 -10.5 -38.5t-33.5 -33.5l-74 -57q69 -63 123.5 -140t92.5 -166t58 -188.5 t20 -207.5q0 -159 -36.5 -276.5t-104 -194.5t-163.5 -115t-215 -38q-112 0 -201 33.5t-151.5 96t-96 152.5t-33.5 203zM359 485q0 -75 17 -130.5t47 -92.5t71 -55t89 -18q49 0 91.5 20.5t74 64.5t49.5 114.5t18 170.5q0 51 -5.5 100t-14.5 94q-19 9 -44 17q-22 7 -52.5 12.5 t-71.5 5.5q-60 0 -109.5 -20t-85 -58.5t-55 -95t-19.5 -129.5z" />
<glyph unicode="&#xf1;" horiz-adv-x="1225" d="M147 113v801q0 55 29 84t84 29q27 0 47.5 -6.5t35.5 -19t24 -30.5t12 -40l8 -51h4q29 44 73 78q19 15 43 29t54 25t65.5 17.5t77.5 6.5q88 0 159 -27t121 -80t76.5 -130.5t26.5 -178.5v-507q0 -57 -33.5 -88.5t-102.5 -31.5t-102.5 31.5t-33.5 88.5v475q0 61 -12.5 105 t-36 72t-57.5 41t-77 13q-27 0 -50 -6.5t-43.5 -16.5t-37 -23.5t-29.5 -26.5q-32 -33 -53 -73v-560q0 -57 -33.5 -88.5t-102.5 -31.5t-102.5 31.5t-33.5 88.5zM231 1269q0 33 18.5 68t51.5 64t79.5 47.5t102.5 18.5q52 0 89.5 -16t68.5 -35l56 -34q26 -16 55 -16 q30 0 48.5 13t34 29t32.5 29t43 13q16 0 30.5 -5.5t25.5 -16t17.5 -25.5t6.5 -35q0 -33 -18.5 -68t-52 -64t-80 -48t-101.5 -19q-52 0 -90 16t-68 35l-57 34q-26 16 -54 16q-30 0 -48.5 -13t-34.5 -29t-32.5 -29t-42.5 -13q-16 0 -30.5 5.5t-25.5 16t-17.5 26t-6.5 35.5z " />
<glyph unicode="&#xf2;" horiz-adv-x="1213" d="M84 491q0 128 37 229.5t106.5 172t168.5 107.5t223 37q115 0 208.5 -36.5t160.5 -103.5t103.5 -161.5t36.5 -209.5q0 -128 -37 -229.5t-106 -172t-168 -107.5t-223 -37q-115 0 -209 36.5t-161 103.5t-103.5 161t-36.5 210zM322 1420q0 25 11.5 48t30.5 41t42.5 29 t46.5 11q12 0 21.5 -2.5t18.5 -8t18 -14t18 -20.5l174 -216q12 -15 21 -28t9 -31q0 -17 -7 -33t-20 -29t-30 -20.5t-36 -7.5q-14 0 -28 5.5t-31 19.5l-208 179q-9 7 -18 15t-16.5 17t-12 20t-4.5 25zM361 511q0 -80 19.5 -140t53 -100.5t78.5 -61t97 -20.5q51 0 95.5 20 t77.5 59.5t51.5 99t18.5 139.5q0 79 -19.5 139t-53 100.5t-78.5 61t-96 20.5q-52 0 -96.5 -20t-77.5 -59.5t-51.5 -99t-18.5 -138.5z" />
<glyph unicode="&#xf3;" horiz-adv-x="1213" d="M84 491q0 128 37 229.5t106.5 172t168.5 107.5t223 37q115 0 208.5 -36.5t160.5 -103.5t103.5 -161.5t36.5 -209.5q0 -128 -37 -229.5t-106 -172t-168 -107.5t-223 -37q-115 0 -209 36.5t-161 103.5t-103.5 161t-36.5 210zM361 511q0 -80 19.5 -140t53 -100.5t78.5 -61 t97 -20.5q51 0 95.5 20t77.5 59.5t51.5 99t18.5 139.5q0 79 -19.5 139t-53 100.5t-78.5 61t-96 20.5q-52 0 -96.5 -20t-77.5 -59.5t-51.5 -99t-18.5 -138.5zM465 1229q0 18 9 31t21 28l174 216q19 24 36 34.5t40 10.5t46.5 -11t42 -29t30.5 -41t12 -48q0 -14 -4.5 -25 t-12 -20t-16.5 -17t-18 -15l-208 -179q-17 -14 -31 -19.5t-28 -5.5q-20 0 -36.5 7.5t-29.5 20.5t-20 29t-7 33z" />
<glyph unicode="&#xf4;" horiz-adv-x="1213" d="M84 491q0 128 37 229.5t106.5 172t168.5 107.5t223 37q115 0 208.5 -36.5t160.5 -103.5t103.5 -161.5t36.5 -209.5q0 -128 -37 -229.5t-106 -172t-168 -107.5t-223 -37q-115 0 -209 36.5t-161 103.5t-103.5 161t-36.5 210zM291 1225q0 16 8 29t23 29l191 197 q22 22 45 34.5t52 12.5t53.5 -12t44.5 -34l183 -190q17 -18 25 -31t8 -28q0 -18 -7.5 -34t-20 -28t-28.5 -19.5t-34 -7.5q-15 0 -28 5t-31 19l-172 137l-174 -138q-17 -13 -29 -18.5t-26 -5.5q-17 0 -32 7t-26 18t-18 26t-7 32zM361 511q0 -80 19.5 -140t53 -100.5t78.5 -61 t97 -20.5q51 0 95.5 20t77.5 59.5t51.5 99t18.5 139.5q0 79 -19.5 139t-53 100.5t-78.5 61t-96 20.5q-52 0 -96.5 -20t-77.5 -59.5t-51.5 -99t-18.5 -138.5z" />
<glyph unicode="&#xf5;" horiz-adv-x="1213" d="M84 491q0 128 37 229.5t106.5 172t168.5 107.5t223 37q115 0 208.5 -36.5t160.5 -103.5t103.5 -161.5t36.5 -209.5q0 -128 -37 -229.5t-106 -172t-168 -107.5t-223 -37q-115 0 -209 36.5t-161 103.5t-103.5 161t-36.5 210zM224 1269q0 33 18.5 68t51.5 64t79.5 47.5 t102.5 18.5q52 0 89.5 -16t68.5 -35l56 -34q26 -16 55 -16q30 0 48.5 13t34 29t32.5 29t43 13q16 0 30.5 -5.5t25.5 -16t17.5 -25.5t6.5 -35q0 -33 -18.5 -68t-52 -64t-80 -48t-101.5 -19q-52 0 -90 16t-68 35l-57 34q-26 16 -54 16q-30 0 -48.5 -13t-34.5 -29t-32.5 -29 t-42.5 -13q-16 0 -30.5 5.5t-25.5 16t-17.5 26t-6.5 35.5zM361 511q0 -80 19.5 -140t53 -100.5t78.5 -61t97 -20.5q51 0 95.5 20t77.5 59.5t51.5 99t18.5 139.5q0 79 -19.5 139t-53 100.5t-78.5 61t-96 20.5q-52 0 -96.5 -20t-77.5 -59.5t-51.5 -99t-18.5 -138.5z" />
<glyph unicode="&#xf6;" horiz-adv-x="1213" d="M84 491q0 128 37 229.5t106.5 172t168.5 107.5t223 37q115 0 208.5 -36.5t160.5 -103.5t103.5 -161.5t36.5 -209.5q0 -128 -37 -229.5t-106 -172t-168 -107.5t-223 -37q-115 0 -209 36.5t-161 103.5t-103.5 161t-36.5 210zM237 1315q0 31 11.5 58.5t32 47.5t48 31.5 t60.5 11.5t60.5 -11t47 -30t30.5 -46t11 -58q0 -32 -11.5 -59t-31.5 -47.5t-48 -32t-61 -11.5t-60 11t-47 30.5t-31 46t-11 58.5zM361 511q0 -80 19.5 -140t53 -100.5t78.5 -61t97 -20.5q51 0 95.5 20t77.5 59.5t51.5 99t18.5 139.5q0 79 -19.5 139t-53 100.5t-78.5 61 t-96 20.5q-52 0 -96.5 -20t-77.5 -59.5t-51.5 -99t-18.5 -138.5zM668 1315q0 31 11.5 58.5t32 47.5t48.5 31.5t61 11.5t60 -11t46.5 -30t30.5 -46t11 -58q0 -32 -11.5 -59t-31.5 -47.5t-47.5 -32t-60.5 -11.5t-60.5 11t-47.5 30.5t-31 46t-11 58.5z" />
<glyph unicode="&#xf7;" d="M137 584q0 46 24.5 73t68.5 27h707q44 0 69 -27t25 -73t-25 -73t-69 -27h-707q-44 0 -68.5 27t-24.5 73zM445 239q0 30 10.5 55t29.5 44t44.5 29.5t54.5 10.5q30 0 55.5 -10.5t44 -29.5t29 -44t10.5 -55t-10.5 -55t-29 -44t-44 -29.5t-55.5 -10.5q-29 0 -54.5 10.5 t-44.5 29.5t-29.5 44t-10.5 55zM445 928q0 30 10.5 55t29.5 44t44 29.5t55 10.5t55 -10.5t44 -29.5t29.5 -44t10.5 -55q0 -29 -10.5 -54.5t-29.5 -44t-44 -29t-55 -10.5t-55 10.5t-44 29t-29.5 44t-10.5 54.5z" />
<glyph unicode="&#xf8;" horiz-adv-x="1223" d="M85 491q0 128 37 229.5t107 172t169.5 107.5t225.5 37q46 0 89.5 -6.5t81.5 -20.5l82 137q17 27 36 41t48 14q21 0 40.5 -7.5t35.5 -21t25.5 -31.5t9.5 -38q0 -12 -4.5 -25t-13.5 -29l-79 -132q78 -68 120.5 -167.5t42.5 -224.5q0 -128 -37 -229.5t-107 -172 t-169.5 -107.5t-225.5 -37q-46 0 -89 7t-82 20l-80 -134q-17 -29 -36.5 -42.5t-48.5 -13.5q-20 0 -40 7.5t-36 21t-25.5 31.5t-9.5 38q0 12 4.5 25t13.5 29l77 129q-78 68 -120 168t-42 225zM338 511q0 -63 13 -111.5t36 -85.5l305 511q-15 8 -37 13.5t-45 5.5 q-60 0 -110 -20t-86 -61.5t-56 -104t-20 -147.5zM531 192q19 -10 40 -14.5t43 -4.5q60 0 110 20t86 61.5t55.5 104t19.5 148.5q0 62 -13 110.5t-35 85.5z" />
<glyph unicode="&#xf9;" horiz-adv-x="1221" d="M139 397v507q0 57 33 88.5t103 31.5q69 0 102.5 -31.5t33.5 -88.5v-475q0 -122 47.5 -176.5t130.5 -54.5q27 0 50 6t43 16.5t36.5 23.5t30.5 27q31 32 53 73v560q0 57 33.5 88.5t102.5 31.5q70 0 103 -31.5t33 -88.5v-801q0 -55 -29 -84t-84 -29q-27 0 -47.5 6.5t-35 19 t-23.5 30.5t-13 41l-8 50h-4q-29 -44 -73 -78q-19 -15 -43 -29t-54 -25t-65.5 -17.5t-77.5 -6.5q-87 0 -156.5 27t-119 80t-76 130.5t-26.5 178.5zM302 1420q0 25 11.5 48t30.5 41t42.5 29t46.5 11q12 0 21.5 -2.5t18.5 -8t18 -14t18 -20.5l174 -216q12 -15 21 -28t9 -31 q0 -17 -7 -33t-20 -29t-30 -20.5t-36 -7.5q-14 0 -28 5.5t-31 19.5l-208 179q-9 7 -18 15t-16.5 17t-12 20t-4.5 25z" />
<glyph unicode="&#xfa;" horiz-adv-x="1221" d="M139 397v507q0 57 33 88.5t103 31.5q69 0 102.5 -31.5t33.5 -88.5v-475q0 -122 47.5 -176.5t130.5 -54.5q27 0 50 6t43 16.5t36.5 23.5t30.5 27q31 32 53 73v560q0 57 33.5 88.5t102.5 31.5q70 0 103 -31.5t33 -88.5v-801q0 -55 -29 -84t-84 -29q-27 0 -47.5 6.5t-35 19 t-23.5 30.5t-13 41l-8 50h-4q-29 -44 -73 -78q-19 -15 -43 -29t-54 -25t-65.5 -17.5t-77.5 -6.5q-87 0 -156.5 27t-119 80t-76 130.5t-26.5 178.5zM472 1229q0 18 9 31t21 28l174 216q19 24 36 34.5t40 10.5t46.5 -11t42 -29t30.5 -41t12 -48q0 -14 -4.5 -25t-12 -20 t-16.5 -17t-18 -15l-208 -179q-17 -14 -31 -19.5t-28 -5.5q-20 0 -36.5 7.5t-29.5 20.5t-20 29t-7 33z" />
<glyph unicode="&#xfb;" horiz-adv-x="1221" d="M139 397v507q0 57 33 88.5t103 31.5q69 0 102.5 -31.5t33.5 -88.5v-475q0 -122 47.5 -176.5t130.5 -54.5q27 0 50 6t43 16.5t36.5 23.5t30.5 27q31 32 53 73v560q0 57 33.5 88.5t102.5 31.5q70 0 103 -31.5t33 -88.5v-801q0 -55 -29 -84t-84 -29q-27 0 -47.5 6.5t-35 19 t-23.5 30.5t-13 41l-8 50h-4q-29 -44 -73 -78q-19 -15 -43 -29t-54 -25t-65.5 -17.5t-77.5 -6.5q-87 0 -156.5 27t-119 80t-76 130.5t-26.5 178.5zM291 1225q0 16 8 29t23 29l191 197q22 22 45 34.5t52 12.5t53.5 -12t44.5 -34l183 -190q17 -18 25 -31t8 -28q0 -18 -7.5 -34 t-20 -28t-28.5 -19.5t-34 -7.5q-15 0 -28 5t-31 19l-172 137l-174 -138q-17 -13 -29 -18.5t-26 -5.5q-17 0 -32 7t-26 18t-18 26t-7 32z" />
<glyph unicode="&#xfc;" horiz-adv-x="1221" d="M139 397v507q0 57 33 88.5t103 31.5q69 0 102.5 -31.5t33.5 -88.5v-475q0 -122 47.5 -176.5t130.5 -54.5q27 0 50 6t43 16.5t36.5 23.5t30.5 27q31 32 53 73v560q0 57 33.5 88.5t102.5 31.5q70 0 103 -31.5t33 -88.5v-801q0 -55 -29 -84t-84 -29q-27 0 -47.5 6.5t-35 19 t-23.5 30.5t-13 41l-8 50h-4q-29 -44 -73 -78q-19 -15 -43 -29t-54 -25t-65.5 -17.5t-77.5 -6.5q-87 0 -156.5 27t-119 80t-76 130.5t-26.5 178.5zM239 1315q0 31 11.5 58.5t32 47.5t48 31.5t60.5 11.5t60.5 -11t47 -30t30.5 -46t11 -58q0 -32 -11.5 -59t-31.5 -47.5 t-48 -32t-61 -11.5t-60 11t-47 30.5t-31 46t-11 58.5zM670 1315q0 31 11.5 58.5t32 47.5t48.5 31.5t61 11.5t60 -11t46.5 -30t30.5 -46t11 -58q0 -32 -11.5 -59t-31.5 -47.5t-47.5 -32t-60.5 -11.5t-60.5 11t-47.5 30.5t-31 46t-11 58.5z" />
<glyph unicode="&#xfd;" horiz-adv-x="1061" d="M-59 -353q0 42 25 66.5t68 24.5q14 0 25.5 -1t22 -2.5t21.5 -2.5t25 -1q40 0 75.5 14t66.5 41t58.5 67.5t52.5 94.5l-318 872q-13 35 -16.5 51.5t-3.5 30.5q0 30 14 53t36 39t48.5 24.5t52.5 8.5q29 0 48.5 -9t33.5 -24q14 -14 21.5 -34t19.5 -55l176 -527q10 -29 18 -57 t13 -50l11 -49h4q6 23 12 49q5 22 12.5 50t17.5 57l173 533q10 30 18 50.5t21 34.5q14 15 34.5 23t48.5 8q25 0 50.5 -7.5t46 -22t33.5 -36t13 -49.5q0 -14 -3.5 -29t-14.5 -46l-259 -700q-61 -164 -126 -281.5t-139 -192.5t-160.5 -110.5t-190.5 -35.5q-53 0 -91.5 12.5 t-60.5 34.5q-33 33 -33 83zM426 1229q0 18 9 31t21 28l174 216q19 24 36 34.5t40 10.5t46.5 -11t42 -29t30.5 -41t12 -48q0 -14 -4.5 -25t-12 -20t-16.5 -17t-18 -15l-208 -179q-17 -14 -31 -19.5t-28 -5.5q-20 0 -36.5 7.5t-29.5 20.5t-20 29t-7 33z" />
<glyph unicode="&#xfe;" horiz-adv-x="1204" d="M147 -358v1720q0 57 33.5 88.5t102.5 31.5t102.5 -31.5t33.5 -88.5v-301q0 -39 -2 -75.5t-7 -78.5h3q28 36 70 64q18 12 40.5 23.5t49.5 21t59.5 15t69.5 5.5q94 0 170.5 -31.5t131.5 -94t85 -156t30 -218.5q0 -131 -38 -234.5t-110.5 -175t-178.5 -109t-242 -37.5 q-29 0 -53 2.5t-41 5.5q-20 4 -37 8l-3 -1q2 -26 2.5 -52.5t0.5 -55.5v-245q0 -57 -33.5 -88.5t-102.5 -31.5t-102.5 31.5t-33.5 88.5zM419 219q17 -9 40 -16q20 -6 49 -11t67 -5q60 0 109 20.5t84.5 61.5t55 103t19.5 145q0 82 -15 139.5t-42.5 93.5t-66 52.5t-85.5 16.5 q-27 0 -50.5 -6.5t-44 -16.5t-37.5 -23.5t-30 -26.5q-32 -33 -53 -73v-454z" />
<glyph unicode="&#xff;" horiz-adv-x="1061" d="M-59 -353q0 42 25 66.5t68 24.5q14 0 25.5 -1t22 -2.5t21.5 -2.5t25 -1q40 0 75.5 14t66.5 41t58.5 67.5t52.5 94.5l-318 872q-13 35 -16.5 51.5t-3.5 30.5q0 30 14 53t36 39t48.5 24.5t52.5 8.5q29 0 48.5 -9t33.5 -24q14 -14 21.5 -34t19.5 -55l176 -527q10 -29 18 -57 t13 -50l11 -49h4q6 23 12 49q5 22 12.5 50t17.5 57l173 533q10 30 18 50.5t21 34.5q14 15 34.5 23t48.5 8q25 0 50.5 -7.5t46 -22t33.5 -36t13 -49.5q0 -14 -3.5 -29t-14.5 -46l-259 -700q-61 -164 -126 -281.5t-139 -192.5t-160.5 -110.5t-190.5 -35.5q-53 0 -91.5 12.5 t-60.5 34.5q-33 33 -33 83zM172 1315q0 31 11.5 58.5t32 47.5t48 31.5t60.5 11.5t60.5 -11t47 -30t30.5 -46t11 -58q0 -32 -11.5 -59t-31.5 -47.5t-48 -32t-61 -11.5t-60 11t-47 30.5t-31 46t-11 58.5zM603 1315q0 31 11.5 58.5t32 47.5t48.5 31.5t61 11.5t60 -11t46.5 -30 t30.5 -46t11 -58q0 -32 -11.5 -59t-31.5 -47.5t-47.5 -32t-60.5 -11.5t-60.5 11t-47.5 30.5t-31 46t-11 58.5z" />
<glyph unicode="&#x152;" horiz-adv-x="1886" d="M91 670q0 171 49 306.5t139 229.5t217 143.5t283 49.5q67 0 121.5 -5.5t108.5 -15.5h700q44 0 69.5 -27t25.5 -81t-25.5 -81.5t-69.5 -27.5h-465v-351h397q43 0 68 -27t25 -79q0 -53 -25 -80t-68 -27h-397v-380h470q43 0 68.5 -27.5t25.5 -81.5t-25.5 -81t-68.5 -27h-718 q-55 -9 -114.5 -14.5t-127.5 -5.5q-151 0 -273.5 47t-209 136t-133.5 217t-47 290zM377 691q0 -120 30 -212t83.5 -154.5t127 -94t160.5 -31.5q58 0 102 7t85 20v920q-40 16 -86.5 24.5t-104.5 8.5q-86 0 -159 -31.5t-126 -93t-82.5 -152.5t-29.5 -211z" />
<glyph unicode="&#x153;" horiz-adv-x="1871" d="M84 491q0 128 37 229.5t106.5 172t168.5 107.5t223 37q70 0 128 -13.5t103.5 -37t80.5 -54.5t59 -67q28 37 65 68.5t83 54.5t102 36t121 13q96 0 174 -30t133 -86.5t85 -137.5t30 -184q0 -75 -34.5 -111t-98.5 -36h-526v-2q6 -62 28 -110t58.5 -81t87.5 -50t114 -17 q52 0 89.5 7t65.5 16l50 15q21 7 40 7t34 -7t25.5 -18.5t16 -26.5t5.5 -32q0 -25 -8 -43.5t-26 -36.5q-15 -15 -44 -31.5t-71.5 -30t-99 -22.5t-125.5 -9q-67 0 -124 11.5t-105.5 33t-88 52t-70.5 68.5q-30 -38 -68.5 -68.5t-86 -52t-104 -33t-123.5 -11.5q-115 0 -209 36.5 t-161 103.5t-103.5 161t-36.5 210zM361 511q0 -80 19.5 -140t53 -100.5t78.5 -61t97 -20.5q51 0 95.5 20t77.5 59.5t51.5 99t18.5 139.5q0 79 -19.5 139t-53 100.5t-78.5 61t-96 20.5q-52 0 -96.5 -20t-77.5 -59.5t-51.5 -99t-18.5 -138.5zM1127 626h403q-13 112 -60.5 165 t-134.5 53q-36 0 -69 -12.5t-60.5 -39t-47.5 -67.5t-31 -99z" />
<glyph unicode="&#x178;" horiz-adv-x="1149" d="M28 1247q0 32 14.5 58t37.5 44.5t50.5 28.5t53.5 10q29 0 48.5 -9.5t32.5 -22.5q12 -12 23 -29.5t29 -49.5l216 -384q11 -20 20 -39t17 -34q9 -18 16 -34h4l15 35l16 36q9 20 20 40l204 379q18 34 27.5 50.5t22.5 29.5q15 15 35.5 23.5t43.5 8.5q27 0 53.5 -10t47 -27.5 t33.5 -41t13 -51.5q0 -26 -11 -48.5t-30 -54.5l-369 -620v-419q0 -59 -34 -91t-106 -32q-71 0 -105 32t-34 91v419l-361 604l-18 30q-8 14 -13.5 27t-8.5 25t-3 26zM204 1656q0 32 11.5 59.5t32 48t48.5 32t61 11.5t61 -11t47.5 -30.5t30.5 -46.5t11 -59t-11.5 -59.5 t-31.5 -48t-48.5 -32.5t-61.5 -12t-60.5 11t-47.5 31t-31 47t-11 59zM661 1656q0 32 11.5 59.5t32.5 48t49 32t61 11.5t60.5 -11t47 -30.5t30.5 -46.5t11 -59t-11.5 -59.5t-31.5 -48t-48 -32.5t-61 -12t-60.5 11t-48 31t-31.5 47t-11 59z" />
<glyph unicode="&#x2c6;" horiz-adv-x="1024" d="M194 1225q0 16 8 29t23 29l191 197q22 22 45 34.5t52 12.5t53.5 -12t44.5 -34l183 -190q17 -18 25 -31t8 -28q0 -18 -7.5 -34t-20 -28t-28.5 -19.5t-34 -7.5q-15 0 -28 5t-31 19l-172 137l-174 -138q-17 -13 -29 -18.5t-26 -5.5q-17 0 -32 7t-26 18t-18 26t-7 32z" />
<glyph unicode="&#x2dc;" horiz-adv-x="1024" d="M130 1269q0 33 18.5 68t51.5 64t79.5 47.5t102.5 18.5q52 0 89.5 -16t68.5 -35l56 -34q26 -16 55 -16q30 0 48.5 13t34 29t32.5 29t43 13q16 0 30.5 -5.5t25.5 -16t17.5 -25.5t6.5 -35q0 -33 -18.5 -68t-52 -64t-80 -48t-101.5 -19q-52 0 -90 16t-69 35l-56 34 q-26 16 -54 16q-30 0 -48.5 -13t-34.5 -29t-32.5 -29t-42.5 -13q-16 0 -30.5 5.5t-25.5 16t-17.5 26t-6.5 35.5z" />
<glyph unicode="&#x2000;" horiz-adv-x="984" />
<glyph unicode="&#x2001;" horiz-adv-x="1969" />
<glyph unicode="&#x2002;" horiz-adv-x="984" />
<glyph unicode="&#x2003;" horiz-adv-x="1969" />
<glyph unicode="&#x2004;" horiz-adv-x="656" />
<glyph unicode="&#x2005;" horiz-adv-x="492" />
<glyph unicode="&#x2006;" horiz-adv-x="328" />
<glyph unicode="&#x2007;" horiz-adv-x="328" />
<glyph unicode="&#x2008;" horiz-adv-x="246" />
<glyph unicode="&#x2009;" horiz-adv-x="393" />
<glyph unicode="&#x200a;" horiz-adv-x="109" />
<glyph unicode="&#x2010;" horiz-adv-x="937" d="M127 549q0 51 24.5 77.5t66.5 26.5h500q42 0 66.5 -26.5t24.5 -77.5q0 -52 -24.5 -79t-66.5 -27h-500q-42 0 -66.5 27t-24.5 79z" />
<glyph unicode="&#x2011;" horiz-adv-x="937" d="M127 549q0 51 24.5 77.5t66.5 26.5h500q42 0 66.5 -26.5t24.5 -77.5q0 -52 -24.5 -79t-66.5 -27h-500q-42 0 -66.5 27t-24.5 79z" />
<glyph unicode="&#x2012;" horiz-adv-x="937" d="M127 549q0 51 24.5 77.5t66.5 26.5h500q42 0 66.5 -26.5t24.5 -77.5q0 -52 -24.5 -79t-66.5 -27h-500q-42 0 -66.5 27t-24.5 79z" />
<glyph unicode="&#x2013;" d="M0 548q0 52 24.5 78.5t66.5 26.5h986q42 0 66.5 -26.5t24.5 -78.5q0 -51 -24.5 -78t-66.5 -27h-986q-42 0 -66.5 27t-24.5 78z" />
<glyph unicode="&#x2014;" horiz-adv-x="2048" d="M154 548q0 52 24 78.5t66 26.5h1560q42 0 66 -26.5t24 -78.5q0 -51 -24 -78t-66 -27h-1560q-42 0 -66 27t-24 78z" />
<glyph unicode="&#x2018;" horiz-adv-x="600" d="M132 1032q0 54 11.5 103t29.5 91.5t40 79t44 64.5q45 57 93.5 91t95.5 34q38 0 58.5 -20t20.5 -52q0 -24 -15 -43l-39 -46q-23 -27 -48.5 -67.5t-44.5 -105.5q16 -7 32.5 -19.5t30 -31t21.5 -43.5t8 -56q0 -37 -13 -68t-36.5 -54t-55 -36t-68.5 -13t-67.5 13t-52 38 t-33.5 60.5t-12 80.5z" />
<glyph unicode="&#x2019;" horiz-adv-x="600" d="M75 911q0 24 15 44l38 46q23 27 48.5 67.5t44.5 105.5q-16 7 -32.5 19.5t-29.5 31t-21 43t-8 56.5q0 37 13 68t36 54t54.5 36t68.5 13t68 -13t52.5 -38t33.5 -60.5t12 -80.5q0 -54 -11.5 -103t-29.5 -91.5t-40.5 -79t-43.5 -64.5q-45 -58 -93.5 -91.5t-95.5 -33.5 q-38 0 -58.5 20t-20.5 51z" />
<glyph unicode="&#x201a;" horiz-adv-x="600" d="M75 -262q0 24 15 44l38 46q23 27 48.5 67.5t44.5 105.5q-16 7 -32.5 19.5t-29.5 31t-21 43t-8 56.5q0 36 13 67.5t36 54.5t54.5 36t68.5 13t68 -13t52.5 -38t33.5 -60.5t12 -80.5q0 -54 -11.5 -103t-29.5 -91.5t-40.5 -79t-43.5 -64.5q-45 -58 -93.5 -91.5t-95.5 -33.5 q-38 0 -58.5 19.5t-20.5 51.5z" />
<glyph unicode="&#x201c;" horiz-adv-x="1074" d="M132 1032q0 54 11.5 103t29.5 91.5t40 79t44 64.5q45 57 93.5 91t95.5 34q38 0 58.5 -20t20.5 -52q0 -24 -16 -43l-38 -46q-23 -27 -48.5 -67.5t-44.5 -105.5q16 -7 32.5 -19.5t30 -31t21.5 -43.5t8 -56q0 -37 -13 -68t-36.5 -54t-55 -36t-68.5 -13t-67.5 13t-52 38 t-33.5 60.5t-12 80.5zM605 1032q0 54 11.5 103t29.5 91.5t40.5 79t43.5 64.5q45 57 94 91t95 34q38 0 59 -20t21 -52q0 -24 -15 -43l-39 -46q-23 -27 -48.5 -67.5t-44.5 -105.5q16 -7 32.5 -19.5t29.5 -31t21 -43.5t8 -56q0 -37 -13 -68t-36 -54t-54.5 -36t-68.5 -13 t-67.5 13t-52.5 38t-34 60.5t-12 80.5z" />
<glyph unicode="&#x201d;" horiz-adv-x="1074" d="M75 911q0 24 15 44l38 46q23 27 48.5 67.5t44.5 105.5q-16 7 -32.5 19.5t-29.5 31t-21 43t-8 56.5q0 37 13 68t36 54t54.5 36t68.5 13t68 -13t52.5 -38t33.5 -60.5t12 -80.5q0 -54 -11.5 -103t-29.5 -91.5t-40.5 -79t-43.5 -64.5q-45 -58 -93.5 -91.5t-95.5 -33.5 q-38 0 -58.5 20t-20.5 51zM549 911q0 24 15 44l38 46q23 27 48 67.5t45 105.5q-16 7 -32.5 19.5t-29.5 31t-21 43t-8 56.5q0 37 13 68t36 54t54.5 36t68.5 13t68 -13t52.5 -38t33.5 -60.5t12 -80.5q0 -54 -11.5 -103t-29.5 -91.5t-40.5 -79t-43.5 -64.5q-45 -58 -93.5 -91.5 t-95.5 -33.5q-38 0 -58.5 20t-20.5 51z" />
<glyph unicode="&#x201e;" horiz-adv-x="1074" d="M75 -262q0 24 15 44l38 46q23 27 48.5 67.5t44.5 105.5q-16 7 -32.5 19.5t-29.5 31t-21 43t-8 56.5q0 36 13 67.5t36 54.5t54.5 36t68.5 13t68 -13t52.5 -38t33.5 -60.5t12 -80.5q0 -54 -11.5 -103t-29.5 -91.5t-40.5 -79t-43.5 -64.5q-45 -58 -93.5 -91.5t-95.5 -33.5 q-38 0 -58.5 19.5t-20.5 51.5zM549 -262q0 24 15 44l38 46q23 27 48 67.5t45 105.5q-16 7 -32.5 19.5t-29.5 31t-21 43t-8 56.5q0 36 13 67.5t36 54.5t54.5 36t68.5 13t68 -13t52.5 -38t33.5 -60.5t12 -80.5q0 -54 -11.5 -103t-29.5 -91.5t-40.5 -79t-43.5 -64.5 q-45 -58 -93.5 -91.5t-95.5 -33.5q-38 0 -58.5 19.5t-20.5 51.5z" />
<glyph unicode="&#x2022;" horiz-adv-x="967" d="M197 701q0 62 21.5 115t60 91.5t91 60.5t115.5 22t115 -21t90 -59t59 -90t21 -115t-21.5 -116t-60 -91.5t-91.5 -60t-116 -21.5t-115 21t-89.5 59t-58.5 90t-21 115z" />
<glyph unicode="&#x2026;" horiz-adv-x="1778" d="M132 151q0 38 13.5 70t37 55.5t55.5 37t70 13.5q37 0 68.5 -12.5t54 -35.5t35 -54.5t12.5 -69.5t-13 -70t-36.5 -55t-55.5 -36.5t-70 -13.5t-69 12.5t-54 35.5t-35.5 54t-12.5 69zM716 151q0 38 13.5 70t36.5 55.5t55 37t70 13.5t69.5 -12.5t54.5 -35.5t36 -54.5 t13 -69.5t-13.5 -70t-37 -55t-56 -36.5t-70.5 -13.5t-69 12.5t-54 35.5t-35.5 54t-12.5 69zM1299 151q0 38 13.5 70t37 55.5t55.5 37t70 13.5t69.5 -12.5t54.5 -35.5t35.5 -54.5t12.5 -69.5t-13.5 -70t-37 -55t-55.5 -36.5t-70 -13.5t-69.5 12.5t-54.5 35.5t-35.5 54 t-12.5 69z" />
<glyph unicode="&#x202f;" horiz-adv-x="393" />
<glyph unicode="&#x2039;" horiz-adv-x="736" d="M87 508q0 32 13 56t33 47l295 310q21 23 42 37.5t49 14.5q24 0 45 -8.5t37.5 -23.5t26 -35t9.5 -42t-10.5 -40t-26.5 -37l-237 -273l242 -280q18 -21 27 -38t9 -38q0 -23 -10 -43t-27 -35t-38.5 -24t-45.5 -9q-14 0 -25.5 3t-23 9.5t-22.5 16t-23 22.5l-292 308 q-21 22 -34 47t-13 55z" />
<glyph unicode="&#x203a;" horiz-adv-x="736" d="M94 859q0 22 10 42.5t27 35.5t39 24t46 9q28 0 48.5 -12.5t45.5 -38.5l292 -308q20 -22 33.5 -47t13.5 -55q0 -32 -13 -56t-34 -47l-295 -310q-21 -23 -41.5 -37.5t-49.5 -14.5q-24 0 -45 8.5t-37.5 23.5t-26 35t-9.5 42t10.5 40t27.5 37l236 273l-242 280 q-17 21 -26.5 38t-9.5 38z" />
<glyph unicode="&#x205f;" horiz-adv-x="492" />
<glyph unicode="&#x20ac;" horiz-adv-x="1268" d="M76 526q0 39 20 61.5t62 22.5h84q-1 11 -1 20v20q0 28 1.5 56.5t3.5 54.5h-88q-42 0 -62 22.5t-20 62.5q0 39 20 61.5t62 22.5h120q31 112 87.5 198.5t133 146t171 90.5t202.5 31q56 0 103.5 -8t84.5 -20.5t64 -28t42 -30.5q20 -20 28.5 -41t8.5 -47q0 -42 -25 -67 t-67 -25q-22 0 -44 9.5t-50.5 20.5t-68 20.5t-96.5 9.5q-50 0 -96.5 -15.5t-85.5 -47.5t-70 -81t-50 -115h327q42 0 62 -22.5t20 -61.5q0 -40 -20 -62.5t-62 -22.5h-362q-2 -20 -2.5 -43t-0.5 -44q0 -18 0.5 -32.5t1.5 -31.5h363q42 0 62 -22.5t20 -61.5q0 -40 -20 -62.5 t-62 -22.5h-332q19 -64 50.5 -111t74 -77.5t95 -45.5t112.5 -15q54 0 91.5 8.5t65 18t48.5 18t43 8.5q37 0 59.5 -23t22.5 -61q0 -26 -8 -45t-27 -38q-18 -18 -49.5 -35t-74.5 -30.5t-96.5 -21.5t-114.5 -8q-110 0 -204 29.5t-168 87t-125.5 143t-76.5 198.5h-105 q-42 0 -62 22.5t-20 62.5z" />
<glyph unicode="&#x2122;" horiz-adv-x="1755" d="M25 1303q0 38 17 56.5t46 18.5h472q29 0 45.5 -18.5t16.5 -56.5q0 -37 -16.5 -56t-45.5 -19h-141v-459q0 -40 -23.5 -62t-71.5 -22t-72 22t-24 62v459h-140q-29 0 -46 19t-17 56zM683 754q0 7 0.5 16t2.5 22l56 480q7 54 42.5 82t104.5 28q35 0 60 -7t42 -21t28 -34.5 t18 -48.5l88 -296q5 -18 9 -35t7 -31q4 -16 7 -30h1q3 14 7 30q3 14 7 31t9 35l88 295q7 28 18 49.5t28.5 35t42.5 20.5t60 7q69 0 104.5 -28t42.5 -82l56 -479q2 -14 2.5 -21t0.5 -13q0 -18 -8 -31.5t-21.5 -23.5t-31.5 -15t-38 -5q-17 0 -32.5 4t-28.5 12.5t-21 21.5 t-9 30l-31 343q-2 20 -2.5 38.5t-1.5 32.5q-1 17 -1 32h-1l-118 -406q-15 -59 -44.5 -83t-83.5 -24t-83 23.5t-44 83.5l-118 406h-2q-1 -14 -1 -31q-1 -14 -1 -33t-2 -39l-27 -344q-2 -17 -9.5 -30t-19.5 -21t-27.5 -12t-31.5 -4q-15 0 -31.5 3.5t-30 12t-22.5 22t-9 32.5z " />
<glyph unicode="&#x25fc;" horiz-adv-x="1025" d="M0 0v1025h1025v-1025h-1025z" />
<glyph unicode="&#xfb01;" horiz-adv-x="1257" d="M25 917q0 48 24.5 74t63.5 26h80v67q0 92 31 167.5t94.5 129t161 83t230.5 29.5q59 0 106 -6.5t82.5 -17.5t60 -24.5t39.5 -28.5q16 -16 23 -33.5t7 -43.5q0 -22 -7 -39.5t-19 -30t-28 -19t-34 -6.5q-22 0 -41.5 6.5t-46 14.5t-65 14.5t-97.5 6.5q-60 0 -102.5 -12.5 t-69.5 -36.5t-40 -60.5t-13 -84.5v-75h524q60 0 90.5 -30.5t30.5 -90.5v-783q0 -57 -33.5 -88.5t-102.5 -31.5t-102.5 31.5t-33.5 88.5v705h-373v-705q0 -57 -33.5 -88.5t-102.5 -31.5t-102.5 31.5t-33.5 88.5v705h-80q-39 0 -63.5 25.5t-24.5 73.5z" />
<glyph unicode="&#xfb02;" horiz-adv-x="1296" d="M25 916q0 49 24.5 75t64.5 26h79v57q0 96 31.5 174t95.5 133t162 84.5t231 29.5q73 0 131 -7t100.5 -18.5t71.5 -26.5t44 -30q23 -23 30.5 -46.5t7.5 -57.5v-976q0 -39 5 -65t14 -41t22 -21t30 -6q13 0 24.5 1.5t22.5 1.5q13 0 25 -5t21 -15t14.5 -24.5t5.5 -33.5 q0 -29 -9 -49t-24 -35q-9 -10 -23 -19t-34 -16.5t-46.5 -12t-61.5 -4.5q-127 0 -192.5 67.5t-65.5 204.5v1009q-15 6 -36 10q-18 4 -46 7.5t-65 3.5q-110 0 -163 -50.5t-53 -150.5v-73h124q40 0 64.5 -26t24.5 -75q0 -50 -24.5 -76t-64.5 -26h-122v-701q0 -57 -33.5 -88.5 t-102.5 -31.5t-102.5 31.5t-33.5 88.5v701h-79q-40 0 -64.5 26t-24.5 76z" />
</font>
</defs>
</svg>
