<?xml version="1.0" standalone="no"?>
<!DOCTYPE svg PUBLIC "-//W3C//DTD SVG 1.1//EN" "http://www.w3.org/Graphics/SVG/1.1/DTD/svg11.dtd" >
<svg xmlns="http://www.w3.org/2000/svg" xmlns:xlink="http://www.w3.org/1999/xlink" version="1.1">
<metadata></metadata>
<defs>
<font id="rooneysans-heavyuploaded_file" horiz-adv-x="1168" >
<font-face units-per-em="2048" ascent="1541" descent="-507" />
<missing-glyph horiz-adv-x="511" />
<glyph horiz-adv-x="0" />
<glyph horiz-adv-x="0" />
<glyph unicode="&#xd;" horiz-adv-x="0" />
<glyph unicode=" "  horiz-adv-x="511" />
<glyph unicode="&#x09;" horiz-adv-x="511" />
<glyph unicode="&#xa0;" horiz-adv-x="511" />
<glyph unicode="!" horiz-adv-x="720" d="M159 167q0 42 15.5 77.5t42.5 61t64 40t81 14.5t80.5 -14t63 -39t41 -59.5t14.5 -76.5q0 -41 -15 -76t-41.5 -61t-64 -40.5t-82.5 -14.5t-81.5 13.5t-62.5 39t-40.5 60t-14.5 75.5zM174 1353q0 28 10.5 52t33 41.5t58 27.5t84.5 10q51 0 86.5 -10t57.5 -27.5t31.5 -41.5 t9.5 -52v-26q0 -13 -0.5 -30t-1.5 -38.5t-2 -50.5l-29 -643q-2 -49 -39 -80t-113 -31q-75 0 -112.5 31t-39.5 80l-28 643q-2 29 -3 50.5t-1.5 38.5t-1 30.5t-0.5 25.5z" />
<glyph unicode="&#x22;" horiz-adv-x="904" d="M107 1394q0 48 37 74.5t106 26.5q70 0 106.5 -26.5t36.5 -74.5q0 -9 -0.5 -23t-2.5 -38l-28 -355q-4 -43 -34.5 -64.5t-77.5 -21.5q-46 0 -76.5 21.5t-34.5 64.5l-29 355q-2 24 -2.5 38t-0.5 23zM510 1394q0 48 37 74.5t107 26.5q69 0 106 -26.5t37 -74.5q0 -9 -1 -23 t-3 -38l-28 -355q-4 -43 -34.5 -64.5t-76.5 -21.5t-77 21.5t-35 64.5l-28 355q-2 24 -3 38t-1 23z" />
<glyph unicode="#" horiz-adv-x="1522" d="M42 419q0 53 26.5 79.5t75.5 26.5h177l99 326h-115q-48 0 -74.5 27t-26.5 78q0 53 26.5 79.5t74.5 26.5h177l71 230q17 55 47.5 80.5t74.5 25.5q28 0 52 -7.5t42 -22t28.5 -35.5t10.5 -47q0 -15 -2 -31t-9 -37l-48 -156h244l72 230q17 55 47.5 80.5t74.5 25.5 q27 0 51.5 -7.5t42 -22t28 -35.5t10.5 -47q0 -15 -2 -31t-8 -37l-49 -156h116q49 0 76.5 -26.5t27.5 -79.5q0 -51 -27.5 -78t-76.5 -27h-178l-99 -326h116q48 0 76 -26.5t28 -79.5q0 -51 -28 -78t-76 -27h-178l-71 -231q-16 -54 -47 -80t-76 -26q-28 0 -52 7.5t-42 22.5 t-28 35.5t-10 46.5q0 15 1.5 30.5t8.5 37.5l49 157h-244l-71 -231q-17 -54 -47.5 -80t-75.5 -26q-28 0 -52 7.5t-42 22.5t-28.5 35.5t-10.5 46.5q0 15 2 30.5t9 37.5l48 157h-114q-49 0 -75.5 27t-26.5 78zM587 525h245l100 326h-245z" />
<glyph unicode="$" horiz-adv-x="1125" d="M110 924q0 71 21.5 133.5t64.5 112.5t107.5 85.5t150.5 52.5v205q0 54 28 80.5t82 26.5q53 0 82 -26.5t29 -80.5v-192q43 -2 82.5 -9.5t72.5 -19.5t59 -27t43 -32q25 -24 34 -47.5t9 -55.5q0 -53 -31 -82t-80 -29q-26 0 -50 8l-52 18q-29 10 -67 18.5t-92 8.5 q-43 0 -74 -8t-50 -22.5t-28 -34.5t-9 -44q0 -38 25.5 -63.5t66.5 -44.5t94 -35t108 -36t108 -47.5t94.5 -69.5t67 -101t25.5 -143q0 -76 -22.5 -141.5t-67 -118t-111 -89.5t-155.5 -56v-207q0 -54 -28 -80.5t-82 -26.5q-53 0 -82 26.5t-29 80.5v192q-53 2 -99 10t-83.5 20 t-65.5 27t-43 31q-25 25 -35.5 49t-10.5 58q0 56 31.5 85t78.5 29q27 0 51 -9l55 -19q30 -11 73 -20t107 -9q50 0 84.5 9.5t57.5 26.5t33.5 40.5t10.5 51.5q0 41 -25.5 68.5t-67 47.5t-94.5 36.5t-108 37t-108 47t-94 67t-66.5 98t-25.5 139.5z" />
<glyph unicode="%" horiz-adv-x="1980" d="M86 995q0 94 27.5 168.5t77 126t118.5 78.5t153 27q87 0 154.5 -24t114 -71.5t70.5 -119t24 -167.5q0 -93 -28 -167t-78 -125.5t-119 -79t-153 -27.5q-86 0 -153.5 23.5t-113.5 71t-70 119t-24 167.5zM341 1006q0 -60 9.5 -99.5t26 -63t37.5 -33t42 -9.5q22 0 42.5 9.5 t36.5 32.5t25.5 62t9.5 98q0 60 -10 99.5t-26.5 63t-37 33t-43.5 9.5q-21 0 -41.5 -9.5t-36 -32.5t-25 -62.5t-9.5 -97.5zM519 79q0 15 6.5 30.5t15.5 31.5l719 1200q16 27 36 42.5t51 15.5q21 0 41.5 -7.5t37 -21t26.5 -32t10 -39.5q0 -15 -6.5 -30.5t-15.5 -30.5 l-719 -1200q-16 -27 -36 -42.5t-51 -15.5q-21 0 -42 7.5t-37 20.5t-26 31.5t-10 39.5zM1156 365q0 94 27.5 168.5t77 126t118.5 78.5t153 27q87 0 154.5 -24t114 -71.5t70.5 -119t24 -167.5q0 -93 -28 -167t-78 -125.5t-119 -79t-153 -27.5q-86 0 -153.5 23.5t-113.5 71 t-70 119t-24 167.5zM1411 376q0 -60 9.5 -99.5t26 -63t37.5 -33t42 -9.5q22 0 42.5 9.5t36.5 32.5t25.5 62t9.5 98q0 60 -10 99.5t-26.5 63t-37 33t-43.5 9.5q-21 0 -41.5 -9.5t-36 -32.5t-25 -62.5t-9.5 -97.5z" />
<glyph unicode="&#x26;" horiz-adv-x="1711" d="M104 440q0 54 11.5 101.5t30.5 87.5t43 73.5t49 59.5q59 62 135 104q-33 60 -49 118t-16 115q0 90 29 163t87 124.5t145 80t203 28.5q57 0 103 -6.5t80.5 -17t58.5 -24.5t39 -28q20 -21 29 -45.5t9 -56.5q0 -23 -8 -43t-21.5 -34.5t-32 -23t-39.5 -8.5q-22 0 -43 7 l-44 14q-24 7 -53.5 13t-67.5 6q-72 0 -108 -35t-36 -101q0 -67 39 -141.5t109.5 -153t167.5 -160.5t213 -164q4 11 6 30t2 38q0 43 -9 76.5t-24 60t-35.5 49t-42.5 43.5q-26 25 -38.5 49.5t-12.5 67.5q0 53 26 85t79 32h370q50 0 79 -31t29 -92q0 -62 -29 -93t-79 -31h-67 q9 -10 19.5 -31t19.5 -50t15 -65.5t6 -77.5q0 -53 -12.5 -109t-37.5 -111l58 -33l54 -30q22 -11 39.5 -24t30.5 -29t19.5 -36t6.5 -45q0 -29 -11 -55.5t-31 -47.5t-48 -33t-63 -12q-10 0 -21 1t-23.5 4t-25 7.5t-26.5 10.5l-40 20l-40 21l-41 24l-46 27q-10 -11 -45 -31.5 t-95 -41t-145 -36t-196 -15.5q-165 0 -286 34.5t-199 96.5t-115.5 146t-37.5 184zM434 470q0 -51 18.5 -93t59.5 -73t104.5 -48t153.5 -17q36 0 68 3t58 9t44 13t25 14q-127 89 -238.5 186t-196.5 193q-27 -19 -48 -46q-18 -23 -33 -58t-15 -83z" />
<glyph unicode="'" horiz-adv-x="501" d="M107 1394q0 48 37 74.5t106 26.5q70 0 106.5 -26.5t36.5 -74.5q0 -9 -0.5 -23t-2.5 -38l-28 -355q-4 -43 -34.5 -64.5t-77.5 -21.5q-46 0 -76.5 21.5t-34.5 64.5l-29 355q-2 24 -2.5 38t-0.5 23z" />
<glyph unicode="(" horiz-adv-x="702" d="M107 587q0 137 22 269t64 252.5t104 226.5t141 192q22 24 51 37t58 13q27 0 49.5 -8.5t39 -23t25 -33.5t8.5 -40q0 -23 -9 -42.5t-21 -39.5q-47 -78 -86.5 -164.5t-67.5 -185.5t-44 -211.5t-16 -241.5t16 -241.5t44 -211.5t67.5 -186t86.5 -163q12 -21 21 -40.5t9 -42.5 q0 -22 -8.5 -41t-25 -32.5t-39 -22t-49.5 -8.5q-29 0 -58 12t-51 37q-79 86 -141 192t-104 227t-64 252.5t-22 268.5z" />
<glyph unicode=")" horiz-adv-x="702" d="M33 -299q0 23 9 42.5t22 40.5q46 77 85.5 163.5t67.5 185.5t43.5 212t15.5 242t-15.5 241t-43.5 211.5t-67.5 186t-85.5 163.5q-13 20 -22 40t-9 42t9 41t25 33t38.5 22.5t49.5 8.5q30 0 59 -12.5t51 -37.5q79 -86 140.5 -192.5t103.5 -226.5t64 -251.5t22 -268.5 q0 -138 -22 -269.5t-64 -252t-103.5 -227t-140.5 -192.5q-22 -24 -51 -36.5t-59 -12.5q-27 0 -49.5 8.5t-38.5 22.5t-25 33t-9 40z" />
<glyph unicode="*" horiz-adv-x="847" d="M91 1246q0 22 9 44.5t23 39.5t32.5 28t36.5 11q15 0 27.5 -6.5t26.5 -18.5l101 -76l-19 123q-3 13 -4 19.5t-1 12.5q0 31 27.5 50t73.5 19q45 0 72.5 -19t27.5 -50q0 -6 -1 -13l-3 -19l-19 -122l102 75q14 11 27 16.5t25 5.5q19 0 37.5 -11t32 -27.5t21 -37.5t7.5 -41 q0 -29 -15.5 -44.5t-43.5 -25.5l-114 -45l114 -48q31 -12 46.5 -27.5t15.5 -44.5q0 -22 -9 -44t-23 -39.5t-32 -28t-36 -10.5q-15 0 -28 6.5t-27 18.5l-100 76l19 -123l3 -20q1 -7 1 -13q0 -30 -27.5 -49t-72.5 -19q-46 0 -73.5 19t-27.5 49q0 6 1 13t4 20l19 122l-102 -75 q-15 -11 -27.5 -16.5t-24.5 -5.5q-20 0 -38 10.5t-31.5 27.5t-21 37.5t-7.5 40.5q0 29 15 45t43 26l115 45l-114 47q-32 12 -47.5 28t-15.5 44z" />
<glyph unicode="+" d="M126 585q0 56 30 88.5t84 32.5h210v197q0 74 36 108.5t98 34.5t98 -34.5t36 -108.5v-197h210q54 0 84 -32.5t30 -88.5q0 -57 -30 -89t-84 -32h-210v-197q0 -74 -36 -108.5t-98 -34.5t-98 34.5t-36 108.5v197h-210q-54 0 -84 32t-30 89z" />
<glyph unicode="," horiz-adv-x="639" d="M68 -275q0 28 17 50t41.5 50.5t51.5 69.5t46 106q-19 9 -38.5 24t-35 37.5t-25.5 52t-10 67.5q0 44 16 81.5t43.5 65.5t65.5 43.5t83 15.5t82 -16t63.5 -46t41 -73t14.5 -97q0 -58 -12.5 -111.5t-31.5 -101t-43 -87.5t-47 -71q-55 -75 -110.5 -112t-110.5 -37 q-49 0 -75 24.5t-26 64.5z" />
<glyph unicode="-" horiz-adv-x="918" d="M103 556q0 63 29.5 96t79.5 33h494q49 0 79 -33t30 -96t-30 -96t-79 -33h-494q-50 0 -79.5 33t-29.5 96z" />
<glyph unicode="." horiz-adv-x="639" d="M115 182q0 44 16 81.5t43.5 65.5t65.5 43.5t83 15.5q44 0 81 -15t63.5 -42t41.5 -64t15 -81q0 -45 -15.5 -83t-43 -65.5t-65 -43t-82.5 -15.5q-44 0 -81.5 14.5t-64.5 41.5t-42 64.5t-15 82.5z" />
<glyph unicode="/" horiz-adv-x="903" d="M-4 -194q0 17 5 35t16 50l548 1501q19 53 48 76.5t77 23.5q29 0 57 -9t50 -26t36 -40.5t14 -51.5q0 -16 -5.5 -34.5t-16.5 -50.5l-548 -1502q-19 -53 -48 -76t-77 -23q-28 0 -56 9t-50.5 25.5t-36 40t-13.5 52.5z" />
<glyph unicode="0" horiz-adv-x="1330" d="M85 521q0 133 40.5 240t116.5 181.5t186 114.5t249 40q135 0 241 -37.5t178.5 -107.5t110.5 -170.5t38 -225.5q0 -134 -40.5 -240.5t-116.5 -181.5t-186 -115t-249 -40q-135 0 -241 37.5t-178.5 107.5t-110.5 170.5t-38 226.5zM425 541q0 -76 18.5 -132.5t51 -95 t76.5 -58t96 -19.5t95.5 19t75 56.5t49 94t17.5 131.5t-18.5 131.5t-50.5 94.5t-76.5 57.5t-95.5 19.5q-52 0 -95.5 -19t-75.5 -56.5t-49.5 -93.5t-17.5 -130z" />
<glyph unicode="1" horiz-adv-x="772" d="M17 814q0 27 9.5 49t28.5 41q10 10 32 24t51 30l64 32q35 18 72 34l68 28q29 12 53.5 20t44.5 11.5t38 3.5q72 0 112.5 -42t40.5 -119v-785q0 -72 -42.5 -110t-127.5 -38q-87 0 -128.5 38t-41.5 110v594l-77 -24l-42 -10q-21 -5 -39 -5q-27 0 -48 9.5t-36 25.5 t-23.5 37.5t-8.5 45.5z" />
<glyph unicode="2" horiz-adv-x="1006" d="M46 163q0 51 21.5 89t68.5 76l175 146l90 73q41 35 71 67t47 62.5t17 61.5q0 47 -33 74.5t-108 27.5q-41 0 -72 -6t-55 -14l-45 -13q-20 -6 -40 -6q-47 0 -74 29t-27 78q0 28 8.5 50.5t28.5 41.5q18 19 51 36.5t78 31t101 21.5t121 8q114 0 195.5 -22.5t134 -63.5 t77.5 -98.5t25 -127.5q0 -61 -20 -115.5t-59.5 -104.5t-97.5 -100t-134 -104l-126 -91h378q51 0 82 -33.5t31 -101.5t-31 -101.5t-82 -33.5h-623q-83 0 -128.5 44t-45.5 119z" />
<glyph unicode="3" horiz-adv-x="1017" d="M35 -127q0 51 28.5 79.5t72.5 28.5q25 0 47 -9l49 -20q28 -11 65.5 -20.5t92.5 -9.5q51 0 89 13t64.5 36.5t39.5 56.5t13 73q0 43 -15 76.5t-52 57t-100 36t-160 12.5q-22 0 -36 4.5t-24 13.5q-17 17 -25 44.5t-8 58t8 58.5t25 45q9 10 23.5 14.5t36.5 4.5q78 0 132.5 13 t88 36t48 55.5t14.5 72.5q0 67 -41.5 104.5t-131.5 37.5q-41 0 -71 -6t-54 -13t-44 -13.5t-42 -6.5q-44 0 -72 27.5t-28 77.5q0 28 9 49.5t28 39.5q18 19 50 36.5t77 31t101.5 21.5t124.5 8q112 0 194.5 -25t136.5 -70.5t80.5 -109t26.5 -140.5q0 -54 -14.5 -100.5 t-41 -85.5t-63.5 -69.5t-80 -52.5v-2q56 -16 102 -43.5t78 -69t49 -96.5t17 -123q0 -92 -35 -170.5t-103 -136.5t-168 -91.5t-230 -33.5q-64 0 -116.5 8t-94 20t-71 28t-45.5 33q-22 22 -33.5 47t-11.5 59z" />
<glyph unicode="4" horiz-adv-x="1173" d="M30 243q0 23 3 43t10.5 40t19.5 41.5t29 46.5l349 514q31 46 63 77.5t67 51t76 27.5t92 8q109 0 162.5 -44.5t53.5 -131.5v-598h96q50 0 79.5 -33t29.5 -95q0 -63 -29.5 -96t-79.5 -33h-96v-224q0 -73 -38.5 -109.5t-123.5 -36.5q-83 0 -121.5 36.5t-38.5 109.5v224h-405 q-100 0 -149 48.5t-49 133.5zM330 318h303v453z" />
<glyph unicode="5" horiz-adv-x="1020" d="M52 -125q0 50 29 79t73 29q26 0 48 -9l50 -20q28 -11 66 -20t96 -9q49 0 87 12.5t64 36t39.5 56t13.5 72.5q0 47 -22 86t-69 67.5t-120.5 44.5t-176.5 16q-58 0 -83.5 29t-22.5 85l26 522q2 62 34.5 93t93.5 31h531q52 0 83 -33.5t31 -101.5q0 -69 -31 -102.5t-83 -33.5 h-385l-12 -237q147 -8 251 -43t171.5 -92.5t98.5 -135t31 -169.5q0 -99 -34 -181.5t-101.5 -142t-168 -93t-232.5 -33.5q-65 0 -118.5 8t-95 20t-71 28t-45.5 33q-22 22 -34 47t-12 61z" />
<glyph unicode="6" horiz-adv-x="1188" d="M89 584q0 194 45 345.5t130.5 256t210 159.5t283.5 55q51 0 89 -5t65.5 -13t45 -18.5t27.5 -20.5q17 -17 26 -38t9 -51q0 -54 -30 -84t-75 -30q-15 0 -29.5 1.5t-30.5 4t-35.5 4t-43.5 1.5q-69 0 -126 -17t-100.5 -56.5t-73.5 -105.5t-44 -164q29 19 69 34 q33 13 80.5 24.5t109.5 11.5q98 0 176 -29.5t131.5 -84t81.5 -132.5t28 -176q0 -108 -34 -196t-99 -150.5t-159 -96.5t-214 -34q-124 0 -219.5 38.5t-160.5 115t-99 190t-34 261.5zM418 559q2 -92 17.5 -154.5t41 -100.5t60 -54t75.5 -16q36 0 65 13t49.5 39t32 63t11.5 86 q0 48 -11.5 83t-33.5 59t-54 36t-73 12q-42 0 -74 -11t-56 -23q-27 -14 -50 -32z" />
<glyph unicode="7" horiz-adv-x="976" d="M20 936q0 71 31 105.5t86 34.5h622q46 0 78.5 -11.5t53 -31.5t30 -47.5t9.5 -60.5q0 -41 -11 -81t-33 -90l-109 -247q-50 -120 -93.5 -234t-79.5 -222t-65 -210q-11 -39 -25 -68t-34 -48t-45.5 -28.5t-59.5 -9.5q-36 0 -66 9t-51.5 26.5t-33.5 44t-12 62.5q0 26 5 51.5 t14 59.5q23 90 55.5 191.5t71.5 211.5t84 224l92 231h-397q-54 0 -85.5 34t-31.5 104z" />
<glyph unicode="8" horiz-adv-x="1147" d="M73 342q0 59 17.5 107.5t49 90.5t75.5 77.5t98 69.5q-47 30 -85.5 66t-66 77t-43 87.5t-15.5 98.5q0 81 31 151.5t92.5 122t153.5 81t214 29.5q111 0 195.5 -27t141 -73.5t85 -109t28.5 -132.5q0 -58 -16.5 -104.5t-45 -85.5t-68.5 -72.5t-89 -64.5q54 -31 99.5 -68 t79 -80t52 -93t18.5 -107q0 -91 -31 -165.5t-95 -127.5t-162 -82t-233 -29q-122 0 -212.5 27t-150 75.5t-88.5 115t-29 145.5zM396 370q0 -34 11.5 -62.5t34 -48.5t55.5 -31t76 -11t75 10.5t53.5 30t33 46.5t11.5 61q0 32 -14 59.5t-40.5 52t-63.5 47t-84 44.5 q-37 -24 -64.5 -46.5t-46 -46.5t-28 -49.5t-9.5 -55.5zM432 1034q0 -32 10 -57.5t30.5 -47t51 -41.5t70.5 -41q32 21 55.5 41.5t39.5 42.5t24 46.5t8 52.5q0 29 -10 53t-29 41.5t-46 27t-62 9.5q-34 0 -60.5 -9t-45 -26t-27.5 -40.5t-9 -51.5z" />
<glyph unicode="9" horiz-adv-x="1189" d="M80 620q0 108 34 196t99.5 150.5t159.5 96.5t214 34q123 0 218.5 -39t161 -115.5t99 -189.5t33.5 -261q0 -193 -45.5 -344.5t-135 -256t-222 -159t-306.5 -54.5q-52 0 -90 5t-65 13t-44.5 17.5t-27.5 20.5q-17 17 -26.5 37.5t-9.5 52.5q0 53 30.5 82.5t75.5 29.5 q15 0 29.5 -1.5t30.5 -3.5t35 -3t44 -1q101 0 168.5 22.5t111.5 66t68 107t36 145.5q-30 -20 -69 -35q-33 -13 -80.5 -23.5t-108.5 -10.5q-99 0 -176.5 29t-131 83.5t-82 132.5t-28.5 176zM418 640q0 -47 11.5 -82t33.5 -59t53.5 -35.5t73.5 -11.5q41 0 74 10t57 22 q28 15 49 33q-1 92 -16.5 154.5t-41 100t-61 54t-74.5 16.5q-36 0 -65 -13.5t-50 -38.5t-32.5 -63t-11.5 -87z" />
<glyph unicode=":" horiz-adv-x="639" d="M115 182q0 44 16 81.5t43.5 65.5t65.5 43.5t83 15.5q44 0 81 -15t63.5 -42t41.5 -64t15 -81q0 -45 -15.5 -83t-43 -65.5t-65 -43t-82.5 -15.5q-44 0 -81.5 14.5t-64.5 41.5t-42 64.5t-15 82.5zM115 786q0 43 16 81t43.5 66t65.5 43.5t83 15.5q44 0 81 -15t63.5 -42 t41.5 -64.5t15 -80.5q0 -45 -15.5 -82.5t-43 -65.5t-65 -43.5t-82.5 -15.5q-44 0 -81.5 15t-64.5 42t-42 64t-15 82z" />
<glyph unicode=";" horiz-adv-x="639" d="M68 -275q0 28 17 50t41.5 50.5t51.5 69.5t46 106q-19 9 -38.5 24t-35 37.5t-25.5 52t-10 67.5q0 44 16 81.5t43.5 65.5t65.5 43.5t83 15.5t82 -16t63.5 -46t41 -73t14.5 -97q0 -58 -12.5 -111.5t-31.5 -101t-43 -87.5t-47 -71q-55 -75 -110.5 -112t-111.5 -37 q-48 0 -74 24.5t-26 64.5zM115 786q0 43 16 81t43.5 66t65.5 43.5t83 15.5q44 0 81 -15t63.5 -42t41.5 -64.5t15 -80.5q0 -45 -15.5 -82.5t-43 -65.5t-65 -43.5t-82.5 -15.5q-44 0 -81.5 15t-64.5 42t-42 64t-15 82z" />
<glyph unicode="&#x3c;" d="M188 580q0 40 17.5 72t58.5 59l452 298q27 17 46 25.5t41 8.5q27 0 51.5 -12t42.5 -32t28.5 -45t10.5 -51q0 -29 -13 -53t-42 -44l-327 -218l328 -219q29 -20 41.5 -45t12.5 -52q0 -28 -11 -55t-30.5 -48t-44.5 -34.5t-51 -13.5q-23 0 -42 7.5t-47 25.5l-446 295 q-42 27 -59 58.5t-17 72.5z" />
<glyph unicode="=" d="M146 376q0 57 30 89t83 32h648q54 0 84 -32.5t30 -88.5q0 -57 -30 -89t-84 -32h-647q-54 0 -84 32t-30 89zM146 793q0 56 30 88t84 32h647q54 0 84 -32t30 -88q0 -58 -30 -90t-84 -32h-647q-54 0 -84 32t-30 90z" />
<glyph unicode="&#x3e;" d="M232 260q0 30 13 53.5t42 42.5l327 218l-328 221q-29 19 -41.5 44t-12.5 52q0 28 11 54.5t30.5 48t44 34.5t51.5 13q23 0 42 -7t47 -25l446 -294q42 -28 59 -60t17 -72t-17.5 -72t-58.5 -59l-452 -298q-27 -17 -46 -25.5t-41 -8.5q-28 0 -52 12t-42 32t-28.5 45t-10.5 51 z" />
<glyph unicode="?" horiz-adv-x="881" d="M47 1307q0 28 10 50.5t29 40.5q19 20 51.5 38t74 31t92.5 20.5t110 7.5q111 0 191.5 -23.5t133 -67.5t78 -105.5t25.5 -136.5q0 -70 -21.5 -122.5t-54.5 -94.5t-71 -76.5t-70.5 -67t-54.5 -66.5t-22 -75q0 -20 2 -34.5t4.5 -25.5t4.5 -21.5t2 -22.5q0 -44 -39 -73 t-122 -29q-45 0 -80 13.5t-59.5 39.5t-37.5 65t-13 92q0 60 21 107.5t52.5 86t68.5 71.5t68.5 64.5t52.5 63.5t21 70q0 25 -8 45t-27 34t-49 22t-73 8q-40 0 -66.5 -5t-46.5 -11.5t-38 -11.5t-38 -5q-47 0 -74 28.5t-27 75.5zM209 167q0 42 15.5 77.5t42.5 61t64.5 40 t81.5 14.5q43 0 80 -14t63 -39t40.5 -59.5t14.5 -76.5q0 -41 -15 -76t-42 -61t-64 -40.5t-82 -14.5q-44 0 -80.5 13.5t-62.5 39t-41 60t-15 75.5z" />
<glyph unicode="@" horiz-adv-x="2140" d="M115 473q0 148 34.5 282t101 247.5t162.5 204.5t218.5 155.5t269.5 98.5t315 34q204 0 358.5 -50t257.5 -142t155 -222t52 -289q0 -150 -34 -273.5t-100 -212t-162.5 -137t-221.5 -48.5q-106 0 -171.5 38t-93.5 102l-4 2q-31 -40 -72 -71q-37 -27 -90.5 -49t-126.5 -22 q-81 0 -145.5 24t-109 72.5t-68.5 119.5t-24 165q0 122 40 222.5t114.5 172t179.5 111.5t235 40q57 0 102.5 -5.5t80.5 -14.5t60 -20.5t42 -24.5q31 -25 41.5 -54.5t6.5 -76.5l-31 -366q-3 -37 0 -62t12 -40.5t23.5 -22t34.5 -6.5q31 0 64 20.5t60 67.5t45 123t18 187 q0 113 -35 203.5t-103.5 154t-170.5 97t-236 33.5q-118 0 -222 -25t-191 -72t-155.5 -114t-116.5 -150t-73 -181t-25 -206q0 -281 145 -422.5t446 -141.5q89 0 150.5 7.5t104.5 16t72 16t53 7.5q46 0 72.5 -28.5t26.5 -71.5q0 -28 -8.5 -49t-29.5 -42q-19 -19 -58 -38.5 t-97.5 -34.5t-136 -24.5t-173.5 -9.5q-215 0 -377.5 54t-271.5 156.5t-164 249.5t-55 335zM927 520q0 -78 32.5 -114t88.5 -36q34 0 60 13t44 29q20 19 35 43l26 332q-8 4 -21 8q-11 4 -27 7t-38 3q-40 0 -76.5 -17.5t-63.5 -53t-43.5 -89t-16.5 -125.5z" />
<glyph unicode="A" horiz-adv-x="1330" d="M31 135q0 19 4.5 38t16.5 55l312 916q11 32 21.5 57.5t22 46t23.5 37.5t27 32q33 32 82.5 49.5t124.5 17.5t124.5 -17.5t82.5 -49.5q15 -15 27.5 -32t23.5 -37.5t21.5 -46t21.5 -57.5l312 -910q12 -36 16.5 -55t4.5 -36q0 -38 -17.5 -67t-45 -48t-61 -28.5t-65.5 -9.5 q-38 0 -66.5 11t-48.5 32q-19 18 -31 45t-23 63l-49 151h-472l-47 -151q-11 -37 -22.5 -65.5t-30.5 -47.5q-18 -18 -45 -28t-64 -10q-32 0 -64 9.5t-58 28.5t-42 46t-16 61zM493 552h320l-106 333q-13 41 -23 77l-18 63q-10 32 -16 60h-4l-15 -60q-8 -27 -17.5 -63 t-21.5 -77z" />
<glyph unicode="B" horiz-adv-x="1277" d="M143 155v1068q0 73 41 114t115 41h310q145 0 247.5 -26.5t168 -73t95 -109.5t29.5 -135q0 -56 -15 -103.5t-43 -86t-68 -66.5t-92 -45v-4q59 -10 108 -35t84 -63.5t54 -89.5t19 -113q0 -93 -35 -171.5t-108.5 -135.5t-188 -89t-273.5 -32h-292q-74 0 -115 41t-41 114z M483 245h122q63 0 107.5 13t74 36t43.5 54.5t14 69.5t-13 69t-41.5 52.5t-73.5 33t-111 11.5h-122v-339zM483 824h112q53 0 91.5 12t64 32.5t38 50t12.5 64.5t-11.5 62.5t-36 47t-64 30t-95.5 10.5h-111v-309z" />
<glyph unicode="C" horiz-adv-x="1186" d="M80 640q0 173 48.5 313t137.5 238.5t213.5 151.5t277.5 53q63 0 115 -9t92 -23t68 -31t44 -33q26 -26 37 -54t11 -65q0 -27 -8.5 -49t-24 -38t-36.5 -25t-46 -9q-23 0 -45 10l-48 21q-27 12 -64 22t-90 10q-65 0 -124 -27t-103.5 -82t-71 -139.5t-26.5 -198.5 q0 -103 25.5 -181t70.5 -131t107 -79.5t135 -26.5q54 0 92 9.5t65 20.5l49 21q22 10 46 10q21 0 39.5 -8t32.5 -23.5t22 -36.5t8 -46q0 -33 -12 -59.5t-36 -50.5q-19 -19 -50.5 -39t-76.5 -36t-104.5 -26.5t-134.5 -10.5q-143 0 -260.5 45.5t-200.5 131t-128.5 207 t-45.5 273.5z" />
<glyph unicode="D" horiz-adv-x="1439" d="M143 155v1068q0 73 41 114t115 41h345q174 0 307.5 -45.5t224.5 -131t137.5 -207.5t46.5 -275q0 -168 -50 -301t-146 -226t-234.5 -142.5t-316.5 -49.5h-314q-74 0 -115 41t-41 114zM492 261h136q87 0 156 27.5t118 81.5t75 136t26 192q0 109 -23.5 188.5t-70.5 130.5 t-117.5 75.5t-163.5 24.5h-136v-856z" />
<glyph unicode="E" horiz-adv-x="1098" d="M143 155v1068q0 73 41 114t115 41h612q53 0 83.5 -32.5t30.5 -99.5q0 -66 -30.5 -99t-83.5 -33h-419v-284h355q49 0 79.5 -33t30.5 -97t-30.5 -97t-79.5 -33h-355v-306h424q52 0 82.5 -33t30.5 -99q0 -67 -30.5 -99.5t-82.5 -32.5h-617q-74 0 -115 41t-41 114z" />
<glyph unicode="F" horiz-adv-x="1041" d="M143 146v1077q0 73 41 114t115 41h601q53 0 83 -32.5t30 -99.5q0 -66 -30 -99t-83 -33h-408v-312h332q50 0 80.5 -33.5t30.5 -97.5q0 -65 -30.5 -98t-80.5 -33h-332v-394q0 -74 -44 -113.5t-131 -39.5q-89 0 -131.5 39.5t-42.5 113.5z" />
<glyph unicode="G" horiz-adv-x="1420" d="M80 652q0 165 50.5 302t148.5 235.5t243.5 152.5t336.5 54q71 0 132.5 -10.5t109.5 -27t82.5 -36t52.5 -38.5q25 -25 36 -51t11 -64q0 -28 -9 -50.5t-24 -38.5t-36.5 -24.5t-46.5 -8.5q-28 0 -54.5 12t-63 27t-88.5 27t-129 12q-89 0 -161.5 -27.5t-124.5 -82 t-80.5 -136.5t-28.5 -192q0 -111 27.5 -195t79.5 -140.5t126.5 -85.5t169.5 -29q35 0 61.5 3.5t44.5 8.5q20 5 34 11v264h-150q-52 0 -80 34t-28 92t28 92t80 34h332q69 0 105.5 -36t36.5 -105v-379q0 -52 -14.5 -87t-45.5 -65q-19 -18 -56 -39.5t-92.5 -40.5t-131 -32 t-170.5 -13q-171 0 -304 46.5t-224 133.5t-138.5 211.5t-47.5 281.5z" />
<glyph unicode="H" horiz-adv-x="1451" d="M143 146v1086q0 74 43 113.5t131 39.5q90 0 132.5 -39.5t42.5 -113.5v-395h467v395q0 74 42.5 113.5t132.5 39.5q88 0 131 -39.5t43 -113.5v-1086q0 -74 -42.5 -113.5t-131.5 -39.5q-90 0 -132.5 39.5t-42.5 113.5v412h-467v-412q0 -74 -42.5 -113.5t-132.5 -39.5 q-89 0 -131.5 39.5t-42.5 113.5z" />
<glyph unicode="I" horiz-adv-x="635" d="M143 146v1086q0 74 43 113.5t131 39.5q90 0 132.5 -39.5t42.5 -113.5v-1086q0 -74 -42.5 -113.5t-132.5 -39.5q-89 0 -131.5 39.5t-42.5 113.5z" />
<glyph unicode="J" horiz-adv-x="644" d="M-84 -257q0 41 17.5 68.5t50.5 45.5q38 21 69 43t53 52t34 72t12 103v1105q0 74 43 113.5t131 39.5q90 0 132 -39.5t42 -113.5v-1041q0 -95 -10 -165.5t-28 -123.5t-44.5 -92t-59.5 -72q-59 -60 -136 -91t-153 -31q-75 0 -114 35.5t-39 91.5z" />
<glyph unicode="K" horiz-adv-x="1273" d="M143 146v1086q0 74 43 113.5t131 39.5q90 0 132.5 -39.5t42.5 -113.5v-486l412 551q11 16 20.5 27t19.5 21q18 19 44.5 31t60.5 12q35 0 68.5 -12.5t59.5 -35t42 -52t16 -62.5q0 -25 -9.5 -48.5t-30.5 -49.5l-341 -402l341 -444q9 -10 17.5 -23t16 -27.5t12 -31 t4.5 -35.5q0 -35 -16.5 -67t-44.5 -56t-63 -38t-72 -14q-34 0 -62 11.5t-48 31.5q-12 12 -23 25.5t-26 36.5l-398 553v-502q0 -74 -42.5 -113.5t-132.5 -39.5q-89 0 -131.5 39.5t-42.5 113.5z" />
<glyph unicode="L" horiz-adv-x="1019" d="M143 155v1077q0 74 43 113.5t131 39.5q90 0 132.5 -39.5t42.5 -113.5v-956h394q55 0 86.5 -34t31.5 -104q0 -71 -31 -104.5t-87 -33.5h-587q-74 0 -115 41t-41 114z" />
<glyph unicode="M" horiz-adv-x="1933" d="M94 120q0 14 1.5 28t3.5 38l105 966q6 59 22 99.5t45 69.5q30 30 81 47t126 17q63 0 108.5 -13.5t77 -39.5t52 -63.5t32.5 -85.5l176 -644q10 -36 18 -70.5t13 -60.5q6 -32 12 -59h4l11 59q6 26 13 60t17 70l177 644q13 49 33 86.5t52 63.5t77 39.5t108 13.5 q73 0 123.5 -17t79.5 -46q30 -30 45.5 -70.5t22.5 -99.5l104 -962q2 -23 3 -36.5t1 -25.5q0 -31 -14 -56t-38.5 -43.5t-58 -28.5t-72.5 -10q-37 0 -71 11.5t-55 32.5q-24 24 -31.5 57.5t-10.5 69.5l-57 674q-3 40 -4 77t-1 66q0 34 2 64h-4l-226 -833q-15 -56 -34 -98.5 t-44 -66.5q-28 -28 -67.5 -39.5t-93.5 -11.5q-55 0 -94.5 11.5t-67.5 39.5q-25 24 -44 66.5t-34 98.5l-227 835h-4v-63q-1 -29 -2.5 -66t-4.5 -79l-50 -675q-3 -37 -9.5 -70t-32.5 -59q-20 -20 -52 -31t-68 -11q-35 0 -66.5 8.5t-55.5 25.5t-38 41t-14 55z" />
<glyph unicode="N" horiz-adv-x="1521" d="M143 128v1024q0 118 58.5 175.5t180.5 57.5q57 0 96.5 -11.5t70.5 -34.5t55.5 -56.5t49.5 -77.5l351 -596q22 -38 40 -74l30 -65l28 -63l5 2q-5 35 -9 75l-7 78q-4 44 -5 93l-18 595v9q-1 57 37 90q40 36 119 36q76 0 114.5 -35.5t38.5 -99.5v-1023q0 -119 -58.5 -176.5 t-180.5 -57.5q-56 0 -96 11.5t-71 34.5t-55.5 56.5t-49.5 77.5l-351 596l-40 74q-18 36 -30 65l-28 63l-4 -2q4 -35 8 -75q4 -34 7.5 -78.5t5.5 -92.5l17 -595v-9q0 -57 -37 -90q-40 -36 -118 -36q-77 0 -115.5 35.5t-38.5 99.5z" />
<glyph unicode="O" horiz-adv-x="1531" d="M80 669q0 171 49.5 307t141 230t220 144t288.5 50q153 0 277.5 -47.5t212.5 -137t135 -218t47 -289.5q0 -171 -49.5 -306t-141 -229t-220 -144t-287.5 -50q-154 0 -278.5 47.5t-212 136.5t-135 217t-47.5 289zM437 691q0 -110 26 -193t71 -138t105 -83t129 -28 q68 0 127.5 27.5t104 82t69.5 136.5t25 192q0 109 -25.5 192.5t-71 138.5t-105.5 83t-128 28t-127.5 -27.5t-104 -82t-70 -137t-25.5 -191.5z" />
<glyph unicode="P" horiz-adv-x="1200" d="M143 146v1077q0 73 41 114t115 41h300q139 0 242.5 -32t172.5 -90.5t103 -139.5t34 -178q0 -110 -35.5 -198.5t-106 -150.5t-178 -95.5t-252.5 -33.5h-90v-314q0 -74 -41.5 -113.5t-131.5 -39.5t-131.5 39.5t-41.5 113.5zM489 715h106q95 0 150 54.5t55 151.5t-53 148 t-163 51h-95v-405z" />
<glyph unicode="Q" horiz-adv-x="1532" d="M80 669q0 171 49.5 307t141 230t220 144t288.5 50q153 0 277.5 -47.5t212.5 -137t135 -218t47 -289.5q0 -136 -31.5 -249t-90.5 -202t-143 -150t-191 -93q37 -48 84 -81t102 -56t117 -37t131 -22q63 -7 90 -39t27 -81q0 -33 -13.5 -62t-40 -49.5t-67 -33t-95.5 -12.5 q-53 0 -111.5 11t-118 34t-117 58.5t-110 84t-96.5 111t-76 141.5q-142 7 -257 57.5t-195.5 139t-124.5 212.5t-44 279zM437 690q0 -110 26 -193t71 -138.5t105 -83.5t129 -28q68 0 127.5 27.5t104 82.5t69.5 137.5t25 192.5q0 109 -25.5 192.5t-71 138.5t-105.5 83t-128 28 t-127.5 -27.5t-104 -82t-70 -137t-25.5 -192.5z" />
<glyph unicode="R" horiz-adv-x="1259" d="M143 146v1077q0 73 41 114t115 41h306q150 0 258 -30.5t178 -85.5t103.5 -129.5t33.5 -162.5q0 -68 -17 -125t-48 -103.5t-75.5 -82t-98.5 -59.5l215 -342q21 -33 29 -55t8 -45q0 -36 -16.5 -66.5t-44 -53t-63 -35.5t-72.5 -13q-36 0 -63 11t-47 32q-8 8 -14.5 15.5 t-11.5 15.5t-10 17.5t-11 19.5l-233 423h-121v-378q0 -74 -41 -113.5t-129 -39.5t-129.5 39.5t-41.5 113.5zM484 777h118q56 0 98 13t70 36t41.5 55t13.5 71t-12.5 70.5t-40.5 53t-73 33.5t-109 12h-106v-344z" />
<glyph unicode="S" horiz-adv-x="1140" d="M93 974q0 91 33.5 168.5t100 134.5t166 88.5t231.5 31.5q64 0 117 -7.5t95 -20.5t71.5 -30t48.5 -36q26 -26 35 -50.5t9 -57.5q0 -57 -32.5 -86.5t-82.5 -29.5q-28 0 -52 8l-54 19q-29 11 -68.5 19.5t-98.5 8.5q-46 0 -79 -9t-54.5 -24.5t-31 -37.5t-9.5 -48 q0 -42 26 -70t69.5 -49t99 -38.5t113.5 -39.5t113.5 -51.5t99 -75t69.5 -110t26 -156.5q0 -96 -34.5 -177.5t-104 -140.5t-173.5 -92t-242 -33q-71 0 -128.5 8.5t-102 21.5t-75 29.5t-46.5 33.5q-26 26 -37 51t-11 60q0 58 32.5 88.5t82.5 30.5q28 0 52 -9l56 -20 q32 -11 76.5 -20.5t111.5 -9.5q53 0 90.5 10.5t61.5 29t35.5 44t11.5 55.5q0 45 -26.5 75t-70 52.5t-99 40.5t-113 40t-113.5 51t-99 73t-69.5 106.5t-26.5 150.5z" />
<glyph unicode="T" horiz-adv-x="1166" d="M16 1240q0 71 31 104.5t86 33.5h900q55 0 86 -33.5t31 -104.5q0 -70 -31.5 -104t-85.5 -34h-276v-956q0 -74 -42.5 -113.5t-131.5 -39.5t-131.5 39.5t-42.5 113.5v956h-276q-54 0 -85.5 34t-31.5 104z" />
<glyph unicode="U" horiz-adv-x="1428" d="M132 532v700q0 74 43 113.5t132 39.5t131.5 -39.5t42.5 -113.5v-658q0 -85 17.5 -145.5t50 -100t76.5 -57.5t97 -18q49 0 90.5 16.5t71.5 52t47 89t17 127.5v694q0 74 42 113.5t131 39.5t132 -39.5t43 -113.5v-664q0 -145 -39 -255.5t-113.5 -184.5t-184.5 -111.5 t-253 -37.5q-142 0 -249 36t-179.5 105.5t-109 173t-36.5 238.5z" />
<glyph unicode="V" horiz-adv-x="1269" d="M31 1229q0 39 18 68.5t46.5 50t62 30.5t65.5 10q37 0 64 -10.5t45 -28.5t28.5 -46t21.5 -63l217 -716q11 -36 20 -72l16 -66q8 -34 14 -65h4l11 64l14 65q8 37 19 74l202 717q9 34 20 62t31 48q17 17 44.5 27t60.5 10q31 0 63.5 -9t59 -28t43.5 -46.5t17 -63.5 q0 -14 -4.5 -33.5t-15.5 -54.5l-306 -950q-16 -49 -34.5 -84.5t-44.5 -61.5q-28 -28 -75.5 -46t-124.5 -18q-78 0 -125 18t-76 46q-26 26 -44.5 61.5t-33.5 84.5l-303 934q-11 36 -15.5 55.5t-4.5 36.5z" />
<glyph unicode="W" horiz-adv-x="2003" d="M51 1233q0 38 17.5 67t44.5 49t60.5 29.5t66.5 9.5q37 0 66 -11t47 -29q24 -24 33.5 -54.5t16.5 -64.5l155 -704q9 -40 15 -75l9 -64q5 -33 7 -61h4q3 28 8 61l10 64q5 36 15 76l152 677q21 100 79 142.5t156 42.5t156 -42.5t79 -144.5l149 -675q8 -39 15 -75l11 -65 q5 -33 9 -64h4l8 64q4 29 9.5 65t14.5 73l144 704q8 35 16 65.5t30 51.5q21 22 50.5 32.5t64.5 10.5q32 0 64 -9t57.5 -28t41.5 -45.5t16 -60.5q0 -7 -0.5 -13.5t-2 -15.5t-4 -21t-6.5 -29l-228 -951q-13 -52 -30.5 -92t-44.5 -67q-32 -32 -81 -47.5t-118 -15.5 q-70 0 -117 15.5t-79 47.5q-27 27 -42 67t-27 93l-142 634q-7 32 -12 65l-9 61q-5 33 -8 62h-4q-3 -30 -7 -62l-9 -61q-5 -33 -12 -66l-142 -633q-12 -53 -27 -93t-42 -67q-32 -32 -79 -47.5t-117 -15.5q-69 0 -118 15.5t-81 47.5q-27 27 -44.5 67t-29.5 92l-225 938 q-8 36 -10.5 51.5t-2.5 28.5z" />
<glyph unicode="X" horiz-adv-x="1242" d="M34 150q0 37 18 66.5t43 64.5l307 423l-278 355l-27 33q-13 17 -23.5 34.5t-16 35.5t-5.5 40q0 40 17.5 74t46.5 59t65 39t71 14t57.5 -10t40.5 -28q5 -5 10 -11l12 -14q7 -8 17 -20l22 -29l240 -336l195 323l20 31l15 24q7 11 14 18l13 16q17 17 40.5 26.5t53.5 9.5 q37 0 71.5 -13t60.5 -35t41.5 -51t15.5 -61q0 -37 -19 -67t-44 -64l-289 -396l297 -382l27 -34q13 -16 23 -33.5t16.5 -35.5t6.5 -40q0 -40 -18.5 -74t-47.5 -59t-64.5 -39t-71.5 -14q-34 0 -56.5 10t-40.5 28q-10 10 -22.5 24.5t-37.5 49.5l-259 365l-213 -352 q-22 -36 -35 -55t-28 -34q-16 -17 -40 -26.5t-53 -9.5q-37 0 -71.5 13t-60.5 35t-41 51t-15 61z" />
<glyph unicode="Y" horiz-adv-x="1180" d="M20 1212q0 40 18.5 73t47 56t63 35t67.5 12q36 0 60.5 -11.5t40.5 -28.5q15 -15 28 -36t32 -56l178 -328q10 -19 18 -38l16 -33l15 -35h4q6 17 13 35q6 16 14.5 35.5t18.5 38.5l166 325q18 36 29.5 56.5t27.5 36.5q19 19 44.5 29t54.5 10q34 0 67 -12t58.5 -33.5 t41.5 -50.5t16 -64q0 -32 -13 -58.5t-33 -60.5l-354 -604v-359q0 -74 -42.5 -113.5t-132.5 -39.5q-88 0 -130.5 39.5t-42.5 113.5v359l-342 580q-11 17 -19.5 33t-15 31.5t-10.5 30.5t-4 32z" />
<glyph unicode="Z" horiz-adv-x="1109" d="M62 190q0 38 17 81t53 98l475 733h-402q-54 0 -85.5 34t-31.5 104q0 71 31 104.5t86 33.5h629q97 0 148.5 -50.5t51.5 -139.5q0 -38 -16.5 -80.5t-52.5 -98.5l-475 -733h446q55 0 86.5 -34t31.5 -104q0 -71 -31 -104.5t-87 -33.5h-673q-98 0 -149.5 50.5t-51.5 139.5z " />
<glyph unicode="[" horiz-adv-x="703" d="M138 -229v1631q0 60 32 92.5t92 32.5h301q48 0 73.5 -31t25.5 -89q0 -57 -25.5 -88t-73.5 -31h-120v-1403h120q48 0 73.5 -31t25.5 -88q0 -58 -25.5 -88.5t-73.5 -30.5h-301q-60 0 -92 32t-32 92z" />
<glyph unicode="\" horiz-adv-x="911" d="M57 1358q0 30 14.5 55t38 43t53.5 27.5t60 9.5t51 -8t35 -23t24 -35.5t19 -44.5l545 -1493q9 -26 13.5 -42.5t4.5 -32.5q0 -31 -15 -56t-38.5 -42.5t-53 -27.5t-59.5 -10t-50.5 8.5t-35 23.5t-25 35.5t-18.5 43.5l-544 1493q-10 27 -14.5 43.5t-4.5 32.5z" />
<glyph unicode="]" horiz-adv-x="703" d="M41 -234q0 57 26 88t73 31h120v1403h-120q-47 0 -73 31t-26 88q0 58 26 89t73 31h301q59 0 91.5 -32.5t32.5 -92.5v-1631q0 -60 -32.5 -92t-91.5 -32h-301q-47 0 -73 30.5t-26 88.5z" />
<glyph unicode="^" d="M147 822q0 20 6.5 39t23.5 47l246 395q34 52 73 74.5t90 22.5q50 0 89.5 -22t72.5 -75l240 -387q16 -25 24.5 -45t8.5 -43q0 -28 -12 -52t-31.5 -41.5t-45.5 -27.5t-53 -10q-39 1 -67 22t-50 55l-183 291l-184 -291q-21 -33 -48 -55t-68 -22q-26 0 -49.5 9.5t-42 26 t-29.5 39.5t-11 50z" />
<glyph unicode="_" d="M0 -385q0 64 30 97t79 33h950q49 0 79 -33t30 -97q0 -62 -30 -94.5t-79 -32.5h-950q-49 0 -79 32.5t-30 94.5z" />
<glyph unicode="`" horiz-adv-x="1024" d="M285 1411q0 29 13 56.5t35 49.5t49.5 36t55.5 14q13 0 24 -3t21.5 -9.5t21.5 -16.5t23 -23l178 -202q17 -18 27.5 -33t10.5 -37q0 -20 -8 -39.5t-23.5 -35.5t-36 -25.5t-43.5 -9.5q-14 0 -30 5.5t-36 19.5l-215 160q-12 8 -24 17t-22 20t-15.5 24.5t-5.5 31.5z" />
<glyph unicode="a" horiz-adv-x="1166" d="M75 309q0 74 34 130t96 93.5t148 56.5t190 19q36 0 65 -2l52 -5q25 -4 46 -8v62q0 36 -9 62t-31 43t-58 25.5t-90 8.5q-64 0 -107.5 -9t-75.5 -20l-58 -20q-25 -9 -49 -9q-42 0 -70 27.5t-28 80.5q0 29 8.5 50t28.5 41q19 18 56.5 37.5t92 35.5t125 26.5t154.5 10.5 q223 0 335.5 -91.5t112.5 -269.5v-294q0 -70 6.5 -112.5t14.5 -71.5t14.5 -50t6.5 -46t-9.5 -47t-28.5 -38.5t-47.5 -26t-66.5 -9.5q-37 0 -66 10t-51.5 27t-38 40.5t-25.5 49.5h-3q-29 -38 -73 -68q-38 -26 -96 -46.5t-139 -20.5q-85 0 -153 24.5t-115.5 68.5t-72.5 104 t-25 131zM417 322q0 -22 8 -40t23.5 -31.5t38 -21t53.5 -7.5q40 0 71 13.5t52 29.5q24 19 43 43v91q-16 4 -36 7q-18 3 -42 5.5t-53 2.5q-79 0 -118.5 -23.5t-39.5 -68.5z" />
<glyph unicode="b" horiz-adv-x="1232" d="M126 209v1124q0 71 42 110t128 39q87 0 128.5 -39t41.5 -110v-237q0 -42 -2.5 -82t-8.5 -85h3q27 32 67 57q17 10 38.5 20.5t47.5 19t57 13.5t67 5q95 0 172.5 -31.5t133.5 -95t86.5 -157.5t30.5 -220q0 -132 -39 -236.5t-114 -176.5t-186 -110t-256 -38q-88 0 -154 9 t-113.5 23.5t-77 30.5t-43.5 31q-12 12 -21 25t-15 28.5t-9.5 36t-3.5 46.5zM466 260q13 -7 32 -13q15 -5 37.5 -9t53.5 -4q50 0 91.5 17t70.5 52.5t45 89.5t16 127q0 71 -12 119.5t-33.5 79t-52.5 44t-68 13.5q-23 0 -42.5 -5.5t-36.5 -14.5t-31.5 -20t-25.5 -23 q-26 -28 -44 -63v-390z" />
<glyph unicode="c" horiz-adv-x="953" d="M73 472q0 132 39.5 238t112 180.5t173.5 114t225 39.5q47 0 84.5 -6.5t67 -16.5t49.5 -23t33 -26q22 -21 32 -46t10 -62q0 -25 -7.5 -46t-21 -36t-32 -23.5t-40.5 -8.5t-39 6l-35 13q-18 7 -41 13t-57 6q-42 0 -80 -17.5t-66 -53t-44.5 -88.5t-16.5 -124q0 -65 17 -114.5 t46.5 -83.5t70.5 -51.5t90 -17.5q35 0 59 5.5t42 12.5l34 12q15 6 32 6q22 0 39.5 -8.5t30 -23.5t19 -34t6.5 -39q0 -32 -10.5 -56.5t-31.5 -46.5q-16 -16 -41 -32t-60.5 -28t-82.5 -19.5t-107 -7.5q-115 0 -207.5 34.5t-157 99t-99.5 155.5t-35 204z" />
<glyph unicode="d" horiz-adv-x="1232" d="M73 484q0 132 39 236.5t114.5 176.5t186.5 110.5t256 38.5q22 0 39.5 -1.5t30.5 -4.5q15 -2 26 -5l3 1q-3 43 -3 92v205q0 71 42 110t128 39q87 0 128.5 -39t41.5 -110v-1203q0 -69 -36 -105t-105 -36q-34 0 -58.5 7.5t-42 22t-29 35t-17.5 44.5l-8 36h-4 q-28 -43 -72 -77q-37 -29 -95.5 -53t-140.5 -24q-95 0 -173 32t-134 95t-86.5 157t-30.5 220zM419 504q0 -71 12 -119.5t34 -79t53 -44t68 -13.5q22 0 42 5.5t37 14.5t30.5 20t24.5 23q27 28 45 63v391q-13 7 -31 12q-16 5 -39 8.5t-53 3.5q-50 0 -91 -17t-70.5 -52.5 t-45.5 -89t-16 -126.5z" />
<glyph unicode="e" horiz-adv-x="1126" d="M73 478q0 132 39 237.5t109 179t169 112.5t218 39q103 0 185 -30.5t139 -87.5t88 -138.5t31 -183.5q0 -86 -40.5 -128t-113.5 -42h-487v-2q8 -48 28.5 -84.5t52.5 -61.5t76.5 -37.5t100.5 -12.5q47 0 82.5 6t63.5 14l50 14q22 6 42 6q23 0 41.5 -8.5t31 -22.5t19 -32.5 t6.5 -39.5q0 -31 -9.5 -53.5t-30.5 -43.5q-16 -16 -47 -34t-75.5 -32t-103.5 -23.5t-132 -9.5q-127 0 -226 35t-167 100t-104 157t-36 207zM410 630h327q-11 96 -49 139t-109 43q-29 0 -56 -9.5t-49 -31t-38.5 -56t-25.5 -85.5z" />
<glyph unicode="f" horiz-adv-x="746" d="M17 901q0 61 29 92t77 31h55v70q0 92 28 166t80.5 126t127 80t168.5 28q72 0 117 -16t68 -38q18 -19 28 -42.5t10 -62.5q0 -27 -7 -47.5t-19.5 -35t-28.5 -22t-34 -7.5q-12 0 -22 3l-22 7q-12 3 -26 5.5t-34 2.5q-50 0 -75 -34q-23 -31 -23 -96v-11l2 -76h107 q49 0 78 -31t29 -92q0 -62 -29 -93t-78 -31h-105v-636q0 -71 -41.5 -109.5t-128.5 -38.5t-128.5 38.5t-41.5 109.5v636h-55q-48 0 -77 31t-29 93z" />
<glyph unicode="g" horiz-adv-x="1115" d="M36 -193q0 63 24.5 109t54.5 76q35 35 80 59q-36 31 -56.5 71t-20.5 90q0 46 17 82t37 61q24 30 55 53q-62 48 -94.5 113t-32.5 139q0 83 30.5 153t91 122t149 81t205.5 29q44 0 83 -5.5t75 -15.5l111 138q31 38 55 53.5t57 15.5q25 0 49.5 -10.5t43 -27.5t29.5 -40 t11 -47q0 -30 -17.5 -54t-53.5 -55l-86 -79q47 -45 70.5 -102t23.5 -120q0 -83 -30.5 -153.5t-90.5 -122t-149 -80.5t-206 -29q-28 0 -53.5 2.5t-50.5 7.5q-9 -8 -17 -18q-7 -9 -11.5 -20t-4.5 -24q0 -17 6.5 -30t23.5 -21.5t47.5 -13t77.5 -4.5h128q108 0 185.5 -21.5 t128 -60.5t74.5 -93.5t24 -120.5q0 -79 -36.5 -149.5t-109 -123t-181 -83t-250.5 -30.5q-136 0 -230 24t-153 65t-86 95t-27 115zM377 -142q0 -26 11 -48t33 -38t56.5 -25t82.5 -9q58 0 99.5 10t68.5 27t40 40t13 49q0 20 -8 37.5t-24.5 30t-43.5 19.5t-66 7h-97 q-29 0 -56 2t-53 7q-16 -14 -28 -30q-11 -14 -19.5 -34t-8.5 -45zM420 680q0 -33 10 -60t29 -46t46 -29t60 -10t59.5 10t45 28.5t28.5 44.5t10 58q0 33 -10.5 60t-29 45.5t-46 29t-61.5 10.5q-32 0 -58.5 -10t-44.5 -28.5t-28 -44.5t-10 -58z" />
<glyph unicode="h" horiz-adv-x="1245" d="M126 141v1192q0 71 42 110t128 39q87 0 128.5 -39t41.5 -110v-237q0 -42 -2.5 -82t-8.5 -85h3q27 32 68 57q17 10 38.5 20.5t48 19t57.5 13.5t67 5q89 0 161 -27.5t122.5 -81t78 -132t27.5 -179.5v-483q0 -71 -42 -109.5t-128 -38.5q-87 0 -128.5 38.5t-41.5 109.5v447 q0 50 -10 86t-28 58.5t-45 33t-60 10.5q-22 0 -41.5 -5.5t-36 -14.5t-30.5 -20t-25 -23q-26 -28 -44 -63v-509q0 -71 -41.5 -109.5t-128.5 -38.5q-86 0 -128 38.5t-42 109.5z" />
<glyph unicode="i" horiz-adv-x="592" d="M104 1316q0 38 14 71t39 57.5t61 38t80 13.5q43 0 78 -13.5t60 -37.5t39 -56t14 -69q0 -38 -14 -71t-39.5 -57.5t-61 -38t-80.5 -13.5q-42 0 -77 13.5t-60 37.5t-39 56t-14 69zM126 141v742q0 71 42 110t128 39q87 0 128.5 -39t41.5 -110v-742q0 -71 -41.5 -109.5 t-128.5 -38.5q-86 0 -128 38.5t-42 109.5z" />
<glyph unicode="j" horiz-adv-x="597" d="M-65 -357q0 29 12 53t37 46q35 30 62.5 59t46 63t28.5 77t10 100v842q0 71 41.5 110t127.5 39q87 0 128.5 -39t41.5 -110v-850q0 -72 -10 -132t-28 -108.5t-42.5 -87t-54.5 -68.5q-53 -53 -116 -85t-136 -32q-34 0 -61 8.5t-46.5 25t-30 39t-10.5 50.5zM108 1316 q0 38 13.5 71t39 57.5t61.5 38t80 13.5q43 0 78 -13.5t60.5 -37.5t39 -56t13.5 -69q0 -38 -13.5 -71t-39.5 -57.5t-62 -38t-80 -13.5q-42 0 -77 13.5t-60.5 37.5t-39 56t-13.5 69z" />
<glyph unicode="k" horiz-adv-x="1129" d="M126 141v1192q0 71 42 110t128 39q87 0 128.5 -39t41.5 -110v-738l282 350q15 19 24 29.5t18 19.5q20 19 47 30t59 11q33 0 64.5 -13.5t56 -35t39 -50.5t14.5 -59q0 -22 -10.5 -46.5t-37.5 -55.5l-200 -212l223 -304q16 -22 29 -48t13 -57q0 -36 -16.5 -66t-43 -52 t-60 -34t-66.5 -12q-35 0 -61 12t-47 33q-12 13 -22 26t-22 32l-283 424v-376q0 -71 -41.5 -109.5t-128.5 -38.5q-86 0 -128 38.5t-42 109.5z" />
<glyph unicode="l" horiz-adv-x="646" d="M123 281v1052q0 71 41.5 110t128.5 39t128.5 -39t41.5 -110v-963q0 -37 4 -61t12 -38t19.5 -19.5t24.5 -5.5q10 0 20 1.5t20 1.5q14 0 28 -6t24.5 -17.5t17 -29.5t6.5 -41q0 -37 -10.5 -62t-29.5 -43q-11 -12 -27.5 -23t-39 -19.5t-54 -13.5t-71.5 -5q-141 0 -212.5 72.5 t-71.5 219.5z" />
<glyph unicode="m" horiz-adv-x="1879" d="M126 141v753q0 69 36 105t106 36q33 0 58 -7.5t43 -22t29 -34.5t17 -44l7 -37h4q28 44 71 77q18 15 41.5 29t52.5 24.5t63.5 17t76.5 6.5q110 0 190.5 -43t128.5 -121q32 45 79 82q21 15 46 30t56 26.5t67.5 18.5t79.5 7q86 0 157 -27.5t120.5 -81t76.5 -132t27 -179.5 v-483q0 -71 -41.5 -109.5t-128.5 -38.5q-86 0 -128 38.5t-42 109.5v447q0 50 -9 86t-27 58.5t-43.5 33t-56.5 10.5q-21 0 -39.5 -5.5t-35 -14.5t-30 -20.5t-24.5 -24.5q-25 -28 -43 -64q0 -16 1 -41.5t1 -52.5v-412q0 -71 -41.5 -109.5t-128.5 -38.5t-128.5 38.5 t-41.5 109.5v447q0 50 -9.5 86t-27 58.5t-43.5 33t-57 10.5q-21 0 -39.5 -5.5t-34 -14.5t-29 -20t-24.5 -23q-25 -28 -43 -63v-509q0 -71 -41.5 -109.5t-128.5 -38.5q-86 0 -128 38.5t-42 109.5z" />
<glyph unicode="n" horiz-adv-x="1245" d="M126 141v753q0 69 36 105t106 36q33 0 58 -7.5t43 -22t29 -34.5t17 -44l7 -37h4q28 44 71 77q19 15 43 29t54 24.5t65.5 17t77.5 6.5q89 0 161 -27.5t122.5 -81t78 -132t27.5 -179.5v-483q0 -71 -42 -109.5t-128 -38.5q-87 0 -128.5 38.5t-41.5 109.5v447q0 50 -10 86 t-28 58.5t-45 33t-60 10.5q-22 0 -41.5 -5.5t-36 -14.5t-30.5 -20t-25 -23q-26 -28 -44 -63v-509q0 -71 -41.5 -109.5t-128.5 -38.5q-86 0 -128 38.5t-42 109.5z" />
<glyph unicode="o" horiz-adv-x="1240" d="M73 495q0 129 38 231t110 173t176 109t235 38q124 0 222.5 -37t168 -105t106.5 -163.5t37 -211.5q0 -129 -38 -231t-109.5 -173t-175 -108.5t-235.5 -37.5q-123 0 -222 37t-168.5 104.5t-107 162.5t-37.5 212zM419 514q0 -71 16 -123.5t43.5 -87.5t64.5 -52t79 -17 t78.5 17t63.5 51t42 85.5t15 122.5t-15.5 123.5t-43 87t-65 52t-79.5 17.5t-78 -17t-63 -51t-42.5 -85.5t-15.5 -122.5z" />
<glyph unicode="p" horiz-adv-x="1232" d="M126 -329v1223q0 69 36 105t106 36q33 0 58 -7.5t43 -22t29 -34.5t17 -44l7 -37h4q28 44 72 77q18 15 42 29t53.5 24.5t64.5 17t77 6.5q95 0 172.5 -31.5t133.5 -95t86.5 -157.5t30.5 -220q0 -132 -39 -236.5t-114 -176.5t-186 -110t-256 -38q-22 0 -39.5 1.5t-30.5 3.5 q-15 2 -27 5l-3 -1q2 -22 2.5 -44.5t0.5 -47.5v-225q0 -71 -41.5 -110t-128.5 -39q-86 0 -128 39t-42 110zM466 258q14 -6 32 -12q16 -5 38.5 -8.5t52.5 -3.5q50 0 91.5 17t70.5 52.5t45 89.5t16 127q0 71 -12 119.5t-33.5 79t-52.5 44t-68 13.5q-23 0 -42.5 -5.5 t-36.5 -14.5t-31.5 -20t-25.5 -23q-26 -28 -44 -63v-392z" />
<glyph unicode="q" horiz-adv-x="1232" d="M73 484q0 132 39 236.5t114.5 176.5t186.5 110.5t256 38.5q88 0 154 -9.5t113 -23.5t76.5 -31t44.5 -31q12 -12 20.5 -24.5t15 -28.5t9.5 -36t3 -47v-1144q0 -71 -41.5 -110t-128.5 -39q-86 0 -128 39t-42 110v257q0 43 3 82.5t8 85.5h-3q-27 -34 -66 -59 q-34 -21 -86 -39t-123 -18q-96 0 -174 32t-134 95t-86.5 157t-30.5 220zM419 504q0 -71 12 -119.5t34 -79t53 -44t68 -13.5q22 0 42 5.5t37 14.5t30.5 20t24.5 23q27 28 45 63v391q-13 7 -31 12q-16 5 -39 8.5t-53 3.5q-50 0 -91 -17t-70.5 -52.5t-45.5 -89t-16 -126.5z" />
<glyph unicode="r" horiz-adv-x="799" d="M126 141v753q0 69 36 105t106 36q33 0 58 -7.5t42.5 -22t28.5 -35t18 -44.5l13 -59h3q18 39 42 72t54 56.5t65 37t75 13.5q60 0 94 -35.5t34 -114.5q0 -96 -33 -149t-81 -53q-12 0 -21.5 3t-18.5 6.5t-19 6t-22 2.5q-23 0 -44.5 -12.5t-38.5 -30.5t-30 -37.5t-21 -33.5 v-457q0 -71 -41.5 -109.5t-128.5 -38.5q-86 0 -128 38.5t-42 109.5z" />
<glyph unicode="s" horiz-adv-x="984" d="M83 706q0 73 28 135t85 107t143 70.5t202 25.5q58 0 104.5 -6.5t81.5 -17t59 -24.5t38 -28q21 -20 29.5 -43t8.5 -53q0 -22 -8 -41t-21.5 -32t-32 -21t-39.5 -8q-22 0 -45 6.5t-50.5 13.5t-60.5 13.5t-74 6.5q-34 0 -56 -4.5t-36.5 -13t-20 -20t-5.5 -25.5 q0 -26 21.5 -42t56 -28.5t79 -24t91 -27t91.5 -37.5t79.5 -56t56 -83t21.5 -118q0 -74 -29.5 -137.5t-88.5 -111t-149.5 -74.5t-212.5 -27q-65 0 -114 6t-86 17t-62 25.5t-41 30.5q-19 19 -28.5 41.5t-9.5 55.5q0 44 28.5 73t72.5 29q21 0 45 -7l54 -15q30 -8 67 -14.5 t85 -6.5q39 0 65.5 5.5t42.5 15t23.5 23t7.5 30.5q0 26 -21 43.5t-56.5 30.5t-80 24.5t-90.5 27.5t-90.5 38t-79.5 55.5t-56.5 81.5t-21.5 115z" />
<glyph unicode="t" horiz-adv-x="793" d="M14 901q0 61 29 92t78 31h68l38 153q17 67 53 99t100 32q66 0 101 -35t35 -103v-146h137q49 0 78 -31t29 -92q0 -62 -29 -93t-78 -31h-137v-409q0 -63 20.5 -90.5t62.5 -27.5q14 0 25.5 1.5t21 4t18 4t18.5 1.5q18 0 34 -7t27.5 -20t18 -31t6.5 -40q0 -35 -11 -59.5 t-32 -46.5q-13 -12 -33 -24.5t-48 -22t-64 -15.5t-80 -6q-167 0 -245.5 79t-78.5 247v462h-55q-49 0 -78 31t-29 93z" />
<glyph unicode="u" horiz-adv-x="1243" d="M119 400v483q0 71 41.5 110t128.5 39t128.5 -39t41.5 -110v-447q0 -101 37.5 -144.5t103.5 -43.5q22 0 41 5.5t35.5 14.5t30.5 20t25 23q26 28 44 63v509q0 71 41.5 110t128.5 39t128.5 -39t41.5 -110v-753q0 -69 -36 -105t-105 -36q-34 0 -58.5 7.5t-42.5 22t-29 35 t-17 44.5l-8 36h-4q-27 -43 -71 -77q-18 -14 -42 -28t-54 -25t-66 -17.5t-78 -6.5q-88 0 -159.5 27.5t-121.5 81t-77.5 132t-27.5 179.5z" />
<glyph unicode="v" horiz-adv-x="1105" d="M39 880q0 37 17 65.5t44.5 48t61 30.5t66.5 11q36 0 62 -11t43 -28q16 -16 26.5 -42.5t22.5 -66.5l143 -449q8 -26 14.5 -50.5t10.5 -44.5q5 -24 10 -44h4l10 44q4 20 10.5 44.5t14.5 50.5l138 455q10 34 20 60t26 43q17 17 43 28t62 11q32 0 63.5 -9.5t57.5 -28t42 -45 t16 -60.5q0 -17 -4 -34.5t-15 -51.5l-204 -579q-23 -65 -43.5 -105t-45.5 -65q-15 -14 -33.5 -26t-43 -20.5t-56 -13t-71.5 -4.5t-71 4t-55.5 12.5t-43 20.5t-33.5 26q-25 25 -46.5 65.5t-43.5 104.5l-198 559q-13 39 -17 58.5t-4 36.5z" />
<glyph unicode="w" horiz-adv-x="1743" d="M55 888q0 37 18.5 64.5t45.5 45.5t60 27.5t63 9.5q35 0 63.5 -10.5t46.5 -28.5q19 -19 29 -49.5t19 -71.5l105 -434q8 -33 13 -61.5t9 -48.5q4 -25 6 -45h4q2 21 6 45q3 21 8.5 49t13.5 61l94 408q11 49 28.5 84t44 57.5t63.5 33.5t87 11t87 -11t63 -33.5t43.5 -57.5 t28.5 -84l95 -408l13 -60q6 -29 10 -50q5 -25 8 -45h4l7 45l9 50q5 28 12 60l96 435q8 39 17.5 70t27.5 49t45.5 29t64.5 11q32 0 63 -9t56 -26.5t40 -43t15 -59.5q0 -13 -2.5 -30t-13.5 -57l-164 -594q-15 -58 -34 -98t-43 -65q-31 -30 -76 -45.5t-112 -15.5 q-65 0 -110.5 14.5t-76.5 44.5q-26 27 -43 70t-30 102l-78 314q-9 34 -14 66l-9 56q-4 28 -8 53h-4q-3 -25 -7 -53q-4 -25 -10 -56l-13 -66l-79 -314q-13 -58 -30 -101.5t-44 -69.5q-30 -31 -75.5 -45.5t-110.5 -14.5q-69 0 -114.5 16t-74.5 45q-25 25 -43.5 64.5 t-34.5 96.5l-162 583q-11 40 -13.5 59.5t-2.5 31.5z" />
<glyph unicode="x" horiz-adv-x="1115" d="M56 155q0 21 6.5 37.5t16.5 31.5t23 28l25 27l213 234l-184 197q-18 17 -33 33.5t-26.5 33t-18.5 34.5t-7 38q0 40 18 73.5t46 58.5t61.5 39.5t65.5 14.5q24 0 44.5 -7.5t35.5 -21.5q5 -4 9.5 -8t11 -10.5t16.5 -17.5l25 -30l180 -211l151 209l18 25q7 10 12.5 17t9.5 11 t7 8q18 18 39.5 27t46.5 9q30 0 61 -13t57 -35.5t42.5 -52.5t16.5 -65q0 -21 -6 -37.5t-16 -31t-23 -27.5l-26 -28l-199 -215l200 -216l32 -34q15 -16 27 -32.5t19 -34t7 -38.5q0 -39 -18.5 -73t-46.5 -59t-61.5 -39t-64.5 -14q-25 0 -45.5 7.5t-36.5 20.5l-9 9l-10 11 q-7 6 -17 17t-25 29l-196 230l-164 -228l-18 -25l-13 -17q-5 -7 -9 -11t-7 -8q-18 -18 -40 -26.5t-46 -8.5q-30 0 -61 12.5t-57 35t-42.5 52.5t-16.5 65z" />
<glyph unicode="y" horiz-adv-x="1105" d="M-66 -323q0 50 30.5 80.5t81.5 30.5q17 0 30.5 -1.5t25.5 -3.5t25 -3t29 -1q34 0 63 9t54 27t47 44.5t40 61.5l-300 864q-13 39 -17 58.5t-4 36.5q0 37 17 65.5t44.5 48t61 30.5t65.5 11q34 0 60 -11t43 -29q18 -18 27 -43t21 -65l143 -473q8 -28 15 -56l11 -52 q5 -27 10 -51h4q6 25 11 52l12 51q6 28 14 56l140 480q9 34 19 59.5t26 42.5q18 18 43.5 28.5t61.5 10.5q31 0 63 -9.5t57.5 -28t42 -45t16.5 -60.5q0 -17 -4 -35t-15 -52l-222 -630q-58 -167 -125 -291t-147.5 -205t-178 -121.5t-218.5 -40.5q-64 0 -109.5 15.5t-72.5 41.5 q-41 41 -41 103z" />
<glyph unicode="z" horiz-adv-x="988" d="M68 164q0 38 16 76t54 86l347 451h-285q-48 0 -77 31t-29 93q0 61 29 92t77 31h515q98 0 145 -43.5t47 -120.5q0 -38 -16.5 -76t-54.5 -86l-346 -451h333q48 0 77 -31t29 -93q0 -60 -29 -91.5t-77 -31.5h-563q-99 0 -145.5 43t-46.5 121z" />
<glyph unicode="{" horiz-adv-x="767" d="M41 600q0 36 10 62t27 44q10 10 22 14.5t24.5 10t26.5 12.5t29 23q14 13 22.5 35t13.5 48.5t6.5 56t1.5 59.5v196q0 89 24 158t69.5 117t110.5 72.5t146 24.5h4q43 0 73 -8.5t49.5 -25t28 -39t8.5 -49.5q0 -23 -6.5 -42.5t-19.5 -34t-32 -23.5t-43 -9h-9q-25 0 -43.5 -6 t-30 -21t-17.5 -38.5t-6 -59.5v-198q0 -80 -8 -136.5t-25.5 -98t-45.5 -70.5t-67 -54v-2q39 -25 67 -54.5t45.5 -73t25.5 -106t8 -152.5v-224q0 -39 6.5 -65.5t19.5 -42.5t32 -23t45 -7h9q49 0 72 -27t23 -73q0 -29 -10 -53t-32 -41t-55.5 -26.5t-80.5 -9.5h-4 q-80 0 -142 22.5t-104 66.5t-63.5 111t-21.5 156v240q0 30 -1.5 59.5t-6.5 56t-13.5 48t-22.5 35.5q-15 14 -29 22t-26 13l-25 10q-12 5 -22 15q-17 17 -27 43.5t-10 61.5z" />
<glyph unicode="|" horiz-adv-x="674" d="M192 -348v1700q0 74 37.5 108.5t106.5 34.5q71 0 108.5 -34.5t37.5 -108.5v-1700q0 -74 -37.5 -109t-108.5 -35q-69 0 -106.5 35t-37.5 109z" />
<glyph unicode="}" horiz-adv-x="767" d="M30 -238q0 22 7 42t19.5 34.5t31.5 23t43 8.5h9q25 0 43.5 6.5t30 21t17.5 38.5t6 59v225q0 80 8 137t26 98t46 70t68 54v3q-40 25 -68 54t-46 73t-26 106t-8 153v197q0 39 -6.5 65.5t-19.5 42.5t-32 23t-45 7h-9q-49 0 -72 27t-23 72q0 29 10 53t32 41.5t55.5 27 t80.5 9.5h4q80 0 142 -22t104 -67t64 -111.5t22 -155.5v-212q0 -30 1.5 -59.5t6.5 -56t13 -48.5t22 -35q14 -16 28.5 -23t27.5 -13l24 -10q12 -4 22 -14q36 -37 36 -106q0 -35 -9.5 -61.5t-26.5 -43.5q-10 -10 -21.5 -15t-24.5 -10t-27.5 -13t-28.5 -22t-22 -35.5t-13 -48 t-6.5 -56t-1.5 -59.5v-224q0 -89 -24.5 -158.5t-70 -116.5t-110 -72t-145.5 -25h-4q-44 0 -74 9t-49 25t-28 38.5t-9 49.5z" />
<glyph unicode="~" d="M118 533q0 28 13 56q19 41 48.5 74.5t67.5 57.5t83 37.5t95 13.5q40 0 73.5 -9t62.5 -22t53 -29l48 -29q24 -13 46 -21.5t45 -8.5q32 0 58 17.5t46 43.5q18 20 38.5 29.5t43.5 9.5q21 0 41 -8.5t35.5 -23.5t24.5 -35.5t9 -44.5q0 -14 -3 -28t-10 -28q-19 -41 -48.5 -75 t-67.5 -58t-83 -37t-95 -13q-40 0 -73.5 8.5t-62.5 22t-54 28.5l-48 29q-22 13 -44.5 22t-45.5 9q-32 0 -58 -17.5t-46 -43.5q-18 -20 -38.5 -29.5t-43.5 -9.5q-22 0 -41.5 8t-35 23.5t-24.5 36t-9 44.5z" />
<glyph unicode="&#xa1;" horiz-adv-x="675" d="M137 905q0 42 15 77t41.5 60.5t64 40t81.5 14.5q45 0 81.5 -14t62.5 -39t41 -59t15 -76t-15.5 -77t-43 -61t-64.5 -40t-81 -14t-80.5 13.5t-62.5 39t-40.5 59.5t-14.5 76zM152 -251q0 13 1 30.5t1.5 39t2.5 50.5l29 642q2 50 39 80.5t112 30.5q76 0 113 -30.5t40 -80.5 l28 -642q2 -29 3 -50.5t1.5 -39t0.5 -30.5v-26q0 -28 -10.5 -52t-32.5 -41.5t-57.5 -27.5t-85.5 -10q-51 0 -86 10t-57 27.5t-32 41.5t-10 52v26z" />
<glyph unicode="&#xa2;" horiz-adv-x="1046" d="M96 591q0 95 26.5 176.5t76 147t121 111t162.5 69.5v199q0 53 28.5 79.5t81.5 26.5t82.5 -26.5t29.5 -79.5v-178q42 -3 76.5 -11t61.5 -19t46.5 -23t30.5 -23q22 -22 32.5 -46.5t10.5 -62.5q0 -50 -28 -82t-73 -32q-23 0 -42 7l-41 15q-21 8 -48 15t-64 7 q-50 0 -91.5 -16.5t-71 -48t-46 -77.5t-16.5 -104q0 -52 16.5 -94t48 -72t76 -47t100.5 -17q38 0 64.5 6.5t46.5 14.5l39 14q18 6 41 6q22 0 39.5 -8.5t29.5 -23.5t18.5 -34t6.5 -40q0 -61 -41 -102q-14 -13 -34 -26.5t-47.5 -25.5t-63 -21t-77.5 -14v-184q0 -54 -29 -80.5 t-82 -26.5t-82 26.5t-29 80.5v190q-93 16 -164.5 56t-121 98.5t-75 134.5t-25.5 165z" />
<glyph unicode="&#xa3;" horiz-adv-x="1126" d="M91 702q0 59 29 90.5t78 31.5h23q-7 28 -12.5 57.5t-5.5 68.5q0 90 36 170t103.5 140t164.5 94.5t218 34.5q50 0 90.5 -6.5t71.5 -17t53 -24t35 -25.5q21 -22 32 -47t11 -61q0 -24 -8.5 -44.5t-23 -35.5t-34 -23.5t-41.5 -8.5t-41 6l-38 14q-20 7 -45 13.5t-59 6.5 q-48 0 -84 -12.5t-60.5 -34.5t-36.5 -55t-12 -74q0 -20 1.5 -37t4.5 -33.5t7 -32.5t9 -33h266q49 0 78 -31.5t29 -90.5t-29 -90t-78 -31h-225q1 -88 -25 -163.5t-76 -146.5l2 -4h454q52 0 81 -35.5t29 -97.5q0 -63 -29 -98.5t-81 -35.5h-676q-81 0 -125.5 44t-44.5 116 q0 23 3.5 42.5t10.5 37.5t17.5 36t24.5 39l35 51q18 29 33 62.5t24.5 71t8.5 81.5h-66q-49 0 -78 31t-29 90z" />
<glyph unicode="&#xa4;" horiz-adv-x="1102" d="M77 282q0 21 9.5 38.5t27.5 36.5l100 103q-34 48 -53 107t-19 132q0 74 18.5 135t54.5 109l-94 99q-15 16 -26.5 34t-11.5 42t11.5 46.5t30 40t41.5 27.5t46 10q26 0 45 -12.5t39 -41.5l85 -123q40 16 83.5 24t94.5 8q98 0 171 -31l88 127q20 30 40 42t46 12 q23 0 44.5 -10t39 -26t27.5 -37t10 -43q0 -21 -9.5 -38.5t-27.5 -37.5l-100 -104q36 -47 54 -106t18 -130q0 -74 -18.5 -135.5t-54.5 -109.5l95 -100q15 -15 25.5 -33t10.5 -42t-11 -46.5t-29.5 -40t-41.5 -28t-46 -10.5q-26 0 -45 13t-39 42l-84 122q-38 -15 -83 -23.5 t-96 -8.5q-50 0 -91 7.5t-80 22.5l-88 -125q-20 -30 -40 -42t-46 -12q-23 0 -44.5 10t-38.5 26t-27.5 36.5t-10.5 43.5zM377 709q0 -51 13 -90t36.5 -66t56 -41t70.5 -14q37 0 68.5 13.5t55 40t36.5 65t13 88.5t-13 89.5t-37 66t-56 40.5t-71 14q-38 0 -69.5 -13.5 t-54.5 -39.5t-35.5 -64.5t-12.5 -88.5z" />
<glyph unicode="&#xa5;" horiz-adv-x="1265" d="M100 1231q0 35 14.5 63.5t39.5 49.5t55.5 32.5t62.5 11.5q34 0 57.5 -11t37.5 -25q17 -17 29 -39l31 -53l169 -312l19 -38q9 -18 15 -33q8 -18 14 -33h4q7 16 14 34q6 15 14.5 34t18.5 38l159 311q17 36 28.5 56t26.5 35q37 36 93 36q31 0 60.5 -11t52 -31t36.5 -47 t14 -57q0 -32 -14.5 -61t-35.5 -63l-268 -442h140q46 0 69.5 -23t23.5 -69q0 -45 -23.5 -68.5t-69.5 -23.5h-190v-103h190q46 0 69.5 -23t23.5 -69q0 -45 -23.5 -68t-69.5 -23h-188v-68q0 -71 -42.5 -108t-128.5 -37t-128.5 37.5t-42.5 107.5v68h-187q-46 0 -69.5 23 t-23.5 68q0 46 23.5 69t69.5 23h190v103h-190q-46 0 -69.5 23.5t-23.5 68.5q0 46 23.5 69t69.5 23h140l-261 429q-20 34 -34.5 62t-14.5 64z" />
<glyph unicode="&#xa6;" horiz-adv-x="674" d="M192 251q0 74 37.5 109t106.5 35q71 0 108.5 -35t37.5 -109v-599q0 -74 -37.5 -109t-108.5 -35q-69 0 -106.5 35t-37.5 109v599zM192 765v587q0 74 37.5 108.5t106.5 34.5q71 0 108.5 -34.5t37.5 -108.5v-587q0 -73 -37.5 -108t-108.5 -35q-69 0 -106.5 35t-37.5 108z " />
<glyph unicode="&#xa7;" horiz-adv-x="1176" d="M101 528q0 107 51 182.5t143 130.5q-39 39 -63.5 88t-24.5 116q0 79 30 144t88 112t143 73t194 26q56 0 101 -6.5t79 -17t58 -24.5t39 -28q20 -20 28.5 -43t8.5 -52q0 -22 -7.5 -41t-21 -32t-32 -20.5t-40.5 -7.5t-44 6l-50 14q-27 7 -58.5 13t-71.5 6q-64 0 -90 -22 t-26 -60q0 -31 23 -55t61 -46t86.5 -43t99 -45.5t99 -56t87 -72t61.5 -94t23 -123.5q0 -106 -50.5 -181t-141.5 -129q38 -39 62 -89.5t24 -117.5q0 -79 -30.5 -144t-88.5 -112t-143 -73t-194 -26q-56 0 -100.5 6.5t-78.5 17.5t-58.5 24.5t-38.5 27.5q-20 20 -29 43t-9 53 q0 22 8 40.5t21.5 31.5t32 21t39.5 8q22 0 45 -7l50 -14q27 -7 58.5 -13t71.5 -6q63 0 89.5 22t26.5 60q0 31 -23 55t-61.5 46t-87 43t-99 45.5t-98.5 56t-86.5 72t-61.5 94t-23 123.5zM432 569q0 -35 18.5 -62t49 -49.5t70.5 -42.5l84 -41q43 26 66 58t23 77q0 35 -18 62 t-49 49t-71 42l-83 41q-43 -24 -66.5 -56.5t-23.5 -77.5z" />
<glyph unicode="&#xa8;" horiz-adv-x="1024" d="M111 1313q0 36 13 67.5t36.5 54.5t55.5 36.5t71 13.5q38 0 69.5 -13t54.5 -35t35.5 -53t12.5 -67q0 -37 -13 -68t-36.5 -54.5t-56 -36.5t-70.5 -13t-69.5 12.5t-54.5 35t-35.5 53t-12.5 67.5zM565 1313q0 36 13 67.5t37 54.5t56 36.5t70 13.5t69.5 -13t54.5 -35t35.5 -53 t12.5 -67q0 -37 -13 -68t-36.5 -54.5t-55.5 -36.5t-70 -13t-70 12.5t-55 35t-35.5 53t-12.5 67.5z" />
<glyph unicode="&#xa9;" horiz-adv-x="1626" d="M86 684q0 156 53.5 287.5t150.5 226.5t231.5 148.5t296.5 53.5t295 -51.5t228 -145t147 -223.5t52 -286t-53.5 -287.5t-150.5 -226.5t-231 -148t-297 -53q-162 0 -295 51.5t-228 145t-147 223t-52 285.5zM295 689q0 -118 38 -215t106.5 -166.5t163.5 -107t210 -37.5 t210.5 37.5t164 107t106 166.5t37.5 215q0 119 -37.5 215.5t-106 166t-164 107.5t-210.5 38t-210 -38t-163.5 -107.5t-106.5 -166t-38 -215.5zM469 663q0 97 27.5 173.5t77.5 129.5t120 81t155 28q35 0 64 -4.5t52.5 -13t40.5 -18.5t27 -20q16 -15 23 -31.5t7 -38.5 q0 -33 -19.5 -54.5t-49.5 -21.5q-14 0 -26.5 5.5t-28 11t-35.5 11t-48 5.5q-35 0 -65 -13.5t-52 -41t-34.5 -69.5t-12.5 -98q0 -52 12.5 -91t34.5 -65t54 -38.5t70 -12.5q29 0 49.5 4.5t36.5 10.5l28 11q12 5 26 5q27 0 44.5 -20t17.5 -52q0 -39 -29 -68 q-11 -11 -29.5 -22.5t-45 -20.5t-60.5 -14.5t-74 -5.5q-83 0 -149.5 25t-112.5 71.5t-71 113t-25 148.5z" />
<glyph unicode="&#xaa;" horiz-adv-x="874" d="M76 509q0 45 24 69t68 24h550q44 0 68 -24t24 -69t-24.5 -69.5t-67.5 -24.5h-550q-44 0 -68 24.5t-24 69.5zM103 903q0 48 22.5 84.5t64 61t98.5 37.5t126 13q23 0 43 -1.5t34 -3.5q17 -3 31 -5v43q0 23 -6 40t-20.5 28.5t-38.5 17t-60 5.5q-41 0 -70.5 -6t-50.5 -14 l-38 -13q-17 -6 -33 -6q-28 0 -47 18.5t-19 54.5q0 19 6.5 33.5t19.5 27.5q12 12 37 25t61 23.5t83 17t103 6.5q150 0 224 -60t74 -179v-194q0 -46 4.5 -74.5t10 -47.5t10 -33t4.5 -30q0 -34 -26 -58t-77 -24q-49 0 -78.5 25t-41.5 59h-2q-20 -25 -49 -44q-26 -17 -63.5 -31 t-92.5 -14q-56 0 -101 16.5t-76.5 45.5t-48.5 69t-17 87zM332 912q0 -29 20.5 -47.5t60.5 -18.5q26 0 46.5 9t34.5 19q16 13 28 29v60q-10 3 -24 5q-11 2 -27 4t-35 2q-104 0 -104 -62z" />
<glyph unicode="&#xab;" horiz-adv-x="1286" d="M75 511q0 38 15.5 67t39.5 55l276 295q26 27 51 44.5t59 17.5q30 0 56.5 -11t47 -29.5t32.5 -42.5t12 -52q0 -25 -11.5 -46.5t-30.5 -44.5l-206 -245l211 -253q21 -27 31.5 -47t10.5 -45q0 -28 -12.5 -52.5t-33.5 -43t-48 -29.5t-57 -11q-18 0 -32.5 4t-28.5 12 t-27.5 19.5t-28.5 28.5l-271 290q-24 25 -39.5 54.5t-15.5 64.5zM636 511q0 38 15.5 67t39.5 55l255 272q27 30 52.5 45t57.5 15q28 0 54 -10t46.5 -28t32.5 -42t12 -50q0 -32 -16.5 -56.5t-43.5 -57.5l-171 -202l192 -231q22 -27 32.5 -47.5t10.5 -44.5q0 -28 -12.5 -52.5 t-33.5 -42.5t-48 -28.5t-55 -10.5q-18 0 -32.5 3.5t-28 11.5t-27 20t-29.5 29l-248 266q-24 25 -39.5 54.5t-15.5 64.5z" />
<glyph unicode="&#xac;" d="M132 585q0 56 30 88.5t83 32.5h616q147 0 147 -147v-251q0 -75 -35.5 -109t-98.5 -34q-62 0 -97.5 34t-35.5 109v156h-496q-53 0 -83 32t-30 89z" />
<glyph unicode="&#xad;" horiz-adv-x="918" d="M103 556q0 63 29.5 96t79.5 33h494q49 0 79 -33t30 -96t-30 -96t-79 -33h-494q-50 0 -79.5 33t-29.5 96z" />
<glyph unicode="&#xae;" horiz-adv-x="978" d="M63 1082q0 91 31 166.5t87.5 130.5t136 85.5t176.5 30.5q96 0 174 -29.5t133 -82.5t84.5 -127.5t29.5 -164.5t-30.5 -166t-87 -130.5t-136 -85t-177.5 -30.5q-97 0 -174.5 29t-132.5 82.5t-84.5 127.5t-29.5 164zM182 1087q0 -70 21.5 -126.5t61 -96t97 -60.5t128.5 -21 q70 0 127 21t96.5 60.5t61 96t21.5 126.5q0 69 -21.5 125.5t-61 96t-96.5 61t-128 21.5q-70 0 -127.5 -21.5t-97 -61t-61 -96t-21.5 -125.5zM330 933v310q0 24 13.5 37.5t37.5 13.5h105q93 0 134.5 -35t41.5 -89q0 -41 -19 -68.5t-49 -41.5q8 -21 17.5 -36t21.5 -28 q12 -12 21 -19.5t16 -14.5q9 -8 12 -15.5t3 -17.5q0 -19 -15.5 -33.5t-43.5 -14.5q-22 0 -39.5 8.5t-33.5 24.5q-19 18 -34.5 47t-30.5 74h-46v-102q0 -25 -13.5 -38.5t-42.5 -13.5t-42.5 13.5t-13.5 38.5zM442 1117h46q29 0 43.5 13t14.5 34t-14 32.5t-49 11.5h-41v-91z " />
<glyph unicode="&#xaf;" horiz-adv-x="1024" d="M143 1313q0 58 26.5 87.5t75.5 29.5h534q49 0 75.5 -29.5t26.5 -87.5q0 -57 -26.5 -86.5t-75.5 -29.5h-534q-49 0 -75.5 29.5t-26.5 86.5z" />
<glyph unicode="&#xb0;" horiz-adv-x="879" d="M92 1175q0 67 25.5 125.5t71.5 102t110.5 68t143.5 24.5t142.5 -23t108.5 -65t69 -99t24 -125q0 -67 -25.5 -125t-72 -101t-111.5 -68t-143 -25q-80 0 -143.5 23.5t-107.5 65t-68 98t-24 124.5zM313 1179q0 -29 9.5 -52.5t26 -40.5t40 -26.5t50.5 -9.5q28 0 51 9.5 t40 26.5t26 40.5t9 52.5t-9 53t-26 41t-40 26t-51 9q-27 0 -50.5 -9t-40 -26t-26 -41t-9.5 -53z" />
<glyph unicode="&#xb1;" horiz-adv-x="1167" d="M130 121q0 57 30 89t83 32h681q54 0 84 -32t30 -89q0 -56 -30 -88.5t-83 -32.5h-682q-53 0 -83 32.5t-30 88.5zM133 794q0 56 30 88t83 32h204v189q0 73 36 107.5t98 34.5t98 -34.5t36 -107.5v-189h203q54 0 84 -32t30 -88q0 -57 -30 -89t-83 -32h-204v-189 q0 -73 -36 -107.5t-98 -34.5t-98 34.5t-36 107.5v189h-204q-53 0 -83 32t-30 89z" />
<glyph unicode="&#xb2;" horiz-adv-x="725" d="M51 746q0 36 14.5 64t40.5 51l115 104l64 59q27 25 43.5 45.5t24.5 38t8 35.5q0 29 -19.5 46.5t-65.5 17.5q-21 0 -36.5 -2.5t-29 -6t-26 -6t-26.5 -2.5q-32 0 -52.5 20t-20.5 55q0 21 7.5 37.5t20.5 29.5q12 12 33.5 23t51 19t67 13t82.5 5q74 0 127.5 -15.5t88.5 -43.5 t52 -67t17 -85q0 -44 -12.5 -80.5t-39 -70.5t-67.5 -70.5t-97 -79.5l-70 -55h233q37 0 59 -24.5t22 -73.5q0 -48 -22 -72.5t-59 -24.5h-407q-58 0 -89.5 32t-31.5 84z" />
<glyph unicode="&#xb3;" horiz-adv-x="720" d="M61 747q0 35 21.5 55.5t52.5 20.5q17 0 31 -5l30 -12q16 -6 37.5 -11.5t53.5 -5.5q53 0 76.5 18t23.5 46q0 16 -7.5 28.5t-26.5 21.5t-53.5 13.5t-87.5 4.5q-14 0 -23.5 3t-16.5 10q-13 12 -19 32t-6 41.5t6 41t19 31.5q7 7 16.5 10t23.5 3q46 0 75 5t45.5 13.5t22.5 21 t6 26.5q0 24 -19 39t-67 15q-23 0 -38.5 -2.5t-28.5 -5.5l-25 -6q-12 -3 -27 -3q-31 0 -51 19.5t-20 55.5q0 19 6.5 34.5t20.5 29.5q25 25 80.5 41t143.5 16q73 0 126 -14t87.5 -40t51.5 -62t17 -78q0 -57 -30 -96.5t-77 -64.5v-1q61 -18 98 -61t37 -119q0 -50 -22 -93.5 t-64.5 -76.5t-106 -51.5t-147.5 -18.5q-80 0 -135 17t-82 43q-12 13 -20 29.5t-8 41.5z" />
<glyph unicode="&#xb4;" horiz-adv-x="1024" d="M278 1243q0 22 11 37t27 33l179 202q24 27 44 39.5t46 12.5q28 0 55 -14t49 -36t35 -49.5t13 -56.5q0 -18 -5.5 -31.5t-15 -24.5t-21.5 -20t-24 -17l-216 -160q-19 -14 -35 -19.5t-30 -5.5q-24 0 -44 9.5t-35.5 25.5t-24 35.5t-8.5 39.5z" />
<glyph unicode="&#xb5;" horiz-adv-x="1250" d="M126 -329v1212q0 71 41.5 110t128.5 39t128.5 -39t41.5 -110v-447q0 -101 37.5 -144.5t103.5 -43.5q22 0 41 5.5t35.5 14.5t30.5 20t25 23q27 28 45 63v509q0 71 41 110t129 39q86 0 128 -39t42 -110v-753q0 -69 -36.5 -105t-105.5 -36q-34 0 -58.5 7.5t-42 22t-28.5 35 t-18 44.5l-8 36h-3q-24 -43 -60 -77q-30 -29 -76 -52.5t-107 -23.5q-36 0 -62 7t-44 16q-21 10 -35 24l-2 -2l17 -250q1 -13 2 -28.5t1.5 -30.5t1.5 -29.5t1 -25.5q0 -70 -42.5 -105t-122.5 -35q-86 0 -128 39t-42 110z" />
<glyph unicode="&#xb6;" horiz-adv-x="1322" d="M113 917q0 112 31.5 198t98.5 144.5t170.5 88.5t248.5 30h347q73 0 110.5 -37.5t37.5 -110.5v-1422q0 -56 -29 -86t-91 -30t-91 30.5t-29 85.5v1332h-163v-1332q0 -56 -28.5 -86t-91.5 -30q-62 0 -91 30.5t-29 85.5v672q-92 0 -166 28.5t-126.5 84t-80.5 137t-28 187.5z " />
<glyph unicode="&#xb7;" horiz-adv-x="627" d="M115 554q0 44 15 81t42 63.5t63.5 41.5t80.5 15t80 -14t61.5 -40t40 -62.5t14.5 -79.5q0 -44 -15 -80.5t-41.5 -63.5t-63 -42t-80.5 -15t-80 14.5t-62 40.5t-40.5 61.5t-14.5 79.5z" />
<glyph unicode="&#xb8;" horiz-adv-x="1024" d="M271 -397q0 31 18 49.5t49 18.5q16 0 32 -1.5t38 -1.5q34 0 55 5t32.5 14t16 20t4.5 22q0 21 -13.5 34t-50.5 13h-35q-27 0 -37.5 15t-2.5 48l39 161h179l-21 -79q42 -4 76.5 -16.5t58.5 -34.5t38 -53t14 -71q0 -49 -20.5 -92.5t-60 -76t-99.5 -51t-139 -18.5 q-49 0 -81.5 7.5t-52.5 21t-28.5 30.5t-8.5 36z" />
<glyph unicode="&#xb9;" horiz-adv-x="592" d="M35 1191q0 22 7 37.5t22 30.5q9 9 23.5 19t34.5 20l43 22q24 12 52 24q51 22 84.5 32t61.5 10q54 0 84.5 -29t30.5 -81v-543q0 -52 -32 -81t-96 -29t-96 29t-32 81v388l-42 -15l-28 -8q-13 -3 -25 -3q-41 0 -66.5 28t-25.5 68z" />
<glyph unicode="&#xba;" horiz-adv-x="913" d="M86 509q0 45 24.5 69t67.5 24h556q44 0 68 -24t24 -69t-24 -69.5t-68 -24.5h-556q-43 0 -67.5 24.5t-24.5 69.5zM94 1026q0 85 25 153t72.5 114.5t116.5 71.5t157 25q82 0 147.5 -24.5t111.5 -69t71 -108t25 -140.5q0 -86 -25.5 -153.5t-73.5 -114.5t-116.5 -72 t-156.5 -25q-82 0 -147.5 24.5t-111.5 69.5t-70.5 108t-24.5 141zM324 1037q0 -47 10.5 -81.5t29 -57t42.5 -33.5t52 -11t51.5 11t41 33t28 56.5t10.5 80.5q0 47 -10.5 81.5t-28.5 57.5t-42.5 34t-52.5 11q-27 0 -51 -11t-42 -33.5t-28 -57t-10 -80.5z" />
<glyph unicode="&#xbb;" horiz-adv-x="1286" d="M81 829q0 28 12.5 52t33 42.5t47.5 29t55 10.5q18 0 33 -4t28.5 -11.5t27.5 -19.5l29 -29l248 -266q24 -25 39.5 -54.5t15.5 -65.5q0 -37 -16 -66t-39 -55l-255 -273q-28 -29 -53.5 -44.5t-56.5 -15.5q-29 0 -55 10.5t-46 28.5t-32 41.5t-12 49.5q0 32 16.5 56.5 t43.5 58.5l170 202l-192 231q-22 27 -32 47.5t-10 44.5zM617 850q0 28 12 52.5t33.5 43t48.5 29.5t57 11q35 0 60.5 -15t56.5 -49l271 -289q24 -25 39.5 -54.5t15.5 -65.5q0 -37 -15.5 -66t-39.5 -55l-277 -296q-25 -27 -50 -44t-60 -17q-30 0 -56.5 10.5t-47 29t-32.5 43 t-12 51.5q0 26 12 47t31 45l205 245l-210 253q-21 26 -31.5 46.5t-10.5 44.5z" />
<glyph unicode="&#xbc;" horiz-adv-x="1660" d="M35 1191q0 22 7 37.5t22 30.5q9 9 23.5 19t34.5 20l44 22q23 12 51 24q51 22 84.5 32t61.5 10q54 0 84.5 -29t30.5 -81v-543q0 -52 -32 -81t-96 -29t-96 29t-32 81v388l-42 -15l-28 -8q-13 -3 -25 -3q-41 0 -66.5 28t-25.5 68zM295 79q0 15 6.5 30.5t15.5 31.5l719 1200 q16 27 36 42.5t51 15.5q21 0 41.5 -7.5t37 -21t26.5 -32t10 -39.5q0 -15 -6.5 -30.5t-15.5 -30.5l-719 -1200q-16 -27 -36 -42.5t-51 -15.5q-21 0 -42 7.5t-37 20.5t-26 31.5t-10 39.5zM891 301q0 31 10.5 58.5t35.5 61.5l180 242q20 27 40.5 45.5t45.5 30t55 16.5t69 5 q88 0 125.5 -28.5t37.5 -87.5v-293h46q33 0 52 -22t19 -68t-19 -68t-52 -22h-46v-73q0 -52 -29 -78t-90 -26q-60 0 -89 26t-29 78v73h-216q-74 0 -110 35t-36 95zM1091 351h162v221z" />
<glyph unicode="&#xbd;" horiz-adv-x="1673" d="M35 1191q0 22 7 37.5t22 30.5q9 9 23.5 19t34.5 20l44 22q23 12 51 24q51 22 84.5 32t61.5 10q54 0 84.5 -29t30.5 -81v-543q0 -52 -32 -81t-96 -29t-96 29t-32 81v388l-42 -15l-28 -8q-13 -3 -25 -3q-41 0 -66.5 28t-25.5 68zM294 79q0 15 6.5 30.5t15.5 31.5l719 1200 q16 27 36 42.5t51 15.5q21 0 41.5 -7.5t37 -21t26.5 -32t10 -39.5q0 -15 -6.5 -30.5t-15.5 -30.5l-719 -1200q-16 -27 -36 -42.5t-51 -15.5q-21 0 -42 7.5t-37 20.5t-26 31.5t-10 39.5zM998 117q0 36 14.5 64t40.5 51l115 104l64 59q27 25 43.5 45.5t24.5 38t8 35.5 q0 29 -19.5 46.5t-65.5 17.5q-21 0 -36.5 -2.5t-29 -6t-26 -6t-26.5 -2.5q-32 0 -52.5 20t-20.5 55q0 21 7.5 37.5t20.5 29.5q12 12 33.5 23t51 19t67 13t82.5 5q74 0 127.5 -15.5t88.5 -43.5t52 -67t17 -85q0 -44 -12.5 -80.5t-39 -70.5t-67.5 -70.5t-97 -79.5l-70 -55h233 q37 0 59 -24.5t22 -73.5q0 -48 -22 -72.5t-59 -24.5h-407q-58 0 -89.5 32t-31.5 84z" />
<glyph unicode="&#xbe;" horiz-adv-x="1760" d="M61 747q0 35 21.5 55.5t52.5 20.5q17 0 31 -5l30 -12q16 -6 37.5 -11.5t53.5 -5.5q53 0 76.5 18t23.5 46q0 16 -7.5 28.5t-26.5 21.5t-53.5 13.5t-87.5 4.5q-14 0 -23.5 3t-16.5 10q-13 12 -19 32t-6 41.5t6 41t19 31.5q7 7 16.5 10t23.5 3q46 0 75 5t45.5 13.5t22.5 21 t6 26.5q0 24 -19 39t-67 15q-23 0 -38.5 -2.5t-28.5 -5.5l-25 -6q-12 -3 -27 -3q-31 0 -51 19.5t-20 55.5q0 19 6.5 34.5t20.5 29.5q25 25 80.5 41t143.5 16q73 0 126 -14t87.5 -40t51.5 -62t17 -78q0 -57 -30 -96.5t-77 -64.5v-1q61 -18 98 -61t37 -119q0 -50 -22 -93.5 t-64.5 -76.5t-106 -51.5t-147.5 -18.5q-80 0 -135 17t-82 43q-12 13 -20 29.5t-8 41.5zM395 79q0 15 6.5 30.5t15.5 31.5l719 1200q16 27 36 42.5t51 15.5q21 0 41.5 -7.5t37 -21t26.5 -32t10 -39.5q0 -15 -6.5 -30.5t-15.5 -30.5l-719 -1200q-16 -27 -36 -42.5t-51 -15.5 q-21 0 -42 7.5t-37 20.5t-26 31.5t-10 39.5zM991 301q0 31 10.5 58.5t35.5 61.5l180 242q20 27 40.5 45.5t45.5 30t55 16.5t69 5q88 0 125.5 -28.5t37.5 -87.5v-293h46q33 0 52 -22t19 -68t-19 -68t-52 -22h-46v-73q0 -52 -29 -78t-90 -26q-60 0 -89 26t-29 78v73h-216 q-74 0 -110 35t-36 95zM1191 351h162v221z" />
<glyph unicode="&#xbf;" horiz-adv-x="837" d="M32 -86q0 69 22 121.5t54.5 95t71 77t71 67t54.5 66.5t22 75q0 19 -2 33.5t-5 25.5l-4 22q-2 10 -2 22q0 45 39.5 74t122.5 29q44 0 79.5 -13.5t59.5 -39.5t37 -65.5t13 -90.5q0 -61 -21 -108t-52.5 -86t-68.5 -72t-68.5 -64t-52.5 -64t-21 -71q0 -24 8 -44t27 -34 t49 -22t73 -8q39 0 66 5.5t47 11.5l38 11q18 5 39 5q46 0 73 -28.5t27 -75.5q0 -28 -10 -50t-28 -41q-20 -20 -52 -38t-74 -31t-93 -20.5t-110 -7.5q-111 0 -191.5 24t-133.5 67.5t-78.5 105t-25.5 136.5zM264 905q0 42 15 77t41.5 60.5t64 40t82.5 14.5q44 0 80.5 -14 t62.5 -39t41 -59t15 -76t-15.5 -77t-43 -61t-64.5 -40t-81 -14t-80.5 13.5t-62.5 39t-40.5 59.5t-14.5 76z" />
<glyph unicode="&#xc0;" horiz-adv-x="1330" d="M31 135q0 19 4.5 38t16.5 55l312 916q11 32 21.5 57.5t22 46t23.5 37.5t27 32q33 32 82.5 49.5t124.5 17.5t124.5 -17.5t82.5 -49.5q15 -15 27.5 -32t23.5 -37.5t21.5 -46t21.5 -57.5l312 -910q12 -36 16.5 -55t4.5 -36q0 -38 -17.5 -67t-45 -48t-61 -28.5t-65.5 -9.5 q-38 0 -66.5 11t-48.5 32q-19 18 -31 45t-23 63l-49 151h-472l-47 -151q-11 -37 -22.5 -65.5t-30.5 -47.5q-18 -18 -45 -28t-64 -10q-32 0 -64 9.5t-58 28.5t-42 46t-16 61zM307 1713q0 29 12 60t32 56t46.5 41.5t55.5 16.5q18 0 33.5 -6.5t33.5 -21.5l249 -192 q26 -20 36.5 -36.5t10.5 -38.5q0 -21 -8.5 -43t-23 -39t-34 -28t-42.5 -11q-16 0 -29 4.5t-26 10.5l-279 137q-33 16 -50 36.5t-17 53.5zM493 552h320l-106 333q-13 41 -23 77l-18 63q-10 32 -16 60h-4l-15 -60q-8 -27 -17.5 -63t-21.5 -77z" />
<glyph unicode="&#xc1;" horiz-adv-x="1330" d="M31 135q0 19 4.5 38t16.5 55l312 916q11 32 21.5 57.5t22 46t23.5 37.5t27 32q33 32 82.5 49.5t124.5 17.5t124.5 -17.5t82.5 -49.5q15 -15 27.5 -32t23.5 -37.5t21.5 -46t21.5 -57.5l312 -910q12 -36 16.5 -55t4.5 -36q0 -38 -17.5 -67t-45 -48t-61 -28.5t-65.5 -9.5 q-38 0 -66.5 11t-48.5 32q-19 18 -31 45t-23 63l-49 151h-472l-47 -151q-11 -37 -22.5 -65.5t-30.5 -47.5q-18 -18 -45 -28t-64 -10q-32 0 -64 9.5t-58 28.5t-42 46t-16 61zM475 1592q0 22 10 38.5t37 36.5l248 192q19 15 34.5 21.5t33.5 6.5q29 0 55.5 -16.5t46 -41.5 t31.5 -56t12 -60q0 -33 -16.5 -53.5t-50.5 -36.5l-278 -137q-14 -6 -27 -10.5t-28 -4.5q-23 0 -43 11t-34.5 28t-22.5 39t-8 43zM493 552h320l-106 333q-13 41 -23 77l-18 63q-10 32 -16 60h-4l-15 -60q-8 -27 -17.5 -63t-21.5 -77z" />
<glyph unicode="&#xc2;" horiz-adv-x="1330" d="M31 135q0 19 4.5 38t16.5 55l312 916q11 32 21.5 57.5t22 46t23.5 37.5t27 32q33 32 82.5 49.5t124.5 17.5t124.5 -17.5t82.5 -49.5q15 -15 27.5 -32t23.5 -37.5t21.5 -46t21.5 -57.5l312 -910q12 -36 16.5 -55t4.5 -36q0 -38 -17.5 -67t-45 -48t-61 -28.5t-65.5 -9.5 q-38 0 -66.5 11t-48.5 32q-19 18 -31 45t-23 63l-49 151h-472l-47 -151q-11 -37 -22.5 -65.5t-30.5 -47.5q-18 -18 -45 -28t-64 -10q-32 0 -64 9.5t-58 28.5t-42 46t-16 61zM293 1578q0 22 10 39.5t38 41.5l187 166q27 24 55.5 38t68.5 14q41 0 69.5 -14t54.5 -37l184 -165 q22 -20 31.5 -36t9.5 -38q0 -23 -9 -43t-23.5 -34.5t-33.5 -23.5t-39 -9q-17 0 -31.5 5.5t-33.5 16.5l-189 116l-190 -118q-19 -12 -32 -16.5t-29 -4.5q-20 0 -38.5 8.5t-31.5 23t-20.5 32.5t-7.5 38zM493 552h320l-106 333q-13 41 -23 77l-18 63q-10 32 -16 60h-4l-15 -60 q-8 -27 -17.5 -63t-21.5 -77z" />
<glyph unicode="&#xc3;" horiz-adv-x="1330" d="M31 135q0 19 4.5 38t16.5 55l312 916q11 32 21.5 57.5t22 46t23.5 37.5t27 32q33 32 82.5 49.5t124.5 17.5t124.5 -17.5t82.5 -49.5q15 -15 27.5 -32t23.5 -37.5t21.5 -46t21.5 -57.5l312 -910q12 -36 16.5 -55t4.5 -36q0 -38 -17.5 -67t-45 -48t-61 -28.5t-65.5 -9.5 q-38 0 -66.5 11t-48.5 32q-19 18 -31 45t-23 63l-49 151h-472l-47 -151q-11 -37 -22.5 -65.5t-30.5 -47.5q-18 -18 -45 -28t-64 -10q-32 0 -64 9.5t-58 28.5t-42 46t-16 61zM251 1610q0 34 19 71.5t54.5 70t86.5 53t114 20.5q52 0 93 -15t76 -33l64 -33q30 -15 59 -15 q30 0 49 12.5t35 27.5t33 27t44 12q39 0 66 -24t27 -76q0 -34 -19 -72t-54.5 -70t-86.5 -53t-114 -21q-52 0 -93 15t-76 33l-64 33q-30 15 -58 15q-31 0 -50 -12.5t-35 -27t-33 -27t-44 -12.5q-39 0 -66 24t-27 77zM493 552h320l-106 333q-13 41 -23 77l-18 63 q-10 32 -16 60h-4l-15 -60q-8 -27 -17.5 -63t-21.5 -77z" />
<glyph unicode="&#xc4;" horiz-adv-x="1330" d="M31 135q0 19 4.5 38t16.5 55l312 916q11 32 21.5 57.5t22 46t23.5 37.5t27 32q33 32 82.5 49.5t124.5 17.5t124.5 -17.5t82.5 -49.5q15 -15 27.5 -32t23.5 -37.5t21.5 -46t21.5 -57.5l312 -910q12 -36 16.5 -55t4.5 -36q0 -38 -17.5 -67t-45 -48t-61 -28.5t-65.5 -9.5 q-38 0 -66.5 11t-48.5 32q-19 18 -31 45t-23 63l-49 151h-472l-47 -151q-11 -37 -22.5 -65.5t-30.5 -47.5q-18 -18 -45 -28t-64 -10q-32 0 -64 9.5t-58 28.5t-42 46t-16 61zM237 1661q0 37 13.5 69t37 55.5t56 36.5t71.5 13t71 -12.5t55 -35t35.5 -54t12.5 -68.5t-13 -68.5 t-36.5 -55.5t-56.5 -37.5t-71 -13.5q-39 0 -71 13t-55.5 35.5t-36 54t-12.5 68.5zM493 552h320l-106 333q-13 41 -23 77l-18 63q-10 32 -16 60h-4l-15 -60q-8 -27 -17.5 -63t-21.5 -77zM717 1661q0 37 13 69t37 55.5t56.5 36.5t71.5 13t71 -12.5t55 -35t35.5 -54t12.5 -68.5 t-13.5 -68.5t-37 -55.5t-56 -37.5t-70.5 -13.5q-39 0 -71 13t-55.5 35.5t-36 54t-12.5 68.5z" />
<glyph unicode="&#xc5;" horiz-adv-x="1330" d="M31 135q0 19 4.5 38t16.5 55l312 916q11 32 21.5 57.5t22 46t23.5 37.5t27 32q33 32 82.5 49.5t124.5 17.5t124.5 -17.5t82.5 -49.5q15 -15 27.5 -32t23.5 -37.5t21.5 -46t21.5 -57.5l312 -910q12 -36 16.5 -55t4.5 -36q0 -38 -17.5 -67t-45 -48t-61 -28.5t-65.5 -9.5 q-38 0 -66.5 11t-48.5 32q-19 18 -31 45t-23 63l-49 151h-472l-47 -151q-11 -37 -22.5 -65.5t-30.5 -47.5q-18 -18 -45 -28t-64 -10q-32 0 -64 9.5t-58 28.5t-42 46t-16 61zM353 1726q0 56 23 103.5t64 82.5t96.5 54.5t121.5 19.5q65 0 119.5 -18t94 -51.5t61.5 -80 t22 -102.5q0 -57 -23 -105t-64 -82.5t-97 -54t-121 -19.5q-66 0 -120 18t-93.5 51.5t-61.5 80t-22 103.5zM493 552h320l-106 333q-13 41 -23 77l-18 63q-10 32 -16 60h-4l-15 -60q-8 -27 -17.5 -63t-21.5 -77zM546 1730q0 -48 30 -76.5t78 -28.5t78 28.5t30 76.5 q0 47 -30 75.5t-78 28.5t-78 -28.5t-30 -75.5z" />
<glyph unicode="&#xc6;" horiz-adv-x="1801" d="M0 143q0 16 3 30.5t9 29.5t14 32l20 37l528 966q21 39 43.5 65.5t50.5 43.5t63 24t83 7h800q52 0 82.5 -32.5t30.5 -99.5q0 -66 -30.5 -99t-82.5 -33h-419v-284h355q50 0 80 -33t30 -96q0 -65 -30 -98t-80 -33h-355v-306h424q51 0 81.5 -33t30.5 -99q0 -67 -30.5 -99.5 t-81.5 -32.5h-617q-74 0 -115 41t-41 114v137h-416l-84 -155q-20 -40 -34.5 -64t-30.5 -40q-20 -20 -47.5 -31.5t-62.5 -11.5q-31 0 -61.5 10t-55 30t-39.5 48.5t-15 64.5zM555 552h291v562h-3z" />
<glyph unicode="&#xc7;" horiz-adv-x="1186" d="M80 640q0 173 48.5 313t137.5 238.5t213.5 151.5t277.5 53q63 0 115 -9t92 -23t68 -31t44 -33q26 -26 37 -54t11 -65q0 -27 -8.5 -49t-24 -38t-36.5 -25t-46 -9q-23 0 -44 10l-49 22q-27 11 -64 21t-90 10q-65 0 -124 -27t-103.5 -82t-71 -139.5t-26.5 -198.5 q0 -103 25.5 -181t70.5 -131t107 -79.5t135 -26.5q54 0 92 9.5t66 21.5l49 21q21 9 45 9q21 0 39.5 -8t32.5 -23.5t22 -36.5t8 -46q0 -33 -11.5 -59t-36.5 -51q-21 -21 -53 -40.5t-75.5 -35t-98.5 -25.5t-120 -10l-16 -63q41 -4 75.5 -16.5t59 -34.5t38 -53t13.5 -71 q0 -49 -20 -92.5t-60.5 -76t-100 -51t-138.5 -18.5q-48 0 -81 7.5t-53 21t-28.5 30.5t-8.5 36q0 31 18 49.5t50 18.5q15 0 31 -1.5t38 -1.5q34 0 55 5t33 14t16.5 20t4.5 22q0 21 -14 34t-51 13h-35q-27 0 -37.5 15t-2.5 48l38 159q-107 22 -194.5 75t-150.5 135t-98 190.5 t-35 241.5z" />
<glyph unicode="&#xc8;" horiz-adv-x="1098" d="M143 155v1068q0 73 41 114t115 41h612q53 0 83.5 -32.5t30.5 -99.5q0 -66 -30.5 -99t-83.5 -33h-419v-284h355q49 0 79.5 -33t30.5 -97t-30.5 -97t-79.5 -33h-355v-306h424q52 0 82.5 -33t30.5 -99q0 -67 -30.5 -99.5t-82.5 -32.5h-617q-74 0 -115 41t-41 114zM218 1713 q0 29 12 60t32 56t46.5 41.5t55.5 16.5q18 0 33.5 -6.5t33.5 -21.5l249 -192q26 -20 36.5 -36.5t10.5 -38.5q0 -21 -8.5 -43t-23 -39t-34 -28t-42.5 -11q-16 0 -29 4.5t-26 10.5l-279 137q-33 16 -50 36.5t-17 53.5z" />
<glyph unicode="&#xc9;" horiz-adv-x="1098" d="M143 155v1068q0 73 41 114t115 41h612q53 0 83.5 -32.5t30.5 -99.5q0 -66 -30.5 -99t-83.5 -33h-419v-284h355q49 0 79.5 -33t30.5 -97t-30.5 -97t-79.5 -33h-355v-306h424q52 0 82.5 -33t30.5 -99q0 -67 -30.5 -99.5t-82.5 -32.5h-617q-74 0 -115 41t-41 114zM429 1592 q0 22 10 38.5t37 36.5l248 192q19 15 34.5 21.5t33.5 6.5q29 0 55.5 -16.5t46 -41.5t31.5 -56t12 -60q0 -33 -16.5 -53.5t-50.5 -36.5l-278 -137q-14 -6 -27 -10.5t-28 -4.5q-23 0 -43 11t-34.5 28t-22.5 39t-8 43z" />
<glyph unicode="&#xca;" horiz-adv-x="1098" d="M143 155v1068q0 73 41 114t115 41h612q53 0 83.5 -32.5t30.5 -99.5q0 -66 -30.5 -99t-83.5 -33h-419v-284h355q49 0 79.5 -33t30.5 -97t-30.5 -97t-79.5 -33h-355v-306h424q52 0 82.5 -33t30.5 -99q0 -67 -30.5 -99.5t-82.5 -32.5h-617q-74 0 -115 41t-41 114zM222 1578 q0 22 10 39.5t38 41.5l187 166q27 24 55.5 38t68.5 14q41 0 69.5 -14t54.5 -37l184 -165q22 -20 31.5 -36t9.5 -38q0 -23 -9 -43t-23.5 -34.5t-33.5 -23.5t-39 -9q-17 0 -31.5 5.5t-33.5 16.5l-189 116l-190 -118q-19 -12 -32 -16.5t-29 -4.5q-20 0 -38.5 8.5t-31.5 23 t-20.5 32.5t-7.5 38z" />
<glyph unicode="&#xcb;" horiz-adv-x="1098" d="M143 155v1068q0 73 41 114t115 41h612q53 0 83.5 -32.5t30.5 -99.5q0 -66 -30.5 -99t-83.5 -33h-419v-284h355q49 0 79.5 -33t30.5 -97t-30.5 -97t-79.5 -33h-355v-306h424q52 0 82.5 -33t30.5 -99q0 -67 -30.5 -99.5t-82.5 -32.5h-617q-74 0 -115 41t-41 114zM166 1661 q0 37 13.5 69t37 55.5t56 36.5t71.5 13t71 -12.5t55 -35t35.5 -54t12.5 -68.5t-13 -68.5t-36.5 -55.5t-56.5 -37.5t-71 -13.5q-39 0 -71 13t-55.5 35.5t-36 54t-12.5 68.5zM646 1661q0 37 13 69t37 55.5t56.5 36.5t71.5 13t71 -12.5t55 -35t35.5 -54t12.5 -68.5t-13.5 -68.5 t-37 -55.5t-56 -37.5t-70.5 -13.5q-39 0 -71 13t-55.5 35.5t-36 54t-12.5 68.5z" />
<glyph unicode="&#xcc;" horiz-adv-x="635" d="M-14 1713q0 29 12 60t32 56t46.5 41.5t55.5 16.5q18 0 33.5 -6.5t33.5 -21.5l249 -192q26 -20 36.5 -36.5t10.5 -38.5q0 -21 -8.5 -43t-23 -39t-34 -28t-42.5 -11q-16 0 -29 4.5t-26 10.5l-279 137q-33 16 -50 36.5t-17 53.5zM143 146v1086q0 74 43 113.5t131 39.5 q90 0 132.5 -39.5t42.5 -113.5v-1086q0 -74 -42.5 -113.5t-132.5 -39.5q-89 0 -131.5 39.5t-42.5 113.5z" />
<glyph unicode="&#xcd;" horiz-adv-x="635" d="M126 1592q0 22 10 38.5t37 36.5l248 192q19 15 34.5 21.5t33.5 6.5q29 0 55.5 -16.5t46 -41.5t31.5 -56t12 -60q0 -33 -16.5 -53.5t-50.5 -36.5l-278 -137q-14 -6 -27 -10.5t-28 -4.5q-23 0 -43 11t-34.5 28t-22.5 39t-8 43zM143 146v1086q0 74 43 113.5t131 39.5 q90 0 132.5 -39.5t42.5 -113.5v-1086q0 -74 -42.5 -113.5t-132.5 -39.5q-89 0 -131.5 39.5t-42.5 113.5z" />
<glyph unicode="&#xce;" horiz-adv-x="635" d="M-36 1578q0 22 10 39.5t38 41.5l187 166q27 24 55.5 38t68.5 14q41 0 69.5 -14t54.5 -37l184 -165q22 -20 31.5 -36t9.5 -38q0 -23 -9 -43t-23.5 -34.5t-33.5 -23.5t-39 -9q-17 0 -31.5 5.5t-33.5 16.5l-189 116l-190 -118q-19 -12 -32 -16.5t-29 -4.5q-20 0 -38.5 8.5 t-31.5 23t-20.5 32.5t-7.5 38zM143 146v1086q0 74 43 113.5t131 39.5q90 0 132.5 -39.5t42.5 -113.5v-1086q0 -74 -42.5 -113.5t-132.5 -39.5q-89 0 -131.5 39.5t-42.5 113.5z" />
<glyph unicode="&#xcf;" horiz-adv-x="635" d="M-95 1661q0 37 13.5 69t37 55.5t56 36.5t71.5 13t71 -12.5t55 -35t35.5 -54t12.5 -68.5t-13 -68.5t-36.5 -55.5t-56.5 -37.5t-71 -13.5q-39 0 -71 13t-55.5 35.5t-36 54t-12.5 68.5zM143 146v1086q0 74 43 113.5t131 39.5q90 0 132.5 -39.5t42.5 -113.5v-1086 q0 -74 -42.5 -113.5t-132.5 -39.5q-89 0 -131.5 39.5t-42.5 113.5zM385 1661q0 37 13 69t37 55.5t56.5 36.5t71.5 13t71 -12.5t55 -35t35.5 -54t12.5 -68.5t-13.5 -68.5t-37 -55.5t-56 -37.5t-70.5 -13.5q-39 0 -71 13t-55.5 35.5t-36 54t-12.5 68.5z" />
<glyph unicode="&#xd0;" horiz-adv-x="1485" d="M28 713q0 58 28 87t76 29h58v394q0 73 40.5 114t114.5 41h345q174 0 308 -45.5t224.5 -131t137 -207.5t46.5 -275q0 -168 -50 -301t-146 -226t-234.5 -142.5t-316.5 -49.5h-314q-74 0 -114.5 41t-40.5 114v437h-58q-48 0 -76 31t-28 90zM538 261h136q87 0 156 27.5 t118 81.5t75.5 136t26.5 192q0 109 -24 188.5t-71 130.5t-117 75.5t-164 24.5h-136v-288h156q48 0 76 -29.5t28 -87.5t-28 -89t-76 -31h-156v-331z" />
<glyph unicode="&#xd1;" horiz-adv-x="1521" d="M143 128v1024q0 118 58.5 175.5t180.5 57.5q57 0 96.5 -11.5t70.5 -34.5t55.5 -56.5t49.5 -77.5l351 -596q22 -38 40 -74l30 -65l28 -63l5 2q-5 35 -9 75l-7 78q-4 44 -5 93l-18 595q-3 63 37.5 99t118.5 36q76 0 114.5 -35.5t38.5 -99.5v-1023q0 -119 -58.5 -176.5 t-180.5 -57.5q-56 0 -96 11.5t-71 34.5t-55.5 56.5t-49.5 77.5l-351 596l-40 74q-18 36 -30 65l-28 63l-4 -2q4 -35 8 -75q4 -34 7.5 -78.5t5.5 -92.5l17 -595q3 -63 -37 -99t-118 -36q-77 0 -115.5 35.5t-38.5 99.5zM346 1610q0 34 19 71.5t54.5 70t86.5 53t114 20.5 q52 0 93 -15t76 -33l65 -33q29 -15 58 -15q30 0 49 12.5t35 27.5t33 27t44 12q39 0 66 -24t27 -76q0 -34 -19 -72t-54.5 -70t-86.5 -53t-114 -21q-52 0 -93 15t-75 33l-65 33q-30 15 -58 15q-31 0 -50 -12.5t-35 -27t-33 -27t-44 -12.5q-39 0 -66 24t-27 77z" />
<glyph unicode="&#xd2;" horiz-adv-x="1531" d="M80 669q0 171 49.5 307t141 230t220 144t288.5 50q153 0 277.5 -47.5t212.5 -137t135 -218t47 -289.5q0 -171 -49.5 -306t-141 -229t-220 -144t-287.5 -50q-154 0 -278.5 47.5t-212 136.5t-135 217t-47.5 289zM397 1713q0 29 12 60t32 56t46.5 41.5t55.5 16.5 q18 0 33.5 -6.5t33.5 -21.5l249 -192q26 -20 36.5 -36.5t10.5 -38.5q0 -21 -8.5 -43t-23 -39t-34 -28t-42.5 -11q-16 0 -29 4.5t-26 10.5l-279 137q-33 16 -50 36.5t-17 53.5zM437 691q0 -110 26 -193t71 -138t105 -83t129 -28q68 0 127.5 27.5t104 82t69.5 136.5t25 192 q0 109 -25.5 192.5t-71 138.5t-105.5 83t-128 28t-127.5 -27.5t-104 -82t-70 -137t-25.5 -191.5z" />
<glyph unicode="&#xd3;" horiz-adv-x="1531" d="M80 669q0 171 49.5 307t141 230t220 144t288.5 50q153 0 277.5 -47.5t212.5 -137t135 -218t47 -289.5q0 -171 -49.5 -306t-141 -229t-220 -144t-287.5 -50q-154 0 -278.5 47.5t-212 136.5t-135 217t-47.5 289zM437 691q0 -110 26 -193t71 -138t105 -83t129 -28 q68 0 127.5 27.5t104 82t69.5 136.5t25 192q0 109 -25.5 192.5t-71 138.5t-105.5 83t-128 28t-127.5 -27.5t-104 -82t-70 -137t-25.5 -191.5zM604 1592q0 22 10 38.5t37 36.5l248 192q19 15 34.5 21.5t33.5 6.5q29 0 55.5 -16.5t46 -41.5t31.5 -56t12 -60q0 -33 -16.5 -53.5 t-50.5 -36.5l-278 -137q-14 -6 -27 -10.5t-28 -4.5q-23 0 -43 11t-34.5 28t-22.5 39t-8 43z" />
<glyph unicode="&#xd4;" horiz-adv-x="1531" d="M80 669q0 171 49.5 307t141 230t220 144t288.5 50q153 0 277.5 -47.5t212.5 -137t135 -218t47 -289.5q0 -171 -49.5 -306t-141 -229t-220 -144t-287.5 -50q-154 0 -278.5 47.5t-212 136.5t-135 217t-47.5 289zM411 1578q0 22 10 39.5t38 41.5l187 166q27 24 55.5 38 t68.5 14q41 0 69.5 -14t54.5 -37l184 -165q22 -20 31.5 -36t9.5 -38q0 -23 -9 -43t-23.5 -34.5t-33.5 -23.5t-39 -9q-17 0 -31.5 5.5t-33.5 16.5l-189 116l-190 -118q-19 -12 -32 -16.5t-29 -4.5q-20 0 -38.5 8.5t-31.5 23t-20.5 32.5t-7.5 38zM437 691q0 -110 26 -193 t71 -138t105 -83t129 -28q68 0 127.5 27.5t104 82t69.5 136.5t25 192q0 109 -25.5 192.5t-71 138.5t-105.5 83t-128 28t-127.5 -27.5t-104 -82t-70 -137t-25.5 -191.5z" />
<glyph unicode="&#xd5;" horiz-adv-x="1531" d="M80 669q0 171 49.5 307t141 230t220 144t288.5 50q153 0 277.5 -47.5t212.5 -137t135 -218t47 -289.5q0 -171 -49.5 -306t-141 -229t-220 -144t-287.5 -50q-154 0 -278.5 47.5t-212 136.5t-135 217t-47.5 289zM354 1610q0 34 19 71.5t54.5 70t86.5 53t114 20.5 q52 0 93 -15t76 -33l64 -33q30 -15 59 -15q30 0 49 12.5t35 27.5t33 27t44 12q39 0 66 -24t27 -76q0 -34 -19 -72t-54.5 -70t-86.5 -53t-114 -21q-52 0 -93 15t-76 33l-64 33q-30 15 -58 15q-31 0 -50 -12.5t-35 -27t-33 -27t-44 -12.5q-39 0 -66 24t-27 77zM437 691 q0 -110 26 -193t71 -138t105 -83t129 -28q68 0 127.5 27.5t104 82t69.5 136.5t25 192q0 109 -25.5 192.5t-71 138.5t-105.5 83t-128 28t-127.5 -27.5t-104 -82t-70 -137t-25.5 -191.5z" />
<glyph unicode="&#xd6;" horiz-adv-x="1531" d="M80 669q0 171 49.5 307t141 230t220 144t288.5 50q153 0 277.5 -47.5t212.5 -137t135 -218t47 -289.5q0 -171 -49.5 -306t-141 -229t-220 -144t-287.5 -50q-154 0 -278.5 47.5t-212 136.5t-135 217t-47.5 289zM351 1661q0 37 13.5 69t37 55.5t56 36.5t71.5 13t71 -12.5 t55 -35t35.5 -54t12.5 -68.5t-13 -68.5t-36.5 -55.5t-56.5 -37.5t-71 -13.5q-39 0 -71 13t-55.5 35.5t-36 54t-12.5 68.5zM437 691q0 -110 26 -193t71 -138t105 -83t129 -28q68 0 127.5 27.5t104 82t69.5 136.5t25 192q0 109 -25.5 192.5t-71 138.5t-105.5 83t-128 28 t-127.5 -27.5t-104 -82t-70 -137t-25.5 -191.5zM831 1661q0 37 13 69t37 55.5t56.5 36.5t71.5 13t71 -12.5t55 -35t35.5 -54t12.5 -68.5t-13.5 -68.5t-37 -55.5t-56 -37.5t-70.5 -13.5q-39 0 -71 13t-55.5 35.5t-36 54t-12.5 68.5z" />
<glyph unicode="&#xd7;" d="M170 865q0 26 11.5 50.5t30 42.5t42 29t48.5 11q29 0 50 -13.5t39 -31.5l198 -199l192 193q25 25 45 36t46 11q24 0 46.5 -10t40 -27t27.5 -39.5t10 -46.5q0 -26 -12 -46.5t-33 -42.5l-195 -195l198 -199q20 -20 32 -40t12 -47t-11.5 -51t-30 -42.5t-42 -29.5t-48.5 -11 q-29 0 -50 13.5t-39 31.5l-198 199l-192 -192q-25 -25 -45 -36.5t-46 -11.5q-24 0 -47 10.5t-40 27t-27 39t-10 46.5q0 27 12 48t33 42l196 194l-199 200q-20 20 -32 40t-12 47z" />
<glyph unicode="&#xd8;" horiz-adv-x="1567" d="M80 669q0 171 49.5 307t143 230t225.5 144t298 50q62 0 117.5 -7.5t103.5 -21.5l71 126q19 34 28.5 48.5t20.5 25.5q26 26 71 26q26 0 51 -9t45 -25.5t32.5 -38.5t12.5 -48q0 -21 -9.5 -41t-27.5 -54l-65 -117q59 -45 104 -104t75 -130.5t45 -152.5t15 -169 q0 -171 -49.5 -306t-142.5 -229t-225.5 -144t-297.5 -50q-62 0 -118 7.5t-102 21.5l-71 -127q-19 -34 -29.5 -49t-19.5 -25q-27 -26 -71 -26q-26 0 -51 9t-45 25.5t-32.5 38.5t-12.5 48q0 21 9 41t28 54l64 117q-55 43 -99.5 99.5t-75.5 125.5t-48 151.5t-17 178.5zM415 691 q0 -93 19.5 -165t52.5 -123l401 722q-20 8 -46.5 13.5t-60.5 5.5q-79 0 -146.5 -29t-116.5 -85.5t-76 -141.5t-27 -197zM681 253q23 -9 49.5 -13.5t54.5 -4.5q80 0 147.5 28.5t116.5 85t76 141t27 197.5q0 90 -17 160.5t-53 129.5z" />
<glyph unicode="&#xd9;" horiz-adv-x="1428" d="M132 532v700q0 74 43 113.5t132 39.5t131.5 -39.5t42.5 -113.5v-658q0 -85 17.5 -145.5t50 -100t76.5 -57.5t97 -18q49 0 90.5 16.5t71.5 52t47 89t17 127.5v694q0 74 42 113.5t131 39.5t132 -39.5t43 -113.5v-664q0 -145 -39 -255.5t-113.5 -184.5t-184.5 -111.5 t-253 -37.5q-142 0 -249 36t-179.5 105.5t-109 173t-36.5 238.5zM316 1713q0 29 12 60t32 56t46.5 41.5t55.5 16.5q18 0 33.5 -6.5t33.5 -21.5l249 -192q26 -20 36.5 -36.5t10.5 -38.5q0 -21 -8.5 -43t-23 -39t-34 -28t-42.5 -11q-16 0 -29 4.5t-26 10.5l-279 137 q-33 16 -50 36.5t-17 53.5z" />
<glyph unicode="&#xda;" horiz-adv-x="1428" d="M132 532v700q0 74 43 113.5t132 39.5t131.5 -39.5t42.5 -113.5v-658q0 -85 17.5 -145.5t50 -100t76.5 -57.5t97 -18q49 0 90.5 16.5t71.5 52t47 89t17 127.5v694q0 74 42 113.5t131 39.5t132 -39.5t43 -113.5v-664q0 -145 -39 -255.5t-113.5 -184.5t-184.5 -111.5 t-253 -37.5q-142 0 -249 36t-179.5 105.5t-109 173t-36.5 238.5zM591 1592q0 22 10 38.5t37 36.5l248 192q19 15 34.5 21.5t33.5 6.5q29 0 55.5 -16.5t46 -41.5t31.5 -56t12 -60q0 -33 -16.5 -53.5t-50.5 -36.5l-278 -137q-14 -6 -27 -10.5t-28 -4.5q-23 0 -43 11t-34.5 28 t-22.5 39t-8 43z" />
<glyph unicode="&#xdb;" horiz-adv-x="1428" d="M132 532v700q0 74 43 113.5t132 39.5t131.5 -39.5t42.5 -113.5v-658q0 -85 17.5 -145.5t50 -100t76.5 -57.5t97 -18q49 0 90.5 16.5t71.5 52t47 89t17 127.5v694q0 74 42 113.5t131 39.5t132 -39.5t43 -113.5v-664q0 -145 -39 -255.5t-113.5 -184.5t-184.5 -111.5 t-253 -37.5q-142 0 -249 36t-179.5 105.5t-109 173t-36.5 238.5zM362 1578q0 22 10 39.5t38 41.5l187 166q27 24 55.5 38t68.5 14q41 0 69.5 -14t54.5 -37l184 -165q22 -20 31.5 -36t9.5 -38q0 -23 -9 -43t-23.5 -34.5t-33.5 -23.5t-39 -9q-17 0 -31.5 5.5t-33.5 16.5 l-189 116l-190 -118q-19 -12 -32 -16.5t-29 -4.5q-20 0 -38.5 8.5t-31.5 23t-20.5 32.5t-7.5 38z" />
<glyph unicode="&#xdc;" horiz-adv-x="1428" d="M132 532v700q0 74 43 113.5t132 39.5t131.5 -39.5t42.5 -113.5v-658q0 -85 17.5 -145.5t50 -100t76.5 -57.5t97 -18q49 0 90.5 16.5t71.5 52t47 89t17 127.5v694q0 74 42 113.5t131 39.5t132 -39.5t43 -113.5v-664q0 -145 -39 -255.5t-113.5 -184.5t-184.5 -111.5 t-253 -37.5q-142 0 -249 36t-179.5 105.5t-109 173t-36.5 238.5zM299 1661q0 37 13.5 69t37 55.5t56 36.5t71.5 13t71 -12.5t55 -35t35.5 -54t12.5 -68.5t-13 -68.5t-36.5 -55.5t-56.5 -37.5t-71 -13.5q-39 0 -71 13t-55.5 35.5t-36 54t-12.5 68.5zM779 1661q0 37 13 69 t37 55.5t56.5 36.5t71.5 13t71 -12.5t55 -35t35.5 -54t12.5 -68.5t-13.5 -68.5t-37 -55.5t-56 -37.5t-70.5 -13.5q-39 0 -71 13t-55.5 35.5t-36 54t-12.5 68.5z" />
<glyph unicode="&#xdd;" horiz-adv-x="1180" d="M20 1212q0 40 18.5 73t47 56t63 35t67.5 12q36 0 60.5 -11.5t40.5 -28.5q15 -15 28 -36t32 -56l178 -328q10 -19 18 -38l16 -33l15 -35h4q6 17 13 35q6 16 14.5 35.5t18.5 38.5l166 325q18 36 29.5 56.5t27.5 36.5q19 19 44.5 29t54.5 10q34 0 67 -12t58.5 -33.5 t41.5 -50.5t16 -64q0 -32 -13 -58.5t-33 -60.5l-354 -604v-359q0 -74 -42.5 -113.5t-132.5 -39.5q-88 0 -130.5 39.5t-42.5 113.5v359l-342 580q-11 17 -19.5 33t-15 31.5t-10.5 30.5t-4 32zM455 1592q0 22 10 38.5t37 36.5l248 192q19 15 34.5 21.5t33.5 6.5 q29 0 55.5 -16.5t46 -41.5t31.5 -56t12 -60q0 -33 -16.5 -53.5t-50.5 -36.5l-278 -137q-14 -6 -27 -10.5t-28 -4.5q-23 0 -43 11t-34.5 28t-22.5 39t-8 43z" />
<glyph unicode="&#xde;" horiz-adv-x="1200" d="M143 146v1087q0 73 41.5 112.5t131.5 39.5q45 0 77.5 -9.5t53.5 -28t31.5 -44t10.5 -56.5v-109h110q142 0 246 -31t172 -87.5t101 -134.5t33 -173q0 -107 -34 -192.5t-104.5 -146t-178 -92.5t-255.5 -32h-90v-118q0 -31 -10.5 -56.5t-31.5 -44t-53.5 -28t-77.5 -9.5 q-90 0 -131.5 39.5t-41.5 113.5zM489 504h106q100 0 152.5 50.5t52.5 140.5q0 91 -51 137.5t-165 46.5h-95v-375z" />
<glyph unicode="&#xdf;" horiz-adv-x="1355" d="M126 141v875q0 114 34 202.5t105.5 150t182 94t263.5 32.5q106 0 185 -25t132.5 -68.5t80 -101t26.5 -122.5q0 -58 -15.5 -102t-39 -80t-51.5 -65l-50 -54q-23 -25 -39 -49t-16 -51q0 -26 16.5 -45t43.5 -35t61.5 -32.5t70.5 -36.5t70.5 -45.5t61.5 -60t43.5 -81 t16.5 -107.5q0 -77 -27.5 -142t-83 -112t-138.5 -73t-193 -26q-52 0 -92.5 5.5t-71.5 15.5t-52 23t-35 27q-20 20 -30.5 43.5t-10.5 57.5q0 23 7.5 42t21 32.5t32 21.5t40.5 8q21 0 39.5 -5.5t39 -12.5t45.5 -12.5t60 -5.5q64 0 90.5 22t26.5 57q0 26 -16.5 44t-43.5 33 t-61.5 29t-71 31.5t-71 40t-61.5 55.5t-43.5 78t-16.5 107q0 51 15 92t36.5 75t48 63.5t48 57t36.5 55t15 59.5q0 55 -35.5 87.5t-107.5 32.5q-84 0 -132.5 -51.5t-48.5 -152.5v-895q0 -71 -41.5 -109.5t-128.5 -38.5q-86 0 -128 38.5t-42 109.5z" />
<glyph unicode="&#xe0;" horiz-adv-x="1166" d="M75 309q0 74 34 130t96 93.5t148 56.5t190 19q36 0 65 -2l52 -5q25 -4 46 -8v62q0 36 -9 62t-31 43t-58 25.5t-90 8.5q-64 0 -107.5 -9t-75.5 -20l-58 -20q-25 -9 -49 -9q-42 0 -70 27.5t-28 80.5q0 29 8.5 50t28.5 41q19 18 56.5 37.5t92 35.5t125 26.5t154.5 10.5 q223 0 335.5 -91.5t112.5 -269.5v-294q0 -70 6.5 -112.5t14.5 -71.5t14.5 -50t6.5 -46t-9.5 -47t-28.5 -38.5t-47.5 -26t-66.5 -9.5q-37 0 -66 10t-51.5 27t-38 40.5t-25.5 49.5h-3q-29 -38 -73 -68q-38 -26 -96 -46.5t-139 -20.5q-85 0 -153 24.5t-115.5 68.5t-72.5 104 t-25 131zM259 1411q0 29 13 56.5t35 49.5t49.5 36t55.5 14q13 0 24 -3t21.5 -9.5t21.5 -16.5t23 -23l178 -202q17 -18 27.5 -33t10.5 -37q0 -20 -8 -39.5t-23.5 -35.5t-36 -25.5t-43.5 -9.5q-14 0 -30 5.5t-36 19.5l-215 160q-12 8 -24 17t-22 20t-15.5 24.5t-5.5 31.5z M417 322q0 -22 8 -40t23.5 -31.5t38 -21t53.5 -7.5q40 0 71 13.5t52 29.5q24 19 43 43v91q-16 4 -36 7q-18 3 -42 5.5t-53 2.5q-79 0 -118.5 -23.5t-39.5 -68.5z" />
<glyph unicode="&#xe1;" horiz-adv-x="1166" d="M75 309q0 74 34 130t96 93.5t148 56.5t190 19q36 0 65 -2l52 -5q25 -4 46 -8v62q0 36 -9 62t-31 43t-58 25.5t-90 8.5q-64 0 -107.5 -9t-75.5 -20l-58 -20q-25 -9 -49 -9q-42 0 -70 27.5t-28 80.5q0 29 8.5 50t28.5 41q19 18 56.5 37.5t92 35.5t125 26.5t154.5 10.5 q223 0 335.5 -91.5t112.5 -269.5v-294q0 -70 6.5 -112.5t14.5 -71.5t14.5 -50t6.5 -46t-9.5 -47t-28.5 -38.5t-47.5 -26t-66.5 -9.5q-37 0 -66 10t-51.5 27t-38 40.5t-25.5 49.5h-3q-29 -38 -73 -68q-38 -26 -96 -46.5t-139 -20.5q-85 0 -153 24.5t-115.5 68.5t-72.5 104 t-25 131zM417 322q0 -22 8 -40t23.5 -31.5t38 -21t53.5 -7.5q40 0 71 13.5t52 29.5q24 19 43 43v91q-16 4 -36 7q-18 3 -42 5.5t-53 2.5q-79 0 -118.5 -23.5t-39.5 -68.5zM439 1243q0 22 11 37t27 33l179 202q24 27 44 39.5t46 12.5q28 0 55 -14t49 -36t35 -49.5t13 -56.5 q0 -18 -5.5 -31.5t-15 -24.5t-21.5 -20t-24 -17l-216 -160q-19 -14 -35 -19.5t-30 -5.5q-24 0 -44 9.5t-35.5 25.5t-24 35.5t-8.5 39.5z" />
<glyph unicode="&#xe2;" horiz-adv-x="1166" d="M75 309q0 74 34 130t96 93.5t148 56.5t190 19q36 0 65 -2l52 -5q25 -4 46 -8v62q0 36 -9 62t-31 43t-58 25.5t-90 8.5q-64 0 -107.5 -9t-75.5 -20l-58 -20q-25 -9 -49 -9q-42 0 -70 27.5t-28 80.5q0 29 8.5 50t28.5 41q19 18 56.5 37.5t92 35.5t125 26.5t154.5 10.5 q223 0 335.5 -91.5t112.5 -269.5v-294q0 -70 6.5 -112.5t14.5 -71.5t14.5 -50t6.5 -46t-9.5 -47t-28.5 -38.5t-47.5 -26t-66.5 -9.5q-37 0 -66 10t-51.5 27t-38 40.5t-25.5 49.5h-3q-29 -38 -73 -68q-38 -26 -96 -46.5t-139 -20.5q-85 0 -153 24.5t-115.5 68.5t-72.5 104 t-25 131zM249 1234q0 18 9 34t28 35l192 190q25 24 51 37.5t59 13.5t60 -13t51 -37l185 -180q23 -22 31.5 -37.5t8.5 -33.5q0 -21 -9 -40.5t-24 -34.5t-34.5 -24t-40.5 -9q-17 0 -31.5 5.5t-36.5 20.5l-166 123l-170 -123q-20 -14 -34.5 -20.5t-29.5 -6.5q-21 0 -38.5 8.5 t-31 22t-21.5 31.5t-8 38zM417 322q0 -22 8 -40t23.5 -31.5t38 -21t53.5 -7.5q40 0 71 13.5t52 29.5q24 19 43 43v91q-16 4 -36 7q-18 3 -42 5.5t-53 2.5q-79 0 -118.5 -23.5t-39.5 -68.5z" />
<glyph unicode="&#xe3;" horiz-adv-x="1166" d="M75 309q0 74 34 130t96 93.5t148 56.5t190 19q36 0 65 -2l52 -5q25 -4 46 -8v62q0 36 -9 62t-31 43t-58 25.5t-90 8.5q-64 0 -107.5 -9t-75.5 -20l-58 -20q-25 -9 -49 -9q-42 0 -70 27.5t-28 80.5q0 29 8.5 50t28.5 41q19 18 56.5 37.5t92 35.5t125 26.5t154.5 10.5 q223 0 335.5 -91.5t112.5 -269.5v-294q0 -70 6.5 -112.5t14.5 -71.5t14.5 -50t6.5 -46t-9.5 -47t-28.5 -38.5t-47.5 -26t-66.5 -9.5q-37 0 -66 10t-51.5 27t-38 40.5t-25.5 49.5h-3q-29 -38 -73 -68q-38 -26 -96 -46.5t-139 -20.5q-85 0 -153 24.5t-115.5 68.5t-72.5 104 t-25 131zM182 1268q0 38 20.5 76.5t57 70t87.5 51.5t112 20q53 0 91 -15.5t68 -33.5l56 -33q25 -16 53 -16q29 0 47 13t34 28.5t34.5 28.5t46.5 13q19 0 37 -6.5t31.5 -19.5t21.5 -31.5t8 -44.5q0 -38 -20.5 -76.5t-57.5 -70t-88 -51.5t-111 -20q-53 0 -91.5 15.5 t-68.5 33.5l-55 34q-26 15 -53 15q-29 0 -47 -13t-34.5 -28.5t-34.5 -28.5t-46 -13q-19 0 -37 6.5t-31.5 19.5t-21.5 32t-8 44zM417 322q0 -22 8 -40t23.5 -31.5t38 -21t53.5 -7.5q40 0 71 13.5t52 29.5q24 19 43 43v91q-16 4 -36 7q-18 3 -42 5.5t-53 2.5 q-79 0 -118.5 -23.5t-39.5 -68.5z" />
<glyph unicode="&#xe4;" horiz-adv-x="1166" d="M75 309q0 74 34 130t96 93.5t148 56.5t190 19q36 0 65 -2l52 -5q25 -4 46 -8v62q0 36 -9 62t-31 43t-58 25.5t-90 8.5q-64 0 -107.5 -9t-75.5 -20l-58 -20q-25 -9 -49 -9q-42 0 -70 27.5t-28 80.5q0 29 8.5 50t28.5 41q19 18 56.5 37.5t92 35.5t125 26.5t154.5 10.5 q223 0 335.5 -91.5t112.5 -269.5v-294q0 -70 6.5 -112.5t14.5 -71.5t14.5 -50t6.5 -46t-9.5 -47t-28.5 -38.5t-47.5 -26t-66.5 -9.5q-37 0 -66 10t-51.5 27t-38 40.5t-25.5 49.5h-3q-29 -38 -73 -68q-38 -26 -96 -46.5t-139 -20.5q-85 0 -153 24.5t-115.5 68.5t-72.5 104 t-25 131zM180 1313q0 36 13 67.5t36.5 54.5t55.5 36.5t71 13.5q38 0 69.5 -13t54.5 -35t35.5 -53t12.5 -67q0 -37 -13 -68t-36.5 -54.5t-56 -36.5t-70.5 -13t-69.5 12.5t-54.5 35t-35.5 53t-12.5 67.5zM417 322q0 -22 8 -40t23.5 -31.5t38 -21t53.5 -7.5q40 0 71 13.5 t52 29.5q24 19 43 43v91q-16 4 -36 7q-18 3 -42 5.5t-53 2.5q-79 0 -118.5 -23.5t-39.5 -68.5zM634 1313q0 36 13 67.5t37 54.5t56 36.5t70 13.5t69.5 -13t54.5 -35t35.5 -53t12.5 -67q0 -37 -13 -68t-36.5 -54.5t-55.5 -36.5t-70 -13t-70 12.5t-55 35t-35.5 53t-12.5 67.5z " />
<glyph unicode="&#xe5;" horiz-adv-x="1166" d="M75 309q0 74 34 130t96 93.5t148 56.5t190 19q36 0 65 -2l52 -5q25 -4 46 -8v62q0 36 -9 62t-31 43t-58 25.5t-90 8.5q-64 0 -107.5 -9t-75.5 -20l-58 -20q-25 -9 -49 -9q-42 0 -70 27.5t-28 80.5q0 29 8.5 50t28.5 41q19 18 56.5 37.5t92 35.5t125 26.5t154.5 10.5 q223 0 335.5 -91.5t112.5 -269.5v-294q0 -70 6.5 -112.5t14.5 -71.5t14.5 -50t6.5 -46t-9.5 -47t-28.5 -38.5t-47.5 -26t-66.5 -9.5q-37 0 -66 10t-51.5 27t-38 40.5t-25.5 49.5h-3q-29 -38 -73 -68q-38 -26 -96 -46.5t-139 -20.5q-85 0 -153 24.5t-115.5 68.5t-72.5 104 t-25 131zM304 1364q0 56 22.5 103.5t62 82t94 53.5t118.5 19t117 -18t91.5 -50.5t59.5 -78.5t21 -102t-22.5 -103.5t-62 -81.5t-94 -53.5t-118.5 -19.5t-117 18.5t-91.5 51t-59.5 78.5t-21 101zM417 322q0 -22 8 -40t23.5 -31.5t38 -21t53.5 -7.5q40 0 71 13.5t52 29.5 q24 19 43 43v91q-16 4 -36 7q-18 3 -42 5.5t-53 2.5q-79 0 -118.5 -23.5t-39.5 -68.5zM496 1368q0 -45 28 -72.5t73 -27.5t73 27.5t28 73.5q0 47 -28 73.5t-73 26.5t-73 -26.5t-28 -74.5z" />
<glyph unicode="&#xe6;" horiz-adv-x="1743" d="M75 309q0 74 34 130t96 93.5t148 56.5t190 19q35 0 64 -2l51 -5q26 -4 46 -8v62q0 36 -8.5 62t-30.5 43t-57.5 25.5t-89.5 8.5q-64 0 -107.5 -9t-75.5 -20l-58 -20q-25 -9 -49 -9q-42 0 -70 27.5t-28 80.5q0 29 8.5 50t28.5 41q19 18 56.5 37.5t92 35.5t125 26.5 t154.5 10.5q63 0 112 -8t87 -22t66 -33.5t48 -43.5q26 24 59 44t73.5 34t87 22t97.5 8q103 0 185 -30.5t139 -87.5t88 -138.5t31 -183.5q0 -86 -40.5 -128t-113.5 -42h-487v-2q8 -48 28.5 -84.5t52.5 -61.5t76.5 -37.5t100.5 -12.5q47 0 82.5 6t63.5 14l50 14q22 6 42 6 q23 0 41.5 -8.5t31 -22.5t19 -32.5t6.5 -39.5q0 -31 -9.5 -53.5t-30.5 -43.5q-16 -16 -47 -34t-75.5 -32t-103.5 -23.5t-132 -9.5q-71 0 -131 10.5t-110 30.5t-91 47.5t-73 60.5q-21 -21 -54.5 -46.5t-79.5 -48t-104.5 -37.5t-130.5 -15q-88 0 -157.5 24.5t-118 68.5 t-73.5 104t-25 131zM417 322q0 -22 8 -40t23.5 -31.5t39 -21t53.5 -7.5q40 0 71.5 12t55.5 28q27 17 48 41q-4 13 -8 28q-3 13 -6.5 31t-6.5 39q-15 3 -34 6q-16 3 -38 5t-48 2q-79 0 -118.5 -23.5t-39.5 -68.5zM1027 630h327q-11 96 -49 139t-109 43q-29 0 -56 -9.5 t-49 -31t-38.5 -56t-25.5 -85.5z" />
<glyph unicode="&#xe7;" horiz-adv-x="953" d="M73 472q0 132 39.5 238t112 180.5t173.5 114t225 39.5q47 0 84.5 -6.5t67 -16.5t49.5 -23t33 -26q22 -21 32 -46t10 -62q0 -25 -7.5 -46t-21 -36t-32 -23.5t-40.5 -8.5t-39 6l-35 13q-18 7 -41 13t-57 6q-42 0 -80 -17.5t-66 -53t-44.5 -88.5t-16.5 -124q0 -65 17 -114.5 t46.5 -83.5t70.5 -51.5t90 -17.5q35 0 59 5.5t42 12.5l34 13q15 5 32 5q22 0 39.5 -8.5t30 -23.5t19 -34t6.5 -39q0 -32 -10.5 -56.5t-31.5 -46.5q-16 -16 -41 -31.5t-59 -27.5t-76.5 -19.5t-94.5 -8.5l-15 -58q41 -4 75.5 -16.5t59 -34.5t38.5 -53t14 -71 q0 -49 -20.5 -92.5t-60.5 -76t-99.5 -51t-138.5 -18.5q-49 0 -82 7.5t-52.5 21t-28 30.5t-8.5 36q0 31 18 49.5t49 18.5q15 0 31 -1.5t39 -1.5q33 0 54 5t33 14t16.5 20t4.5 22q0 21 -14 34t-50 13h-36q-26 0 -36.5 15t-2.5 48l38 158q-81 21 -145 63t-108.5 102.5t-68 139 t-23.5 170.5z" />
<glyph unicode="&#xe8;" horiz-adv-x="1126" d="M73 478q0 132 39 237.5t109 179t169 112.5t218 39q103 0 185 -30.5t139 -87.5t88 -138.5t31 -183.5q0 -86 -40.5 -128t-113.5 -42h-487v-2q8 -48 28.5 -84.5t52.5 -61.5t76.5 -37.5t100.5 -12.5q47 0 82.5 6t63.5 14l50 14q22 6 42 6q23 0 41.5 -8.5t31 -22.5t19 -32.5 t6.5 -39.5q0 -31 -9.5 -53.5t-30.5 -43.5q-16 -16 -47 -34t-75.5 -32t-103.5 -23.5t-132 -9.5q-127 0 -226 35t-167 100t-104 157t-36 207zM253 1411q0 29 13 56.5t35 49.5t49.5 36t55.5 14q13 0 24 -3t21.5 -9.5t21.5 -16.5t23 -23l178 -202q17 -18 27.5 -33t10.5 -37 q0 -20 -8 -39.5t-23.5 -35.5t-36 -25.5t-43.5 -9.5q-14 0 -30 5.5t-36 19.5l-215 160q-12 8 -24 17t-22 20t-15.5 24.5t-5.5 31.5zM410 630h327q-11 96 -49 139t-109 43q-29 0 -56 -9.5t-49 -31t-38.5 -56t-25.5 -85.5z" />
<glyph unicode="&#xe9;" horiz-adv-x="1126" d="M73 478q0 132 39 237.5t109 179t169 112.5t218 39q103 0 185 -30.5t139 -87.5t88 -138.5t31 -183.5q0 -86 -40.5 -128t-113.5 -42h-487v-2q8 -48 28.5 -84.5t52.5 -61.5t76.5 -37.5t100.5 -12.5q47 0 82.5 6t63.5 14l50 14q22 6 42 6q23 0 41.5 -8.5t31 -22.5t19 -32.5 t6.5 -39.5q0 -31 -9.5 -53.5t-30.5 -43.5q-16 -16 -47 -34t-75.5 -32t-103.5 -23.5t-132 -9.5q-127 0 -226 35t-167 100t-104 157t-36 207zM410 630h327q-11 96 -49 139t-109 43q-29 0 -56 -9.5t-49 -31t-38.5 -56t-25.5 -85.5zM426 1243q0 22 11 37t27 33l179 202 q24 27 44 39.5t46 12.5q28 0 55 -14t49 -36t35 -49.5t13 -56.5q0 -18 -5.5 -31.5t-15 -24.5t-21.5 -20t-24 -17l-216 -160q-19 -14 -35 -19.5t-30 -5.5q-24 0 -44 9.5t-35.5 25.5t-24 35.5t-8.5 39.5z" />
<glyph unicode="&#xea;" horiz-adv-x="1126" d="M73 478q0 132 39 237.5t109 179t169 112.5t218 39q103 0 185 -30.5t139 -87.5t88 -138.5t31 -183.5q0 -86 -40.5 -128t-113.5 -42h-487v-2q8 -48 28.5 -84.5t52.5 -61.5t76.5 -37.5t100.5 -12.5q47 0 82.5 6t63.5 14l50 14q22 6 42 6q23 0 41.5 -8.5t31 -22.5t19 -32.5 t6.5 -39.5q0 -31 -9.5 -53.5t-30.5 -43.5q-16 -16 -47 -34t-75.5 -32t-103.5 -23.5t-132 -9.5q-127 0 -226 35t-167 100t-104 157t-36 207zM238 1234q0 18 9 34t28 35l192 190q25 24 51 37.5t59 13.5t60 -13t51 -37l185 -180q23 -22 31.5 -37.5t8.5 -33.5q0 -21 -9 -40.5 t-24 -34.5t-34.5 -24t-40.5 -9q-17 0 -31.5 5.5t-36.5 20.5l-166 123l-170 -123q-20 -14 -34.5 -20.5t-29.5 -6.5q-21 0 -38.5 8.5t-31 22t-21.5 31.5t-8 38zM410 630h327q-11 96 -49 139t-109 43q-29 0 -56 -9.5t-49 -31t-38.5 -56t-25.5 -85.5z" />
<glyph unicode="&#xeb;" horiz-adv-x="1126" d="M73 478q0 132 39 237.5t109 179t169 112.5t218 39q103 0 185 -30.5t139 -87.5t88 -138.5t31 -183.5q0 -86 -40.5 -128t-113.5 -42h-487v-2q8 -48 28.5 -84.5t52.5 -61.5t76.5 -37.5t100.5 -12.5q47 0 82.5 6t63.5 14l50 14q22 6 42 6q23 0 41.5 -8.5t31 -22.5t19 -32.5 t6.5 -39.5q0 -31 -9.5 -53.5t-30.5 -43.5q-16 -16 -47 -34t-75.5 -32t-103.5 -23.5t-132 -9.5q-127 0 -226 35t-167 100t-104 157t-36 207zM174 1313q0 36 13 67.5t36.5 54.5t55.5 36.5t71 13.5q38 0 69.5 -13t54.5 -35t35.5 -53t12.5 -67q0 -37 -13 -68t-36.5 -54.5 t-56 -36.5t-70.5 -13t-69.5 12.5t-54.5 35t-35.5 53t-12.5 67.5zM410 630h327q-11 96 -49 139t-109 43q-29 0 -56 -9.5t-49 -31t-38.5 -56t-25.5 -85.5zM628 1313q0 36 13 67.5t37 54.5t56 36.5t70 13.5t69.5 -13t54.5 -35t35.5 -53t12.5 -67q0 -37 -13 -68t-36.5 -54.5 t-55.5 -36.5t-70 -13t-70 12.5t-55 35t-35.5 53t-12.5 67.5z" />
<glyph unicode="&#xec;" horiz-adv-x="592" d="M41 1411q0 29 13 56.5t35 49.5t49.5 36t55.5 14q13 0 24 -3t21.5 -9.5t21.5 -16.5t23 -23l178 -202q17 -18 27.5 -33t10.5 -37q0 -20 -8 -39.5t-23.5 -35.5t-36 -25.5t-43.5 -9.5q-14 0 -30 5.5t-36 19.5l-215 160q-12 8 -24 17t-22 20t-15.5 24.5t-5.5 31.5zM126 141 v742q0 71 42 110t128 39q87 0 128.5 -39t41.5 -110v-742q0 -71 -41.5 -109.5t-128.5 -38.5q-86 0 -128 38.5t-42 109.5z" />
<glyph unicode="&#xed;" horiz-adv-x="592" d="M93 1243q0 22 11 37t27 33l179 202q24 27 44 39.5t46 12.5q28 0 55 -14t49 -36t35 -49.5t13 -56.5q0 -18 -5.5 -31.5t-15 -24.5t-21.5 -20t-24 -17l-216 -160q-19 -14 -35 -19.5t-30 -5.5q-24 0 -44 9.5t-35.5 25.5t-24 35.5t-8.5 39.5zM126 141v742q0 71 42 110t128 39 q87 0 128.5 -39t41.5 -110v-742q0 -71 -41.5 -109.5t-128.5 -38.5q-86 0 -128 38.5t-42 109.5z" />
<glyph unicode="&#xee;" horiz-adv-x="592" d="M-18 1231q0 19 9 36t28 37l156 174q29 31 56.5 49.5t70.5 18.5q20 0 37.5 -5t33 -13.5t28.5 -21.5l29 -27l159 -174q17 -19 24.5 -34t7.5 -32q0 -20 -9.5 -39.5t-25 -33.5t-35 -22.5t-40.5 -8.5q-19 0 -35.5 7t-37.5 24l-142 118l-147 -119q-19 -16 -35 -23t-34 -7 q-20 0 -37.5 7.5t-31 20.5t-21.5 30.5t-8 37.5zM126 141v742q0 71 42 110t128 39q87 0 128.5 -39t41.5 -110v-742q0 -71 -41.5 -109.5t-128.5 -38.5q-86 0 -128 38.5t-42 109.5z" />
<glyph unicode="&#xef;" horiz-adv-x="592" d="M-88 1313q0 35 13 66.5t36 53.5t54.5 35.5t68.5 13.5t68 -12.5t53.5 -34.5t35 -52.5t12.5 -65.5q0 -36 -13 -67t-36 -54t-54.5 -35.5t-68.5 -12.5t-68 12t-53.5 34.5t-35 52.5t-12.5 66zM126 141v742q0 71 42 110t128 39q87 0 128.5 -39t41.5 -110v-742 q0 -71 -41.5 -109.5t-128.5 -38.5q-86 0 -128 38.5t-42 109.5zM345 1313q0 35 13 66.5t36 53.5t55 35.5t68 13.5q38 0 69 -12.5t53.5 -34.5t34.5 -52.5t12 -65.5q0 -36 -12.5 -67t-36 -54t-55 -35.5t-68.5 -12.5t-68 12t-53.5 34.5t-35 52.5t-12.5 66z" />
<glyph unicode="&#xf0;" horiz-adv-x="1190" d="M70 458q0 88 21.5 160t59.5 130t89.5 101t111 71.5t124.5 42.5t131 14q16 0 28 -1.5t20 -3.5q10 -2 17 -4q-22 40 -50 79t-62 70l-102 -74q-35 -25 -66 -25q-21 0 -39.5 8.5t-32 23t-22 33t-8.5 39.5q0 29 14 48t41 39l57 41q-16 10 -29.5 16.5t-24.5 12.5l-21 12 q-9 6 -16 13q-11 12 -18 27t-7 36q0 24 11 46.5t33.5 40.5t56 28.5t76.5 10.5q24 0 48.5 -5t49.5 -14t49 -22l47 -26l102 74q35 25 66 25q21 0 39.5 -9t32 -23t22 -33t8.5 -39q0 -28 -12.5 -46.5t-40.5 -39.5l-52 -39q68 -64 121.5 -141t91 -164.5t57.5 -184.5t20 -202 q0 -158 -37.5 -276t-107.5 -195t-170 -115.5t-226 -38.5q-119 0 -212 33t-157 95t-98 151t-34 200zM415 477q0 -62 13.5 -108t37.5 -76t56 -44.5t70 -14.5q39 0 73.5 17t60 54.5t40 98t14.5 148.5q0 41 -4 80t-10 75q-14 5 -33 10q-16 5 -38.5 8t-52.5 3q-51 0 -93 -16.5 t-71.5 -48.5t-46 -79t-16.5 -107z" />
<glyph unicode="&#xf1;" horiz-adv-x="1245" d="M126 141v753q0 69 36 105t106 36q33 0 58 -7.5t43 -22t29 -34.5t17 -44l7 -37h4q28 44 71 77q19 15 43 29t54 24.5t65.5 17t77.5 6.5q89 0 161 -27.5t122.5 -81t78 -132t27.5 -179.5v-483q0 -71 -42 -109.5t-128 -38.5q-87 0 -128.5 38.5t-41.5 109.5v447q0 50 -10 86 t-28 58.5t-45 33t-60 10.5q-22 0 -41.5 -5.5t-36 -14.5t-30.5 -20t-25 -23q-26 -28 -44 -63v-509q0 -71 -41.5 -109.5t-128.5 -38.5q-86 0 -128 38.5t-42 109.5zM214 1268q0 38 20.5 76.5t57 70t87.5 51.5t112 20q53 0 91 -15.5t68 -33.5l55 -34q26 -15 54 -15q29 0 47 13 t34 28.5t34.5 28.5t46.5 13q19 0 37 -6.5t31.5 -19.5t21.5 -31.5t8 -44.5q0 -38 -20.5 -76.5t-57.5 -70t-88 -51.5t-111 -20q-53 0 -91.5 15.5t-68.5 33.5l-56 33q-25 16 -52 16q-29 0 -47 -13t-34.5 -28.5t-34.5 -28.5t-46 -13q-19 0 -37 6.5t-31.5 19.5t-21.5 32t-8 44z " />
<glyph unicode="&#xf2;" horiz-adv-x="1240" d="M73 495q0 129 38 231t110 173t176 109t235 38q124 0 222.5 -37t168 -105t106.5 -163.5t37 -211.5q0 -129 -38 -231t-109.5 -173t-175 -108.5t-235.5 -37.5q-123 0 -222 37t-168.5 104.5t-107 162.5t-37.5 212zM307 1411q0 29 13 56.5t35 49.5t49.5 36t55.5 14q13 0 24 -3 t21.5 -9.5t21.5 -16.5t23 -23l178 -202q17 -18 27.5 -33t10.5 -37q0 -20 -8 -39.5t-23.5 -35.5t-36 -25.5t-43.5 -9.5q-14 0 -30 5.5t-36 19.5l-215 160q-12 8 -24 17t-22 20t-15.5 24.5t-5.5 31.5zM419 514q0 -71 16 -123.5t43.5 -87.5t64.5 -52t79 -17t78.5 17t63.5 51 t42 85.5t15 122.5t-15.5 123.5t-43 87t-65 52t-79.5 17.5t-78 -17t-63 -51t-42.5 -85.5t-15.5 -122.5z" />
<glyph unicode="&#xf3;" horiz-adv-x="1240" d="M73 495q0 129 38 231t110 173t176 109t235 38q124 0 222.5 -37t168 -105t106.5 -163.5t37 -211.5q0 -129 -38 -231t-109.5 -173t-175 -108.5t-235.5 -37.5q-123 0 -222 37t-168.5 104.5t-107 162.5t-37.5 212zM419 514q0 -71 16 -123.5t43.5 -87.5t64.5 -52t79 -17 t78.5 17t63.5 51t42 85.5t15 122.5t-15.5 123.5t-43 87t-65 52t-79.5 17.5t-78 -17t-63 -51t-42.5 -85.5t-15.5 -122.5zM467 1243q0 22 11 37t27 33l179 202q24 27 44 39.5t46 12.5q28 0 55 -14t49 -36t35 -49.5t13 -56.5q0 -18 -5.5 -31.5t-15 -24.5t-21.5 -20t-24 -17 l-216 -160q-19 -14 -35 -19.5t-30 -5.5q-24 0 -44 9.5t-35.5 25.5t-24 35.5t-8.5 39.5z" />
<glyph unicode="&#xf4;" horiz-adv-x="1240" d="M73 495q0 129 38 231t110 173t176 109t235 38q124 0 222.5 -37t168 -105t106.5 -163.5t37 -211.5q0 -129 -38 -231t-109.5 -173t-175 -108.5t-235.5 -37.5q-123 0 -222 37t-168.5 104.5t-107 162.5t-37.5 212zM284 1234q0 18 9 34t28 35l192 190q25 24 51 37.5t59 13.5 t60 -13t51 -37l185 -180q23 -22 31.5 -37.5t8.5 -33.5q0 -21 -9 -40.5t-24 -34.5t-34.5 -24t-40.5 -9q-17 0 -31.5 5.5t-36.5 20.5l-166 123l-170 -123q-20 -14 -34.5 -20.5t-29.5 -6.5q-21 0 -38.5 8.5t-31 22t-21.5 31.5t-8 38zM419 514q0 -71 16 -123.5t43.5 -87.5 t64.5 -52t79 -17t78.5 17t63.5 51t42 85.5t15 122.5t-15.5 123.5t-43 87t-65 52t-79.5 17.5t-78 -17t-63 -51t-42.5 -85.5t-15.5 -122.5z" />
<glyph unicode="&#xf5;" horiz-adv-x="1240" d="M73 495q0 129 38 231t110 173t176 109t235 38q124 0 222.5 -37t168 -105t106.5 -163.5t37 -211.5q0 -129 -38 -231t-109.5 -173t-175 -108.5t-235.5 -37.5q-123 0 -222 37t-168.5 104.5t-107 162.5t-37.5 212zM213 1268q0 38 20.5 76.5t57 70t87.5 51.5t112 20 q53 0 91 -15.5t68 -33.5l55 -34q26 -15 54 -15q29 0 47 13t34 28.5t34.5 28.5t46.5 13q19 0 37 -6.5t31.5 -19.5t21.5 -31.5t8 -44.5q0 -38 -20.5 -76.5t-57.5 -70t-88 -51.5t-111 -20q-53 0 -91.5 15.5t-68.5 33.5l-56 34q-25 15 -52 15q-29 0 -47 -13t-34.5 -28.5 t-34.5 -28.5t-46 -13q-19 0 -37 6.5t-31.5 19.5t-21.5 32t-8 44zM419 514q0 -71 16 -123.5t43.5 -87.5t64.5 -52t79 -17t78.5 17t63.5 51t42 85.5t15 122.5t-15.5 123.5t-43 87t-65 52t-79.5 17.5t-78 -17t-63 -51t-42.5 -85.5t-15.5 -122.5z" />
<glyph unicode="&#xf6;" horiz-adv-x="1240" d="M73 495q0 129 38 231t110 173t176 109t235 38q124 0 222.5 -37t168 -105t106.5 -163.5t37 -211.5q0 -129 -38 -231t-109.5 -173t-175 -108.5t-235.5 -37.5q-123 0 -222 37t-168.5 104.5t-107 162.5t-37.5 212zM215 1313q0 36 13 67.5t36.5 54.5t55.5 36.5t71 13.5 q38 0 69.5 -13t54.5 -35t35.5 -53t12.5 -67q0 -37 -13 -68t-36.5 -54.5t-56 -36.5t-70.5 -13t-69.5 12.5t-54.5 35t-35.5 53t-12.5 67.5zM419 514q0 -71 16 -123.5t43.5 -87.5t64.5 -52t79 -17t78.5 17t63.5 51t42 85.5t15 122.5t-15.5 123.5t-43 87t-65 52t-79.5 17.5 t-78 -17t-63 -51t-42.5 -85.5t-15.5 -122.5zM669 1313q0 36 13 67.5t37 54.5t56 36.5t70 13.5t69.5 -13t54.5 -35t35.5 -53t12.5 -67q0 -37 -13 -68t-36.5 -54.5t-55.5 -36.5t-70 -13t-70 12.5t-55 35t-35.5 53t-12.5 67.5z" />
<glyph unicode="&#xf7;" d="M127 585q0 56 30 88.5t83 32.5h687q54 0 84 -32.5t30 -88.5q0 -57 -30 -89t-84 -32h-687q-53 0 -83 32t-30 89zM422 218q0 35 12 64.5t34.5 51.5t52 34.5t63.5 12.5q35 0 64.5 -12.5t51.5 -34.5t34 -51.5t12 -64.5q0 -34 -12 -63.5t-34 -51.5t-51.5 -34.5t-64.5 -12.5 q-34 0 -63.5 12.5t-52 34.5t-34.5 51.5t-12 63.5zM422 951q0 35 12 64t34.5 51.5t51.5 34.5t64 12t64 -12t51.5 -34.5t34.5 -51.5t12 -64q0 -34 -12 -63.5t-34.5 -51.5t-51.5 -34.5t-64 -12.5t-64 12.5t-51.5 34.5t-34.5 51.5t-12 63.5z" />
<glyph unicode="&#xf8;" horiz-adv-x="1256" d="M74 495q0 129 38 231t111 173t178 109t239 38q41 0 81 -5t75 -15l76 128q19 31 42 47.5t58 16.5q24 0 47.5 -9t43 -25t31 -38t11.5 -45q0 -15 -5 -30t-15 -32l-69 -116q80 -69 122.5 -169t42.5 -225q0 -129 -37.5 -231t-110.5 -173t-178 -108.5t-239 -37.5q-42 0 -81 5 t-75 14l-75 -125q-19 -32 -42 -49t-58 -17q-24 0 -48 9.5t-43 25.5t-30.5 37.5t-11.5 45.5q0 14 4.5 29.5t14.5 31.5l69 114q-81 69 -123.5 169.5t-42.5 225.5zM383 514q0 -47 8 -83.5t21 -65.5l263 440q-9 4 -22.5 7t-26.5 3q-55 0 -99.5 -17t-76.5 -53.5t-49.5 -93.5 t-17.5 -137zM581 219q11 -5 24 -7.5t25 -2.5q55 0 100 17t76.5 54t49 93.5t17.5 136.5q0 48 -8 84t-21 65z" />
<glyph unicode="&#xf9;" horiz-adv-x="1243" d="M119 400v483q0 71 41.5 110t128.5 39t128.5 -39t41.5 -110v-447q0 -101 37.5 -144.5t103.5 -43.5q22 0 41 5.5t35.5 14.5t30.5 20t25 23q26 28 44 63v509q0 71 41.5 110t128.5 39t128.5 -39t41.5 -110v-753q0 -69 -36 -105t-105 -36q-34 0 -58.5 7.5t-42.5 22t-29 35 t-17 44.5l-8 36h-4q-27 -43 -71 -77q-18 -14 -42 -28t-54 -25t-66 -17.5t-78 -6.5q-88 0 -159.5 27.5t-121.5 81t-77.5 132t-27.5 179.5zM282 1411q0 29 13 56.5t35 49.5t49.5 36t55.5 14q13 0 24 -3t21.5 -9.5t21.5 -16.5t23 -23l178 -202q17 -18 27.5 -33t10.5 -37 q0 -20 -8 -39.5t-23.5 -35.5t-36 -25.5t-43.5 -9.5q-14 0 -30 5.5t-36 19.5l-215 160q-12 8 -24 17t-22 20t-15.5 24.5t-5.5 31.5z" />
<glyph unicode="&#xfa;" horiz-adv-x="1243" d="M119 400v483q0 71 41.5 110t128.5 39t128.5 -39t41.5 -110v-447q0 -101 37.5 -144.5t103.5 -43.5q22 0 41 5.5t35.5 14.5t30.5 20t25 23q26 28 44 63v509q0 71 41.5 110t128.5 39t128.5 -39t41.5 -110v-753q0 -69 -36 -105t-105 -36q-34 0 -58.5 7.5t-42.5 22t-29 35 t-17 44.5l-8 36h-4q-27 -43 -71 -77q-18 -14 -42 -28t-54 -25t-66 -17.5t-78 -6.5q-88 0 -159.5 27.5t-121.5 81t-77.5 132t-27.5 179.5zM465 1243q0 22 11 37t27 33l179 202q24 27 44 39.5t46 12.5q28 0 55 -14t49 -36t35 -49.5t13 -56.5q0 -18 -5.5 -31.5t-15 -24.5 t-21.5 -20t-24 -17l-216 -160q-19 -14 -35 -19.5t-30 -5.5q-24 0 -44 9.5t-35.5 25.5t-24 35.5t-8.5 39.5z" />
<glyph unicode="&#xfb;" horiz-adv-x="1243" d="M119 400v483q0 71 41.5 110t128.5 39t128.5 -39t41.5 -110v-447q0 -101 37.5 -144.5t103.5 -43.5q22 0 41 5.5t35.5 14.5t30.5 20t25 23q26 28 44 63v509q0 71 41.5 110t128.5 39t128.5 -39t41.5 -110v-753q0 -69 -36 -105t-105 -36q-34 0 -58.5 7.5t-42.5 22t-29 35 t-17 44.5l-8 36h-4q-27 -43 -71 -77q-18 -14 -42 -28t-54 -25t-66 -17.5t-78 -6.5q-88 0 -159.5 27.5t-121.5 81t-77.5 132t-27.5 179.5zM279 1234q0 18 9 34t28 35l192 190q25 24 51 37.5t59 13.5t60 -13t51 -37l185 -180q23 -22 31.5 -37.5t8.5 -33.5q0 -21 -9 -40.5 t-24 -34.5t-34.5 -24t-40.5 -9q-17 0 -31.5 5.5t-36.5 20.5l-166 123l-170 -123q-20 -14 -34.5 -20.5t-29.5 -6.5q-21 0 -38.5 8.5t-31 22t-21.5 31.5t-8 38z" />
<glyph unicode="&#xfc;" horiz-adv-x="1243" d="M119 400v483q0 71 41.5 110t128.5 39t128.5 -39t41.5 -110v-447q0 -101 37.5 -144.5t103.5 -43.5q22 0 41 5.5t35.5 14.5t30.5 20t25 23q26 28 44 63v509q0 71 41.5 110t128.5 39t128.5 -39t41.5 -110v-753q0 -69 -36 -105t-105 -36q-34 0 -58.5 7.5t-42.5 22t-29 35 t-17 44.5l-8 36h-4q-27 -43 -71 -77q-18 -14 -42 -28t-54 -25t-66 -17.5t-78 -6.5q-88 0 -159.5 27.5t-121.5 81t-77.5 132t-27.5 179.5zM215 1313q0 36 13 67.5t36.5 54.5t55.5 36.5t71 13.5q38 0 69.5 -13t54.5 -35t35.5 -53t12.5 -67q0 -37 -13 -68t-36.5 -54.5 t-56 -36.5t-70.5 -13t-69.5 12.5t-54.5 35t-35.5 53t-12.5 67.5zM669 1313q0 36 13 67.5t37 54.5t56 36.5t70 13.5t69.5 -13t54.5 -35t35.5 -53t12.5 -67q0 -37 -13 -68t-36.5 -54.5t-55.5 -36.5t-70 -13t-70 12.5t-55 35t-35.5 53t-12.5 67.5z" />
<glyph unicode="&#xfd;" horiz-adv-x="1105" d="M-66 -323q0 50 30.5 80.5t81.5 30.5q17 0 30.5 -1.5t25.5 -3.5t25 -3t29 -1q34 0 63 9t54 27t47 44.5t40 61.5l-300 864q-13 39 -17 58.5t-4 36.5q0 37 17 65.5t44.5 48t61 30.5t65.5 11q34 0 60 -11t43 -29q18 -18 27 -43t21 -65l143 -473q8 -28 15 -56l11 -52 q5 -27 10 -51h4q6 25 11 52l12 51q6 28 14 56l140 480q9 34 19 59.5t26 42.5q18 18 43.5 28.5t61.5 10.5q31 0 63 -9.5t57.5 -28t42 -45t16.5 -60.5q0 -17 -4 -35t-15 -52l-222 -630q-58 -167 -125 -291t-147.5 -205t-178 -121.5t-218.5 -40.5q-64 0 -109.5 15.5t-72.5 41.5 q-41 41 -41 103zM432 1243q0 22 11 37t27 33l179 202q24 27 44 39.5t46 12.5q28 0 55 -14t49 -36t35 -49.5t13 -56.5q0 -18 -5.5 -31.5t-15 -24.5t-21.5 -20t-24 -17l-216 -160q-19 -14 -35 -19.5t-30 -5.5q-24 0 -44 9.5t-35.5 25.5t-24 35.5t-8.5 39.5z" />
<glyph unicode="&#xfe;" horiz-adv-x="1232" d="M126 -329v1662q0 71 42 110t128 39q87 0 128.5 -39t41.5 -110v-237q0 -42 -2.5 -82t-8.5 -85h3q27 32 67 57q17 10 38.5 20.5t47.5 19t57 13.5t67 5q95 0 172.5 -31.5t133.5 -95t86.5 -157.5t30.5 -220q0 -132 -39 -236.5t-114 -176.5t-186 -110t-256 -38 q-22 0 -39.5 1.5t-30.5 3.5q-15 2 -27 5l-3 -1q2 -22 2.5 -44.5t0.5 -47.5v-225q0 -71 -41.5 -110t-128.5 -39q-86 0 -128 39t-42 110zM466 258q14 -6 32 -12q16 -5 38.5 -8.5t53.5 -3.5q50 0 91 17t70.5 52.5t45.5 89.5t16 127q0 71 -12 119.5t-34 79t-53 44t-68 13.5 q-23 0 -42.5 -5.5t-36.5 -14.5t-31.5 -20t-25.5 -23q-26 -28 -44 -63v-392z" />
<glyph unicode="&#xff;" horiz-adv-x="1105" d="M-66 -323q0 50 30.5 80.5t81.5 30.5q17 0 30.5 -1.5t25.5 -3.5t25 -3t29 -1q34 0 63 9t54 27t47 44.5t40 61.5l-300 864q-13 39 -17 58.5t-4 36.5q0 37 17 65.5t44.5 48t61 30.5t65.5 11q34 0 60 -11t43 -29q18 -18 27 -43t21 -65l143 -473q8 -28 15 -56l11 -52 q5 -27 10 -51h4q6 25 11 52l12 51q6 28 14 56l140 480q9 34 19 59.5t26 42.5q18 18 43.5 28.5t61.5 10.5q31 0 63 -9.5t57.5 -28t42 -45t16.5 -60.5q0 -17 -4 -35t-15 -52l-222 -630q-58 -167 -125 -291t-147.5 -205t-178 -121.5t-218.5 -40.5q-64 0 -109.5 15.5t-72.5 41.5 q-41 41 -41 103zM161 1313q0 36 13 67.5t36.5 54.5t55.5 36.5t71 13.5q38 0 69.5 -13t54.5 -35t35.5 -53t12.5 -67q0 -37 -13 -68t-36.5 -54.5t-56 -36.5t-70.5 -13t-69.5 12.5t-54.5 35t-35.5 53t-12.5 67.5zM615 1313q0 36 13 67.5t37 54.5t56 36.5t70 13.5t69.5 -13 t54.5 -35t35.5 -53t12.5 -67q0 -37 -13 -68t-36.5 -54.5t-55.5 -36.5t-70 -13t-70 12.5t-55 35t-35.5 53t-12.5 67.5z" />
<glyph unicode="&#x152;" horiz-adv-x="1908" d="M80 669q0 171 49.5 307t141.5 230t222 144t291 50q66 0 120.5 -6t106.5 -16h711q52 0 82.5 -32.5t30.5 -99.5q0 -66 -30.5 -99t-82.5 -33h-420v-284h355q50 0 80 -33t30 -96q0 -65 -30 -98t-80 -33h-355v-306h425q52 0 82 -33t30 -99q0 -67 -30.5 -99.5t-81.5 -32.5h-736 q-52 -10 -110.5 -15.5t-122.5 -5.5q-155 0 -281 47.5t-214 136.5t-135.5 217t-47.5 289zM437 691q0 -110 26 -193.5t73 -139.5t111.5 -84t140.5 -28q51 0 89.5 7t76.5 21v825q-36 16 -77.5 24.5t-92.5 8.5q-76 0 -139.5 -28t-110 -83t-72 -138t-25.5 -192z" />
<glyph unicode="&#x153;" horiz-adv-x="1877" d="M73 495q0 129 38 231t110 173t176 109t235 38q70 0 126 -12t100 -31.5t77.5 -45.5t58.5 -56q29 31 66 58t82.5 46t99.5 30t117 11q102 0 184 -30.5t139.5 -87.5t88 -138.5t30.5 -183.5q0 -86 -40.5 -128t-113.5 -42h-487v-2q8 -48 28.5 -84.5t52.5 -61.5t76.5 -37.5 t100.5 -12.5q47 0 83 6t64 14l49 14q22 6 42 6q23 0 41.5 -8.5t31 -22.5t19.5 -32.5t7 -39.5q0 -31 -10 -53.5t-30 -43.5q-17 -16 -47.5 -34t-75.5 -32t-104 -23.5t-132 -9.5q-63 0 -117.5 9t-102 26.5t-87 43.5t-72.5 58q-30 -32 -68 -57.5t-83.5 -43.5t-99.5 -27t-118 -9 q-123 0 -222 37t-168.5 104.5t-107 162.5t-37.5 212zM419 514q0 -71 16 -123.5t43.5 -87.5t64.5 -52t79 -17t78.5 17t63.5 51t42 85.5t15 122.5t-15.5 123.5t-43 87t-65 52t-79.5 17.5t-78 -17t-63 -51t-42.5 -85.5t-15.5 -122.5zM1160 630h327q-11 96 -49 139t-109 43 q-29 0 -56 -9.5t-49 -31t-38 -56t-26 -85.5z" />
<glyph unicode="&#x178;" horiz-adv-x="1180" d="M20 1212q0 40 18.5 73t47 56t63 35t67.5 12q36 0 60.5 -11.5t40.5 -28.5q15 -15 28 -36t32 -56l178 -328q10 -19 18 -38l16 -33l15 -35h4q6 17 13 35q6 16 14.5 35.5t18.5 38.5l166 325q18 36 29.5 56.5t27.5 36.5q19 19 44.5 29t54.5 10q34 0 67 -12t58.5 -33.5 t41.5 -50.5t16 -64q0 -32 -13 -58.5t-33 -60.5l-354 -604v-359q0 -74 -42.5 -113.5t-132.5 -39.5q-88 0 -130.5 39.5t-42.5 113.5v359l-342 580q-11 17 -19.5 33t-15 31.5t-10.5 30.5t-4 32zM188 1661q0 37 13.5 69t37 55.5t56 36.5t71.5 13t71 -12.5t55 -35t35.5 -54 t12.5 -68.5t-13 -68.5t-36.5 -55.5t-56.5 -37.5t-71 -13.5q-39 0 -71 13t-55.5 35.5t-36 54t-12.5 68.5zM668 1661q0 37 13 69t37 55.5t56.5 36.5t71.5 13t71 -12.5t55 -35t35.5 -54t12.5 -68.5t-13.5 -68.5t-37 -55.5t-56 -37.5t-70.5 -13.5q-39 0 -71 13t-55.5 35.5 t-36 54t-12.5 68.5z" />
<glyph unicode="&#x2c6;" horiz-adv-x="1024" d="M172 1234q0 18 9 34t28 35l192 190q25 24 51 37.5t59 13.5t60 -13t51 -37l185 -180q23 -22 31.5 -37.5t8.5 -33.5q0 -21 -9 -40.5t-24 -34.5t-34.5 -24t-40.5 -9q-17 0 -31.5 5.5t-36.5 20.5l-166 123l-170 -123q-20 -14 -34.5 -20.5t-29.5 -6.5q-21 0 -38.5 8.5t-31 22 t-21.5 31.5t-8 38z" />
<glyph unicode="&#x2dc;" horiz-adv-x="1024" d="M107 1268q0 38 20.5 76.5t57 70t87.5 51.5t112 20q53 0 91 -15.5t68 -33.5l56 -34q25 -15 53 -15q29 0 47 13t34 28.5t34.5 28.5t46.5 13q19 0 37 -6.5t31.5 -19.5t21.5 -31.5t8 -44.5q0 -38 -20.5 -76.5t-57.5 -70t-88 -51.5t-111 -20q-53 0 -91.5 15.5t-68.5 33.5 l-55 34q-26 15 -53 15q-29 0 -47 -13t-34.5 -28.5t-34.5 -28.5t-46 -13q-19 0 -37 6.5t-31.5 19.5t-21.5 32t-8 44z" />
<glyph unicode="&#x2000;" horiz-adv-x="993" />
<glyph unicode="&#x2001;" horiz-adv-x="1986" />
<glyph unicode="&#x2002;" horiz-adv-x="993" />
<glyph unicode="&#x2003;" horiz-adv-x="1986" />
<glyph unicode="&#x2004;" horiz-adv-x="662" />
<glyph unicode="&#x2005;" horiz-adv-x="496" />
<glyph unicode="&#x2006;" horiz-adv-x="331" />
<glyph unicode="&#x2007;" horiz-adv-x="331" />
<glyph unicode="&#x2008;" horiz-adv-x="248" />
<glyph unicode="&#x2009;" horiz-adv-x="397" />
<glyph unicode="&#x200a;" horiz-adv-x="110" />
<glyph unicode="&#x2010;" horiz-adv-x="918" d="M103 556q0 63 29.5 96t79.5 33h494q49 0 79 -33t30 -96t-30 -96t-79 -33h-494q-50 0 -79.5 33t-29.5 96z" />
<glyph unicode="&#x2011;" horiz-adv-x="918" d="M103 556q0 63 29.5 96t79.5 33h494q49 0 79 -33t30 -96t-30 -96t-79 -33h-494q-50 0 -79.5 33t-29.5 96z" />
<glyph unicode="&#x2012;" horiz-adv-x="918" d="M103 556q0 63 29.5 96t79.5 33h494q49 0 79 -33t30 -96t-30 -96t-79 -33h-494q-50 0 -79.5 33t-29.5 96z" />
<glyph unicode="&#x2013;" d="M0 555q0 64 30 97t79 33h950q49 0 79 -33t30 -97q0 -62 -30 -95t-79 -33h-950q-49 0 -79 33t-30 95z" />
<glyph unicode="&#x2014;" horiz-adv-x="2048" d="M131 555q0 64 29.5 97t79.5 33h1568q50 0 79.5 -33t29.5 -97q0 -62 -29.5 -95t-79.5 -33h-1568q-50 0 -79.5 33t-29.5 95z" />
<glyph unicode="&#x2018;" horiz-adv-x="623" d="M115 990q0 61 12 115t31 100.5t42.5 86t46.5 69.5q48 62 103.5 98t109.5 36q46 0 71 -24t25 -62q0 -28 -16.5 -49t-40.5 -48.5t-50 -67.5t-44 -103q18 -8 37 -22.5t34.5 -36.5t25 -51t9.5 -66q0 -43 -15.5 -79t-42.5 -63t-64 -42t-80 -15t-78.5 15t-61 44t-40 70.5 t-14.5 94.5z" />
<glyph unicode="&#x2019;" horiz-adv-x="623" d="M68 852q0 27 16.5 48.5t40 49t49.5 67t44 103.5q-18 8 -37 22.5t-34 36.5t-24.5 51t-9.5 66q0 43 15 79t42 63t64 42t80 15t79 -15t61.5 -44t39.5 -71t14 -95q0 -60 -12 -114t-30.5 -100.5t-42.5 -86t-47 -69.5q-48 -62 -103 -98t-110 -36q-46 0 -70.5 24t-24.5 62z" />
<glyph unicode="&#x201a;" horiz-adv-x="623" d="M68 -263q0 27 16.5 48.5t40 49.5t49.5 67.5t44 102.5q-18 8 -37 23t-34 36.5t-24.5 50.5t-9.5 66q0 42 15 78.5t42 63.5t64 42t80 15t79 -15t61.5 -44t39.5 -71t14 -94q0 -61 -12 -115t-30.5 -100.5t-42.5 -85.5t-47 -70q-48 -62 -103 -98t-110 -36q-46 0 -70.5 24 t-24.5 62z" />
<glyph unicode="&#x201c;" horiz-adv-x="1133" d="M115 990q0 61 12 115t31 100.5t42.5 86t46.5 69.5q48 62 103.5 98t109.5 36q46 0 71 -24t25 -62q0 -28 -16.5 -49t-40.5 -48.5t-50 -67.5t-44 -103q18 -8 37 -22.5t34.5 -36.5t25 -51t9.5 -66q0 -43 -15.5 -79t-42.5 -63t-64 -42t-80 -15t-78.5 15t-61 44t-40 70.5 t-14.5 94.5zM625 990q0 61 12 115t30.5 100.5t42 86t47.5 69.5q48 62 103.5 98t109.5 36q46 0 70.5 -24t24.5 -62q0 -28 -16 -49t-40 -48.5t-50 -67.5t-44 -103q18 -8 37 -22.5t34 -36.5t24.5 -51t9.5 -66q0 -43 -15 -79t-42 -63t-64 -42t-80 -15t-78.5 15t-61.5 44 t-40 70.5t-14 94.5z" />
<glyph unicode="&#x201d;" horiz-adv-x="1133" d="M68 852q0 27 16.5 48.5t40 49t49.5 67t44 103.5q-18 8 -37 22.5t-34 36.5t-24.5 51t-9.5 66q0 43 15 79t42 63t64 42t80 15t79 -15t61.5 -44t39.5 -71t14 -95q0 -60 -12 -114t-30.5 -100.5t-42.5 -86t-47 -69.5q-48 -62 -103 -98t-110 -36q-46 0 -70.5 24t-24.5 62z M578 852q0 27 16.5 48.5t40 49t49 67t44.5 103.5q-18 8 -37 22.5t-34 36.5t-24.5 51t-9.5 66q0 43 15 79t42 63t64 42t80 15t79 -15t61.5 -44t39.5 -71t14 -95q0 -60 -12 -114t-30.5 -100.5t-42.5 -86t-47 -69.5q-48 -62 -103 -98t-110 -36q-46 0 -70.5 24t-24.5 62z" />
<glyph unicode="&#x201e;" horiz-adv-x="1133" d="M68 -263q0 27 16.5 48.5t40 49.5t49.5 67.5t44 102.5q-18 8 -37 23t-34 36.5t-24.5 50.5t-9.5 66q0 42 15 78.5t42 63.5t64 42t80 15t79 -15t61.5 -44t39.5 -71t14 -94q0 -61 -12 -115t-30.5 -100.5t-42.5 -85.5t-47 -70q-48 -62 -103 -98t-110 -36q-46 0 -70.5 24 t-24.5 62zM578 -263q0 27 16.5 48.5t40 49.5t49 67.5t44.5 102.5q-18 8 -37 23t-34 36.5t-24.5 50.5t-9.5 66q0 42 15 78.5t42 63.5t64 42t80 15t79 -15t61.5 -44t39.5 -71t14 -94q0 -61 -12 -115t-30.5 -100.5t-42.5 -85.5t-47 -70q-48 -62 -103 -98t-110 -36 q-46 0 -70.5 24t-24.5 62z" />
<glyph unicode="&#x2022;" horiz-adv-x="1000" d="M175 699q0 70 24.5 130t68 104t103.5 68.5t131 24.5t130 -24t102 -67t67 -102t24 -130q0 -72 -24.5 -131.5t-68 -103t-103.5 -68t-131 -24.5t-130.5 24t-102 66.5t-66.5 101.5t-24 131z" />
<glyph unicode="&#x2026;" horiz-adv-x="1873" d="M115 182q0 44 16 81.5t43.5 65.5t65.5 43.5t83 15.5q44 0 81 -15t63.5 -42t41.5 -64t15 -81q0 -45 -15.5 -83t-43 -65.5t-65 -43t-82.5 -15.5q-44 0 -81.5 14.5t-64.5 41.5t-42 64.5t-15 82.5zM733 182q0 44 15.5 81.5t43 65.5t65 43.5t81.5 15.5q45 0 82.5 -15t64.5 -42 t42 -64t15 -81q0 -45 -15.5 -83t-43.5 -65.5t-66 -43t-83 -15.5q-44 0 -81 14.5t-63.5 41.5t-41.5 64.5t-15 82.5zM1348 182q0 44 16 81.5t43.5 65.5t65.5 43.5t82 15.5q45 0 82 -15t64 -42t42 -64t15 -81q0 -45 -15.5 -83t-43.5 -65.5t-65.5 -43t-82.5 -15.5 q-44 0 -81.5 14.5t-64.5 41.5t-42 64.5t-15 82.5z" />
<glyph unicode="&#x202f;" horiz-adv-x="397" />
<glyph unicode="&#x2039;" horiz-adv-x="750" d="M75 511q0 38 15.5 67t39.5 55l276 295q26 27 51 44.5t59 17.5q30 0 56.5 -11t47 -29.5t32.5 -42.5t12 -52q0 -25 -11.5 -46.5t-30.5 -44.5l-206 -245l211 -253q21 -27 31.5 -47t10.5 -45q0 -28 -12.5 -52.5t-33.5 -43t-48 -29.5t-57 -11q-18 0 -32.5 4t-28.5 12 t-27.5 19.5t-28.5 28.5l-271 290q-24 25 -39.5 54.5t-15.5 64.5z" />
<glyph unicode="&#x203a;" horiz-adv-x="750" d="M81 850q0 28 12.5 52.5t33.5 43t48.5 29.5t56.5 11q35 0 60.5 -15t57.5 -49l271 -289q23 -25 38.5 -54.5t15.5 -65.5q0 -37 -15.5 -66t-39.5 -55l-277 -296q-25 -27 -50 -44t-59 -17q-30 0 -56.5 10.5t-47 29t-32.5 43t-12 51.5q0 26 11.5 47t30.5 45l206 245l-211 253 q-21 26 -31.5 46.5t-10.5 44.5z" />
<glyph unicode="&#x205f;" horiz-adv-x="496" />
<glyph unicode="&#x20ac;" horiz-adv-x="1283" d="M75 528q0 48 23.5 73.5t69.5 25.5h65q-1 6 -1 11v12q0 25 1.5 50t3.5 49h-69q-46 0 -69.5 25.5t-23.5 73.5t23.5 73.5t69.5 25.5h108q33 106 90.5 189t135.5 141t175 88.5t209 30.5q56 0 103 -7.5t84 -19.5t64.5 -28t44.5 -33q23 -23 33 -48.5t10 -56.5q0 -51 -30 -81 t-80 -30q-24 0 -46 8l-49 19q-27 10 -63.5 18.5t-87.5 8.5q-41 0 -79 -12t-71 -36.5t-60 -62t-45 -88.5h284q46 0 69.5 -25.5t23.5 -73.5t-23.5 -73.5t-69.5 -25.5h-329q-1 -17 -1.5 -36t-0.5 -37q0 -14 0.5 -25t0.5 -24h330q46 0 69.5 -25.5t23.5 -73.5t-23.5 -73.5 t-69.5 -25.5h-291q17 -50 44.5 -86.5t63 -60.5t79.5 -35.5t94 -11.5q52 0 88 8t62.5 16.5t47.5 16.5t44 8q44 0 71.5 -27.5t27.5 -73.5q0 -32 -9 -55t-32 -46q-19 -19 -52 -37t-77 -32t-99.5 -22t-118.5 -8q-111 0 -206 29t-170 85.5t-127.5 139.5t-79.5 192h-90 q-46 0 -69.5 25.5t-23.5 73.5z" />
<glyph unicode="&#x2122;" horiz-adv-x="1816" d="M28 1290q0 44 20.5 66t53.5 22h469q34 0 54 -22t20 -66q0 -45 -20 -67t-54 -22h-120v-416q0 -48 -28.5 -74t-85.5 -26q-58 0 -86.5 26t-28.5 74v416h-120q-33 0 -53.5 22t-20.5 67zM689 766q0 9 1 18.5t3 22.5l54 446q8 63 51 96t125 33q43 0 73 -8t50.5 -24.5t33 -40.5 t19.5 -55l65 -245l8 -35q3 -16 5 -30q4 -16 6 -31h2q2 15 6 31q2 14 5.5 31t8.5 34l64 244q7 32 19.5 56t33.5 40.5t51 24.5t72 8q83 0 125.5 -33t50.5 -96l54 -446q2 -13 2.5 -20.5t0.5 -13.5q0 -21 -9.5 -37.5t-25.5 -28t-37.5 -17.5t-46.5 -6q-19 0 -38 4.5t-34 15 t-25 25.5t-11 35l-26 303q-2 19 -2.5 37.5t-0.5 32.5q-1 17 -1 32h-1l-92 -356q-16 -70 -51 -99t-101 -29t-100.5 29t-50.5 99l-92 356h-2q0 -14 -1 -31q-1 -14 -1.5 -32.5t-1.5 -39.5l-21 -303q-2 -20 -11 -35t-24 -25t-33 -14.5t-37 -4.5q-18 0 -37.5 4t-36 14t-27.5 26 t-11 38z" />
<glyph unicode="&#x25fc;" horiz-adv-x="1035" d="M0 0v1035h1035v-1035h-1035z" />
<glyph unicode="&#xfb01;" horiz-adv-x="1300" d="M17 903q0 59 29 90t76 31h56v51q0 93 33 170t101 132.5t172.5 86t248.5 30.5q65 0 114.5 -7t87 -19t63.5 -27.5t43 -32.5q19 -19 28 -40.5t9 -52.5q0 -27 -8.5 -48t-23 -36.5t-34 -23.5t-41.5 -8q-26 0 -47 7l-46 14q-27 8 -64.5 14.5t-96.5 6.5q-54 0 -92 -10.5 t-61.5 -30.5t-34.5 -50.5t-11 -71.5v-54h508q72 0 109.5 -37t37.5 -110v-736q0 -71 -41.5 -109.5t-128.5 -38.5t-128.5 38.5t-41.5 109.5v642h-315v-642q0 -71 -41.5 -109.5t-128.5 -38.5t-128.5 38.5t-41.5 109.5v642h-56q-47 0 -76 30.5t-29 89.5z" />
<glyph unicode="&#xfb02;" horiz-adv-x="1350" d="M17 901q0 61 29 92t77 31h55v45q0 96 33 174.5t101 134.5t173.5 86.5t250.5 30.5q83 0 146.5 -7.5t111 -20t79 -29.5t49.5 -35q26 -26 35.5 -54t9.5 -68v-911q0 -37 4 -61t12 -38t19 -19.5t25 -5.5q10 0 20 1.5t20 1.5q14 0 28 -6t24.5 -17.5t17 -29.5t6.5 -41 q0 -37 -11 -62t-29 -43q-11 -12 -27.5 -23t-39.5 -19.5t-53.5 -13.5t-71.5 -5q-141 0 -212.5 72.5t-71.5 219.5v948q-13 5 -31 8q-16 4 -39.5 7t-54.5 3q-98 0 -142.5 -41.5t-44.5 -122.5v-59h90q48 0 77 -31t29 -92q0 -62 -29 -93t-77 -31h-87v-636q0 -71 -41.5 -109.5 t-128.5 -38.5t-128.5 38.5t-41.5 109.5v636h-55q-48 0 -77 31t-29 93z" />
</font>
</defs>
</svg>
